/* XPM */
static char * ewl0_xpm[] = {
"64 64 646 2",
"  	c None",
". 	c #684605",
"+ 	c #000000",
"@ 	c #AB6D1A",
"# 	c #F1A918",
"$ 	c #5E4004",
"% 	c #745005",
"& 	c #C18410",
"* 	c #623A07",
"= 	c #EA9833",
"- 	c #F2A536",
"; 	c #DD9B11",
"> 	c #1D1101",
", 	c #432C02",
"' 	c #E9A415",
") 	c #F1A235",
"! 	c #915811",
"~ 	c #B97939",
"{ 	c #F1C19A",
"] 	c #EEA03E",
"^ 	c #F6AA2E",
"/ 	c #B47E0C",
"( 	c #CB8F0E",
"_ 	c #F4A733",
": 	c #DC8B28",
"< 	c #1E1001",
"[ 	c #422604",
"} 	c #EAB38E",
"| 	c #F5E5DE",
"1 	c #EFA85C",
"2 	c #F7AD22",
"3 	c #765105",
"4 	c #986A09",
"5 	c #F9AC29",
"6 	c #ED9A34",
"7 	c #90570F",
"8 	c #985C11",
"9 	c #F2CEBA",
"0 	c #F6E9E6",
"a 	c #F2CDB2",
"b 	c #F0A33A",
"c 	c #DE9C13",
"d 	c #4B3203",
"e 	c #F0A81B",
"f 	c #EFA13C",
"g 	c #F0AD67",
"h 	c #EE9E3B",
"i 	c #C97A1A",
"j 	c #C77918",
"k 	c #F4DFD6",
"l 	c #F8F0EC",
"m 	c #F8EDE7",
"n 	c #EFA653",
"o 	c #F7AA2D",
"p 	c #936608",
"q 	c #BD840D",
"r 	c #F3A635",
"s 	c #EFAA61",
"t 	c #F8ECE4",
"u 	c #EFAA5E",
"v 	c #E99125",
"w 	c #4D2D06",
"x 	c #311C03",
"y 	c #E8994E",
"z 	c #F5E7E3",
"A 	c #FAF4F1",
"B 	c #FAF6F3",
"C 	c #F2C6A4",
"D 	c #DC9A16",
"E 	c #513703",
"F 	c #F4AA23",
"G 	c #F3D5C1",
"H 	c #FAF5F2",
"I 	c #F3C8A4",
"J 	c #EC962E",
"K 	c #955A11",
"L 	c #86500E",
"M 	c #EEB085",
"N 	c #F6E9E5",
"O 	c #F7E6DB",
"P 	c #EEA03D",
"Q 	c #F6AA2D",
"R 	c #6E4B05",
"S 	c #AF7A0B",
"T 	c #F0B47C",
"U 	c #F7EBE8",
"V 	c #F6DECB",
"W 	c #BF7418",
"X 	c #AA6714",
"Y 	c #F0C0A2",
"Z 	c #F7EDE9",
"` 	c #F0B37A",
" .	c #F1A339",
"..	c #AD790B",
"+.	c #DE9B1D",
"@.	c #F3D4C0",
"#.	c #F8F0ED",
"$.	c #F9EFE6",
"%.	c #EEA03F",
"&.	c #ED9D39",
"*.	c #DE871D",
"=.	c #030201",
"-.	c #F2CDB8",
";.	c #F4D3B9",
">.	c #C78A19",
",.	c #3A2603",
"'.	c #F4A92D",
").	c #EFA85A",
"!.	c #F5E6E1",
"~.	c #F9F4F1",
"{.	c #EFAA5D",
"].	c #EE9F3D",
"^.	c #EB8F1F",
"/.	c #603909",
"(.	c #DF881E",
"_.	c #F3D9CC",
":.	c #F9F2EF",
"<.	c #F5E9E0",
"[.	c #BF8030",
"}.	c #79501C",
"|.	c #634306",
"1.	c #986A0B",
"2.	c #A46D1D",
"3.	c #9F6319",
"4.	c #8C5F0A",
"5.	c #F1BC8B",
"6.	c #EB9022",
"7.	c #905610",
"8.	c #3F2405",
"9.	c #EB8F1E",
"0.	c #F4E2DA",
"a.	c #D5D1CF",
"b.	c #69635E",
"c.	c #A8750A",
"d.	c #E6A11B",
"e.	c #F5A931",
"f.	c #B37A1F",
"g.	c #EFA23C",
"h.	c #F3D4C1",
"i.	c #F6EBE8",
"j.	c #F3C9A5",
"k.	c #EC9226",
"l.	c #A86514",
"m.	c #7D4A0D",
"n.	c #EC932D",
"o.	c #F5E8E4",
"p.	c #F8F4F1",
"q.	c #A8A5A3",
"r.	c #865D09",
"s.	c #EDA713",
"t.	c #E59B37",
"u.	c #EFA23F",
"v.	c #F5E3DB",
"w.	c #F5D4BA",
"x.	c #EC9429",
"y.	c #C07418",
"z.	c #EDA265",
"A.	c #F6EAE7",
"B.	c #F5F1EF",
"C.	c #8A8786",
"D.	c #B57E0C",
"E.	c #FCB11A",
"F.	c #F2A437",
"G.	c #EEAF6F",
"H.	c #F7ECE9",
"I.	c #F6DBC6",
"J.	c #EC942A",
"K.	c #CD7D1B",
"L.	c #985B12",
"M.	c #EDA873",
"N.	c #F4EAE6",
"O.	c #898685",
"P.	c #C48A0E",
"Q.	c #FDB21B",
"R.	c #EDB37D",
"S.	c #F6EAE6",
"T.	c #F7E2D0",
"U.	c #EC942B",
"V.	c #D9841D",
"W.	c #9C5E12",
"X.	c #EFB183",
"Y.	c #A09794",
"Z.	c #BB830D",
"`.	c #FEB318",
" +	c #F3D6C5",
".+	c #F7E6D7",
"++	c #E0881E",
"@+	c #9A5D12",
"#+	c #C1834E",
"$+	c #986A06",
"%+	c #FFB413",
"&+	c #F3A636",
"*+	c #F4E1D7",
"=+	c #F7EEEA",
"-+	c #F8E7DB",
";+	c #EC9329",
">+	c #E1891E",
",+	c #7A490C",
"'+	c #6C4606",
")+	c #F7AE13",
"!+	c #F7AB2C",
"~+	c #EFAF70",
"{+	c #F5E3DA",
"]+	c #F9F3F0",
"^+	c #F8E7D9",
"/+	c #EC9225",
"(+	c #DA851D",
"_+	c #D4950F",
":+	c #EFA13D",
"<+	c #EFAD6B",
"[+	c #F5E0D4",
"}+	c #F7E3D3",
"|+	c #EB9020",
"1+	c #805906",
"2+	c #F4A732",
"3+	c #EEA44D",
"4+	c #F3CDB1",
"5+	c #F5D6BC",
"6+	c #EE9E3A",
"7+	c #9F6013",
"8+	c #DA9F3B",
"9+	c #FDCD94",
"0+	c #F2BE8F",
"a+	c #EEA347",
"b+	c #EFA95C",
"c+	c #F2C299",
"d+	c #ED9C38",
"e+	c #D07F1B",
"f+	c #694805",
"g+	c #FCDAB4",
"h+	c #F9EEE6",
"i+	c #F1B67F",
"j+	c #EEA142",
"k+	c #F3CAA7",
"l+	c #FAF4EF",
"m+	c #F1B780",
"n+	c #EB9124",
"o+	c #180C01",
"p+	c #BA820C",
"q+	c #FEBD55",
"r+	c #F8E9DD",
"s+	c #F7E0CF",
"t+	c #F2C094",
"u+	c #F3CAA5",
"v+	c #F7E5D7",
"w+	c #F4D0B2",
"x+	c #EEA348",
"y+	c #FAF5F0",
"z+	c #FAF6F2",
"A+	c #F6DAC4",
"B+	c #EC972F",
"C+	c #844E0E",
"D+	c #E7A311",
"E+	c #FBB021",
"F+	c #F1BA86",
"G+	c #F3C69F",
"H+	c #F0AD66",
"I+	c #F5D8C2",
"J+	c #F8E8DB",
"K+	c #F1B781",
"L+	c #F3C59F",
"M+	c #F0B170",
"N+	c #B66E16",
"O+	c #493003",
"P+	c #FEB313",
"Q+	c #F7A92A",
"R+	c #ED9B36",
"S+	c #EE9D39",
"T+	c #ED9830",
"U+	c #EB9123",
"V+	c #DC8F46",
"W+	c #342F2A",
"X+	c #28241D",
"Y+	c #C4A37A",
"Z+	c #FAAC16",
"`+	c #E68E22",
" @	c #C17A33",
".@	c #CA7F30",
"+@	c #EC9731",
"@@	c #FAF3EE",
"#@	c #E7912A",
"$@	c #C27B33",
"%@	c #C77E31",
"&@	c #E98E20",
"*@	c #EC962D",
"=@	c #EE9E3C",
"-@	c #F4D3BC",
";@	c #E6E1DC",
">@	c #706B66",
",@	c #140F07",
"'@	c #DFD9D3",
")@	c #F9D2AA",
"!@	c #E69025",
"~@	c #DED4CE",
"{@	c #E6E6E6",
"]@	c #494949",
"^@	c #9E6938",
"/@	c #F1B883",
"(@	c #F7E3D4",
"_@	c #E99734",
":@	c #DACCC4",
"<@	c #EBEBEB",
"[@	c #595959",
"}@	c #91623A",
"|@	c #F0B377",
"1@	c #F6F2EE",
"2@	c #8B857F",
"3@	c #B8B3AD",
"4@	c #F9CDA2",
"5@	c #BB7630",
"6@	c #F2F2F2",
"7@	c #FFFFFF",
"8@	c #616161",
"9@	c #393939",
"0@	c #E09236",
"a@	c #F5D3B8",
"b@	c #F0B172",
"c@	c #C68238",
"d@	c #E9E9E9",
"e@	c #7B7B7B",
"f@	c #353535",
"g@	c #D6852B",
"h@	c #ED9730",
"i@	c #EEA44B",
"j@	c #EEE9E5",
"k@	c #4C4741",
"l@	c #19150E",
"m@	c #D0CAC4",
"n@	c #F7D0AB",
"o@	c #AE7035",
"p@	c #808080",
"q@	c #9B9B9B",
"r@	c #262626",
"s@	c #414141",
"t@	c #D68F3F",
"u@	c #E7E3E0",
"v@	c #D4D1CE",
"w@	c #EDE9E6",
"x@	c #B97B3A",
"y@	c #787878",
"z@	c #A3A3A3",
"A@	c #222222",
"B@	c #CB7F30",
"C@	c #F6DCC7",
"D@	c #F3EEEA",
"E@	c #77726D",
"F@	c #16120B",
"G@	c #DBD6D1",
"H@	c #F8E5D3",
"I@	c #CE8230",
"J@	c #3E3E3E",
"K@	c #0F0F0F",
"L@	c #C8C8C8",
"M@	c #C5C0BD",
"N@	c #EEC09C",
"O@	c #CEC1BF",
"P@	c #E2ABAB",
"Q@	c #F8AEAE",
"R@	c #D88585",
"S@	c #DAD1CE",
"T@	c #F2BF93",
"U@	c #D88E39",
"V@	c #424241",
"W@	c #111111",
"X@	c #BCBCBC",
"Y@	c #CCC9C8",
"Z@	c #E28B24",
"`@	c #EEA141",
" #	c #F5D8C0",
".#	c #EDE4E1",
"+#	c #6B6662",
"@#	c #605B55",
"##	c #F2EDE9",
"$#	c #F5B97C",
"%#	c #B1743A",
"&#	c #5A524B",
"*#	c #837369",
"=#	c #D89E6E",
"-#	c #F9EFE8",
";#	c #CCA5A3",
">#	c #FE9A9A",
",#	c #FF9393",
"'#	c #FB7E7E",
")#	c #CAB6B4",
"!#	c #F9F2EC",
"~#	c #F1B680",
"{#	c #BA7A3A",
"]#	c #5E534B",
"^#	c #7A6D64",
"/#	c #D29059",
"(#	c #F7E1D0",
"_#	c #F8EFEB",
":#	c #E7DAD6",
"<#	c #665E5A",
"[#	c #928D87",
"}#	c #FAF1E7",
"|#	c #F2BB8A",
"1#	c #EB9730",
"2#	c #EFAF77",
"3#	c #F8EADF",
"4#	c #EFEBE9",
"5#	c #C8B1AF",
"6#	c #B17877",
"7#	c #CABBB8",
"8#	c #F6F2EF",
"9#	c #FAF4F0",
"0#	c #F4D1B6",
"a#	c #EEAA6E",
"b#	c #EC9B41",
"c#	c #EFAE75",
"d#	c #F4D1B5",
"e#	c #F9F1EB",
"f#	c #F7EDEA",
"g#	c #E0D2CE",
"h#	c #59524F",
"i#	c #B7B1AC",
"j#	c #EBE7E4",
"k#	c #858381",
"l#	c #FAF7F4",
"m#	c #CEC1BC",
"n#	c #3F3936",
"o#	c #080603",
"p#	c #C3B8B3",
"q#	c #F9F2EE",
"r#	c #F1EDEA",
"s#	c #C4C1BE",
"t#	c #D7D3D1",
"u#	c #C2BFBD",
"v#	c #E8E4E1",
"w#	c #EEE0DC",
"x#	c #A49994",
"y#	c #040403",
"z#	c #0A0804",
"A#	c #B3A7A2",
"B#	c #F4E6E1",
"C#	c #F8F1ED",
"D#	c #F7EEEB",
"E#	c #F7ECE8",
"F#	c #EFE1DC",
"G#	c #BCB0AC",
"H#	c #534C47",
"I#	c #776E69",
"J#	c #D3C6C1",
"K#	c #F4E6E2",
"L#	c #F3E5E0",
"M#	c #E1D3CE",
"N#	c #C4B8B3",
"O#	c #948A85",
"P#	c #36312D",
"Q#	c #56504B",
"R#	c #9B918B",
"S#	c #BAAEAA",
"T#	c #C6BAB5",
"U#	c #D2C4BD",
"V#	c #D2C4BE",
"W#	c #C8BBB7",
"X#	c #C0B5B0",
"Y#	c #B3A8A4",
"Z#	c #A39894",
"`#	c #8C827D",
" $	c #6B635F",
".$	c #362F2A",
"+$	c #41290A",
"@$	c #A69689",
"#$	c #ADAAA8",
"$$	c #BCB9B6",
"%$	c #C19468",
"&$	c #C98733",
"*$	c #D28B30",
"=$	c #775109",
"-$	c #B38E6B",
";$	c #F7E5D6",
">$	c #EC9E3C",
",$	c #E9932A",
"'$	c #EFA238",
")$	c #C0851D",
"!$	c #2B1A06",
"~$	c #EED8C6",
"{$	c #F0B782",
"]$	c #B17327",
"^$	c #E18C26",
"/$	c #EFA03B",
"($	c #C88B1C",
"_$	c #90683C",
":$	c #F5D7BF",
"<$	c #AD6F23",
"[$	c #EC9730",
"}$	c #F1A33A",
"|$	c #A3710D",
"1$	c #221D16",
"2$	c #C0A58D",
"3$	c #F8EBE0",
"4$	c #CB8834",
"5$	c #D1801F",
"6$	c #EAA22A",
"7$	c #2C1C01",
"8$	c #746C5F",
"9$	c #C2BCB3",
"0$	c #140901",
"a$	c #E1C9B6",
"b$	c #FAF5F1",
"c$	c #EFA54D",
"d$	c #E59A3C",
"e$	c #AC6815",
"f$	c #F1A438",
"g$	c #986909",
"h$	c #2B1C00",
"i$	c #FCF9F7",
"j$	c #A7A39F",
"k$	c #7E4B0D",
"l$	c #875110",
"m$	c #F4DBC8",
"n$	c #F0B274",
"o$	c #945A13",
"p$	c #ED9B37",
"q$	c #BA820F",
"r$	c #6D665A",
"s$	c #FCF7F2",
"t$	c #F1ECE9",
"u$	c #30261B",
"v$	c #6C635E",
"w$	c #E8A974",
"x$	c #956223",
"y$	c #F7E1CF",
"z$	c #986226",
"A$	c #EEA14E",
"B$	c #F1B985",
"C$	c #B59C7F",
"D$	c #AA8148",
"E$	c #F5D2B5",
"F$	c #80756E",
"G$	c #877D79",
"H$	c #F6E6DB",
"I$	c #98704A",
"J$	c #F5D8C1",
"K$	c #EFAC63",
"L$	c #996430",
"M$	c #E8DAD5",
"N$	c #E6E1DD",
"O$	c #5B5956",
"P$	c #986910",
"Q$	c #ECA135",
"R$	c #F1C29D",
"S$	c #7E726B",
"T$	c #AAA5A2",
"U$	c #817F7D",
"V$	c #EBB17B",
"W$	c #ED9831",
"X$	c #D17F1B",
"Y$	c #634219",
"Z$	c #A77024",
"`$	c #E29A30",
" %	c #E08C2D",
".%	c #2A241D",
"+%	c #B6701A",
"@%	c #F1BD94",
"#%	c #F6DFCD",
"$%	c #E48E25",
"%%	c #B06A16",
"&%	c #D1882E",
"*%	c #ED9932",
"=%	c #EB9021",
"-%	c #965A11",
";%	c #4D3004",
">%	c #EC922A",
",%	c #EEA25B",
"'%	c #ED9E4C",
")%	c #DD8B28",
"!%	c #C8822C",
"~%	c #ECA232",
"{%	c #674307",
"]%	c #E28A1E",
"^%	c #E98E1F",
"/%	c #A66414",
"(%	c #DA9A10",
"_%	c #9D6B1B",
":%	c #A06013",
"<%	c #D3801C",
"[%	c #E78C1F",
"}%	c #965A12",
"|%	c #EB9B38",
"1%	c #F9AE27",
"2%	c #6A3E0A",
"3%	c #B46D16",
"4%	c #C8791A",
"5%	c #B56D16",
"6%	c #6E410A",
"7%	c #322002",
"8%	c #FCB213",
"9%	c #D99138",
"0%	c #AC6F23",
"a%	c #070501",
"b%	c #9F5F12",
"c%	c #FCB01F",
"d%	c #795306",
"e%	c #603908",
"f%	c #BF751C",
"g%	c #DF9D10",
"h%	c #8E6208",
"i%	c #F5A930",
"j%	c #87500E",
"k%	c #D28222",
"l%	c #FDB21A",
"m%	c #E5A111",
"n%	c #9B6C0A",
"o%	c #F5A831",
"p%	c #9A5D11",
"q%	c #DC8925",
"r%	c #A06F09",
"s%	c #9E5E12",
"t%	c #E48E26",
"u%	c #FCB11E",
"v%	c #9C6D09",
"w%	c #ED9933",
"x%	c #9E5F12",
"y%	c #E38B20",
"z%	c #EE9F3C",
"A%	c #FAAE25",
"B%	c #917659",
"C%	c #FABF74",
"D%	c #EFA03C",
"E%	c #ED9B35",
"F%	c #EEA669",
"G%	c #9D806D",
"H%	c #E0BFAC",
"I%	c #EFB07F",
"J%	c #EFAC6C",
"K%	c #F3BB85",
"L%	c #D8B899",
"M%	c #46403D",
"N%	c #E5D8D3",
"O%	c #F5E4DC",
"P%	c #F5E2D9",
"Q%	c #E6D8D4",
"R%	c #544D48",
"S%	c #8A807C",
"T%	c #EADCD7",
"U%	c #ECDED9",
"V%	c #887F7B",
"W%	c #3E3935",
"X%	c #968C87",
"Y%	c #968C88",
"Z%	c #453E38",
"`%	c #201D1C",
" &	c #5B524C",
".&	c #292521",
"                                                                                                                                ",
"                                                                                                                                ",
"                                                      .                             +                                           ",
"                                                    @ # $                         % &                                           ",
"                                                  * = - ; >                     , ' ) !                                         ",
"                                                  ~ { ] ^ /                     ( _ ] : <                                       ",
"                                                [ } | 1 ] 2 3                 4 5 ] ] 6 7                                       ",
"                                                8 9 0 a ] b c               d e f g ] h i                                       ",
"                                                j k l m n ] o p             q r s t u ] v w                                     ",
"                                              x y z A B C ] f D           E F ] G H I ] J K                                     ",
"                                              L M N B B O P ] Q R         S - T U B V ] 6 W                                     ",
"                                              X Y Z B B H ` ]  ...        +.] @.#.B $.%.&.*.=.                                  ",
"                                              i -.l B B B ;.] ] >.      ,.'.).!.~.B B {.].^./.                                  ",
"                                            + (._.:.B B B <.[.}.|.1.2.3.4.- { N B B B 5.] 6.7.                                  ",
"                                            8.9.0.H B B a.b.c.d.e.f ] ] f.g.h.i.B B B j.] k.l.                                  ",
"                                            m.n.o.B p.q.r.s.^ P ] ] ] ] t.u.v.Z B B B w.] x.y.                                  ",
"                                            7.z.A.B.C.D.E.F.] ] ] ] ] ] ] G.z H.B B B I.] J.K.                                  ",
"                                            L.M.N.O.P.Q.b ] ] ] ] ] ] ] ] R.z S.B B B T.] U.V.                                  ",
"                                            W.X.Y.Z.`. .] ] ] ] ] ] ] ] ] %. +z A B B .+] J.++                                  ",
"                                            @+#+$+%+&+] ] ] ] ] ] ] ] ] ] ] 1 *+=+B B -+] ;+>++                                 ",
"                                            ,+'+)+!+] ] ] ] ] ] ] ] ] ] ] ] ] ~+{+]+B ^+] /+(+                                  ",
"                                            + _+Q.:+] ] ] ] ] ] ] ] ] ] ] ] ] ] <+[+~.}+] |+i                                   ",
"                                            1+%+2+] ] ] ] ] ] ] ] ] ] ] ] ] ] ] ] 3+4+5+6+^.7+                                  ",
"                                          + 8+9+0+a+] ] ] ] ] ] ] ] ] ] ] b+c+0+%.] ] P d+e+,+                                  ",
"                                          f+g+B B h+i+] ] ] j+] ] ] ] ] k+l+B B m+] ] ] ] n+>+o+                                ",
"                                          p+q+r+B B s+] t+u+v+0+w+] ] x+y+B z+A+j+] ] ] ] B+^.C+                                ",
"                                        + D+E+j+F+G+H+] I+B B B J+] ] ] K+L+M+] ] ] ] ] ] d+^.N+                                ",
"                                        O+P+Q+R+S+] ] ] v+B B B H ).] ] ] P 6 T+R+] ] ] ] ].U+V+W+                              ",
"                                      X+Y+Z+`+ @.@+@] j+@@B B B B L+] ] P #@$@%@&@*@] ] ] ] =@-@;@>@                            ",
"                                    ,@'@)@!@~@{@]@^@S+/@B B B B B (@] ] _@:@<@[@}@^.d+] ] ] |@y+B 1@2@                          ",
"                                      3@4@5@6@7@8@9@0@a@B B B B B z+b@] c@d@7@e@f@g@h@] ] i@r+B B j@k@                          ",
"                                    l@m@n@o@p@q@r@s@t@h+u@v@w@B B B V ] x@y@z@A@s@B@B+] %.C@B B B D@E@                          ",
"                                    F@G@H@I@J@K@L@M@N@O@P@Q@R@S@B B B T@U@V@W@X@Y@Z@R+`@ #B B B H .#+#                          ",
"                                      @###$#%#&#*#=#-#;#>#,#'#)#B B B !#~#{#]#^#/#x.u (#B B H _#:#<#                            ",
"                                        [#}#|#1#2#3#B 4#5#6#7#8#B B B B 9#0#a#b#c#d#e#B ]+f#o.g#h#                              ",
"                                        + i#B y+B B B B j#k#w@B B B B B B B B l#B H l A.z z m#n#                                ",
"                                          o#p#Z q#H B r#s#t#u#v#B B B B B H :._#A.z z z w#x#y#                                  ",
"                                            z#A#B#z S.Z _#l #.C##.l D#E#S.z z z z z F#G#H#                                      ",
"                                              + I#J#K#z z z z z z z z z z z L#M#N#O#P#                                          ",
"                                                  + Q#R#S#T#U#V#W#X#Y#Z#`# $.$+                                                 ",
"                                                          + +$@$#$$$%$&$*$=$                                                    ",
"                                                            -$y+B B ;$>$,$'$)$                                                  ",
"                                                          !$~$B B B B {$]$^$/$($                                                ",
"                                                          _$l+B B B B :$] <$[$}$|$    1$                                        ",
"                                                          2$B B B B B 3$] 4$5$] 6$7$  8$9$                                      ",
"                                                        0$a$B B B B B b$c$d$e$6+f$g$  h$i$j$                                    ",
"                                                      k$l$m$B B B B B B n$] o$p$] q$  r$s$t$u$                                  ",
"                                                    v$w$x$y$B B B B B B ~#] z$A$B$C$  D$E$!#F$                                  ",
"                                                    G$H$I$J$B B B B B z+K$] L$M$N$O$P$Q$] R$S$                                  ",
"                                                      T$U$V$b$B B B B (#] W$X$Y$Z$`$g.] d+ %.%                                  ",
"                                                          +%@%h+B H #%).p$$%%%&%] ] ].*%=%-%                                    ",
"                                                          ;%e+>%,%'%)%!%] ~%{%]%U+k.=%^%/%                                      ",
"                                                          (%_%:%<%[%}%|%] 1%..2%3%4%5%6%                                        ",
"                                                        7%8%_ 9%0%a%b%].] c%(                                                   ",
"                                                        d%%+e.] 6 e%f%] ] Q.g%                                                  ",
"                                                        h%%+i%] R+j%k%] ] l%m%                                                  ",
"                                                        n%%+o%] p$p%q%] ] Q.D+                                                  ",
"                                                        r%%+_ ] R+s%t%] ] u%D+                                                  ",
"                                                        v%%+- ] w%x%y%z%] A%m%                                                  ",
"                                                        B%C%D%E%F%G%H%I%J%K%L%                                                  ",
"                                                        M%N%O%P%Q%R%S%T%z U%V%                                                  ",
"                                                          W%X%Y%Z%    `% &.&                                                    ",
"                                                                                                                                ",
"                                                                                                                                "};
