/* XPM */
static char * ewl1_xpm[] = {
"64 64 646 2",
"  	c None",
". 	c #402703",
"+ 	c #593C04",
"@ 	c #553804",
"# 	c #BE7C1B",
"$ 	c #E8A313",
"% 	c #4B3203",
"& 	c #674604",
"* 	c #F1A919",
"= 	c #955D13",
"- 	c #643C08",
"; 	c #EB9934",
"> 	c #F3A634",
", 	c #DC9B11",
"' 	c #2E1E01",
") 	c #382402",
"! 	c #E5A113",
"~ 	c #F2A537",
"{ 	c #E1902E",
"] 	c #382003",
"^ 	c #B06F29",
"/ 	c #F1BC8F",
"( 	c #EEA03E",
"_ 	c #F5A930",
": 	c #C98D0E",
"< 	c #C78C0E",
"[ 	c #F5A832",
"} 	c #ED9C38",
"| 	c #9A5D11",
"1 	c #DFA67B",
"2 	c #F5E4DE",
"3 	c #EFAC66",
"4 	c #F8AC2A",
"5 	c #A3720A",
"6 	c #976909",
"7 	c #F8AC28",
"8 	c #EEA03D",
"9 	c #D2811E",
"0 	c #73450B",
"a 	c #F0C0A2",
"b 	c #F5E8E4",
"c 	c #F4D6C2",
"d 	c #F5AB20",
"e 	c #664604",
"f 	c #503603",
"g 	c #F0A81C",
"h 	c #EFA13D",
"i 	c #F1BF93",
"j 	c #F0AF6C",
"k 	c #EC942B",
"l 	c #683E09",
"m 	c #A06013",
"n 	c #F2CEBA",
"o 	c #F7EDE9",
"p 	c #F9F2EF",
"q 	c #F0B580",
"r 	c #F1A339",
"s 	c #D49411",
"t 	c #BF860D",
"u 	c #F3A636",
"v 	c #EFAB65",
"w 	c #F7ECE6",
"x 	c #F4D0B3",
"y 	c #ED9831",
"z 	c #A16113",
"A 	c #C07418",
"B 	c #F3DACC",
"C 	c #F8F0ED",
"D 	c #FAF6F3",
"E 	c #F6DFCF",
"F 	c #F6AA2C",
"G 	c #805807",
"H 	c #4E3503",
"I 	c #F4A924",
"J 	c #F3D6C3",
"K 	c #F9F4F1",
"L 	c #F7E5D6",
"M 	c #ED9B37",
"N 	c #C67819",
"O 	c #D98319",
"P 	c #F5E2DB",
"Q 	c #F9F3F0",
"R 	c #FAF4F1",
"S 	c #F0B57F",
"T 	c #EFA13C",
"U 	c #CB8E13",
"V 	c #AC780B",
"W 	c #F6EAE7",
"X 	c #FAF3EE",
"Y 	c #EEA244",
"Z 	c #EE9E3B",
"` 	c #E28A1E",
" .	c #080401",
"..	c #2F1A03",
"+.	c #EA9430",
"@.	c #F5E7E2",
"#.	c #FAF5F2",
"$.	c #F6DCCB",
"%.	c #F1A729",
"&.	c #231501",
"*.	c #DB981D",
"=.	c #F3D5C2",
"-.	c #F8EFEC",
";.	c #F0B275",
">.	c #EB9020",
",.	c #6C400B",
"'.	c #74450C",
").	c #EDA05E",
"!.	c #FAF4F0",
"~.	c #EFAC65",
"{.	c #EBA034",
"].	c #704D05",
"^.	c #000000",
"/.	c #0A0501",
"(.	c #F4A82D",
"_.	c #EFA95F",
":.	c #F9F4F0",
"<.	c #F2C197",
"[.	c #EC9226",
"}.	c #975B11",
"|.	c #8F5510",
"1.	c #EDA66F",
"2.	c #F6EAE6",
"3.	c #E2C3AB",
"4.	c #946224",
"5.	c #5E3F07",
"6.	c #AA770C",
"7.	c #CA8B22",
"8.	c #CF8A2E",
"9.	c #CF852A",
"0.	c #946113",
"a.	c #F3A635",
"b.	c #F1C29D",
"c.	c #F4CEAE",
"d.	c #EC9329",
"e.	c #AB6715",
"f.	c #995C12",
"g.	c #EEAD7A",
"h.	c #F6EBE8",
"i.	c #F8F4F1",
"j.	c #B5B2B0",
"k.	c #6B4E26",
"l.	c #D19310",
"m.	c #F6AA29",
"n.	c #F0A23B",
"o.	c #D08C33",
"p.	c #F0A33A",
"q.	c #F3D6C4",
"r.	c #F6EBE7",
"s.	c #F5D6BE",
"t.	c #A66414",
"u.	c #EFB48A",
"v.	c #F7ECE9",
"w.	c #F1EDEA",
"x.	c #82807E",
"y.	c #B27C0B",
"z.	c #F9AF1B",
"A.	c #EFA447",
"B.	c #F5E5DF",
"C.	c #F7ECE8",
"D.	c #F6DCC8",
"E.	c #EC952C",
"F.	c #CE7D1B",
"G.	c #AF6A15",
"H.	c #EFB893",
"I.	c #F7EDEA",
"J.	c #EFECE9",
"K.	c #736E6A",
"L.	c #D1920F",
"M.	c #FBB021",
"N.	c #EFA23C",
"O.	c #EDB179",
"P.	c #F5E7E3",
"Q.	c #F7E3D4",
"R.	c #DB851D",
"S.	c #B16B15",
"T.	c #EFBA97",
"U.	c #F2E9E6",
"V.	c #797573",
"W.	c #D5960F",
"X.	c #EEA654",
"Y.	c #F4E3DB",
"Z.	c #F7E6D9",
"`.	c #E0881E",
" +	c #B16B16",
".+	c #EFBA99",
"++	c #968E8B",
"@+	c #C78B0E",
"#+	c #FDB21C",
"$+	c #EFA23B",
"%+	c #F1BE93",
"&+	c #F9F2EE",
"*+	c #F8E6D9",
"=+	c #EC942A",
"-+	c #E1891E",
";+	c #A26214",
">+	c #BF824E",
",+	c #9E6E08",
"'+	c #FFB414",
")+	c #F2A437",
"!+	c #F2CEB5",
"~+	c #F8E6D8",
"{+	c #EC9327",
"]+	c #DD871D",
"^+	c #804C0D",
"/+	c #6C4607",
"(+	c #F7AF13",
"_+	c #F7AB2D",
":+	c #EEA143",
"<+	c #F3D2BD",
"[+	c #F7E2D0",
"}+	c #EB9021",
"|+	c #D2801B",
"1+	c #CE900E",
"2+	c #FDB21B",
"3+	c #EEA141",
"4+	c #F2CAAC",
"5+	c #F9F1ED",
"6+	c #F5D9C4",
"7+	c #EE9F3C",
"8+	c #EB8F1F",
"9+	c #B97017",
"0+	c #6D4B05",
"a+	c #FEB313",
"b+	c #F5A831",
"c+	c #F0B37B",
"d+	c #F1BE90",
"e+	c #ED9B36",
"f+	c #E0891E",
"g+	c #71430B",
"h+	c #CB911F",
"i+	c #FDC984",
"j+	c #F2BD8D",
"k+	c #EEA449",
"l+	c #F3CAA8",
"m+	c #F7E4D5",
"n+	c #F0B070",
"o+	c #EE9F3D",
"p+	c #C17519",
"q+	c #0E0601",
"r+	c #442D02",
"s+	c #F8D1A2",
"t+	c #F9F0E9",
"u+	c #F2BD8E",
"v+	c #EEA140",
"w+	c #EFA858",
"x+	c #EFA652",
"y+	c #F6DECC",
"z+	c #FAF5F1",
"A+	c #F0B57B",
"B+	c #EC962E",
"C+	c #814D0D",
"D+	c #A07009",
"E+	c #FFBC50",
"F+	c #F9E9DC",
"G+	c #F8E9DC",
"H+	c #F2C299",
"I+	c #F4D2B5",
"J+	c #F4CFAF",
"K+	c #F7E0CE",
"L+	c #FAF4EE",
"M+	c #F1BA87",
"N+	c #BC7217",
"O+	c #D1930F",
"P+	c #FEB218",
"Q+	c #F1BA86",
"R+	c #F3C59F",
"S+	c #F0AE6A",
"T+	c #F4CEAF",
"U+	c #FAF3ED",
"V+	c #EEA348",
"W+	c #EEA242",
"X+	c #DD871E",
"Y+	c #0C0600",
"Z+	c #010100",
"`+	c #EFA812",
" @	c #FAAE24",
".@	c #ED9C37",
"+@	c #ED9D39",
"@@	c #F6DBC6",
"#@	c #F2BE90",
"$@	c #EE9E3A",
"%@	c #EC9429",
"&@	c #EC9225",
"*@	c #F0B483",
"=@	c #D8D2CE",
"-@	c #5F5954",
";@	c #8B795F",
">@	c #FDB114",
",@	c #EE961E",
"'@	c #CD802E",
")@	c #C97E32",
"!@	c #E8932D",
"~@	c #F8E9DD",
"{@	c #F6DCC7",
"]@	c #DF944C",
"^@	c #BEA799",
"/@	c #755943",
"(@	c #C07A32",
"_@	c #EB8F20",
":@	c #F8E7D9",
"<@	c #F3EEEA",
"[@	c #958F8A",
"}@	c #ADA8A1",
"|@	c #F9E1C8",
"1@	c #F09A25",
"2@	c #D5B7A5",
"3@	c #E8E8E8",
"4@	c #727272",
"5@	c #7B583B",
"6@	c #EA9834",
"7@	c #EFA754",
"8@	c #FAF4EF",
"9@	c #EFA95D",
"0@	c #EC9935",
"a@	c #D8CFCA",
"b@	c #FFFFFF",
"c@	c #A8A8A8",
"d@	c #383737",
"e@	c #D3832D",
"f@	c #F3C9A5",
"g@	c #938E88",
"h@	c #A9A49D",
"i@	c #FCE0C3",
"j@	c #DC892A",
"k@	c #D7D7D7",
"l@	c #A3A3A3",
"m@	c #2F2F2F",
"n@	c #C58239",
"o@	c #F5D3B8",
"p@	c #D98F39",
"q@	c #AFAFAF",
"r@	c #FBFBFB",
"s@	c #898989",
"t@	c #272727",
"u@	c #AA6E35",
"v@	c #EC9227",
"w@	c #F8F3EE",
"x@	c #807B76",
"y@	c #89847D",
"z@	c #FAE3CB",
"A@	c #CD822F",
"B@	c #707070",
"C@	c #B8B8B8",
"D@	c #343434",
"E@	c #434343",
"F@	c #B67939",
"G@	c #F6DECB",
"H@	c #E6E2E0",
"I@	c #C9C3C1",
"J@	c #CFCBC8",
"K@	c #F6F2EF",
"L@	c #FAF3EF",
"M@	c #F0AF6D",
"N@	c #DE9238",
"O@	c #363636",
"P@	c #252525",
"Q@	c #535353",
"R@	c #B1B1B1",
"S@	c #B37437",
"T@	c #EFAB62",
"U@	c #F9EDE3",
"V@	c #B2ABA6",
"W@	c #C5BFB9",
"X@	c #F9F1EA",
"Y@	c #E59537",
"Z@	c #514943",
"`@	c #121212",
" #	c #949494",
".#	c #E3E3E3",
"+#	c #D49C68",
"@#	c #DBD4CF",
"##	c #E1A9A9",
"$#	c #FEBBBB",
"%#	c #F79797",
"&#	c #C19896",
"*#	c #F8E8DB",
"=#	c #EEA34D",
"-#	c #926742",
";#	c #3B3B3B",
">#	c #737373",
",#	c #D2CECB",
"'#	c #DF8926",
")#	c #ED9A35",
"!#	c #F8ECE1",
"~#	c #F7EEEA",
"{#	c #B8ADA8",
"]#	c #030201",
"^#	c #39352F",
"/#	c #E6E1DC",
"(#	c #F8CEA6",
"_#	c #C57D33",
":#	c #60534A",
"<#	c #5F5A57",
"[#	c #C4936E",
"}#	c #D4CCC9",
"|#	c #F28989",
"1#	c #FF8F8F",
"2#	c #FB7E7E",
"3#	c #C39291",
"4#	c #F7E6D8",
"5#	c #EBA866",
"6#	c #BA7938",
"7#	c #AE723B",
"8#	c #DC8828",
"9#	c #ED9937",
"0#	c #F3C7A2",
"a#	c #F9F2EB",
"b#	c #B6AAA5",
"c#	c #6B6660",
"d#	c #F4EEE8",
"e#	c #F5C89D",
"f#	c #EA9633",
"g#	c #EB9D4E",
"h#	c #D6D1CE",
"i#	c #A28483",
"j#	c #C9C0BD",
"k#	c #F4F0ED",
"l#	c #F4D1B7",
"m#	c #F5D9C3",
"n#	c #F9EEE6",
"o#	c #F4E6E1",
"p#	c #A79C97",
"q#	c #8B867F",
"r#	c #F7F3EF",
"s#	c #848281",
"t#	c #BDB9B7",
"u#	c #F8EFEB",
"v#	c #F6E9E5",
"w#	c #ECDED9",
"x#	c #887F7B",
"y#	c #938B86",
"z#	c #F4E9E5",
"A#	c #F8F1ED",
"B#	c #D3D0CD",
"C#	c #E5E1DE",
"D#	c #DCD9D6",
"E#	c #D6D3D0",
"F#	c #F9F5F2",
"G#	c #F8F1EE",
"H#	c #F4E6E2",
"I#	c #C7BBB6",
"J#	c #554D49",
"K#	c #837A76",
"L#	c #EADCD7",
"M#	c #F7EEEB",
"N#	c #EDDFDA",
"O#	c #BFB3AF",
"P#	c #675F5B",
"Q#	c #46403B",
"R#	c #B4A9A4",
"S#	c #E9DBD6",
"T#	c #F6E7E2",
"U#	c #E2D4CF",
"V#	c #CCC0BB",
"W#	c #A99F9A",
"X#	c #807671",
"Y#	c #191513",
"Z#	c #0F0C08",
"`#	c #716964",
" $	c #A09590",
".$	c #B1A6A2",
"+$	c #B7ACA6",
"@$	c #B9ACA6",
"#$	c #B0A49E",
"$$	c #99908D",
"%$	c #7E7570",
"&$	c #655A53",
"*$	c #533303",
"=$	c #2D1A03",
"-$	c #241504",
";$	c #C0A893",
">$	c #D0CCCA",
",$	c #D8D5D2",
"'$	c #E3CCB8",
")$	c #E99D3C",
"!$	c #EC9832",
"~$	c #A8711F",
"{$	c #9F7955",
"]$	c #F9F3ED",
"^$	c #FAF6F2",
"/$	c #E9B077",
"($	c #CF8020",
"_$	c #EEA037",
":$	c #855C0A",
"<$	c #040200",
"[$	c #E3CBB8",
"}$	c #F5D7BF",
"|$	c #BC7928",
"1$	c #ED9933",
"2$	c #D08F25",
"3$	c #795223",
"4$	c #F9EFE7",
"5$	c #BB7D2F",
"6$	c #E9932B",
"7$	c #F1A535",
"8$	c #5E4004",
"9$	c #7C776E",
"0$	c #3A3632",
"a$	c #B19173",
"b$	c #B98852",
"c$	c #E59029",
"d$	c #9F6F09",
"e$	c #A39F97",
"f$	c #DDD8D3",
"g$	c #3F3B37",
"h$	c #D6BBA5",
"i$	c #A58E7D",
"j$	c #EB952D",
"k$	c #B37C10",
"l$	c #95918B",
"m$	c #FBF6F1",
"n$	c #BDB9B5",
"o$	c #EAD0BD",
"p$	c #957055",
"q$	c #ED9A34",
"r$	c #BC8312",
"s$	c #A89B8A",
"t$	c #FAF2EB",
"u$	c #F2EAE5",
"v$	c #282119",
"w$	c #59514C",
"x$	c #866C5A",
"y$	c #F6D7BF",
"z$	c #E6E2DF",
"A$	c #AF6914",
"B$	c #A8750A",
"C$	c #311F01",
"D$	c #DF992A",
"E$	c #EFA95A",
"F$	c #F5DFCF",
"G$	c #60554C",
"H$	c #7F7571",
"I$	c #9B908C",
"J$	c #F0C6A2",
"K$	c #D2CECC",
"L$	c #CEB5A7",
"M$	c #F3CBA9",
"N$	c #F4BF87",
"O$	c #6A4804",
"P$	c #92650B",
"Q$	c #D79329",
"R$	c #E79D59",
"S$	c #221C15",
"T$	c #5B5450",
"U$	c #D58D3E",
"V$	c #F8E9DE",
"W$	c #E6D0BF",
"X$	c #84766E",
"Y$	c #CCC4C0",
"Z$	c #999795",
"`$	c #97661C",
" %	c #EAA032",
".%	c #86500E",
"+%	c #EC9B4B",
"@%	c #F4D1B8",
"#%	c #F8E7DA",
"$%	c #EE9F41",
"%%	c #E19434",
"&%	c #B87B2A",
"*%	c #663F09",
"=%	c #D18529",
"-%	c #EE9D39",
";%	c #EB9225",
">%	c #DC861D",
",%	c #502E06",
"'%	c #432C03",
")%	c #BE850D",
"!%	c #9D5F13",
"~%	c #E88D1F",
"{%	c #EB9123",
"]%	c #EB9022",
"^%	c #D08223",
"/%	c #F4A734",
"(%	c #CD900E",
"_%	c #5D3608",
":%	c #B27D0B",
"<%	c #FDB219",
"[%	c #CD8934",
"}%	c #825219",
"|%	c #A86614",
"1%	c #C57819",
"2%	c #B67525",
"3%	c #F2A536",
"4%	c #734F06",
"5%	c #88510F",
"6%	c #985B12",
"7%	c #75460C",
"8%	c #EBA612",
"9%	c #FBAF22",
"0%	c #ED9E3C",
"a%	c #C07923",
"b%	c #FFB413",
"c%	c #C68B0E",
"d%	c #7F5806",
"e%	c #F8AB2B",
"f%	c #925810",
"g%	c #BE751D",
"h%	c #FCB11D",
"i%	c #F5AD13",
"j%	c #1F1202",
"k%	c #B37D0B",
"l%	c #F3A734",
"m%	c #89520F",
"n%	c #B06A15",
"o%	c #8F6308",
"p%	c #DB9A10",
"q%	c #EC972F",
"r%	c #72440C",
"s%	c #995B11",
"t%	c #BB830C",
"u%	c #160C01",
"v%	c #F4AC13",
"w%	c #FAAE25",
"x%	c #E68F26",
"y%	c #160A01",
"z%	c #FDB11D",
"A%	c #E09E10",
"B%	c #605751",
"C%	c #FAC78E",
"D%	c #F1A439",
"E%	c #CB7B1A",
"F%	c #120801",
"G%	c #E08920",
"H%	c #EE9D3A",
"I%	c #F2A94E",
"J%	c #EECFB3",
"K%	c #2A2521",
"L%	c #E6D8D4",
"M%	c #F0BC94",
"N%	c #EFB58C",
"O%	c #A68168",
"P%	c #BE977D",
"Q%	c #F0BD9B",
"R%	c #F1C8AD",
"S%	c #F4E2D9",
"T%	c #C0B4B0",
"U%	c #655E5A",
"V%	c #C8BBB7",
"W%	c #E0D3CE",
"X%	c #C4B8B3",
"Y%	c #453F3B",
"Z%	c #544C47",
"`%	c #CEC2BE",
" &	c #A69B96",
".&	c #352F29",
"                                                                                                                                ",
"                                                                                                                                ",
"                                                  . +                               @                                           ",
"                                                  # $ %                           & * =                                         ",
"                                                - ; > , '                       ) ! ~ { ]                                       ",
"                                                ^ / ( _ :                       < [ ( } |                                       ",
"                                                1 2 3 ( 4 5                   6 7 ( ( 8 9                                       ",
"                                              0 a b c ( 8 d e               f g h i j ( k l                                     ",
"                                              m n o p q ( r s               t u v w x ( y z                                     ",
"                                              A B C D E ( ( F G           H I ( J K L ( M N                                     ",
"                                              O P Q D R S ( T U           V ~ S W D X Y Z `  .                                  ",
"                                            ..+.@.#.D D $.( ( %.&.        *.( =.-.D D ;.( >.,.                                  ",
"                                            '.).b D D D !.~.( {.].^.^.^./.(._.@.:.D D <.( [.}.                                  ",
"                                            |.1.2.D D D D 3.4.5.6.7.8.9.0.a.b.b D D D c.( d.e.                                  ",
"                                            f.g.h.D D i.j.k.l.m.n.( ( ( o.p.q.r.D D D s.( k A                                   ",
"                                            t.u.v.D w.x.y.z.~ ( ( ( ( ( ( A.B.C.D D D D.( E.F.                                  ",
"                                            G.H.I.J.K.L.M.N.( ( ( ( ( ( ( O.P.r.D D D Q.( E.R.                                  ",
"                                            S.T.U.V.W.M.T ( ( ( ( ( ( ( ( X.Y.b D D D Z.( E.`.                                  ",
"                                             +.+++@+#+$+( ( ( ( ( ( ( ( ( ( %+P.&+D D *+( =+-+^.                                ",
"                                            ;+>+,+'+)+( ( ( ( ( ( ( ( ( ( ( ( !+2.D D ~+( {+]+                                  ",
"                                            ^+/+(+_+( ( ( ( ( ( ( ( ( ( ( ( ( :+<+-.D [+( }+|+                                  ",
"                                            ^.1+2+h ( ( ( ( ( ( ( ( ( ( ( ( ( ( 3+4+5+6+7+8+9+                                  ",
"                                            0+a+b+( ( ( ( ( ( ( ( ( ( ( ( ( ( ( ( ( c+d+e+f+g+                                  ",
"                                            h+i+j+k+( ( ( ( ( ( ( ( ( ( Y l+m+L n+( ( ( o+9 p+q+                                ",
"                                          r+s+D D t+u+( v+( w+( x+( ( ( y+D D z+A+( ( ( ( B+8+C+                                ",
"                                          D+E+F+D D G+( H+I+t+J+K+( ( 8 *+L+L M+( ( ( ( ( } 8+N+                                ",
"                                          O+P+3+Q+R+S+( T+D D D U+V+( ( 8 W+8 8 ( ( ( ( ( ( }+X+Y+                              ",
"                                        Z+`+ @.@+@( ( ( @@D D D D #@( ( ( $@%@>.&@e+( ( ( ( } *@=@-@                            ",
"                                      ^.;@>@,@'@)@!@( ( ~@D D D D {@( ( o+]@^@/@(@_@} ( ( ( v+:@D <@[@^.                        ",
"                                    ^.}@|@1@2@3@4@5@6@7@z+D D D D 8@9@( 0@a@b@c@d@e@E.( ( ( f@D D D g@                          ",
"                                      h@i@j@k@b@l@m@n@<.D D D D D D o@( p@q@r@s@t@u@v@( ( ;.X D D w@x@                          ",
"                                      y@z@A@B@C@D@E@F@G@H@I@J@K@D D L@M@N@O@P@Q@R@S@=+( T@U@D D D K V@^.                        ",
"                                    ^.W@X@Y@Z@`@ #.#+#@###$#%#&#D D D *#=#-#;#>#,#'#)#M@!#D D z+~#{#]#                          ",
"                                      ^#/#(#_#:#<#[#E }#|#1#2#3#D D D D 4#5#6#7#8#9#0#a#D R ~#b b#^.                            ",
"                                        c#d#e#f#g#6+D D h#i#j#k#D D D D D 8@G@l#m#n#D p v.P.o#p#^.                              ",
"                                          q#r#U+z+D D D K@s#t#i.D D D D D D D D :.u#v#P.P.w#x#^.                                ",
"                                            y#z#A#K D D B#C#D#E#F#D D D K G#I.v#P.P.P.H#I#J#                                    ",
"                                              K#L#P.b r.v.~#M#M#I.C.2.b P.P.P.P.P.N#O#P#^.                                      ",
"                                                Q#R#S#P.P.P.P.P.P.P.P.P.T#U#V#W#X#Y#                                            ",
"                                                    Z#`# $.$+$@$#$$$%$&$*$=$^.                                                  ",
"                                                            -$;$>$,$'$)$!$~$                                                    ",
"                                                            {$]$D D ^$/$($_$:$                                                  ",
"                                                          <$[$D D D D }$|$1$2$                                                  ",
"                                                          3$4$D D D D U@5$6$7$8$      9$0$                                      ",
"                                                          a$D D D D D ^$b$c$T d$      e$f$g$                                    ",
"                                                          h$D D D D D D i$j$( k$      l$m$n$                                    ",
"                                                        ^.o$D D D D D F#p$q$( r$      s$t$u$v$                                  ",
"                                                      w$x$y$D D D D D z$A$Z $+B$    C$D$E$F$G$                                  ",
"                                                      H$I$J$D D D D D K$L$M$N$O$  P$Q$8 o+R$S$                                  ",
"                                                        T$U$V$D D D D W$X$Y$Z$`$ %n.( o+%@9+                                    ",
"                                                          .%+%@%#%~+T+$%%%&%*%=%-%$@q$;%>%,%                                    ",
"                                                        '%)%!%~%>.{%]%^%( /%(%A 8+8+8+F._%                                      ",
"                                                        :%<%[%}%|%N 1%2%( 3%a+4%5%6%7%]#                                        ",
"                                                        8%9%( 0%.%  ^.a%( T b%c%                                                ",
"                                                      d%b%e%( +@f%    g%( ( h%i%j%                                              ",
"                                                      k%b%l%( )#m%    n%7+( e%b%o%                                              ",
"                                                      p%'+T ( q%r%    s%e+( ~ b%t%                                              ",
"                                                    u%v%w%( ( x%y%    '.B+( ( z%A%                                              ",
"                                                    B%C%D%( } E%      F%G%H%( I%J%^.                                            ",
"                                                    K%L%q.M%N%O%        P%Q%R%S%T%                                              ",
"                                                      U%V%W%X%Y%        Z%O#`% &.&                                              ",
"                                                                                                                                ",
"                                                                                                                                ",
"                                                                                                                                "};
