/* XPM */
static char * ewl2_xpm[] = {
"64 64 628 2",
"  	c None",
". 	c #3D2802",
"+ 	c #6D4B05",
"@ 	c #885B08",
"# 	c #C48416",
"$ 	c #CC8F0E",
"% 	c #241701",
"& 	c #553A03",
"* 	c #EBA516",
"= 	c #E4972A",
"- 	c #3D2303",
"; 	c #5C3707",
"> 	c #EB9935",
", 	c #F6AA2E",
"' 	c #D2940F",
") 	c #2B1C01",
"! 	c #2C1C01",
"~ 	c #E09D12",
"{ 	c #F3A635",
"] 	c #EE9E3C",
"^ 	c #A46313",
"/ 	c #A16211",
"( 	c #EFAF71",
"_ 	c #EEA03E",
": 	c #F6A930",
"< 	c #D1930F",
"[ 	c #170D01",
"} 	c #C48A0E",
"| 	c #F5A830",
"1 	c #D98824",
"2 	c #CC8F5B",
"3 	c #F5E3DB",
"4 	c #EFAA63",
"5 	c #F6AA2F",
"6 	c #C2880E",
"7 	c #976909",
"8 	c #F9AC29",
"9 	c #EEA44B",
"0 	c #ED972F",
"a 	c #7A490B",
"b 	c #190C01",
"c 	c #E8AD81",
"d 	c #F5E7E3",
"e 	c #F4DACB",
"f 	c #EEA140",
"g 	c #F8AB2A",
"h 	c #A1710A",
"i 	c #4D3403",
"j 	c #EFA71C",
"k 	c #EFA13D",
"l 	c #F1BE93",
"m 	c #F5D4BA",
"n 	c #ED9A35",
"o 	c #A96614",
"p 	c #6B400A",
"q 	c #EFBB99",
"r 	c #F6E9E5",
"s 	c #F9F4F1",
"t 	c #F2C39F",
"u 	c #F4AA21",
"v 	c #654504",
"w 	c #BF860D",
"x 	c #F2A536",
"y 	c #EFAC68",
"z 	c #F7EBE5",
"A 	c #F8EBE1",
"B 	c #EE9D3A",
"C 	c #CF7D1B",
"D 	c #8F550F",
"E 	c #F0C1A4",
"F 	c #F7ECE8",
"G 	c #FAF6F3",
"H 	c #F8EEE8",
"I 	c #EFA85B",
"J 	c #F0A33A",
"K 	c #CD9012",
"L 	c #4B3303",
"M 	c #F3A925",
"N 	c #F3D7C5",
"O 	c #F9F3F0",
"P 	c #FAF6F2",
"Q 	c #EFA855",
"R 	c #EEA03D",
"S 	c #E78D1F",
"T 	c #281603",
"U 	c #A16113",
"V 	c #F1C6AC",
"W 	c #F7EDEA",
"X 	c #F4D5BF",
"Y 	c #F5A92D",
"Z 	c #6F4C05",
"` 	c #AA770A",
" .	c #F2A437",
"..	c #F0B683",
"+.	c #F1BB89",
"@.	c #EC9225",
"#.	c #79480D",
"$.	c #B66E16",
"%.	c #F1CAB4",
"&.	c #F8EFEB",
"*.	c #F9F4F0",
"=.	c #F0B072",
"-.	c #EFA23C",
";.	c #B98110",
">.	c #D5941C",
",.	c #F3D6C3",
"'.	c #F3C8A3",
").	c #EC9329",
"!.	c #995C11",
"~.	c #BD7218",
"{.	c #F2CDB8",
"].	c #F8F0EC",
"^.	c #F6DCC8",
"/.	c #ED9F3E",
"(.	c #C08420",
"_.	c #000000",
":.	c #271502",
"<.	c #3E2404",
"[.	c #EFA52D",
"}.	c #EFAB64",
"|.	c #F5E6E2",
"1.	c #F5D3B9",
"2.	c #EC952B",
"3.	c #B06A15",
"4.	c #C7791A",
"5.	c #F2CEBA",
"6.	c #F8F0ED",
"7.	c #FAF5F2",
"8.	c #C7915A",
"9.	c #644114",
"0.	c #996A08",
"a.	c #CF901C",
"b.	c #EA9F31",
"c.	c #EE9E39",
"d.	c #B47223",
"e.	c #F2A535",
"f.	c #F1C4A2",
"g.	c #F5E8E4",
"h.	c #F6D9C4",
"i.	c #EC962D",
"j.	c #C27618",
"k.	c #CD7D1B",
"l.	c #F8F1ED",
"m.	c #F1EDEA",
"n.	c #8F8C8B",
"o.	c #966805",
"p.	c #EBA519",
"q.	c #F4A733",
"r.	c #EA9D3D",
"s.	c #EEA138",
"t.	c #F4DACA",
"u.	c #F6EAE6",
"v.	c #F6E0CD",
"w.	c #EC962F",
"x.	c #CF7E1B",
"y.	c #D07F1B",
"z.	c #E9E5E2",
"A.	c #6E6761",
"B.	c #CC8F0F",
"C.	c #FAAF24",
"D.	c #EDA553",
"E.	c #F5E7E2",
"F.	c #F6EAE7",
"G.	c #F7E5D6",
"H.	c #EC972F",
"I.	c #DA851D",
"J.	c #F1CBB4",
"K.	c #EAE6E4",
"L.	c #695E54",
"M.	c #E29F11",
"N.	c #F9AD28",
"O.	c #EDAC6A",
"P.	c #F8E7DB",
"Q.	c #EC962E",
"R.	c #E0891E",
"S.	c #C67819",
"T.	c #F1C6AD",
"U.	c #F1E9E6",
"V.	c #726B66",
"W.	c #DF9D10",
"X.	c #FAAE25",
"Y.	c #F3D4C0",
"Z.	c #EC952C",
"`.	c #E28A1E",
" +	c #928A88",
".+	c #D0920F",
"++	c #FCB11E",
"@+	c #EFA95F",
"#+	c #F8EFEC",
"$+	c #F7E5D7",
"%+	c #EC9429",
"&+	c #DF881E",
"*+	c #B06B16",
"=+	c #C28758",
"-+	c #9D6D08",
";+	c #FFB315",
">+	c #F1A438",
",+	c #F0B784",
"'+	c #F7E2D1",
")+	c #EB9224",
"!+	c #D6821C",
"~+	c #88520F",
"{+	c #684207",
"]+	c #F5AD12",
"^+	c #F7AB2D",
"/+	c #F0BB8E",
"(+	c #F6DAC4",
"_+	c #EE9F3D",
":+	c #EB8F1F",
"<+	c #C47719",
"[+	c #010000",
"}+	c #C68B0D",
"|+	c #FEB219",
"1+	c #F0B47F",
"2+	c #F7E8DE",
"3+	c #F4D0B4",
"4+	c #ED9C38",
"5+	c #573B03",
"6+	c #FBB113",
"7+	c #F0AF6A",
"8+	c #F0B47A",
"9+	c #EEA03F",
"0+	c #EFAB61",
"a+	c #C5781A",
"b+	c #73440C",
"c+	c #BA820D",
"d+	c #FEC269",
"e+	c #F2B87E",
"f+	c #EEA348",
"g+	c #F0AE69",
"h+	c #F3C59D",
"i+	c #E5912B",
"j+	c #E68C1E",
"k+	c #71430B",
"l+	c #EDC38C",
"m+	c #F9F1EA",
"n+	c #F2C399",
"o+	c #EEA243",
"p+	c #F0B16F",
"q+	c #F0AF6B",
"r+	c #EFA95C",
"s+	c #ED9C37",
"t+	c #BA7117",
"u+	c #7D5606",
"v+	c #FFBB4D",
"w+	c #FAEBDE",
"x+	c #F9F0E9",
"y+	c #F1BA85",
"z+	c #F5D9C1",
"A+	c #FAF5F1",
"B+	c #F9EDE3",
"C+	c #F3C69F",
"D+	c #F6DAC5",
"E+	c #F3C9A5",
"F+	c #EFA44C",
"G+	c #EB9022",
"H+	c #E1891E",
"I+	c #0C0501",
"J+	c #B47E0B",
"K+	c #FFB413",
"L+	c #F0A341",
"M+	c #F1BC8A",
"N+	c #F3C8A5",
"O+	c #F0B376",
"P+	c #F2C49C",
"Q+	c #F0B478",
"R+	c #EE9E3B",
"S+	c #ED9934",
"T+	c #ED9933",
"U+	c #EC973D",
"V+	c #BFB6AE",
"W+	c #38342F",
"X+	c #D7970F",
"Y+	c #FDB21B",
"Z+	c #EE9D39",
"`+	c #F4CEB0",
" @	c #E08A27",
".@	c #CC8030",
"+@	c #E58C22",
"@@	c #EB9124",
"#@	c #F4CCAC",
"$@	c #EBE6E1",
"%@	c #89837E",
"&@	c #433E38",
"*@	c #F1AB1D",
"=@	c #F49F1C",
"-@	c #DD8827",
";@	c #CC802F",
">@	c #E5902B",
",@	c #EE9F3C",
"'@	c #F6DCC9",
")@	c #F9EFE7",
"!@	c #EEA346",
"~@	c #DC9B66",
"{@	c #DDDBDA",
"]@	c #929292",
"^@	c #5E4A3C",
"/@	c #DB8728",
"(@	c #EFA859",
"_@	c #CCC6C2",
":@	c #68635E",
"<@	c #E6DCCE",
"[@	c #F5A523",
"}@	c #D99D70",
"|@	c #E2E1E0",
"1@	c #8C8C8C",
"2@	c #624C3C",
"3@	c #DF9033",
"4@	c #F3C6A0",
"5@	c #C4B6AD",
"6@	c #FFFFFF",
"7@	c #D1D1D1",
"8@	c #272727",
"9@	c #9A6637",
"0@	c #EB8F20",
"a@	c #948D87",
"b@	c #9C968F",
"c@	c #FBECDC",
"d@	c #F09A22",
"e@	c #C5BCB7",
"f@	c #CCCCCC",
"g@	c #282828",
"h@	c #A26B37",
"i@	c #EFAB63",
"j@	c #F9EDE4",
"k@	c #EEA44C",
"l@	c #EE9C37",
"m@	c #66615E",
"n@	c #C9C9C9",
"o@	c #7B7B7B",
"p@	c #7C573A",
"q@	c #F3C7A1",
"r@	c #E3DDD8",
"s@	c #060402",
"t@	c #2F2B24",
"u@	c #EBE0D3",
"v@	c #EC9920",
"w@	c #62615F",
"x@	c #6E6E6E",
"y@	c #363636",
"z@	c #8A5E39",
"A@	c #F3CAA7",
"B@	c #EAE6E3",
"C@	c #CCC1BF",
"D@	c #C8BAB8",
"E@	c #E1DDDB",
"F@	c #F5D6BD",
"G@	c #835F42",
"H@	c #1C1C1C",
"I@	c #050505",
"J@	c #F7F7F7",
"K@	c #B48664",
"L@	c #EC9226",
"M@	c #F2BF91",
"N@	c #FAF4F0",
"O@	c #EBE1DD",
"P@	c #645C58",
"Q@	c #A29C95",
"R@	c #F0AE72",
"S@	c #7C5B42",
"T@	c #1A1A1A",
"U@	c #313131",
"V@	c #F9F9F9",
"W@	c #B78459",
"X@	c #EFE1D6",
"Y@	c #CE9D9D",
"Z@	c #FEC0C0",
"`@	c #FFA0A0",
" #	c #D57777",
".#	c #EEEAE7",
"+#	c #F3CAA8",
"@#	c #D98E37",
"##	c #6A5648",
"$#	c #494A4A",
"%#	c #A79387",
"&#	c #E28B27",
"*#	c #F3C9A4",
"=#	c #EBDDD9",
"-#	c #6C6461",
";#	c #1A160E",
">#	c #D5D0CA",
",#	c #F9E0C8",
"'#	c #D6872C",
")#	c #695648",
"!#	c #4B4B4A",
"~#	c #AB9181",
"{#	c #ECC1A1",
"]#	c #EFEBE8",
"^#	c #CE7C7C",
"/#	c #FE8A8A",
"(#	c #F97E7E",
"_#	c #C57675",
":#	c #F4F0ED",
"<#	c #F6DBC6",
"[#	c #ECAB6F",
"}#	c #DE8F33",
"|#	c #EC983A",
"1#	c #F1B98A",
"2#	c #F7E3D4",
"3#	c #EADCD8",
"4#	c #716864",
"5#	c #454039",
"6#	c #E6E2DD",
"7#	c #F8D5B2",
"8#	c #EB9739",
"9#	c #E18F2E",
"0#	c #F1BE96",
"a#	c #FAF4EF",
"b#	c #EAE7E4",
"c#	c #B8B2AF",
"d#	c #ADA8A6",
"e#	c #F2EFEC",
"f#	c #FAF3EE",
"g#	c #F9F2EF",
"h#	c #E2D4D0",
"i#	c #625B57",
"j#	c #66615B",
"k#	c #EDE9E4",
"l#	c #F9F2EB",
"m#	c #F9EFE6",
"n#	c #B3B1AE",
"o#	c #797776",
"p#	c #DEDAD8",
"q#	c #C6BAB5",
"r#	c #433D39",
"s#	c #68625E",
"t#	c #EAE0DB",
"u#	c #E5E2DF",
"v#	c #E2DEDB",
"w#	c #F6F2EF",
"x#	c #E0DCDA",
"y#	c #F1EEEB",
"z#	c #DBCEC9",
"A#	c #867D78",
"B#	c #5A5450",
"C#	c #D6C9C4",
"D#	c #F6EBE7",
"E#	c #F6EBE8",
"F#	c #E7D9D4",
"G#	c #BEB3AE",
"H#	c #7C736E",
"I#	c #030100",
"J#	c #0B0907",
"K#	c #938A84",
"L#	c #D7CAC5",
"M#	c #F4E6E1",
"N#	c #E5D8D3",
"O#	c #D4C7C3",
"P#	c #BBAFAA",
"Q#	c #998F8B",
"R#	c #5D554F",
"S#	c #090604",
"T#	c #47413B",
"U#	c #7D746F",
"V#	c #988D87",
"W#	c #9C928D",
"X#	c #A0938B",
"Y#	c #8E837C",
"Z#	c #6D6562",
"`#	c #5D5249",
" $	c #6F4918",
".$	c #9B6624",
"+$	c #7C511B",
"@$	c #C5A88F",
"#$	c #E5E1DE",
"$$	c #F9F2ED",
"%$	c #EFAD68",
"&$	c #D28323",
"*$	c #D78F2C",
"=$	c #020101",
"-$	c #8B663D",
";$	c #F9F0E8",
">$	c #BC741C",
",$	c #F0A336",
"'$	c #3B2703",
")$	c #D5BCA7",
"!$	c #F6ECE5",
"~$	c #BC7219",
"{$	c #F0A239",
"]$	c #7D5608",
"^$	c #010100",
"/$	c #1A150C",
"($	c #5F3E15",
"_$	c #F7E8DC",
":$	c #CCC9C6",
"<$	c #DA8722",
"[$	c #8E600C",
"}$	c #C8C3BA",
"|$	c #696662",
"1$	c #A57F5B",
"2$	c #EEEBE8",
"3$	c #9D7151",
"4$	c #ED9932",
"5$	c #F3A636",
"6$	c #9D6512",
"7$	c #3F2405",
"8$	c #CAC8C4",
"9$	c #EDE9E5",
"0$	c #5B5753",
"a$	c #CAAC92",
"b$	c #F7F3F0",
"c$	c #8C7E76",
"d$	c #E18C25",
"e$	c #EDA32E",
"f$	c #A0651D",
"g$	c #75460C",
"h$	c #C5C0B8",
"i$	c #C5C0BB",
"j$	c #E1C4AC",
"k$	c #B0ADAB",
"l$	c #CF8332",
"m$	c #CA8C1A",
"n$	c #CA832C",
"o$	c #8B530F",
"p$	c #D8AA77",
"q$	c #E7DCD5",
"r$	c #EAC7AA",
"s$	c #FBF7F4",
"t$	c #948B87",
"u$	c #F2CFB7",
"v$	c #F3A730",
"w$	c #8E6116",
"x$	c #EB9832",
"y$	c #8A520F",
"z$	c #956610",
"A$	c #F0A339",
"B$	c #E6B189",
"C$	c #DFA66F",
"D$	c #9B9794",
"E$	c #E0D8D3",
"F$	c #F5E0CE",
"G$	c #A4741B",
"H$	c #CE8A34",
"I$	c #7C4A0D",
"J$	c #C48622",
"K$	c #EFA239",
"L$	c #B8711C",
"M$	c #F3CBAC",
"N$	c #F5F1EE",
"O$	c #AFABA9",
"P$	c #916B44",
"Q$	c #DD8E2D",
"R$	c #D2801B",
"S$	c #9A6720",
"T$	c #F0A23A",
"U$	c #ED9A34",
"V$	c #EA8F20",
"W$	c #7E4B0D",
"X$	c #593C04",
"Y$	c #855909",
"Z$	c #EFAB70",
"`$	c #F3CCAF",
" %	c #F1B782",
".%	c #ED9B36",
"+%	c #ECA036",
"@%	c #9E641E",
"#%	c #EC9328",
"$%	c #A86515",
"%%	c #271801",
"&%	c #E19E10",
"*%	c #EDA521",
"=%	c #825218",
"-%	c #CE7D1B",
";%	c #DE871D",
">%	c #EB9D3C",
",%	c #FEB317",
"'%	c #CA8E0F",
")%	c #B56D16",
"!%	c #DA841D",
"~%	c #925811",
"{%	c #B9820C",
"]%	c #F4A734",
"^%	c #E89C3C",
"/%	c #9B6421",
"(%	c #72440B",
"_%	c #9E5F13",
":%	c #A96615",
"<%	c #824E0E",
"[%	c #ED9D39",
"}%	c #F7AB2C",
"|%	c #A7750B",
"1%	c #472A07",
"2%	c #6E4B05",
"3%	c #FDB11D",
"4%	c #C87E25",
"5%	c #DF8F2F",
"6%	c #EFA13C",
"7%	c #F9B013",
"8%	c #F4A732",
"9%	c #A56314",
"0%	c #BA721B",
"a%	c #F4A832",
"b%	c #DA9A10",
"c%	c #734F06",
"d%	c #FDB313",
"e%	c #FBB021",
"f%	c #ED9730",
"g%	c #6A3F0A",
"h%	c #7B490D",
"i%	c #ED9831",
"j%	c #986A09",
"k%	c #C89D65",
"l%	c #FEB316",
"m%	c #F1A439",
"n%	c #CF7F1D",
"o%	c #FAAE26",
"p%	c #DDBB9B",
"q%	c #D9CBC4",
"r%	c #F1B67F",
"s%	c #8E5510",
"t%	c #F1C099",
"u%	c #9D938E",
"v%	c #F5E5E0",
"w%	c #F1C3A4",
"x%	c #ED9F52",
"y%	c #D28226",
"z%	c #BC7527",
"A%	c #EEA66A",
"B%	c #F1CAB1",
"C%	c #F3E5E1",
"D%	c #8E847F",
"E%	c #DCCFCB",
"F%	c #DCCFCA",
"G%	c #786F6A",
"H%	c #4D4744",
"I%	c #C1B5B0",
"J%	c #C8BCB7",
"K%	c #817873",
"                                                                                                                                ",
"                                                                                                                                ",
"                                                .                                   + @                                         ",
"                                                # $ %                             & * = -                                       ",
"                                              ; > , ' )                         ! ~ { ] ^                                       ",
"                                              / ( _ : < [                       } | _ _ 1                                       ",
"                                              2 3 4 _ 5 6                     7 8 _ 9 _ 0 a                                     ",
"                                            b c d e f _ g h                 i j k l m _ n o                                     ",
"                                            p q r s t _ _ u v               w x y z A _ B C                                     ",
"                                            D E F G H I _ J K             L M _ N O P Q R S T                                   ",
"                                            U V W G G X _ _ Y Z           `  ...r G G +._ @.#.                                  ",
"                                            $.%.&.G G *.=._ -.;.          >._ ,.&.G G '._ ).!.                                  ",
"                                            ~.{.].G G G ^._ /.(._._.:.<._.[.}.|.O G G 1._ 2.3.                                  ",
"                                            4.5.6.G G G 7.8.9.0.a.b.c.n d.e.f.g.G G G h._ i.j.                                  ",
"                                            k.5.l.G G m.n.o.p.q._ _ _ _ r.s.t.u.G G G v._ w.x.                                  ",
"                                            y.{.l.G z.A.B.C.-._ _ _ _ _ _ D.E.F.G G G G._ H.I.                                  ",
"                                            C J.l.K.L.M.N._ _ _ _ _ _ _ _ O.d r G G G P._ Q.R.                                  ",
"                                            S.T.U.V.W.X._ _ _ _ _ _ _ _ _ _ Y.d 7.G G P._ Z.`._.                                ",
"                                            ~.E  +.+++k _ _ _ _ _ _ _ _ _ _ @+3 #+G G $+_ %+&+                                  ",
"                                            *+=+-+;+>+_ _ _ _ _ _ _ _ _ _ _ _ ,+E.7.G '+_ )+!+                                  ",
"                                            ~+{+]+^+_ _ _ _ _ _ _ _ _ _ _ _ _ _ /+z G (+_+:+<+                                  ",
"                                            [+}+|+k _ _ _ _ _ _ _ _ _ _ _ _ _ _ _ 1+2+3+4+:+U                                   ",
"                                            5+6+, _ _ _ _ _ _ _ _ _ _ _ _ R 7+8+9+_ 9 0+n a+b+_.                                ",
"                                            c+d+e+f+_ _ _ _ _ _ _ _ _ _ g+G.G G h+_ _ _ _ i+j+k+                                ",
"                                          _.l+G G m+n+_ o+_ p+_ q+_ _ _ G.G G A r+_ _ _ _ s+:+t+                                ",
"                                          u+v+w+G G x+R y+z+A+^.B+_ _ _ C+D+E+F+_ _ _ _ _ _ G+H+I+                              ",
"                                          J+K+L+M+N+O+_ P+G G G G Q+_ _ _ _ R+S+n _+_ _ _ _ T+U+V+W+                            ",
"                                          X+Y+R+Z+_ _ _ `+G G G G 1._ _ _ s+ @.@+@@@R+_ _ _ _ #@G $@%@_.                        ",
"                                        &@*@=@-@;@>@,@_ '@G G G G )@!@_ R ~@{@]@^@/@2._ _ _ (@m+G G _@_.                        ",
"                                      :@<@[@}@|@1@2@3@_ A G G G G G 4@_ 4+5@6@7@8@9@0@_ _ _ ^.G G G a@                          ",
"                                      b@c@d@e@6@f@g@h@i@G G G G G G j@k@l@m@n@o@g@p@:+_+_ q@G G G G r@s@                        ",
"                                      t@u@v@w@n@x@y@z@A@B@C@D@E@G G G F@] G@H@I@J@K@L@_ M@N@G G s O@P@                          ",
"                                      Q@G R@S@T@U@V@W@X@Y@Z@`@ #.#G G G +#@###$#%#&#s+*#A+G s W =#-#                            ",
"                                      ;#>#,#'#)#!#~#{#]#^#/#(#_#:#G G G G <#[#}#|#1#2#G s W g.3#4#                              ",
"                                        5#6#7#8#9#0#a#G b#c#d#e#G G G G G G G f#A+G g#F d d h#i#                                ",
"                                          j#k#l#m#G G G G n#o#p#G G G G G G G *.&.r d d E.q#r#                                  ",
"                                            s#t#].O G G u#v#w#x#y#G G *.l.W r d d d d z#A#[+                                    ",
"                                              B#C#d d r D#F F E#D#r g.d d d d d F#G#H#I#                                        ",
"                                                J#K#L#M#d d d d d d M#N#O#P#Q#R#S#                                              ",
"                                                    _.T#U#V#W#X#Y#Z#`# $.$+$                                                    ",
"                                                            _.@$#$m.$$%$&$*$=$                                                  ",
"                                                            -$;$G G G F@>$,$'$                                                  ",
"                                                            )$G G G G !$~${$]$      ^$/$                                        ",
"                                                          ($_$G G G G :$<$J [$        }$|$                                      ",
"                                                          1$P G G G 2$3$4$5$6$7$      8$9$0$                                    ",
"                                                          a$G G G b$c$d$R e$f$g$      h$G i$                                    ",
"                                                          j$G G G k$l$R+_ m$n$o$      p$F@q$                                    ",
"                                                        _.r$G G s$t$u$9+v$w$x$y$    z$A$_ B$                                    ",
"                                                        _.C$7.G G D$E$F$G$H$L@I$  J$K$_ T+S.                                    ",
"                                                          L$M$7.G N$O$P$H$Q$R$S$T$_ _ U$V$W$                                    ",
"                                                        X$Y$&+Z$`$3+ %U$.%+%w @%T+4$#%:+$%                                      ",
"                                                      %%&%*%=%-%:+:+:+;%>%k ,%'%)%:+!%~%                                        ",
"                                                      {%K+]%^%/%(%_%:%<%[%_ }%K+|%1%_.                                          ",
"                                                    2%6+3%_ _ 4%      _.5%_ 6%|+7%Z                                             ",
"                                                    .+K+8%_ R+9%        0%_+_ a%K+b%                                            ",
"                                                  c%d%e%_ _ f%g%        h%i%_ _ X.K+j%                                          ",
"                                                  k%l%m%_ ,@n%            n%R+_ 6%o%p%                                          ",
"                                                  q%r%_ _ Q.s%            I$%+_+R t%z#                                          ",
"                                                  u%v%w%x%y%                z%A%B%C%D%                                          ",
"                                                    Q#E%F%G%                H%I%J%K%                                            ",
"                                                                                                                                ",
"                                                                                                                                ",
"                                                                                                                                ",
"                                                                                                                                "};
