/* XPM */
static char * ewl3_xpm[] = {
"64 64 627 2",
"  	c None",
". 	c #3E2802",
"+ 	c #6E4B05",
"@ 	c #8B5D09",
"# 	c #C98816",
"$ 	c #C78B0E",
"% 	c #1A0F01",
"& 	c #543903",
"* 	c #EBA515",
"= 	c #E6982A",
"- 	c #412503",
"; 	c #633B08",
"> 	c #EC9A36",
", 	c #F7AB2C",
"' 	c #CE910F",
") 	c #211401",
"! 	c #2D1C01",
"~ 	c #E09D12",
"{ 	c #F3A635",
"] 	c #EE9F3C",
"^ 	c #A66513",
"/ 	c #A56517",
"( 	c #EFAE6F",
"_ 	c #EEA03E",
": 	c #F6AA2E",
"< 	c #CD900E",
"[ 	c #C48A0E",
"} 	c #F5A830",
"| 	c #DB8925",
"1 	c #CF9363",
"2 	c #F4E2D9",
"3 	c #EFA95E",
"4 	c #BE850D",
"5 	c #976909",
"6 	c #F8AC28",
"7 	c #EFA44D",
"8 	c #ED972F",
"9 	c #7C4A0C",
"0 	c #211202",
"a 	c #EBB187",
"b 	c #F5E7E3",
"c 	c #F4D9C8",
"d 	c #EEA03F",
"e 	c #F8AC29",
"f 	c #9D6D09",
"g 	c #4D3403",
"h 	c #EFA81C",
"i 	c #EFA13D",
"j 	c #F1BE93",
"k 	c #F5D5BC",
"l 	c #ED9B35",
"m 	c #AB6714",
"n 	c #72440B",
"o 	c #F0BC9C",
"p 	c #F6E9E5",
"q 	c #F9F4F0",
"r 	c #F1C19B",
"s 	c #EEA03D",
"t 	c #F3AA21",
"u 	c #5F4004",
"v 	c #BF860D",
"w 	c #F2A536",
"x 	c #EFAC69",
"y 	c #F7EAE4",
"z 	c #F8ECE2",
"A 	c #EE9E3A",
"B 	c #CF7E1B",
"C 	c #915710",
"D 	c #F0C3A6",
"E 	c #F7ECE8",
"F 	c #FAF6F3",
"G 	c #F8EDE6",
"H 	c #EFA758",
"I 	c #F0A33A",
"J 	c #CB8E11",
"K 	c #4A3203",
"L 	c #F3A925",
"M 	c #F3D7C5",
"N 	c #F9F3F0",
"O 	c #FAF6F2",
"P 	c #EFA858",
"Q 	c #E88D20",
"R 	c #2C1903",
"S 	c #A46314",
"T 	c #F1C8AF",
"U 	c #F7EDEA",
"V 	c #F4D3BC",
"W 	c #F4A92C",
"X 	c #6A4905",
"Y 	c #AA770A",
"Z 	c #F2A437",
"` 	c #F0B683",
" .	c #F1BB8A",
"..	c #EC9225",
"+.	c #7A490D",
"@.	c #B76F16",
"#.	c #F2CCB6",
"$.	c #F8EFEB",
"%.	c #F9F3EF",
"&.	c #F0AF6F",
"*.	c #EFA23C",
"=.	c #B7800F",
"-.	c #D5941C",
";.	c #F3D6C4",
">.	c #F3C8A4",
",.	c #EC9329",
"'.	c #9A5C11",
").	c #BF7318",
"!.	c #F2CEBA",
"~.	c #F8F0ED",
"{.	c #F5DAC6",
"].	c #ED9F3E",
"^.	c #BF8320",
"/.	c #000000",
"(.	c #2D1802",
"_.	c #422604",
":.	c #EFA52D",
"<.	c #EFAB64",
"[.	c #F5E6E2",
"}.	c #F5D3B9",
"|.	c #EC952B",
"1.	c #B16B16",
"2.	c #CA7B1A",
"3.	c #F2CFBC",
"4.	c #FAF5F1",
"5.	c #C58F57",
"6.	c #634114",
"7.	c #9A6B09",
"8.	c #D0901D",
"9.	c #EAA031",
"0.	c #EE9E39",
"a.	c #ED9A35",
"b.	c #B57323",
"c.	c #F1A535",
"d.	c #F1C5A2",
"e.	c #F5E8E4",
"f.	c #F6DAC4",
"g.	c #EC962E",
"h.	c #C37619",
"i.	c #F2CFBB",
"j.	c #F8F1ED",
"k.	c #F1EDEA",
"l.	c #8E8C8A",
"m.	c #976905",
"n.	c #EBA51A",
"o.	c #F4A734",
"p.	c #EB9E3D",
"q.	c #EEA139",
"r.	c #F4DACA",
"s.	c #F6EAE6",
"t.	c #F7E0CD",
"u.	c #EC972F",
"v.	c #D27F1B",
"w.	c #F2CEB9",
"x.	c #F8F1EE",
"y.	c #E9E5E2",
"z.	c #6E6660",
"A.	c #CD900F",
"B.	c #FAAE24",
"C.	c #EDA554",
"D.	c #F6EAE7",
"E.	c #F7E5D7",
"F.	c #DA851D",
"G.	c #D07E1B",
"H.	c #F1CBB5",
"I.	c #EAE6E4",
"J.	c #695E53",
"K.	c #E39F11",
"L.	c #F9AD28",
"M.	c #EDAC69",
"N.	c #F8E7DB",
"O.	c #E0891E",
"P.	c #C7791A",
"Q.	c #F1C7AE",
"R.	c #F0E9E6",
"S.	c #726B66",
"T.	c #E09D10",
"U.	c #FAAE26",
"V.	c #F3D3BF",
"W.	c #FAF5F2",
"X.	c #EC952C",
"Y.	c #E28A1E",
"Z.	c #BD7318",
"`.	c #F0C1A5",
" +	c #928A88",
".+	c #D0920F",
"++	c #FCB11E",
"@+	c #F4E2DA",
"#+	c #F8EFEC",
"$+	c #EC9429",
"%+	c #DF881E",
"&+	c #C28759",
"*+	c #9D6D08",
"=+	c #FFB315",
"-+	c #F1A438",
";+	c #F0B682",
">+	c #F5E7E2",
",+	c #F7E2D0",
"'+	c #EB9124",
")+	c #D6821C",
"!+	c #88520F",
"~+	c #684207",
"{+	c #F5AD12",
"]+	c #F7AB2D",
"^+	c #F0BB8D",
"/+	c #F7EAE5",
"(+	c #EE9F3D",
"_+	c #EB8F1F",
":+	c #C47719",
"<+	c #010100",
"[+	c #C68B0D",
"}+	c #FEB219",
"|+	c #F0B47D",
"1+	c #F7E7DE",
"2+	c #F4D0B3",
"3+	c #ED9C37",
"4+	c #A06013",
"5+	c #563A03",
"6+	c #FBB113",
"7+	c #F0B06D",
"8+	c #F1B57D",
"9+	c #EEA140",
"0+	c #EEA34A",
"a+	c #EFAA5F",
"b+	c #C4771A",
"c+	c #75460C",
"d+	c #BA820D",
"e+	c #FEC168",
"f+	c #F2B87D",
"g+	c #EEA348",
"h+	c #F0AE6A",
"i+	c #F7E6D7",
"j+	c #F3C59E",
"k+	c #E5912B",
"l+	c #E68C1E",
"m+	c #73440B",
"n+	c #EDC28B",
"o+	c #F9F1EA",
"p+	c #F2C39A",
"q+	c #EEA243",
"r+	c #F0B170",
"s+	c #F0B06C",
"t+	c #F7E5D6",
"u+	c #F8EAE0",
"v+	c #EFA95B",
"w+	c #BC7217",
"x+	c #7C5506",
"y+	c #FFBB4D",
"z+	c #FAEBDE",
"A+	c #F9F0E9",
"B+	c #F1B985",
"C+	c #F5D9C2",
"D+	c #F6DCC8",
"E+	c #F9EDE4",
"F+	c #F3C8A3",
"G+	c #EFA44B",
"H+	c #EB9122",
"I+	c #E2891E",
"J+	c #110701",
"K+	c #B37D0B",
"L+	c #FFB413",
"M+	c #F0A341",
"N+	c #F1BC8A",
"O+	c #F3C8A5",
"P+	c #F0B376",
"Q+	c #F2C49C",
"R+	c #F1B57A",
"S+	c #EE9E3B",
"T+	c #ED9933",
"U+	c #ED9A34",
"V+	c #EC973F",
"W+	c #C2B9B1",
"X+	c #3F3A35",
"Y+	c #D6970F",
"Z+	c #FDB21B",
"`+	c #EE9D39",
" @	c #F4CEAF",
".@	c #F5D4BA",
"+@	c #DF8A27",
"@@	c #CB7F31",
"#@	c #E48C23",
"$@	c #F4CCAD",
"%@	c #EEE8E4",
"&@	c #8D8782",
"*@	c #403C35",
"=@	c #F0AB1E",
"-@	c #F4A01C",
";@	c #DE8927",
">@	c #CC802F",
",@	c #E5902B",
"'@	c #F9EFE8",
")@	c #EEA347",
"!@	c #DC9B67",
"~@	c #DEDDDB",
"{@	c #949494",
"]@	c #5B493B",
"^@	c #DA8729",
"/@	c #EC942B",
"(@	c #CAC5C0",
"_@	c #66625C",
":@	c #E5DCCF",
"<@	c #F6A524",
"[@	c #DA9C6F",
"}@	c #E2E0E0",
"|@	c #8D8D8D",
"1@	c #614B3C",
"2@	c #DE8F33",
"3@	c #F8EBE0",
"4@	c #F3C7A2",
"5@	c #ED9C38",
"6@	c #C4B5AD",
"7@	c #FFFFFF",
"8@	c #D1D1D1",
"9@	c #262626",
"0@	c #986537",
"a@	c #EB8F20",
"b@	c #979089",
"c@	c #9B968F",
"d@	c #FBEDDD",
"e@	c #F09A22",
"f@	c #C5BBB5",
"g@	c #CDCDCD",
"h@	c #282828",
"i@	c #A16A37",
"j@	c #EFAB61",
"k@	c #F9EEE5",
"l@	c #EFA54D",
"m@	c #EE9C37",
"n@	c #645F5A",
"o@	c #C6C6C6",
"p@	c #7A7A7A",
"q@	c #2E2E2E",
"r@	c #7B573A",
"s@	c #E3DCD8",
"t@	c #0B0804",
"u@	c #2D2821",
"v@	c #EAE0D3",
"w@	c #ED9A20",
"x@	c #62615F",
"y@	c #C9C9C9",
"z@	c #707070",
"A@	c #353535",
"B@	c #885E39",
"C@	c #F3C9A6",
"D@	c #EAE6E3",
"E@	c #CCC1BF",
"F@	c #C8B9B7",
"G@	c #E1DDDA",
"H@	c #F5D7BF",
"I@	c #866042",
"J@	c #1D1D1D",
"K@	c #F7F7F7",
"L@	c #B68868",
"M@	c #EC9226",
"N@	c #F2C092",
"O@	c #FAF4F0",
"P@	c #EBE0DC",
"Q@	c #605955",
"R@	c #A19B94",
"S@	c #F0AF74",
"T@	c #7D5C42",
"U@	c #1A1A1A",
"V@	c #F9F9F9",
"W@	c #B7845B",
"X@	c #F0E1D5",
"Y@	c #CD9D9C",
"Z@	c #FEC0C0",
"`@	c #FFA1A1",
" #	c #D77878",
".#	c #EDE9E6",
"+#	c #F4CCAA",
"@#	c #DB8F37",
"##	c #6D5748",
"$#	c #4A4A4B",
"%#	c #A59083",
"&#	c #E28B27",
"*#	c #F3CAA6",
"=#	c #F9F4F1",
"-#	c #F7EDE9",
";#	c #EADDD8",
">#	c #6A625E",
",#	c #18150D",
"'#	c #D4CFC9",
")#	c #F9E0C8",
"!#	c #D6882B",
"~#	c #695648",
"{#	c #4B4B4A",
"]#	c #AA9081",
"^#	c #EBC09F",
"/#	c #EFECE9",
"(#	c #CC7C7C",
"_#	c #FE8A8A",
":#	c #F97E7E",
"<#	c #C57675",
"[#	c #F3EFEC",
"}#	c #F6DDC9",
"|#	c #EDAD73",
"1#	c #DF9035",
"2#	c #EC993E",
"3#	c #F1BA8D",
"4#	c #F7E4D5",
"5#	c #EADCD8",
"6#	c #6D6561",
"7#	c #444038",
"8#	c #E6E1DD",
"9#	c #F8D5B3",
"0#	c #EB9839",
"a#	c #E18F2E",
"b#	c #F1BD95",
"c#	c #FAF4EF",
"d#	c #EBE7E4",
"e#	c #B9B3B1",
"f#	c #ACA8A5",
"g#	c #F9F2EF",
"h#	c #E0D3CE",
"i#	c #605956",
"j#	c #645F59",
"k#	c #EDE8E4",
"l#	c #F9F2EB",
"m#	c #F9EEE6",
"n#	c #B5B2B0",
"o#	c #777574",
"p#	c #DDD9D6",
"q#	c #F7EEEB",
"r#	c #C5B9B4",
"s#	c #3F3A36",
"t#	c #67615D",
"u#	c #EAE0DB",
"v#	c #F8F0EC",
"w#	c #E6E2DF",
"x#	c #E1DEDB",
"y#	c #F6F2EF",
"z#	c #E1DDDB",
"A#	c #DBCDC8",
"B#	c #837A75",
"C#	c #59534F",
"D#	c #D5C8C3",
"E#	c #F6EBE7",
"F#	c #F7EBE8",
"G#	c #F6EBE8",
"H#	c #E5D7D2",
"I#	c #BEB2AD",
"J#	c #776F6A",
"K#	c #0A0806",
"L#	c #928883",
"M#	c #D7CAC5",
"N#	c #F4E5E1",
"O#	c #F4E6E1",
"P#	c #E5D7D3",
"Q#	c #D3C6C2",
"R#	c #BAAEA9",
"S#	c #978D89",
"T#	c #5B534D",
"U#	c #090603",
"V#	c #46403A",
"W#	c #7C736E",
"X#	c #978D87",
"Y#	c #9B918C",
"Z#	c #9F938A",
"`#	c #8D817A",
" $	c #5A5048",
".$	c #724A19",
"+$	c #9C6624",
"@$	c #7F531B",
"#$	c #C5A88F",
"$$	c #E5E2DF",
"%$	c #F2EEEB",
"&$	c #F9F3EE",
"*$	c #D18223",
"=$	c #D8902C",
"-$	c #020101",
";$	c #8B653C",
">$	c #F9F0E8",
",$	c #BC741C",
"'$	c #F0A336",
")$	c #3B2704",
"!$	c #D5BBA6",
"~$	c #F6ECE5",
"{$	c #BD7319",
"]$	c #F0A239",
"^$	c #7E5608",
"/$	c #211B10",
"($	c #5F3E14",
"_$	c #F7E8DC",
":$	c #C9C5C3",
"<$	c #DC8823",
"[$	c #90600C",
"}$	c #CAC5BC",
"|$	c #6C6864",
"1$	c #A47F5B",
"2$	c #9F6F4A",
"3$	c #9B6313",
"4$	c #412505",
"5$	c #CCC9C5",
"6$	c #EEE9E6",
"7$	c #5C5855",
"8$	c #C9AB91",
"9$	c #F4F0ED",
"0$	c #8A786D",
"a$	c #E38E27",
"b$	c #EBA12C",
"c$	c #A5681F",
"d$	c #78470D",
"e$	c #C7C2B9",
"f$	c #C5C0BB",
"g$	c #E1C3AC",
"h$	c #A9A5A3",
"i$	c #D48631",
"j$	c #C58917",
"k$	c #CE862D",
"l$	c #8B530F",
"m$	c #D9AA76",
"n$	c #F5D5BB",
"o$	c #E7DCD4",
"p$	c #EAC6A9",
"q$	c #948A85",
"r$	c #F3CFB6",
"s$	c #F2A72E",
"t$	c #8D5F19",
"u$	c #EC9933",
"v$	c #986811",
"w$	c #E4AF86",
"x$	c #DEA56E",
"y$	c #999491",
"z$	c #E0D8D4",
"A$	c #F3DDC9",
"B$	c #9E6F15",
"C$	c #D48E36",
"D$	c #7C4A0D",
"E$	c #C58723",
"F$	c #EFA23A",
"G$	c #ED9932",
"H$	c #B7711C",
"I$	c #F3CAA9",
"J$	c #F4F0EE",
"K$	c #B0ACAA",
"L$	c #966D43",
"M$	c #D38D36",
"N$	c #DC8D2D",
"O$	c #9A6720",
"P$	c #F0A23A",
"Q$	c #EA8F20",
"R$	c #614204",
"S$	c #875B09",
"T$	c #DE871E",
"U$	c #EEA96D",
"V$	c #F3CBAD",
"W$	c #F4CFB2",
"X$	c #F1B681",
"Y$	c #ED9B36",
"Z$	c #EEA236",
"`$	c #C4890D",
" %	c #99621D",
".%	c #EC9327",
"+%	c #A66414",
"@%	c #3D2802",
"#%	c #E6A211",
"$%	c #EEA622",
"%%	c #825218",
"&%	c #CD7C1A",
"*%	c #DF871D",
"=%	c #EA9D3C",
"-%	c #FEB318",
";%	c #D1920F",
">%	c #AD6815",
",%	c #D9841D",
"'%	c #8F5610",
")%	c #C2880D",
"!%	c #E89C3C",
"~%	c #9B6421",
"{%	c #71430B",
"]%	c #9D5E13",
"^%	c #A86514",
"/%	c #814D0E",
"(%	c #F7AA2D",
"_%	c #B27D0C",
":%	c #3F2506",
"<%	c #805807",
"[%	c #FDB313",
"}%	c #FCB01F",
"|%	c #C37B23",
"1%	c #DB8D2D",
"2%	c #FCB213",
"3%	c #7D5706",
"4%	c #DD9B10",
"5%	c #EE9D3A",
"6%	c #9D5E12",
"7%	c #B46E19",
"8%	c #F3A634",
"9%	c #E5A211",
"0%	c #8C6108",
"a%	c #FAAE25",
"b%	c #EB952E",
"c%	c #593408",
"d%	c #6F420B",
"e%	c #EC9730",
"f%	c #A9760C",
"g%	c #D7AB76",
"h%	c #F0A23B",
"i%	c #C6791A",
"j%	c #C6791B",
"k%	c #E8C7A8",
"l%	c #E0D1CB",
"m%	c #F0B681",
"n%	c #EC942A",
"o%	c #7A480C",
"p%	c #6E410A",
"q%	c #E99127",
"r%	c #F1BF97",
"s%	c #E2D5D0",
"t%	c #A09691",
"u%	c #F5E5DF",
"v%	c #F1C4A5",
"w%	c #EDA25B",
"x%	c #C47B29",
"y%	c #AD6D2B",
"z%	c #EEA870",
"A%	c #F1CAB2",
"B%	c #F3E5E0",
"C%	c #928884",
"D%	c #968C88",
"E%	c #D8CBC6",
"F%	c #D1C4BF",
"G%	c #2A2521",
"H%	c #B3A8A3",
"I%	c #C2B6B1",
"J%	c #7E7672",
"                                                                                                                                ",
"                                                                                                                                ",
"                                                .                                   + @                                         ",
"                                                # $ %                             & * = -                                       ",
"                                              ; > , ' )                         ! ~ { ] ^                                       ",
"                                              / ( _ : <                         [ } _ _ |                                       ",
"                                              1 2 3 _ : 4                     5 6 _ 7 _ 8 9                                     ",
"                                            0 a b c d _ e f                 g h i j k _ l m                                     ",
"                                            n o p q r _ s t u               v w x y z _ A B                                     ",
"                                            C D E F G H _ I J             K L _ M N O P s Q R                                   ",
"                                            S T U F F V _ _ W X           Y Z ` p F F  ._ ..+.                                  ",
"                                            @.#.$.F F %.&._ *.=.          -._ ;.$.F F >._ ,.'.                                  ",
"                                            ).!.~.F F F {._ ].^././.(._./.:.<.[.N F F }._ |.1.                                  ",
"                                            2.3.~.F F F 4.5.6.7.8.9.0.a.b.c.d.e.F F F f._ g.h.                                  ",
"                                            B i.j.F F k.l.m.n.o._ _ _ _ p.q.r.s.F F F t._ u.B                                   ",
"                                            v.w.x.F y.z.A.B.*._ _ _ _ _ _ C.b D.F F F E._ u.F.                                  ",
"                                            G.H.j.I.J.K.L._ _ _ _ _ _ _ _ M.b p F F F N._ g.O.                                  ",
"                                            P.Q.R.S.T.U._ _ _ _ _ _ _ _ _ _ V.b W.F F N._ X.Y./.                                ",
"                                            Z.`. +.+++i _ _ _ _ _ _ _ _ _ _ 3 @+#+F F E._ $+%+                                  ",
"                                            1.&+*+=+-+_ _ _ _ _ _ _ _ _ _ _ _ ;+>+W.F ,+_ '+)+                                  ",
"                                            !+~+{+]+_ _ _ _ _ _ _ _ _ _ _ _ _ _ ^+/+F f.(+_+:+                                  ",
"                                            <+[+}+i _ _ _ _ _ _ _ _ _ _ _ _ _ _ _ |+1+2+3+_+4+                                  ",
"                                            5+6+: _ _ _ _ _ _ _ _ _ _ _ _ s 7+8+9+_ 0+a+a.b+c+/.                                ",
"                                            d+e+f+g+_ _ _ _ _ _ _ _ _ _ h+i+F F j+_ _ _ _ k+l+m+                                ",
"                                          /.n+F F o+p+_ q+_ r+_ s+_ _ _ t+F F u+v+_ _ _ _ 3+_+w+                                ",
"                                          x+y+z+F F A+s B+C+4.D+E+_ _ _ j+f.F+G+_ _ _ _ _ _ H+I+J+                              ",
"                                          K+L+M+N+O+P+_ Q+F F F F R+_ _ _ _ S+T+U+(+_ _ _ _ U+V+W+X+                            ",
"                                          Y+Z+S+`+_ _ _  @F F F F .@_ _ _ 3++@@@#@'+S+_ _ _ _ $@F %@&@/.                        ",
"                                        *@=@-@;@>@,@] _ D+F F F F '@)@_ s !@~@{@]@^@/@_ _ _ v+o+F F (@/.                        ",
"                                      _@:@<@[@}@|@1@2@_ 3@F F F F F 4@_ 5@6@7@8@9@0@a@_ _ _ D+F F F b@                          ",
"                                      c@d@e@f@7@g@h@i@j@O F F F F F k@l@m@n@o@p@q@r@_+(+_ F+F F F F s@t@                        ",
"                                      u@v@w@x@y@z@A@B@C@D@E@F@G@F F F H@] I@J@/.K@L@M@_ N@O@F F N P@Q@                          ",
"                                      R@F S@T@U@q@V@W@X@Y@Z@`@ #.#F F F +#@###$#%#&#5@*#4.F =#-#;#>#                            ",
"                                      ,#'#)#!#~#{#]#^#/#(#_#:#<#[#F F F F }#|#1#2#3#4#F =#U b 5#6#                              ",
"                                        7#8#9#0#a#b#c#F d#e#f#[#F F F F F F F c#4.F g#E b b h#i#                                ",
"                                          j#k#l#m#F F F F n#o#p#F F F F F F F N q#p b b >+r#s#                                  ",
"                                            t#u#v#N F F w#x#y#z#k.F O N j.-#p b b b b A#B#/.                                    ",
"                                              C#D#b b p E#F#E G#D.p e.b b b b b H#I#J#/.                                        ",
"                                                K#L#M#N#b b b b b b O#P#Q#R#S#T#U#                                              ",
"                                                    /.V#W#X#Y#Z#`#6# $.$+$@$                                                    ",
"                                                            /.#$$$%$&$h+*$=$-$                                                  ",
"                                                            ;$>$F F F H@,$'$)$                                                  ",
"                                                            !$F F F F ~${$]$^$      -$/$                                        ",
"                                                          ($_$F F F F :$<$I [$        }$|$                                      ",
"                                                          1$O F F F d#2$T+{ 3$4$      5$6$7$                                    ",
"                                                          8$F F F 9$0$a$_ b$c$d$      e$F f$                                    ",
"                                                          g$F F F h$i$S+s j$k$l$    /.m$n$o$                                    ",
"                                                        /.p$F F F q$r$d s$t$u$l$    v$I _ w$                                    ",
"                                                        /.x$4.F F y$z$A$B$C$M@D$  E$F$_ G$:+                                    ",
"                                                          H$I$W.F J$K$L$M$N$G.O$P$_ _ T+Q$D$                                    ",
"                                                        R$S$T$U$V$W$X$U+Y$Z$`$ %u$G$.%_++%                                      ",
"                                                      @%#%$%%%&%_+_+_+*%=%i -%;%>%_+,%'%                                        ",
"                                                      )%L+{ !%~%{%]%^%/%5@_ (%L+_%:%/.                                          ",
"                                                    <%[%}%_ _ |%        1%_ i Z+2%3%                                            ",
"                                                    4%L+{ _ 5%6%        7%] _ 8%L+9%                                            ",
"                                                  0%L+a%_ _ b%c%        d%e%_ _ e L+f%                                          ",
"                                                  g%Z+h%_ S+i%            j%5%_ i e k%                                          ",
"                                                  l%m%_ _ n%o%            p%q%] (+r%s%                                          ",
"                                                  t%u%v%w%x%                y%z%A%B%C%                                          ",
"                                                    D%E%F%Q@                G%H%I%J%                                            ",
"                                                                                                                                ",
"                                                                                                                                ",
"                                                                                                                                ",
"                                                                                                                                "};
