/* XPM */
static char * ewl4_xpm[] = {
"64 64 642 2",
"  	c None",
". 	c #432903",
"+ 	c #583B04",
"@ 	c #553804",
"# 	c #BF7D1C",
"$ 	c #E6A213",
"% 	c #4A3203",
"& 	c #664604",
"* 	c #F1A919",
"= 	c #965E13",
"- 	c #663D08",
"; 	c #EC9A35",
"> 	c #F4A734",
", 	c #DB9A11",
"' 	c #2B1B01",
") 	c #382502",
"! 	c #E5A113",
"~ 	c #F2A537",
"{ 	c #E2912E",
"] 	c #3A2103",
"^ 	c #B1712B",
"/ 	c #F1BB8F",
"( 	c #EEA03E",
"_ 	c #F5A930",
": 	c #C88C0E",
"< 	c #C78C0E",
"[ 	c #F5A832",
"} 	c #ED9C38",
"| 	c #9B5D11",
"1 	c #E0A77C",
"2 	c #F5E4DE",
"3 	c #EFAB64",
"4 	c #F8AC2A",
"5 	c #A2710A",
"6 	c #976909",
"7 	c #F9AC28",
"8 	c #D2811E",
"9 	c #77470B",
"0 	c #F0C1A3",
"a 	c #F5E8E4",
"b 	c #F4D5C1",
"c 	c #EEA13D",
"d 	c #F4AB20",
"e 	c #644504",
"f 	c #4F3503",
"g 	c #F0A81C",
"h 	c #EFA13D",
"i 	c #F1BF93",
"j 	c #F0AF6D",
"k 	c #EC942B",
"l 	c #693E09",
"m 	c #A16113",
"n 	c #F2CEBB",
"o 	c #F7EDE9",
"p 	c #F9F2EF",
"q 	c #F0B57E",
"r 	c #F1A339",
"s 	c #D39411",
"t 	c #BF860D",
"u 	c #F3A636",
"v 	c #EFAB65",
"w 	c #F7ECE6",
"x 	c #F4D0B3",
"y 	c #ED9832",
"z 	c #A26113",
"A 	c #C17518",
"B 	c #F3DACD",
"C 	c #F8F0ED",
"D 	c #FAF6F3",
"E 	c #F5DECE",
"F 	c #F7AA2C",
"G 	c #7E5706",
"H 	c #4E3503",
"I 	c #F4A924",
"J 	c #F3D6C3",
"K 	c #F9F4F1",
"L 	c #F7E5D7",
"M 	c #ED9B37",
"N 	c #C77919",
"O 	c #DA8418",
"P 	c #F5E3DB",
"Q 	c #F9F3F0",
"R 	c #FAF4F1",
"S 	c #EFA13C",
"T 	c #CB8E12",
"U 	c #AC780B",
"V 	c #F0B57F",
"W 	c #F6EAE7",
"X 	c #FAF3EE",
"Y 	c #EEA245",
"Z 	c #EE9E3B",
"` 	c #E28A1E",
" .	c #0B0501",
"..	c #321C03",
"+.	c #EB9433",
"@.	c #F5E7E3",
"#.	c #FAF5F2",
"$.	c #F5DCCA",
"%.	c #F0A629",
"&.	c #221501",
"*.	c #DB981D",
"=.	c #F3D5C2",
"-.	c #F8EFEC",
";.	c #F0B375",
">.	c #EB9020",
",.	c #6D400B",
"'.	c #77470C",
").	c #EDA160",
"!.	c #FAF4F0",
"~.	c #EBA034",
"{.	c #6F4C05",
"].	c #000000",
"^.	c #0A0501",
"/.	c #F3A82D",
"(.	c #EFA95F",
"_.	c #F5E6E2",
":.	c #F9F4F0",
"<.	c #F2C197",
"[.	c #EC9226",
"}.	c #975B11",
"|.	c #8F5610",
"1.	c #EDA66F",
"2.	c #F6EAE6",
"3.	c #E2C2AA",
"4.	c #946223",
"5.	c #5E4007",
"6.	c #AB770C",
"7.	c #CA8B22",
"8.	c #CF8A2E",
"9.	c #CF852B",
"0.	c #956113",
"a.	c #F3A635",
"b.	c #F1C29D",
"c.	c #F4CEAE",
"d.	c #EC9329",
"e.	c #AB6715",
"f.	c #9A5C12",
"g.	c #EEAD7B",
"h.	c #F6EBE8",
"i.	c #F8F4F1",
"j.	c #B5B2B0",
"k.	c #6B4E25",
"l.	c #D19310",
"m.	c #F6AA29",
"n.	c #F0A23B",
"o.	c #D08D33",
"p.	c #F0A33A",
"q.	c #F3D6C4",
"r.	c #F6EBE7",
"s.	c #F5D6BF",
"t.	c #EC952B",
"u.	c #A76514",
"v.	c #EFB48B",
"w.	c #F7ECE9",
"x.	c #F1EDEA",
"y.	c #817F7E",
"z.	c #B27C0B",
"A.	c #F9AF1C",
"B.	c #EFA447",
"C.	c #F5E5DF",
"D.	c #F7ECE8",
"E.	c #F6DCC8",
"F.	c #EC952C",
"G.	c #CE7D1B",
"H.	c #B06A15",
"I.	c #EFB894",
"J.	c #F7EDEA",
"K.	c #EFECE9",
"L.	c #736E6A",
"M.	c #D1930F",
"N.	c #FBB021",
"O.	c #EFA23C",
"P.	c #EDB179",
"Q.	c #F7E3D4",
"R.	c #DB851D",
"S.	c #B26B15",
"T.	c #EFBA97",
"U.	c #F2E9E6",
"V.	c #797572",
"W.	c #D5960F",
"X.	c #EEA654",
"Y.	c #F4E3DB",
"Z.	c #F7E6D9",
"`.	c #E0881E",
" +	c #B16B16",
".+	c #EFBA99",
"++	c #968E8B",
"@+	c #C78B0E",
"#+	c #FDB21C",
"$+	c #EFA23B",
"%+	c #F1BD93",
"&+	c #F9F2EE",
"*+	c #F8E6D9",
"=+	c #EC942A",
"-+	c #E1891E",
";+	c #A36214",
">+	c #BF824E",
",+	c #9E6E08",
"'+	c #FFB414",
")+	c #F2A437",
"!+	c #F2CEB5",
"~+	c #F8E6D8",
"{+	c #EC9327",
"]+	c #DD861D",
"^+	c #804C0D",
"/+	c #6C4607",
"(+	c #F7AF13",
"_+	c #F7AB2D",
":+	c #EEA142",
"<+	c #F3D2BC",
"[+	c #F7E2D0",
"}+	c #EB9021",
"|+	c #D2801B",
"1+	c #CE900E",
"2+	c #FDB21B",
"3+	c #EEA141",
"4+	c #F2C9AB",
"5+	c #F9F1ED",
"6+	c #F5D9C4",
"7+	c #EE9F3C",
"8+	c #EB8F1F",
"9+	c #B97017",
"0+	c #6D4B05",
"a+	c #FEB313",
"b+	c #F5A831",
"c+	c #F0B37A",
"d+	c #F1BE8F",
"e+	c #ED9B36",
"f+	c #71430B",
"g+	c #CB901F",
"h+	c #FDC983",
"i+	c #F2BD8D",
"j+	c #EEA449",
"k+	c #EEA244",
"l+	c #F3CBA8",
"m+	c #F7E4D5",
"n+	c #F7E5D6",
"o+	c #F0B171",
"p+	c #EE9F3D",
"q+	c #C17519",
"r+	c #100701",
"s+	c #442D02",
"t+	c #F8D1A2",
"u+	c #F9F0E9",
"v+	c #F2BD8E",
"w+	c #EEA140",
"x+	c #EFA858",
"y+	c #EFA652",
"z+	c #F6DFCC",
"A+	c #FAF5F1",
"B+	c #F0B57A",
"C+	c #EC972F",
"D+	c #814D0E",
"E+	c #A07009",
"F+	c #FFBC50",
"G+	c #F9E9DC",
"H+	c #F8E9DD",
"I+	c #F2C299",
"J+	c #F4D2B5",
"K+	c #F4CFB0",
"L+	c #F7E0CE",
"M+	c #EEA03C",
"N+	c #F1BA87",
"O+	c #BC7218",
"P+	c #D1920F",
"Q+	c #FEB218",
"R+	c #F1BA86",
"S+	c #F3C59F",
"T+	c #F0AE6A",
"U+	c #EEA349",
"V+	c #EEA03D",
"W+	c #EEA242",
"X+	c #DD871E",
"Y+	c #0F0801",
"Z+	c #010100",
"`+	c #EEA812",
" @	c #FAAE24",
".@	c #ED9C37",
"+@	c #ED9D39",
"@@	c #F6DBC6",
"#@	c #F2BF91",
"$@	c #EE9E3A",
"%@	c #EC9429",
"&@	c #EC9225",
"*@	c #F0B484",
"=@	c #D9D4CF",
"-@	c #605B55",
";@	c #8A795F",
">@	c #FDB114",
",@	c #EE961E",
"'@	c #CD802E",
")@	c #C97E32",
"!@	c #E8932D",
"~@	c #F8E9DC",
"{@	c #DF944C",
"]@	c #BEA79A",
"^@	c #745844",
"/@	c #BF7932",
"(@	c #EB8F20",
"_@	c #F8E7D9",
":@	c #F3EEEA",
"<@	c #96908B",
"[@	c #ADA7A0",
"}@	c #F8E1C8",
"|@	c #F09A25",
"1@	c #D5B7A5",
"2@	c #E8E8E8",
"3@	c #727272",
"4@	c #7B583B",
"5@	c #EA9834",
"6@	c #EFA754",
"7@	c #FAF4EF",
"8@	c #EFA95E",
"9@	c #EC9935",
"0@	c #D8CFCA",
"a@	c #FFFFFF",
"b@	c #A8A8A8",
"c@	c #373737",
"d@	c #D2832D",
"e@	c #F3C9A5",
"f@	c #928D88",
"g@	c #A9A49D",
"h@	c #FCE0C3",
"i@	c #DC8A2A",
"j@	c #D6D7D7",
"k@	c #A3A3A3",
"l@	c #2F2F2F",
"m@	c #C48139",
"n@	c #F5D3B8",
"o@	c #D98F39",
"p@	c #AEAEAE",
"q@	c #FBFBFB",
"r@	c #898989",
"s@	c #262626",
"t@	c #AA6E35",
"u@	c #EC9227",
"v@	c #F0B275",
"w@	c #F8F3EE",
"x@	c #827D78",
"y@	c #88837C",
"z@	c #FAE3CB",
"A@	c #CD822F",
"B@	c #707070",
"C@	c #B8B8B8",
"D@	c #343434",
"E@	c #434343",
"F@	c #B57939",
"G@	c #F6DECB",
"H@	c #E6E2E0",
"I@	c #C9C3C1",
"J@	c #CFCBC8",
"K@	c #F6F2EF",
"L@	c #F0B06E",
"M@	c #DE9238",
"N@	c #373736",
"O@	c #222222",
"P@	c #535353",
"Q@	c #B2B2B2",
"R@	c #B37437",
"S@	c #EFAB63",
"T@	c #F9EDE3",
"U@	c #B1AAA5",
"V@	c #C4BFB9",
"W@	c #F9F2EA",
"X@	c #E59537",
"Y@	c #514943",
"Z@	c #121212",
"`@	c #939393",
" #	c #E3E3E3",
".#	c #D49B67",
"+#	c #DBD4CF",
"@#	c #E1A9A9",
"##	c #FEBBBB",
"$#	c #F79797",
"%#	c #C19796",
"&#	c #F8E8DB",
"*#	c #EEA44E",
"=#	c #936742",
"-#	c #3B3B3B",
";#	c #737373",
">#	c #D2CDCB",
",#	c #DF8926",
"'#	c #ED9A35",
")#	c #F8ECE2",
"!#	c #F7EEEA",
"~#	c #B7ACA7",
"{#	c #030201",
"]#	c #38342F",
"^#	c #E6E1DC",
"/#	c #F8CFA7",
"(#	c #C57E32",
"_#	c #60534A",
":#	c #5F5A57",
"<#	c #C4936F",
"[#	c #F6DFCE",
"}#	c #D5CCCA",
"|#	c #F28989",
"1#	c #FF8F8F",
"2#	c #FB7E7E",
"3#	c #C39290",
"4#	c #EBA867",
"5#	c #BA7938",
"6#	c #AE723B",
"7#	c #DD8828",
"8#	c #ED9938",
"9#	c #F3C8A2",
"0#	c #F9F2EB",
"a#	c #B6AAA5",
"b#	c #6B6660",
"c#	c #F4EEE8",
"d#	c #F5C89D",
"e#	c #EA9633",
"f#	c #EB9D4E",
"g#	c #F5D8C4",
"h#	c #D6D1CE",
"i#	c #A18583",
"j#	c #C8C0BD",
"k#	c #F4F0ED",
"l#	c #F6DECC",
"m#	c #F4D1B8",
"n#	c #F9EFE7",
"o#	c #F4E5E1",
"p#	c #A69B97",
"q#	c #8A857F",
"r#	c #F7F3EF",
"s#	c #FAF3ED",
"t#	c #858281",
"u#	c #BCB9B6",
"v#	c #F8EFEB",
"w#	c #F6E9E5",
"x#	c #EBDDD9",
"y#	c #877E7A",
"z#	c #938A86",
"A#	c #F4E9E5",
"B#	c #D3D0CD",
"C#	c #E5E1DE",
"D#	c #DDD9D7",
"E#	c #D6D3D0",
"F#	c #F9F5F2",
"G#	c #F8F1EE",
"H#	c #F4E6E2",
"I#	c #C7BAB6",
"J#	c #534C48",
"K#	c #827A75",
"L#	c #EADCD7",
"M#	c #F7EEEB",
"N#	c #ECDED9",
"O#	c #BFB3AE",
"P#	c #665E5A",
"Q#	c #46403B",
"R#	c #B4A9A4",
"S#	c #E9DBD6",
"T#	c #F6E7E2",
"U#	c #E1D3CF",
"V#	c #CCBFBA",
"W#	c #A99E9A",
"X#	c #807671",
"Y#	c #181412",
"Z#	c #0E0B08",
"`#	c #716963",
" $	c #A0958F",
".$	c #B1A6A1",
"+$	c #B7ABA5",
"@$	c #B9ACA6",
"#$	c #B0A49E",
"$$	c #988F8C",
"%$	c #7E7570",
"&$	c #655A52",
"*$	c #543402",
"=$	c #2E1B03",
"-$	c #241504",
";$	c #C0A894",
">$	c #D0CDCA",
",$	c #D8D5D2",
"'$	c #E4CCB9",
")$	c #EA9D3C",
"!$	c #EC9932",
"~$	c #A9721F",
"{$	c #9E7954",
"]$	c #F9F3ED",
"^$	c #FAF6F2",
"/$	c #EAB178",
"($	c #CE8020",
"_$	c #EEA037",
":$	c #8C600B",
"<$	c #040200",
"[$	c #E3CBB8",
"}$	c #F5D7BF",
"|$	c #BB7929",
"1$	c #ED9932",
"2$	c #D49127",
"3$	c #795222",
"4$	c #F9EDE4",
"5$	c #BF8030",
"6$	c #E7912A",
"7$	c #F2A536",
"8$	c #6B4A05",
"9$	c #7C776E",
"0$	c #3B3733",
"a$	c #B19073",
"b$	c #BF8C54",
"c$	c #E18D27",
"d$	c #A4720B",
"e$	c #A49F97",
"f$	c #DDD8D3",
"g$	c #3F3B37",
"h$	c #D6BBA5",
"i$	c #A8917E",
"j$	c #E9932C",
"k$	c #BE8414",
"l$	c #96928B",
"m$	c #FBF6F1",
"n$	c #BEB9B5",
"o$	c #EAD0BD",
"p$	c #977A67",
"q$	c #C58916",
"r$	c #A89B8A",
"s$	c #FAF2EB",
"t$	c #F2EAE5",
"u$	c #272019",
"v$	c #6A5D54",
"w$	c #F6D7BF",
"x$	c #EEEAE8",
"y$	c #A46312",
"z$	c #B27C0D",
"A$	c #322002",
"B$	c #E09A2A",
"C$	c #EFA85A",
"D$	c #F5DECF",
"E$	c #60544B",
"F$	c #4C433E",
"G$	c #998E8A",
"H$	c #F0C5A1",
"I$	c #DCD8D6",
"J$	c #C0A89C",
"K$	c #F3CCAB",
"L$	c #F6C492",
"M$	c #7B560F",
"N$	c #93660B",
"O$	c #D7932A",
"P$	c #E69C59",
"Q$	c #1F1A14",
"R$	c #4B4541",
"S$	c #D58D3D",
"T$	c #F8E9DE",
"U$	c #EDD5C3",
"V$	c #826F64",
"W$	c #CAC2BD",
"X$	c #A1A09D",
"Y$	c #97661C",
"Z$	c #EAA032",
"`$	c #85500E",
" %	c #EC9B4A",
".%	c #F4CEAF",
"+%	c #EE9F41",
"@%	c #E49534",
"#%	c #BA7C2A",
"$%	c #623D08",
"%%	c #D18529",
"&%	c #EE9D39",
"*%	c #ED9A34",
"=%	c #EB9125",
"-%	c #DC861D",
";%	c #502E06",
">%	c #523703",
",%	c #C0870E",
"'%	c #9C5E13",
")%	c #E88D1F",
"!%	c #EB9123",
"~%	c #EB9022",
"{%	c #D18223",
"]%	c #F3A734",
"^%	c #D0920F",
"/%	c #BD7217",
"(%	c #5B3508",
"_%	c #BD840D",
":%	c #FDB11C",
"<%	c #CD8A35",
"[%	c #825319",
"}%	c #A86514",
"|%	c #C67819",
"1%	c #B47324",
"2%	c #FFB413",
"3%	c #795306",
"4%	c #87510F",
"5%	c #985B12",
"6%	c #74450C",
"7%	c #020100",
"8%	c #1F1201",
"9%	c #F4AC12",
"0%	c #FAAE25",
"a%	c #ED9D3A",
"b%	c #814D0D",
"c%	c #BE7721",
"d%	c #956809",
"e%	c #F6AA2E",
"f%	c #89520F",
"g%	c #BB721A",
"h%	c #FCB020",
"i%	c #F9B013",
"j%	c #352302",
"k%	c #C68B0D",
"l%	c #F2A438",
"m%	c #ED9933",
"n%	c #75460C",
"o%	c #F7AA2D",
"p%	c #9B6C09",
"q%	c #EAA511",
"r%	c #FDB21A",
"s%	c #EB942C",
"t%	c #301A03",
"u%	c #935810",
"v%	c #604204",
"w%	c #F7AB2C",
"x%	c #D6841F",
"y%	c #5D3708",
"z%	c #FBB020",
"A%	c #EAA618",
"B%	c #8F8279",
"C%	c #F8C489",
"D%	c #B66E16",
"E%	c #DA851E",
"F%	c #F1A74C",
"G%	c #F6D7BC",
"H%	c #15120F",
"I%	c #57504C",
"J%	c #F3D5C4",
"K%	c #F0BC97",
"L%	c #F0BA95",
"M%	c #8F6A4E",
"N%	c #B18B73",
"O%	c #F0BE9D",
"P%	c #F1C7AD",
"Q%	c #F4E1D8",
"R%	c #C8BCB7",
"S%	c #6C6461",
"T%	c #DACDC8",
"U%	c #463F3B",
"V%	c #B9ADA9",
"W%	c #CDC0BC",
"X%	c #A89D98",
"Y%	c #2D2926",
"                                                                                                                                ",
"                                                                                                                                ",
"                                                  . +                               @                                           ",
"                                                  # $ %                           & * =                                         ",
"                                                - ; > , '                       ) ! ~ { ]                                       ",
"                                                ^ / ( _ :                       < [ ( } |                                       ",
"                                                1 2 3 ( 4 5                   6 7 ( ( ( 8                                       ",
"                                              9 0 a b ( c d e               f g h i j ( k l                                     ",
"                                              m n o p q ( r s               t u v w x ( y z                                     ",
"                                              A B C D E ( ( F G           H I ( J K L ( M N                                     ",
"                                              O P Q D R q ( S T           U ~ V W D X Y Z `  .                                  ",
"                                            ..+.@.#.D D $.( ( %.&.        *.( =.-.D D ;.( >.,.                                  ",
"                                            '.).a D D D !.3 ( ~.{.].].].^./.(._.:.D D <.( [.}.                                  ",
"                                            |.1.2.D D D D 3.4.5.6.7.8.9.0.a.b.a D D D c.( d.e.                                  ",
"                                            f.g.h.D D i.j.k.l.m.n.( ( ( o.p.q.r.D D D s.( t.A                                   ",
"                                            u.v.w.D x.y.z.A.~ ( ( ( ( ( ( B.C.D.D D D E.( F.G.                                  ",
"                                            H.I.J.K.L.M.N.O.( ( ( ( ( ( ( P.@.r.D D D Q.( F.R.                                  ",
"                                            S.T.U.V.W.N.S ( ( ( ( ( ( ( ( X.Y.a D D D Z.( F.`.                                  ",
"                                             +.+++@+#+$+( ( ( ( ( ( ( ( ( ( %+@.&+D D *+( =+-+].                                ",
"                                            ;+>+,+'+)+( ( ( ( ( ( ( ( ( ( ( ( !+2.D D ~+( {+]+                                  ",
"                                            ^+/+(+_+( ( ( ( ( ( ( ( ( ( ( ( ( :+<+-.D [+( }+|+                                  ",
"                                            ].1+2+h ( ( ( ( ( ( ( ( ( ( ( ( ( ( 3+4+5+6+7+8+9+                                  ",
"                                            0+a+b+( ( ( ( ( ( ( ( ( ( ( ( ( ( ( ( ( c+d+e+`.f+                                  ",
"                                            g+h+i+j+( ( ( ( ( ( ( ( ( ( k+l+m+n+o+( ( ( p+8 q+r+                                ",
"                                          s+t+D D u+v+( w+( x+( y+( ( ( z+D D A+B+( ( ( ( C+8+D+                                ",
"                                          E+F+G+D D H+( I+J+u+K+L+( ( M+~+X n+N+( ( ( ( ( } 8+O+                                ",
"                                          P+Q+3+R+S+T+( c.D D D X U+( ( V+W+V+V+( ( ( ( ( ( }+X+Y+                              ",
"                                        Z+`+ @.@+@( ( ( @@D D D D #@( ( ( $@%@>.&@e+( ( ( ( } *@=@-@                            ",
"                                      ].;@>@,@'@)@!@( ( ~@D D D D E.( ( p+{@]@^@/@(@} ( ( ( w+_@D :@<@].                        ",
"                                    ].[@}@|@1@2@3@4@5@6@A+D D D D 7@8@( 9@0@a@b@c@d@F.( ( ( e@D D D f@                          ",
"                                      g@h@i@j@a@k@l@m@<.D D D D D D n@( o@p@q@r@s@t@u@( ( v@X D D w@x@                          ",
"                                      y@z@A@B@C@D@E@F@G@H@I@J@K@D D 7@L@M@N@O@P@Q@R@=+( S@T@D D D K U@].                        ",
"                                    ].V@W@X@Y@Z@`@ #.#+#@###$#%#D D D &#*#=#-#;#>#,#'#j )#D D A+!#~#{#                          ",
"                                      ]#^#/#(#_#:#<#[#}#|#1#2#3#D D D D *+4#5#6#7#8#9#0#D K J.a a#].                            ",
"                                        b#c#d#e#f#g#D D h#i#j#k#D D D D D !.l#m#6+n#D p D.@.o#p#].                              ",
"                                          q#r#s#A+D D D K@t#u#i.D D D D D D D D :.v#w#@.@.x#y#].                                ",
"                                            z#A#C K D D B#C#D#E#F#D D D K G#J.w#@.@.@.H#I#J#                                    ",
"                                              K#L#@.a W w.!#M#M#J.D.2.a @.@.@.@.@.N#O#P#].                                      ",
"                                                Q#R#S#@.@.@.@.@.@.@.@.@.T#U#V#W#X#Y#                                            ",
"                                                    Z#`# $.$+$@$#$$$%$&$*$=$].                                                  ",
"                                                            -$;$>$,$'$)$!$~$                                                    ",
"                                                            {$]$D D ^$/$($_$:$                                                  ",
"                                                          <$[$D D D D }$|$1$2$                                                  ",
"                                                          3$n#D D D D 4$5$6$7$8$      9$0$                                      ",
"                                                          a$D D D D D D b$c$h d$      e$f$g$                                    ",
"                                                          h$D D D D D D i$j$( k$      l$m$n$                                    ",
"                                                        ].o$D D D D D D p$1$( q$      r$s$t$u$                                  ",
"                                                        v$w$D D D D D x$y$+@h z$    A$B$C$D$E$                                  ",
"                                                      F$G$H$D D D D D I$J$K$L$M$  N$O$V+7+P$Q$                                  ",
"                                                        R$S$T$D D D D U$V$W$X$Y$Z$n.( p+%@9+                                    ",
"                                                          `$ %m#_@~+.%+%@%#%$%%%&%$@*%=%-%;%                                    ",
"                                                        >%,%'%)%>.!%~%{%( ]%^%/%8+8+8+G.(%                                      ",
"                                                        _%:%<%[%}%|%N 1%( ~ 2%3%4%5%6%7%                                        ",
"                                                      8%9%0%( a%b%  ].c%( S '+1+                                                ",
"                                                      d%2%e%( .@f%    g%( ( h%i%j%                                              ",
"                                                      k%2%l%( m%n%    u.Z ( o%2%p%                                              ",
"                                                      q%r%( ( s%t%    u%*%( r 2%@+                                              ",
"                                                    v%2%w%( ( x%      y%F.( ( z%A%                                              ",
"                                                    B%C%S ( *%D%        E%+@( F%G%H%                                            ",
"                                                    I%N#J%K%L%M%        N%O%P%Q%R%                                              ",
"                                                      S%R%T%.$          U%V%W%X%Y%                                              ",
"                                                                                                                                ",
"                                                                                                                                ",
"                                                                                                                                "};
