/* XPM */
static char * ewl5_xpm[] = {
"64 64 654 2",
"  	c None",
". 	c #674505",
"+ 	c #000000",
"@ 	c #AD6E1A",
"# 	c #EFA818",
"$ 	c #5A3D03",
"% 	c #734F05",
"& 	c #C28410",
"* 	c #633B08",
"= 	c #EA9833",
"- 	c #F3A536",
"; 	c #DB9A11",
"> 	c #190E01",
", 	c #422C02",
"' 	c #E9A415",
") 	c #F1A235",
"! 	c #935911",
"~ 	c #BA7A3B",
"{ 	c #F1C099",
"] 	c #EEA03E",
"^ 	c #F7AA2E",
"/ 	c #B27C0B",
"( 	c #CB8E0E",
"_ 	c #F4A733",
": 	c #DC8B28",
"< 	c #211201",
"[ 	c #442804",
"} 	c #EAB48F",
"| 	c #F5E4DD",
"1 	c #EFA85A",
"2 	c #F7AC22",
"3 	c #735005",
"4 	c #986A09",
"5 	c #F9AC29",
"6 	c #ED9A34",
"7 	c #91570F",
"8 	c #995C11",
"9 	c #F2CEBA",
"0 	c #F6E9E6",
"a 	c #F2CCB0",
"b 	c #F0A339",
"c 	c #DC9A13",
"d 	c #4B3203",
"e 	c #F0A81B",
"f 	c #EFA13C",
"g 	c #F0AD68",
"h 	c #EE9E3B",
"i 	c #C97A1A",
"j 	c #C87919",
"k 	c #F4E0D6",
"l 	c #F8F0ED",
"m 	c #F8ECE6",
"n 	c #EFA551",
"o 	c #F7AA2D",
"p 	c #916508",
"q 	c #BD840D",
"r 	c #F3A635",
"s 	c #EFAA61",
"t 	c #F8ECE4",
"u 	c #EFAA5F",
"v 	c #E99126",
"w 	c #4F2E06",
"x 	c #341D04",
"y 	c #E89A50",
"z 	c #F5E7E3",
"A 	c #FAF4F1",
"B 	c #FAF6F2",
"C 	c #F2C5A2",
"D 	c #DB9916",
"E 	c #513603",
"F 	c #F4AA23",
"G 	c #F3D5C1",
"H 	c #FAF5F2",
"I 	c #F3C8A4",
"J 	c #EC962E",
"K 	c #965A11",
"L 	c #86500F",
"M 	c #EEB185",
"N 	c #F6E9E5",
"O 	c #FAF6F3",
"P 	c #F7E6DA",
"Q 	c #EEA03D",
"R 	c #F6AA2C",
"S 	c #6B4905",
"T 	c #AF7A0B",
"U 	c #F2A536",
"V 	c #F0B47C",
"W 	c #F7EBE8",
"X 	c #F6DECC",
"Y 	c #BF7418",
"Z 	c #AB6714",
"` 	c #F0C1A3",
" .	c #F7EDE9",
"..	c #F0B378",
"+.	c #F1A339",
"@.	c #AC780B",
"#.	c #DE9B1D",
"$.	c #F3D4C0",
"%.	c #F9EFE6",
"&.	c #EEA03F",
"*.	c #ED9D39",
"=.	c #DE871D",
"-.	c #050301",
";.	c #CA7A1A",
">.	c #F2CDB9",
",.	c #F8F0EC",
"'.	c #F4D2B8",
").	c #C68A18",
"!.	c #392603",
"~.	c #F4A92D",
"{.	c #F5E6E1",
"].	c #F9F4F1",
"^.	c #EFAB5E",
"/.	c #EE9F3D",
"(.	c #EB8F1F",
"_.	c #613909",
":.	c #E0881E",
"<.	c #F3D9CC",
"[.	c #F9F2EF",
"}.	c #F5E9DF",
"|.	c #BF7F30",
"1.	c #794F1B",
"2.	c #634406",
"3.	c #996A0B",
"4.	c #A46D1D",
"5.	c #A0631A",
"6.	c #8C5E0A",
"7.	c #F1C19A",
"8.	c #F1BC8B",
"9.	c #EB9022",
"0.	c #915710",
"a.	c #402505",
"b.	c #EB8F1E",
"c.	c #F4E2DA",
"d.	c #D5D1CF",
"e.	c #68635E",
"f.	c #A8760A",
"g.	c #E6A11B",
"h.	c #F5A931",
"i.	c #B37A1F",
"j.	c #EFA23B",
"k.	c #F6EBE8",
"l.	c #F3C9A6",
"m.	c #EC9226",
"n.	c #A96614",
"o.	c #7D4A0D",
"p.	c #EC942E",
"q.	c #F5E8E5",
"r.	c #F8F4F1",
"s.	c #A7A5A3",
"t.	c #865D09",
"u.	c #EDA713",
"v.	c #F6AA2E",
"w.	c #E59B38",
"x.	c #EFA23F",
"y.	c #F5E3DB",
"z.	c #F5D4BA",
"A.	c #EC9429",
"B.	c #C07418",
"C.	c #905610",
"D.	c #EDA265",
"E.	c #F6EAE7",
"F.	c #F5F1EF",
"G.	c #8A8785",
"H.	c #B57F0C",
"I.	c #FCB11A",
"J.	c #F2A437",
"K.	c #EEAF6F",
"L.	c #F7ECE9",
"M.	c #F6DCC7",
"N.	c #EC942A",
"O.	c #CE7D1B",
"P.	c #985B12",
"Q.	c #EDA873",
"R.	c #F4EAE6",
"S.	c #898685",
"T.	c #C58A0E",
"U.	c #FDB21B",
"V.	c #F0A33A",
"W.	c #EDB37D",
"X.	c #F6EAE6",
"Y.	c #F7E2D1",
"Z.	c #EC942B",
"`.	c #D9841D",
" +	c #9C5E12",
".+	c #EFB183",
"++	c #A09794",
"@+	c #BB830D",
"#+	c #FEB318",
"$+	c #F3D6C4",
"%+	c #F7E6D7",
"&+	c #9A5D12",
"*+	c #C1834E",
"=+	c #986A06",
"-+	c #FFB413",
";+	c #F3A636",
">+	c #EFA85C",
",+	c #F4E1D7",
"'+	c #F7EEEA",
")+	c #F8E7DB",
"!+	c #EC9329",
"~+	c #E1891E",
"{+	c #7A490C",
"]+	c #6C4606",
"^+	c #F7AE13",
"/+	c #F7AB2C",
"(+	c #EFAF70",
"_+	c #F5E2DA",
":+	c #F9F3F0",
"<+	c #F8E7D9",
"[+	c #EC9225",
"}+	c #DA851D",
"|+	c #D4950F",
"1+	c #EFA13D",
"2+	c #EFAD6B",
"3+	c #F5E0D4",
"4+	c #F7E3D3",
"5+	c #EB9020",
"6+	c #805806",
"7+	c #F4A732",
"8+	c #EEA44D",
"9+	c #F3CDB0",
"0+	c #F5D6BC",
"a+	c #EE9E3A",
"b+	c #9F6013",
"c+	c #DA9F3B",
"d+	c #FDCD94",
"e+	c #F2BE8F",
"f+	c #EEA347",
"g+	c #EFAA5D",
"h+	c #F2C299",
"i+	c #F2BE90",
"j+	c #EEA13F",
"k+	c #ED9C38",
"l+	c #D07F1B",
"m+	c #694705",
"n+	c #FCDAB4",
"o+	c #F9EEE6",
"p+	c #F1B67F",
"q+	c #EEA142",
"r+	c #F3CAA7",
"s+	c #FAF4EF",
"t+	c #F1B780",
"u+	c #EB9124",
"v+	c #1A0D01",
"w+	c #BA820C",
"x+	c #FEBD55",
"y+	c #F8E9DD",
"z+	c #F7E1CF",
"A+	c #F2C094",
"B+	c #F3CAA5",
"C+	c #F7E5D7",
"D+	c #F4D0B2",
"E+	c #EEA348",
"F+	c #FAF5F0",
"G+	c #F6DAC4",
"H+	c #EC972F",
"I+	c #844F0E",
"J+	c #E7A311",
"K+	c #FBB021",
"L+	c #F1BA86",
"M+	c #F3C69F",
"N+	c #F0AD66",
"O+	c #F5D8C2",
"P+	c #F8E8DB",
"Q+	c #F3C59E",
"R+	c #F0B06F",
"S+	c #B66E16",
"T+	c #482F03",
"U+	c #FEB313",
"V+	c #F7A92A",
"W+	c #ED9B36",
"X+	c #EE9D39",
"Y+	c #F7E5D6",
"Z+	c #EFA95A",
"`+	c #ED9730",
" @	c #EB9123",
".@	c #DC9047",
"+@	c #36312B",
"@@	c #27231C",
"#@	c #C3A37A",
"$@	c #FAAC16",
"%@	c #E68E22",
"&@	c #C17A33",
"*@	c #CA7F30",
"=@	c #EC9731",
"-@	c #FAF3EE",
";@	c #E7912A",
">@	c #C27B33",
",@	c #C67D31",
"'@	c #E98E20",
")@	c #EC962D",
"!@	c #EE9E3C",
"~@	c #F4D4BC",
"{@	c #E6E1DD",
"]@	c #716C67",
"^@	c #140F07",
"/@	c #DFD9D3",
"(@	c #F9D2AA",
"_@	c #E69025",
":@	c #DED4CE",
"<@	c #E7E7E7",
"[@	c #4A4A4A",
"}@	c #9E6938",
"|@	c #F1B882",
"1@	c #F7E3D4",
"2@	c #E99734",
"3@	c #DACCC4",
"4@	c #EBEBEB",
"5@	c #595959",
"6@	c #90623A",
"7@	c #ED9C37",
"8@	c #F0B377",
"9@	c #F6F2EE",
"0@	c #8B857F",
"a@	c #B7B2AC",
"b@	c #F9CDA2",
"c@	c #BB7630",
"d@	c #F1F1F1",
"e@	c #FFFFFF",
"f@	c #626262",
"g@	c #393939",
"h@	c #DF9236",
"i@	c #F5D3B8",
"j@	c #F0B173",
"k@	c #C68238",
"l@	c #E9E9E9",
"m@	c #7C7C7C",
"n@	c #353535",
"o@	c #D5842B",
"p@	c #EC9730",
"q@	c #EEA44C",
"r@	c #EEE9E5",
"s@	c #4B4540",
"t@	c #18140D",
"u@	c #CFCAC4",
"v@	c #F7D0AB",
"w@	c #AE7035",
"x@	c #808080",
"y@	c #9C9C9C",
"z@	c #262626",
"A@	c #414141",
"B@	c #D68F3F",
"C@	c #F9EEE5",
"D@	c #E6E3E0",
"E@	c #D4D1CE",
"F@	c #EDE9E6",
"G@	c #F6DECB",
"H@	c #B97B3A",
"I@	c #767676",
"J@	c #A2A2A2",
"K@	c #222222",
"L@	c #424242",
"M@	c #CB7F30",
"N@	c #F3EEEA",
"O@	c #78736E",
"P@	c #15120B",
"Q@	c #DBD6D1",
"R@	c #F8E5D3",
"S@	c #CE8230",
"T@	c #3E3F3E",
"U@	c #0F0F0F",
"V@	c #C8C8C8",
"W@	c #C5C0BD",
"X@	c #EDC09C",
"Y@	c #CEC1BF",
"Z@	c #E2AAAA",
"`@	c #F8AEAE",
" #	c #D88585",
".#	c #D9D0CE",
"+#	c #F2C093",
"@#	c #D88E39",
"##	c #424241",
"$#	c #111111",
"%#	c #BBBBBB",
"&#	c #CCC9C8",
"*#	c #E28B24",
"=#	c #EEA141",
"-#	c #F5D8C0",
";#	c #ECE4E0",
">#	c #6A6461",
",#	c #5F5B54",
"'#	c #F2EDE9",
")#	c #F5B97C",
"!#	c #B1743A",
"~#	c #5A524B",
"{#	c #837369",
"]#	c #D79E6E",
"^#	c #F9EFE7",
"/#	c #CBA5A3",
"(#	c #FE9A9A",
"_#	c #FF9393",
":#	c #FB7E7E",
"<#	c #CAB5B3",
"[#	c #F9F2EC",
"}#	c #F1B781",
"|#	c #BB7B3A",
"1#	c #5F534B",
"2#	c #7A6C63",
"3#	c #D28F59",
"4#	c #EFAA5E",
"5#	c #F7E1D0",
"6#	c #F8EFEB",
"7#	c #E6DAD5",
"8#	c #645D59",
"9#	c #928D87",
"0#	c #FAF0E7",
"a#	c #F2BB8A",
"b#	c #EB9730",
"c#	c #EFAF77",
"d#	c #F8EADF",
"e#	c #EFECE9",
"f#	c #C8B1AF",
"g#	c #B17776",
"h#	c #CABAB8",
"i#	c #F6F2EF",
"j#	c #FAF4F0",
"k#	c #F4D2B7",
"l#	c #EEAB6F",
"m#	c #EC9C43",
"n#	c #EFAE76",
"o#	c #F4D1B5",
"p#	c #F9F2EB",
"q#	c #F7EDEA",
"r#	c #F5E8E4",
"s#	c #DFD2CD",
"t#	c #57514E",
"u#	c #B6B1AB",
"v#	c #FAF5F1",
"w#	c #EBE7E4",
"x#	c #848280",
"y#	c #ECE9E6",
"z#	c #FAF7F4",
"A#	c #CDC0BB",
"B#	c #3E3835",
"C#	c #070503",
"D#	c #C2B7B2",
"E#	c #F9F2EE",
"F#	c #F1EDEA",
"G#	c #C4C1BE",
"H#	c #D7D4D1",
"I#	c #C2BFBC",
"J#	c #E7E4E1",
"K#	c #EEE0DC",
"L#	c #A39893",
"M#	c #040403",
"N#	c #0A0704",
"O#	c #B2A7A2",
"P#	c #F4E5E1",
"Q#	c #F8F1ED",
"R#	c #F7EEEB",
"S#	c #F7ECE8",
"T#	c #EFE0DC",
"U#	c #BBAFAB",
"V#	c #524B46",
"W#	c #766E69",
"X#	c #D2C6C0",
"Y#	c #F4E6E2",
"Z#	c #F2E4E0",
"`#	c #E1D3CE",
" $	c #C3B7B2",
".$	c #938984",
"+$	c #352F2C",
"@$	c #564F4A",
"#$	c #9B908B",
"$$	c #BAAEA9",
"%$	c #C6BAB5",
"&$	c #D1C4BD",
"*$	c #C7BBB6",
"=$	c #C0B4B0",
"-$	c #B3A8A4",
";$	c #8B817C",
">$	c #6A625E",
",$	c #332D28",
"'$	c #41290A",
")$	c #A69689",
"!$	c #ADAAA8",
"~$	c #BCB9B7",
"{$	c #C19469",
"]$	c #C98733",
"^$	c #D28B30",
"/$	c #7B550A",
"($	c #B38E6B",
"_$	c #ED9F3D",
":$	c #EA932A",
"<$	c #F0A139",
"[$	c #C88A1F",
"}$	c #2B1A06",
"|$	c #EDD7C6",
"1$	c #F0B883",
"2$	c #B27428",
"3$	c #DD8924",
"4$	c #EE9F3B",
"5$	c #D59421",
"6$	c #311F02",
"7$	c #90683C",
"8$	c #F5D7BF",
"9$	c #AF7126",
"0$	c #EA942D",
"a$	c #B88014",
"b$	c #241F18",
"c$	c #C0A58D",
"d$	c #F8EBE0",
"e$	c #D89138",
"f$	c #C3771A",
"g$	c #F1A530",
"h$	c #624304",
"i$	c #787163",
"j$	c #C2BCB3",
"k$	c #E1C9B6",
"l$	c #EFA54E",
"m$	c #ED9F3E",
"n$	c #9E6016",
"o$	c #B17B0D",
"p$	c #2D1E00",
"q$	c #FDFAF8",
"r$	c #A8A4A0",
"s$	c #482905",
"t$	c #6C400C",
"u$	c #F4DBC8",
"v$	c #F0B275",
"w$	c #9A611D",
"x$	c #ED9933",
"y$	c #CA8C1B",
"z$	c #70695C",
"A$	c #FCF7F2",
"B$	c #F1EDE9",
"C$	c #31261A",
"D$	c #CF986E",
"E$	c #955F1E",
"F$	c #F1B680",
"G$	c #926020",
"H$	c #EDA45D",
"I$	c #C6B19C",
"J$	c #AB8247",
"K$	c #F5D2B3",
"L$	c #F9F1EB",
"M$	c #80756E",
"N$	c #443E3A",
"O$	c #F5E4DC",
"P$	c #987758",
"Q$	c #F5D8C1",
"R$	c #F0AC63",
"S$	c #B36F1B",
"T$	c #CEBFBA",
"U$	c #E1DAD6",
"V$	c #6B6966",
"W$	c #986910",
"X$	c #ECA135",
"Y$	c #F1C19C",
"Z$	c #7D726B",
"`$	c #A19B97",
" %	c #8E8C89",
".%	c #EAB07B",
"+%	c #ED9831",
"@%	c #DC861D",
"#%	c #6F4911",
"$%	c #AD7423",
"%%	c #E29A30",
"&%	c #EFA23C",
"*%	c #E08B2C",
"=%	c #28221B",
"-%	c #B6701A",
";%	c #F1BD93",
">%	c #F6DFCD",
",%	c #EFA859",
"'%	c #ED9B37",
")%	c #E38D25",
"!%	c #B06A16",
"~%	c #D1882E",
"{%	c #ED9932",
"]%	c #955911",
"^%	c #4E3104",
"/%	c #D07E1B",
"(%	c #EC9229",
"_%	c #EEA25A",
":%	c #ED9E4B",
"<%	c #DE8C28",
"[%	c #C8822C",
"}%	c #EDA232",
"|%	c #694507",
"1%	c #E2891E",
"2%	c #EB9021",
"3%	c #E98E1F",
"4%	c #A46314",
"5%	c #E29F11",
"6%	c #9D6A1C",
"7%	c #D2801C",
"8%	c #E68C1E",
"9%	c #EA9A37",
"0%	c #F9AD27",
"a%	c #AF7B0B",
"b%	c #683D0A",
"c%	c #B46D16",
"d%	c #C7791A",
"e%	c #6D400A",
"f%	c #5B3D04",
"g%	c #D99138",
"h%	c #A56921",
"i%	c #0A0501",
"j%	c #9A5D11",
"k%	c #EE9F3C",
"l%	c #D0920F",
"m%	c #8F6308",
"n%	c #F4A734",
"o%	c #ED9832",
"p%	c #3B2205",
"q%	c #BA7219",
"r%	c #FCB11D",
"s%	c #E29F10",
"t%	c #A7740A",
"u%	c #673C09",
"v%	c #CE7F1F",
"w%	c #FDB11D",
"x%	c #E8A411",
"y%	c #AC780A",
"z%	c #79480D",
"A%	c #D68522",
"B%	c #FCB11E",
"C%	c #EDA712",
"D%	c #B07B0B",
"E%	c #F1A438",
"F%	c #7D4B0D",
"G%	c #DB8722",
"H%	c #FBAF22",
"I%	c #B37E0C",
"J%	c #78470C",
"K%	c #F9AD28",
"L%	c #EBA512",
"M%	c #AD9072",
"N%	c #F7B96F",
"O%	c #ED9A33",
"P%	c #EEAB77",
"Q%	c #695243",
"R%	c #D7B8A5",
"S%	c #EFB180",
"T%	c #EFAC6C",
"U%	c #F2BA84",
"V%	c #DFBF9F",
"W%	c #756D68",
"X%	c #EDE0DC",
"Y%	c #D6C9C4",
"Z%	c #191510",
"`%	c #817975",
" &	c #E8DAD5",
".&	c #EEE0DB",
"+&	c #918783",
"@&	c #534C48",
"#&	c #998F8A",
"$&	c #8D847F",
"%&	c #221E1C",
"&&	c #1D1B19",
"*&	c #5B534D",
"=&	c #312B27",
"                                                                                                                                ",
"                                                                                                                                ",
"                                                      .                             +                                           ",
"                                                    @ # $                         % &                                           ",
"                                                  * = - ; >                     , ' ) !                                         ",
"                                                  ~ { ] ^ /                     ( _ ] : <                                       ",
"                                                [ } | 1 ] 2 3                 4 5 ] ] 6 7                                       ",
"                                                8 9 0 a ] b c               d e f g ] h i                                       ",
"                                                j k l m n ] o p             q r s t u ] v w                                     ",
"                                              x y z A B C ] f D           E F ] G H I ] J K                                     ",
"                                              L M N O O P Q ] R S         T U V W O X ] 6 Y                                     ",
"                                              Z `  .O O H ..] +.@.        #.] $.l O %.&.*.=.-.                                  ",
"                                              ;.>.,.O O O '.] ] ).      !.~.1 {.].O O ^./.(._.                                  ",
"                                            + :.<.[.O O O }.|.1.2.3.4.5.6.U 7.N O O O 8.] 9.0.                                  ",
"                                            a.b.c.H O O d.e.f.g.h.f ] ] i.j.$.k.O O O l.] m.n.                                  ",
"                                            o.p.q.O r.s.t.u.v.Q ] ] ] ] w.x.y. .O O O z.] A.B.                                  ",
"                                            C.D.E.F.G.H.I.J.] ] ] ] ] ] ] K.z L.O O O M.] N.O.                                  ",
"                                            P.Q.R.S.T.U.V.] ] ] ] ] ] ] ] W.z X.O O O Y.] Z.`.                                  ",
"                                             +.+++@+#++.] ] ] ] ] ] ] ] ] &.$+z ].O O %+] N.:.+                                 ",
"                                            &+*+=+-+;+] ] ] ] ] ] ] ] ] ] ] >+,+'+O O )+] !+~++                                 ",
"                                            {+]+^+/+] ] ] ] ] ] ] ] ] ] ] ] ] (+_+:+O <+] [+}+                                  ",
"                                            + |+U.1+] ] ] ] ] ] ] ] ] ] ] ] ] ] 2+3+].4+] 5+i                                   ",
"                                            6+-+7+] ] ] ] ] ] ] ] ] ] ] ] ] ] ] ] 8+9+0+a+(.b+                                  ",
"                                          + c+d+e+f+] ] ] ] ] ] ] ] ] ] ] g+h+i+j+] ] ] k+l+{+                                  ",
"                                          m+n+O O o+p+] ] ] q+] ] ] ] ] r+s+O O t+] ] ] ] u+~+v+                                ",
"                                          w+x+y+O O z+] A+B+C+e+D+] ] E+F+O B G+q+] ] ] ] H+(.I+                                ",
"                                        + J+K+q+L+M+N+] O+O O O P+] ] ] t+Q+R+] ] ] ] ] ] k+(.S+                                ",
"                                        T+U+V+W+X+] ] ] Y+O O O H Z+] ] ] Q 6 `+W+] ] ] ] /. @.@+@                              ",
"                                      @@#@$@%@&@*@=@] q+-@O O O O M+] ] Q ;@>@,@'@)@] ] ] ] !@~@{@]@                            ",
"                                    ^@/@(@_@:@<@[@}@*.|@O O O O O 1@] ] 2@3@4@5@6@(.7@] ] ] 8@F+O 9@0@                          ",
"                                      a@b@c@d@e@f@g@h@i@O O O O O B j@] k@l@e@m@n@o@p@] ] q@y+O O r@s@                          ",
"                                    t@u@v@w@x@y@z@A@B@C@D@E@F@O O O G@] H@I@J@K@L@M@H+] j+M.O O O N@O@                          ",
"                                    P@Q@R@S@T@U@V@W@X@Y@Z@`@ #.#O O O +#@###$#%#&#*#W+=#-#O O O H ;#>#                          ",
"                                      ,#'#)#!#~#{#]#^#/#(#_#:#<#O O O [#}#|#1#2#3#A.4#5#O O H 6#7#8#                            ",
"                                        9#0#a#b#c#d#O e#f#g#h#i#O O O O j#k#l#m#n#o#p#O :+q#r#s#t#                              ",
"                                        + u#O v#O O O O w#x#y#O O O O O O O O z#O v#,.X.z z A#B#                                ",
"                                          C#D# .E#H O F#G#H#I#J#O O O O O H [.6#E.z z z K#L#M#                                  ",
"                                            N#O#P#z X. .6#,.l Q#l ,.R#S#X.z z z z z T#U#V#                                      ",
"                                              + W#X#Y#z z z z z z z z z z z Z#`# $.$+$                                          ",
"                                                  + @$#$$$%$&$&$*$=$-$L#;$>$,$+                                                 ",
"                                                          + '$)$!$~${$]$^$/$                                                    ",
"                                                            ($F+O O Y+_$:$<$[$                                                  ",
"                                                          }$|$O O O O 1$2$3$4$5$6$                                              ",
"                                                          7$s+O O O O 8$] 9$0$j.a$    b$                                        ",
"                                                          c$O O O O O d$] e$f$/.g$h$  i$j$                                      ",
"                                                        + k$O O O O O v#l$m$n$7@f o$  p$q$r$                                    ",
"                                                      s$t$u$O O O O O O v$] w$x$] y$  z$A$B$C$                                  ",
"                                                      D$E$z+O O O O O O F$] G$H$i+I$  J$K$L$M$                                  ",
"                                                    N$O$P$Q$O O O O O B R$] S$T$U$V$W$X$] Y$Z$                                  ",
"                                                      `$ %.%v#O O O O 5#] +%@%#%$%%%&%] k+*%=%                                  ",
"                                                        + -%;%C@O v#>%,%'%)%!%~%] ] /.{%5+]%                                    ",
"                                                          ^%/%(%_%:%<%[%] }%|%1% @m.2%3%4%                                      ",
"                                                          5%6%b+7%8%P.9%] 0%a%b%c%d%c%e%                                        ",
"                                                        f%-+r g%h%i%j%k%] K+l%                                                  ",
"                                                        m%-+n%] o%p%q%] ] r%s%                                                  ",
"                                                        t%-+n%] x$u%v%] ] w%x%                                                  ",
"                                                        y%-+r ] x$z%A%] ] B%C%                                                  ",
"                                                        D%-+E%] {%F%G%] ] H%C%                                                  ",
"                                                        I%-+f ] )@J%`.h ] K%L%                                                  ",
"                                                        M%N%/.O%P%Q%R%S%T%U%V%                                                  ",
"                                                        W%X%y.y.Y%Z%`% &z .&+&                                                  ",
"                                                          @&#&$&%&    &&*&=&                                                    ",
"                                                                                                                                ",
"                                                                                                                                "};
