/* XPM */
static char * ewl6_xpm[] = {
"64 64 625 2",
"  	c None",
". 	c #543804",
"+ 	c #3D2702",
"@ 	c #201101",
"# 	c #E1981C",
"$ 	c #BC840D",
"% 	c #412B02",
"& 	c #E6A214",
"* 	c #996113",
"= 	c #945910",
"- 	c #EE9E3B",
"; 	c #F9AD28",
"> 	c #B27C0C",
", 	c #D3940F",
"' 	c #F4A733",
") 	c #E3922F",
"! 	c #422604",
"~ 	c #CF9262",
"{ 	c #EFAC67",
"] 	c #EEA03E",
"^ 	c #F9AD26",
"/ 	c #9F6F0A",
"( 	c #B17C0C",
"_ 	c #F7AB2C",
": 	c #EE9D39",
"< 	c #A16212",
"[ 	c #563306",
"} 	c #EEBFA1",
"| 	c #F4DBCD",
"1 	c #EEA143",
"2 	c #EFA13D",
"3 	c #F7AC21",
"4 	c #7F5806",
"5 	c #F8AD23",
"6 	c #D98621",
"7 	c #F2CFBB",
"8 	c #F6E9E5",
"9 	c #F1C4A1",
"0 	c #F0A23B",
"a 	c #EAA418",
"b 	c #432C02",
"c 	c #211401",
"d 	c #E7A216",
"e 	c #F0B47B",
"f 	c #F0B275",
"g 	c #EC962D",
"h 	c #74450B",
"i 	c #B66E16",
"j 	c #F4DCD0",
"k 	c #F8EFEC",
"l 	c #F7ECE6",
"m 	c #EFA85A",
"n 	c #F3A635",
"o 	c #BD840D",
"p 	c #AA760B",
"q 	c #F5A831",
"r 	c #EFA552",
"s 	c #F6E6DD",
"t 	c #F5D3B9",
"u 	c #ED9933",
"v 	c #A66414",
"w 	c #D27F16",
"x 	c #F5E4DC",
"y 	c #F9F2EF",
"z 	c #FAF6F3",
"A 	c #F3D1B8",
"B 	c #F5AA27",
"C 	c #5F4004",
"D 	c #2E1E02",
"E 	c #EDA61E",
"F 	c #F2CEB4",
"G 	c #F9F3EF",
"H 	c #F8E8DC",
"I 	c #ED9C38",
"J 	c #CD7C1A",
"K 	c #190C01",
"L 	c #E7953E",
"M 	c #F5E7E3",
"N 	c #FAF5F2",
"O 	c #F9F2ED",
"P 	c #EFAB63",
"Q 	c #F0A33A",
"R 	c #BB830E",
"S 	c #9D6D09",
"T 	c #F4A734",
"U 	c #EFAD6C",
"V 	c #F6E8E3",
"W 	c #EFA54C",
"X 	c #EE9F3D",
"Y 	c #E78D1F",
"Z 	c #2F1A03",
"` 	c #603909",
" .	c #EDA161",
"..	c #F5E8E4",
"+.	c #F4D3BA",
"@.	c #EAA225",
"#.	c #050300",
"$.	c #D19216",
"%.	c #F2CEB5",
"&.	c #F7EEEA",
"*.	c #F1B883",
"=.	c #EB9122",
"-.	c #7A490D",
";.	c #87510F",
">.	c #EDA771",
",.	c #F9F1EC",
"'.	c #EFA756",
").	c #EFA333",
"!.	c #5C3F04",
"~.	c #000000",
"{.	c #EBA329",
"].	c #EEA44B",
"^.	c #F5E4DD",
"/.	c #F3C69F",
"(.	c #EC9327",
"_.	c #9A5C12",
":.	c #955911",
"<.	c #EEAD7C",
"[.	c #F6EBE7",
"}.	c #E8C3A5",
"|.	c #A16B27",
"1.	c #55380B",
"2.	c #9C6C09",
"3.	c #C2861E",
"4.	c #CC882C",
"5.	c #C98128",
"6.	c #805111",
"7.	c #F1BC90",
"8.	c #F4D2B7",
"9.	c #EC942A",
"0.	c #B36C16",
"a.	c #A06013",
"b.	c #EFB388",
"c.	c #F7ECE8",
"d.	c #F9F5F2",
"e.	c #BFBCBA",
"f.	c #665037",
"g.	c #C88D0E",
"h.	c #F4AA26",
"i.	c #F1A438",
"j.	c #CD8A34",
"k.	c #F3D2BC",
"l.	c #F6E9E6",
"m.	c #F5D9C4",
"n.	c #C77819",
"o.	c #AB6715",
"p.	c #EFB791",
"q.	c #F7EDE9",
"r.	c #F3F0ED",
"s.	c #8E8C8A",
"t.	c #A3710A",
"u.	c #F8AE19",
"v.	c #EFA23C",
"w.	c #F5E2D9",
"x.	c #F7E2D0",
"y.	c #EC962E",
"z.	c #D5811C",
"A.	c #B06A15",
"B.	c #EFB894",
"C.	c #F2EEEC",
"D.	c #7A7775",
"E.	c #C58A0E",
"F.	c #FCB11E",
"G.	c #ECAB67",
"H.	c #F6EAE6",
"I.	c #F8E6D9",
"J.	c #DE871E",
"K.	c #EFB995",
"L.	c #F4EBE7",
"M.	c #827F7D",
"N.	c #CD900F",
"O.	c #EEA551",
"P.	c #F4E3DB",
"Q.	c #F8EADF",
"R.	c #E58B1E",
"S.	c #EFB893",
"T.	c #A29997",
"U.	c #C0870D",
"V.	c #FEB21A",
"W.	c #F1BE94",
"X.	c #F9F2EE",
"Y.	c #F8EAE0",
"Z.	c #EC952C",
"`.	c #9C5E12",
" +	c #C68751",
".+	c #966804",
"++	c #FFB413",
"@+	c #F2A536",
"#+	c #F2CFB7",
"$+	c #F6EAE7",
"%+	c #F8E9DD",
"&+	c #EC9329",
"*+	c #E38A1E",
"=+	c #79480D",
"-+	c #684207",
";+	c #F4AC12",
">+	c #F8AC2B",
",+	c #EEA245",
"'+	c #F3D5C1",
")+	c #F7E5D7",
"!+	c #EB9124",
"~+	c #D8831C",
"{+	c #C78C0E",
"]+	c #FEB219",
"^+	c #EFA13C",
"/+	c #EEA244",
"(+	c #F2CDB3",
"_+	c #F6DDCA",
":+	c #EB8F1F",
"<+	c #C27519",
"[+	c #664604",
"}+	c #FDB213",
"|+	c #F6A930",
"1+	c #F0B885",
"2+	c #F2C5A0",
"3+	c #E88D1F",
"4+	c #854F0E",
"5+	c #C88E1D",
"6+	c #FEC983",
"7+	c #F2BE8E",
"8+	c #EEA44A",
"9+	c #EEA140",
"0+	c #F2C398",
"a+	c #F6DFCD",
"b+	c #F7E0CF",
"c+	c #F0AF6E",
"d+	c #EE9F3C",
"e+	c #CA7C1D",
"f+	c #B16B16",
"g+	c #000100",
"h+	c #3E2902",
"i+	c #F7CF9E",
"j+	c #F9F1EA",
"k+	c #F2BE90",
"l+	c #EFA653",
"m+	c #EFA44C",
"n+	c #F5D8C1",
"o+	c #FAF6F2",
"p+	c #F1BA89",
"q+	c #7E4B0D",
"r+	c #9B6C09",
"s+	c #FFBB4B",
"t+	c #F9E8DA",
"u+	c #F2BF92",
"v+	c #F4CFB0",
"w+	c #F9F0E8",
"x+	c #F3CBA9",
"y+	c #F6DFCB",
"z+	c #EEA03D",
"A+	c #F8E7DA",
"B+	c #F8EBE0",
"C+	c #F2C399",
"D+	c #B86F17",
"E+	c #CE900E",
"F+	c #FEB318",
"G+	c #F1B985",
"H+	c #F3C6A0",
"I+	c #F0B06E",
"J+	c #F4CCAB",
"K+	c #FAF3ED",
"L+	c #EFA44A",
"M+	c #EEA141",
"N+	c #EFA54E",
"O+	c #EB9021",
"P+	c #DB851D",
"Q+	c #EDA712",
"R+	c #FAAE23",
"S+	c #ED9C37",
"T+	c #ED9D39",
"U+	c #F6DAC4",
"V+	c #EB9123",
"W+	c #EC9328",
"X+	c #ED9B36",
"Y+	c #EFAB72",
"Z+	c #C9C4BE",
"`+	c #433D38",
" @	c #8B7A61",
".@	c #FDB114",
"+@	c #EE961E",
"@@	c #CD802E",
"#@	c #C97E32",
"$@	c #E8932D",
"%@	c #F8E8DB",
"&@	c #F6DBC7",
"*@	c #E19240",
"=@	c #BF9E8A",
"-@	c #885E3C",
";@	c #C87E30",
">@	c #EB9020",
",@	c #F7E1D1",
"'@	c #EBE6E2",
")@	c #837D78",
"!@	c #B2ACA5",
"~@	c #F9E1CA",
"{@	c #F09A25",
"]@	c #D5B7A5",
"^@	c #E9E9E9",
"/@	c #747474",
"(@	c #7C583C",
"_@	c #EA9834",
":@	c #EFA651",
"<@	c #FAF5F1",
"[@	c #FAF4EF",
"}@	c #EFA85B",
"|@	c #EC9A35",
"1@	c #D8CCC5",
"2@	c #FFFFFF",
"3@	c #A6A6A6",
"4@	c #3D3A38",
"5@	c #D6852B",
"6@	c #EC952D",
"7@	c #F2C197",
"8@	c #A6A09B",
"9@	c #A7A19A",
"0@	c #FCE0C3",
"a@	c #DB892A",
"b@	c #D6D6D6",
"c@	c #A3A3A3",
"d@	c #303030",
"e@	c #C58239",
"f@	c #F2C195",
"g@	c #F4D1B4",
"h@	c #DA8F38",
"i@	c #B6B6B6",
"j@	c #939393",
"k@	c #272727",
"l@	c #AC6F35",
"m@	c #F0AD66",
"n@	c #F9F0EA",
"o@	c #F8F3EF",
"p@	c #69635E",
"q@	c #8F8983",
"r@	c #FAE3CB",
"s@	c #CD822F",
"t@	c #6F6F6F",
"u@	c #B7B7B7",
"v@	c #343434",
"w@	c #414141",
"x@	c #B67939",
"y@	c #F6DECB",
"z@	c #E7E4E1",
"A@	c #CDC7C5",
"B@	c #D3D0CD",
"C@	c #F7F3F0",
"D@	c #FAF3EE",
"E@	c #DC9138",
"F@	c #4F4F4F",
"G@	c #4A4A4A",
"H@	c #A2A2A2",
"I@	c #B17237",
"J@	c #EC9429",
"K@	c #EFA754",
"L@	c #BDB7B2",
"M@	c #C5BFB9",
"N@	c #E59537",
"O@	c #514943",
"P@	c #121212",
"Q@	c #959595",
"R@	c #E2E2E2",
"S@	c #D49C68",
"T@	c #DBD4D0",
"U@	c #DDA6A6",
"V@	c #FEBBBB",
"W@	c #F59696",
"X@	c #C29C9B",
"Y@	c #F7E5D6",
"Z@	c #EEA146",
"`@	c #896343",
" #	c #373737",
".#	c #7A7A7A",
"+#	c #D7D4D3",
"@#	c #DC8827",
"##	c #ED9A34",
"$#	c #EFAA5F",
"%#	c #F8E7DB",
"&#	c #C9BEB9",
"*#	c #1C1814",
"=#	c #38332E",
"-#	c #E5E0DB",
";#	c #F7CEA6",
">#	c #C57D33",
",#	c #60534A",
"'#	c #605B58",
")#	c #C4946F",
"!#	c #F6DFCF",
"~#	c #D3C9C7",
"{#	c #F38C8C",
"]#	c #FF9090",
"^#	c #FC8080",
"/#	c #C3908E",
"(#	c #F7E2D1",
"_#	c #E8A156",
":#	c #B0743B",
"<#	c #A56E3E",
"[#	c #EC962F",
"}#	c #F9EFE7",
"|#	c #F6E8E5",
"1#	c #C7BAB5",
"2#	c #1C1815",
"3#	c #69645E",
"4#	c #F3EDE7",
"5#	c #F5C79D",
"6#	c #EA9633",
"7#	c #EB9D4F",
"8#	c #D2CCC9",
"9#	c #A78280",
"0#	c #CBBEBC",
"a#	c #F2EFEC",
"b#	c #F9F2EB",
"c#	c #F5D8C2",
"d#	c #F3C9AB",
"e#	c #F4D2B8",
"f#	c #F9F4F1",
"g#	c #B9ADA8",
"h#	c #0B0907",
"i#	c #8C8781",
"j#	c #F8F3F0",
"k#	c #F6F2EF",
"l#	c #868482",
"m#	c #C6C2C0",
"n#	c #F8F0ED",
"o#	c #F0E2DE",
"p#	c #9B908C",
"q#	c #968D89",
"r#	c #F5EAE6",
"s#	c #F8F1ED",
"t#	c #D0CCCA",
"u#	c #E3E0DD",
"v#	c #D9D5D3",
"w#	c #D6D3D0",
"x#	c #F7EEEB",
"y#	c #D5C8C3",
"z#	c #665E5A",
"A#	c #867D79",
"B#	c #EBDDD8",
"C#	c #F8EFEB",
"D#	c #F1E3DE",
"E#	c #CBBFBA",
"F#	c #807773",
"G#	c #4B4540",
"H#	c #B8ACA8",
"I#	c #F5E7E2",
"J#	c #E7D9D4",
"K#	c #D7CAC5",
"L#	c #BAAEA9",
"M#	c #8E8480",
"N#	c #35302D",
"O#	c #756D68",
"P#	c #A39893",
"Q#	c #B8ADA8",
"R#	c #BDB1AB",
"S#	c #BCB0AA",
"T#	c #B4A8A2",
"U#	c #A49A96",
"V#	c #8E847E",
"W#	c #6E6662",
"X#	c #4D3C2E",
"Y#	c #1B0E00",
"Z#	c #211303",
"`#	c #BCA38F",
" $	c #CAC6C4",
".$	c #D3CFCD",
"+$	c #DFC5AF",
"@$	c #E79B3C",
"#$	c #ED9D3A",
"$$	c #B57B22",
"%$	c #9D7752",
"&$	c #F9F2EC",
"*$	c #F0B070",
"=$	c #E9952E",
"-$	c #EFA236",
";$	c #BE831A",
">$	c #352202",
",$	c #050301",
"'$	c #E2CAB7",
")$	c #F5D4BB",
"!$	c #D48E36",
"~$	c #B6711F",
"{$	c #E9932C",
"]$	c #D69520",
"^$	c #342102",
"/$	c #704C1F",
"($	c #F9EFE6",
"_$	c #AC6B1D",
":$	c #ED9832",
"<$	c #C38817",
"[$	c #A7A196",
"}$	c #46433F",
"|$	c #683E09",
"1$	c #B66E17",
"2$	c #B09073",
"3$	c #EFA855",
"4$	c #C27F2C",
"5$	c #D4821F",
"6$	c #F3A633",
"7$	c #734F05",
"8$	c #BEB9B3",
"9$	c #E2DDD9",
"0$	c #46423E",
"a$	c #2E2925",
"b$	c #B37D52",
"c$	c #E9932B",
"d$	c #BF7D2B",
"e$	c #D7BCA6",
"f$	c #F1B884",
"g$	c #E69532",
"h$	c #A16113",
"i$	c #BE8412",
"j$	c #B2AEA7",
"k$	c #BCB6B2",
"l$	c #938883",
"m$	c #F2CEB3",
"n$	c #A26C28",
"o$	c #EAD0BD",
"p$	c #78480E",
"q$	c #ED9830",
"r$	c #EEA346",
"s$	c #D1AD85",
"t$	c #C6AC8F",
"u$	c #EBE2DC",
"v$	c #655D58",
"w$	c #F3ECE6",
"x$	c #F3B266",
"y$	c #9B6A1A",
"z$	c #F6D8C1",
"A$	c #F2C093",
"B$	c #EC9730",
"C$	c #5F3808",
"D$	c #DEB79E",
"E$	c #F8ECE3",
"F$	c #A8A5A1",
"G$	c #E59C33",
"H$	c #F2CFB6",
"I$	c #686663",
"J$	c #94836E",
"K$	c #342204",
"L$	c #F1C8A6",
"M$	c #F0B06F",
"N$	c #EC9225",
"O$	c #685F5C",
"P$	c #8C7B71",
"Q$	c #BE7F2F",
"R$	c #D6862D",
"S$	c #D89246",
"T$	c #F8ECE2",
"U$	c #ED9831",
"V$	c #E68C1E",
"W$	c #9A681E",
"X$	c #EA9F35",
"Y$	c #EB9E3D",
"Z$	c #EE9D3A",
"`$	c #925710",
" %	c #ED9F54",
".%	c #F5D6BF",
"+%	c #F8ECE1",
"@%	c #F8EADE",
"#%	c #C7BBB0",
"$%	c #CD8C41",
"%%	c #ED9F3C",
"&%	c #E89128",
"*%	c #B06A16",
"=%	c #CF8428",
"-%	c #EC972F",
";%	c #C87A1A",
">%	c #170B01",
",%	c #A46314",
"'%	c #E98E1F",
")%	c #B8721D",
"!%	c #BC7621",
"~%	c #DB962A",
"{%	c #382004",
"]%	c #CC7C1B",
"^%	c #351D03",
"/%	c #A7750A",
"(%	c #7F5110",
"_%	c #AE6915",
":%	c #975B12",
"<%	c #ECA612",
"[%	c #77470C",
"}%	c #86500F",
"|%	c #4D2D06",
"1%	c #E09E10",
"2%	c #F4A92C",
"3%	c #87581F",
"4%	c #E08C27",
"5%	c #FBB021",
"6%	c #DC9B10",
"7%	c #D99910",
"8%	c #F0A81B",
"9%	c #A06114",
"0%	c #ED9B35",
"a%	c #BE850D",
"b%	c #C88C0E",
"c%	c #BE850C",
"d%	c #D8851F",
"e%	c #F7AB2B",
"f%	c #906408",
"g%	c #AB770A",
"h%	c #966211",
"i%	c #FDB21B",
"j%	c #F4AC13",
"k%	c #231501",
"l%	c #6A4906",
"m%	c #AA988D",
"n%	c #EDA059",
"o%	c #F1A339",
"p%	c #C58A0D",
"q%	c #1F1301",
"r%	c #887C75",
"s%	c #F4DFD5",
"t%	c #F0B687",
"u%	c #F1A43C",
"v%	c #7D5607",
"w%	c #8D6B37",
"x%	c #AFA49F",
"y%	c #F2E4DF",
"z%	c #D2BEAD",
"A%	c #867E7C",
"B%	c #CBBFBB",
"C%	c #8F8682",
"D%	c #7D7470",
"E%	c #27211C",
"F%	c #4B4440",
"G%	c #645C57",
"H%	c #211B16",
"                                                                                                                                ",
"                                                                                                                                ",
"                                                  .                                 +                                           ",
"                                                @ # $                             % & *                                         ",
"                                                = - ; >                           , ' ) !                                       ",
"                                                ~ { ] ^ /                       ( _ ] : <                                       ",
"                                              [ } | 1 2 3 4                   4 5 ] ] ] 6                                       ",
"                                              = 7 8 9 ] 0 a b               c d 0 e f ] g h                                     ",
"                                              i j k l m ] n o               p q r s t ] u v                                     ",
"                                              w x y z A ] ] B C           D E ] F G H ] I J                                     ",
"                                            K L M N z O P ] Q R           S T U V z N W X Y Z                                   ",
"                                            `  ...z z z +.] ] @.#.        $.] %.&.z z *.] =.-.                                  ",
"                                            ;.>.8 z z z ,.'.] ).!.  ~.~.~.{.].^.y z z /.] (._.                                  ",
"                                            :.<.[.z z z z }.|.1.2.3.4.5.6.' 7.M N z z 8.] 9.0.                                  ",
"                                            a.b.c.z z d.e.f.g.h.i.] ] ] j.i.k.l.z z z m.] g n.                                  ",
"                                            o.p.q.z r.s.t.u.n ] ] ] ] ] ] v.w.[.z z z x.] y.z.                                  ",
"                                            A.B.&.C.D.E.F.0 ] ] ] ] ] ] ] G.M H.z z z I.] y.J.                                  ",
"                                            A.K.L.M.N.F.v.] ] ] ] ] ] ] ] O.P...z z z Q.] y.R.~.                                ",
"                                            o.S.T.U.V.0 ] ] ] ] ] ] ] ] ] ] W.M X.z z Y.] Z.Y ~.                                ",
"                                            `. +.+++@+] ] ] ] ] ] ] ] ] ] ] ] #+$+z z %+] &+*+~.                                ",
"                                            =+-+;+>+] ] ] ] ] ] ] ] ] ] ] ] ] ,+'+k z )+] !+~+                                  ",
"                                            ~.{+]+^+] ] ] ] ] ] ] ] ] ] ] ] ] ] /+(+y _+X :+<+                                  ",
"                                            [+}+|+] ] ] ] ] ] ] ] ] ] ] ] ] ] ] ] ] 1+2+I 3+4+                                  ",
"                                            5+6+7+8+] ] ] ] ] ] ] ] ] ] 9+0+a+b+c+] ] ] d+e+f+g+                                ",
"                                          h+i+z z j+k+] 9+] l+] m+] ] ] n+z z o+p+] ] ] ] y.:+q+                                ",
"                                          r+s+t+z z Q.] u+v+w+x+y+] ] z+A+N B+C+] ] ] ] ] I :+D+                                ",
"                                          E+F+9+G+H+I+] J+z z z K+L+] ] M+N+] ] ] ] ] ] ] z+O+P+~.                              ",
"                                        ~.Q+R+S+T+] ] ] U+z z z z k+] ] ] - Z.V+W+I ] ] ] ] X+Y+Z+`+                            ",
"                                      ~. @.@+@@@#@$@] ] %@z z z z &@] ] z+*@=@-@;@>@: ] ] ] ] ,@z '@)@~.                        ",
"                                    ~.!@~@{@]@^@/@(@_@:@<@z z z z [@}@] |@1@2@3@4@5@6@] ] ] 7@z z z 8@                          ",
"                                      9@0@a@b@2@c@d@e@f@z z z z z z g@] h@i@2@j@k@l@(.] ] m@n@z z o@p@                          ",
"                                      q@r@s@t@u@v@w@x@y@z@A@B@C@z z D@m@E@v@F@G@H@I@J@] K@H z z z N L@~.                        ",
"                                    ~.M@j+N@O@P@Q@R@S@T@U@V@W@X@z z z Y@Z@`@ #.#+#@###$#%#z z N k &#*#                          ",
"                                      =#-#;#>#,#'#)#!#~#{#]#^#/#z z z z (#_#:#<#5@[#u+}#z N k |#1#2#                            ",
"                                        3#4#5#6#7#m.z d.8#9#0#a#z z z z z b#c#d#e#%+z f#&...M g#h#                              ",
"                                          i#j#K+<@z z z k#l#m#d.z z z z z z z z N n#$+M M o#p#~.                                ",
"                                            q#r#s#f#z z t#u#v#w#z z z z N y x#$+M M M M y#z#                                    ",
"                                              A#B#M 8 [.q.x#C#C#x#q.[.8 M M M M M D#E#F#~.                                      ",
"                                                G#H#B#M M M M M M M M M I#J#K#L#M#N#~.                                          ",
"                                                    *#O#P#Q#R#S#T#U#V#W#X#Y#~.                                                  ",
"                                                            Z#`# $.$+$@$#$$$                                                    ",
"                                                            %$&$z z <@*$=$X+-$;$>$                                              ",
"                                                          ,$'$z z z z )$!$~${$^+]$^$~.                                          ",
"                                                          /$($z z z z B+] @$_$:$v.<$~.[$}$                                      ",
"                                                      |$1$2$z z z z z o+3$] 4$5$] 6$7$8$9$0$                                    ",
"                                                  a$b$c$d$e$z z z z z z f$] g$h$I z+i$j$z k$                                    ",
"                                                  l$m$] n$o$z z z z z z u+] u p$q$r$s$t$%+u$~.                                  ",
"                                                  v$w$x$y$z$z z z z z z A$] B$C$D$E$F$G$1 H$~.                                  ",
"                                                    I$J$K$L$z z z z z z M$] N$` O$P$Q$] T+R$                                    ",
"                                                          S$T$z z z z y@] U$V$W$X$Y$] Z$V+`.                                    ",
"                                                          `$ %.%+%@%#%$%%%&%*%=%S+S+-%O+;%>%                                    ",
"                                                            ,%'%>@)%!%z+] ~%{%]%:+:+'%1$^%                                      ",
"                                                            /%(%_%:%I ] n <%    [%}%|%                                          ",
"                                                            1%2%3%4%] ] 5%6%                                                    ",
"                                                            7%8%9%0%] i.++a%                                                    ",
"                                                            b%c%d%z+] e%++f%                                                    ",
"                                                            g%h%9.] ] i%j%k%                                                    ",
"                                                            l%m%n%] o%++p%                                                      ",
"                                                            q%r%s%t%u%++v%                                                      ",
"                                                              w%x%y%x z%                                                        ",
"                                                              A%B%C%D%E%                                                        ",
"                                                                F%G%H%                                                          ",
"                                                                                                                                ",
"                                                                                                                                "};
