/* XPM */
static char * ewl7_xpm[] = {
"64 64 634 2",
"  	c None",
". 	c #080400",
"+ 	c #231601",
"@ 	c #765006",
"# 	c #5F3807",
"$ 	c #DB9911",
"% 	c #583B03",
"& 	c #C98D0E",
"* 	c #EEA124",
"= 	c #533105",
"- 	c #B06E1C",
"; 	c #F3A635",
"> 	c #EDA716",
", 	c #734F05",
"' 	c #B37D0C",
") 	c #F8AC2A",
"! 	c #EEA03D",
"~ 	c #AF6B18",
"{ 	c #DB9246",
"] 	c #EEA03E",
"^ 	c #F1A339",
"/ 	c #F3AB1A",
"( 	c #7D5606",
"_ 	c #946708",
": 	c #F9AD25",
"< 	c #E3902A",
"[ 	c #2F1B02",
"} 	c #5C3707",
"| 	c #F1C5AB",
"1 	c #F1C29D",
"2 	c #F0A23A",
"3 	c #F4AB1C",
"4 	c #795306",
"5 	c #634404",
"6 	c #F3AA1D",
"7 	c #EFA13C",
"8 	c #ED9932",
"9 	c #8B540E",
"0 	c #8F560F",
"a 	c #F2D1BE",
"b 	c #F5E7E2",
"c 	c #F0B681",
"d 	c #F0A23B",
"e 	c #EFA71B",
"f 	c #5D3F04",
"g 	c #D89812",
"h 	c #F1A438",
"i 	c #EFAC67",
"j 	c #F4D4BA",
"k 	c #ED9C38",
"l 	c #BA7117",
"m 	c #A56413",
"n 	c #F3D6C8",
"o 	c #F7EEEA",
"p 	c #F7E8DF",
"q 	c #EFA758",
"r 	c #DD9B15",
"s 	c #966808",
"t 	c #F7AA2D",
"u 	c #EEA246",
"v 	c #F5DED1",
"w 	c #F9F2EB",
"x 	c #EEA142",
"y 	c #EE9F3D",
"z 	c #D9841D",
"A 	c #B86F16",
"B 	c #F3D9CB",
"C 	c #F8F0ED",
"D 	c #FAF6F3",
"E 	c #F4D7C3",
"F 	c #F4A733",
"G 	c #A5730A",
"H 	c #E39F1A",
"I 	c #EEA13D",
"J 	c #F2C7A7",
"K 	c #F8F0EC",
"L 	c #F0B377",
"M 	c #EC9124",
"N 	c #573307",
"O 	c #C47719",
"P 	c #F3DACE",
"Q 	c #F8F1EE",
"R 	c #FAF5F1",
"S 	c #F1BB8D",
"T 	c #ECA423",
"U 	c #271901",
"V 	c #855C07",
"W 	c #F5A931",
"X 	c #EFA85A",
"Y 	c #F5E5DE",
"Z 	c #FAF5F2",
"` 	c #F2C49C",
" .	c #EC9329",
"..	c #8C540F",
"+.	c #D17F1B",
"@.	c #F4DBCE",
"#.	c #F9F2EE",
"$.	c #F8EBE2",
"%.	c #EEA34A",
"&.	c #F2A438",
"*.	c #9D6D09",
"=.	c #BF8510",
"-.	c #F2C9AC",
";.	c #F7ECE8",
">.	c #F4D2B7",
",.	c #EC952C",
"'.	c #A66414",
").	c #D7831C",
"!.	c #F3DACD",
"~.	c #F9F2EF",
"{.	c #F3CDAE",
"].	c #BF841C",
"^.	c #000000",
"/.	c #DE9924",
"(.	c #F4E2D9",
"_.	c #F8F1ED",
":.	c #F6DAC5",
"<.	c #EC972F",
"[.	c #BE7318",
"}.	c #D9841C",
"|.	c #F3D8CB",
"1.	c #F9F1EC",
"2.	c #D69651",
"3.	c #81551E",
"4.	c #775206",
"5.	c #C18715",
"6.	c #DA952A",
"7.	c #E59835",
"8.	c #EA9733",
"9.	c #B27021",
"0.	c #E9A02F",
"a.	c #F0B888",
"b.	c #F5E7E3",
"c.	c #F9F4F1",
"d.	c #F7E3D3",
"e.	c #ED9831",
"f.	c #CE7D1B",
"g.	c #DA841D",
"h.	c #F7F3F0",
"i.	c #A9A6A4",
"j.	c #795514",
"k.	c #DF9D13",
"l.	c #F6AA2E",
"m.	c #EFA13D",
"n.	c #EC9E3D",
"o.	c #E99E37",
"p.	c #F3D0B8",
"q.	c #F5E8E4",
"r.	c #F8E9DD",
"s.	c #ED9832",
"t.	c #DC861D",
"u.	c #D8831C",
"v.	c #F2D3C2",
"w.	c #F0ECE9",
"x.	c #7C7A79",
"y.	c #B7800C",
"z.	c #FAAF1E",
"A.	c #EDA03F",
"B.	c #F4E1D8",
"C.	c #F6E9E5",
"D.	c #F8EBE1",
"E.	c #E68C1F",
"F.	c #D3801B",
"G.	c #F2CDB8",
"H.	c #F1EDEB",
"I.	c #74706C",
"J.	c #D3940F",
"K.	c #FBAF22",
"L.	c #ECA453",
"M.	c #F9EDE4",
"N.	c #E88E1F",
"O.	c #080502",
"P.	c #C6781A",
"Q.	c #F1C6AC",
"R.	c #F5EDEA",
"S.	c #807D7B",
"T.	c #D2940F",
"U.	c #FBB021",
"V.	c #F3D3BE",
"W.	c #EC9730",
"X.	c #EA8E1F",
"Y.	c #010201",
"Z.	c #B97017",
"`.	c #F0BE9F",
" +	c #A39C99",
".+	c #BF860D",
"++	c #FDB21A",
"@+	c #EFA960",
"#+	c #F5E3DC",
"$+	c #F8EFEB",
"%+	c #F8ECE2",
"&+	c #130A02",
"*+	c #A56414",
"=+	c #CD8F5D",
"-+	c #8C620A",
";+	c #FFB413",
">+	c #F2A536",
",+	c #F0B989",
"'+	c #F5E8E3",
")+	c #F8E8DD",
"!+	c #EC9328",
"~+	c #E38A1E",
"{+	c #814D0E",
"]+	c #6A4108",
"^+	c #EFA912",
"/+	c #F8AC29",
"(+	c #F1C099",
"_+	c #F7E2D1",
":+	c #EB9022",
"<+	c #D3811C",
"[+	c #010100",
"}+	c #BA820C",
"|+	c #FEB317",
"1+	c #EFA23B",
"2+	c #F0BB8D",
"3+	c #F8ECE6",
"4+	c #F5D7C0",
"5+	c #EE9E3B",
"6+	c #EB8F1F",
"7+	c #B66E16",
"8+	c #483003",
"9+	c #F9AF13",
"0+	c #F7AB2C",
"a+	c #EEA345",
"b+	c #EFA753",
"c+	c #EFAA60",
"d+	c #F0B57D",
"e+	c #ED9B35",
"f+	c #DA851D",
"g+	c #76460C",
"h+	c #B17C0B",
"i+	c #FEC167",
"j+	c #F3BA7F",
"k+	c #EFA44A",
"l+	c #EFA652",
"m+	c #F5D8C2",
"n+	c #FAF3ED",
"o+	c #FAF6F2",
"p+	c #D68728",
"q+	c #D7821C",
"r+	c #6A3E0A",
"s+	c #EABE86",
"t+	c #F9F2EC",
"u+	c #F3C59E",
"v+	c #EEA141",
"w+	c #EFAC64",
"x+	c #EFAB61",
"y+	c #F6DDCA",
"z+	c #ED9B37",
"A+	c #B56E16",
"B+	c #714E05",
"C+	c #FFBA42",
"D+	c #FAE9D9",
"E+	c #EEA140",
"F+	c #F1B57A",
"G+	c #F5D5B9",
"H+	c #FAF4F0",
"I+	c #F5D7BE",
"J+	c #F8ECE1",
"K+	c #F4CCAA",
"L+	c #F7E3D4",
"M+	c #F5D6BD",
"N+	c #F0AD68",
"O+	c #EB9021",
"P+	c #DE871D",
"Q+	c #0D0501",
"R+	c #AF7A0B",
"S+	c #F0A33E",
"T+	c #F1BA86",
"U+	c #F3C9A6",
"V+	c #F1B67C",
"W+	c #F2C195",
"X+	c #F1B57B",
"Y+	c #EE9D39",
"Z+	c #EB8F1E",
"`+	c #9A8C81",
" @	c #D6960F",
".@	c #F3CCAB",
"+@	c #F4D3B8",
"@@	c #EE9D3A",
"#@	c #E89025",
"$@	c #DE8926",
"%@	c #EA8F1F",
"&@	c #EC9429",
"*@	c #F1BD91",
"=@	c #D0CAC5",
"-@	c #55504A",
";@	c #4B4740",
">@	c #F0AB21",
",@	c #F39F1C",
"'@	c #DD8827",
")@	c #CB8030",
"!@	c #E5902A",
"~@	c #EE9F3C",
"{@	c #F9EEE5",
"]@	c #EEA243",
"^@	c #DF9551",
"/@	c #D4CCC8",
"(@	c #818181",
"_@	c #79573B",
":@	c #E18A25",
"<@	c #EC962E",
"[@	c #EEA244",
"}@	c #F8EADF",
"|@	c #D9D3CE",
"1@	c #6F6A64",
"2@	c #EAE0D3",
"3@	c #F5A524",
"4@	c #D99E72",
"5@	c #E3E3E2",
"6@	c #8E8E8E",
"7@	c #624C3C",
"8@	c #DF9033",
"9@	c #F2C399",
"0@	c #ED9D39",
"a@	c #C9B6AB",
"b@	c #FFFFFF",
"c@	c #D1D1D1",
"d@	c #2A2A2A",
"e@	c #A36B36",
"f@	c #F4CFB0",
"g@	c #8F8881",
"h@	c #928D86",
"i@	c #FAECDC",
"j@	c #F09A21",
"k@	c #C4BCB7",
"l@	c #CCCCCC",
"m@	c #282828",
"n@	c #A36C37",
"o@	c #F8EAE0",
"p@	c #EE9C37",
"q@	c #75716E",
"r@	c #DFDFDF",
"s@	c #939393",
"t@	c #1A1A1A",
"u@	c #7B5639",
"v@	c #F1B883",
"w@	c #E2DDD8",
"x@	c #0A0603",
"y@	c #3C3831",
"z@	c #ECE1D4",
"A@	c #EB9920",
"B@	c #605F5D",
"C@	c #C7C7C7",
"D@	c #6C6C6C",
"E@	c #343434",
"F@	c #8B5F38",
"G@	c #EDE9E7",
"H@	c #C9C1BF",
"I@	c #CBC2C0",
"J@	c #E7E3E0",
"K@	c #775841",
"L@	c #111111",
"M@	c #0C0C0C",
"N@	c #E5E5E5",
"O@	c #A87D5E",
"P@	c #EB9124",
"Q@	c #F0B274",
"R@	c #F9F1EA",
"S@	c #F6EDEA",
"T@	c #8D8480",
"U@	c #A09B94",
"V@	c #F0AE71",
"W@	c #7A5B43",
"X@	c #1B1B1B",
"Y@	c #353535",
"Z@	c #F9F9F9",
"`@	c #B68255",
" #	c #EFE0D5",
".#	c #CE9E9E",
"+#	c #FEBFBF",
"@#	c #FFA0A0",
"##	c #CE7978",
"$#	c #F1EDEA",
"%#	c #F2C092",
"&#	c #CF8839",
"*#	c #554D48",
"=#	c #444444",
"-#	c #B5ADA8",
";#	c #DD8A32",
">#	c #ED9933",
",#	c #F1B986",
"'#	c #F9F0E9",
")#	c #F4E7E3",
"!#	c #948A85",
"~#	c #0B0600",
"{#	c #D5CFCA",
"]#	c #F9E0C8",
"^#	c #D6872C",
"/#	c #6A5648",
"(#	c #4B4B4A",
"_#	c #AE9383",
":#	c #EDC3A3",
"<#	c #EDE9E6",
"[#	c #D67F7F",
"}#	c #FF8E8E",
"|#	c #FE8181",
"1#	c #C77070",
"2#	c #F4F0ED",
"3#	c #FAF5F0",
"4#	c #F4D0B2",
"5#	c #E39849",
"6#	c #CE8330",
"7#	c #E58E26",
"8#	c #EEA760",
"9#	c #F6E9E6",
"0#	c #F3E5E0",
"a#	c #938985",
"b#	c #46413A",
"c#	c #E6E1DC",
"d#	c #F8D4B2",
"e#	c #EB983A",
"f#	c #E1902F",
"g#	c #B4A9A7",
"h#	c #AFA7A5",
"i#	c #EFECE9",
"j#	c #FAF4EF",
"k#	c #F8E9DC",
"l#	c #F9ECE2",
"m#	c #EEE0DC",
"n#	c #867D79",
"o#	c #645F59",
"p#	c #EFEAE6",
"q#	c #F9EFE7",
"r#	c #B3B1AE",
"s#	c #888684",
"t#	c #E7E4E1",
"u#	c #DFD1CD",
"v#	c #665E5A",
"w#	c #6D6763",
"x#	c #ECE2DD",
"y#	c #F9F3F0",
"z#	c #E4E0DE",
"A#	c #DCD9D6",
"B#	c #D7D4D1",
"C#	c #F3EFEC",
"D#	c #F6EBE7",
"E#	c #EBDDD9",
"F#	c #A79D98",
"G#	c #1C1916",
"H#	c #5C5652",
"I#	c #D9CCC7",
"J#	c #F6EAE6",
"K#	c #F6EBE8",
"L#	c #F7ECE9",
"M#	c #F7EDE9",
"N#	c #D3C7C2",
"O#	c #9F9490",
"P#	c #3A3431",
"Q#	c #13100D",
"R#	c #9C928D",
"S#	c #DCCFCA",
"T#	c #E1D3CE",
"U#	c #CEC1BD",
"V#	c #B2A6A1",
"W#	c #887E7A",
"X#	c #37302A",
"Y#	c #534C47",
"Z#	c #8A817B",
"`#	c #A19691",
" $	c #AA9F9A",
".$	c #AB9F98",
"+$	c #9E928B",
"@$	c #807773",
"#$	c #655B54",
"$$	c #503202",
"%$	c #7F531C",
"&$	c #664316",
"*$	c #BDA189",
"=$	c #DAD6D4",
"-$	c #F4EBE4",
";$	c #EFA757",
">$	c #D68F2E",
",$	c #B37C18",
"'$	c #734F06",
")$	c #825E37",
"!$	c #F9EEE6",
"~$	c #EC9C39",
"{$	c #EC952D",
"]$	c #F1A435",
"^$	c #C6891B",
"/$	c #462E03",
"($	c #221302",
"_$	c #8D5510",
":$	c #9B5D12",
"<$	c #D4BAA4",
"[$	c #F8EBE0",
"}$	c #EA9E3D",
"|$	c #B97A2B",
"1$	c #BF751C",
"2$	c #E39D24",
"3$	c #483103",
"4$	c #26221D",
"5$	c #201C1A",
"6$	c #AE9282",
"7$	c #D07F1D",
"8$	c #E69027",
"9$	c #8A591E",
"0$	c #F7E8DB",
"a$	c #EFAB5F",
"b$	c #D08930",
"c$	c #AB6715",
"d$	c #ED9A35",
"e$	c #DA981E",
"f$	c #9C9894",
"g$	c #797571",
"h$	c #796F6A",
"i$	c #F4DDCF",
"j$	c #E4993B",
"k$	c #A27B56",
"l$	c #F1BC8D",
"m$	c #EC9A36",
"n$	c #2E1903",
"o$	c #D98722",
"p$	c #F2A537",
"q$	c #9B743F",
"r$	c #EBE7E3",
"s$	c #5A5753",
"t$	c #3E3834",
"u$	c #F1EAE4",
"v$	c #F0A647",
"w$	c #C98A21",
"x$	c #CAAC93",
"y$	c #F3C8A3",
"z$	c #ED9C37",
"A$	c #663D0A",
"B$	c #9D5F12",
"C$	c #C59B66",
"D$	c #E4E0DD",
"E$	c #B5AAA4",
"F$	c #706E6A",
"G$	c #A8834E",
"H$	c #916508",
"I$	c #130A00",
"J$	c #E1C5AE",
"K$	c #F4CCAC",
"L$	c #86500F",
"M$	c #422605",
"N$	c #E8A46A",
"O$	c #F6DBC6",
"P$	c #B9B7B5",
"Q$	c #E1AC79",
"R$	c #CDB7A8",
"S$	c #EDCBAF",
"T$	c #F3C9A5",
"U$	c #87510E",
"V$	c #998D89",
"W$	c #BDB1AC",
"X$	c #9C6E3D",
"Y$	c #ED9B36",
"Z$	c #BE782F",
"`$	c #E2AE7D",
" %	c #EC9327",
".%	c #814F0E",
"+%	c #BC8218",
"@%	c #C9882D",
"#%	c #C98733",
"$%	c #ED9E3C",
"%%	c #EC9125",
"&%	c #935811",
"*%	c #C07820",
"=%	c #F5D5BC",
"-%	c #E0DDDA",
";%	c #A59E9A",
">%	c #C5A58C",
",%	c #E68C1E",
"'%	c #986521",
")%	c #D6821C",
"!%	c #261402",
"~%	c #653B09",
"{%	c #E48C20",
"]%	c #F0B78A",
"^%	c #B4AAA3",
"/%	c #9F611E",
"(%	c #E59431",
"_%	c #E9932B",
":%	c #AF6A15",
"<%	c #CD8022",
"[%	c #EC952B",
"}%	c #EB9020",
"|%	c #75450B",
"1%	c #925710",
"2%	c #C3771A",
"3%	c #BC8020",
"4%	c #AE6916",
"5%	c #DB851D",
"6%	c #B56E17",
"7%	c #502E06",
"8%	c #361E03",
"9%	c #CC7C1B",
"0%	c #F5A832",
"a%	c #FFB414",
"b%	c #8C6108",
"c%	c #C4771A",
"d%	c #F4A832",
"e%	c #D99910",
"f%	c #9C918C",
"g%	c #EDA05B",
"h%	c #F3A536",
"i%	c #F6AE13",
"j%	c #8C590D",
"k%	c #613808",
"l%	c #ACA19D",
"m%	c #F1C4A8",
"n%	c #FEB219",
"o%	c #FDB213",
"p%	c #986911",
"q%	c #DE9133",
"r%	c #776E6A",
"s%	c #F4E5DF",
"t%	c #F0B683",
"u%	c #AA760D",
"v%	c #CE8A35",
"w%	c #EB9225",
"x%	c #846A56",
"y%	c #ACA09B",
"z%	c #F8CFA9",
"A%	c #B37F19",
"B%	c #D09210",
"C%	c #EFB184",
"D%	c #ADA39F",
"E%	c #706865",
"F%	c #7C7471",
"G%	c #7E5706",
"H%	c #F0B582",
"I%	c #F4E2DB",
"J%	c #847A75",
"K%	c #C9A274",
"L%	c #F5D9C6",
"M%	c #F4E6E1",
"N%	c #AEA39F",
"O%	c #3F3832",
"P%	c #8A817D",
"Q%	c #6D6561",
"                                                                                                                                ",
"                                                                                                                                ",
"                                                .                                   + @                                         ",
"                                              # $ %                                 & * =                                       ",
"                                              - ; > ,                             ' ) ! ~                                       ",
"                                              { ] ^ / (                         _ : ] ] < [                                     ",
"                                            } | 1 ] 2 3 4                     5 6 7 ] ] 8 9                                     ",
"                                            0 a b c ] d e f                   g h i j ] k l                                     ",
"                                            m n o p q ] ^ r                 s t u v w x y z                                     ",
"                                            A B C D E ] ] F G               H I J K D L ] M N                                   ",
"                                            O P Q D R S ] ] T U           V W X Y Z D ` ]  ...                                  ",
"                                            +.@.#.D D $.%.] &.*.          =.7 -.;.D D >.] ,.'.                                  ",
"                                            ).!.~.D D D {.] ] ].^.^.^.^.^./.x (._.D D :.] <.[.                                  ",
"                                            }.|.~.D D D 1.2.3.4.5.6.7.8.9.0.a.b.c.D D d.] e.f.                                  ",
"                                            g.n ~.D D h.i.j.k.l.m.] ] ] n.o.p.q.D D D r.] s.t.                                  ",
"                                            u.v.#.D w.x.y.z.^ ] ] ] ] ] ] A.B.C.D D D D.] s.E.^.                                ",
"                                            F.G.Q H.I.J.K.7 ] ] ] ] ] ] ] L.b.q.D D D M.! e.N.O.                                ",
"                                            P.Q.R.S.T.U.m.] ] ] ] ] ] ] ] ] V.b.c.D D M.! W.X.Y.                                ",
"                                            Z.`. +.+++d ] ] ] ] ] ] ] ] ] ] @+#+$+D D %+! ,.N.&+                                ",
"                                            *+=+-+;+>+] ] ] ] ] ] ] ] ] ] ] ] ,+'+Z D )+] !+~+^.                                ",
"                                            {+]+^+/+] ] ] ] ] ] ] ] ] ] ] ] ] ] (+;.D _+] :+<+                                  ",
"                                            [+}+|+1+] ] ] ] ] ] ] ] ] ] ] ] ] ] ] 2+3+4+5+6+7+                                  ",
"                                            8+9+0+] ] ] ] ] ] ] ] ] ] ] ] ] a+b+] ] c+d+e+f+g+^.                                ",
"                                            h+i+j+k+] ] ] ] ] ] ] ] ] ] l+m+n+o+` ] ] ] ] p+q+r+                                ",
"                                          ^.s+D D t+u+] v+] w+] x+] ] ] y+D D t+L ] ] ] ] z+6+A+                                ",
"                                          B+C+D+D D t+E+F+G+H+I+J+E+] ] K+L+M+N+] ] ] ] ] ! O+P+Q+                              ",
"                                          R+;+S+T+U+V+] W+D D D D X+] ] ] ] y k Y+] ] ] ] ] <.Z+`+^.                            ",
"                                           @++5+Y+] ] ] .@D D D D +@] ] ] @@#@$@%@&@y ] ] ] ] *@D =@-@                          ",
"                                        ;@>@,@'@)@!@~@] :.D D D D {@]@] ] ^@/@(@_@:@<@] ] ] [@}@D D |@^.                        ",
"                                      1@2@3@4@5@6@7@8@] }@D D D D D 9@] 0@a@b@c@d@e@O+] ] ] f@D D D g@                          ",
"                                      h@i@j@k@b@l@m@n@x+o+D D D D D o@[@p@q@r@s@t@u@6+y ] v@H+D D D w@x@                        ",
"                                      y@z@A@B@C@D@E@F@U+G@H@I@J@D D D f@5+K@L@M@N@O@P@] Q@R@D D D S@T@                          ",
"                                      U@D V@W@X@Y@Z@`@ #.#+#@###$#D D R %#&#*#=#-#;#>#,#'#D D _.)#!#                            ",
"                                      ~#{#]#^#/#(#_#:#<#[#}#|#1#2#D D D 3#4#5#6#7#8#I+R D C 9#0#a#                              ",
"                                        b#c#d#e#f#(+H+D J@g#h#i#D D D D D D j#k#l#o+R $+C.b.m#n#                                ",
"                                          o#p#t+q#D D D D r#s#t#D D D D D D D Z _.;.b.b.b.u#v#                                  ",
"                                            w#x#K y#D D z#A#H.B#C#D D Z ~.$+D#b.b.b.b.E#F#G#                                    ",
"                                              H#I#b.q.J#K#L#M#M#;.J#C.b.b.b.b.b.0#N#O#P#                                        ",
"                                                Q#R#S#b b.b.b.b.b.b.b.b T#U#V#W#X#^.                                            ",
"                                                    ^.Y#Z#`# $.$+$@$#$$$%$&$                                                    ",
"                                                            ^.*$=$J@-$;$] >$,$'$                                                ",
"                                                            )$!$D D D 4#~${$0@]$^$/$                                            ",
"                                                      ($_$:$<$D D D D [$}$|$1$W.m.2$3$4$                                        ",
"                                                5$6$7$8$e.9$0$D D D D o+a$] b$c$d$m.e$f$g$                                      ",
"                                                h$i$] ] j$k$D D D D D D l$] m$n$o$] p$q$r$s$                                    ",
"                                                t$u$v$; w$x$D D D D D D y$] z$A$B$z+] C$D$E$                                    ",
"                                                  F$G$H$I$J$D D D D D D K$] z$L$M$N$O$P$Q$R$                                    ",
"                                                        ^.S$D D D D D D T$] >#U$  V$W$X$Y$Z$                                    ",
"                                                        ^.`$D D D D D D L ]  %.%+%@%#%$%%%&%                                    ",
"                                                          *%=%D D -%;%>%n.e.,%'%I ] 5+ %)%!%                                    ",
"                                                          ~%{%]%^%/%(%] ] _%:%<%<@[%}%P+~%                                      ",
"                                                            |%1%2%Y$] ] p$3%!%4%).5%6%7%                                        ",
"                                                            8%9%z+] ] 0%a%b%      ^.                                            ",
"                                                            c%>#] ] d%;+e%                                                      ",
"                                                          f%g%] ] h%a%i%j%k%                                                    ",
"                                                          l%m%! d n%o%p%q%O                                                     ",
"                                                          r%s%t%) ;+u%v%] w%x%                                                  ",
"                                                            y%s%z%A%B%d ] C%D%                                                  ",
"                                                              E%F%G%;+d%H%I%J%                                                  ",
"                                                                    K%L%M%N%                                                    ",
"                                                                    O%P%Q%                                                      ",
"                                                                                                                                ",
"                                                                                                                                ",
"                                                                                                                                "};
