/* XPM */
static char * ewl8_xpm[] = {
"64 64 633 2",
"  	c None",
". 	c #090400",
"+ 	c #241701",
"@ 	c #764F06",
"# 	c #593506",
"$ 	c #DC9912",
"% 	c #5D3F04",
"& 	c #CA8E0E",
"* 	c #EEA024",
"= 	c #4F2E05",
"- 	c #AD6C1B",
"; 	c #F3A636",
"> 	c #EFA817",
", 	c #775206",
"' 	c #B47E0C",
") 	c #F8AC2A",
"! 	c #EEA03D",
"~ 	c #AD6A17",
"{ 	c #D99147",
"] 	c #F1A339",
"^ 	c #F4AB1B",
"/ 	c #815906",
"( 	c #936708",
"_ 	c #F9AE25",
": 	c #EEA03E",
"< 	c #E38F2A",
"[ 	c #2B1802",
"} 	c #553306",
"| 	c #F0C4A8",
"1 	c #F1C4A1",
"2 	c #F0A23B",
"3 	c #F5AB1D",
"4 	c #7C5506",
"5 	c #644504",
"6 	c #F3AA1D",
"7 	c #EFA13C",
"8 	c #ED9932",
"9 	c #8A530E",
"0 	c #8C540F",
"a 	c #F2CFBC",
"b 	c #F5E7E2",
"c 	c #F0B784",
"d 	c #F0A81C",
"e 	c #604104",
"f 	c #D89812",
"g 	c #F1A438",
"h 	c #EFAC68",
"i 	c #F4D3B9",
"j 	c #ED9C38",
"k 	c #B97017",
"l 	c #A26213",
"m 	c #F3D5C6",
"n 	c #F7EEEA",
"o 	c #F7E9E1",
"p 	c #EFA85A",
"q 	c #DE9C15",
"r 	c #160D01",
"s 	c #966809",
"t 	c #F6AA2E",
"u 	c #EEA246",
"v 	c #F5DED1",
"w 	c #F9F1EA",
"x 	c #EEA141",
"y 	c #EE9F3D",
"z 	c #D9841D",
"A 	c #B66E16",
"B 	c #F3D8CA",
"C 	c #F8F0EC",
"D 	c #FAF6F3",
"E 	c #F4D8C5",
"F 	c #F4A733",
"G 	c #A7750A",
"H 	c #E39F1A",
"I 	c #EFA13D",
"J 	c #F2C7A7",
"K 	c #F0B375",
"L 	c #EC9123",
"M 	c #553107",
"N 	c #C27519",
"O 	c #F3D9CC",
"P 	c #F8F1ED",
"Q 	c #FAF5F1",
"R 	c #F1BD90",
"S 	c #EDA424",
"T 	c #2E1E01",
"U 	c #865D07",
"V 	c #F5A931",
"W 	c #EFA85B",
"X 	c #F5E5DE",
"Y 	c #FAF5F2",
"Z 	c #F2C49B",
"` 	c #EC9329",
" .	c #8B530F",
"..	c #CF7E1B",
"+.	c #F3DACD",
"@.	c #F9F2EE",
"#.	c #F8ECE3",
"$.	c #EEA44C",
"%.	c #9F6F09",
"&.	c #BF8510",
"*.	c #F2C9AC",
"=.	c #F7ECE8",
"-.	c #F4D2B6",
";.	c #EC952C",
">.	c #A56313",
",.	c #D6821C",
"'.	c #F9F2EF",
").	c #F3CEB0",
"!.	c #C0851D",
"~.	c #000000",
"{.	c #DE9A25",
"].	c #EEA142",
"^.	c #F5E2D9",
"/.	c #F6DAC4",
"(.	c #EC972F",
"_.	c #BE7318",
":.	c #D8831C",
"<.	c #F9F2EC",
"[.	c #D69753",
"}.	c #82551E",
"|.	c #C18615",
"1.	c #D9952A",
"2.	c #E49735",
"3.	c #E99733",
"4.	c #B17020",
"5.	c #EAA02F",
"6.	c #F0B988",
"7.	c #F5E7E3",
"8.	c #F9F4F1",
"9.	c #F7E2D2",
"0.	c #ED9831",
"a.	c #CE7D1B",
"b.	c #D9841C",
"c.	c #F3D5C7",
"d.	c #F7F3F0",
"e.	c #A9A7A5",
"f.	c #785414",
"g.	c #DF9D13",
"h.	c #F7AA2E",
"i.	c #EB9E3D",
"j.	c #E99E37",
"k.	c #F3D0B8",
"l.	c #F5E8E4",
"m.	c #F8E8DD",
"n.	c #ED9832",
"o.	c #DC861D",
"p.	c #D7831C",
"q.	c #F2D2C1",
"r.	c #F0ECEA",
"s.	c #7D7A79",
"t.	c #B7800C",
"u.	c #FAAF1E",
"v.	c #EDA03F",
"w.	c #F4E1D8",
"x.	c #F6E9E5",
"y.	c #F8EBE1",
"z.	c #E58C1E",
"A.	c #D2801B",
"B.	c #F2CDB7",
"C.	c #F8F1EE",
"D.	c #F1EDEB",
"E.	c #74706C",
"F.	c #D3940F",
"G.	c #FBAF22",
"H.	c #ECA553",
"I.	c #F9EDE3",
"J.	c #E88D1F",
"K.	c #060402",
"L.	c #C67819",
"M.	c #F1C5AB",
"N.	c #F5EDE9",
"O.	c #807D7B",
"P.	c #D2940F",
"Q.	c #FBB021",
"R.	c #F3D3BE",
"S.	c #F9EDE4",
"T.	c #EC9730",
"U.	c #EA8E1F",
"V.	c #000201",
"W.	c #F0BE9F",
"X.	c #A39B99",
"Y.	c #BF860D",
"Z.	c #FDB21A",
"`.	c #EFAA61",
" +	c #F5E3DC",
".+	c #F8EFEB",
"++	c #F8ECE2",
"@+	c #E88E1F",
"#+	c #120A02",
"$+	c #A56414",
"%+	c #CD8F5C",
"&+	c #8D620A",
"*+	c #FFB413",
"=+	c #F2A536",
"-+	c #F0BA8A",
";+	c #F5E8E3",
">+	c #F8E9DD",
",+	c #EC9328",
"'+	c #E38A1E",
")+	c #814D0E",
"!+	c #6A4108",
"~+	c #F0A912",
"{+	c #F8AC29",
"]+	c #F1C199",
"^+	c #F7E2D1",
"/+	c #EB9022",
"(+	c #D4811C",
"_+	c #010100",
":+	c #BA820C",
"<+	c #FEB317",
"[+	c #EFA23B",
"}+	c #F0BB8E",
"|+	c #F8ECE6",
"1+	c #F5D7C0",
"2+	c #EE9E3B",
"3+	c #EB8F1F",
"4+	c #493103",
"5+	c #F9B013",
"6+	c #F7AB2C",
"7+	c #EEA243",
"8+	c #EFA651",
"9+	c #F0B57E",
"0+	c #ED9B35",
"a+	c #DA851D",
"b+	c #75460C",
"c+	c #B17C0B",
"d+	c #FEC267",
"e+	c #F3BA80",
"f+	c #EFA44B",
"g+	c #EFA652",
"h+	c #F5D8C1",
"i+	c #FAF3ED",
"j+	c #FAF6F2",
"k+	c #D68728",
"l+	c #683D09",
"m+	c #EABE86",
"n+	c #F3C59E",
"o+	c #EFAC64",
"p+	c #EFAB61",
"q+	c #F6DDCA",
"r+	c #F0B377",
"s+	c #ED9B36",
"t+	c #B56D16",
"u+	c #724E06",
"v+	c #FFBA43",
"w+	c #FAE9D9",
"x+	c #EEA140",
"y+	c #F1B57A",
"z+	c #F5D5B9",
"A+	c #FAF4F0",
"B+	c #F5D7BE",
"C+	c #F8EBE0",
"D+	c #EEA13F",
"E+	c #F4CCAB",
"F+	c #F7E4D4",
"G+	c #F5D6BD",
"H+	c #F0AE69",
"I+	c #EB9021",
"J+	c #DD871D",
"K+	c #0B0401",
"L+	c #B07B0B",
"M+	c #F0A33E",
"N+	c #F1BA86",
"O+	c #F3C9A6",
"P+	c #F1B57C",
"Q+	c #F2C196",
"R+	c #F0B57A",
"S+	c #EE9D39",
"T+	c #EB8F1D",
"U+	c #988A7F",
"V+	c #D6960F",
"W+	c #F4CCAC",
"X+	c #F4D2B8",
"Y+	c #EE9D3A",
"Z+	c #E99025",
"`+	c #DE8925",
" @	c #EA8F1F",
".@	c #EC9429",
"+@	c #CDC8C3",
"@@	c #524C47",
"#@	c #4D4841",
"$@	c #F0AB21",
"%@	c #F39F1C",
"&@	c #DC8828",
"*@	c #CB8030",
"=@	c #E5902B",
"-@	c #EE9F3C",
";@	c #F6DBC6",
">@	c #F9EEE5",
",@	c #DF9551",
"'@	c #D4CCC7",
")@	c #7F7F7F",
"!@	c #7B573B",
"~@	c #E28B24",
"{@	c #EC962E",
"]@	c #EEA244",
"^@	c #F8EADE",
"/@	c #D9D3CE",
"(@	c #706B65",
"_@	c #EBE0D3",
":@	c #F5A424",
"<@	c #D99E73",
"[@	c #E3E3E2",
"}@	c #8E8E8E",
"|@	c #624C3C",
"1@	c #DF9033",
"2@	c #F8EBDF",
"3@	c #F2C298",
"4@	c #ED9D39",
"5@	c #C9B6AC",
"6@	c #FFFFFF",
"7@	c #D1D1D1",
"8@	c #2A2A2A",
"9@	c #A46B36",
"0@	c #F4CEAF",
"a@	c #8E8780",
"b@	c #928D86",
"c@	c #FBECDB",
"d@	c #F09A21",
"e@	c #C4BCB7",
"f@	c #CCCCCC",
"g@	c #282828",
"h@	c #A46C37",
"i@	c #EFAB62",
"j@	c #F8EADF",
"k@	c #EE9C36",
"l@	c #767270",
"m@	c #E0E0E0",
"n@	c #939393",
"o@	c #1B1B1B",
"p@	c #7C5739",
"q@	c #F1B883",
"r@	c #FAF5F0",
"s@	c #E2DCD8",
"t@	c #070402",
"u@	c #3E3A33",
"v@	c #ECE2D5",
"w@	c #EB9820",
"x@	c #605F5E",
"y@	c #C7C7C7",
"z@	c #6B6B6B",
"A@	c #353535",
"B@	c #8D6038",
"C@	c #F3CAA7",
"D@	c #EDE9E6",
"E@	c #C9C1BF",
"F@	c #CBC2C0",
"G@	c #E7E4E1",
"H@	c #755841",
"I@	c #111111",
"J@	c #E4E4E4",
"K@	c #A87C5C",
"L@	c #EB9124",
"M@	c #F0B273",
"N@	c #F9F0E9",
"O@	c #F6EDEA",
"P@	c #8D8581",
"Q@	c #A19C95",
"R@	c #F0AD6F",
"S@	c #795A43",
"T@	c #1A1A1A",
"U@	c #373737",
"V@	c #F9F9F9",
"W@	c #B68253",
"X@	c #EEE0D5",
"Y@	c #CE9E9E",
"Z@	c #FEBFBF",
"`@	c #FFA0A0",
" #	c #CE7979",
".#	c #F1EDEA",
"+#	c #F2BF91",
"@#	c #CE8739",
"##	c #554D48",
"$#	c #444444",
"%#	c #B6AEAA",
"&#	c #DD8A32",
"*#	c #ED9933",
"=#	c #F1B985",
"-#	c #F4E7E3",
";#	c #948A86",
">#	c #0B0700",
",#	c #D5D0CA",
"'#	c #F9E0C8",
")#	c #D6872C",
"!#	c #6A5648",
"~#	c #4C4B4A",
"{#	c #AE9382",
"]#	c #EDC4A4",
"^#	c #D78080",
"/#	c #FF8E8E",
"(#	c #FE8181",
"_#	c #C77170",
":#	c #F4F0ED",
"<#	c #F4CFB1",
"[#	c #E29748",
"}#	c #CD8230",
"|#	c #E58E26",
"1#	c #EEA65F",
"2#	c #F5D6BE",
"3#	c #F6E9E6",
"4#	c #F3E5E1",
"5#	c #958B86",
"6#	c #47423B",
"7#	c #E6E1DD",
"8#	c #F8D4B1",
"9#	c #EB983A",
"0#	c #E2902F",
"a#	c #F1C09A",
"b#	c #E6E3E0",
"c#	c #B3A9A7",
"d#	c #AFA7A5",
"e#	c #F0ECE9",
"f#	c #FAF4EE",
"g#	c #F8E9DB",
"h#	c #EEE0DC",
"i#	c #867D79",
"j#	c #645F59",
"k#	c #EFEAE6",
"l#	c #F9EFE7",
"m#	c #B3B0AD",
"n#	c #898685",
"o#	c #E8E4E1",
"p#	c #DFD2CD",
"q#	c #68605C",
"r#	c #6E6864",
"s#	c #EDE2DE",
"t#	c #F9F3F0",
"u#	c #E4E0DD",
"v#	c #DCD9D6",
"w#	c #D7D4D1",
"x#	c #F3F0ED",
"y#	c #F6EBE7",
"z#	c #ECDED9",
"A#	c #A89D99",
"B#	c #1D1917",
"C#	c #5D5652",
"D#	c #D9CCC7",
"E#	c #F6EAE6",
"F#	c #F6EBE8",
"G#	c #F7ECE9",
"H#	c #F7EDE9",
"I#	c #F6EAE7",
"J#	c #D4C7C3",
"K#	c #9F9590",
"L#	c #3C3633",
"M#	c #14110E",
"N#	c #9D938D",
"O#	c #DDCFCB",
"P#	c #E1D4CF",
"Q#	c #CEC2BD",
"R#	c #B3A7A2",
"S#	c #897F7A",
"T#	c #37312B",
"U#	c #544D47",
"V#	c #8A817C",
"W#	c #A19691",
"X#	c #AA9F9A",
"Y#	c #ACA098",
"Z#	c #9F938B",
"`#	c #807773",
" $	c #665C55",
".$	c #4F3103",
"+$	c #7E531B",
"@$	c #654216",
"#$	c #BDA189",
"$$	c #D9D6D3",
"%$	c #F4EBE3",
"&$	c #EFA756",
"*$	c #D68F2E",
"=$	c #B27B17",
"-$	c #6D4B06",
";$	c #825F38",
">$	c #F9EEE6",
",$	c #EC9C39",
"'$	c #EC952D",
")$	c #F1A435",
"!$	c #C18619",
"~$	c #402A02",
"{$	c #291703",
"]$	c #905610",
"^$	c #9C5E12",
"/$	c #D4BAA4",
"($	c #F8EAE0",
"_$	c #EA9D3D",
":$	c #B8792B",
"<$	c #C1761C",
"[$	c #DE9A22",
"}$	c #3E2A07",
"|$	c #302B24",
"1$	c #26221F",
"2$	c #B29583",
"3$	c #D3811E",
"4$	c #E79128",
"5$	c #8A5A1E",
"6$	c #F7E8DC",
"7$	c #EFAA5E",
"8$	c #CF8730",
"9$	c #B16B16",
"0$	c #D3931B",
"a$	c #A7A39F",
"b$	c #797571",
"c$	c #7E7470",
"d$	c #F4DDCD",
"e$	c #E4993B",
"f$	c #A27C56",
"g$	c #F1BC8C",
"h$	c #EC9A36",
"i$	c #331C03",
"j$	c #DD8A24",
"k$	c #F3A635",
"l$	c #96754D",
"m$	c #EEE9E6",
"n$	c #5B5753",
"o$	c #443E39",
"p$	c #F2EAE3",
"q$	c #F0A545",
"r$	c #C78920",
"s$	c #CBAD93",
"t$	c #F3C7A2",
"u$	c #ED9C37",
"v$	c #643B0A",
"w$	c #A36213",
"x$	c #BF9660",
"y$	c #B5ABA4",
"z$	c #6F6C67",
"A$	c #A58049",
"B$	c #8C6108",
"C$	c #0C0600",
"D$	c #E1C5AE",
"E$	c #86500F",
"F$	c #563207",
"G$	c #EBA566",
"H$	c #B7B5B3",
"I$	c #E5AF7C",
"J$	c #CEB8AA",
"K$	c #EDCBAF",
"L$	c #F3C8A4",
"M$	c #87510E",
"N$	c #A49793",
"O$	c #C2B7B2",
"P$	c #9D6E3B",
"Q$	c #ED9B37",
"R$	c #BF7A32",
"S$	c #E3AE7E",
"T$	c #F0B376",
"U$	c #EC9327",
"V$	c #804E0E",
"W$	c #BB8218",
"X$	c #C0822A",
"Y$	c #C78533",
"Z$	c #ED9F3C",
"`$	c #EC9225",
" %	c #945911",
".%	c #C17820",
"+%	c #E2DEDB",
"@%	c #A7A19D",
"#%	c #C5A68E",
"$%	c #EC9E3D",
"%%	c #E68C1E",
"&%	c #986521",
"*%	c #281602",
"=%	c #663C09",
"-%	c #E48C20",
";%	c #F0B88B",
">%	c #B8AEA6",
",%	c #9C6124",
"'%	c #E49330",
")%	c #EA932B",
"!%	c #AF6A15",
"~%	c #CE8022",
"{%	c #EC972E",
"]%	c #EC952B",
"^%	c #EB9020",
"/%	c #DF881D",
"(%	c #673C09",
"_%	c #76460C",
":%	c #955911",
"<%	c #C07519",
"[%	c #F2A437",
"}%	c #BD8020",
"|%	c #261402",
"1%	c #AF6A16",
"2%	c #DB851D",
"3%	c #B76F17",
"4%	c #522F06",
"5%	c #291502",
"6%	c #C97A1A",
"7%	c #F4A832",
"8%	c #FFB415",
"9%	c #8E6308",
"0%	c #BF7419",
"a%	c #FFB414",
"b%	c #DB9A10",
"c%	c #978C87",
"d%	c #EDA05C",
"e%	c #F2A537",
"f%	c #FFB315",
"g%	c #F7AE13",
"h%	c #8D5A0D",
"i%	c #603808",
"j%	c #A99F9A",
"k%	c #F1C4A8",
"l%	c #FDB313",
"m%	c #9B6C10",
"n%	c #DC9033",
"o%	c #C47719",
"p%	c #756D69",
"q%	c #F4E5DF",
"r%	c #F0B582",
"s%	c #F8AB2B",
"t%	c #AF7A0D",
"u%	c #CB8834",
"v%	c #EB9225",
"w%	c #846B58",
"x%	c #ADA29C",
"y%	c #F8CFA8",
"z%	c #BA8421",
"A%	c #CA8E10",
"B%	c #EFB285",
"C%	c #ADA29E",
"D%	c #746C68",
"E%	c #837A76",
"F%	c #795403",
"G%	c #F0B583",
"H%	c #F4E3DB",
"I%	c #827973",
"J%	c #C9A274",
"K%	c #F5D9C7",
"L%	c #F4E6E1",
"M%	c #AEA39E",
"N%	c #3F3832",
"O%	c #89807D",
"P%	c #6C645F",
"                                                                                                                                ",
"                                                                                                                                ",
"                                                .                                   + @                                         ",
"                                              # $ %                                 & * =                                       ",
"                                              - ; > ,                             ' ) ! ~                                       ",
"                                              { ! ] ^ /                         ( _ : : < [                                     ",
"                                            } | 1 : 2 3 4                     5 6 7 : : 8 9                                     ",
"                                            0 a b c : 2 d e                   f g h i : j k                                     ",
"                                            l m n o p : ] q r               s t u v w x y z                                     ",
"                                            A B C D E : : F G               H I J C D K : L M                                   ",
"                                            N O P D Q R : : S T           U V W X Y D Z : `  .                                  ",
"                                            ..+.@.D D #.$.: g %.          &.7 *.=.D D -.: ;.>.                                  ",
"                                            ,.O '.D D D ).: : !.~.~.~.~.~.{.].^.P D D /.: (._.                                  ",
"                                            :.B '.D D D <.[.}., |.1.2.3.4.5.6.7.8.D D 9.: 0.a.                                  ",
"                                            b.c.'.D D d.e.f.g.h.I : : : i.j.k.l.D D D m.: n.o.                                  ",
"                                            p.q.@.D r.s.t.u.] : : : : : : v.w.x.D D D y.: n.z.~.                                ",
"                                            A.B.C.D.E.F.G.7 : : : : : : : H.7.l.D D D I.! 0.J.K.                                ",
"                                            L.M.N.O.P.Q.I : : : : : : : : : R.7.8.D D S.! T.U.V.                                ",
"                                            k W.X.Y.Z.2 : : : : : : : : : : `. +.+D D ++! ;.@+#+                                ",
"                                            $+%+&+*+=+: : : : : : : : : : : : -+;+Y D >+: ,+'+~.                                ",
"                                            )+!+~+{+: : : : : : : : : : : : : : ]+=.D ^+: /+(+                                  ",
"                                            _+:+<+[+: : : : : : : : : : : : : : : }+|+1+2+3+A                                   ",
"                                            4+5+6+: : : : : : : : : : : : : 7+8+: : `.9+0+a+b+~.                                ",
"                                            c+d+e+f+: : : : : : : : : : g+h+i+j+Z : : : : k+,.l+                                ",
"                                          ~.m+D D <.n+: x : o+: p+: : : q+D D <.r+: : : : s+3+t+                                ",
"                                          u+v+w+D D <.x+y+z+A+B+C+D+: : E+F+G+H+: : : : : ! I+J+K+                              ",
"                                          L+*+M+N+O+P+: Q+D D D D R+: : : : ! j S+: : : : : (.T+U+~.                            ",
"                                          V+Z.2+S+: : : W+D D D D X+: : : Y+Z+`+ @.@y : : : : R D +@@@                          ",
"                                        #@$@%@&@*@=@-@: ;@D D D D >@7+: : ,@'@)@!@~@{@: : : ]@^@D D /@~.                        ",
"                                      (@_@:@<@[@}@|@1@: 2@D D D D D 3@: 4@5@6@7@8@9@I+: : : 0@D D D a@                          ",
"                                      b@c@d@e@6@f@g@h@i@j+D D D D D j@]@k@l@m@n@o@p@3+y : q@r@D D D s@t@                        ",
"                                      u@v@w@x@y@z@A@B@C@D@E@F@G@D D D 0@2+H@I@I@J@K@L@: M@N@D D D O@P@                          ",
"                                      Q@D R@S@T@U@V@W@X@Y@Z@`@ #.#D D Q +#@###$#%#&#*#=#N@D D P -#;#                            ",
"                                      >#,#'#)#!#~#{#]#D@^#/#(#_#:#D D D r@<#[#}#|#1#2#Q D P 3#4#5#                              ",
"                                        6#7#8#9#0#a#A+D b#c#d#e#D D D D D D f#g#++Y Q .+x.7.h#i#                                ",
"                                          j#k#<.l#D D D D m#n#o#D D D D D D D Y C.=.7.7.7.p#q#                                  ",
"                                            r#s#C t#D D u#v#.#w#x#D D Y '..+y#7.7.7.7.z#A#B#                                    ",
"                                              C#D#7.l.E#F#G#H#H#=.I#x.7.7.7.7.7.4#J#K#L#                                        ",
"                                                M#N#O#b 7.7.7.7.7.7.7.b P#Q#R#S#T#~.                                            ",
"                                                    ~.U#V#W#X#Y#Z#`# $.$+$@$                                                    ",
"                                                            ~.#$$$b#%$&$! *$=$-$                                                ",
"                                                            ;$>$D D D <#,$'$S+)$!$~$                                            ",
"                                                      {$]$^$/$D D D D ($_$:$<$0.7 [$}$|$                                        ",
"                                                1$2$3$4$0.5$6$D D D D j+7$: 8$9$s+7 0$a$b$                                      ",
"                                                c$d$: : e$f$D D D D D D g$: h$i$j$: k$l$m$n$                                    ",
"                                                o$p$q$k$r$s$D D D D D D t$: u$v$w$j ! x$o#y$                                    ",
"                                                  z$A$B$C$D$D D D D D D W+: u$E$F$G$/.H$I$J$                                    ",
"                                                        ~.K$D D D D D D L$: *#M$  N$O$P$Q$R$                                    ",
"                                                        ~.S$D D D D D D T$: U$V$W$X$Y$Z$`$ %                                    ",
"                                                          .%2#D D +%@%#%$%0.%%&%I : 2+U$p.*%                                    ",
"                                                          =%-%;%>%,%'%! : )%!%~%{%]%^%/%(%                                      ",
"                                                            _%:%<%s+: : [%}%|%1%:.2%3%4%                                        ",
"                                                            5%6%s+: : 7%8%9%      ~.                                            ",
"                                                            0%8 : : F a%b%                                                      ",
"                                                          c%d%: : e%f%g%h%i%                                                    ",
"                                                          j%k%! [+Z.l%m%n%o%                                                    ",
"                                                          p%q%r%s%*+t%u%: v%w%                                                  ",
"                                                            x%q%y%z%A%2 : B%C%                                                  ",
"                                                              D%E%F%*+7%G%H%I%                                                  ",
"                                                                    J%K%L%M%                                                    ",
"                                                                    N%O%P%                                                      ",
"                                                                                                                                ",
"                                                                                                                                ",
"                                                                                                                                "};
