/* XPM */
static char * ewl9_xpm[] = {
"64 64 617 2",
"  	c None",
". 	c #573904",
"+ 	c #3D2702",
"@ 	c #DE961C",
"# 	c #C0870D",
"$ 	c #422B02",
"% 	c #E6A114",
"& 	c #976012",
"* 	c #91570F",
"= 	c #EE9E3A",
"- 	c #F9AC29",
"; 	c #B57E0C",
"> 	c #D3940F",
", 	c #F4A733",
"' 	c #E2922F",
") 	c #402503",
"! 	c #CD905E",
"~ 	c #EFAD69",
"{ 	c #EEA03E",
"] 	c #F9AD26",
"^ 	c #A2710A",
"/ 	c #B27C0C",
"( 	c #F7AB2C",
"_ 	c #EE9D39",
": 	c #A16112",
"< 	c #533105",
"[ 	c #EEBE9F",
"} 	c #F4DCCF",
"| 	c #EEA243",
"1 	c #EFA13D",
"2 	c #F7AD21",
"3 	c #815907",
"4 	c #805906",
"5 	c #F8AD23",
"6 	c #D98620",
"7 	c #925810",
"8 	c #F2CEB9",
"9 	c #F6E9E5",
"0 	c #F2C5A3",
"a 	c #F0A23B",
"b 	c #EBA519",
"c 	c #432D02",
"d 	c #201401",
"e 	c #E7A216",
"f 	c #F0B47B",
"g 	c #F0B273",
"h 	c #EC952C",
"i 	c #72440B",
"j 	c #B46D16",
"k 	c #F3DBCE",
"l 	c #F8EFEB",
"m 	c #F8EDE7",
"n 	c #EFA95D",
"o 	c #F3A635",
"p 	c #BF860D",
"q 	c #AA770B",
"r 	c #F5A831",
"s 	c #EFA652",
"t 	c #F6E6DD",
"u 	c #F5D3B8",
"v 	c #ED9933",
"w 	c #A66414",
"x 	c #D17E17",
"y 	c #F5E3DB",
"z 	c #F9F2EF",
"A 	c #FAF6F3",
"B 	c #F4D2BA",
"C 	c #F5AA27",
"D 	c #614204",
"E 	c #2F1E01",
"F 	c #EDA61E",
"G 	c #F2CEB4",
"H 	c #F9F3EF",
"I 	c #F8E8DB",
"J 	c #ED9C38",
"K 	c #CC7C1A",
"L 	c #150901",
"M 	c #E79338",
"N 	c #F5E7E3",
"O 	c #FAF5F1",
"P 	c #F9F2EE",
"Q 	c #EFAB65",
"R 	c #F0A33A",
"S 	c #BD840E",
"T 	c #9D6D09",
"U 	c #F4A734",
"V 	c #EFAD6C",
"W 	c #F6E8E3",
"X 	c #FAF5F2",
"Y 	c #EFA44B",
"Z 	c #EE9F3D",
"` 	c #E78D1F",
" .	c #2D1903",
"..	c #5D3709",
"+.	c #EDA05E",
"@.	c #F5E8E4",
"#.	c #F4D3BB",
"$.	c #EAA326",
"%.	c #070400",
"&.	c #D19216",
"*.	c #F2CEB5",
"=.	c #F7EEEA",
"-.	c #F1B882",
";.	c #EB9122",
">.	c #79480C",
",.	c #86500E",
"'.	c #EDA76F",
").	c #F9F2EC",
"!.	c #EFA758",
"~.	c #EFA333",
"{.	c #000000",
"].	c #EBA329",
"^.	c #EEA44C",
"/.	c #F5E4DD",
"(.	c #F3C59E",
"_.	c #EC9327",
":.	c #995C11",
"<.	c #945910",
"[.	c #EEAC7A",
"}.	c #F6EBE7",
"|.	c #E8C3A6",
"1.	c #A26C28",
"2.	c #55380B",
"3.	c #9B6C09",
"4.	c #C2851E",
"5.	c #CC882B",
"6.	c #C98028",
"7.	c #805211",
"8.	c #F1BC90",
"9.	c #F4D2B6",
"0.	c #EC942A",
"a.	c #B36C16",
"b.	c #9F6013",
"c.	c #EFB287",
"d.	c #F7ECE8",
"e.	c #F9F5F2",
"f.	c #C0BDBA",
"g.	c #665038",
"h.	c #C88C0E",
"i.	c #F4AA26",
"j.	c #F1A438",
"k.	c #CD8A33",
"l.	c #F3D2BC",
"m.	c #F6E9E6",
"n.	c #F5D9C4",
"o.	c #EC952D",
"p.	c #C67819",
"q.	c #AA6715",
"r.	c #EFB690",
"s.	c #F7EDE9",
"t.	c #F3F0ED",
"u.	c #8E8C8A",
"v.	c #F7AE19",
"w.	c #EFA23C",
"x.	c #F5E2D9",
"y.	c #F7E1D0",
"z.	c #EC962E",
"A.	c #D4811C",
"B.	c #AF6A15",
"C.	c #EFB893",
"D.	c #F7EDEA",
"E.	c #F2EEEC",
"F.	c #7A7775",
"G.	c #C58A0E",
"H.	c #FCB11E",
"I.	c #ECAB67",
"J.	c #F6EAE6",
"K.	c #F7E6D8",
"L.	c #DE871D",
"M.	c #EFB894",
"N.	c #F4EBE7",
"O.	c #817F7D",
"P.	c #CD900F",
"Q.	c #EEA552",
"R.	c #F4E3DB",
"S.	c #F8EADF",
"T.	c #E58B1E",
"U.	c #AB6715",
"V.	c #A29997",
"W.	c #FEB21A",
"X.	c #F1BE95",
"Y.	c #9C5E12",
"Z.	c #C68751",
"`.	c #966804",
" +	c #FFB413",
".+	c #F2A536",
"++	c #F2D0B8",
"@+	c #F6EAE7",
"#+	c #F8E9DD",
"$+	c #EC9329",
"%+	c #E38A1E",
"&+	c #79480D",
"*+	c #684207",
"=+	c #F4AC12",
"-+	c #F8AC2B",
";+	c #EEA245",
">+	c #F3D5C2",
",+	c #F8F0EC",
"'+	c #F7E5D7",
")+	c #EB9124",
"!+	c #D8831C",
"~+	c #C78C0E",
"{+	c #FDB219",
"]+	c #EFA13C",
"^+	c #EEA244",
"/+	c #F6DDCA",
"(+	c #EB8F1F",
"_+	c #C27619",
":+	c #674604",
"<+	c #FDB213",
"[+	c #F6A930",
"}+	c #F0B886",
"|+	c #F2C6A0",
"1+	c #ED9C37",
"2+	c #E88D1F",
"3+	c #C88E1D",
"4+	c #FDC984",
"5+	c #F2BE8E",
"6+	c #EEA44A",
"7+	c #EEA13F",
"8+	c #F2C298",
"9+	c #F6DFCC",
"0+	c #F6E0CF",
"a+	c #F0AF6D",
"b+	c #EE9F3C",
"c+	c #CA7C1D",
"d+	c #B06B16",
"e+	c #402A02",
"f+	c #F7CF9F",
"g+	c #F9F1EA",
"h+	c #F2BE90",
"i+	c #EEA140",
"j+	c #EFA653",
"k+	c #EFA44C",
"l+	c #F5D8C1",
"m+	c #FAF6F2",
"n+	c #F1BA89",
"o+	c #7D4A0D",
"p+	c #9C6C09",
"q+	c #FFBB4B",
"r+	c #F9E8DA",
"s+	c #F8EADE",
"t+	c #F2C092",
"u+	c #F4CFB0",
"v+	c #F9F0E8",
"w+	c #F3CBA9",
"x+	c #F6DECB",
"y+	c #EEA03D",
"z+	c #F8E8DA",
"A+	c #F8EBE1",
"B+	c #F2C39A",
"C+	c #B76F17",
"D+	c #CE910E",
"E+	c #FEB318",
"F+	c #F1B985",
"G+	c #F3C6A0",
"H+	c #F0B06E",
"I+	c #F4CCAC",
"J+	c #FAF3ED",
"K+	c #EEA449",
"L+	c #EEA141",
"M+	c #EFA64F",
"N+	c #EB9021",
"O+	c #DA851D",
"P+	c #EDA712",
"Q+	c #FAAE23",
"R+	c #ED9D39",
"S+	c #F6DAC4",
"T+	c #F2BE8F",
"U+	c #EE9E3B",
"V+	c #EB9123",
"W+	c #EC9328",
"X+	c #ED9B36",
"Y+	c #EEAB71",
"Z+	c #C7C2BC",
"`+	c #403B36",
" @	c #8C7B61",
".@	c #FDB114",
"+@	c #EE961E",
"@@	c #CD802E",
"#@	c #C97E32",
"$@	c #E8932D",
"%@	c #F6DBC6",
"&@	c #E1923F",
"*@	c #BF9D89",
"=@	c #895F3C",
"-@	c #C97E2F",
";@	c #EB9020",
">@	c #EBE6E1",
",@	c #827C76",
"'@	c #B2ADA6",
")@	c #F9E1C9",
"!@	c #F09A25",
"~@	c #D5B8A6",
"{@	c #E9E9E9",
"]@	c #737373",
"^@	c #7C583B",
"/@	c #EA9834",
"(@	c #FAF3EE",
"_@	c #EFA85A",
":@	c #EC9A35",
"<@	c #D8CCC5",
"[@	c #FFFFFF",
"}@	c #A4A4A4",
"|@	c #3D3A38",
"1@	c #D7852B",
"2@	c #EC962D",
"3@	c #F2C196",
"4@	c #A7A19C",
"5@	c #A8A29B",
"6@	c #FCE0C3",
"7@	c #DB892A",
"8@	c #D7D7D7",
"9@	c #A3A3A3",
"0@	c #303030",
"a@	c #C58239",
"b@	c #F4D0B4",
"c@	c #DA8F38",
"d@	c #B7B7B7",
"e@	c #939393",
"f@	c #272727",
"g@	c #AD6F35",
"h@	c #EFAC66",
"i@	c #F9F0EA",
"j@	c #F8F3EF",
"k@	c #67625C",
"l@	c #908B84",
"m@	c #FBE3CB",
"n@	c #CC812F",
"o@	c #6F6F6F",
"p@	c #333333",
"q@	c #414141",
"r@	c #B77A39",
"s@	c #E7E3E1",
"t@	c #CDC7C5",
"u@	c #D4D0CD",
"v@	c #F7F3F0",
"w@	c #EFAC65",
"x@	c #DC9139",
"y@	c #343434",
"z@	c #505050",
"A@	c #4A4A4A",
"B@	c #A2A2A2",
"C@	c #B17237",
"D@	c #EC9429",
"E@	c #EFA654",
"F@	c #F8E8DC",
"G@	c #BEB7B3",
"H@	c #C5C0BA",
"I@	c #E59536",
"J@	c #514943",
"K@	c #121212",
"L@	c #969696",
"M@	c #E2E2E2",
"N@	c #D59C68",
"O@	c #DBD4CF",
"P@	c #DDA6A6",
"Q@	c #FEBBBB",
"R@	c #F59696",
"S@	c #C29D9C",
"T@	c #F7E4D5",
"U@	c #EEA145",
"V@	c #886243",
"W@	c #373737",
"X@	c #7C7C7C",
"Y@	c #D7D5D3",
"Z@	c #DC8827",
"`@	c #ED9A34",
" #	c #EFAA5E",
".#	c #F8E7DB",
"+#	c #CABFBA",
"@#	c #1D1915",
"##	c #38342E",
"$#	c #E5E0DB",
"%#	c #F7CEA5",
"&#	c #C57D33",
"*#	c #60534A",
"=#	c #615B58",
"-#	c #C5946F",
";#	c #D2C9C6",
">#	c #F38C8C",
",#	c #FF9090",
"'#	c #FC8080",
")#	c #C3908F",
"!#	c #F7E1D1",
"~#	c #E7A055",
"{#	c #AF733B",
"]#	c #A46E3E",
"^#	c #D6852B",
"/#	c #EC962F",
"(#	c #F2BF91",
"_#	c #F9EFE6",
":#	c #F8EFEC",
"<#	c #C7BAB5",
"[#	c #1C1815",
"}#	c #69655E",
"|#	c #F3EDE7",
"1#	c #F5C79C",
"2#	c #EA9633",
"3#	c #EB9E50",
"4#	c #F5D9C5",
"5#	c #D1CBC9",
"6#	c #A78180",
"7#	c #CBBEBC",
"8#	c #F3EFEC",
"9#	c #F9F1EB",
"0#	c #F5D7C1",
"a#	c #F3C9AA",
"b#	c #F4D1B8",
"c#	c #F8E9DC",
"d#	c #F9F4F1",
"e#	c #B9ADA8",
"f#	c #0D0A08",
"g#	c #8C8781",
"h#	c #F8F3F0",
"i#	c #F6F2EF",
"j#	c #858381",
"k#	c #C7C3C1",
"l#	c #F8F0ED",
"m#	c #F1E2DE",
"n#	c #9C918D",
"o#	c #978E8A",
"p#	c #F5EAE6",
"q#	c #F8F1ED",
"r#	c #D0CCCA",
"s#	c #E3E0DD",
"t#	c #D8D5D2",
"u#	c #D6D3D0",
"v#	c #F7EEEB",
"w#	c #D6C9C4",
"x#	c #675F5B",
"y#	c #877E79",
"z#	c #EBDDD9",
"A#	c #F1E3DE",
"B#	c #CCBFBB",
"C#	c #807773",
"D#	c #4C4541",
"E#	c #B8ADA8",
"F#	c #EBDDD8",
"G#	c #F5E7E2",
"H#	c #E7D9D5",
"I#	c #D7CAC5",
"J#	c #BBAFAA",
"K#	c #8F8681",
"L#	c #38322F",
"M#	c #766E69",
"N#	c #A39993",
"O#	c #BDB1AB",
"P#	c #BDB0AA",
"Q#	c #B4A8A2",
"R#	c #A49A96",
"S#	c #8F847E",
"T#	c #6F6763",
"U#	c #4E3E30",
"V#	c #1A0D00",
"W#	c #221404",
"X#	c #BCA38F",
"Y#	c #C9C6C4",
"Z#	c #D2CFCC",
"`#	c #DEC4AE",
" $	c #E79B3C",
".$	c #ED9D3A",
"+$	c #B47B21",
"@$	c #9E7853",
"#$	c #F0B06F",
"$$	c #E9942E",
"%$	c #ED9B37",
"&$	c #EEA235",
"*$	c #B67E17",
"=$	c #050301",
"-$	c #E2CAB7",
";$	c #F5D4BA",
">$	c #D38D36",
",$	c #B7721E",
"'$	c #EA952D",
")$	c #CC8E1C",
"!$	c #402404",
"~$	c #714C1F",
"{$	c #F8EBE0",
"]$	c #E59A3B",
"^$	c #B16D1C",
"/$	c #B37C11",
"($	c #A59F94",
"_$	c #45423E",
":$	c #814D0E",
"<$	c #C2761A",
"[$	c #B19173",
"}$	c #EFA754",
"|$	c #B97A2B",
"1$	c #DC8823",
"2$	c #F1A62F",
"3$	c #573B03",
"4$	c #BDB9B2",
"5$	c #E1DDD9",
"6$	c #46413D",
"7$	c #574F4B",
"8$	c #CA8D5A",
"9$	c #ED9730",
"0$	c #BF7E2E",
"a$	c #D7BCA6",
"b$	c #F1B883",
"c$	c #DF9131",
"d$	c #AD6915",
"e$	c #AC780B",
"f$	c #B2AEA7",
"g$	c #BBB6B2",
"h$	c #A79B96",
"i$	c #F3CDAF",
"j$	c #EAD0BD",
"k$	c #8B5310",
"l$	c #ED9934",
"m$	c #EEA142",
"n$	c #C49F71",
"o$	c #C5AB8F",
"p$	c #ECE3DD",
"q$	c #6E6662",
"r$	c #F4ECE5",
"s$	c #F5B15B",
"t$	c #956616",
"u$	c #F6D8C1",
"v$	c #EC9730",
"w$	c #663C07",
"x$	c #EAC0A4",
"y$	c #F9ECE2",
"z$	c #A09B96",
"A$	c #EAA033",
"B$	c #F2D0B7",
"C$	c #5C5954",
"D$	c #7A6D5D",
"E$	c #1F1204",
"F$	c #F1C9A7",
"G$	c #EC9225",
"H$	c #5C3608",
"I$	c #807672",
"J$	c #8F8078",
"K$	c #C0812F",
"L$	c #D7872F",
"M$	c #D99247",
"N$	c #F8ECE3",
"O$	c #ED9831",
"P$	c #E68C1E",
"Q$	c #9A681E",
"R$	c #E49B35",
"S$	c #E99C3C",
"T$	c #EE9D3A",
"U$	c #9E5F13",
"V$	c #925811",
"W$	c #EDA055",
"X$	c #F5D6C0",
"Y$	c #F9ECE1",
"Z$	c #C7BBB0",
"`$	c #CD8C41",
" %	c #E89128",
".%	c #B06A16",
"+%	c #CF8428",
"@%	c #C97A1A",
"#%	c #190C01",
"$%	c #A56414",
"%%	c #E98E1F",
"&%	c #B7721C",
"*%	c #BD7621",
"=%	c #DB962A",
"-%	c #392004",
";%	c #CD7C1B",
">%	c #381F03",
",%	c #A4730A",
"'%	c #80510F",
")%	c #AE6915",
"!%	c #985B12",
"~%	c #ECA612",
"{%	c #78480C",
"]%	c #87500F",
"^%	c #502F06",
"/%	c #DD9C10",
"(%	c #F5A92C",
"_%	c #85571E",
":%	c #E08D27",
"<%	c #FBB021",
"[%	c #DB9A10",
"}%	c #D5960F",
"|%	c #EFA819",
"1%	c #A26214",
"2%	c #BD850D",
"3%	c #BB830C",
"4%	c #DA8620",
"5%	c #F8AB2B",
"6%	c #8F6308",
"7%	c #A3710A",
"8%	c #966112",
"9%	c #EC952B",
"0%	c #FDB21B",
"a%	c #F3AC12",
"b%	c #1D1101",
"c%	c #4D3403",
"d%	c #AD9B90",
"e%	c #EDA058",
"f%	c #F1A339",
"g%	c #C3890D",
"h%	c #867C77",
"i%	c #F4DED5",
"j%	c #F0B686",
"k%	c #F1A53C",
"l%	c #FEB313",
"m%	c #795306",
"n%	c #6F5631",
"o%	c #B0A5A0",
"p%	c #F2E4E0",
"q%	c #F5E4DC",
"r%	c #CFBBAB",
"s%	c #756E6B",
"t%	c #C6BAB6",
"u%	c #8F8581",
"v%	c #7C736E",
"w%	c #201B16",
"x%	c #393430",
"y%	c #5F5751",
"z%	c #191510",
"                                                                                                                                ",
"                                                                                                                                ",
"                                                  .                                 +                                           ",
"                                                  @ #                             $ % &                                         ",
"                                                * = - ;                           > , ' )                                       ",
"                                                ! ~ { ] ^                       / ( { _ :                                       ",
"                                              < [ } | 1 2 3                   4 5 { { { 6                                       ",
"                                              7 8 9 0 { a b c               d e a f g { h i                                     ",
"                                              j k l m n { o p               q r s t u { v w                                     ",
"                                              x y z A B { { C D           E F { G H I { J K                                     ",
"                                            L M N O A P Q { R S           T U V W A X Y Z `  .                                  ",
"                                            ..+.@.A A A #.{ { $.%.        &.{ *.=.A A -.{ ;.>.                                  ",
"                                            ,.'.9 A A A ).!.{ ~.D   {.{.{.].^./.z A A (.{ _.:.                                  ",
"                                            <.[.}.A A A A |.1.2.3.4.5.6.7., 8.N X A A 9.{ 0.a.                                  ",
"                                            b.c.d.A A e.f.g.h.i.j.{ { { k.j.l.m.A A A n.{ o.p.                                  ",
"                                            q.r.s.A t.u.^ v.o { { { { { { w.x.}.A A A y.{ z.A.                                  ",
"                                            B.C.D.E.F.G.H.a { { { { { { { I.N J.A A A K.{ z.L.                                  ",
"                                            B.M.N.O.P.H.w.{ { { { { { { { Q.R.@.A A A S.{ z.T.{.                                ",
"                                            U.C.V.# W.a { { { { { { { { { { X.N P A A S.{ h ` {.                                ",
"                                            Y.Z.`. +.+{ { { { { { { { { { { { ++@+A A #+{ $+%+{.                                ",
"                                            &+*+=+-+{ { { { { { { { { { { { { ;+>+,+A '+{ )+!+                                  ",
"                                            {.~+{+]+{ { { { { { { { { { { { { { ^+G z /+Z (+_+                                  ",
"                                            :+<+[+{ { { { { { { { { { { { { { { { { }+|+1+2+,.                                  ",
"                                            3+4+5+6+{ { { { { { { { { { 7+8+9+0+a+{ { { b+c+d+{.                                ",
"                                          e+f+A A g+h+{ i+{ j+{ k+{ { { l+A A m+n+{ { { { z.(+o+                                ",
"                                          p+q+r+A A s+{ t+u+v+w+x+{ { y+z+X A+B+{ { { { { J (+C+                                ",
"                                          D+E+i+F+G+H+{ I+A A A J+K+{ { L+M+{ { { { { { { y+N+O+{.                              ",
"                                        {.P+Q+1+R+{ { { S+A A A A T+{ { { U+h V+W+J { { { { X+Y+Z+`+                            ",
"                                      {. @.@+@@@#@$@{ { I A A A A %@{ { y+&@*@=@-@;@_ { { { { y.A >@,@                          ",
"                                    {.'@)@!@~@{@]@^@/@s O A A A A (@_@{ :@<@[@}@|@1@2@{ { { 3@A A A 4@                          ",
"                                      5@6@7@8@[@9@0@a@3@A A A A A A b@{ c@d@[@e@f@g@_.{ { h@i@A A j@k@                          ",
"                                      l@m@n@o@d@p@q@r@x+s@t@u@v@A A J+w@x@y@z@A@B@C@D@{ E@F@A A A X G@{.                        ",
"                                    {.H@g+I@J@K@L@M@N@O@P@Q@R@S@A A A T@U@V@W@X@Y@Z@`@ #.#A A X ,++#@#                          ",
"                                      ##$#%#&#*#=#-#0+;#>#,#'#)#A A A A !#~#{#]#^#/#(#_#A X :#9 <#[#                            ",
"                                        }#|#1#2#3#4#A e.5#6#7#8#A A A A A 9#0#a#b#c#A d#=.@.N e#f#                              ",
"                                          g#h#J+O A A A i#j#k#e.A A A A A A A A X l#}.N N m#n#{.                                ",
"                                            o#p#q#d#A A r#s#t#u#A A A A X z v#}.N N N N w#x#                                    ",
"                                              y#z#N 9 }.s.v#l l v#s.}.9 N N N N N A#B#C#{.                                      ",
"                                                D#E#F#N N N N N N N N N G#H#I#J#K#L#{.                                          ",
"                                                    @#M#N#E#O#P#Q#R#S#T#U#V#{.                                                  ",
"                                                            W#X#Y#Z#`# $.$+$                                                    ",
"                                                            @$).A A O #$$$%$&$*$                                                ",
"                                                          =$-$A A A A ;$>$,$'$a )$  {.                                          ",
"                                                        !$~$_#A A A A {${ ]$^$`@R /${.($_$                                      ",
"                                                      :$<$[$A A A A A m+}${ |$1${ 2$3$4$5$6$                                    ",
"                                                  7$8$9$0$a$A A A A A A b${ c$d$= ]+e$f$A g$                                    ",
"                                                  h$i${ 1.j$A A A A A A (#{ v k$l$m$n$o$s+p${.                                  ",
"                                                  q$r$s$t$u$A A A A A A t+{ v$w$x$y$z$A$| B${.                                  ",
"                                                    C$D$E$F$A A A A A A #${ G$H$I$J$K${ _ L$                                    ",
"                                                          M$N$A A A A x+{ O$P$Q$R$S${ T$)+U$                                    ",
"                                                          V$W$X$Y$s+Z$`$b+ %.%+%J J v$N+@%#%                                    ",
"                                                            $%%%;@&%*%y+{ =%-%;%(+(+%%C+>%                                      ",
"                                                            ,%'%)%!%J { o ~%    {%]%^%                                          ",
"                                                            /%(%_%:%{ { <%[%                                                    ",
"                                                            }%|%1%X+{ j. +2%                                                    ",
"                                                            p 3%4%y+{ 5% +6%                                                    ",
"                                                            7%8%9%{ { 0%a%b%                                                    ",
"                                                            c%d%e%{ f% +g%                                                      ",
"                                                              h%i%j%k%l%m%                                                      ",
"                                                              n%o%p%q%r%{.                                                      ",
"                                                              s%t%u%v%w%                                                        ",
"                                                                x%y%z%                                                          ",
"                                                                                                                                ",
"                                                                                                                                "};
