/* XPM */
static char *Walk__1_[] = {
/* columns rows colors chars-per-pixel */
"64 64 226 2 ",
"   c #0B0B0A",
".  c #070502",
"X  c #181107",
"o  c #151412",
"O  c #1F1E1F",
"+  c #100B00",
"@  c #291905",
"#  c #251907",
"$  c #361F04",
"%  c #352504",
"&  c #3C2405",
"*  c #3B2706",
"=  c #2B2218",
"-  c #322310",
";  c #292726",
":  c #312E2C",
">  c #37322D",
",  c #3E3C3A",
"<  c #393532",
"1  c #452C08",
"2  c #4A3405",
"3  c #543B06",
"4  c #53340A",
"5  c #58380A",
"6  c #5A3D13",
"7  c #643C0A",
"8  c #443D37",
"9  c #4F3B21",
"0  c #62440B",
"q  c #6C420E",
"w  c #6C4C0A",
"e  c #73490B",
"r  c #78540C",
"t  c #644313",
"y  c #6B4911",
"u  c #754912",
"i  c #784A11",
"p  c #7D521D",
"a  c #44413D",
"s  c #544B3A",
"d  c #63513C",
"f  c #785A37",
"g  c #70572A",
"h  c #7F613A",
"j  c #4A4642",
"k  c #494846",
"l  c #5B524B",
"z  c #585757",
"x  c #544C46",
"c  c #635D5A",
"v  c #65605B",
"b  c #786957",
"n  c #726A65",
"m  c #7B7875",
"M  c #616161",
"N  c #845C0C",
"B  c #885F0B",
"V  c #835214",
"C  c #8B5513",
"Z  c #885917",
"A  c #995F17",
"S  c #824F10",
"D  c #91660C",
"F  c #8D6213",
"G  c #9E6B1C",
"H  c #87600B",
"J  c #A3730D",
"K  c #A96818",
"L  c #B77817",
"P  c #B06A15",
"I  c #805828",
"U  c #94652D",
"Y  c #96682E",
"T  c #90662F",
"R  c #A66C24",
"E  c #B87828",
"W  c #A47438",
"Q  c #B77D37",
"!  c #AF7124",
"~  c #C3771A",
"^  c #C5791B",
"/  c #C37A22",
"(  c #C17D2A",
")  c #89714C",
"_  c #957643",
"`  c #867157",
"'  c #807873",
"]  c #946362",
"[  c #E17070",
"{  c #BC8318",
"}  c #B9830E",
"|  c #BB8239",
" . c #AE8327",
".. c #C48A0F",
"X. c #C88D0F",
"o. c #C98C14",
"O. c #D99916",
"+. c #DA851D",
"@. c #E4951E",
"#. c #ECA614",
"$. c #F8AC19",
"%. c #F5AD12",
"&. c #FEB21D",
"*. c #FAB013",
"=. c #C68527",
"-. c #D48627",
";. c #DB952A",
":. c #C98735",
">. c #D58D34",
",. c #DF9537",
"<. c #E38C22",
"1. c #EE9324",
"2. c #E1912A",
"3. c #ED962A",
"4. c #EE992E",
"5. c #E49D29",
"6. c #F0972B",
"7. c #E29433",
"8. c #ED9A34",
"9. c #EE9F3B",
"0. c #E49737",
"q. c #F09C34",
"w. c #F09F39",
"e. c #EEA328",
"r. c #F9AC23",
"t. c #F3A62D",
"y. c #F5A92C",
"u. c #EEA03E",
"i. c #EDA134",
"p. c #F3A534",
"a. c #F1A23C",
"s. c #F7A932",
"d. c #FFC03D",
"f. c #88817D",
"g. c #998265",
"h. c #B49469",
"j. c #CA8D44",
"k. c #CD9858",
"l. c #DF9B48",
"z. c #E59E49",
"x. c #EEA344",
"c. c #EEA64A",
"v. c #EBA54F",
"b. c #F1A749",
"n. c #F1A546",
"m. c #EFA952",
"M. c #EEAB5B",
"N. c #E4A75E",
"B. c #F0AE5B",
"V. c #F1B55B",
"C. c #D09F67",
"Z. c #D7AB74",
"A. c #ECB26A",
"S. c #F0B163",
"D. c #F1B66C",
"F. c #F2B864",
"G. c #E9B475",
"H. c #F2BA73",
"J. c #F2BD7E",
"K. c #EAAD63",
"L. c #F8C277",
"P. c #F5CA72",
"I. c #7D7E80",
"U. c #8A8886",
"Y. c #938A86",
"T. c #9D938F",
"R. c #9F9591",
"E. c #A79E99",
"W. c #BA9897",
"Q. c #B8A69B",
"!. c #ACA19B",
"~. c #ACA9A6",
"^. c #B8AEA9",
"/. c #BEB4AF",
"(. c #D09393",
"). c #F58E8F",
"_. c #CDB496",
"`. c #F1BE84",
"'. c #C8BCB7",
"]. c #C9B5A7",
"[. c #F3C48B",
"{. c #F6C684",
"}. c #F4CC9B",
"|. c #EFC599",
" X c #D9C4AA",
".X c #C9C0BD",
"XX c #F4CFA6",
"oX c #F5D2A6",
"OX c #F4D3AD",
"+X c #E4D1BD",
"@X c #F6D5B2",
"#X c #F6D9B5",
"$X c #F6DBBD",
"%X c #FBDFBF",
"&X c #E2C9AB",
"*X c #FDE0BA",
"=X c #CECDCC",
"-X c #C6C5C4",
";X c #D5CBC8",
":X c #D9D2C9",
">X c #DAD7D4",
",X c #E2D3CC",
"<X c #F6DDC4",
"1X c #F3DBC8",
"2X c #E4DCD8",
"3X c #F7E0C6",
"4X c #F4E1CB",
"5X c #F8E3C7",
"6X c #E7E0DA",
"7X c #F5E3D4",
"8X c #F9EBDD",
"9X c #F6E6D9",
"0X c #ECE8E6",
"qX c #F6EAE5",
"wX c #F9ECE5",
"eX c #F7EDEA",
"rX c #F8EEEB",
"tX c #F3E5E1",
"yX c #FAF0E6",
"uX c #F9F2ED",
"iX c #F7F0EA",
"pX c #F7F4F2",
"aX c #FAF6F3",
"sX c #FCF8F6",
"dX c #FDFAF8",
"fX c None",
/* pixels */
"fXfXfXfXfXfXfXfXfXfXfXfXfXfXfXfXfXfXfXfXfXfXfXfXfXfXfXfXfXfXfXfXfXfXfXfXfXfXfXfXfXfXfXfXfXfXfXfXfXfXfXfXfXfXfXfXfXfXfXfXfXfXfXfX",
"fXfXfXfXfXfXfXfXfXfXfXfXfXfXfXfXfXfXfXfXfXfXfXfXfXfXfXfXfXfXfXfXfXfXfXfXfXfXfXfXfXfXfXfXfXfXfXfXfXfXfXfXfXfXfXfXfXfXfXfXfXfXfXfX",
"fXfXfXfXfXfXfXfXfXfXfXfXfXfXfXfXfXfXfXfXfXfXfXfXfXfXfXfXfXfXfXfXfXfXfXfX* fXfXfXfXfXfXfXfXfXfXfXfXfXfXfXfXfXfXfXfXfXfXfXfXfXfXfX",
"fXfXfXfXfXfXfXfXfXfXfXfXfXfXfXfXfXfXfXfXfXN 5 fXfXfXfXfXfXfXfXfXfXfXfX1 o.V fXfXfXfXfXfXfXfXfXfXfXfXfXfXfXfXfXfXfXfXfXfXfXfXfXfX",
"fXfXfXfXfXfXfXfXfXfXfXfXfXfXfXfXfXfXfXfXy 4...% fXfXfXfXfXfXfXfXfXfX@ L s.>.1 fXfXfXfXfXfXfXfXfXfXfXfXfXfXfXfXfXfXfXfXfXfXfXfXfX",
"fXfXfXfXfXfXfXfXfXfXfXfXfXfXfXfXfXfXfX@ E a.t.J fXfXfXfXfXfXfXfXfXfXH y.x.H.Y fXfXfXfXfXfXfXfXfXfXfXfXfXfXfXfXfXfXfXfXfXfXfXfXfX",
"fXfXfXfXfXfXfXfXfXfXfXfXfXfXfXfXfXfXfX7 4.9.a.e.w fXfXfXfXfXfXfXfX3 @.p.B.4XC.& fXfXfXfXfXfXfXfXfXfXfXfXfXfXfXfXfXfXfXfXfXfXfXfX",
"fXfXfXfXfXfXfXfXfXfXfXfXfXfXfXfXfXfXfXK w.x.B.a.O.* fXfXfXfXfXfXfX} s.z.}.eX|.q fXfXfXfXfXfXfXfXfXfXfXfXfXfXfXfXfXfXfXfXfXfXfXfX",
"fXfXfXfXfXfXfXfXfXfXfXfXfXfXfXfXfXfX1 -.9.S.<XB.y.D fXfXfXfXfXfXw e.u.m.9XpX$XR fXfXfXfXfXfXfXfXfXfXfXfXfXfXfXfXfXfXfXfXfXfXfXfX",
"fXfXfXfXfXfXfXfXfXfXfXfXfXfXfXfXfXfXq 3.9.[.aXoXx.;.1 fXfXfXfXfXL a.u.[.pXuX7Xj.$ fXfXfXfXfXfXfXfXfXfXfXfXfXfXfXfXfXfXfXfXfXfXfX",
"fXfXfXfXfXfXfXfXfXfXfXfXfXfXfXfXfXfXA q.z.@XaXwXD.t.N fXfXfXfX3 5.u.c.3XsXpXqXN.7 fXfXfXfXfXfXfXfXfXfXfXfXfXfXfXfXfXfXfXfXfXfXfX",
"fXfXfXfXfXfXfXfXfXfXfXfXfXfXfXfXfX@ ~ q.b.7XsXuXOXa.{ fXfXfXfXN p.u.D.iXsXaXeXJ.S fXfXfXfXfXfXfXfXfXfXfXfXfXfXfXfXfXfXfXfXfXfXfX",
"fXfXfXfXfXfXfXfXfXfXfXfXfXfXfXfXfX2 -.q.S.yXsXuX7XM.;.* fXfXfXF i.u.oXpXpXaXuX}.K fXfXfXfXfXfXfXfXfXfXfXfXfXfXfXfXfXfXfXfXfXfXfX",
"fXfXfXfXfXfXfXfXfXfXfXfXfXfXfXfXfX7 1.q.H.uXpXaXqX`.5.0 t u t 4 6 T +XdXsXaXpX@X/ fXfXfXfXfXfXfXfXfXfXfXfXfXfXfXfXfXfXfXfXfXfXfX",
"fXfXfXfXfXfXfXfXfXfXfXfXfXfXfXfXfXV 3.i.[.sXaXaXeXOXi.Y 9.9.a.5.{ r s ~.uXpXpX<X-.& fXfXfXfXfXfXfXfXfXfXfXfXfXfXfXfXfXfXfXfXfXfX",
"fXfXfXfXfXfXfXfXfXfXfXfXfXfXfXfXfXA 3.u.}.sXaXpXeX3Xb.7.9.9.9.x.a.y.X.t m 0XaX7X0.4 fXfXfXfXfXfXfXfXfXfXfXfXfXfXfXfXfXfXfXfXfXfX",
"fXfXfXfXfXfXfXfXfXfXfXfXfXfXfXfXfXP 6.w.OXsXaXaXeX9XK.9.z.a.9.9.9.x.p.#.r v 6XwXx.q fXfXfXfXfXfXfXfXfXfXfXfXfXfXfXfXfXfXfXfXfXfX",
"fXfXfXfXfXfXfXfXfXfXfXfXfXfXfXfXfXL 3.x.$XsXaXaXeX9XA.9.9.9.x.9.u.a.x.p.*.D v 2Xm.q fXfXfXfXfXfXfXfXfXfXfXfXfXfXfXfXfXfXfXfXfXfX",
"fXfXfXfXfXfXfXfXfXfXfXfXfXfXfXfXfX~ 3.x.<XsXaXuXqXOXx.u.x.x.9.9.u.u.u.u.p.&.H n N.i fXfXfXfXfXfXfXfXfXfXfXfXfXfXfXfXfXfXfXfXfXfX",
"fXfXfXfXfXfXfXfXfXfXfXfXfXfXfXfXfX^ 3.x.<XsXsXrX1XM.u.u.9.a.9.x.u.u.u.u.u.t.%.w U i fXfXfXfXfXfXfXfXfXfXfXfXfXfXfXfXfXfXfXfXfXfX",
"fXfXfXfXfXfXfXfXfXfXfXfXfXfXfXfXfXL 1.x.3XsXpX1XA.9.9.u.u.u.u.u.u.u.u.u.u.u.r.O.2 & fXfXfXfXfXfXfXfXfXfXfXfXfXfXfXfXfXfXfXfXfXfX",
"fXfXfXfXfXfXfXfXfXfXfXfXfXfXfXfXfXK 6.9.$XaX<XS.9.x.u.u.u.u.u.u.u.u.u.u.u.u.a.&.J + fXfXfXfXfXfXfXfXfXfXfXfXfXfXfXfXfXfXfXfXfXfX",
"fXfXfXfXfXfXfXfXfXfXfXfXfXfXfXfXfXq <.9.}.}.v.9.9.9.u.u.u.u.u.u.x.9.u.u.u.u.w.r.%.3 fXfXfXfXfXfXfXfXfXfXfXfXfXfXfXfXfXfXfXfXfXfX",
"fXfXfXfXfXfXfXfXfXfXfXfXfXfXfXfXfX4 ^ 8.x.x.u.x.H.L.M.u.u.u.u.u.9.9.x.9.9.9.m.H.P. .+ fXfXfXfXfXfXfXfXfXfXfXfXfXfXfXfXfXfXfXfXfX",
"fXfXfXfXfXfXfXfXfXfXfXfXfXfXfXfX# ~ 1.w.u.u.9.D.iXaXwX[.u.u.u.x.9.x.x.u.9.D.7XuXsXP.1 fXfXfXfXfXfXfXfXfXfXfXfXfXfXfXfXfXfXfXfXfX",
"fXfXfXfXfXfXfXfXfXfXfXfXfXfXfXfX4 <.3.9.u.u.9.b.oXiXaX8Xm.u.u.[.[.#X}.D.x.OXsXaX3Xd.N fXfXfXfXfXfXfXfXfXfXfXfXfXfXfXfXfXfXfXfXfX",
"fXfXfXfXfXfXfXfXfXfXfXfXfXfXfXfXC 1.8.x.u.u.u.9.x.D.{.D.x.u.x.3XsXaXsXoXu.M.{.H.c.$...X fXfXfXfXfXfXfXfXfXfXfXfXfXfXfXfXfXfXfXfX",
"fXfXfXfXfXfXfXfXfXfXfXfXfXfXfX; ( 1.9.9.u.u.9.q.4.6.8.9.u.u.B.wXsXaXsX<Xx.9.9.8.8.$.#.* fXfXfXfXfXfXfXfXfXfXfXfXfXfXfXfXfXfXfXfX",
"fXfXfXfXfXfXfXfXfXfXfXfXfXfXj '.}.9.u.u.u.9.3.<.E Q 7.u.u.u.{.pXaXaXaX8Xm.u.7.E Q 7.$._ O fXfXfXfXfXfXfXfXfXfXfXfXfXfXfXfXfXfXfX",
"fXfXfXfXfXfXfXfXfXfXfXfXfXk 2XdXwXD.9.u.x.8.<.f z =X].,.u.u.$XsXaXaXaXuXD.8.T x -X X;.{.~.o fXfXfXfXfXfXfXfXfXfXfXfXfXfXfXfXfXfX",
"fXfXfXfXfXfXfXfXfXfXfXfXfX: :XsXsX<Xm.9.u.4.( : k sX=X| a.D.yXaXaXsXsXsXoX:.< , pX>XQ P.U.. fXfXfXfXfXfXfXfXfXfXfXfXfXfXfXfXfXfX",
"fXfXfXfXfXfXfXfXfXfXfXfXfXa 2XsXaXaXOXn.9.6.E j O M z W a.@XsXaXuX>X-X=X4Xj.k O z z Y {.E.o fXfXfXfXfXfXfXfXfXfXfXfXfXfXfXfXfXfX",
"fXfXfXfXfXfXfXfXfXfXfXfXfX, ;XsXaXaXaXXXc.8.-.Q.I.  < :.L.iXaXsX'.C.(.(.'._.W.Y.  : | *X^.o fXfXfXfXfXfXfXfXfXfXfXfXfXfXfXfXfXfX",
"fXfXfXfXfXfXfXfXfXfXfXfXfXfX, '.uXpXaXpX#XB.1.j.b d W D.wXaXaXsXW.[ ).).W.2XC.) d W V.:X, fXfXfXfXfXfXfXfXfXfXfXfXfXfXfXfXfXfXfX",
"fXfXfXfXfXfXfXfXfXfXfXfXfXfXfX< ^.wXrXpXaX8X}.B.z.N.}.wXsXsXaXaX0XW.] W.2XsX<XK.l.H.4Xv fXfXfXfXfXfXfXfXfXfXfXfXfXfXfXfXfXfXfXfX",
"fXfXfXfXfXfXfXfXfXfXfXfXfXfXfXfX; E.9XqXeXrXaXrXyXuXsXaXaXaXaXaXpX=XM -XpXsXsXpX8XeXf.  fXfXfXfXfXfXfXfXfXfXfXfXfXfXfXfXfXfXfXfX",
"fXfXfXfXfXfXfXfXfXfXfXfXfXfXfXfXfXo n ;XqXqXqXeXiXuXpXaXaXaXaXsX6X~.~.^.0XaXaXrXrXY.o fXfXfXfXfXfXfXfXfXfXfXfXfXfXfXfXfXfXfXfXfX",
"fXfXfXfXfXfXfXfXfXfXfXfXfXfXfXfXfXfXfX: f.;XtXwXqXqXqXqXeXeXiXuXeXuXsXrXqXeXwX2X' o fXfXfXfXfXfXfXfXfXfXfXfXfXfXfXfXfXfXfXfXfXfX",
"fXfXfXfXfXfXfXfXfXfXfXfXfXfXfXfXfXfXfXfXfX; c Y.].;X2XtXtXqXwXeXeXeXwXwXtX,XE.j   fXfXfXfXfXfXfXfXfXfXfXfXfXfXfXfXfXfXfXfXfXfXfX",
"fXfXfXfXfXfXfXfXfXfXfXfXfXfXfXfXfXfXfXfXfXfXfXfXo ; 8 c n ' Y.T.E.E.E.' c < o fXfXfXfXfXfXfXfXfXfXfXfXfXfXfXfXfXfXfXfXfXfXfXfXfX",
"fXfXfXfXfXfXfXfXfXfXfXfXfXfXfXfXfXfXfXfXfXfXfXfXfXfX4 R R _ U.m b @ . fXfXfXfXfXfXfXfXfXfXfXfXfXfXfXfXfXfXfXfXfXfXfXfXfXfXfXfXfX",
"fXfXfXfXfXfXfXfXfXfXfXfXfXfXfXfXfXfXfXfXfXfXfXfXfXG 7.2.x.%XdXsXwX` fXfXfXfXfXfXfXfXfXfXfXfXfXfXfXfXfXfXfXfXfXfXfXfXfXfXfXfXfXfX",
"fXfXfXfXfXfXfXfXfXfXfXfXfXfXfXfXfXfXfXfXfXfXfXfXG p.-.R A.uXsXaXsX].- fXfXfXfXfXfXfXfXfXfXfXfXfXfXfXfXfXfXfXfXfXfXfXfXfXfXfXfXfX",
"fXfXfXfXfXfXfXfXfXfXfXfXfXfXfXfXfXfXfXfX  fXfXr 8.>.K 0.oXpXpXsXsX8Xd fXfXfXfXfXfXfXfXfXfXfXfXfXfXfXfXfXfXfXfXfXfXfXfXfXfXfXfXfX",
"fXfXfXfXfXfXfXfXfXfXfXfXfXfXfXfXfXfXfXf.a fX% =.9.E ! n.5XsXaXaXaXaX` fXfXfXfXfXfXfXfXfXfXfXfXfXfXfXfXfXfXfXfXfXfXfXfXfXfXfXfXfX",
"fXfXfXfXfXfXfXfXfXfXfXfXfXfXfXfXfXfXm >Xa fXw i.9.A :.B.wXaXaXaXaXsX_.X fXfXfXfXfXfXfXfXfXfXfXfXfXfXfXfXfXfXfXfXfXfXfXfXfXfXfXfX",
"fXfXfXfXfXfXfXfXfXfXfXfXfXfXfXfXfX: ;X0Xj fXF p.0.V >.D.yXsXaXaXaXsX Xt 5 fXfXfXfXfXfXfXfXfXfXfXfXfXfXfXfXfXfXfXfXfXfXfXfXfXfXfX",
"fXfXfXfXfXfXfXfXfXfXfXfXfXfXfXfXfXl 7X}.g fX) L.v.p 7.D.uXaXpXsXaXsX+XV k.8 fXfXfXfXfXfXfXfXfXfXfXfXfXfXfXfXfXfXfXfXfXfXfXfXfXfX",
"fXfXfXfXfXfXfXfXfXfXfXfXfXfXfXfXfXx G.a.;.y 8 /.Q.I 9.S.wXsXaXpXsXdX XT +Xl fXfXfXfXfXfXfXfXfXfXfXfXfXfXfXfXfXfXfXfXfXfXfXfXfXfX",
"fXfXfXfXfXfXfXfXfXfXfXfXfXfXfXfXfX- E q.u.9.{ T 9 K 3.x.#XsXsXaXsXyXk.l m fXfXfXfXfXfXfXfXfXfXfXfXfXfXfXfXfXfXfXfXfXfXfXfXfXfXfX",
"fXfXfXfXfXfXfXfXfXfXfXfXfXfXfXfXfXfXu <.8.9.w.w.! C 2.8.m.@XwXwX4XH.Z fXfXfXfXfXfXfXfXfXfXfXfXfXfXfXfXfXfXfXfXfXfXfXfXfXfXfXfXfX",
"fXfXfXfXfXfXfXfXfXfXfXfXfXfXfXfXfXfXfXi +.1.6.1.~ 5 ;.9.( =.n.b.8.K * fXfXfXfXfXfXfXfXfXfXfXfXfXfXfXfXfXfXfXfXfXfXfXfXfXfXfXfXfX",
"fXfXfXfXfXfXfXfXfXfXfXfXfXfXfXfXfXfXfXfX2 C K C & r r.a.>.i ~ P i V J fXfXfXfXfXfXfXfXfXfXfXfXfXfXfXfXfXfXfXfXfXfXfXfXfXfXfXfXfX",
"fXfXfXfXfXfXfXfXfXfXfXfXfXfXfXfXfXfXfXfXfXfXfXfXfXJ &.u.u.u @ p Q t.O.1 fXfXfXfXfXfXfXfXfXfXfXfXfXfXfXfXfXfXfXfXfXfXfXfXfXfXfXfX",
"fXfXfXfXfXfXfXfXfXfXfXfXfXfXfXfXfXfXfXfXfXfXfXfXfX} &.u.a.G & 7.u.y.%.3 fXfXfXfXfXfXfXfXfXfXfXfXfXfXfXfXfXfXfXfXfXfXfXfXfXfXfXfX",
"fXfXfXfXfXfXfXfXfXfXfXfXfXfXfXfXfXfXfXfXfXfXfXfXfXo.&.a.a.P 5 0.u.r.*.0 fXfXfXfXfXfXfXfXfXfXfXfXfXfXfXfXfXfXfXfXfXfXfXfXfXfXfXfX",
"fXfXfXfXfXfXfXfXfXfXfXfXfXfXfXfXfXfXfXfXfXfXfXfXfXX.&.a.w.E u 8.u.y.*.w fXfXfXfXfXfXfXfXfXfXfXfXfXfXfXfXfXfXfXfXfXfXfXfXfXfXfXfX",
"fXfXfXfXfXfXfXfXfXfXfXfXfXfXfXfXfXfXfXfXfXfXfXfXfXo.&.a.9./ S 8.x.y.*.w fXfXfXfXfXfXfXfXfXfXfXfXfXfXfXfXfXfXfXfXfXfXfXfXfXfXfXfX",
"fXfXfXfXfXfXfXfXfXfXfXfXfXfXfXfXfXfXfXfXfXfXfXfXfX..&.9.q./ i 4.u.t.*.w fXfXfXfXfXfXfXfXfXfXfXfXfXfXfXfXfXfXfXfXfXfXfXfXfXfXfXfX",
"fXfXfXfXfXfXfXfXfXfXfXfXfXfXfXfXfXfXfXfXfXfXfXfXfXh.H.S.H.h.f M.x.m.V.g fXfXfXfXfXfXfXfXfXfXfXfXfXfXfXfXfXfXfXfXfXfXfXfXfXfXfXfX",
"fXfXfXfXfXfXfXfXfXfXfXfXfXfXfXfXfXfXfXfXfXfXfXfXfXz '.,X'.z : ].1X1X^.< fXfXfXfXfXfXfXfXfXfXfXfXfXfXfXfXfXfXfXfXfXfXfXfXfXfXfXfX",
"fXfXfXfXfXfXfXfXfXfXfXfXfXfXfXfXfXfXfXfXfXfXfXfXfXfX: a ; fXfX: c v : fXfXfXfXfXfXfXfXfXfXfXfXfXfXfXfXfXfXfXfXfXfXfXfXfXfXfXfXfX",
"fXfXfXfXfXfXfXfXfXfXfXfXfXfXfXfXfXfXfXfXfXfXfXfXfXfXfXfXfXfXfXfXfXfXfXfXfXfXfXfXfXfXfXfXfXfXfXfXfXfXfXfXfXfXfXfXfXfXfXfXfXfXfXfX",
"fXfXfXfXfXfXfXfXfXfXfXfXfXfXfXfXfXfXfXfXfXfXfXfXfXfXfXfXfXfXfXfXfXfXfXfXfXfXfXfXfXfXfXfXfXfXfXfXfXfXfXfXfXfXfXfXfXfXfXfXfXfXfXfX"
};
