/* XPM */
static char *Walk__2_[] = {
/* columns rows colors chars-per-pixel */
"64 64 234 2 ",
"   c #020201",
".  c #0B0601",
"X  c #0A0A0A",
"o  c #17120A",
"O  c #1A1C1E",
"+  c #2C1D04",
"@  c #221608",
"#  c #321E06",
"$  c #221D18",
"%  c #2E2004",
"&  c #342404",
"*  c #3A2706",
"=  c #2C251F",
"-  c #1E1F20",
";  c #2D2C2B",
":  c #282624",
">  c #312D29",
",  c #37332D",
"<  c #3A3836",
"1  c #4C2E0A",
"2  c #422A08",
"3  c #493407",
"4  c #53330A",
"5  c #573B0A",
"6  c #623B0C",
"7  c #433D38",
"8  c #513F29",
"9  c #584112",
"0  c #69480A",
"q  c #72480E",
"w  c #79550C",
"e  c #6D4512",
"r  c #694815",
"t  c #7A4B11",
"y  c #734910",
"u  c #765314",
"i  c #5B452B",
"p  c #474039",
"a  c #554738",
"s  c #675235",
"d  c #7D5D38",
"f  c #4D4745",
"g  c #5A5349",
"h  c #5A5653",
"j  c #585858",
"k  c #6D5D4C",
"l  c #615C56",
"z  c #785F41",
"x  c #65605C",
"c  c #68625E",
"v  c #796A55",
"b  c #766045",
"n  c #6B6661",
"m  c #656565",
"M  c #75726E",
"N  c #7A736E",
"B  c #787676",
"V  c #766F6B",
"C  c #85580D",
"Z  c #804E11",
"A  c #8C5613",
"S  c #875812",
"D  c #935A13",
"F  c #9D5F15",
"G  c #804D0E",
"H  c #9C6E0C",
"J  c #93670C",
"K  c #8F6119",
"L  c #9C631D",
"P  c #976618",
"I  c #936A14",
"U  c #A3720D",
"Y  c #A86617",
"T  c #B16D1A",
"R  c #A57312",
"E  c #B97717",
"W  c #B47F0E",
"Q  c #8A5F29",
"!  c #93632A",
"~  c #82623A",
"^  c #986B33",
"/  c #9F733C",
"(  c #AA6D22",
")  c #AA7229",
"_  c #B77A29",
"`  c #A97637",
"'  c #B17A36",
"]  c #C5791E",
"[  c #C6791A",
"{  c #C77E23",
"}  c #8A7357",
"|  c #947048",
" . c #A87D48",
".. c #857D78",
"X. c #8E6B6A",
"o. c #D37F7F",
"O. c #E57474",
"+. c #BC8513",
"@. c #BC8227",
"#. c #C48814",
"$. c #D89717",
"%. c #D08E12",
"&. c #E48B1E",
"*. c #E49F18",
"=. c #EEA817",
"-. c #FAAE1F",
";. c #F4AD15",
":. c #FFB415",
">. c #FEB21C",
",. c #ECA60F",
"<. c #CB862C",
"1. c #DC8E2C",
"2. c #D78827",
"3. c #DC932E",
"4. c #D59324",
"5. c #C98736",
"6. c #DE9234",
"7. c #D28C39",
"8. c #E68E22",
"9. c #ED9324",
"0. c #EE962A",
"q. c #E8972B",
"w. c #F09629",
"e. c #ED9B34",
"r. c #EE9F3B",
"t. c #E69A38",
"y. c #F09C34",
"u. c #F19F38",
"i. c #EBA225",
"p. c #F9AC25",
"a. c #F6A82B",
"s. c #F5A82C",
"d. c #EEA03E",
"f. c #EFA236",
"g. c #F3A533",
"h. c #F1A23B",
"j. c #F6A934",
"k. c #FCBD39",
"l. c #B49978",
"z. c #B2916D",
"x. c #DC9947",
"c. c #C08F56",
"v. c #E09946",
"b. c #DFAC5E",
"n. c #EEA243",
"m. c #EEA54A",
"M. c #F1A643",
"N. c #EFAA53",
"B. c #EAA95B",
"V. c #F1AE5C",
"C. c #F0AB55",
"Z. c #EFB35A",
"A. c #C99D66",
"S. c #C7A77B",
"D. c #D5AE7E",
"F. c #DEB068",
"G. c #EDAE65",
"H. c #EEB167",
"J. c #F1B163",
"K. c #F1B56C",
"L. c #F1B671",
"P. c #F2BA73",
"I. c #F3BD7D",
"U. c #E2B17C",
"Y. c #FFC95A",
"T. c #F5C07E",
"R. c #868483",
"E. c #938986",
"W. c #948E89",
"Q. c #979290",
"!. c #B88988",
"~. c #A49C98",
"^. c #B29998",
"/. c #AFA79F",
"(. c #B0ADAA",
"). c #BEB2AC",
"_. c #B9B5B1",
"`. c #A4A2A0",
"'. c #D39191",
"]. c #F48989",
"[. c #C2AA8E",
"{. c #CDB497",
"}. c #DABE9D",
"|. c #F2BF87",
" X c #C5BAB6",
".X c #CAB8A2",
"XX c #E9A7A7",
"oX c #F3C58D",
"OX c #F6C684",
"+X c #F5C995",
"@X c #F4CA9B",
"#X c #F5C998",
"$X c #F3D29A",
"%X c #CDC1BC",
"&X c #DFC3A4",
"*X c #F2CEA7",
"=X c #F5D2A4",
"-X c #F5D4AD",
";X c #F5D5B2",
":X c #F6DCBC",
">X c #F6D7B4",
",X c #EFCDA4",
"<X c #F9E1BF",
"1X c #C6C4C2",
"2X c #D2CECB",
"3X c #D4C7C3",
"4X c #DCD7D5",
"5X c #DAD9D9",
"6X c #DDD3C4",
"7X c #F7DEC2",
"8X c #F4DDCB",
"9X c #F8DFC1",
"0X c #E8DBD7",
"qX c #EDDECD",
"wX c #F8E5CE",
"eX c #F8E1C5",
"rX c #E9E1DD",
"tX c #F4E5DD",
"yX c #FAECDC",
"uX c #F7E4D3",
"iX c #E9E5E2",
"pX c #EAE6E3",
"aX c #F6EAE5",
"sX c #F9ECE4",
"dX c #F6EDEA",
"fX c #F8EEEA",
"gX c #F5E7E3",
"hX c #F9F1ED",
"jX c #F9F0E8",
"kX c #FAF6F3",
"lX c #FCF9F6",
"zX c #FDFCFB",
"xX c #F7F3F0",
"cX c None",
/* pixels */
"cXcXcXcXcXcXcXcXcXcXcXcXcXcXcXcXcXcXcXcXcXcXcXcXcXcXcXcXcXcXcXcXcXcXcXcXcXcXcXcXcXcXcXcXcXcXcXcXcXcXcXcXcXcXcXcXcXcXcXcXcXcXcXcX",
"cXcXcXcXcXcXcXcXcXcXcXcXcXcXcXcXcXcXcXcXcXcXcXcXcXcXcXcXcXcXcXcXcXcXcXcXcXcXcXcXcXcXcXcXcXcXcXcXcXcXcXcXcXcXcXcXcXcXcXcXcXcXcXcX",
"cXcXcXcXcXcXcXcXcXcXcXcXcXcXcXcXcXcXcXcXcX& cXcXcXcXcXcXcXcXcXcXcXcXcXcXcX& + cXcXcXcXcXcXcXcXcXcXcXcXcXcXcXcXcXcXcXcXcXcXcXcXcX",
"cXcXcXcXcXcXcXcXcXcXcXcXcXcXcXcXcXcXcXcXe #.3 cXcXcXcXcXcXcXcXcXcXcXcXcX& +.P cXcXcXcXcXcXcXcXcXcXcXcXcXcXcXcXcXcXcXcXcXcXcXcXcX",
"cXcXcXcXcXcXcXcXcXcXcXcXcXcXcXcXcXcXcX# { j.+.% cXcXcXcXcXcXcXcXcXcXcX+ W s.1.1 cXcXcXcXcXcXcXcXcXcXcXcXcXcXcXcXcXcXcXcXcXcXcXcX",
"cXcXcXcXcXcXcXcXcXcXcXcXcXcXcXcXcXcXcXy e.n.s.H cXcXcXcXcXcXcXcXcXcXcXH s.n.K.Q cXcXcXcXcXcXcXcXcXcXcXcXcXcXcXcXcXcXcXcXcXcXcXcX",
"cXcXcXcXcXcXcXcXcXcXcXcXcXcXcXcXcXcXcXT u.n.h.i.0 cXcXcXcXcXcXcXcXcXw i.u.G.8Xc.cXcXcXcXcXcXcXcXcXcXcXcXcXcXcXcXcXcXcXcXcXcXcXcX",
"cXcXcXcXcXcXcXcXcXcXcXcXcXcXcXcXcXcX1 2.r.J.P.h.$.* cXcXcXcXcXcXcX3 $.h.n.-XdXU.4 cXcXcXcXcXcXcXcXcXcXcXcXcXcXcXcXcXcXcXcXcXcXcX",
"cXcXcXcXcXcXcXcXcXcXcXcXcXcXcXcXcXcXt q.r.@XtXV.g.I cXcXcXcXcXcXcXW g.d.L.aXfX@Xy cXcXcXcXcXcXcXcXcXcXcXcXcXcXcXcXcXcXcXcXcXcXcX",
"cXcXcXcXcXcXcXcXcXcXcXcXcXcXcXcXcXcXY e.n.7XkX-Xn.$.3 cXcXcXcXcX9 9.d.n.:XlXxX;X! cXcXcXcXcXcXcXcXcXcXcXcXcXcXcXcXcXcXcXcXcXcXcX",
"cXcXcXcXcXcXcXcXcXcXcXcXcXcXcXcXcX# [ y.C.yXkXgXL.g.w cXcXcXcXcXR g.d.K.hXkXxX7X_ cXcXcXcXcXcXcXcXcXcXcXcXcXcXcXcXcXcXcXcXcXcXcX",
"cXcXcXcXcXcXcXcXcXcXcXcXcXcXcXcXcX4 2.r.K.jXkXhX-Xh.E cXcXcXcX* 4.d.n.>XkXkXxXwX7.2 cXcXcXcXcXcXcXcXcXcXcXcXcXcXcXcXcXcXcXcXcXcX",
"cXcXcXcXcXcXcXcXcXcXcXcXcXcXcXcXcXe 8.r.T.kXlXxXuXV.4.+ . .   & <.t.H.jXkXkXkXtXv.4 cXcXcXcXcXcXcXcXcXcXcXcXcXcXcXcXcXcXcXcXcXcX",
"cXcXcXcXcXcXcXcXcXcXcXcXcXcXcXcXcXA 9.r.+XkXkXxXaX|.q.y ( ) P w 5 r S.lXkXkXkXtXm.6 cXcXcXcXcXcXcXcXcXcXcXcXcXcXcXcXcXcXcXcXcXcX",
"cXcXcXcXcXcXcXcXcXcXcXcXcXcXcXcXcXP 0.d.,XlXxXkXdX-Xd.<.n.h.h.g.3.U 9 R.pXlXkXaXB.y cXcXcXcXcXcXcXcXcXcXcXcXcXcXcXcXcXcXcXcXcXcX",
"cXcXcXcXcXcXcXcXcXcXcXcXcXcXcXcXcXY 0.n.>XkXkXkXdXqXN.d.r.n.r.n.d.j.*.w h 5XlXjXH.G cXcXcXcXcXcXcXcXcXcXcXcXcXcXcXcXcXcXcXcXcXcX",
"cXcXcXcXcXcXcXcXcXcXcXcXcXcXcXcXcXE w.n.:XkXkXkXdXtXG.r.n.r.d.d.d.d.f.-.H g 4XhXK.C cXcXcXcXcXcXcXcXcXcXcXcXcXcXcXcXcXcXcXcXcXcX",
"cXcXcXcXcXcXcXcXcXcXcXcXcXcXcXcXcX[ 0.n.7XkXkXkXaXqXN.r.r.n.d.d.d.d.d.f.>.U g 4XP.S cXcXcXcXcXcXcXcXcXcXcXcXcXcXcXcXcXcXcXcXcXcX",
"cXcXcXcXcXcXcXcXcXcXcXcXcXcXcXcXcX[ 0.n.7XlXkXfXtXI.d.d.r.r.n.d.d.d.d.d.g.>.J c H.A cXcXcXcXcXcXcXcXcXcXcXcXcXcXcXcXcXcXcXcXcXcX",
"cXcXcXcXcXcXcXcXcXcXcXcXcXcXcXcXcXE 0.n.7XkXkXdX@Xn.d.d.n.r.r.d.d.d.d.d.d.g.;.w ! G cXcXcXcXcXcXcXcXcXcXcXcXcXcXcXcXcXcXcXcXcXcX",
"cXcXcXcXcXcXcXcXcXcXcXcXcXcXcXcXcXT 9.r.:XlXfX*Xm.d.d.d.d.d.d.d.d.d.d.d.d.d.a.$.4 2 cXcXcXcXcXcXcXcXcXcXcXcXcXcXcXcXcXcXcXcXcXcX",
"cXcXcXcXcXcXcXcXcXcXcXcXcXcXcXcXcXD 9.r.;XsX+Xm.d.d.d.d.d.d.d.d.d.d.d.d.d.d.f.>.H . cXcXcXcXcXcXcXcXcXcXcXcXcXcXcXcXcXcXcXcXcXcX",
"cXcXcXcXcXcXcXcXcXcXcXcXcXcXcXcXcX1 [ e.L.L.n.r.n.n.d.d.d.d.d.d.d.d.d.n.d.d.r.s.=.3 cXcXcXcXcXcXcXcXcXcXcXcXcXcXcXcXcXcXcXcXcXcX",
"cXcXcXcXcXcXcXcXcXcXcXcXcXcXcXcX@ A { r.r.r.r.V.:X:XoXm.d.d.d.d.d.d.d.d.d.d.N.P.Y.R cXcXcXcXcXcXcXcXcXcXcXcXcXcXcXcXcXcXcXcXcXcX",
"cXcXcXcXcXcXcXcXcXcXcXcXcXcXcXcX4 &.w.u.r.r.r.J.fXlXkX;Xn.d.d.m.d.N.n.n.d.T.uXxXkXF.& cXcXcXcXcXcXcXcXcXcXcXcXcXcXcXcXcXcXcXcXcX",
"cXcXcXcXcXcXcXcXcXcXcXcXcXcXcXcXA 9.e.n.n.r.n.n.P.9XyX>Xn.d.n.-X=XwX-XK.n.:XlXxX<Xk.0 cXcXcXcXcXcXcXcXcXcXcXcXcXcXcXcXcXcXcXcXcX",
"cXcXcXcXcXcXcXcXcXcXcXcXcXcXcX@ [ 9.u.n.n.r.n.r.r.n.N.m.d.d.N.yXkXkXkX+Xr.Z.OXP.M.:.U cXcXcXcXcXcXcXcXcXcXcXcXcXcXcXcXcXcXcXcXcX",
"cXcXcXcXcXcXcXcXcXcXcXcXcXcX< /.H.e.r.r.r.r.e.0.8.8.e.d.d.d.T.hXxXkXlX>Xd.d.r.e.f.>.%.o cXcXcXcXcXcXcXcXcXcXcXcXcXcXcXcXcXcXcXcX",
"cXcXcXcXcXcXcXcXcXcXcXcX  h 4XzX7Xm.d.d.d.e.8.) b l.x.t.d.n.>XlXkXkXkXeXn.d.3._ 5.9.=.s X cXcXcXcXcXcXcXcXcXcXcXcXcXcXcXcXcXcXcX",
"cXcXcXcXcXcXcXcXcXcXcXcXcXl dXkXkXoXd.d.d.0._ > B zX&X6.d.B.yXkXkXkXkXyXV.6.s j 6X[.9.$XV . cXcXcXcXcXcXcXcXcXcXcXcXcXcXcXcXcXcX",
"cXcXcXcXcXcXcXcXcXcXcXcXcXh pXlXkXsXK.r.d.9.^ O j 5XQ.5.d.$XkXkXkXzXkXkXT.' : m zX%X<.$XM cXcXcXcXcXcXcXcXcXcXcXcXcXcXcXcXcXcXcX",
"cXcXcXcXcXcXcXcXcXcXcXcX  M hXkXkXkXwXV.r.0.` R.; O < 7.J.jXkXkXiX X X2X;X| 7 : B j @.=Xx cXcXcXcXcXcXcXcXcXcXcXcXcXcXcXcXcXcXcX",
"cXcXcXcXcXcXcXcXcXcXcXcXcXX z.dXkXkXkXwXJ.q.<..Xj ; ~ m.7XkXkXdX!.'.XX'.%XA._.j X p x.yXE.  cXcXcXcXcXcXcXcXcXcXcXcXcXcXcXcXcXcX",
"cXcXcXcXcXcXcXcXcXcXcXcXcXcXX ..tXfXkXkXyXoXn.2.^ ` b.eXkXkXkXdX'.O.].o. X:Xz.k s _ OX X: cXcXcXcXcXcXcXcXcXcXcXcXcXcXcXcXcXcXcX",
"cXcXcXcXcXcXcXcXcXcXcXcXcXcXcXX V 0XaXdXkXkXuX-X@X>XaXlXkXkXkXkX0X^.X. XdXhX=Xx.v.OX6Xp cXcXcXcXcXcXcXcXcXcXcXcXcXcXcXcXcXcXcXcX",
"cXcXcXcXcXcXcXcXcXcXcXcXcXcXcXcX. h 3XaXgXgXfXkXkXlXlXkXkXkXkXkXrXW.m 5XlXlXlXsXsXrXj cXcXcXcXcXcXcXcXcXcXcXcXcXcXcXcXcXcXcXcXcX",
"cXcXcXcXcXcXcXcXcXcXcXcXcXcXcXcXcXcX, W.0XaXaXaXdXfXfXkXkXkXkXkX2X X X1XxXkXhXkX0Xn cXcXcXcXcXcXcXcXcXcXcXcXcXcXcXcXcXcXcXcXcXcX",
"cXcXcXcXcXcXcXcXcXcXcXcXcXcXcXcXcXcXcXX 7 E.%X0XaXaXaXaXdXfXdXdXxXhXhXfXaXjXaX%Xg cXcXcXcXcXcXcXcXcXcXcXcXcXcXcXcXcXcXcXcXcXcXcX",
"cXcXcXcXcXcXcXcXcXcXcXcXcXcXcXcXcXcXcXcXcXcX= f V ~. X3X0X0XgXaXaXaXgXgXrX X..: cXcXcXcXcXcXcXcXcXcXcXcXcXcXcXcXcXcXcXcXcXcXcXcX",
"cXcXcXcXcXcXcXcXcXcXcXcXcXcXcXcXcXcXcXcXcXcXcXcXcX  $ 8 a g n M ......c p - cXcXcXcXcXcXcXcXcXcXcXcXcXcXcXcXcXcXcXcXcXcXcXcXcXcX",
"cXcXcXcXcXcXcXcXcXcXcXcXcXcXcXcXcXcXcXcXcXcXcXcXcXcXu 3.7.[._.`.} o cXcXcXcXcXcXcXcXcXcXcXcXcXcXcXcXcXcXcXcXcXcXcXcXcXcXcXcXcXcX",
"cXcXcXcXcXcXcXcXcXcXcXcXcXcXcXcXcXcXcXcXcXcXcXcXcXr 3.{ G.jXlXlXsXb cXcXcXcXcXcXcXcXcXcXcXcXcXcXcXcXcXcXcXcXcXcXcXcXcXcXcXcXcXcX",
"cXcXcXcXcXcXcXcXcXcXcXcXcXcXcXcXcXcXcXcXcXcXcXcXcXE q.( ,XkXkXkXlX[.@ cXcXcXcXcXcXcXcXcXcXcXcXcXcXcXcXcXcXcXcXcXcXcXcXcXcXcXcXcX",
"cXcXcXcXcXcXcXcXcXcXcXcXcXcXcXcXcXcXcX, < cXcXcX3 3.<.` wXkXkXkXlXqXi cXcXcXcXcXcXcXcXcXcXcXcXcXcXcXcXcXcXcXcXcXcXcXcXcXcXcXcXcX",
"cXcXcXcXcXcXcXcXcXcXcXcXcXcXcXcXcXcX> (.N cXcXcXq f.<. .jXkXkXkXkXhX} cXcXcXcXcXcXcXcXcXcXcXcXcXcXcXcXcXcXcXcXcXcXcXcXcXcXcXcXcX",
"cXcXcXcXcXcXcXcXcXcXcXcXcXcXcXcXcXcXW.lXn cXcXcXK j.2.| hXkXkXkXkXlXl.cXcXcXcXcXcXcXcXcXcXcXcXcXcXcXcXcXcXcXcXcXcXcXcXcXcXcXcXcX",
"cXcXcXcXcXcXcXcXcXcXcXcXcXcXcXcXcX> 2XyXv cXcXcXK h.q.~ iXkXkXkXkXlX{.@ cXcXcXcXcXcXcXcXcXcXcXcXcXcXcXcXcXcXcXcXcXcXcXcXcXcXcXcX",
"cXcXcXcXcXcXcXcXcXcXcXcXcXcXcXcXcXp &XJ.@.% cXcXw e.e.! 1XlXkXkXkXlX}.i , cXcXcXcXcXcXcXcXcXcXcXcXcXcXcXcXcXcXcXcXcXcXcXcXcXcXcX",
"cXcXcXcXcXcXcXcXcXcXcXcXcXcXcXcXcX> 7.u.r._ 0 cX3 b.#Xl.(.zXkXkXhXlXD.v f cXcXcXcXcXcXcXcXcXcXcXcXcXcXcXcXcXcXcXcXcXcXcXcXcXcXcX",
"cXcXcXcXcXcXcXcXcXcXcXcXcXcXcXcXcXcXD 9.r.h.r.3.r x ~.k {.kXkXkXlXeX' > cXcXcXcXcXcXcXcXcXcXcXcXcXcXcXcXcXcXcXcXcXcXcXcXcXcXcXcX",
"cXcXcXcXcXcXcXcXcXcXcXcXcXcXcXcXcXcX# E 9.e.e.h.( 2 S 5.n.+X7X7X+Xt.5 cXcXcXcXcXcXcXcXcXcXcXcXcXcXcXcXcXcXcXcXcXcXcXcXcXcXcXcXcX",
"cXcXcXcXcXcXcXcXcXcXcXcXcXcXcXcXcXcXcX2 Y &.8.&.D U j.r.{ 9.w.q.2.t C * cXcXcXcXcXcXcXcXcXcXcXcXcXcXcXcXcXcXcXcXcXcXcXcXcXcXcXcX",
"cXcXcXcXcXcXcXcXcXcXcXcXcXcXcXcXcXcXcXcXcX4 e 5 5 =.g.n.L D Y t e ) ;.C cXcXcXcXcXcXcXcXcXcXcXcXcXcXcXcXcXcXcXcXcXcXcXcXcXcXcXcX",
"cXcXcXcXcXcXcXcXcXcXcXcXcXcXcXcXcXcXcXcXcXcXcXcXH :.g.h.L . cX4 6.h.>.%.cXcXcXcXcXcXcXcXcXcXcXcXcXcXcXcXcXcXcXcXcXcXcXcXcXcXcXcX",
"cXcXcXcXcXcXcXcXcXcXcXcXcXcXcXcXcXcXcXcXcXcXcX& $.>.f.h.L cXcXe t.d.p.=.9 cXcXcXcXcXcXcXcXcXcXcXcXcXcXcXcXcXcXcXcXcXcXcXcXcXcXcX",
"cXcXcXcXcXcXcXcXcXcXcXcXcXcXcXcXcXcXcXcXcXcXcX0 ;.p.r.r.A cXcX6 q.n.s.:.J cXcXcXcXcXcXcXcXcXcXcXcXcXcXcXcXcXcXcXcXcXcXcXcXcXcXcX",
"cXcXcXcXcXcXcXcXcXcXcXcXcXcXcXcXcXcXcXcXcXcXcXJ :.g.n.t.y cXcX1 1.n.g.:.W cXcXcXcXcXcXcXcXcXcXcXcXcXcXcXcXcXcXcXcXcXcXcXcXcXcXcX",
"cXcXcXcXcXcXcXcXcXcXcXcXcXcXcXcXcXcXcXcXcXcXcX#.>.u.r.8.4 cXcX# { d.h.p.$.& cXcXcXcXcXcXcXcXcXcXcXcXcXcXcXcXcXcXcXcXcXcXcXcXcXcX",
"cXcXcXcXcXcXcXcXcXcXcXcXcXcXcXcXcXcXcXcXcXcXcXS.C.h.y.[ + cXcXcXY y.r.h.Z.7 cXcXcXcXcXcXcXcXcXcXcXcXcXcXcXcXcXcXcXcXcXcXcXcXcXcX",
"cXcXcXcXcXcXcXcXcXcXcXcXcXcXcXcXcXcXcXcXcXcXcXE.8X+X|.| cXcXcXcX~ K.I.;X).; cXcXcXcXcXcXcXcXcXcXcXcXcXcXcXcXcXcXcXcXcXcXcXcXcXcX",
"cXcXcXcXcXcXcXcXcXcXcXcXcXcXcXcXcXcXcXcXcXcXcX: V ~.W.< cXcXcXcX> E. XQ.p cXcXcXcXcXcXcXcXcXcXcXcXcXcXcXcXcXcXcXcXcXcXcXcXcXcXcX",
"cXcXcXcXcXcXcXcXcXcXcXcXcXcXcXcXcXcXcXcXcXcXcXcXcXcXcXcXcXcXcXcXcXcXcXcXcXcXcXcXcXcXcXcXcXcXcXcXcXcXcXcXcXcXcXcXcXcXcXcXcXcXcXcX",
"cXcXcXcXcXcXcXcXcXcXcXcXcXcXcXcXcXcXcXcXcXcXcXcXcXcXcXcXcXcXcXcXcXcXcXcXcXcXcXcXcXcXcXcXcXcXcXcXcXcXcXcXcXcXcXcXcXcXcXcXcXcXcXcX",
"cXcXcXcXcXcXcXcXcXcXcXcXcXcXcXcXcXcXcXcXcXcXcXcXcXcXcXcXcXcXcXcXcXcXcXcXcXcXcXcXcXcXcXcXcXcXcXcXcXcXcXcXcXcXcXcXcXcXcXcXcXcXcXcX"
};
