/* XPM */
static char *Walk__3_[] = {
/* columns rows colors chars-per-pixel */
"64 64 215 2 ",
"   c #090705",
".  c #150D02",
"X  c #110F0E",
"o  c #1B1303",
"O  c #141313",
"+  c #1A1817",
"@  c #0F1113",
"#  c #221604",
"$  c #2C1D05",
"%  c #251A03",
"&  c #321E05",
"*  c #3C2A05",
"=  c #352207",
"-  c #322B1B",
";  c #1D1F20",
":  c #292928",
">  c #332D27",
",  c #3F3C3A",
"<  c #3D3A37",
"1  c #36322F",
"2  c #4C2E0A",
"3  c #482C0A",
"4  c #4C3407",
"5  c #54340B",
"6  c #57380A",
"7  c #49361F",
"8  c #653E0D",
"9  c #6B4B0C",
"0  c #65420C",
"q  c #76480F",
"w  c #7A560B",
"e  c #6D4715",
"r  c #784B14",
"t  c #7A5316",
"y  c #45413E",
"u  c #564A37",
"i  c #584125",
"p  c #685338",
"a  c #745A39",
"s  c #654F34",
"d  c #4B4846",
"f  c #544D45",
"g  c #57524F",
"h  c #5C5855",
"j  c #695C4E",
"k  c #655E5A",
"l  c #605B57",
"z  c #796347",
"x  c #69635D",
"c  c #6A6663",
"v  c #767573",
"b  c #746D6A",
"n  c #8C5513",
"m  c #845617",
"M  c #975D17",
"N  c #81550E",
"B  c #95690C",
"V  c #976313",
"C  c #91670F",
"Z  c #A3730E",
"A  c #AB790D",
"S  c #B37E0C",
"D  c #A36416",
"F  c #AD6A19",
"G  c #A96818",
"H  c #B46E19",
"J  c #A3711A",
"K  c #A27112",
"L  c #B67717",
"P  c #835E32",
"I  c #896336",
"U  c #9B7234",
"Y  c #A66B21",
"T  c #AD742C",
"R  c #B67627",
"E  c #C27619",
"W  c #C97C1D",
"Q  c #C37C25",
"!  c #947652",
"~  c #AA7B42",
"^  c #817E7B",
"/  c #BA7776",
"(  c #C07675",
")  c #E37474",
"_  c #B9830E",
"`  c #C98C16",
"'  c #DB861E",
"]  c #D6961A",
"[  c #E2891E",
"{  c #ED901F",
"}  c #E5A311",
"|  c #F7AB18",
" . c #FDB414",
".. c #FDB21B",
"X. c #E4A10F",
"o. c #CA8726",
"O. c #D58A2D",
"+. c #DB8D2D",
"@. c #D58927",
"#. c #DA932D",
"$. c #CA8936",
"%. c #D58E35",
"&. c #DD9637",
"*. c #E28E26",
"=. c #ED9224",
"-. c #E4932C",
";. c #EE9629",
":. c #E5972A",
">. c #F09628",
",. c #E49534",
"<. c #E49B33",
"1. c #ED9B33",
"2. c #EE9F3B",
"3. c #E09639",
"4. c #F09D34",
"5. c #F19F39",
"6. c #EEA425",
"7. c #F6A92B",
"8. c #F7AA27",
"9. c #EEA03E",
"0. c #F3A533",
"q. c #F1A23B",
"w. c #F6A931",
"e. c #F8B431",
"r. c #B18950",
"t. c #87817C",
"y. c #93837A",
"u. c #A48866",
"i. c #B79463",
"p. c #B0997D",
"a. c #D29142",
"s. c #C6955A",
"d. c #DA9D53",
"f. c #E19A43",
"g. c #D3A459",
"h. c #EEA243",
"j. c #EFA549",
"k. c #F1A441",
"l. c #F2A847",
"z. c #EFA953",
"x. c #EEAD5B",
"c. c #F1AD5A",
"v. c #F2AA52",
"b. c #F1B05F",
"n. c #EAAC61",
"m. c #F1B265",
"M. c #F1B56C",
"N. c #F4B967",
"B. c #EAB77B",
"V. c #F2BB77",
"C. c #E0AB70",
"Z. c #FFC348",
"A. c #8E8985",
"S. c #948C87",
"D. c #98948E",
"F. c #999594",
"G. c #8F9090",
"H. c #B58B8B",
"J. c #BBA58B",
"K. c #AAA29E",
"L. c #B2A598",
"P. c #A6A4A2",
"I. c #B6AAA5",
"U. c #B8BABB",
"Y. c #BFB4AF",
"T. c #ED8C8C",
"R. c #C7A883",
"E. c #CDB895",
"W. c #EFBC82",
"Q. c #C5BCB6",
"!. c #EEADAD",
"~. c #F3C48B",
"^. c #F3C183",
"/. c #E7C399",
"(. c #F5C692",
"). c #F4C994",
"_. c #F5CA9B",
"`. c #F2C992",
"'. c #DAC6A9",
"]. c #D1C5BC",
"[. c #F5D3AD",
"{. c #F8D5A7",
"}. c #F5D5B2",
"|. c #F6DCBC",
" X c #F6DAB7",
".X c #EBD1B4",
"XX c #FAE3BF",
"oX c #CAC6C3",
"OX c #D1CECB",
"+X c #D2C9C3",
"@X c #DDD1CA",
"#X c #DBD5D3",
"$X c #E5D5CB",
"%X c #F7DFC2",
"&X c #F4DDCC",
"*X c #E6DCD8",
"=X c #F7E3CB",
"-X c #F7E2C8",
";X c #E8E0DE",
":X c #F4E5DB",
">X c #FAECDC",
",X c #F6E5D4",
"<X c #E9E5E3",
"1X c #F5E7E2",
"2X c #F6EAE5",
"3X c #F9ECE5",
"4X c #F7EDE9",
"5X c #F9EEEA",
"6X c #FBF2E7",
"7X c #F6F2EF",
"8X c #F9F2ED",
"9X c #FAF6F3",
"0X c #FCF8F6",
"qX c #FDFCFB",
"wX c None",
/* pixels */
"wXwXwXwXwXwXwXwXwXwXwXwXwXwXwXwXwXwXwXwXwXwXwXwXwXwXwXwXwXwXwXwXwXwXwXwXwXwXwXwXwXwXwXwXwXwXwXwXwXwXwXwXwXwXwXwXwXwXwXwXwXwXwXwX",
"wXwXwXwXwXwXwXwXwXwXwXwXwXwXwXwXwXwXwXwXwXwXwXwXwXwXwXwXwXwXwXwXwXwXwXwXwXwXwXwXwXwXwXwXwXwXwXwXwXwXwXwXwXwXwXwXwXwXwXwXwXwXwXwX",
"wXwXwXwXwXwXwXwXwXwXwXwXwXwXwXwXwXwXwXwX6 2 wXwXwXwXwXwXwXwXwXwXwXwXwXwXwXwXwX# wXwXwXwXwXwXwXwXwXwXwXwXwXwXwXwXwXwXwXwXwXwXwXwX",
"wXwXwXwXwXwXwXwXwXwXwXwXwXwXwXwXwXwXwX& ` ` * wXwXwXwXwXwXwXwXwXwXwXwXwXwX% Z V wXwXwXwXwXwXwXwXwXwXwXwXwXwXwXwXwXwXwXwXwXwXwXwX",
"wXwXwXwXwXwXwXwXwXwXwXwXwXwXwXwXwXwXwXr 2.w._ $ wXwXwXwXwXwXwXwXwXwXwXwX% Z 7.+.3 wXwXwXwXwXwXwXwXwXwXwXwXwXwXwXwXwXwXwXwXwXwXwX",
"wXwXwXwXwXwXwXwXwXwXwXwXwXwXwXwXwXwXwXR 2.2.7.B wXwXwXwXwXwXwXwXwXwXwX# Z 7.q.x.m wXwXwXwXwXwXwXwXwXwXwXwXwXwXwXwXwXwXwXwXwXwXwX",
"wXwXwXwXwXwXwXwXwXwXwXwXwXwXwXwXwXwX5 *.h.j.k.6.9 wXwXwXwXwXwXwXwXwXwXB 7.2.x.|.~ wXwXwXwXwXwXwXwXwXwXwXwXwXwXwXwXwXwXwXwXwXwXwX",
"wXwXwXwXwXwXwXwXwXwXwXwXwXwXwXwXwXwXm 4.2.).W.q.] * wXwXwXwXwXwXwXwXw 6.2.j.}.2Xs.& wXwXwXwXwXwXwXwXwXwXwXwXwXwXwXwXwXwXwXwXwXwX",
"wXwXwXwXwXwXwXwXwXwXwXwXwXwXwXwXwXwXF 5.l.=X,Xb.w.C wXwXwXwXwXwXwX4 ] q.9.^.8X4XC.3 wXwXwXwXwXwXwXwXwXwXwXwXwXwXwXwXwXwXwXwXwXwX",
"wXwXwXwXwXwXwXwXwXwXwXwXwXwXwXwXwX& W 5.b.3X9X}.h.] 3 wXwXwXwXwXwXK 0.2.x.:X9X4XW.8 wXwXwXwXwXwXwXwXwXwXwXwXwXwXwXwXwXwXwXwXwXwX",
"wXwXwXwXwXwXwXwXwXwXwXwXwXwXwXwXwX5 *.5.V.8X9X1XV.0.w wXwXwXwXwX4 :.h.h.{.9X9X7X~.r wXwXwXwXwXwXwXwXwXwXwXwXwXwXwXwXwXwXwXwXwXwX",
"wXwXwXwXwXwXwXwXwXwXwXwXwXwXwXwXwXe =.2.~.9X9X6X[.q.L wXwXwXwXwXC q.2.m.3X9X9X8X(.n wXwXwXwXwXwXwXwXwXwXwXwXwXwXwXwXwXwXwXwXwXwX",
"wXwXwXwXwXwXwXwXwXwXwXwXwXwXwXwXwXn >.2._.9X9X8X,Xn.@.$ $ $ o   m <.q.{.0X0X9X7X_.M wXwXwXwXwXwXwXwXwXwXwXwXwXwXwXwXwXwXwXwXwXwX",
"wXwXwXwXwXwXwXwXwXwXwXwXwXwXwXwXwXV 4.2.}.9X9X9X2X~.&.V O.%.o.J 9 6 ! :X0X9X9X9X_.G wXwXwXwXwXwXwXwXwXwXwXwXwXwXwXwXwXwXwXwXwXwX",
"wXwXwXwXwXwXwXwXwXwXwXwXwXwXwXwXwXF ;.9. X9X9X9X4X}.9.9.q.h.9.q.0.` 9 x #XqX9X7X_.F wXwXwXwXwXwXwXwXwXwXwXwXwXwXwXwXwXwXwXwXwXwX",
"wXwXwXwXwXwXwXwXwXwXwXwXwXwXwXwXwXL ;.h.-X9X9X9X4X=Xx.9.9.9.9.h.9.q.6.B u oX0X9X(.F wXwXwXwXwXwXwXwXwXwXwXwXwXwXwXwXwXwXwXwXwXwX",
"wXwXwXwXwXwXwXwXwXwXwXwXwXwXwXwXwXE ;.k.-X0X9X9X2X:Xn.2.2.h.2.2.9.9.q.8._ u OX0X).F wXwXwXwXwXwXwXwXwXwXwXwXwXwXwXwXwXwXwXwXwXwX",
"wXwXwXwXwXwXwXwXwXwXwXwXwXwXwXwXwXE ;.h.%X9X9X9X2X[.h.2.2.2.h.9.9.9.9.9.| _ u #X`.G wXwXwXwXwXwXwXwXwXwXwXwXwXwXwXwXwXwXwXwXwXwX",
"wXwXwXwXwXwXwXwXwXwXwXwXwXwXwXwXwXE ;.h.%X0X9X5X&Xx.2.9.h.h.2.9.9.9.9.9.9...B x B.V wXwXwXwXwXwXwXwXwXwXwXwXwXwXwXwXwXwXwXwXwXwX",
"wXwXwXwXwXwXwXwXwXwXwXwXwXwXwXwXwXH >.2.|.9X9X:XM.9.9.9.2.2.9.9.9.9.9.9.9.0. .9 U n wXwXwXwXwXwXwXwXwXwXwXwXwXwXwXwXwXwXwXwXwXwX",
"wXwXwXwXwXwXwXwXwXwXwXwXwXwXwXwXwXM =.2.[.9X:XB.9.9.9.9.9.9.9.9.9.9.9.9.9.9.8.] 5 3 wXwXwXwXwXwXwXwXwXwXwXwXwXwXwXwXwXwXwXwXwXwX",
"wXwXwXwXwXwXwXwXwXwXwXwXwXwXwXwXwXq =.1.).=XM.k.q.9.2.9.9.9.9.9.9.9.9.9.9.9.0. .B   wXwXwXwXwXwXwXwXwXwXwXwXwXwXwXwXwXwXwXwXwXwX",
"wXwXwXwXwXwXwXwXwXwXwXwXwXwXwXwX. 2 F 1.z.z.2.j.M.m.h.9.9.9.9.9.9.9.9.9.9.9.9.8.{ * wXwXwXwXwXwXwXwXwXwXwXwXwXwXwXwXwXwXwXwXwXwX",
"wXwXwXwXwXwXwXwXwXwXwXwXwXwXwXwX2 W @.2.2.2.h.V.7X6X|.b.9.9.9.9.9.9.9.9.9.9.z.N.Z.C wXwXwXwXwXwXwXwXwXwXwXwXwXwXwXwXwXwXwXwXwXwX",
"wXwXwXwXwXwXwXwXwXwXwXwXwXwXwXwXn { 4.q.2.2.2.c.&X9X0X|.h.9.9.x.j.n.j.h.9.^.,X7X6Xg.o wXwXwXwXwXwXwXwXwXwXwXwXwXwXwXwXwXwXwXwXwX",
"wXwXwXwXwXwXwXwXwXwXwXwXwXwXwX# W =.2.2.h.2.k.2.v.~.[.^.h.9.z.|.|.>X XN.j.=X9X9XXXe.4 wXwXwXwXwXwXwXwXwXwXwXwXwXwXwXwXwXwXwXwXwX",
"wXwXwXwXwXwXwXwXwXwXwXwXwXwX: y.2.;.2.k.h.2.1.4.1.1.9.9.9.9.M.8X9X9X9X^.9.m.~.V.l. .N wXwXwXwXwXwXwXwXwXwXwXwXwXwXwXwXwXwXwXwXwX",
"wXwXwXwXwXwXwXwXwXwXwXwX  g ].0X(.2.h.2.2.2.=.@.R O.1.9.9.9._.9X9X9X9X`.9.9.9.0.0...A wXwXwXwXwXwXwXwXwXwXwXwXwXwXwXwXwXwXwXwXwX",
"wXwXwXwXwXwXwXwXwXwXwXwX  D.0X0X:Xc.2.9.9.;.Q s v ].d.2.2.z.,X0X9X9X0X[.9.q.@.R O.| ] - wXwXwXwXwXwXwXwXwXwXwXwXwXwXwXwXwXwXwXwX",
"wXwXwXwXwXwXwXwXwXwXwXwXwXc 7X9X0X[.h.9.2.=.a ; P.qXJ.,.2.^.9X9X9X9X9X-Xh.$.u v +Xg.0.E., wXwXwXwXwXwXwXwXwXwXwXwXwXwXwXwXwXwXwX",
"wXwXwXwXwXwXwXwXwXwXwXwXO I.0X9X9X8X~.9.2.*.a : d F.j &.z.=X9X9X0X9X9X6Xc.I ; F.qXJ.<.|.h wXwXwXwXwXwXwXwXwXwXwXwXwXwXwXwXwXwXwX",
"wXwXwXwXwXwXwXwXwXwXwXwXwX< +X9X9X9X6X^.2.=.r.U.; O a f.{.9X9X9X+XI.Y.#X~.z : y G.j &.'.: wXwXwXwXwXwXwXwXwXwXwXwXwXwXwXwXwXwXwX",
"wXwXwXwXwXwXwXwXwXwXwXwXwXwXy +X5X9X9X3X~.2.*.u.f p $.).9X9X0X#X( T.!.H..Xp.U.: O p x.6Xl wXwXwXwXwXwXwXwXwXwXwXwXwXwXwXwXwXwXwX",
"wXwXwXwXwXwXwXwXwXwXwXwXwXwXwXy Q.5X5X9X7X%XM.f.a.n.[.7X9X9X0X*X/ ) T./ #XW.u.f p $.{.K.+ wXwXwXwXwXwXwXwXwXwXwXwXwXwXwXwXwXwXwX",
"wXwXwXwXwXwXwXwXwXwXwXwXwXwXwXwX, Q.3X2X5X7X9X3X>X7X9X9X9X9X9X9X<XA.S.$X9X3XB.%.f._.Q.: wXwXwXwXwXwXwXwXwXwXwXwXwXwXwXwXwXwXwXwX",
"wXwXwXwXwXwXwXwXwXwXwXwXwXwXwXwXwX: S.;X2X2X2X5X9X9X9X9X9X9X9X7XoXc S.7X0X9X9X,X>X+X< wXwXwXwXwXwXwXwXwXwXwXwXwXwXwXwXwXwXwXwXwX",
"wXwXwXwXwXwXwXwXwXwXwXwXwXwXwXwXwXwXX g I.*X3X2X2X2X4X5X9X9X9X2XOX#XoX#X9X9X8X9X+Xy wXwXwXwXwXwXwXwXwXwXwXwXwXwXwXwXwXwXwXwXwXwX",
"wXwXwXwXwXwXwXwXwXwXwXwXwXwXwXwXwXwXwXwX+ d A.Q.*X:X2X4X3X2X2X2X5X5X7X2X2X5X:XK.1 wXwXwXwXwXwXwXwXwXwXwXwXwXwXwXwXwXwXwXwXwXwXwX",
"wXwXwXwXwXwXwXwXwXwXwXwXwXwXwXwXwXwXwXwXwXwXwX+ , k A.K.Q.#X*X1X1X1X1X:X@XI.l O wXwXwXwXwXwXwXwXwXwXwXwXwXwXwXwXwXwXwXwXwXwXwXwX",
"wXwXwXwXwXwXwXwXwXwXwXwXwXwXwXwXwXwXwXwXwXwXwXwXwXwX3 e i f g h k x k d > X wXwXwXwXwXwXwXwXwXwXwXwXwXwXwXwXwXwXwXwXwXwXwXwXwXwX",
"wXwXwXwXwXwXwXwXwXwXwXwXwXwXwXwXwXwXwXwXwXwXwXwXwXo R o.d.$XOX].! . wXwXwXwXwXwXwXwXwXwXwXwXwXwXwXwXwXwXwXwXwXwXwXwXwXwXwXwXwXwX",
"wXwXwXwXwXwXwXwXwXwXwXwXwXwXwXwXwXwXwXwXwXwXwXwXwX= #.R /.qX0XqX:Xs wXwXwXwXwXwXwXwXwXwXwXwXwXwXwXwXwXwXwXwXwXwXwXwXwXwXwXwXwXwX",
"wXwXwXwXwXwXwXwXwXwXwXwXwXwXwXwXwXwXwXwXO   wXwXwX4 <.R @X0X9X9X0Xp.wXwXwXwXwXwXwXwXwXwXwXwXwXwXwXwXwXwXwXwXwXwXwXwXwXwXwXwXwXwX",
"wXwXwXwXwXwXwXwXwXwXwXwXwXwXwXwXwXwXwXf t.wXwXwXwX0 q.Q L.qX9X9X9X$X7 wXwXwXwXwXwXwXwXwXwXwXwXwXwXwXwXwXwXwXwXwXwXwXwXwXwXwXwXwX",
"wXwXwXwXwXwXwXwXwXwXwXwXwXwXwXwXwXwXy OXK.wXwXwX= e <.:.I OX0X9X9X3Xz wXwXwXwXwXwXwXwXwXwXwXwXwXwXwXwXwXwXwXwXwXwXwXwXwXwXwXwXwX",
"wXwXwXwXwXwXwXwXwXwXwXwXwXwXwXwXwXwXD.qXD.wXwXwX5 m o.q.Q z ;X0X9X0Xu.wXwXwXwXwXwXwXwXwXwXwXwXwXwXwXwXwXwXwXwXwXwXwXwXwXwXwXwXwX",
"wXwXwXwXwXwXwXwXwXwXwXwXwXwXwXwXwXwXQ.{.r.o wXwX8 V J q.9.Y A.9X0X0XR.wXwXwXwXwXwXwXwXwXwXwXwXwXwXwXwXwXwXwXwXwXwXwXwXwXwXwXwXwX",
"wXwXwXwXwXwXwXwXwXwXwXwXwXwXwXwXwXwXs.q.<.9 wXwX8 O.t :.l./.b <X9X0XR.% wXwXwXwXwXwXwXwXwXwXwXwXwXwXwXwXwXwXwXwXwXwXwXwXwXwXwXwX",
"wXwXwXwXwXwXwXwXwXwXwXwXwXwXwXwXwXwXG >.q.,.J t 8 =.T t E.I.^ 8X0X6Xi.. wXwXwXwXwXwXwXwXwXwXwXwXwXwXwXwXwXwXwXwXwXwXwXwXwXwXwXwX",
"wXwXwXwXwXwXwXwXwXwXwXwXwXwXwXwXwXwX6 @.4.q.2.<.t D +.T z A.*X0X6X~.n wXwXwXwXwXwXwXwXwXwXwXwXwXwXwXwXwXwXwXwXwXwXwXwXwXwXwXwXwX",
"wXwXwXwXwXwXwXwXwXwXwXwXwXwXwXwXwXwXwXr *.>.>.1.r C <.2.1.M.(.~.v.W 0 * wXwXwXwXwXwXwXwXwXwXwXwXwXwXwXwXwXwXwXwXwXwXwXwXwXwXwXwX",
"wXwXwXwXwXwXwXwXwXwXwXwXwXwXwXwXwXwXwXwX8 H ' n Z ..q.3.' { { [ G e ] _ $ wXwXwXwXwXwXwXwXwXwXwXwXwXwXwXwXwXwXwXwXwXwXwXwXwXwXwX",
"wXwXwXwXwXwXwXwXwXwXwXwXwXwXwXwXwXwXwXwXwX# & w | 8.f.%.e N r 2 e %.w. .C wXwXwXwXwXwXwXwXwXwXwXwXwXwXwXwXwXwXwXwXwXwXwXwXwXwXwX",
"wXwXwXwXwXwXwXwXwXwXwXwXwXwXwXwXwXwXwXwXwXwX4 X. .0.k.Q # wXwXwXY q.q...} 4 wXwXwXwXwXwXwXwXwXwXwXwXwXwXwXwXwXwXwXwXwXwXwXwXwXwX",
"wXwXwXwXwXwXwXwXwXwXwXwXwXwXwXwXwXwXwXwXwXwXS  .7.2.2.M wXwXwXwXN 2.h.7. ._ wXwXwXwXwXwXwXwXwXwXwXwXwXwXwXwXwXwXwXwXwXwXwXwXwXwX",
"wXwXwXwXwXwXwXwXwXwXwXwXwXwXwXwXwXwXwXwXwX9  .8.2.h.-.6 wXwXwXwX2 +.k.2...} 6 wXwXwXwXwXwXwXwXwXwXwXwXwXwXwXwXwXwXwXwXwXwXwXwXwX",
"wXwXwXwXwXwXwXwXwXwXwXwXwXwXwXwXwXwXwXwXwXi.e.0.h.2.F wXwXwXwXwXwXF 5.h.5...U wXwXwXwXwXwXwXwXwXwXwXwXwXwXwXwXwXwXwXwXwXwXwXwXwX",
"wXwXwXwXwXwXwXwXwXwXwXwXwXwXwXwXwXwXwXwXwXI.~.2.4.*.6 wXwXwXwXwXwX8 *.2.5.V.L.wXwXwXwXwXwXwXwXwXwXwXwXwXwXwXwXwXwXwXwXwXwXwXwXwX",
"wXwXwXwXwXwXwXwXwXwXwXwXwXwXwXwXwXwXwXwXwXk $X_.c.M wXwXwXwXwXwXwXwXR z.~.&Xb wXwXwXwXwXwXwXwXwXwXwXwXwXwXwXwXwXwXwXwXwXwXwXwXwX",
"wXwXwXwXwXwXwXwXwXwXwXwXwXwXwXwXwXwXwXwXwXwXg F.y.> wXwXwXwXwXwXwXwXu L.I.c wXwXwXwXwXwXwXwXwXwXwXwXwXwXwXwXwXwXwXwXwXwXwXwXwXwX",
"wXwXwXwXwXwXwXwXwXwXwXwXwXwXwXwXwXwXwXwXwXwXwXwXwXwXwXwXwXwXwXwXwXwXwXwXwXwXwXwXwXwXwXwXwXwXwXwXwXwXwXwXwXwXwXwXwXwXwXwXwXwXwXwX",
"wXwXwXwXwXwXwXwXwXwXwXwXwXwXwXwXwXwXwXwXwXwXwXwXwXwXwXwXwXwXwXwXwXwXwXwXwXwXwXwXwXwXwXwXwXwXwXwXwXwXwXwXwXwXwXwXwXwXwXwXwXwXwXwX",
"wXwXwXwXwXwXwXwXwXwXwXwXwXwXwXwXwXwXwXwXwXwXwXwXwXwXwXwXwXwXwXwXwXwXwXwXwXwXwXwXwXwXwXwXwXwXwXwXwXwXwXwXwXwXwXwXwXwXwXwXwXwXwXwX",
"wXwXwXwXwXwXwXwXwXwXwXwXwXwXwXwXwXwXwXwXwXwXwXwXwXwXwXwXwXwXwXwXwXwXwXwXwXwXwXwXwXwXwXwXwXwXwXwXwXwXwXwXwXwXwXwXwXwXwXwXwXwXwXwX"
};
