/* XPM */
static char *Walk__4_[] = {
/* columns rows colors chars-per-pixel */
"64 64 223 2 ",
"   c #080704",
".  c #140D05",
"X  c #1A1103",
"o  c #141313",
"O  c #1B1A18",
"+  c #0F1114",
"@  c #211503",
"#  c #241804",
"$  c #2D1D05",
"%  c #331E04",
"&  c #3C2A04",
"*  c #352207",
"=  c #312A1A",
"-  c #1C1E20",
";  c #2B2927",
":  c #282829",
">  c #3D3937",
",  c #3E3D3C",
"<  c #33302D",
"1  c #472D0A",
"2  c #4E300B",
"3  c #483306",
"4  c #54350B",
"5  c #56390A",
"6  c #4C3313",
"7  c #653E0D",
"8  c #423E3C",
"9  c #40362D",
"0  c #5A4008",
"q  c #6C4B0C",
"w  c #66430B",
"e  c #79560C",
"r  c #6C4516",
"t  c #7D4D12",
"y  c #734B14",
"u  c #795416",
"i  c #71450F",
"p  c #574B37",
"a  c #4F4131",
"s  c #6A5338",
"d  c #745A39",
"f  c #654F33",
"g  c #4B4846",
"h  c #554E46",
"j  c #5C5854",
"k  c #55504E",
"l  c #695C4D",
"z  c #645E5A",
"x  c #605A56",
"c  c #796244",
"v  c #69625D",
"b  c #666361",
"n  c #726D69",
"m  c #777675",
"M  c #79726E",
"N  c #835C0B",
"B  c #885615",
"V  c #945A13",
"C  c #9B6D0C",
"Z  c #93670D",
"A  c #8B6312",
"S  c #9D6315",
"D  c #9D6D17",
"F  c #9F7011",
"G  c #A5740D",
"H  c #B57F0B",
"J  c #A46315",
"K  c #AE6B18",
"L  c #A6671A",
"P  c #B56E19",
"I  c #A5721B",
"U  c #B57916",
"Y  c #805929",
"T  c #896334",
"R  c #9C682A",
"E  c #B77728",
"W  c #A76C22",
"Q  c #C2761B",
"!  c #CB7C1C",
"~  c #C87E24",
"^  c #947651",
"/  c #AE7E46",
"(  c #827A75",
")  c #937F7E",
"_  c #BA7676",
"`  c #C17575",
"'  c #E37474",
"]  c #BA830E",
"[  c #C98D16",
"{  c #DB861E",
"}  c #D5941C",
"|  c #D79915",
" . c #C0880F",
".. c #E78D1F",
"X. c #EE911E",
"o. c #EAA611",
"O. c #F5A916",
"+. c #FDB414",
"@. c #FDB11C",
"#. c #E3A00F",
"$. c #CA8626",
"%. c #D68A2B",
"&. c #DB8E2D",
"*. c #D58826",
"=. c #DB942B",
"-. c #CB8936",
";. c #D58D33",
":. c #DB953A",
">. c #E48D24",
",. c #ED9224",
"<. c #EE9629",
"1. c #E6962C",
"2. c #F09628",
"3. c #E49B33",
"4. c #ED9B33",
"5. c #EE9F3B",
"6. c #E39636",
"7. c #F09D34",
"8. c #F09E38",
"9. c #EEA424",
"0. c #FAAD24",
"q. c #F5A929",
"w. c #F5A82A",
"e. c #FDB127",
"r. c #EEA03E",
"t. c #F3A534",
"y. c #F6A931",
"u. c #F1A23C",
"i. c #F3B635",
"p. c #B58B4E",
"a. c #88827C",
"s. c #978877",
"d. c #A48866",
"f. c #B39570",
"g. c #DA9D52",
"h. c #CC9451",
"j. c #E19B44",
"k. c #D3A459",
"l. c #EEA243",
"z. c #EFA549",
"x. c #F1A442",
"c. c #F2A847",
"v. c #EFA952",
"b. c #EEAC5A",
"n. c #F0AE5B",
"m. c #F2AB54",
"M. c #F2B05F",
"N. c #CE9B60",
"B. c #C4A36C",
"V. c #EBAD61",
"C. c #F1B264",
"Z. c #F1B56C",
"A. c #F4B967",
"S. c #EAB67B",
"D. c #F3BA74",
"F. c #F1B977",
"G. c #E2AE74",
"H. c #FFC347",
"J. c #8F8985",
"K. c #978E8A",
"L. c #8F9091",
"P. c #9B9894",
"I. c #96918C",
"U. c #B18E8B",
"Y. c #BAA48A",
"T. c #ACA29C",
"R. c #A7A5A2",
"E. c #B7AAA5",
"W. c #BEB1AB",
"Q. c #B8B9BB",
"!. c #ED8C8C",
"~. c #C6A883",
"^. c #CAB592",
"/. c #EABD89",
"(. c #F2BF83",
"). c #C5BBB4",
"_. c #EEADAD",
"`. c #F2C083",
"'. c #F3C38B",
"]. c #F5C693",
"[. c #F4C993",
"{. c #F5CA9C",
"}. c #F5CB96",
"|. c #DAC5A9",
" X c #C9C1BD",
".X c #D4CABD",
"XX c #F4CEA4",
"oX c #F5D4AE",
"OX c #F9D6A8",
"+X c #F6DCBC",
"@X c #F4D4B3",
"#X c #E3CCB0",
"$X c #FAE3BF",
"%X c #CBC6C4",
"&X c #D4CCC8",
"*X c #D8D1CB",
"=X c #DBD5D3",
"-X c #E5D6CB",
";X c #F7DFC2",
":X c #F4DDCB",
">X c #E1DDDB",
",X c #E8DBD7",
"<X c #F7E2CA",
"1X c #E8E0DD",
"2X c #F5E3D5",
"3X c #F9E8D5",
"4X c #F4E5DB",
"5X c #FAECDC",
"6X c #F8E6D2",
"7X c #F5E7E2",
"8X c #F6EAE5",
"9X c #F9ECE5",
"0X c #F6ECE9",
"qX c #F9EEEA",
"wX c #FBF1E7",
"eX c #F9F2ED",
"rX c #F5F1EE",
"tX c #FAF6F3",
"yX c #FCF8F6",
"uX c #FDFCFB",
"iX c #F7F3F0",
"pX c #EFEBE8",
"aX c None",
/* pixels */
"aXaXaXaXaXaXaXaXaXaXaXaXaXaXaXaXaXaXaXaXaXaXaXaXaXaXaXaXaXaXaXaXaXaXaXaXaXaXaXaXaXaXaXaXaXaXaXaXaXaXaXaXaXaXaXaXaXaXaXaXaXaXaXaX",
"aXaXaXaXaXaXaXaXaXaXaXaXaXaXaXaXaXaXaXaXaXaXaXaXaXaXaXaXaXaXaXaXaXaXaXaXaXaXaXaXaXaXaXaXaXaXaXaXaXaXaXaXaXaXaXaXaXaXaXaXaXaXaXaX",
"aXaXaXaXaXaXaXaXaXaXaXaXaXaXaXaXaXaXaXaX5 3 aXaXaXaXaXaXaXaXaXaXaXaXaXaXaXaXaX@ aXaXaXaXaXaXaXaXaXaXaXaXaXaXaXaXaXaXaXaXaXaXaXaX",
"aXaXaXaXaXaXaXaXaXaXaXaXaXaXaXaXaXaXaX% $.[ & aXaXaXaXaXaXaXaXaXaXaXaXaXaXX C S aXaXaXaXaXaXaXaXaXaXaXaXaXaXaXaXaXaXaXaXaXaXaXaX",
"aXaXaXaXaXaXaXaXaXaXaXaXaXaXaXaXaXaXaXB 5.y.H $ aXaXaXaXaXaXaXaXaXaXaXaX# G q.=.6 aXaXaXaXaXaXaXaXaXaXaXaXaXaXaXaXaXaXaXaXaXaXaX",
"aXaXaXaXaXaXaXaXaXaXaXaXaXaXaXaXaXaXaXE 8.l.w.Z aXaXaXaXaXaXaXaXaXaXaXaXG q.5.b.u aXaXaXaXaXaXaXaXaXaXaXaXaXaXaXaXaXaXaXaXaXaXaX",
"aXaXaXaXaXaXaXaXaXaXaXaXaXaXaXaXaXaX4 1.u.z.u.9.q aXaXaXaXaXaXaXaXaXaXZ w.5.b.+X/ aXaXaXaXaXaXaXaXaXaXaXaXaXaXaXaXaXaXaXaXaXaXaX",
"aXaXaXaXaXaXaXaXaXaXaXaXaXaXaXaXaXaXB 4.5.{.(.u.} & aXaXaXaXaXaXaXaXq 9.5.l.@X8Xg.% aXaXaXaXaXaXaXaXaXaXaXaXaXaXaXaXaXaXaXaXaXaX",
"aXaXaXaXaXaXaXaXaXaXaXaXaXaXaXaXaXaXK 7.z.6X4XM.w.Z aXaXaXaXaXaXaX1 } r.r.`.iX0XG.2 aXaXaXaXaXaXaXaXaXaXaXaXaXaXaXaXaXaXaXaXaXaX",
"aXaXaXaXaXaXaXaXaXaXaXaXaXaXaXaXaX* ~ 8.M.9XiX@Xx.=.& aXaXaXaXaXaXG y.r.b.3XtX0X/.7 aXaXaXaXaXaXaXaXaXaXaXaXaXaXaXaXaXaXaXaXaXaX",
"aXaXaXaXaXaXaXaXaXaXaXaXaXaXaXaXaX4 >.5.D.eXtX5XF.t.e aXaXaXaXaX5 =.r.l.XXtXtXqX/.B aXaXaXaXaXaXaXaXaXaXaXaXaXaXaXaXaXaXaXaXaXaX",
"aXaXaXaXaXaXaXaXaXaXaXaXaXaXaXaXaXi ,.5.'.yXtXeXoXu.U aXaXaXaXaXA t.r.C.9XyXtXiX].V aXaXaXaXaXaXaXaXaXaXaXaXaXaXaXaXaXaXaXaXaXaX",
"aXaXaXaXaXaXaXaXaXaXaXaXaXaXaXaXaXB 2.5.XXyXtXiX2XV.*.$ $ $ #   N :.u.oXyXtXiXiX{.V aXaXaXaXaXaXaXaXaXaXaXaXaXaXaXaXaXaXaXaXaXaX",
"aXaXaXaXaXaXaXaXaXaXaXaXaXaXaXaXaXS 2.x.oXtXtXiX8X'.=.I %.;.$.I q 5 ^ 4XyXtXyXiXXXK aXaXaXaXaXaXaXaXaXaXaXaXaXaXaXaXaXaXaXaXaXaX",
"aXaXaXaXaXaXaXaXaXaXaXaXaXaXaXaXaXP <.l.@XyXtXtX0X@Xl.3.u.x.u.u.t.[ q v =XyXyXiX{.K aXaXaXaXaXaXaXaXaXaXaXaXaXaXaXaXaXaXaXaXaXaX",
"aXaXaXaXaXaXaXaXaXaXaXaXaXaXaXaXaXP <.l.;XyXtXtX0X2Xb.r.r.5.l.r.r.t.9.C p %XyXiX{.K aXaXaXaXaXaXaXaXaXaXaXaXaXaXaXaXaXaXaXaXaXaX",
"aXaXaXaXaXaXaXaXaXaXaXaXaXaXaXaXaXQ 2.l.<XyXtXtX0X4Xb.5.l.5.r.r.r.r.r.0.] p %XtX[.K aXaXaXaXaXaXaXaXaXaXaXaXaXaXaXaXaXaXaXaXaXaX",
"aXaXaXaXaXaXaXaXaXaXaXaXaXaXaXaXaXQ <.l.;XtXtXiX8XXXl.5.u.j.r.r.r.r.r.r.O.] h =X[.L aXaXaXaXaXaXaXaXaXaXaXaXaXaXaXaXaXaXaXaXaXaX",
"aXaXaXaXaXaXaXaXaXaXaXaXaXaXaXaXaXQ 2.l.;XtXtXeX:Xb.r.r.r.r.r.r.r.r.r.r.r.@.C v S.S aXaXaXaXaXaXaXaXaXaXaXaXaXaXaXaXaXaXaXaXaXaX",
"aXaXaXaXaXaXaXaXaXaXaXaXaXaXaXaXaXP 2.5.+XyXiX4XZ.r.r.r.r.r.r.r.r.r.r.r.r.y.O.u R B aXaXaXaXaXaXaXaXaXaXaXaXaXaXaXaXaXaXaXaXaXaX",
"aXaXaXaXaXaXaXaXaXaXaXaXaXaXaXaXaXS ,.5.oXtX4XF.r.r.r.r.r.r.r.r.r.r.r.r.r.5.q.| 5 2 aXaXaXaXaXaXaXaXaXaXaXaXaXaXaXaXaXaXaXaXaXaX",
"aXaXaXaXaXaXaXaXaXaXaXaXaXaXaXaXaXi ,.4.].<XZ.x.r.r.r.r.r.r.r.r.r.r.r.r.5.l.t.@.Z   aXaXaXaXaXaXaXaXaXaXaXaXaXaXaXaXaXaXaXaXaXaX",
"aXaXaXaXaXaXaXaXaXaXaXaXaXaXaXaX. 2 K 4.v.v.5.z.Z.C.z.r.r.r.r.r.r.r.r.r.r.r.5.q.#.& aXaXaXaXaXaXaXaXaXaXaXaXaXaXaXaXaXaXaXaXaXaX",
"aXaXaXaXaXaXaXaXaXaXaXaXaXaXaXaX2 ! *.5.r.r.r.F.eXwX+Xn.r.r.r.r.r.r.r.r.r.5.v.A.H.A aXaXaXaXaXaXaXaXaXaXaXaXaXaXaXaXaXaXaXaXaXaX",
"aXaXaXaXaXaXaXaXaXaXaXaXaXaXaXaXV X.7.u.l.8.l.m.<XtXyX+Xl.r.l.b.l.n.z.l.l.`.3XrXwXk.X aXaXaXaXaXaXaXaXaXaXaXaXaXaXaXaXaXaXaXaXaX",
"aXaXaXaXaXaXaXaXaXaXaXaXaXaXaX# Q ,.5.5.8.x.8.j.m.'.OX`.r.r.z.<X+X5X@XC.z.<XyXiX<Xi.5 aXaXaXaXaXaXaXaXaXaXaXaXaXaXaXaXaXaXaXaXaX",
"aXaXaXaXaXaXaXaXaXaXaXaXaXaX; s.5.4.j.u.j.8.8.4.7.7.8.5.r.r.Z.eXyXiXyX`.r.C.'.F.c.+.e aXaXaXaXaXaXaXaXaXaXaXaXaXaXaXaXaXaXaXaXaX",
"aXaXaXaXaXaXaXaXaXaXaXaX  j %XtX].l.8.u.5.8.,.*.E %.7.j.r.r.{.yXyXyXtX}.5.5.5.t.4.@.H aXaXaXaXaXaXaXaXaXaXaXaXaXaXaXaXaXaXaXaXaX",
"aXaXaXaXaXaXaXaXaXaXaXaX  I.yXyX3Xn.5.5.l.<.~ p m .Xg.4.5.v.3XtXtXtXtXoXr.4.&.E %.O.} = aXaXaXaXaXaXaXaXaXaXaXaXaXaXaXaXaXaXaXaX",
"aXaXaXaXaXaXaXaXaXaXaXaX  n eXtXtXoXx.r.5.,.d - R.uXY.6.5.'.tXtXtXtXyX<Xz.-.p m &Xg.y.^., aXaXaXaXaXaXaXaXaXaXaXaXaXaXaXaXaXaXaX",
"aXaXaXaXaXaXaXaXaXaXaXaX+ E.yXtXtXiX'.r.5.>.d : g L.l 6.m.6XyXtXyXtXtXeXM.T - P.uXY.3.+Xj aXaXaXaXaXaXaXaXaXaXaXaXaXaXaXaXaXaXaX",
"aXaXaXaXaXaXaXaXaXaXaXaXaX> %XtXtXtXwX(.5.,.p.Q.- o d j.XXyXtXiX%XE.W.=X'.d : g L.l :.|.: aXaXaXaXaXaXaXaXaXaXaXaXaXaXaXaXaXaXaX",
"aXaXaXaXaXaXaXaXaXaXaXaXaXaXg %XqXiXyXqX].8.&.d.h s -.[.eXtXyX=X` !._.U.#Xf.Q.: + s n.wXj aXaXaXaXaXaXaXaXaXaXaXaXaXaXaXaXaXaXaX",
"aXaXaXaXaXaXaXaXaXaXaXaXaXaXaXa  X9XqXtXiX+XZ.j.h.V.@XeXtXtXyX>X_ ' !._ ,X/.d.h s -.OXT.O aXaXaXaXaXaXaXaXaXaXaXaXaXaXaXaXaXaXaX",
"aXaXaXaXaXaXaXaXaXaXaXaXaXaXaXaX8 ).9X7XqXiXiX9X5XwXyXtXtXtXtXtXpX) K.=XtX9XS.;.j.}.).; aXaXaXaXaXaXaXaXaXaXaXaXaXaXaXaXaXaXaXaX",
"aXaXaXaXaXaXaXaXaXaXaXaXaXaXaXaXaX- K.,X9X7X8XqXeXtXtXtXtXtXtXiX%Xb J.iXtXyXiX3X5X&X> aXaXaXaXaXaXaXaXaXaXaXaXaXaXaXaXaXaXaXaXaX",
"aXaXaXaXaXaXaXaXaXaXaXaXaXaXaXaXaXaX. k E.,X9X7X8X8X0XiXeXeXtX8X&X=X%X,XtXiXtXtX%X8 aXaXaXaXaXaXaXaXaXaXaXaXaXaXaXaXaXaXaXaXaXaX",
"aXaXaXaXaXaXaXaXaXaXaXaXaXaXaXaXaXaXaXaXo g J.).,X4X9X9X9X9X9XqXqXqXqXqX9XqX4XT.< aXaXaXaXaXaXaXaXaXaXaXaXaXaXaXaXaXaXaXaXaXaXaX",
"aXaXaXaXaXaXaXaXaXaXaXaXaXaXaXaXaXaXaXaXaXaXaXO , z ) R.).*X,X4X7X7X7X,X*XT.x o aXaXaXaXaXaXaXaXaXaXaXaXaXaXaXaXaXaXaXaXaXaXaXaX",
"aXaXaXaXaXaXaXaXaXaXaXaXaXaXaXaXaXaXaXaXaXaXaXaXaXaX1 r a h k v z b x h < o aXaXaXaXaXaXaXaXaXaXaXaXaXaXaXaXaXaXaXaXaXaXaXaXaXaX",
"aXaXaXaXaXaXaXaXaXaXaXaXaXaXaXaXaXaXaXaXaXaXaXaXaXX E *.k.-X*X X^ . aXaXaXaXaXaXaXaXaXaXaXaXaXaXaXaXaXaXaXaXaXaXaXaXaXaXaXaXaXaX",
"aXaXaXaXaXaXaXaXaXaXaXaXaXaXaXaXaXaXaXaXaXaXaXaXaX* =.E |.yXyXyX4Xf aXaXaXaXaXaXaXaXaXaXaXaXaXaXaXaXaXaXaXaXaXaXaXaXaXaXaXaXaXaX",
"aXaXaXaXaXaXaXaXaXaXaXaXaXaXaXaXaXaXaXaXO   aXaXaX2 3.E -XyXtXtXtXY.aXaXaXaXaXaXaXaXaXaXaXaXaXaXaXaXaXaXaXaXaXaXaXaXaXaXaXaXaXaX",
"aXaXaXaXaXaXaXaXaXaXaXaXaXaXaXaXaXaXaXg a.aXaXaXaXw 5.~ T.tXtXtXtX#X9 aXaXaXaXaXaXaXaXaXaXaXaXaXaXaXaXaXaXaXaXaXaXaXaXaXaXaXaXaX",
"aXaXaXaXaXaXaXaXaXaXaXaXaXaXaXaXaXaX8 &XR.aXaXaX% y 6.1.T %XyXtXtX9X^ aXaXaXaXaXaXaXaXaXaXaXaXaXaXaXaXaXaXaXaXaXaXaXaXaXaXaXaXaX",
"aXaXaXaXaXaXaXaXaXaXaXaXaXaXaXaXaXaXP.uXP.aXaXaX4 u $.u.$.c >XyXeXyXs.aXaXaXaXaXaXaXaXaXaXaXaXaXaXaXaXaXaXaXaXaXaXaXaXaXaXaXaXaX",
"aXaXaXaXaXaXaXaXaXaXaXaXaXaXaXaXaXaX).XXp.X aXaX7 W D t.5.E a.tXyXyX~.aXaXaXaXaXaXaXaXaXaXaXaXaXaXaXaXaXaXaXaXaXaXaXaXaXaXaXaXaX",
"aXaXaXaXaXaXaXaXaXaXaXaXaXaXaXaXaXaXN.t.3.y aXaX7 %.u =.l.].m =XyXyXB.$ aXaXaXaXaXaXaXaXaXaXaXaXaXaXaXaXaXaXaXaXaXaXaXaXaXaXaXaX",
"aXaXaXaXaXaXaXaXaXaXaXaXaXaXaXaXaXaXJ 7.u.3.W e 7 1.E u ^.E.( 0XyXwXp.X aXaXaXaXaXaXaXaXaXaXaXaXaXaXaXaXaXaXaXaXaXaXaXaXaXaXaXaX",
"aXaXaXaXaXaXaXaXaXaXaXaXaXaXaXaXaXaX4 *.7.8.8.3.u J ;.E c J.1XyXwX[.V aXaXaXaXaXaXaXaXaXaXaXaXaXaXaXaXaXaXaXaXaXaXaXaXaXaXaXaXaX",
"aXaXaXaXaXaXaXaXaXaXaXaXaXaXaXaXaXaXaXt ..,.7.1.y Z 6.5.4.Z.]./.n.Q w & aXaXaXaXaXaXaXaXaXaXaXaXaXaXaXaXaXaXaXaXaXaXaXaXaXaXaXaX",
"aXaXaXaXaXaXaXaXaXaXaXaXaXaXaXaXaXaXaXaX7 P ! V G @.u.6.{ X.,...L r | ] * aXaXaXaXaXaXaXaXaXaXaXaXaXaXaXaXaXaXaXaXaXaXaXaXaXaXaX",
"aXaXaXaXaXaXaXaXaXaXaXaXaXaXaXaXaXaXaXaXaX# % N +.q.u.;.w t y 1 y ;.t.+.Z aXaXaXaXaXaXaXaXaXaXaXaXaXaXaXaXaXaXaXaXaXaXaXaXaXaXaX",
"aXaXaXaXaXaXaXaXaXaXaXaXaXaXaXaXaXaXaXaXaXaX5 o.@.t.x.E @ aXaXaXL x.t.0.o.0 aXaXaXaXaXaXaXaXaXaXaXaXaXaXaXaXaXaXaXaXaXaXaXaXaXaX",
"aXaXaXaXaXaXaXaXaXaXaXaXaXaXaXaXaXaXaXaXaXaX] +.t.r.4.V aXaXaXaXt 4.l.t.+.] aXaXaXaXaXaXaXaXaXaXaXaXaXaXaXaXaXaXaXaXaXaXaXaXaXaX",
"aXaXaXaXaXaXaXaXaXaXaXaXaXaXaXaXaXaXaXaXaXu +.0.r.r.&.4 aXaXaXaX1 *.r.r.@.O.q aXaXaXaXaXaXaXaXaXaXaXaXaXaXaXaXaXaXaXaXaXaXaXaXaX",
"aXaXaXaXaXaXaXaXaXaXaXaXaXaXaXaXaXaXaXaXaXB.y.t.5.7.L aXaXaXaXaXaXL 4.r.t.@.p.aXaXaXaXaXaXaXaXaXaXaXaXaXaXaXaXaXaXaXaXaXaXaXaXaX",
"aXaXaXaXaXaXaXaXaXaXaXaXaXaXaXaXaXaXaXaXaXW.'.5.4.*.2 aXaXaXaXaXaX4 =.r.5.D.E.aXaXaXaXaXaXaXaXaXaXaXaXaXaXaXaXaXaXaXaXaXaXaXaXaX",
"aXaXaXaXaXaXaXaXaXaXaXaXaXaXaXaXaXaXaXaXaXz -X{.b.B aXaXaXaXaXaXaXaXR v.].:Xn aXaXaXaXaXaXaXaXaXaXaXaXaXaXaXaXaXaXaXaXaXaXaXaXaX",
"aXaXaXaXaXaXaXaXaXaXaXaXaXaXaXaXaXaXaXaXaXaXk K.( aXaXaXaXaXaXaXaXaX9 U.E.b aXaXaXaXaXaXaXaXaXaXaXaXaXaXaXaXaXaXaXaXaXaXaXaXaXaX",
"aXaXaXaXaXaXaXaXaXaXaXaXaXaXaXaXaXaXaXaXaXaXaXaXaXaXaXaXaXaXaXaXaXaXaXaXaXaXaXaXaXaXaXaXaXaXaXaXaXaXaXaXaXaXaXaXaXaXaXaXaXaXaXaX",
"aXaXaXaXaXaXaXaXaXaXaXaXaXaXaXaXaXaXaXaXaXaXaXaXaXaXaXaXaXaXaXaXaXaXaXaXaXaXaXaXaXaXaXaXaXaXaXaXaXaXaXaXaXaXaXaXaXaXaXaXaXaXaXaX",
"aXaXaXaXaXaXaXaXaXaXaXaXaXaXaXaXaXaXaXaXaXaXaXaXaXaXaXaXaXaXaXaXaXaXaXaXaXaXaXaXaXaXaXaXaXaXaXaXaXaXaXaXaXaXaXaXaXaXaXaXaXaXaXaX",
"aXaXaXaXaXaXaXaXaXaXaXaXaXaXaXaXaXaXaXaXaXaXaXaXaXaXaXaXaXaXaXaXaXaXaXaXaXaXaXaXaXaXaXaXaXaXaXaXaXaXaXaXaXaXaXaXaXaXaXaXaXaXaXaX"
};
