/* XPM */
static char *Walk__5_[] = {
/* columns rows colors chars-per-pixel */
"64 64 233 2 ",
"   c #020201",
".  c #0A0601",
"X  c #0C0B0B",
"o  c #080708",
"O  c #181209",
"+  c #1C1D1E",
"@  c #2C1E04",
"#  c #221709",
"$  c #221D18",
"%  c #311E06",
"&  c #2E2004",
"*  c #342404",
"=  c #3A2904",
"-  c #3B2407",
";  c #26211C",
":  c #342A1F",
">  c #2E2D2C",
",  c #282625",
"<  c #322E2C",
"1  c #36322E",
"2  c #3C3936",
"3  c #393737",
"4  c #4A2E0A",
"5  c #422A08",
"6  c #493207",
"7  c #53330A",
"8  c #573B09",
"9  c #553E11",
"0  c #633C0C",
"q  c #433E39",
"w  c #4D3B26",
"e  c #55421C",
"r  c #6C4C0A",
"t  c #6B450C",
"y  c #72450E",
"u  c #78540B",
"i  c #6A4616",
"p  c #724B10",
"a  c #7C4C11",
"s  c #775313",
"d  c #484138",
"f  c #564531",
"g  c #665235",
"h  c #62482A",
"j  c #4A4543",
"k  c #5A5249",
"l  c #5A5653",
"z  c #595857",
"x  c #695A48",
"c  c #615D58",
"v  c #785F41",
"b  c #7B6244",
"n  c #67615D",
"m  c #7B6D55",
"M  c #696663",
"N  c #75716E",
"B  c #7A736F",
"V  c #777879",
"C  c #766E6A",
"Z  c #86570E",
"A  c #885512",
"S  c #935A14",
"D  c #965C16",
"F  c #804D0F",
"G  c #9C6E0C",
"H  c #92670C",
"J  c #9E700C",
"K  c #97641A",
"L  c #9C731D",
"P  c #A4730D",
"I  c #A46416",
"U  c #AE6A17",
"Y  c #B16D1A",
"T  c #A47312",
"R  c #BB731A",
"E  c #B37D15",
"W  c #8B602C",
"Q  c #996B33",
"!  c #936935",
"~  c #AA6D22",
"^  c #AA7229",
"/  c #BD7C2B",
"(  c #B47A28",
")  c #AA7637",
"_  c #B27B37",
"`  c #C57A1E",
"'  c #C6791A",
"]  c #C57D23",
"[  c #CA7F22",
"{  c #87735A",
"}  c #8D6E4A",
"|  c #837A76",
" . c #867E7A",
".. c #8E6B6A",
"X. c #D37F7F",
"o. c #E57474",
"O. c #BE8513",
"+. c #BD8327",
"@. c #C88C15",
"#. c #D89816",
"$. c #CE8B13",
"%. c #E48B1E",
"&. c #E49F19",
"*. c #ECA616",
"=. c #F4AD14",
"-. c #FAAE1E",
";. c #FDB314",
":. c #FEB21B",
">. c #ECA60F",
",. c #CE862B",
"<. c #CA8629",
"1. c #DA8D2B",
"2. c #D68827",
"3. c #DC932E",
"4. c #D59224",
"5. c #C98736",
"6. c #D58E37",
"7. c #DF9334",
"8. c #E68E22",
"9. c #ED9324",
"0. c #E3922E",
"q. c #EE9629",
"w. c #E7992A",
"e. c #F0972A",
"r. c #ED9B33",
"t. c #EE9F3B",
"y. c #E69A37",
"u. c #F09C34",
"i. c #F19E38",
"p. c #F6A92A",
"a. c #F7AA28",
"s. c #EEA03E",
"d. c #F3A534",
"f. c #F1A33C",
"g. c #F7A932",
"h. c #F5B12E",
"j. c #AB804A",
"k. c #86817F",
"l. c #9B8672",
"z. c #B49978",
"x. c #BF9562",
"c. c #DC9947",
"v. c #C29057",
"b. c #E19A47",
"n. c #EEA243",
"m. c #EEA64B",
"M. c #F2A846",
"N. c #EFAA53",
"B. c #EFAD5F",
"V. c #E6A658",
"C. c #F1AE5C",
"Z. c #F0AB55",
"A. c #F4B25F",
"S. c #C99D66",
"D. c #D6AE7E",
"F. c #CFAD74",
"G. c #E6AD6A",
"H. c #EBB167",
"J. c #F1B263",
"K. c #F1B56C",
"L. c #F0BE69",
"P. c #F2BA73",
"I. c #F2BD7D",
"U. c #F2B671",
"Y. c #E3B27D",
"T. c #FFC95A",
"R. c #F5C07E",
"E. c #878684",
"W. c #938C88",
"Q. c #96908E",
"!. c #9D9491",
"~. c #B88988",
"^. c #A29A96",
"/. c #B29997",
"(. c #B3ABA5",
"). c #BAB7B4",
"_. c #A4A2A0",
"`. c #D39191",
"'. c #F48989",
"]. c #C2AA8E",
"[. c #D8BD9D",
"{. c #D1B48B",
"}. c #F2BF87",
"|. c #C2BEBA",
" X c #C7B9B5",
".X c #CAB8A2",
"XX c #E9A7A7",
"oX c #F3C68D",
"OX c #F6C684",
"+X c #F5C995",
"@X c #F3CA9C",
"#X c #F6CA97",
"$X c #F2D29B",
"%X c #CDC0BC",
"&X c #DFC2A3",
"*X c #F2CEA6",
"=X c #F5D2A5",
"-X c #F5D4AD",
";X c #F5D5B2",
":X c #F6DCBD",
">X c #F7D8B3",
",X c #EFCEA4",
"<X c #F9E1BF",
"1X c #CCC9C7",
"2X c #D2CECB",
"3X c #D3C7C3",
"4X c #DCD8D6",
"5X c #DDD3C3",
"6X c #F7DEC2",
"7X c #F5DDCB",
"8X c #F8DFC2",
"9X c #E8DBD7",
"0X c #ECDECD",
"qX c #F8E2C9",
"wX c #E9E1DD",
"eX c #F9E6D1",
"rX c #F4E5DD",
"tX c #FAECDC",
"yX c #F6E4D4",
"uX c #E9E5E2",
"iX c #EDE9E6",
"pX c #F6EAE5",
"aX c #F9ECE4",
"sX c #F6EDEA",
"dX c #F8EEEB",
"fX c #F5E7E3",
"gX c #FAF2ED",
"hX c #FAF1E6",
"jX c #FAF6F3",
"kX c #FCF9F6",
"lX c #FDFCFB",
"zX c #F7F3F0",
"xX c None",
/* pixels */
"xXxXxXxXxXxXxXxXxXxXxXxXxXxXxXxXxXxXxXxXxXxXxXxXxXxXxXxXxXxXxXxXxXxXxXxXxXxXxXxXxXxXxXxXxXxXxXxXxXxXxXxXxXxXxXxXxXxXxXxXxXxXxXxX",
"xXxXxXxXxXxXxXxXxXxXxXxXxXxXxXxXxXxXxXxXxXxXxXxXxXxXxXxXxXxXxXxXxXxXxXxXxXxXxXxXxXxXxXxXxXxXxXxXxXxXxXxXxXxXxXxXxXxXxXxXxXxXxXxX",
"xXxXxXxXxXxXxXxXxXxXxXxXxXxXxXxXxXxXxXxXxX@ xXxXxXxXxXxXxXxXxXxXxXxXxXxXxX* @ xXxXxXxXxXxXxXxXxXxXxXxXxXxXxXxXxXxXxXxXxXxXxXxXxX",
"xXxXxXxXxXxXxXxXxXxXxXxXxXxXxXxXxXxXxXxXp @.6 xXxXxXxXxXxXxXxXxXxXxXxXxX* O.K xXxXxXxXxXxXxXxXxXxXxXxXxXxXxXxXxXxXxXxXxXxXxXxXxX",
"xXxXxXxXxXxXxXxXxXxXxXxXxXxXxXxXxXxXxX% ] g.O.& xXxXxXxXxXxXxXxXxXxXxX@ E p.1.4 xXxXxXxXxXxXxXxXxXxXxXxXxXxXxXxXxXxXxXxXxXxXxXxX",
"xXxXxXxXxXxXxXxXxXxXxXxXxXxXxXxXxXxXxXa y.s.p.H xXxXxXxXxXxXxXxXxXxXxXH p.s.K.W xXxXxXxXxXxXxXxXxXxXxXxXxXxXxXxXxXxXxXxXxXxXxXxX",
"xXxXxXxXxXxXxXxXxXxXxXxXxXxXxXxXxXxXxXY f.s.n.p.r xXxXxXxXxXxXxXxXxXu p.f.B.7Xv.xXxXxXxXxXxXxXxXxXxXxXxXxXxXxXxXxXxXxXxXxXxXxXxX",
"xXxXxXxXxXxXxXxXxXxXxXxXxXxXxXxXxXxX4 2.s.J.P.d.#.= xXxXxXxXxXxXxX6 #.f.n.*XdXY.7 xXxXxXxXxXxXxXxXxXxXxXxXxXxXxXxXxXxXxXxXxXxXxX",
"xXxXxXxXxXxXxXxXxXxXxXxXxXxXxXxXxXxXa r.t.#XrXB.g.H xXxXxXxXxXxXxXT g.s.K.dXsX@Xa xXxXxXxXxXxXxXxXxXxXxXxXxXxXxXxXxXxXxXxXxXxXxX",
"xXxXxXxXxXxXxXxXxXxXxXxXxXxXxXxXxXxXI r.n.8XjX-Xn.#.5 xXxXxXxXxXt 4.f.n.:XjXzX;XK xXxXxXxXxXxXxXxXxXxXxXxXxXxXxXxXxXxXxXxXxXxXxX",
"xXxXxXxXxXxXxXxXxXxXxXxXxXxXxXxXxX% ' u.N.tXjXfXP.d.Z xXxXxXxXxXT d.s.U.gXjXgX6X] xXxXxXxXxXxXxXxXxXxXxXxXxXxXxXxXxXxXxXxXxXxXxX",
"xXxXxXxXxXxXxXxXxXxXxXxXxXxXxXxXxX7 2.t.K.gXjXdX-Xn.E xXxXxXxX= 4.s.n.>XjXjXzXeXc.- xXxXxXxXxXxXxXxXxXxXxXxXxXxXxXxXxXxXxXxXxXxX",
"xXxXxXxXxXxXxXxXxXxXxXxXxXxXxXxXxXt 9.t.I.jXjXjXyXB.4.@ . .   = <.y.K.hXkXjXjXrXc.4 xXxXxXxXxXxXxXxXxXxXxXxXxXxXxXxXxXxXxXxXxXxX",
"xXxXxXxXxXxXxXxXxXxXxXxXxXxXxXxXxXA q.t.+XjXjXzXpX}.w.p ~ ^ K u 9 i z.zXkXjXjXfXm.0 xXxXxXxXxXxXxXxXxXxXxXxXxXxXxXxXxXxXxXxXxXxX",
"xXxXxXxXxXxXxXxXxXxXxXxXxXxXxXxXxXK q.t.=XjXjXjXsX-Xy.5.f.n.f.s.4.T e E.wXkXgXpXG.0 xXxXxXxXxXxXxXxXxXxXxXxXxXxXxXxXxXxXxXxXxXxX",
"xXxXxXxXxXxXxXxXxXxXxXxXxXxXxXxXxXU q.n.>XjXjXzXsXqXN.s.s.s.s.t.f.g.*.u c 4XkXhXB.F xXxXxXxXxXxXxXxXxXxXxXxXxXxXxXxXxXxXxXxXxXxX",
"xXxXxXxXxXxXxXxXxXxXxXxXxXxXxXxXxXR e.n.:XjXjXjXsXrXH.t.n.t.n.t.s.n.f.=.G g 4XgXK.A xXxXxXxXxXxXxXxXxXxXxXxXxXxXxXxXxXxXxXxXxXxX",
"xXxXxXxXxXxXxXxXxXxXxXxXxXxXxXxXxX' e.n.8XjXjXjXpX7XN.t.n.t.t.t.s.s.s.f.-.P k 9XU.A xXxXxXxXxXxXxXxXxXxXxXxXxXxXxXxXxXxXxXxXxXxX",
"xXxXxXxXxXxXxXxXxXxXxXxXxXxXxXxXxX' q.n.qXkXjXgXrXI.s.s.t.t.t.n.s.s.s.s.s.:.H n H.A xXxXxXxXxXxXxXxXxXxXxXxXxXxXxXxXxXxXxXxXxXxX",
"xXxXxXxXxXxXxXxXxXxXxXxXxXxXxXxXxXR 9.n.8XjXjXpX@Xn.s.s.t.n.n.t.s.s.s.s.s.d.=.s W F xXxXxXxXxXxXxXxXxXxXxXxXxXxXxXxXxXxXxXxXxXxX",
"xXxXxXxXxXxXxXxXxXxXxXxXxXxXxXxXxXY 9.s.:XjXdX,Xm.s.s.s.s.s.s.s.s.s.s.s.s.s.a.#.8 5 xXxXxXxXxXxXxXxXxXxXxXxXxXxXxXxXxXxXxXxXxXxX",
"xXxXxXxXxXxXxXxXxXxXxXxXxXxXxXxXxXS 9.t.-XpX+Xm.s.s.s.s.s.s.s.s.s.s.s.s.s.s.d.:.J . xXxXxXxXxXxXxXxXxXxXxXxXxXxXxXxXxXxXxXxXxXxX",
"xXxXxXxXxXxXxXxXxXxXxXxXxXxXxXxXxX4 ` u.P.K.s.t.n.n.s.s.s.s.s.s.s.s.s.s.s.s.s.p.*.6 xXxXxXxXxXxXxXxXxXxXxXxXxXxXxXxXxXxXxXxXxXxX",
"xXxXxXxXxXxXxXxXxXxXxXxXxXxXxXxX# A ` t.t.t.t.J.:X:XoXm.s.s.s.s.s.s.s.s.s.s.N.P.T.T xXxXxXxXxXxXxXxXxXxXxXxXxXxXxXxXxXxXxXxXxXxX",
"xXxXxXxXxXxXxXxXxXxXxXxXxXxXxXxX7 %.e.t.t.t.t.H.dXkXjX;Xn.s.s.m.s.N.n.n.s.I.yXjXkXL.& xXxXxXxXxXxXxXxXxXxXxXxXxXxXxXxXxXxXxXxXxX",
"xXxXxXxXxXxXxXxXxXxXxXxXxXxXxXxXS 9.u.t.n.t.n.t.P.8XtX>Xn.s.n.=X,XeX=XK.n.:XjXzXqXh.r xXxXxXxXxXxXxXxXxXxXxXxXxXxXxXxXxXxXxXxXxX",
"xXxXxXxXxXxXxXxXxXxXxXxXxXxXxX# ] 9.t.n.n.t.n.t.t.n.N.m.s.s.N.tXjXjXkX$Xs.A.OXP.M.;.P xXxXxXxXxXxXxXxXxXxXxXxXxXxXxXxXxXxXxXxXxX",
"xXxXxXxXxXxXxXxXxXxXxXxXxXxX2 (.J.r.t.t.t.t.r.9.8.8.r.t.s.s.R.zXjXjXkX-Xs.s.y.r.d.:.@.O xXxXxXxXxXxXxXxXxXxXxXxXxXxXxXxXxXxXxXxX",
"xXxXxXxXxXxXxXxXxXxXxXxX  l 4XkX6Xm.t.n.t.r.8.^ b z.c.y.n.s.;XjXjXjXjX8Xn.s.3.( +.w.*.g X xXxXxXxXxXxXxXxXxXxXxXxXxXxXxXxXxXxXxX",
"xXxXxXxXxXxXxXxXxXxXxXxXxXc dXjXzXoXt.t.s.e./ 1 V lX&X7.s.B.aXjXjXjXjXaXC.7.g z 2XD.e.,XC . xXxXxXxXxXxXxXxXxXxXxXxXxXxXxXxXxXxX",
"xXxXxXxXxXxXxXxXxXxXxXxXxXl iXkXjXaXK.t.t.q.! + z 4XQ.5.s.$XjXjXjXkXjXjXOX) , M lX%X,.$XB xXxXxXxXxXxXxXxXxXxXxXxXxXxXxXxXxXxXxX",
"xXxXxXxXxXxXxXxXxXxXxXxX  N dXjXjXjXeXC.t.q.) k.> + 3 5.J.hXjXjXuX X).2X;X) 3 > V z <.=Xc xXxXxXxXxXxXxXxXxXxXxXxXxXxXxXxXxXxXxX",
"xXxXxXxXxXxXxXxXxXxXxXxXxXX  .pXjXjXjXeXJ.r.2..Xz > v m.qXjXjXsX~.`.XX`.%XS.).z o q 7.tXE.. xXxXxXxXxXxXxXxXxXxXxXxXxXxXxXxXxXxX",
"xXxXxXxXxXxXxXxXxXxXxXxXxXxXX  .rXdXdXjXaX}.n.,.Q ) V.qXjXjXjXzX`.o.'.X.|.;Xv.n x ( oX%X, xXxXxXxXxXxXxXxXxXxXxXxXxXxXxXxXxXxXxX",
"xXxXxXxXxXxXxXxXxXxXxXxXxXxXxXX C 9XpXdXdXjXyX=X$X>XhXjXjXjXjXjX9X/...|.sXjX=Xc.c.OX5Xd xXxXxXxXxXxXxXxXxXxXxXxXxXxXxXxXxXxXxXxX",
"xXxXxXxXxXxXxXxXxXxXxXxXxXxXxXxXo l 3XpXpXpXdXjXjXjXjXjXjXjXjXjXuXW.M 4XkXjXjXhXtXwXz xXxXxXxXxXxXxXxXxXxXxXxXxXxXxXxXxXxXxXxXxX",
"xXxXxXxXxXxXxXxXxXxXxXxXxXxXxXxXxXxX< Q.9XpXpXfXpXsXgXzXjXjXjXdX2X|.|.1XzXjXzXzX9XM xXxXxXxXxXxXxXxXxXxXxXxXxXxXxXxXxXxXxXxXxXxX",
"xXxXxXxXxXxXxXxXxXxXxXxXxXxXxXxXxXxXxXX q W.|.rXaXaXpXdXpXpXsXsXdXdXdXdXsXpXaX|.k xXxXxXxXxXxXxXxXxXxXxXxXxXxXxXxXxXxXxXxXxXxXxX",
"xXxXxXxXxXxXxXxXxXxXxXxXxXxXxXxXxXxXxXxXxXxX; j B ^. X3X9XrXfXfXpXpXaXpX9X X| > xXxXxXxXxXxXxXxXxXxXxXxXxXxXxXxXxXxXxXxXxXxXxXxX",
"xXxXxXxXxXxXxXxXxXxXxXxXxXxXxXxXxXxXxXxXxXxXxXxXxX  $ w f l n B  . .B M j $ xXxXxXxXxXxXxXxXxXxXxXxXxXxXxXxXxXxXxXxXxXxXxXxXxXxX",
"xXxXxXxXxXxXxXxXxXxXxXxXxXxXxXxXxXxXxXxXxXxXxXxXxXxXs 1.5.].)._.{ O xXxXxXxXxXxXxXxXxXxXxXxXxXxXxXxXxXxXxXxXxXxXxXxXxXxXxXxXxXxX",
"xXxXxXxXxXxXxXxXxXxXxXxXxXxXxXxXxXxXxXxXxXxXxXxXxXi 7.[ G.gXkXkXtXv xXxXxXxXxXxXxXxXxXxXxXxXxXxXxXxXxXxXxXxXxXxXxXxXxXxXxXxXxXxX",
"xXxXxXxXxXxXxXxXxXxXxXxXxXxXxXxXxXxXxXxXxXxXxXxXxXE r.~ =XjXjXjXkX].# xXxXxXxXxXxXxXxXxXxXxXxXxXxXxXxXxXxXxXxXxXxXxXxXxXxXxXxXxX",
"xXxXxXxXxXxXxXxXxXxXxXxXxXxXxXxXxXxXxX1 2 xXxXxX8 0.<._ eXjXjXjXjX7Xf xXxXxXxXxXxXxXxXxXxXxXxXxXxXxXxXxXxXxXxXxXxXxXxXxXxXxXxXxX",
"xXxXxXxXxXxXxXxXxXxXxXxXxXxXxXxXxXxX< (.B xXxXxXu d.<.j.dXjXjXjXjXgX{ xXxXxXxXxXxXxXxXxXxXxXxXxXxXxXxXxXxXxXxXxXxXxXxXxXxXxXxXxX",
"xXxXxXxXxXxXxXxXxXxXxXxXxXxXxXxXxXxXW.jXM xXxXxXK f.<.} gXjXjXjXjXkXz.xXxXxXxXxXxXxXxXxXxXxXxXxXxXxXxXxXxXxXxXxXxXxXxXxXxXxXxXxX",
"xXxXxXxXxXxXxXxXxXxXxXxXxXxXxXxXxX< 2XtXm xXxXxXK d.0.b uXjXjXjXjXkX{.O xXxXxXxXxXxXxXxXxXxXxXxXxXxXxXxXxXxXxXxXxXxXxXxXxXxXxXxX",
"xXxXxXxXxXxXxXxXxXxXxXxXxXxXxXxXxXd &XA.+.& xXxXZ f.r.W 2XkXjXjXjXkX&Xw xXxXxXxXxXxXxXxXxXxXxXxXxXxXxXxXxXxXxXxXxXxXxXxXxXxXxXxX",
"xXxXxXxXxXxXxXxXxXxXxXxXxXxXxXxXxX< 5.i.t.( r xXe H.$Xl.).lXjXjXkXgXD.x 3 xXxXxXxXxXxXxXxXxXxXxXxXxXxXxXxXxXxXxXxXxXxXxXxXxXxXxX",
"xXxXxXxXxXxXxXxXxXxXxXxXxXxXxXxXxXxXS 9.t.f.t.3.i n ^.x [.kXkXkXkXqX_ ; xXxXxXxXxXxXxXxXxXxXxXxXxXxXxXxXxXxXxXxXxXxXxXxXxXxXxXxX",
"xXxXxXxXxXxXxXxXxXxXxXxXxXxXxXxXxXxX- R 9.r.u.u.~ - K ,.n.oX6X8X+Xy.8 xXxXxXxXxXxXxXxXxXxXxXxXxXxXxXxXxXxXxXxXxXxXxXxXxXxXxXxXxX",
"xXxXxXxXxXxXxXxXxXxXxXxXxXxXxXxXxXxXxX- I %.9.%.D P g.t.[ 9.e.r.$.a Z 6 xXxXxXxXxXxXxXxXxXxXxXxXxXxXxXxXxXxXxXxXxXxXxXxXxXxXxXxX",
"xXxXxXxXxXxXxXxXxXxXxXxXxXxXxXxXxXxXxXxXxX7 y 8 8 =.d.s.K D I a i ^ -.H xXxXxXxXxXxXxXxXxXxXxXxXxXxXxXxXxXxXxXxXxXxXxXxXxXxXxXxX",
"xXxXxXxXxXxXxXxXxXxXxXxXxXxXxXxXxXxXxXxXxXxXxXxXP ;.s.f.D . xX4 6.n.-.#.* xXxXxXxXxXxXxXxXxXxXxXxXxXxXxXxXxXxXxXxXxXxXxXxXxXxXxX",
"xXxXxXxXxXxXxXxXxXxXxXxXxXxXxXxXxXxXxXxXxXxXxX= #.:.s.i.D xXxX0 y.t.a.=.r xXxXxXxXxXxXxXxXxXxXxXxXxXxXxXxXxXxXxXxXxXxXxXxXxXxXxX",
"xXxXxXxXxXxXxXxXxXxXxXxXxXxXxXxXxXxXxXxXxXxXxXr ;.a.s.d.A xXxX7 0.i.d.;.J xXxXxXxXxXxXxXxXxXxXxXxXxXxXxXxXxXxXxXxXxXxXxXxXxXxXxX",
"xXxXxXxXxXxXxXxXxXxXxXxXxXxXxXxXxXxXxXxXxXxXxXJ :.d.t.y.t xXxX- 2.t.i.:.$.xXxXxXxXxXxXxXxXxXxXxXxXxXxXxXxXxXxXxXxXxXxXxXxXxXxXxX",
"xXxXxXxXxXxXxXxXxXxXxXxXxXxXxXxXxXxXxXxXxXxXxX@.:.s.t.2.4 xXxXxX( t.i.a.*.6 xXxXxXxXxXxXxXxXxXxXxXxXxXxXxXxXxXxXxXxXxXxXxXxXxXxX",
"xXxXxXxXxXxXxXxXxXxXxXxXxXxXxXxXxXxXxXxXxXxX1 D.N.f.q.R xXxXxXxXS e.i.f.L.x xXxXxXxXxXxXxXxXxXxXxXxXxXxXxXxXxXxXxXxXxXxXxXxXxXxX",
"xXxXxXxXxXxXxXxXxXxXxXxXxXxXxXxXxXxXxXxXxXxXxX!.7X#XI.} xXxXxXxXh G.}.;X X2 xXxXxXxXxXxXxXxXxXxXxXxXxXxXxXxXxXxXxXxXxXxXxXxXxXxX",
"xXxXxXxXxXxXxXxXxXxXxXxXxXxXxXxXxXxXxXxXxXxXxX, B ^.E.< xXxXxXxXxX| (.!.j xXxXxXxXxXxXxXxXxXxXxXxXxXxXxXxXxXxXxXxXxXxXxXxXxXxXxX",
"xXxXxXxXxXxXxXxXxXxXxXxXxXxXxXxXxXxXxXxXxXxXxXxXxXxXxXxXxXxXxXxXxXxXxXxXxXxXxXxXxXxXxXxXxXxXxXxXxXxXxXxXxXxXxXxXxXxXxXxXxXxXxXxX",
"xXxXxXxXxXxXxXxXxXxXxXxXxXxXxXxXxXxXxXxXxXxXxXxXxXxXxXxXxXxXxXxXxXxXxXxXxXxXxXxXxXxXxXxXxXxXxXxXxXxXxXxXxXxXxXxXxXxXxXxXxXxXxXxX",
"xXxXxXxXxXxXxXxXxXxXxXxXxXxXxXxXxXxXxXxXxXxXxXxXxXxXxXxXxXxXxXxXxXxXxXxXxXxXxXxXxXxXxXxXxXxXxXxXxXxXxXxXxXxXxXxXxXxXxXxXxXxXxXxX"
};
