/* XPM */
static char *Walk__6_[] = {
/* columns rows colors chars-per-pixel */
"64 64 217 2 ",
"   c #020202",
".  c #0B0B0A",
"X  c #0D0A04",
"o  c #130C01",
"O  c #151108",
"+  c #151412",
"@  c #1D1C1C",
"#  c #2B1B05",
"$  c #241807",
"%  c #2E1E0B",
"&  c #362404",
"*  c #3B2606",
"=  c #312310",
"-  c #2A2623",
";  c #262524",
":  c #312E2B",
">  c #36322D",
",  c #3C3834",
"<  c #3E3B3A",
"1  c #383431",
"2  c #452B08",
"3  c #4A3307",
"4  c #54340A",
"5  c #5C390A",
"6  c #543909",
"7  c #563B16",
"8  c #643C0A",
"9  c #463625",
"0  c #6A420E",
"q  c #66470A",
"w  c #73450D",
"e  c #77540B",
"r  c #694612",
"t  c #784B13",
"y  c #7E521C",
"u  c #45423E",
"i  c #4E473A",
"p  c #544B39",
"a  c #63513C",
"s  c #7E5D2C",
"d  c #4A4745",
"f  c #5A534D",
"g  c #585656",
"h  c #534B45",
"j  c #635C5A",
"k  c #665A4B",
"l  c #65605A",
"z  c #786956",
"x  c #646160",
"c  c #726B67",
"v  c #7C7875",
"b  c #835C0B",
"n  c #85500F",
"m  c #885614",
"M  c #9A5F16",
"N  c #8C620B",
"B  c #91660C",
"V  c #8B6113",
"C  c #9F6E16",
"Z  c #A8770D",
"A  c #A96818",
"S  c #A7741B",
"D  c #BB731B",
"F  c #B37A16",
"G  c #B06A15",
"H  c #976527",
"J  c #8E642E",
"K  c #A76D24",
"L  c #B8782A",
"P  c #A57438",
"I  c #B67D36",
"U  c #A06F31",
"Y  c #C2761A",
"T  c #C6781A",
"R  c #C17B26",
"E  c #846941",
"W  c #957644",
"Q  c #887053",
"!  c #A07442",
"~  c #807A74",
"^  c #946362",
"/  c #E17070",
"(  c #BC8318",
")  c #BE860E",
"_  c #BB8139",
"`  c #AD8227",
"'  c #C58B0F",
"]  c #CF920F",
"[  c #C88C14",
"{  c #D79718",
"}  c #D38A17",
"|  c #E4941E",
" . c #E9A514",
".. c #F8AC19",
"X. c #F4AC12",
"o. c #FEB314",
"O. c #FEB11D",
"+. c #C88227",
"@. c #D78828",
"#. c #DB952A",
"$. c #CA8837",
"%. c #D48D34",
"&. c #E38C22",
"*. c #EE9324",
"=. c #E3922B",
"-. c #ED962A",
";. c #EE9A2D",
":. c #E49C28",
">. c #F0972B",
",. c #E29534",
"<. c #ED9A34",
"1. c #EE9F3B",
"2. c #E59736",
"3. c #F09C34",
"4. c #F09F39",
"5. c #EEA22C",
"6. c #EFA524",
"7. c #F9AC24",
"8. c #F4A62E",
"9. c #F5A82C",
"0. c #EEA03E",
"q. c #F2A534",
"w. c #F1A23C",
"e. c #F7A932",
"r. c #FFC03D",
"t. c #9C8564",
"y. c #87807C",
"u. c #B49569",
"i. c #CA8D44",
"p. c #DC9A4A",
"a. c #CE9C5E",
"s. c #E59E4A",
"d. c #EEA344",
"f. c #EEA64B",
"g. c #F1A749",
"h. c #F1A444",
"j. c #EFA952",
"k. c #EEAB5B",
"l. c #E4A55B",
"z. c #F0AE5C",
"x. c #FABE5C",
"c. c #D2A26A",
"v. c #DBB17E",
"b. c #E5A962",
"n. c #EDB168",
"m. c #F0B162",
"M. c #F1B66C",
"N. c #F2B865",
"B. c #E9B474",
"V. c #F2BA73",
"C. c #F2BF7F",
"Z. c #F0AF61",
"A. c #FAC472",
"S. c #F5CA72",
"D. c #7C7E80",
"F. c #8A8886",
"G. c #948A85",
"H. c #9D938F",
"J. c #9F9591",
"K. c #A69D97",
"L. c #BA9897",
"P. c #B8A59A",
"I. c #ABA09B",
"U. c #ABA9A6",
"Y. c #B4AEAB",
"T. c #BDB3AE",
"R. c #D09393",
"E. c #F58E8E",
"W. c #CCB496",
"Q. c #F2BD82",
"!. c #D1BDA9",
"~. c #C8BCB8",
"^. c #C2AFAB",
"/. c #F3C183",
"(. c #F3C48B",
"). c #FACA84",
"_. c #F4CC9B",
"`. c #EFC69B",
"'. c #DAC4A9",
"]. c #CEC0BB",
"[. c #F4CFA5",
"{. c #F5D2A6",
"}. c #F4D3AD",
"|. c #F6D6B2",
" X c #F6D9B6",
".X c #F6DCBD",
"XX c #E2CCB1",
"oX c #FCE0BD",
"OX c #CECDCC",
"+X c #C6C5C4",
"@X c #D4CBC7",
"#X c #D9D2C9",
"$X c #DAD7D4",
"%X c #E6D4C9",
"&X c #F6DCC3",
"*X c #F4DDCB",
"=X c #E4DCD8",
"-X c #F7E0C6",
";X c #F5E2C9",
":X c #E7E0DA",
">X c #F5E3D4",
",X c #F9EBDD",
"<X c #F5E6D9",
"1X c #EBE7E3",
"2X c #F6EAE5",
"3X c #F9ECE5",
"4X c #F7EDEA",
"5X c #F8EEEB",
"6X c #F3E5E1",
"7X c #FAF0E6",
"8X c #F9F2ED",
"9X c #F7F1EC",
"0X c #F4F3F2",
"qX c #FAF6F3",
"wX c #FCF8F6",
"eX c #FDFAF8",
"rX c None",
/* pixels */
"rXrXrXrXrXrXrXrXrXrXrXrXrXrXrXrXrXrXrXrXrXrXrXrXrXrXrXrXrXrXrXrXrXrXrXrXrXrXrXrXrXrXrXrXrXrXrXrXrXrXrXrXrXrXrXrXrXrXrXrXrXrXrXrX",
"rXrXrXrXrXrXrXrXrXrXrXrXrXrXrXrXrXrXrXrXrXrXrXrXrXrXrXrXrXrXrXrXrXrXrXrXrXrXrXrXrXrXrXrXrXrXrXrXrXrXrXrXrXrXrXrXrXrXrXrXrXrXrXrX",
"rXrXrXrXrXrXrXrXrXrXrXrXrXrXrXrXrXrXrXrXrXrXrXrXrXrXrXrXrXrXrXrXrXrXrXrX* rXrXrXrXrXrXrXrXrXrXrXrXrXrXrXrXrXrXrXrXrXrXrXrXrXrXrX",
"rXrXrXrXrXrXrXrXrXrXrXrXrXrXrXrXrXrXrXrXrXb 6 rXrXrXrXrXrXrXrXrXrXrXrX2 [ m rXrXrXrXrXrXrXrXrXrXrXrXrXrXrXrXrXrXrXrXrXrXrXrXrXrX",
"rXrXrXrXrXrXrXrXrXrXrXrXrXrXrXrXrXrXrXrXr 5.' & rXrXrXrXrXrXrXrXrXrX$ F e.%.3 rXrXrXrXrXrXrXrXrXrXrXrXrXrXrXrXrXrXrXrXrXrXrXrXrX",
"rXrXrXrXrXrXrXrXrXrXrXrXrXrXrXrXrXrXrX% L w.9.C rXrXrXrXrXrXrXrXrXrXb 9.0.V.J rXrXrXrXrXrXrXrXrXrXrXrXrXrXrXrXrXrXrXrXrXrXrXrXrX",
"rXrXrXrXrXrXrXrXrXrXrXrXrXrXrXrXrXrXrX8 -.1.w.6.e rXrXrXrXrXrXrXrX6 :.q.z.*Xc.* rXrXrXrXrXrXrXrXrXrXrXrXrXrXrXrXrXrXrXrXrXrXrXrX",
"rXrXrXrXrXrXrXrXrXrXrXrXrXrXrXrXrXrXrXA 4.d.z.w.} * rXrXrXrXrXrXrXF q.1._.5X`.w rXrXrXrXrXrXrXrXrXrXrXrXrXrXrXrXrXrXrXrXrXrXrXrX",
"rXrXrXrXrXrXrXrXrXrXrXrXrXrXrXrXrXrX2 @.<.Z.&Xk.9.B rXrXrXrXrXrXq 6.0.j.>X5X&XK rXrXrXrXrXrXrXrXrXrXrXrXrXrXrXrXrXrXrXrXrXrXrXrX",
"rXrXrXrXrXrXrXrXrXrXrXrXrXrXrXrXrXrX0 -.1.(.qX}.h.#.2 rXrXrXrXrX( q.1.(.qXqX>Xi.* rXrXrXrXrXrXrXrXrXrXrXrXrXrXrXrXrXrXrXrXrXrXrX",
"rXrXrXrXrXrXrXrXrXrXrXrXrXrXrXrXrXrXM 3.d. XwX2XM.5.b rXrXrXrX6 :.0.f.&XwXqX2Xb.5 rXrXrXrXrXrXrXrXrXrXrXrXrXrXrXrXrXrXrXrXrXrXrX",
"rXrXrXrXrXrXrXrXrXrXrXrXrXrXrXrXrX# T 3.f.>XwX9X}.w.( rXrXrXrXe q.1.M.9XqXqX5XQ.n rXrXrXrXrXrXrXrXrXrXrXrXrXrXrXrXrXrXrXrXrXrXrX",
"rXrXrXrXrXrXrXrXrXrXrXrXrXrXrXrXrX2 @.3.m.7XqXqX>Xk.#.* rXrXrXV 1.0._.wXqXqX5X`.A rXrXrXrXrXrXrXrXrXrXrXrXrXrXrXrXrXrXrXrXrXrXrX",
"rXrXrXrXrXrXrXrXrXrXrXrXrXrXrXrXrX0 *.<.V.9XqXqX4XQ.5.q r t q 4 7 J #XwXqXqX0X|.R rXrXrXrXrXrXrXrXrXrXrXrXrXrXrXrXrXrXrXrXrXrXrX",
"rXrXrXrXrXrXrXrXrXrXrXrXrXrXrXrXrXn *.1.(.qXwXqX4X}.2.C 2.d.w.:.' e p U.9XwXqX&X@.2 rXrXrXrXrXrXrXrXrXrXrXrXrXrXrXrXrXrXrXrXrXrX",
"rXrXrXrXrXrXrXrXrXrXrXrXrXrXrXrXrXM -.1.{.wX0X0X4X*Xj.,.1.d.1.d.w.9.' r v 1XqX>X2.4 rXrXrXrXrXrXrXrXrXrXrXrXrXrXrXrXrXrXrXrXrXrX",
"rXrXrXrXrXrXrXrXrXrXrXrXrXrXrXrXrXG >.0.}.wXqXqX4X<Xn.1.s.4.1.4.0.0.e. .b l 1X<Xd.8 rXrXrXrXrXrXrXrXrXrXrXrXrXrXrXrXrXrXrXrXrXrX",
"rXrXrXrXrXrXrXrXrXrXrXrXrXrXrXrXrXD -.d..XwXqXqX2X<Xn.1.s.4.d.4.0.d.d.q...B g =Xk.w rXrXrXrXrXrXrXrXrXrXrXrXrXrXrXrXrXrXrXrXrXrX",
"rXrXrXrXrXrXrXrXrXrXrXrXrXrXrXrXrXY -.d.&XwXqX8X2X}.d.0.w.d.4.4.0.0.0.0.q...N c l.w rXrXrXrXrXrXrXrXrXrXrXrXrXrXrXrXrXrXrXrXrXrX",
"rXrXrXrXrXrXrXrXrXrXrXrXrXrXrXrXrXY *.h.-XwXqX9X&Xk.0.0.4.4.s.w.0.0.0.0.0.8.X.e H t rXrXrXrXrXrXrXrXrXrXrXrXrXrXrXrXrXrXrXrXrXrX",
"rXrXrXrXrXrXrXrXrXrXrXrXrXrXrXrXrXD *.d.-XwX9X*Xn.0.0.0.0.0.0.0.0.0.0.0.0.0.7.{ 4 & rXrXrXrXrXrXrXrXrXrXrXrXrXrXrXrXrXrXrXrXrXrX",
"rXrXrXrXrXrXrXrXrXrXrXrXrXrXrXrXrXA *.1..XqX&Xm.1.0.0.0.0.0.0.0.0.0.0.0.0.0.w.O.Z X rXrXrXrXrXrXrXrXrXrXrXrXrXrXrXrXrXrXrXrXrXrX",
"rXrXrXrXrXrXrXrXrXrXrXrXrXrXrXrXrX0 &.1._._.j.1.0.1.0.0.0.0.0.0.0.0.0.0.0.0.w.9.X.6 rXrXrXrXrXrXrXrXrXrXrXrXrXrXrXrXrXrXrXrXrXrX",
"rXrXrXrXrXrXrXrXrXrXrXrXrXrXrXrXrX4 Y <.d.d.1.d.V.C.z.0.0.0.0.0.0.0.0.0.1.w.j.N.S.` o rXrXrXrXrXrXrXrXrXrXrXrXrXrXrXrXrXrXrXrXrX",
"rXrXrXrXrXrXrXrXrXrXrXrXrXrXrXrX$ T *.4.s.4.4.M.8XwX,X(.0.0.0.d.0.d.d.0.0.M.>XqXqXS.2 rXrXrXrXrXrXrXrXrXrXrXrXrXrXrXrXrXrXrXrXrX",
"rXrXrXrXrXrXrXrXrXrXrXrXrXrXrXrX4 &.-.1.w.4.4.g.{.7XwX<Xj.1.0.(.(. X_.M.0.|.wX8X-Xr.N rXrXrXrXrXrXrXrXrXrXrXrXrXrXrXrXrXrXrXrXrX",
"rXrXrXrXrXrXrXrXrXrXrXrXrXrXrXrXm *.<.s.s.w.4.s.d.m./.M.d.0.d.-XqXqXqX{.0.k./.V.d.O.' o rXrXrXrXrXrXrXrXrXrXrXrXrXrXrXrXrXrXrXrX",
"rXrXrXrXrXrXrXrXrXrXrXrXrXrXrX; R *.4.w.1.w.4.<.;.;.1.0.0.0.z.3XqXqXwX&Xd.1.1.q.<.7. .& rXrXrXrXrXrXrXrXrXrXrXrXrXrXrXrXrXrXrXrX",
"rXrXrXrXrXrXrXrXrXrXrXrXrXrXd ]._.4.0.0.0.0.-.&.L I ,.1.1.1./.qXqXqXqX,Xj.0.=.L I ,...W @ rXrXrXrXrXrXrXrXrXrXrXrXrXrXrXrXrXrXrX",
"rXrXrXrXrXrXrXrXrXrXrXrXrXd =XeX3XM.0.0.0.<.&.s g OX'.2.w.d..XwXqXqXqX0XM.1.J d +X'.#.).U.+ rXrXrXrXrXrXrXrXrXrXrXrXrXrXrXrXrXrX",
"rXrXrXrXrXrXrXrXrXrXrXrXrX: #XwXwX&Xj.0.0.;.R : d 0XOX! 4.N.5XqXqXwXwXwX[.$., < 0X$XI S.F.  rXrXrXrXrXrXrXrXrXrXrXrXrXrXrXrXrXrX",
"rXrXrXrXrXrXrXrXrXrXrXrXrXu =XeXwXqX}.h.0.>.L d ; x g P d.|.wXqX9X$X].OX;Xi.d ; x g J ).K.O rXrXrXrXrXrXrXrXrXrXrXrXrXrXrXrXrXrX",
"rXrXrXrXrXrXrXrXrXrXrXrXrX< @XwXqXqXqX[.f.;.@.P.D.. , $.C.8XqXqX~.u.R.R.~.Q.K.F.. : _ oXY.+ rXrXrXrXrXrXrXrXrXrXrXrXrXrXrXrXrXrX",
"rXrXrXrXrXrXrXrXrXrXrXrXrXrX, ~.5XqXqXwX Xz.-.i.z a P M.,XwXqXwXL./ E.E.L.:Xc.Q a U N.#X, rXrXrXrXrXrXrXrXrXrXrXrXrXrXrXrXrXrXrX",
"rXrXrXrXrXrXrXrXrXrXrXrXrXrXrX1 T.2X4X5XqX,X_.Z.s.l._.7XwXqXqXqX2XL.^ L.$XwX*Xb.p.V.;Xj rXrXrXrXrXrXrXrXrXrXrXrXrXrXrXrXrXrXrXrX",
"rXrXrXrXrXrXrXrXrXrXrXrXrXrXrXrX- J.6X4X2X5XqX5X7X8XqXqXqXqXqXqXqXOXj +XwXwXwX8X,X9Xy.. rXrXrXrXrXrXrXrXrXrXrXrXrXrXrXrXrXrXrXrX",
"rXrXrXrXrXrXrXrXrXrXrXrXrXrXrXrXrX+ c @X4X2X2X2X9X8XqXqXqXqXqXwX=XU.Y.Y.1XqXqX8X4XG.+ rXrXrXrXrXrXrXrXrXrXrXrXrXrXrXrXrXrXrXrXrX",
"rXrXrXrXrXrXrXrXrXrXrXrXrXrXrXrXrXrXrX: ~ @X6X2X2X2X2X2X4X4X5X5X5X5XqX5X4X4X2X=X~ + rXrXrXrXrXrXrXrXrXrXrXrXrXrXrXrXrXrXrXrXrXrX",
"rXrXrXrXrXrXrXrXrXrXrXrXrXrXrXrXrXrXrXrXrX: g H.T.#X=X6X6X3X2X4X4X4X2X2X6X%XK.d X rXrXrXrXrXrXrXrXrXrXrXrXrXrXrXrXrXrXrXrXrXrXrX",
"rXrXrXrXrXrXrXrXrXrXrXrXrXrXrXrXrXrXrXrXrXrXrXrX+ : 9 f c ~ G.H.K.K.K.~ x 1 + rXrXrXrXrXrXrXrXrXrXrXrXrXrXrXrXrXrXrXrXrXrXrXrXrX",
"rXrXrXrXrXrXrXrXrXrXrXrXrXrXrXrXrXrXrXrXrXrXrXrXrXrX5 K K W F.v z %   rXrXrXrXrXrXrXrXrXrXrXrXrXrXrXrXrXrXrXrXrXrXrXrXrXrXrXrXrX",
"rXrXrXrXrXrXrXrXrXrXrXrXrXrXrXrXrXrXrXrXrXrXrXrXrXS <.=.d.&XeXwX5XQ rXrXrXrXrXrXrXrXrXrXrXrXrXrXrXrXrXrXrXrXrXrXrXrXrXrXrXrXrXrX",
"rXrXrXrXrXrXrXrXrXrXrXrXrXrXrXrXrXrXrXrXrXrXrX# S 3.@.A n.8XwXqXwX!.= rXrXrXrXrXrXrXrXrXrXrXrXrXrXrXrXrXrXrXrXrXrXrXrXrXrXrXrXrX",
"rXrXrXrXrXrXrXrXrXrXrXrXrXrXrXrXrXrXrXrX. rXrXV q.@.H s.{.0XwXqXqX,Xa rXrXrXrXrXrXrXrXrXrXrXrXrXrXrXrXrXrXrXrXrXrXrXrXrXrXrXrXrX",
"rXrXrXrXrXrXrXrXrXrXrXrXrXrXrXrXrXrXrXy.u rX3 #.4.K L g.;XwXqXqXqX8Xt.rXrXrXrXrXrXrXrXrXrXrXrXrXrXrXrXrXrXrXrXrXrXrXrXrXrXrXrXrX",
"rXrXrXrXrXrXrXrXrXrXrXrXrXrXrXrXrXrXv $Xu rXb q.<.m %.z.3XqXqXqXwXwXP.O rXrXrXrXrXrXrXrXrXrXrXrXrXrXrXrXrXrXrXrXrXrXrXrXrXrXrXrX",
"rXrXrXrXrXrXrXrXrXrXrXrXrXrXrXrXrX: OX1Xd rXS 0.#.y 2.N.9XqXqXqXqXwX'.4 # rXrXrXrXrXrXrXrXrXrXrXrXrXrXrXrXrXrXrXrXrXrXrXrXrXrXrX",
"rXrXrXrXrXrXrXrXrXrXrXrXrXrXrXrXrXf *X_.s   t.).p.y 1.M.8XqXqXqXqXwXXXy ! rXrXrXrXrXrXrXrXrXrXrXrXrXrXrXrXrXrXrXrXrXrXrXrXrXrXrX",
"rXrXrXrXrXrXrXrXrXrXrXrXrXrXrXrXrXh B.w.#.r i T.G.H 1.z.3XwXqXqXwXwX'.E '.1 rXrXrXrXrXrXrXrXrXrXrXrXrXrXrXrXrXrXrXrXrXrXrXrXrXrX",
"rXrXrXrXrXrXrXrXrXrXrXrXrXrXrXrXrX= L 3.0.1.R H 7 D ;.d. XwXwXqXwX8Xa.k c rXrXrXrXrXrXrXrXrXrXrXrXrXrXrXrXrXrXrXrXrXrXrXrXrXrXrX",
"rXrXrXrXrXrXrXrXrXrXrXrXrXrXrXrXrXrX0 &.;.4.d.4.L n &.<.j. X3X5X;XV.m . rXrXrXrXrXrXrXrXrXrXrXrXrXrXrXrXrXrXrXrXrXrXrXrXrXrXrXrX",
"rXrXrXrXrXrXrXrXrXrXrXrXrXrXrXrXrXrXrXt } *.*.*.D 5 #.d.R +.h.g.<.G * rXrXrXrXrXrXrXrXrXrXrXrXrXrXrXrXrXrXrXrXrXrXrXrXrXrXrXrXrX",
"rXrXrXrXrXrXrXrXrXrXrXrXrXrXrXrXrXrXrXrX4 m A m * b 7.w.%.t Y G t m Z rXrXrXrXrXrXrXrXrXrXrXrXrXrXrXrXrXrXrXrXrXrXrXrXrXrXrXrXrX",
"rXrXrXrXrXrXrXrXrXrXrXrXrXrXrXrXrXrXrXrXrXrXrXrXrXZ O.0.1.w $ y I 8. .3 rXrXrXrXrXrXrXrXrXrXrXrXrXrXrXrXrXrXrXrXrXrXrXrXrXrXrXrX",
"rXrXrXrXrXrXrXrXrXrXrXrXrXrXrXrXrXrXrXrXrXrXrXrXrX' O.0.w.M # @.d.9.X.q rXrXrXrXrXrXrXrXrXrXrXrXrXrXrXrXrXrXrXrXrXrXrXrXrXrXrXrX",
"rXrXrXrXrXrXrXrXrXrXrXrXrXrXrXrXrXrXrXrXrXrXrXrXrX' O.0.4.A 2 ,.0.8.o.e rXrXrXrXrXrXrXrXrXrXrXrXrXrXrXrXrXrXrXrXrXrXrXrXrXrXrXrX",
"rXrXrXrXrXrXrXrXrXrXrXrXrXrXrXrXrXrXrXrXrXrXrXrXrX] O.4.4.D 4 -.0.e.o.b rXrXrXrXrXrXrXrXrXrXrXrXrXrXrXrXrXrXrXrXrXrXrXrXrXrXrXrX",
"rXrXrXrXrXrXrXrXrXrXrXrXrXrXrXrXrXrXrXrXrXrXrXrXrX] 7.4.4.L 5 ,.0.q.o.N rXrXrXrXrXrXrXrXrXrXrXrXrXrXrXrXrXrXrXrXrXrXrXrXrXrXrXrX",
"rXrXrXrXrXrXrXrXrXrXrXrXrXrXrXrXrXrXrXrXrXrXrXrXrX] 7.4.3.L 4 *.1.q.o.B rXrXrXrXrXrXrXrXrXrXrXrXrXrXrXrXrXrXrXrXrXrXrXrXrXrXrXrX",
"rXrXrXrXrXrXrXrXrXrXrXrXrXrXrXrXrXrXrXrXrXrXrXrXrXu.V.Z.M.u.9 l.d.j.x.E rXrXrXrXrXrXrXrXrXrXrXrXrXrXrXrXrXrXrXrXrXrXrXrXrXrXrXrX",
"rXrXrXrXrXrXrXrXrXrXrXrXrXrXrXrXrXrXrXrXrXrXrXrXrXl ].%X~.f + K.&X&X].d rXrXrXrXrXrXrXrXrXrXrXrXrXrXrXrXrXrXrXrXrXrXrXrXrXrXrXrX",
"rXrXrXrXrXrXrXrXrXrXrXrXrXrXrXrXrXrXrXrXrXrXrXrXrXrX: d - rXrX; g x , rXrXrXrXrXrXrXrXrXrXrXrXrXrXrXrXrXrXrXrXrXrXrXrXrXrXrXrXrX",
"rXrXrXrXrXrXrXrXrXrXrXrXrXrXrXrXrXrXrXrXrXrXrXrXrXrXrXrXrXrXrXrXrXrXrXrXrXrXrXrXrXrXrXrXrXrXrXrXrXrXrXrXrXrXrXrXrXrXrXrXrXrXrXrX",
"rXrXrXrXrXrXrXrXrXrXrXrXrXrXrXrXrXrXrXrXrXrXrXrXrXrXrXrXrXrXrXrXrXrXrXrXrXrXrXrXrXrXrXrXrXrXrXrXrXrXrXrXrXrXrXrXrXrXrXrXrXrXrXrX"
};
