/* XPM */
static char *Walk__7_[] = {
/* columns rows colors chars-per-pixel */
"64 64 224 2 ",
"   c #040301",
".  c #0C0B0B",
"X  c #080705",
"o  c #1D1305",
"O  c #1E1409",
"+  c #1B1A1A",
"@  c #161513",
"#  c #100D06",
"$  c #2B1C05",
"%  c #221803",
"&  c #2B1E0E",
"*  c #332205",
"=  c #3B2508",
"-  c #292111",
";  c #262524",
":  c #2C2A29",
">  c #2B2926",
",  c #3E3934",
"<  c #393837",
"1  c #34302E",
"2  c #472C08",
"3  c #463105",
"4  c #52330B",
"5  c #593B0A",
"6  c #5E3D15",
"7  c #683F0E",
"8  c #413B37",
"9  c #4F3C24",
"0  c #5C400A",
"q  c #6C4C0A",
"w  c #69460A",
"e  c #75490E",
"r  c #77540B",
"t  c #6B4711",
"y  c #7B4B11",
"u  c #734B14",
"i  c #7B5317",
"p  c #524126",
"a  c #494239",
"s  c #574B3E",
"d  c #665336",
"f  c #795D3C",
"g  c #4E4A46",
"h  c #494644",
"j  c #5A534A",
"k  c #5A5958",
"l  c #524C4A",
"z  c #625B53",
"x  c #615B59",
"c  c #796247",
"v  c #68625E",
"b  c #65625F",
"n  c #766755",
"m  c #6A6663",
"M  c #726B67",
"N  c #74716D",
"B  c #777877",
"V  c #86570D",
"C  c #8B5513",
"Z  c #855513",
"A  c #945E1D",
"S  c #824F10",
"D  c #8D630D",
"F  c #91660C",
"G  c #95690C",
"H  c #9C6D0B",
"J  c #986418",
"K  c #97701B",
"L  c #A3730D",
"P  c #A86819",
"I  c #A87518",
"U  c #BA731B",
"Y  c #B57917",
"T  c #B56E18",
"R  c #875C27",
"E  c #9B6727",
"W  c #946934",
"Q  c #9F723A",
"!  c #A76D22",
"~  c #B3762C",
"^  c #B7792A",
"/  c #A77538",
"(  c #B67F3B",
")  c #C5791B",
"_  c #CA7B1C",
"`  c #C17519",
"'  c #C27B25",
"]  c #897050",
"[  c #817A76",
"{  c #877E7A",
"}  c #8A7268",
"|  c #E87575",
" . c #BA840E",
".. c #C78B18",
"X. c #D8841E",
"o. c #D79813",
"O. c #CB900F",
"+. c #E68C1F",
"@. c #E39E1E",
"#. c #F7AD19",
"$. c #FDB21B",
"%. c #FFB515",
"&. c #ECA614",
"*. c #C9842B",
"=. c #C88827",
"-. c #DD8E2C",
";. c #D78B2A",
":. c #DD942D",
">. c #DC9821",
",. c #C88635",
"<. c #D48D34",
"1. c #DF9539",
"2. c #E08C25",
"3. c #EC9324",
"4. c #E3912C",
"5. c #ED9629",
"6. c #EE982E",
"7. c #E69C27",
"8. c #F09627",
"9. c #ED9B35",
"0. c #EE9F3B",
"q. c #E39734",
"w. c #F19D35",
"e. c #EEA625",
"r. c #F6A929",
"t. c #EEA03E",
"y. c #F3A535",
"u. c #F1A23C",
"i. c #F7A930",
"p. c #FBBC36",
"a. c #9A825B",
"s. c #A3844D",
"d. c #8C837D",
"f. c #9F8B6D",
"g. c #BB9465",
"h. c #B59776",
"j. c #DC9948",
"k. c #C38940",
"l. c #E69D44",
"z. c #DEA155",
"x. c #EEA343",
"c. c #EEA54A",
"v. c #F2A949",
"b. c #EFA952",
"n. c #EDAA5A",
"m. c #E6A253",
"M. c #F2AC54",
"N. c #F0AE5B",
"B. c #F0A752",
"V. c #EDB25B",
"C. c #C99D66",
"Z. c #D8AD7D",
"A. c #D2AE71",
"S. c #EDAE64",
"D. c #F1B263",
"F. c #F1B46C",
"G. c #F1B86F",
"H. c #F2B972",
"J. c #F2BD7B",
"K. c #F3B570",
"L. c #FFC959",
"P. c #8E8B88",
"I. c #938D89",
"U. c #9B938C",
"Y. c #9A9794",
"T. c #A59A96",
"R. c #B4918B",
"E. c #B4A290",
"W. c #BDB9B4",
"Q. c #BEBBB9",
"!. c #AAA9A7",
"~. c #D88484",
"^. c #C79A9A",
"/. c #F68B8B",
"(. c #CEB18F",
"). c #F1BC80",
"_. c #C7BAB6",
"`. c #CFBCA5",
"'. c #E7A6A6",
"]. c #F3C283",
"[. c #F5C589",
"{. c #EFC69A",
"}. c #F4CB9C",
"|. c #F4C892",
" X c #F3D39B",
".X c #CDC2BC",
"XX c #D2C5B7",
"oX c #F4CEA2",
"OX c #F3CEA9",
"+X c #F5D2A5",
"@X c #F5D5AD",
"#X c #F5D8B5",
"$X c #F7DBBA",
"%X c #F5D5B7",
"&X c #EBD0B9",
"*X c #F9E0BC",
"=X c #C9C5C2",
"-X c #D8CDC8",
";X c #DAD1CA",
":X c #D9D6D4",
">X c #EEDBC8",
",X c #F5DEC4",
"<X c #F4DDCB",
"1X c #E4DDDA",
"2X c #ECDEDA",
"3X c #F7E2CA",
"4X c #F9E3C9",
"5X c #E8E1DD",
"6X c #F5E4DC",
"7X c #F9ECDC",
"8X c #F7E6D5",
"9X c #ECE8E6",
"0X c #F6E9E5",
"qX c #F9EBE5",
"wX c #F6EDE9",
"eX c #F8EEEB",
"rX c #F2E4E0",
"tX c #F9F2ED",
"yX c #F8F1EA",
"uX c #FAF6F3",
"iX c #FCF8F6",
"pX c #FDFBFA",
"aX c #F7F3F0",
"sX c None",
/* pixels */
"sXsXsXsXsXsXsXsXsXsXsXsXsXsXsXsXsXsXsXsXsXsXsXsXsXsXsXsXsXsXsXsXsXsXsXsXsXsXsXsXsXsXsXsXsXsXsXsXsXsXsXsXsXsXsXsXsXsXsXsXsXsXsXsX",
"sXsXsXsXsXsXsXsXsXsXsXsXsXsXsXsXsXsXsXsXsXsXsXsXsXsXsXsXsXsXsXsXsXsXsXsXsXsXsXsXsXsXsXsXsXsXsXsXsXsXsXsXsXsXsXsXsXsXsXsXsXsXsXsX",
"sXsXsXsXsXsXsXsXsXsXsXsXsXsXsXsXsXsXsXsXsX% sXsXsXsXsXsXsXsXsXsXsXsXsXsXsXsX$ sXsXsXsXsXsXsXsXsXsXsXsXsXsXsXsXsXsXsXsXsXsXsXsXsX",
"sXsXsXsXsXsXsXsXsXsXsXsXsXsXsXsXsXsXsXsXu Y * sXsXsXsXsXsXsXsXsXsXsXsXsXsXF Y $ sXsXsXsXsXsXsXsXsXsXsXsXsXsXsXsXsXsXsXsXsXsXsXsX",
"sXsXsXsXsXsXsXsXsXsXsXsXsXsXsXsXsXsXsX* =.r.L sXsXsXsXsXsXsXsXsXsXsXsXsXV e.9.t sXsXsXsXsXsXsXsXsXsXsXsXsXsXsXsXsXsXsXsXsXsXsXsX",
"sXsXsXsXsXsXsXsXsXsXsXsXsXsXsXsXsXsXsXy 0.t.r.V sXsXsXsXsXsXsXsXsXsXsXr e.y.N./ sXsXsXsXsXsXsXsXsXsXsXsXsXsXsXsXsXsXsXsXsXsXsXsX",
"sXsXsXsXsXsXsXsXsXsXsXsXsXsXsXsXsXsXsXU u.t.u.7.0 sXsXsXsXsXsXsXsXsX5 @.u.c.$XZ.2 sXsXsXsXsXsXsXsXsXsXsXsXsXsXsXsXsXsXsXsXsXsXsX",
"sXsXsXsXsXsXsXsXsXsXsXsXsXsXsXsXsXsX4 2.0.D.F.y...$ sXsXsXsXsXsXsX* ..y.0.[.wX{.t sXsXsXsXsXsXsXsXsXsXsXsXsXsXsXsXsXsXsXsXsXsXsX",
"sXsXsXsXsXsXsXsXsXsXsXsXsXsXsXsXsXsXS 9.0.oX3Xb.e.D sXsXsXsXsXsXsXF i.0.n.8XtX%XA sXsXsXsXsXsXsXsXsXsXsXsXsXsXsXsXsXsXsXsXsXsXsX",
"sXsXsXsXsXsXsXsXsXsXsXsXsXsXsXsXsXsXP w.x.4XaX}.x...* sXsXsXsXsX3 >.t.x.oXuXaX<X~ sXsXsXsXsXsXsXsXsXsXsXsXsXsXsXsXsXsXsXsXsXsXsX",
"sXsXsXsXsXsXsXsXsXsXsXsXsXsXsXsXsX= _ 0.N.7XuX6XD.e.q sXsXsXsXsXD y.0.N.7XuXuX8X,.* sXsXsXsXsXsXsXsXsXsXsXsXsXsXsXsXsXsXsXsXsXsX",
"sXsXsXsXsXsXsXsXsXsXsXsXsXsXsXsXsX4 2.9.G.tXiXeXoXu.I sXsXsXsXsX=.u.t.oXuXuXuX6Xj.2 sXsXsXsXsXsXsXsXsXsXsXsXsXsXsXsXsXsXsXsXsXsX",
"sXsXsXsXsXsXsXsXsXsXsXsXsXsXsXsXsXe 3.0.[.uXuXaX<XM.=.%     sX* =.u.n.7XuXuXuX6Xm.7 sXsXsXsXsXsXsXsXsXsXsXsXsXsXsXsXsXsXsXsXsXsX",
"sXsXsXsXsXsXsXsXsXsXsXsXsXsXsXsXsXC 6.0.}.uXuXuX0XJ.:.w J ! J w 4 u Z.pXiXaXuX0Xn.7 sXsXsXsXsXsXsXsXsXsXsXsXsXsXsXsXsXsXsXsXsXsX",
"sXsXsXsXsXsXsXsXsXsXsXsXsXsXsXsXsXP 5.0.@XuXuXaXwXOXq.*.u.x.t.y.>.G p I.9XpXuXwXS.y sXsXsXsXsXsXsXsXsXsXsXsXsXsXsXsXsXsXsXsXsXsX",
"sXsXsXsXsXsXsXsXsXsXsXsXsXsXsXsXsXT 6.x.$XiXuXuXwX,Xc.t.t.t.t.0.x.i.o.r m :XiXyXS.S sXsXsXsXsXsXsXsXsXsXsXsXsXsXsXsXsXsXsXsXsXsX",
"sXsXsXsXsXsXsXsXsXsXsXsXsXsXsXsXsX` 6.x.,XuXuXuXwX6Xn.0.t.t.t.x.t.t.y.#.G j :XaXF.C sXsXsXsXsXsXsXsXsXsXsXsXsXsXsXsXsXsXsXsXsXsX",
"sXsXsXsXsXsXsXsXsXsXsXsXsXsXsXsX$ ) 6.x.4XuXuXuX0X<Xb.t.t.t.t.t.t.t.t.t.$.H z 1XF.C sXsXsXsXsXsXsXsXsXsXsXsXsXsXsXsXsXsXsXsXsXsX",
"sXsXsXsXsXsXsXsXsXsXsXsXsXsXsXsX* _ 5.c.4XuXuXeX6X].t.t.t.t.t.t.t.t.t.t.y.#.D M S.S sXsXsXsXsXsXsXsXsXsXsXsXsXsXsXsXsXsXsXsXsXsX",
"sXsXsXsXsXsXsXsXsXsXsXsXsXsXsXsX* ) 5.x.4XuXuXwX}.x.t.t.t.t.t.t.t.t.t.t.t.i.#.q E y sXsXsXsXsXsXsXsXsXsXsXsXsXsXsXsXsXsXsXsXsXsX",
"sXsXsXsXsXsXsXsXsXsXsXsXsXsXsXsXsX` 3.x.,XuXtXOXc.t.t.t.t.t.t.t.t.t.t.t.t.t.r.o.4 = sXsXsXsXsXsXsXsXsXsXsXsXsXsXsXsXsXsXsXsXsXsX",
"sXsXsXsXsXsXsXsXsXsXsXsXsXsXsXsXsXA 8.9.%XyX}.c.t.t.t.t.t.t.t.t.t.t.t.x.t.t.y.%.G X sXsXsXsXsXsXsXsXsXsXsXsXsXsXsXsXsXsXsXsXsXsX",
"sXsXsXsXsXsXsXsXsXsXsXsXsXsXsXsXsX4 X.9.J.J.x.0.t.t.t.t.t.t.t.t.t.t.t.t.t.t.t.r.&.3 sXsXsXsXsXsXsXsXsXsXsXsXsXsXsXsXsXsXsXsXsXsX",
"sXsXsXsXsXsXsXsXsXsXsXsXsXsXsXsXo S ' 9.x.0.0.N.#X#XJ.c.t.t.t.t.t.t.t.t.t.t.B.G.L.K sXsXsXsXsXsXsXsXsXsXsXsXsXsXsXsXsXsXsXsXsXsX",
"sXsXsXsXsXsXsXsXsXsXsXsXsXsXsXsX4 +.5.0.0.0.0.K.tXiXuX+Xx.t.t.c.t.b.x.x.0.J.8XuXuXA.* sXsXsXsXsXsXsXsXsXsXsXsXsXsXsXsXsXsXsXsXsX",
"sXsXsXsXsXsXsXsXsXsXsXsXsXsXsXsXC 3.9.0.x.0.0.x.].3XqX$Xx.t.x.+X X3X+XF.x.,XiXtX$Xp.q sXsXsXsXsXsXsXsXsXsXsXsXsXsXsXsXsXsXsXsXsX",
"sXsXsXsXsXsXsXsXsXsXsXsXsXsXsX% U 8.0.x.x.0.x.0.0.c.n.c.t.t.b.7XuXuXuX|.0.V.].H.v.%.H sXsXsXsXsXsXsXsXsXsXsXsXsXsXsXsXsXsXsXsXsX",
"sXsXsXsXsXsXsXsXsXsXsXsXsXsX: U.b.9.0.0.0.0.9.3.3.5.9.t.t.t.J.uXuXuXiX@Xt.t.t.9.9.$.O.o sXsXsXsXsXsXsXsXsXsXsXsXsXsXsXsXsXsXsXsX",
"sXsXsXsXsXsXsXsXsXsXsXsXsXg =XiX$Xx.x.0.0.9.3.~ f g.1.t.t.t.@XiXuXuXuX4Xx.0.-.~ ,.@.&.d . sXsXsXsXsXsXsXsXsXsXsXsXsXsXsXsXsXsXsX",
"sXsXsXsXsXsXsXsXsXsXsXsXsXM aXuXuX).0.0.x.6.' 8 B pX`.1.t.n.7XiXuXuXuX7XN.q.f k -X(.5. XN   sXsXsXsXsXsXsXsXsXsXsXsXsXsXsXsXsXsX",
"sXsXsXsXsXsXsXsXsXsXsXsXsXl rXiXuX7XN.0.0.5.W + k 9XY.,.t.}.uXuXuXiXuXuXJ.^ ; m pX_.=. XN sXsXsXsXsXsXsXsXsXsXsXsXsXsXsXsXsXsXsX",
"sXsXsXsXsXsXsXsXsXsXsXsX  B aXuXuXuX4XM.9.5.Q N : : < ,.D.7XuXuX9X_._.:X@X] < ; B k *.+Xb sXsXsXsXsXsXsXsXsXsXsXsXsXsXsXsXsXsXsX",
"sXsXsXsXsXsXsXsXsXsXsXsXsX+ U.tXuXuXuX,XN.9.,.`.k ; f c.,XuXuXaXR.~.'.^._.C.W.k . a j.7XP.  sXsXsXsXsXsXsXsXsXsXsXsXsXsXsXsXsXsX",
"sXsXsXsXsXsXsXsXsXsXsXsXsXsX+ I.0XeXuXuX8XJ.w.*.W Q z.$XuXuXuXwXR.| /.~._.%XC.z d ^ [.W.; sXsXsXsXsXsXsXsXsXsXsXsXsXsXsXsXsXsXsX",
"sXsXsXsXsXsXsXsXsXsXsXsXsXsXsX@ { 6XqXeXaXtX4X}.[.+X7XuXuXuXuXuX2XR.} _.wXuXoXj.l.].;Xa sXsXsXsXsXsXsXsXsXsXsXsXsXsXsXsXsXsXsXsX",
"sXsXsXsXsXsXsXsXsXsXsXsXsXsXsXsX. m -X0X0XwXeXaXuXuXuXuXuXuXuXuX0XY.m 1XuXuXuX0X7X5Xk sXsXsXsXsXsXsXsXsXsXsXsXsXsXsXsXsXsXsXsXsX",
"sXsXsXsXsXsXsXsXsXsXsXsXsXsXsXsXsXsX8 T.2X0X0X0XwXeXaXaXaXuXuXaX-XW._.=XaXuXtXaX1Xm sXsXsXsXsXsXsXsXsXsXsXsXsXsXsXsXsXsXsXsXsXsX",
"sXsXsXsXsXsXsXsXsXsXsXsXsXsXsXsXsXsXsX@ l T.-X6XwX0X0X0X0X0XeXeXwXtXtXqXwXwXqX.Xj sXsXsXsXsXsXsXsXsXsXsXsXsXsXsXsXsXsXsXsXsXsXsX",
"sXsXsXsXsXsXsXsXsXsXsXsXsXsXsXsXsXsXsXsXsX. > z { !._.1X2X6X0XqXwXwXqX0XrX_.{ : sXsXsXsXsXsXsXsXsXsXsXsXsXsXsXsXsXsXsXsXsXsXsXsX",
"sXsXsXsXsXsXsXsXsXsXsXsXsXsXsXsXsXsXsXsXsXsXsXsXsX. + 9 s z M { d.d.[ m g ; sXsXsXsXsXsXsXsXsXsXsXsXsXsXsXsXsXsXsXsXsXsXsXsXsXsX",
"sXsXsXsXsXsXsXsXsXsXsXsXsXsXsXsXsXsXsXsXsXsXsXsXsX0 J <.,.E.!.Y.M o sXsXsXsXsXsXsXsXsXsXsXsXsXsXsXsXsXsXsXsXsXsXsXsXsXsXsXsXsXsX",
"sXsXsXsXsXsXsXsXsXsXsXsXsXsXsXsXsXsXsXsXsXsXsX$ J :.q.4.D.7XpXpX7Xf sXsXsXsXsXsXsXsXsXsXsXsXsXsXsXsXsXsXsXsXsXsXsXsXsXsXsXsXsXsX",
"sXsXsXsXsXsXsXsXsXsXsXsXsXsXsXsXsXsXsXsXsXsX$ I y.-.P ,. XiXuXuXpXE.% sXsXsXsXsXsXsXsXsXsXsXsXsXsXsXsXsXsXsXsXsXsXsXsXsXsXsXsXsX",
"sXsXsXsXsXsXsXsXsXsXsXsXsXsXsXsXsXsXsX, x # K y.4.E <.c.4XiXuXuXiX<X9 sXsXsXsXsXsXsXsXsXsXsXsXsXsXsXsXsXsXsXsXsXsXsXsXsXsXsXsXsX",
"sXsXsXsXsXsXsXsXsXsXsXsXsXsXsXsXsXsX1 W.I.3 e.t.U ! x.n.qXuXuXuXiXtX] y 4 sXsXsXsXsXsXsXsXsXsXsXsXsXsXsXsXsXsXsXsXsXsXsXsXsXsXsX",
"sXsXsXsXsXsXsXsXsXsXsXsXsXsXsXsXsXsXP.pXB V y.9.Z *.0.K.tXuXuXuXuXiXh.E ;.R ; sXsXsXsXsXsXsXsXsXsXsXsXsXsXsXsXsXsXsXsXsXsXsXsXsX",
"sXsXsXsXsXsXsXsXsXsXsXsXsXsXsXsXsXsXXX4Xa.s.M.:.w -.y.J.uXuXuXuXuXiX(.Z x.{.x sXsXsXsXsXsXsXsXsXsXsXsXsXsXsXsXsXsXsXsXsXsXsXsXsX",
"sXsXsXsXsXsXsXsXsXsXsXsXsXsXsXsXsX1 (.B.=.} >Xh.2 :.t.J.uXuXuXuXuXiXXXV V.XXa sXsXsXsXsXsXsXsXsXsXsXsXsXsXsXsXsXsXsXsXsXsXsXsXsX",
"sXsXsXsXsXsXsXsXsXsXsXsXsXsXsXsXsXsX^ 9.9.E n a 2 2.9.D.yXuXuXuXuXtX(.= d h sXsXsXsXsXsXsXsXsXsXsXsXsXsXsXsXsXsXsXsXsXsXsXsXsXsX",
"sXsXsXsXsXsXsXsXsXsXsXsXsXsXsXsXsXsXe 3.0.x.<.;.i _ 6.x.@XuXuXuXiX4Xk.sXsXsXsXsXsXsXsXsXsXsXsXsXsXsXsXsXsXsXsXsXsXsXsXsXsXsXsXsX",
"sXsXsXsXsXsXsXsXsXsXsXsXsXsXsXsXsXsXsXJ 3.6.w.w.! C 4.0.k.R.>X4X}.l.w sXsXsXsXsXsXsXsXsXsXsXsXsXsXsXsXsXsXsXsXsXsXsXsXsXsXsXsXsX",
"sXsXsXsXsXsXsXsXsXsXsXsXsXsXsXsXsXsXsX$ C _ +.+.P * =.u.q.A E 6.X.e sXsXsXsXsXsXsXsXsXsXsXsXsXsXsXsXsXsXsXsXsXsXsXsXsXsXsXsXsXsX",
"sXsXsXsXsXsXsXsXsXsXsXsXsXsXsXsXsXsXsXsXsX= 5 4 sXsXO.i.0.q.y y u q sXsXsXsXsXsXsXsXsXsXsXsXsXsXsXsXsXsXsXsXsXsXsXsXsXsXsXsXsXsX",
"sXsXsXsXsXsXsXsXsXsXsXsXsXsXsXsXsXsXsXsXsXsXsXsXsXsX .$.u.0.' 6 7. .sXsXsXsXsXsXsXsXsXsXsXsXsXsXsXsXsXsXsXsXsXsXsXsXsXsXsXsXsXsX",
"sXsXsXsXsXsXsXsXsXsXsXsXsXsXsXsXsXsXsXsXsXsXsXsXsXsXH %.y.t.9.Z o. .sXsXsXsXsXsXsXsXsXsXsXsXsXsXsXsXsXsXsXsXsXsXsXsXsXsXsXsXsXsX",
"sXsXsXsXsXsXsXsXsXsXsXsXsXsXsXsXsXsXsXsXsXsXsXsXsXsXw #.r.t.0.U H L sXsXsXsXsXsXsXsXsXsXsXsXsXsXsXsXsXsXsXsXsXsXsXsXsXsXsXsXsXsX",
"sXsXsXsXsXsXsXsXsXsXsXsXsXsXsXsXsXsXsXsXsXsXsXsXsXsX* o.$.0.0.-.Z q sXsXsXsXsXsXsXsXsXsXsXsXsXsXsXsXsXsXsXsXsXsXsXsXsXsXsXsXsXsX",
"sXsXsXsXsXsXsXsXsXsXsXsXsXsXsXsXsXsXsXsXsXsXsXsXsXsXsXH %.y.9.B.] $ sXsXsXsXsXsXsXsXsXsXsXsXsXsXsXsXsXsXsXsXsXsXsXsXsXsXsXsXsXsX",
"sXsXsXsXsXsXsXsXsXsXsXsXsXsXsXsXsXsXsXsXsXsXsXsXsXsXsX0 e.v.H.&Xj X sXsXsXsXsXsXsXsXsXsXsXsXsXsXsXsXsXsXsXsXsXsXsXsXsXsXsXsXsXsX",
"sXsXsXsXsXsXsXsXsXsXsXsXsXsXsXsXsXsXsXsXsXsXsXsXsXsXsXsXf.,X-Xd.p sXsXsXsXsXsXsXsXsXsXsXsXsXsXsXsXsXsXsXsXsXsXsXsXsXsXsXsXsXsXsX",
"sXsXsXsXsXsXsXsXsXsXsXsXsXsXsXsXsXsXsXsXsXsXsXsXsXsXsXsX+ g v d.j sXsXsXsXsXsXsXsXsXsXsXsXsXsXsXsXsXsXsXsXsXsXsXsXsXsXsXsXsXsXsX",
"sXsXsXsXsXsXsXsXsXsXsXsXsXsXsXsXsXsXsXsXsXsXsXsXsXsXsXsXsX. , , sXsXsXsXsXsXsXsXsXsXsXsXsXsXsXsXsXsXsXsXsXsXsXsXsXsXsXsXsXsXsXsX",
"sXsXsXsXsXsXsXsXsXsXsXsXsXsXsXsXsXsXsXsXsXsXsXsXsXsXsXsXsXsXsXsXsXsXsXsXsXsXsXsXsXsXsXsXsXsXsXsXsXsXsXsXsXsXsXsXsXsXsXsXsXsXsXsX",
"sXsXsXsXsXsXsXsXsXsXsXsXsXsXsXsXsXsXsXsXsXsXsXsXsXsXsXsXsXsXsXsXsXsXsXsXsXsXsXsXsXsXsXsXsXsXsXsXsXsXsXsXsXsXsXsXsXsXsXsXsXsXsXsX"
};
