/* XPM */
static char *Walk__8_[] = {
/* columns rows colors chars-per-pixel */
"64 64 228 2 ",
"   c #020100",
".  c #0D0A06",
"X  c #120C01",
"o  c #1D1303",
"O  c #13110F",
"+  c #131313",
"@  c #1B1A19",
"#  c #0E1113",
"$  c #2D1C06",
"%  c #241605",
"&  c #321E06",
"*  c #3A2408",
"=  c #342305",
"-  c #362A17",
";  c #2E2107",
":  c #1D1E20",
">  c #2B2B2B",
",  c #282726",
"<  c #3A3735",
"1  c #302E2C",
"2  c #462B09",
"3  c #4B2E09",
"4  c #412D05",
"5  c #4B3507",
"6  c #563A09",
"7  c #5D3E14",
"8  c #633D0D",
"9  c #413D3A",
"0  c #5C420D",
"q  c #624509",
"w  c #6C420D",
"e  c #6B4B09",
"r  c #78550B",
"t  c #664612",
"y  c #7E5714",
"u  c #704510",
"i  c #5A4429",
"p  c #594937",
"a  c #42403D",
"s  c #7A5926",
"d  c #6C5335",
"f  c #67533B",
"g  c #7A5D3A",
"h  c #4A4744",
"j  c #524D49",
"k  c #58524B",
"l  c #5C5855",
"z  c #625A4E",
"x  c #635E5A",
"c  c #665D53",
"v  c #715E49",
"b  c #6A625B",
"n  c #786651",
"m  c #6A6563",
"M  c #746C67",
"N  c #77716C",
"B  c #7C7674",
"V  c #865E0B",
"C  c #814E11",
"Z  c #845214",
"A  c #8A5614",
"S  c #845B15",
"D  c #965C16",
"F  c #9D6E0E",
"G  c #8C6314",
"H  c #946615",
"J  c #9A6418",
"K  c #8B620B",
"L  c #A3730B",
"P  c #AA790D",
"I  c #A8681A",
"U  c #B36D18",
"Y  c #B16C17",
"T  c #AB7814",
"R  c #BC741B",
"E  c #B47915",
"W  c #805725",
"Q  c #9B6622",
"!  c #886534",
"~  c #9C7B3D",
"^  c #A96B21",
"/  c #AA7129",
"(  c #B87724",
")  c #B07731",
"_  c #C6791B",
"`  c #CD7D1B",
"'  c #C47D26",
"]  c #8D724B",
"[  c #A47F53",
"{  c #847A74",
"}  c #897B6B",
"|  c #BC7776",
" . c #E87777",
".. c #BB821B",
"X. c #BD833A",
"o. c #BF8029",
"O. c #CC8D1B",
"+. c #D89818",
"@. c #D39512",
"#. c #ECA715",
"$. c #F4AA17",
"%. c #FFB416",
"&. c #FDB21A",
"*. c #CB8126",
"=. c #CA862A",
"-. c #D78929",
";. c #C98732",
":. c #D68D33",
">. c #DC9537",
",. c #DD962E",
"<. c #E28E27",
"1. c #EC9224",
"2. c #E5942D",
"3. c #EE962B",
"4. c #EE9A2E",
"5. c #E79127",
"6. c #F09728",
"7. c #E39534",
"8. c #ED9A33",
"9. c #E79A39",
"0. c #EE9F3B",
"q. c #E79933",
"w. c #F09E36",
"e. c #EDA12D",
"r. c #ECA324",
"t. c #F9AC24",
"y. c #F4A82C",
"u. c #EEA03E",
"i. c #EFA332",
"p. c #F3A535",
"a. c #F1A23C",
"s. c #F5AA33",
"d. c #F0B32F",
"f. c #B18044",
"g. c #95847C",
"h. c #8F806E",
"j. c #A78A67",
"k. c #B69163",
"l. c #AA957C",
"z. c #D69547",
"x. c #D79B52",
"c. c #C59F4F",
"v. c #E39D45",
"b. c #EEA242",
"n. c #EEA64B",
"m. c #EFA84E",
"M. c #F2A746",
"N. c #EFAA54",
"B. c #E8A959",
"V. c #F0AD5B",
"C. c #F0AB55",
"Z. c #F3B159",
"A. c #C69860",
"S. c #DDB07F",
"D. c #F0B163",
"F. c #F1B56B",
"G. c #F4BA68",
"H. c #ECB77A",
"J. c #F2BA76",
"K. c #F1BC7B",
"L. c #F0B772",
"P. c #E6AE69",
"I. c #FEC347",
"U. c #EAC07C",
"Y. c #8C8987",
"T. c #94908D",
"R. c #A29C97",
"E. c #AF8D8D",
"W. c #AAA29E",
"Q. c #B9A68F",
"!. c #B6AAA6",
"~. c #BAB5B4",
"^. c #ACABAB",
"/. c #C18080",
"(. c #ED8D8D",
"). c #C6A986",
"_. c #CBBB9E",
"`. c #F1BE84",
"'. c #CBBAA6",
"]. c #C3BEB8",
"[. c #EAABAB",
"{. c #F3C183",
"}. c #F3C38C",
"|. c #F4C995",
" X c #F5CB9A",
".X c #F4C895",
"XX c #F2C992",
"oX c #DBC7AB",
"OX c #D3C6BD",
"+X c #EAC8A6",
"@X c #F3CDA6",
"#X c #F5D3AB",
"$X c #F7D3A5",
"%X c #F6D5B4",
"&X c #F5DCBC",
"*X c #F8D7B6",
"=X c #FAE1B8",
"-X c #C8C5C3",
";X c #D4CCC8",
":X c #DBD7D4",
">X c #DCD9D6",
",X c #D7D0CD",
"<X c #E4D1C2",
"1X c #E2D2C9",
"2X c #F5DCC6",
"3X c #E5DEDB",
"4X c #E4D8D4",
"5X c #E2CFC4",
"6X c #F7E2CB",
"7X c #F8E4CD",
"8X c #F8E1C6",
"9X c #F8E6D1",
"0X c #F4E5DC",
"qX c #F9EBDA",
"wX c #F5E3D2",
"eX c #F5E6E2",
"rX c #F6EAE5",
"tX c #F9EDE5",
"yX c #F6ECE9",
"uX c #F9EEEB",
"iX c #FBF1E6",
"pX c #F9F2ED",
"aX c #F4F1EE",
"sX c #FAF6F3",
"dX c #FCF8F6",
"fX c #FDFCFB",
"gX c #E7E3E2",
"hX c None",
/* pixels */
"hXhXhXhXhXhXhXhXhXhXhXhXhXhXhXhXhXhXhXhXhXhXhXhXhXhXhXhXhXhXhXhXhXhXhXhXhXhXhXhXhXhXhXhXhXhXhXhXhXhXhXhXhXhXhXhXhXhXhXhXhXhXhXhX",
"hXhXhXhXhXhXhXhXhXhXhXhXhXhXhXhXhXhXhXhXhXhXhXhXhXhXhXhXhXhXhXhXhXhXhXhXhXhXhXhXhXhXhXhXhXhXhXhXhXhXhXhXhXhXhXhXhXhXhXhXhXhXhXhX",
"hXhXhXhXhXhXhXhXhXhXhXhXhXhXhXhXhXhXhXhX2 $ hXhXhXhXhXhXhXhXhXhXhXhXhXhXhXhXhXX hXhXhXhXhXhXhXhXhXhXhXhXhXhXhXhXhXhXhXhXhXhXhXhX",
"hXhXhXhXhXhXhXhXhXhXhXhXhXhXhXhXhXhXhX* O.F hXhXhXhXhXhXhXhXhXhXhXhXhXhXhXhX4 F 3 hXhXhXhXhXhXhXhXhXhXhXhXhXhXhXhXhXhXhXhXhXhXhX",
"hXhXhXhXhXhXhXhXhXhXhXhXhXhXhXhXhXhXhXA a.r.V hXhXhXhXhXhXhXhXhXhXhXhXhXhX5 @.y.D hXhXhXhXhXhXhXhXhXhXhXhXhXhXhXhXhXhXhXhXhXhXhX",
"hXhXhXhXhXhXhXhXhXhXhXhXhXhXhXhXhXhX& ' a.a.r.e hXhXhXhXhXhXhXhXhXhXhXhX6 +.p.M.) hXhXhXhXhXhXhXhXhXhXhXhXhXhXhXhXhXhXhXhXhXhXhX",
"hXhXhXhXhXhXhXhXhXhXhXhXhXhXhXhXhXhX8 2.0.b.p.+.5 hXhXhXhXhXhXhXhXhXhX6 +.p.0.}.S.3 hXhXhXhXhXhXhXhXhXhXhXhXhXhXhXhXhXhXhXhXhXhX",
"hXhXhXhXhXhXhXhXhXhXhXhXhXhXhXhXhXhXD w.b..XD.p.T hXhXhXhXhXhXhXhXhX2 O.p.0.L.0X+Xt hXhXhXhXhXhXhXhXhXhXhXhXhXhXhXhXhXhXhXhXhXhX",
"hXhXhXhXhXhXhXhXhXhXhXhXhXhXhXhXhXhXR w.m.qX2Xn.r.e hXhXhXhXhXhXhXhX..p.u.N.7XaX@Xy hXhXhXhXhXhXhXhXhXhXhXhXhXhXhXhXhXhXhXhXhXhX",
"hXhXhXhXhXhXhXhXhXhXhXhXhXhXhXhXhX2 -.0.F.pXuX}.p...hXhXhXhXhXhXhXr r.u.b.#XsXaX*XD hXhXhXhXhXhXhXhXhXhXhXhXhXhXhXhXhXhXhXhXhXhX",
"hXhXhXhXhXhXhXhXhXhXhXhXhXhXhXhXhX8 5.w.{.sXsXwXV.e.q hXhXhXhXhX= O.a.u.K.pXsXpX*X^ hXhXhXhXhXhXhXhXhXhXhXhXhXhXhXhXhXhXhXhXhXhX",
"hXhXhXhXhXhXhXhXhXhXhXhXhXhXhXhXhXC 3.0. XsXsXyXXXp.H hXhXhXhXhXe i.u.N.wXsXsXpX*X/ hXhXhXhXhXhXhXhXhXhXhXhXhXhXhXhXhXhXhXhXhXhX",
"hXhXhXhXhXhXhXhXhXhXhXhXhXhXhXhXhXD 4.a.%XdXsXpX2Xm...o % o X   S u.u.|.dXdXsXsX*X/ hXhXhXhXhXhXhXhXhXhXhXhXhXhXhXhXhXhXhXhXhXhX",
"hXhXhXhXhXhXhXhXhXhXhXhXhXhXhXhXhXY 4.b.&XsXsXpXeXL.=.D =.=.( A 6 0 f.0XsXsXsXsX%X( hXhXhXhXhXhXhXhXhXhXhXhXhXhXhXhXhXhXhXhXhXhX",
"hXhXhXhXhXhXhXhXhXhXhXhXhXhXhXhXhXR 4.n.8XsXsXsXrX@X9.9.b.a.a.a.e.E 0 B gXdXsXpX#XR hXhXhXhXhXhXhXhXhXhXhXhXhXhXhXhXhXhXhXhXhXhX",
"hXhXhXhXhXhXhXhXhXhXhXhXhXhXhXhX$ _ 4.n.7XsXsXsXrX2Xm.a.0.b.a.0.a.s.#.S l :XdXpX@XR hXhXhXhXhXhXhXhXhXhXhXhXhXhXhXhXhXhXhXhXhXhX",
"hXhXhXhXhXhXhXhXhXhXhXhXhXhXhXhX* ` 4.n.9XdXsXsXyXwXB.0.b.0.0.b.u.u.u.&.L p :XsX XY hXhXhXhXhXhXhXhXhXhXhXhXhXhXhXhXhXhXhXhXhXhX",
"hXhXhXhXhXhXhXhXhXhXhXhXhXhXhXhX* ` 3.n.9XdXsXpXyX@Xv.0.0.b.b.0.u.u.u.u.t.L l gX}.I hXhXhXhXhXhXhXhXhXhXhXhXhXhXhXhXhXhXhXhXhXhX",
"hXhXhXhXhXhXhXhXhXhXhXhXhXhXhXhX* ` 3.n.9XsXsXuX2XV.u.u.0.b.0.0.u.u.u.u.p.&.K N L.D hXhXhXhXhXhXhXhXhXhXhXhXhXhXhXhXhXhXhXhXhXhX",
"hXhXhXhXhXhXhXhXhXhXhXhXhXhXhXhX$ _ 3.b.8XsXsX0XJ.i.u.u.b.0.0.b.u.u.u.u.u.s.#.t / C hXhXhXhXhXhXhXhXhXhXhXhXhXhXhXhXhXhXhXhXhXhX",
"hXhXhXhXhXhXhXhXhXhXhXhXhXhXhXhXhXU 1.b.&XsXeX`.u.u.u.u.u.u.u.u.u.u.u.u.u.u.t.@.3 2 hXhXhXhXhXhXhXhXhXhXhXhXhXhXhXhXhXhXhXhXhXhX",
"hXhXhXhXhXhXhXhXhXhXhXhXhXhXhXhXhXA 1.8.#XqXK.b.u.u.u.u.u.u.u.u.u.u.u.u.u.u.p.%.V   hXhXhXhXhXhXhXhXhXhXhXhXhXhXhXhXhXhXhXhXhXhX",
"hXhXhXhXhXhXhXhXhXhXhXhXhXhXhXhXX 3 _ 8.D.D.0.b.V.N.u.u.u.u.u.u.u.u.u.u.u.u.a.t.+.= hXhXhXhXhXhXhXhXhXhXhXhXhXhXhXhXhXhXhXhXhXhX",
"hXhXhXhXhXhXhXhXhXhXhXhXhXhXhXhX2 Y ' 0.0.0.0.K.tXqX$Xm.u.u.u.u.u.u.u.u.u.u.N.G.I.y hXhXhXhXhXhXhXhXhXhXhXhXhXhXhXhXhXhXhXhXhXhX",
"hXhXhXhXhXhXhXhXhXhXhXhXhXhXhXhXA 1.4.0.0.a.0.F.qXdXdX#Xu.u.b.C.u.V.n.u.u.{.qXpXiXc.o hXhXhXhXhXhXhXhXhXhXhXhXhXhXhXhXhXhXhXhXhX",
"hXhXhXhXhXhXhXhXhXhXhXhXhXhXhXo _ 1.0.b.b.0.b.0.D.@X2X}.u.u.m.&X#XqX#XD.n.9XsXsX=Xd.5 hXhXhXhXhXhXhXhXhXhXhXhXhXhXhXhXhXhXhXhXhX",
"hXhXhXhXhXhXhXhXhXhXhXhXhXhXO v 2.3.0.0.v.a.0.0.w.a.b.a.u.u.F.pXdXsXsXU.u.F.}.J.M.%.r hXhXhXhXhXhXhXhXhXhXhXhXhXhXhXhXhXhXhXhXhX",
"hXhXhXhXhXhXhXhXhXhXhXhXhX< R.rXJ.0.0.b.0.0.1.<.*.-.8.a.b.u. XsXsXsXsXXX0.u.8.p.p.&.P hXhXhXhXhXhXhXhXhXhXhXhXhXhXhXhXhXhXhXhXhX",
"hXhXhXhXhXhXhXhXhXhXhXhX. R.dXdX2Xm.0.b.0.3.` d N _.z.w.a.m.9XsXsXsXdX#Xu.w.:.( :.$.+.- hXhXhXhXhXhXhXhXhXhXhXhXhXhXhXhXhXhXhXhX",
"hXhXhXhXhXhXhXhXhXhXhXhXhXm pXdXsX Xu.0.0.1.! , ^.fX).7.0.`.sXsXsXsXsX8XM.;.p B ;Xx.p._.a hXhXhXhXhXhXhXhXhXhXhXhXhXhXhXhXhXhXhX",
"hXhXhXhXhXhXhXhXhXhXhXhXO ^.dXpXdXtXL.0.0.5.d @ l ~.b >.m.8XsXsXdXdXsXtXZ.! : R.fXQ.,.&Xl hXhXhXhXhXhXhXhXhXhXhXhXhXhXhXhXhXhXhX",
"hXhXhXhXhXhXhXhXhXhXhXhXhXx 3XdXsXdXqXF.0.1.[ ^.@ # f 9. XdXsXsX,X!.].>X}.v > < Y.z >.oX1 hXhXhXhXhXhXhXhXhXhXhXhXhXhXhXhXhXhXhX",
"hXhXhXhXhXhXhXhXhXhXhXhXhXhXx 3XuXsXsXqXJ.8.:.l.h p ;.U.pXsXdX4X| (.[./.OXk.~.> + d B.iXb hXhXhXhXhXhXhXhXhXhXhXhXhXhXhXhXhXhXhX",
"hXhXhXhXhXhXhXhXhXhXhXhXhXhXhXx 4XuXuXsXuX$XC.:.) x. XpXsXsXsX3X|  .(./.4XXXj.k f =.$XW.@ hXhXhXhXhXhXhXhXhXhXhXhXhXhXhXhXhXhXhX",
"hXhXhXhXhXhXhXhXhXhXhXhXhXhXhXhXl ;XtXrXuXsXtX7X7XtXsXsXsXsXsXsXgXY.g.1XsXtXH.z.v..X].1 hXhXhXhXhXhXhXhXhXhXhXhXhXhXhXhXhXhXhXhX",
"hXhXhXhXhXhXhXhXhXhXhXhXhXhXhXhXhX9 !.eXrXrXuXuXsXdXsXsXsXsXdXaX,Xm Y.uXsXsXsXwXqX;X9 hXhXhXhXhXhXhXhXhXhXhXhXhXhXhXhXhXhXhXhXhX",
"hXhXhXhXhXhXhXhXhXhXhXhXhXhXhXhXhXhX@ N OXeXrXtXrXyXuXuXsXsXsXrX-X,X].>XsXsXpXdX;Xa hXhXhXhXhXhXhXhXhXhXhXhXhXhXhXhXhXhXhXhXhXhX",
"hXhXhXhXhXhXhXhXhXhXhXhXhXhXhXhXhXhXhXhX, m R.,X0XrXyXyXrXrXrXyXuXuXuXyXrXyXeXW.< hXhXhXhXhXhXhXhXhXhXhXhXhXhXhXhXhXhXhXhXhXhXhX",
"hXhXhXhXhXhXhXhXhXhXhXhXhXhXhXhXhXhXhXhXhXhXO > j { R.].;X4X0XrXyXrXrX0X4X!.b @ hXhXhXhXhXhXhXhXhXhXhXhXhXhXhXhXhXhXhXhXhXhXhXhX",
"hXhXhXhXhXhXhXhXhXhXhXhXhXhXhXhXhXhXhXhXhXhXhXhXhX  - 7 i j l b M M b k < + hXhXhXhXhXhXhXhXhXhXhXhXhXhXhXhXhXhXhXhXhXhXhXhXhXhX",
"hXhXhXhXhXhXhXhXhXhXhXhXhXhXhXhXhXhXhXhXhXhXhXhX0 G ' 9.x.OX-X~.] . hXhXhXhXhXhXhXhXhXhXhXhXhXhXhXhXhXhXhXhXhXhXhXhXhXhXhXhXhXhX",
"hXhXhXhXhXhXhXhXhXhXhXhXhXhXhXhXhXhXhXhXhXhX= J ,.8.,.q. XdXdXdX0Xi hXhXhXhXhXhXhXhXhXhXhXhXhXhXhXhXhXhXhXhXhXhXhXhXhXhXhXhXhXhX",
"hXhXhXhXhXhXhXhXhXhXhXhXhXhXhXhXhXhXhXhX@ ; ..p.2.Y / v.7XdXdXsXdXl.8 u & hXhXhXhXhXhXhXhXhXhXhXhXhXhXhXhXhXhXhXhXhXhXhXhXhXhXhX",
"hXhXhXhXhXhXhXhXhXhXhXhXhXhXhXhXhXhXhXk l E a.8.A / a.V.iXdXpXdXdX<Xs -.*./ n hXhXhXhXhXhXhXhXhXhXhXhXhXhXhXhXhXhXhXhXhXhXhXhXhX",
"hXhXhXhXhXhXhXhXhXhXhXhXhXhXhXhXhXhX< ~.! e.u.E * -.0.K.pXsXsXdXdXtX] =.0.b.+Xj hXhXhXhXhXhXhXhXhXhXhXhXhXhXhXhXhXhXhXhXhXhXhXhX",
"hXhXhXhXhXhXhXhXhXhXhXhXhXhXhXhXhXhXY.].f.n.q.u * 7.0.}.sXsXsXsXdXpXj.H e.Z.'.< hXhXhXhXhXhXhXhXhXhXhXhXhXhXhXhXhXhXhXhXhXhXhXhX",
"hXhXhXhXhXhXhXhXhXhXhXhXhXhXhXhXhXhXl.A.g.*Xx.$ 6 7.a.|.sXsXsXsXdXdX).$ q s h hXhXhXhXhXhXhXhXhXhXhXhXhXhXhXhXhXhXhXhXhXhXhXhXhX",
"hXhXhXhXhXhXhXhXhXhXhXhXhXhXhXhXhXhXQ 2.! Y.c hX8 2.u.}.sXsXsXsXsXdX).$ hXhXhXhXhXhXhXhXhXhXhXhXhXhXhXhXhXhXhXhXhXhXhXhXhXhXhXhX",
"hXhXhXhXhXhXhXhXhXhXhXhXhXhXhXhXhXhXw 5.7./ ^ G 7 -.a.F.tXsXdXdXdXpXA.hXhXhXhXhXhXhXhXhXhXhXhXhXhXhXhXhXhXhXhXhXhXhXhXhXhXhXhXhX",
"hXhXhXhXhXhXhXhXhXhXhXhXhXhXhXhXhXhX% U 3.w.a.0.Z ` 4.b.k.} ~.sXpX XQ hXhXhXhXhXhXhXhXhXhXhXhXhXhXhXhXhXhXhXhXhXhXhXhXhXhXhXhXhX",
"hXhXhXhXhXhXhXhXhXhXhXhXhXhXhXhXhXhXhX2 _ 1.3.6.I Z 5.0.9.' W } P.*.2 hXhXhXhXhXhXhXhXhXhXhXhXhXhXhXhXhXhXhXhXhXhXhXhXhXhXhXhXhX",
"hXhXhXhXhXhXhXhXhXhXhXhXhXhXhXhXhXhXhXhX& A R U D % J p.b.a.8.J u 5 hXhXhXhXhXhXhXhXhXhXhXhXhXhXhXhXhXhXhXhXhXhXhXhXhXhXhXhXhXhX",
"hXhXhXhXhXhXhXhXhXhXhXhXhXhXhXhXhXhXhXhXhXhXo hXhXhXq $.y.u.u.i.I % hXhXhXhXhXhXhXhXhXhXhXhXhXhXhXhXhXhXhXhXhXhXhXhXhXhXhXhXhXhX",
"hXhXhXhXhXhXhXhXhXhXhXhXhXhXhXhXhXhXhXhXhXhXhXhXhXhXhXP %.y.u.u.3.D hXhXhXhXhXhXhXhXhXhXhXhXhXhXhXhXhXhXhXhXhXhXhXhXhXhXhXhXhXhX",
"hXhXhXhXhXhXhXhXhXhXhXhXhXhXhXhXhXhXhXhXhXhXhXhXhXhX* w +.%.y.u.0.n.b hXhXhXhXhXhXhXhXhXhXhXhXhXhXhXhXhXhXhXhXhXhXhXhXhXhXhXhXhX",
"hXhXhXhXhXhXhXhXhXhXhXhXhXhXhXhXhXhXhXhXhXhXhXhXhXhXI ( y #.%.p.0.}.{ hXhXhXhXhXhXhXhXhXhXhXhXhXhXhXhXhXhXhXhXhXhXhXhXhXhXhXhXhX",
"hXhXhXhXhXhXhXhXhXhXhXhXhXhXhXhXhXhXhXhXhXhXhXhXhXi ,.u./ V #.y.J.5Xj hXhXhXhXhXhXhXhXhXhXhXhXhXhXhXhXhXhXhXhXhXhXhXhXhXhXhXhXhX",
"hXhXhXhXhXhXhXhXhXhXhXhXhXhXhXhXhXhXhXhXhXhXhXhXhX{ F.q.p.P G `.5X{ hXhXhXhXhXhXhXhXhXhXhXhXhXhXhXhXhXhXhXhXhXhXhXhXhXhXhXhXhXhX",
"hXhXhXhXhXhXhXhXhXhXhXhXhXhXhXhXhXhXhXhXhXhXhXhXhXl &XH.s.#.6 j h hXhXhXhXhXhXhXhXhXhXhXhXhXhXhXhXhXhXhXhXhXhXhXhXhXhXhXhXhXhXhX",
"hXhXhXhXhXhXhXhXhXhXhXhXhXhXhXhXhXhXhXhXhXhXhXhXhXhXB :X+Xf.hXhXhXhXhXhXhXhXhXhXhXhXhXhXhXhXhXhXhXhXhXhXhXhXhXhXhXhXhXhXhXhXhXhX",
"hXhXhXhXhXhXhXhXhXhXhXhXhXhXhXhXhXhXhXhXhXhXhXhXhXhXhXh l hXhXhXhXhXhXhXhXhXhXhXhXhXhXhXhXhXhXhXhXhXhXhXhXhXhXhXhXhXhXhXhXhXhXhX",
"hXhXhXhXhXhXhXhXhXhXhXhXhXhXhXhXhXhXhXhXhXhXhXhXhXhXhXhXhXhXhXhXhXhXhXhXhXhXhXhXhXhXhXhXhXhXhXhXhXhXhXhXhXhXhXhXhXhXhXhXhXhXhXhX",
"hXhXhXhXhXhXhXhXhXhXhXhXhXhXhXhXhXhXhXhXhXhXhXhXhXhXhXhXhXhXhXhXhXhXhXhXhXhXhXhXhXhXhXhXhXhXhXhXhXhXhXhXhXhXhXhXhXhXhXhXhXhXhXhX",
"hXhXhXhXhXhXhXhXhXhXhXhXhXhXhXhXhXhXhXhXhXhXhXhXhXhXhXhXhXhXhXhXhXhXhXhXhXhXhXhXhXhXhXhXhXhXhXhXhXhXhXhXhXhXhXhXhXhXhXhXhXhXhXhX"
};
