/* XPM */
static char *Walk__9_[] = {
/* columns rows colors chars-per-pixel */
"64 64 229 2 ",
"   c #020100",
".  c #0D0C0C",
"X  c #0D0802",
"o  c #120C01",
"O  c #1D1203",
"+  c #12110F",
"@  c #1B1B1B",
"#  c #171615",
"$  c #0E1013",
"%  c #2B1C05",
"&  c #241806",
"*  c #301D05",
"=  c #3A2408",
"-  c #352206",
";  c #362A17",
":  c #2D2004",
">  c #1D1E20",
",  c #2C2B2B",
"<  c #242424",
"1  c #3B3837",
"2  c #32302E",
"3  c #452B09",
"4  c #462C08",
"5  c #493207",
"6  c #553909",
"7  c #5D3E14",
"8  c #633D0D",
"9  c #413D3A",
"0  c #5D4108",
"q  c #5A4213",
"w  c #6A470A",
"e  c #70430E",
"r  c #7A560B",
"t  c #7B4C14",
"y  c #7F5814",
"u  c #664C14",
"i  c #5A4429",
"p  c #584936",
"a  c #43413E",
"s  c #7A5725",
"d  c #6B5336",
"f  c #7A5D3A",
"g  c #494542",
"h  c #514C4B",
"j  c #564E47",
"k  c #58524B",
"l  c #5B5655",
"z  c #665B4C",
"x  c #645F5B",
"c  c #695D52",
"v  c #68625C",
"b  c #73675B",
"n  c #6B6663",
"m  c #766E69",
"M  c #706863",
"N  c #77716B",
"B  c #7A7674",
"V  c #855E0B",
"C  c #814E11",
"Z  c #865314",
"A  c #8D5613",
"S  c #885E16",
"D  c #955D16",
"F  c #8B620C",
"G  c #8D6214",
"H  c #976716",
"J  c #9D6E0E",
"K  c #A5750B",
"L  c #A7681A",
"P  c #B26D18",
"I  c #B06B17",
"U  c #A77514",
"Y  c #BB721A",
"T  c #B37819",
"R  c #A06F0F",
"E  c #996523",
"W  c #886535",
"Q  c #9C7B3D",
"!  c #A76E27",
"~  c #AC7026",
"^  c #B87825",
"/  c #AF7631",
"(  c #C6791B",
")  c #CD7D1B",
"_  c #C1751A",
"`  c #C47C24",
"'  c #836849",
"]  c #8E754D",
"[  c #A47F52",
"{  c #827974",
"}  c #807774",
"|  c #8A7D6E",
" . c #BC7776",
".. c #E87777",
"X. c #BC821A",
"o. c #BC823A",
"O. c #BF8029",
"+. c #CC8C1D",
"@. c #D89819",
"#. c #D49511",
"$. c #F49F1B",
"%. c #ECA715",
"&. c #F5AD16",
"*. c #FFB416",
"=. c #FDB21A",
"-. c #CC8428",
";. c #D78929",
":. c #C98732",
">. c #D68D32",
",. c #DC9536",
"<. c #DB952D",
"1. c #E38E26",
"2. c #EC9224",
"3. c #E5932D",
"4. c #EE962B",
"5. c #ED9B2D",
"6. c #E69127",
"7. c #F09729",
"8. c #E39534",
"9. c #ED9B34",
"0. c #E69A39",
"q. c #EE9F3B",
"w. c #E89933",
"e. c #F09E36",
"r. c #ECA328",
"t. c #F6A82D",
"y. c #F6AA26",
"u. c #EEA03E",
"i. c #EFA333",
"p. c #F3A535",
"a. c #F1A23C",
"s. c #F5AA33",
"d. c #F0B330",
"f. c #B18045",
"g. c #908372",
"h. c #A78A67",
"j. c #B79163",
"k. c #AB957D",
"l. c #D7974A",
"z. c #CF9F52",
"x. c #E49D46",
"c. c #DFA051",
"v. c #EEA242",
"b. c #EFA64B",
"n. c #EFA84E",
"m. c #F2A544",
"M. c #F2A949",
"N. c #EFAA53",
"B. c #EDAC5B",
"V. c #F0AD5B",
"C. c #F0AB54",
"Z. c #F3B057",
"A. c #C89B62",
"S. c #C1807F",
"D. c #DBAE7D",
"F. c #F0B163",
"G. c #F1B56A",
"H. c #F4BA68",
"J. c #ECB87A",
"K. c #F2B975",
"L. c #F2BD7C",
"P. c #E8AF6A",
"I. c #FEC347",
"U. c #EDC27D",
"Y. c #8B8987",
"T. c #998582",
"R. c #979798",
"E. c #A19B96",
"W. c #BE9798",
"Q. c #AAA39F",
"!. c #B9A690",
"~. c #A9A8A7",
"^. c #B7ABA7",
"/. c #BDB4B2",
"(. c #B9B8B8",
"). c #B5B2AF",
"_. c #ED8D8D",
"`. c #C6A987",
"'. c #CBB99F",
"]. c #F1BF85",
"[. c #C3BEB8",
"{. c #CBBDAC",
"}. c #EAABAB",
"|. c #F3C48C",
" X c #F3C183",
".X c #EBC396",
"XX c #F4C995",
"oX c #F4CA98",
"OX c #FAD194",
"+X c #DBC7AB",
"@X c #D3C6BD",
"#X c #F3CDA6",
"$X c #F5D3AC",
"%X c #F7D4A7",
"&X c #F6D4B4",
"*X c #F5DCBC",
"=X c #EACCAC",
"-X c #FAE1B8",
";X c #CAC6C4",
":X c #D5CCC8",
">X c #DBD7D4",
",X c #DCD8D6",
"<X c #D7D0CE",
"1X c #E4D2C2",
"2X c #E1D1C9",
"3X c #F5DCC7",
"4X c #E5DEDC",
"5X c #E4D9D4",
"6X c #E1CFC3",
"7X c #F7E3CB",
"8X c #F8E3C9",
"9X c #F4E1D1",
"0X c #F8E6D1",
"qX c #F3E4DE",
"wX c #F9EADA",
"eX c #F8E8D8",
"rX c #F5E6E2",
"tX c #F6EAE5",
"yX c #F9ECE5",
"uX c #F6ECE9",
"iX c #F9EFEB",
"pX c #FAF1E6",
"aX c #F9F2ED",
"sX c #F4F0ED",
"dX c #FAF6F3",
"fX c #FCF8F6",
"gX c #FDFCFB",
"hX c #E7E4E2",
"jX c None",
/* pixels */
"jXjXjXjXjXjXjXjXjXjXjXjXjXjXjXjXjXjXjXjXjXjXjXjXjXjXjXjXjXjXjXjXjXjXjXjXjXjXjXjXjXjXjXjXjXjXjXjXjXjXjXjXjXjXjXjXjXjXjXjXjXjXjXjX",
"jXjXjXjXjXjXjXjXjXjXjXjXjXjXjXjXjXjXjXjXjXjXjXjXjXjXjXjXjXjXjXjXjXjXjXjXjXjXjXjXjXjXjXjXjXjXjXjXjXjXjXjXjXjXjXjXjXjXjXjXjXjXjXjX",
"jXjXjXjXjXjXjXjXjXjXjXjXjXjXjXjXjXjXjXjX4 % jXjXjXjXjXjXjXjXjXjXjXjXjXjXjXjXjXo jXjXjXjXjXjXjXjXjXjXjXjXjXjXjXjXjXjXjXjXjXjXjXjX",
"jXjXjXjXjXjXjXjXjXjXjXjXjXjXjXjXjXjXjX= +.J jXjXjXjXjXjXjXjXjXjXjXjXjXjXjXjX5 R 5 jXjXjXjXjXjXjXjXjXjXjXjXjXjXjXjXjXjXjXjXjXjXjX",
"jXjXjXjXjXjXjXjXjXjXjXjXjXjXjXjXjXjXjXZ q.y.V jXjXjXjXjXjXjXjXjXjXjXjXjXjX6 #.t.Z jXjXjXjXjXjXjXjXjXjXjXjXjXjXjXjXjXjXjXjXjXjXjX",
"jXjXjXjXjXjXjXjXjXjXjXjXjXjXjXjXjXjX* ` u.a.r.w jXjXjXjXjXjXjXjXjXjXjXjX0 @.p.v./ jXjXjXjXjXjXjXjXjXjXjXjXjXjXjXjXjXjXjXjXjXjXjX",
"jXjXjXjXjXjXjXjXjXjXjXjXjXjXjXjXjXjX8 w.u.u.a.@.5 jXjXjXjXjXjXjXjXjXjX6 @.a.v.|.].= jXjXjXjXjXjXjXjXjXjXjXjXjXjXjXjXjXjXjXjXjXjX",
"jXjXjXjXjXjXjXjXjXjXjXjXjXjXjXjXjXjXD 5.u.XXF.t.U jXjXjXjXjXjXjXjXjX4 @.p.q.K.qX.X7 jXjXjXjXjXjXjXjXjXjXjXjXjXjXjXjXjXjXjXjXjXjX",
"jXjXjXjXjXjXjXjXjXjXjXjXjXjXjXjXjXjXY e.n.eX3Xb.r.w jXjXjXjXjXjXjXjXX.p.u.B.7XsX$Xt jXjXjXjXjXjXjXjXjXjXjXjXjXjXjXjXjXjXjXjXjXjX",
"jXjXjXjXjXjXjXjXjXjXjXjXjXjXjXjXjX3 ;.q.G.aXiX|.s.X.jXjXjXjXjXjXjXr r.u.v.$XdXsX&XD jXjXjXjXjXjXjXjXjXjXjXjXjXjXjXjXjXjXjXjXjXjX",
"jXjXjXjXjXjXjXjXjXjXjXjXjXjXjXjXjX8 6.q. XdXdX9XV.r.0 jXjXjXjXjX- +.a.u.].aXdXdX&X! jXjXjXjXjXjXjXjXjXjXjXjXjXjXjXjXjXjXjXjXjXjX",
"jXjXjXjXjXjXjXjXjXjXjXjXjXjXjXjXjXC 4.q.XXfXdXuXXXa.H jXjXjXjXjXr i.u.N.7XdXdXaX&X~ jXjXjXjXjXjXjXjXjXjXjXjXjXjXjXjXjXjXjXjXjXjX",
"jXjXjXjXjXjXjXjXjXjXjXjXjXjXjXjXjXD 7.u.$XdXdXsX3Xn.X.O O O o   S 0.u.oXdXdXdXdX&XP jXjXjXjXjXjXjXjXjXjXjXjXjXjXjXjXjXjXjXjXjXjX",
"jXjXjXjXjXjXjXjXjXjXjXjXjXjXjXjXjXI 5.m.*XdXfXaXqXK.-.D -.:.^ S 6 q f.eXfXdXdXaX&X^ jXjXjXjXjXjXjXjXjXjXjXjXjXjXjXjXjXjXjXjXjXjX",
"jXjXjXjXjXjXjXjXjXjXjXjXjXjXjXjXjXY 4.b.7XfXdXdXuXoXu.0.m.q.a.a.r.T q B hXfXdXdX#XY jXjXjXjXjXjXjXjXjXjXjXjXjXjXjXjXjXjXjXjXjXjX",
"jXjXjXjXjXjXjXjXjXjXjXjXjXjXjXjX% ( 9.b.7XdXdXdXuX3Xb.u.q.v.a.v.u.s.%.V l >XfXaX#XY jXjXjXjXjXjXjXjXjXjXjXjXjXjXjXjXjXjXjXjXjXjX",
"jXjXjXjXjXjXjXjXjXjXjXjXjXjXjXjX- ) 4.n.0XfXfXdXtX9XB.q.a.x.q.q.u.u.u.=.K j >XdXoXI jXjXjXjXjXjXjXjXjXjXjXjXjXjXjXjXjXjXjXjXjXjX",
"jXjXjXjXjXjXjXjXjXjXjXjXjXjXjXjX= ) 4.b.0XfXdXaXtX$Xx.q.q.a.v.q.u.u.u.u.&.K l 4X|.L jXjXjXjXjXjXjXjXjXjXjXjXjXjXjXjXjXjXjXjXjXjX",
"jXjXjXjXjXjXjXjXjXjXjXjXjXjXjXjX= ) 4.b.7XfXdXiX3XB.u.u.a.q.v.v.u.u.u.q.a.=.F m K.D jXjXjXjXjXjXjXjXjXjXjXjXjXjXjXjXjXjXjXjXjXjX",
"jXjXjXjXjXjXjXjXjXjXjXjXjXjXjXjX* ( 4.v.7XfXdXqXK.u.u.u.q.v.q.q.u.u.u.u.q.t.&.u ! C jXjXjXjXjXjXjXjXjXjXjXjXjXjXjXjXjXjXjXjXjXjX",
"jXjXjXjXjXjXjXjXjXjXjXjXjXjXjXjXjXP 2.q.*XfXrX].u.u.u.u.u.u.u.u.u.u.u.u.x.a.y.#.6 3 jXjXjXjXjXjXjXjXjXjXjXjXjXjXjXjXjXjXjXjXjXjX",
"jXjXjXjXjXjXjXjXjXjXjXjXjXjXjXjXjXA 2.q.$XeXL.q.u.u.u.u.u.u.u.u.u.u.u.u.q.q.p.=.V   jXjXjXjXjXjXjXjXjXjXjXjXjXjXjXjXjXjXjXjXjXjX",
"jXjXjXjXjXjXjXjXjXjXjXjXjXjXjXjXX 5 ( 9.F.F.q.v.N.N.u.u.u.u.u.u.u.u.u.u.q.m.5.=.@.- jXjXjXjXjXjXjXjXjXjXjXjXjXjXjXjXjXjXjXjXjXjX",
"jXjXjXjXjXjXjXjXjXjXjXjXjXjXjXjX3 I ` q.q.q.q.L.yXeX%XN.u.u.u.u.u.q.u.u.q.a.N.U.I.y jXjXjXjXjXjXjXjXjXjXjXjXjXjXjXjXjXjXjXjXjXjX",
"jXjXjXjXjXjXjXjXjXjXjXjXjXjXjXjXZ 2.e.q.a.v.q.G.wXdXfX&Xv.u.u.N.v.B.m.m.q. XeXaXpXz.O jXjXjXjXjXjXjXjXjXjXjXjXjXjXjXjXjXjXjXjXjX",
"jXjXjXjXjXjXjXjXjXjXjXjXjXjXjX& Y 2.q.q.q.q.q.v.F.#X8X|.v.q.n.*X&XeX%XF.n.0XfXdX-Xd.5 jXjXjXjXjXjXjXjXjXjXjXjXjXjXjXjXjXjXjXjXjX",
"jXjXjXjXjXjXjXjXjXjXjXjXjXjX+ z 3.4.q.q.q.x.e.9.9.a.a.a.u.q.G.aXdXdXdXU.u.G.|.K.m.*.V jXjXjXjXjXjXjXjXjXjXjXjXjXjXjXjXjXjXjXjXjX",
"jXjXjXjXjXjXjXjXjXjXjXjXjX2 E.tXK.q.q.m.q.q.4.1.-.;.9.q.v.u.oXfXdXdXdXXXq.q.q.9.a.=.U jXjXjXjXjXjXjXjXjXjXjXjXjXjXjXjXjXjXjXjXjX",
"jXjXjXjXjXjXjXjXjXjXjXjX. E.fXfX8Xn.q.x.a.4.;.d m '.l.e.a.n.0XfXdXdXfX$Xu.q.;.^ :.%.@.; jXjXjXjXjXjXjXjXjXjXjXjXjXjXjXjXjXjXjXjX",
"jXjXjXjXjXjXjXjXjXjXjXjXjXv aXdXdXoXq.a.q.2.W < ~.gX!.0.q.].aXdXdXdXfX7Xm.>.p B :Xc.s.'.g jXjXjXjXjXjXjXjXjXjXjXjXjXjXjXjXjXjXjX",
"jXjXjXjXjXjXjXjXjXjXjXjX+ ~.fXdXdXyXK.q.q.2.d @ l ).b >.M.8XfXdXfXfXfXiXZ.W > R.gX!.<.*Xl jXjXjXjXjXjXjXjXjXjXjXjXjXjXjXjXjXjXjX",
"jXjXjXjXjXjXjXjXjXjXjXjXjXx 4XdXdXdXwXG.q.2.[ ~.> # d 0.XXdXdXdX<X^.{.5X|.z , 1 Y.z ,.+X2 jXjXjXjXjXjXjXjXjXjXjXjXjXjXjXjXjXjXjX",
"jXjXjXjXjXjXjXjXjXjXjXjXjXjXx 4XaXdXdXwXK.4.8.T.g p o.L.pXdXfX,X ._.}.W.{.j.(., $ d B.tXx jXjXjXjXjXjXjXjXjXjXjXjXjXjXjXjXjXjXjX",
"jXjXjXjXjXjXjXjXjXjXjXjXjXjXjXx 5XiXaXdXaX%XZ.>.f.l.oXpXfXdXfX4X ..._.S.5X].h.j d :.%XQ.# jXjXjXjXjXjXjXjXjXjXjXjXjXjXjXjXjXjXjX",
"jXjXjXjXjXjXjXjXjXjXjXjXjXjXjXjXl :XtXtXiXdXiX8X8XwXdXdXdXdXdXdX4XT.T.<XdXyXJ.l.x.OX[., jXjXjXjXjXjXjXjXjXjXjXjXjXjXjXjXjXjXjXjX",
"jXjXjXjXjXjXjXjXjXjXjXjXjXjXjXjXjX9 ^.rXtXrXuXaXdXdXdXdXdXdXfXsX<Xn Y.sXdXfXaX0XwX:X9 jXjXjXjXjXjXjXjXjXjXjXjXjXjXjXjXjXjXjXjXjX",
"jXjXjXjXjXjXjXjXjXjXjXjXjXjXjXjXjXjX@ N @XrXyXrXtXiXuXaXdXdXdXuX;X:X[.>XdXaXdXdX:Xa jXjXjXjXjXjXjXjXjXjXjXjXjXjXjXjXjXjXjXjXjXjX",
"jXjXjXjXjXjXjXjXjXjXjXjXjXjXjXjXjXjXjXjX< n Q.2XqXtXtXtXuXtXtXuXaXiXiXuXuXiXrXQ.1 jXjXjXjXjXjXjXjXjXjXjXjXjXjXjXjXjXjXjXjXjXjXjX",
"jXjXjXjXjXjXjXjXjXjXjXjXjXjXjXjXjXjXjXjXjXjX. , k } E.[.:X5XqXrXuXrXrXrX2X^.x @ jXjXjXjXjXjXjXjXjXjXjXjXjXjXjXjXjXjXjXjXjXjXjXjX",
"jXjXjXjXjXjXjXjXjXjXjXjXjXjXjXjXjXjXjXjXjXjXjXjXjX  = i i j l M m m M k 1 # jXjXjXjXjXjXjXjXjXjXjXjXjXjXjXjXjXjXjXjXjXjXjXjXjXjX",
"jXjXjXjXjXjXjXjXjXjXjXjXjXjXjXjXjXjXjXjXjXjXjXjX0 S -.q.c.@X;X).' o jXjXjXjXjXjXjXjXjXjXjXjXjXjXjXjXjXjXjXjXjXjXjXjXjXjXjXjXjXjX",
"jXjXjXjXjXjXjXjXjXjXjXjXjXjXjXjXjXjXjXjXjXjX: H <.q.;.0.XXfXfXfXqXi jXjXjXjXjXjXjXjXjXjXjXjXjXjXjXjXjXjXjXjXjXjXjXjXjXjXjXjXjXjX",
"jXjXjXjXjXjXjXjXjXjXjXjXjXjXjXjXjXjXjXjX@ : T a.3.P ~ x.8XdXdXdXfXk.8 e - jXjXjXjXjXjXjXjXjXjXjXjXjXjXjXjXjXjXjXjXjXjXjXjXjXjXjX",
"jXjXjXjXjXjXjXjXjXjXjXjXjXjXjXjXjXjXjXk v U a.e.A ~ q.F.pXdXdXdXfX1Xs >.-.~ ' < jXjXjXjXjXjXjXjXjXjXjXjXjXjXjXjXjXjXjXjXjXjXjXjX",
"jXjXjXjXjXjXjXjXjXjXjXjXjXjXjXjXjXjX9 /.W r.a.` = >.q.K.aXdXdXdXdXpX' :.a.m.+Xh jXjXjXjXjXjXjXjXjXjXjXjXjXjXjXjXjXjXjXjXjXjXjXjX",
"jXjXjXjXjXjXjXjXjXjXjXjXjXjXjXjXjXjXY.;X] M.4.t = 8.q. XfXdXdXdXdXdXh.H i.M.+X1 jXjXjXjXjXjXjXjXjXjXjXjXjXjXjXjXjXjXjXjXjXjXjXjX",
"jXjXjXjXjXjXjXjXjXjXjXjXjXjXjXjXjXjXk.A.g.&Xl.= 6 8.u.|.fXdXdXdXdXfX`.% w s a jXjXjXjXjXjXjXjXjXjXjXjXjXjXjXjXjXjXjXjXjXjXjXjXjX",
"jXjXjXjXjXjXjXjXjXjXjXjXjXjXjXjXjXjXE 9.W Y.M jX8 3.q.|.dXdXdXdXdXfX`.* jXjXjXjXjXjXjXjXjXjXjXjXjXjXjXjXjXjXjXjXjXjXjXjXjXjXjXjX",
"jXjXjXjXjXjXjXjXjXjXjXjXjXjXjXjXjXjXe 2.8.! E G 7 1.q.G.iXdXfXdXfXaXA.jXjXjXjXjXjXjXjXjXjXjXjXjXjXjXjXjXjXjXjXjXjXjXjXjXjXjXjXjX",
"jXjXjXjXjXjXjXjXjXjXjXjXjXjXjXjXjXjX& P 4.q.a.q.y ( 7.x.j.| [.fXaXoXE jXjXjXjXjXjXjXjXjXjXjXjXjXjXjXjXjXjXjXjXjXjXjXjXjXjXjXjXjX",
"jXjXjXjXjXjXjXjXjXjXjXjXjXjXjXjXjXjXjX3 _ 2.4.7.L Z 6.q.0.` Z g.P.-.5 jXjXjXjXjXjXjXjXjXjXjXjXjXjXjXjXjXjXjXjXjXjXjXjXjXjXjXjXjX",
"jXjXjXjXjXjXjXjXjXjXjXjXjXjXjXjXjXjXjXjX= A Y Y A % H s.a.x.0.H e 6 jXjXjXjXjXjXjXjXjXjXjXjXjXjXjXjXjXjXjXjXjXjXjXjXjXjXjXjXjXjX",
"jXjXjXjXjXjXjXjXjXjXjXjXjXjXjXjXjXjXjXjXjXjX& jXjXjXw &.t.u.u.9.D & jXjXjXjXjXjXjXjXjXjXjXjXjXjXjXjXjXjXjXjXjXjXjXjXjXjXjXjXjXjX",
"jXjXjXjXjXjXjXjXjXjXjXjXjXjXjXjXjXjXjXjXjXjXjXjXjXjXjXU *.t.u.u.5.D jXjXjXjXjXjXjXjXjXjXjXjXjXjXjXjXjXjXjXjXjXjXjXjXjXjXjXjXjXjX",
"jXjXjXjXjXjXjXjXjXjXjXjXjXjXjXjXjXjXjXjXjXjXjXjXjXjX= e @.*.t.v.q.x.c jXjXjXjXjXjXjXjXjXjXjXjXjXjXjXjXjXjXjXjXjXjXjXjXjXjXjXjXjX",
"jXjXjXjXjXjXjXjXjXjXjXjXjXjXjXjXjXjXjXjXjXjXjXjXjXjXL ^ V %.=.i.q.|.{ jXjXjXjXjXjXjXjXjXjXjXjXjXjXjXjXjXjXjXjXjXjXjXjXjXjXjXjXjX",
"jXjXjXjXjXjXjXjXjXjXjXjXjXjXjXjXjXjXjXjXjXjXjXjXjXi <.u.! F &.y.K.6Xh jXjXjXjXjXjXjXjXjXjXjXjXjXjXjXjXjXjXjXjXjXjXjXjXjXjXjXjXjX",
"jXjXjXjXjXjXjXjXjXjXjXjXjXjXjXjXjXjXjXjXjXjXjXjXjX{ G.w.i.R H U.2X{ jXjXjXjXjXjXjXjXjXjXjXjXjXjXjXjXjXjXjXjXjXjXjXjXjXjXjXjXjXjX",
"jXjXjXjXjXjXjXjXjXjXjXjXjXjXjXjXjXjXjXjXjXjXjXjXjXl *XJ.s.%.5 l h jXjXjXjXjXjXjXjXjXjXjXjXjXjXjXjXjXjXjXjXjXjXjXjXjXjXjXjXjXjXjX",
"jXjXjXjXjXjXjXjXjXjXjXjXjXjXjXjXjXjXjXjXjXjXjXjXjXjXB <X=Xf.jXjXjXjXjXjXjXjXjXjXjXjXjXjXjXjXjXjXjXjXjXjXjXjXjXjXjXjXjXjXjXjXjXjX",
"jXjXjXjXjXjXjXjXjXjXjXjXjXjXjXjXjXjXjXjXjXjXjXjXjXjXjXg x jXjXjXjXjXjXjXjXjXjXjXjXjXjXjXjXjXjXjXjXjXjXjXjXjXjXjXjXjXjXjXjXjXjXjX",
"jXjXjXjXjXjXjXjXjXjXjXjXjXjXjXjXjXjXjXjXjXjXjXjXjXjXjXjXjXjXjXjXjXjXjXjXjXjXjXjXjXjXjXjXjXjXjXjXjXjXjXjXjXjXjXjXjXjXjXjXjXjXjXjX",
"jXjXjXjXjXjXjXjXjXjXjXjXjXjXjXjXjXjXjXjXjXjXjXjXjXjXjXjXjXjXjXjXjXjXjXjXjXjXjXjXjXjXjXjXjXjXjXjXjXjXjXjXjXjXjXjXjXjXjXjXjXjXjXjX",
"jXjXjXjXjXjXjXjXjXjXjXjXjXjXjXjXjXjXjXjXjXjXjXjXjXjXjXjXjXjXjXjXjXjXjXjXjXjXjXjXjXjXjXjXjXjXjXjXjXjXjXjXjXjXjXjXjXjXjXjXjXjXjXjX"
};
