/* XPM */
static char *Walk__10_[] = {
/* columns rows colors chars-per-pixel */
"64 64 225 2 ",
"   c #040301",
".  c #0B0B0B",
"X  c #080705",
"o  c #1C1204",
"O  c #1D1408",
"+  c #181717",
"@  c #2C1D05",
"#  c #221703",
"$  c #2B1E0E",
"%  c #332205",
"&  c #3C2508",
"*  c #3C311C",
"=  c #262524",
"-  c #2C2B2A",
";  c #2A2825",
":  c #37322F",
">  c #383634",
",  c #312F2D",
"<  c #442907",
"1  c #473205",
"2  c #52330B",
"3  c #593B09",
"4  c #5A3A13",
"5  c #603B0D",
"6  c #423E3A",
"7  c #413A33",
"8  c #513D24",
"9  c #64450A",
"0  c #6A400D",
"q  c #6A4A09",
"w  c #724B0C",
"e  c #75470E",
"r  c #78550B",
"t  c #6A4811",
"y  c #7B4B11",
"u  c #744A14",
"i  c #785116",
"p  c #514128",
"a  c #484138",
"s  c #524633",
"d  c #675336",
"f  c #785D3C",
"g  c #4C4845",
"h  c #534D49",
"j  c #5B544B",
"k  c #5A5A5A",
"l  c #5A5856",
"z  c #615B53",
"x  c #67625D",
"c  c #7B6A58",
"v  c #766147",
"b  c #6B6561",
"n  c #676563",
"m  c #746C69",
"M  c #74716E",
"N  c #787776",
"B  c #844F0F",
"V  c #87550E",
"C  c #8B5513",
"Z  c #855711",
"A  c #935C1A",
"S  c #804E11",
"D  c #8A610B",
"F  c #94690C",
"G  c #9A6C0B",
"H  c #92670C",
"J  c #8F6218",
"K  c #9B6616",
"L  c #98701C",
"P  c #A4730E",
"I  c #A76618",
"U  c #BB731B",
"Y  c #B57817",
"T  c #AF7513",
"R  c #885B22",
"E  c #9B6524",
"W  c #946934",
"Q  c #98723B",
"!  c #A56E25",
"~  c #B5772B",
"^  c #A57437",
"/  c #B67F3B",
"(  c #C5791B",
")  c #C77A1B",
"_  c #C17B25",
"`  c #887458",
"'  c #816B51",
"]  c #827A76",
"[  c #887F7B",
"{  c #8F6968",
"}  c #E87575",
"|  c #B9840E",
" . c #C88B18",
".. c #D9841E",
"X. c #D79712",
"o. c #CC900F",
"O. c #E68C1F",
"+. c #E49F1E",
"@. c #F7AD19",
"#. c #FDB21B",
"$. c #FFB415",
"%. c #ECA614",
"&. c #C7842B",
"*. c #CA8828",
"=. c #DA8B2A",
"-. c #DD9921",
";. c #DC942C",
":. c #C88635",
">. c #D38C32",
",. c #DF9539",
"<. c #E18F2A",
"1. c #E08B23",
"2. c #EC9324",
"3. c #E4912A",
"4. c #ED9629",
"5. c #EE982E",
"6. c #EC9B26",
"7. c #F09627",
"8. c #E49533",
"9. c #ED9B34",
"0. c #EE9F3B",
"q. c #E69833",
"w. c #F19D35",
"e. c #EEA625",
"r. c #F6A928",
"t. c #EEA03E",
"y. c #EFA236",
"u. c #F3A534",
"i. c #F1A23C",
"p. c #F7A930",
"a. c #FBBC36",
"s. c #978059",
"d. c #8C837D",
"f. c #9B876A",
"g. c #B49671",
"h. c #DB9947",
"j. c #C38940",
"k. c #E79E45",
"l. c #DDA055",
"z. c #EEA344",
"x. c #EFA64A",
"c. c #E9A64D",
"v. c #F2A949",
"b. c #EEA955",
"n. c #EBA858",
"m. c #F1AB53",
"M. c #F1AE5B",
"N. c #C49964",
"B. c #CBA67C",
"V. c #D9B06F",
"C. c #EDAE64",
"Z. c #F1B163",
"A. c #F1B56C",
"S. c #F2B972",
"D. c #F2BD7B",
"F. c #F0AF60",
"G. c #FFC959",
"H. c #F5C07D",
"J. c #8F8A86",
"K. c #948E8A",
"L. c #9B928B",
"P. c #9A9794",
"I. c #A59B97",
"U. c #B69493",
"Y. c #B28F84",
"T. c #B4A290",
"R. c #BCB8B4",
"E. c #BEBBB8",
"W. c #AAA8A7",
"Q. c #D88484",
"!. c #C79A9A",
"~. c #F68B8B",
"^. c #D4AE82",
"/. c #CDB392",
"(. c #F1BD80",
"). c #C6B5B3",
"_. c #C7BDB6",
"`. c #CFBCA5",
"'. c #E7A6A6",
"]. c #F3C283",
"[. c #F5C78A",
"{. c #F5C995",
"}. c #F4CC9E",
"|. c #F1CE9B",
" X c #CDC2BC",
".X c #D1C3B3",
"XX c #F3CEA4",
"oX c #F3CEA9",
"OX c #F5D2A4",
"+X c #F5D5AD",
"@X c #F5D8B5",
"#X c #F7DBBA",
"$X c #F5D6B6",
"%X c #ECD1BA",
"&X c #F9E0BC",
"*X c #C9C4C1",
"=X c #D8CDC9",
"-X c #DAD1CA",
";X c #D9D6D4",
":X c #EEDBC8",
">X c #F5DEC4",
",X c #F4DDCC",
"<X c #EBDEDA",
"1X c #E2DCDB",
"2X c #F7E1C7",
"3X c #F7E2CA",
"4X c #FBE5CC",
"5X c #E8E1DD",
"6X c #FAEAD6",
"7X c #F5E5DB",
"8X c #F9EBDC",
"9X c #F7E1D2",
"0X c #ECE9E6",
"qX c #F6E9E5",
"wX c #F9EBE4",
"eX c #F6EDE9",
"rX c #F8EEEB",
"tX c #F4E5E0",
"yX c #F9F2ED",
"uX c #F8F1EA",
"iX c #FAF6F3",
"pX c #FCF8F6",
"aX c #FDFBFA",
"sX c #F7F3F0",
"dX c None",
/* pixels */
"dXdXdXdXdXdXdXdXdXdXdXdXdXdXdXdXdXdXdXdXdXdXdXdXdXdXdXdXdXdXdXdXdXdXdXdXdXdXdXdXdXdXdXdXdXdXdXdXdXdXdXdXdXdXdXdXdXdXdXdXdXdXdXdX",
"dXdXdXdXdXdXdXdXdXdXdXdXdXdXdXdXdXdXdXdXdXdXdXdXdXdXdXdXdXdXdXdXdXdXdXdXdXdXdXdXdXdXdXdXdXdXdXdXdXdXdXdXdXdXdXdXdXdXdXdXdXdXdXdX",
"dXdXdXdXdXdXdXdXdXdXdXdXdXdXdXdXdXdXdXdXdX# dXdXdXdXdXdXdXdXdXdXdXdXdXdXdXdX@ dXdXdXdXdXdXdXdXdXdXdXdXdXdXdXdXdXdXdXdXdXdXdXdXdX",
"dXdXdXdXdXdXdXdXdXdXdXdXdXdXdXdXdXdXdXdXu Y % dXdXdXdXdXdXdXdXdXdXdXdXdXdXF Y dXdXdXdXdXdXdXdXdXdXdXdXdXdXdXdXdXdXdXdXdXdXdXdXdX",
"dXdXdXdXdXdXdXdXdXdXdXdXdXdXdXdXdXdXdX% &.r.P dXdXdXdXdXdXdXdXdXdXdXdXdXD e.9.9 dXdXdXdXdXdXdXdXdXdXdXdXdXdXdXdXdXdXdXdXdXdXdXdX",
"dXdXdXdXdXdXdXdXdXdXdXdXdXdXdXdXdXdXdXy 9.t.r.V dXdXdXdXdXdXdXdXdXdXdXr e.i.M.^ dXdXdXdXdXdXdXdXdXdXdXdXdXdXdXdXdXdXdXdXdXdXdXdX",
"dXdXdXdXdXdXdXdXdXdXdXdXdXdXdXdXdXdXdXU i.i.i.+.3 dXdXdXdXdXdXdXdXdX3 +.0.b.#XV.< dXdXdXdXdXdXdXdXdXdXdXdXdXdXdXdXdXdXdXdXdXdXdX",
"dXdXdXdXdXdXdXdXdXdXdXdXdXdXdXdXdXdX2 =.0.Z.A.u. .@ dXdXdXdXdXdXdX%  .i.z.(.qXXX0 dXdXdXdXdXdXdXdXdXdXdXdXdXdXdXdXdXdXdXdXdXdXdX",
"dXdXdXdXdXdXdXdXdXdXdXdXdXdXdXdXdXdXS w.0.}.,Xb.r.Z dXdXdXdXdXdXdXH p.0.M.7XsX@XA dXdXdXdXdXdXdXdXdXdXdXdXdXdXdXdXdXdXdXdXdXdXdX",
"dXdXdXdXdXdXdXdXdXdXdXdXdXdXdXdXdXdXI 0.z.2XiX}.i. .% dXdXdXdXdX1 6.t.t.OXiXsX>X~ dXdXdXdXdXdXdXdXdXdXdXdXdXdXdXdXdXdXdXdXdXdXdX",
"dXdXdXdXdXdXdXdXdXdXdXdXdXdXdXdXdX& ) 9.M.8XiX7XZ.e.q dXdXdXdXdXH u.t.F.8XpXiX9X:.% dXdXdXdXdXdXdXdXdXdXdXdXdXdXdXdXdXdXdXdXdXdX",
"dXdXdXdXdXdXdXdXdXdXdXdXdXdXdXdXdX2 1.0.S.yXiXyX}.z.T dXdXdXdXdX*.t.t.XXsXiXiX7Xh.< dXdXdXdXdXdXdXdXdXdXdXdXdXdXdXdXdXdXdXdXdXdX",
"dXdXdXdXdXdXdXdXdXdXdXdXdXdXdXdXdXe 2.0.].iXiXyX3Xb.*.#     dX% *.t.M.8XiXiXsXqXc.2 dXdXdXdXdXdXdXdXdXdXdXdXdXdXdXdXdXdXdXdXdXdX",
"dXdXdXdXdXdXdXdXdXdXdXdXdXdXdXdXdXC 4.0.}.iXiXiXqXD.;.9 E ! J q 2 i B.pXpXiXsXqXM.5 dXdXdXdXdXdXdXdXdXdXdXdXdXdXdXdXdXdXdXdXdXdX",
"dXdXdXdXdXdXdXdXdXdXdXdXdXdXdXdXdXI 5.0.+XiXiXiXeXOXq.&.i.i.i.y.-.F p K.0XpXpXeXZ.S dXdXdXdXdXdXdXdXdXdXdXdXdXdXdXdXdXdXdXdXdXdX",
"dXdXdXdXdXdXdXdXdXdXdXdXdXdXdXdXdXU 5.z.#XpXiXiXeX:Xv.t.t.t.t.z.t.p.X.r x 1XpXuXA.B dXdXdXdXdXdXdXdXdXdXdXdXdXdXdXdXdXdXdXdXdXdX",
"dXdXdXdXdXdXdXdXdXdXdXdXdXdXdXdXdX( 4.z.>XpXiXiXqX7XC.0.0.z.t.t.t.t.u.@.F j ;XuXA.C dXdXdXdXdXdXdXdXdXdXdXdXdXdXdXdXdXdXdXdXdXdX",
"dXdXdXdXdXdXdXdXdXdXdXdXdXdXdXdX@ ( 4.z.4XpXiXiXqX,Xb.0.0.0.0.0.t.t.z.y.$.G z 5XA.V dXdXdXdXdXdXdXdXdXdXdXdXdXdXdXdXdXdXdXdXdXdX",
"dXdXdXdXdXdXdXdXdXdXdXdXdXdXdXdX% ) 7.x.3XpXiXrXtX(.t.t.z.t.t.z.t.t.t.t.y.@.D m C.B dXdXdXdXdXdXdXdXdXdXdXdXdXdXdXdXdXdXdXdXdXdX",
"dXdXdXdXdXdXdXdXdXdXdXdXdXdXdXdX@ ( 4.z.3XiXiXqX}.z.t.t.0.0.t.t.t.t.t.t.t.p.@.t E y dXdXdXdXdXdXdXdXdXdXdXdXdXdXdXdXdXdXdXdXdXdX",
"dXdXdXdXdXdXdXdXdXdXdXdXdXdXdXdXdXU 7.z.>XaXrXoXx.0.t.t.t.t.t.t.t.t.t.t.t.t.#.X.2 & dXdXdXdXdXdXdXdXdXdXdXdXdXdXdXdXdXdXdXdXdXdX",
"dXdXdXdXdXdXdXdXdXdXdXdXdXdXdXdXdXI 2.0.@XrX}.x.t.0.t.t.t.t.t.t.t.t.t.t.t.t.t.#.F X dXdXdXdXdXdXdXdXdXdXdXdXdXdXdXdXdXdXdXdXdXdX",
"dXdXdXdXdXdXdXdXdXdXdXdXdXdXdXdXdX2 *.5.D.D.z.0.t.t.0.t.t.t.t.t.t.t.z.t.t.t.t.r.%.1 dXdXdXdXdXdXdXdXdXdXdXdXdXdXdXdXdXdXdXdXdXdX",
"dXdXdXdXdXdXdXdXdXdXdXdXdXdXdXdXo y ( 0.0.0.0.M.@X@X].z.t.t.t.t.t.t.t.t.t.t.b.S.G.L dXdXdXdXdXdXdXdXdXdXdXdXdXdXdXdXdXdXdXdXdXdX",
"dXdXdXdXdXdXdXdXdXdXdXdXdXdXdXdX2 O.7.0.t.t.0.S.yXaXiXOXz.t.t.x.t.c.z.t.t.D.6XsXiXV.% dXdXdXdXdXdXdXdXdXdXdXdXdXdXdXdXdXdXdXdXdX",
"dXdXdXdXdXdXdXdXdXdXdXdXdXdXdXdXC 2.9.z.t.t.t.z.(.3XwX@Xz.t.z.OX}.3XOXA.z.2XpXuX&Xa.q dXdXdXdXdXdXdXdXdXdXdXdXdXdXdXdXdXdXdXdXdX",
"dXdXdXdXdXdXdXdXdXdXdXdXdXdXdX# U 2.0.0.t.t.z.0.0.x.M.v.t.t.b.8XpXpXpX{.t.F.].S.z.#.P dXdXdXdXdXdXdXdXdXdXdXdXdXdXdXdXdXdXdXdXdX",
"dXdXdXdXdXdXdXdXdXdXdXdXdXdX; L.n.5.z.0.t.0.9.7.2.3.9.t.t.0.D.iXiXiXiX+Xt.t.0.9.y.#.o.o dXdXdXdXdXdXdXdXdXdXdXdXdXdXdXdXdXdXdXdX",
"dXdXdXdXdXdXdXdXdXdXdXdXdXg *XaX#Xz.t.t.t.0.2.~ f g.q.z.z.0.+XpXiXiXpX2Xz.t.;.~ :.3.%.d . dXdXdXdXdXdXdXdXdXdXdXdXdXdXdXdXdXdXdX",
"dXdXdXdXdXdXdXdXdXdXdXdXdXm yXiXyX(.0.0.0.4._ > N aX`.q.0.M.8XpXiXiXiX8Xb.,.d k -X^.6.|.M   dXdXdXdXdXdXdXdXdXdXdXdXdXdXdXdXdXdX",
"dXdXdXdXdXdXdXdXdXdXdXdXdXg 0XpXaX6XZ.0.0.4.W + l 0XP.:.0.}.iXiXiXaXpXpX].^ ; b aX_.*.|.M dXdXdXdXdXdXdXdXdXdXdXdXdXdXdXdXdXdXdX",
"dXdXdXdXdXdXdXdXdXdXdXdX  N yXpXiXiX2Xm.0.4.^ M - ; > :.Z.8XiXiX0X_.).;X@X^ > ; N l &.OXn dXdXdXdXdXdXdXdXdXdXdXdXdXdXdXdXdXdXdX",
"dXdXdXdXdXdXdXdXdXdXdXdXdX+ L.yXiXiXpX>XM.9.=.).l = f c.>XiXiXsXU.Q.'.!._.N._.k . a h.6XJ.  dXdXdXdXdXdXdXdXdXdXdXdXdXdXdXdXdXdX",
"dXdXdXdXdXdXdXdXdXdXdXdXdXdX+ K.qXrXiXiX6XD.9.&.W Q l.#XiXiXiXeXY.} ~.Q.).$Xg.v d ~ [.E.; dXdXdXdXdXdXdXdXdXdXdXdXdXdXdXdXdXdXdX",
"dXdXdXdXdXdXdXdXdXdXdXdXdXdXdX+ [ <XwXrXiXyX,X{.].oX8XiXiXiXiXiX<XU.{ ).eXyXXXh.k.].-Xa dXdXdXdXdXdXdXdXdXdXdXdXdXdXdXdXdXdXdXdX",
"dXdXdXdXdXdXdXdXdXdXdXdXdXdXdXdX. b =XwXqXqXrXiXiXiXiXiXiXiXiXiXqXP.n ;XpXiXaXwX8X5Xk dXdXdXdXdXdXdXdXdXdXdXdXdXdXdXdXdXdXdXdXdX",
"dXdXdXdXdXdXdXdXdXdXdXdXdXdXdXdXdXdX6 I.<XwXqXqXqXrXiXiXiXpXiXiX=XE.).*XsXyXiXyX<Xn dXdXdXdXdXdXdXdXdXdXdXdXdXdXdXdXdXdXdXdXdXdX",
"dXdXdXdXdXdXdXdXdXdXdXdXdXdXdXdXdXdXdX+ h I.=X7XrXwXqXqXwXrXwXeXeXrXiXrXeXeXwX Xj dXdXdXdXdXdXdXdXdXdXdXdXdXdXdXdXdXdXdXdXdXdXdX",
"dXdXdXdXdXdXdXdXdXdXdXdXdXdXdXdXdXdXdXdXdX. - z [ W._.-X<XtXwXwXqXqXwXwX<X_.d.- dXdXdXdXdXdXdXdXdXdXdXdXdXdXdXdXdXdXdXdXdXdXdXdX",
"dXdXdXdXdXdXdXdXdXdXdXdXdXdXdXdXdXdXdXdXdXdXdXdXdX. = 8 s z m ] d.J.] b g = dXdXdXdXdXdXdXdXdXdXdXdXdXdXdXdXdXdXdXdXdXdXdXdXdXdX",
"dXdXdXdXdXdXdXdXdXdXdXdXdXdXdXdXdXdXdXdXdXdXdXdXdXdXJ >.:.T.W.P.c o dXdXdXdXdXdXdXdXdXdXdXdXdXdXdXdXdXdXdXdXdXdXdXdXdXdXdXdXdXdX",
"dXdXdXdXdXdXdXdXdXdXdXdXdXdXdXdXdXdXdXdXdXdXdXdXJ ;.5.<.Z.wXaXaX8Xv dXdXdXdXdXdXdXdXdXdXdXdXdXdXdXdXdXdXdXdXdXdXdXdXdXdXdXdXdXdX",
"dXdXdXdXdXdXdXdXdXdXdXdXdXdXdXdXdXdXdXdXdXdXdXI 0.<.I :.OXiXyXyXaXT.O dXdXdXdXdXdXdXdXdXdXdXdXdXdXdXdXdXdXdXdXdXdXdXdXdXdXdXdXdX",
"dXdXdXdXdXdXdXdXdXdXdXdXdXdXdXdXdXdXdX> k . D y.q.K >.x.4XpXpXpXpX,X8 o dXdXdXdXdXdXdXdXdXdXdXdXdXdXdXdXdXdXdXdXdXdXdXdXdXdXdXdX",
"dXdXdXdXdXdXdXdXdXdXdXdXdXdXdXdXdXdX, R.K.% -.i.( E i.M.uXiXiXiXpXuX` C 5 dXdXdXdXdXdXdXdXdXdXdXdXdXdXdXdXdXdXdXdXdXdXdXdXdXdXdX",
"dXdXdXdXdXdXdXdXdXdXdXdXdXdXdXdXdXdXJ.aXN r u.0.A ~ i.S.sXiXiXiXiXpXg.E 3.^ : dXdXdXdXdXdXdXdXdXdXdXdXdXdXdXdXdXdXdXdXdXdXdXdXdX",
"dXdXdXdXdXdXdXdXdXdXdXdXdXdXdXdXdXdX X6Xs.` m.3.u =.t.D.iXiXiXiXiXpX/.A i.{.M dXdXdXdXdXdXdXdXdXdXdXdXdXdXdXdXdXdXdXdXdXdXdXdXdX",
"dXdXdXdXdXdXdXdXdXdXdXdXdXdXdXdXdX> ^.v...c >XB.2 ;.y.H.sXiXiXiXiXpX.Xr c..Xg dXdXdXdXdXdXdXdXdXdXdXdXdXdXdXdXdXdXdXdXdXdXdXdXdX",
"dXdXdXdXdXdXdXdXdXdXdXdXdXdXdXdXdXdX~ w.0.! c j < 1.0.C.uXiXiXiXiXpX^.% p a dXdXdXdXdXdXdXdXdXdXdXdXdXdXdXdXdXdXdXdXdXdXdXdXdXdX",
"dXdXdXdXdXdXdXdXdXdXdXdXdXdXdXdXdXdXe 2.0.k.>.*.i ) 5.z.+XiXpXiXpX3Xj.dXdXdXdXdXdXdXdXdXdXdXdXdXdXdXdXdXdXdXdXdXdXdXdXdXdXdXdXdX",
"dXdXdXdXdXdXdXdXdXdXdXdXdXdXdXdXdXdX# K 2.5.w.w.U C 3.0.j.Y.>X2X}.c.0 dXdXdXdXdXdXdXdXdXdXdXdXdXdXdXdXdXdXdXdXdXdXdXdXdXdXdXdXdX",
"dXdXdXdXdXdXdXdXdXdXdXdXdXdXdXdXdXdXdX@ C ) O.O.I % &.i.0.A E w...e dXdXdXdXdXdXdXdXdXdXdXdXdXdXdXdXdXdXdXdXdXdXdXdXdXdXdXdXdXdX",
"dXdXdXdXdXdXdXdXdXdXdXdXdXdXdXdXdXdXdXdXdX< 3 2 dXdXo.p.0.8.y y w q dXdXdXdXdXdXdXdXdXdXdXdXdXdXdXdXdXdXdXdXdXdXdXdXdXdXdXdXdXdX",
"dXdXdXdXdXdXdXdXdXdXdXdXdXdXdXdXdXdXdXdXdXdXdXdXdXdX| #.t.t._ 4 -.| dXdXdXdXdXdXdXdXdXdXdXdXdXdXdXdXdXdXdXdXdXdXdXdXdXdXdXdXdXdX",
"dXdXdXdXdXdXdXdXdXdXdXdXdXdXdXdXdXdXdXdXdXdXdXdXdXdXF $.u.t.9.Z X.Y dXdXdXdXdXdXdXdXdXdXdXdXdXdXdXdXdXdXdXdXdXdXdXdXdXdXdXdXdXdX",
"dXdXdXdXdXdXdXdXdXdXdXdXdXdXdXdXdXdXdXdXdXdXdXdXdXdX9 @.r.t.i.U G G dXdXdXdXdXdXdXdXdXdXdXdXdXdXdXdXdXdXdXdXdXdXdXdXdXdXdXdXdXdX",
"dXdXdXdXdXdXdXdXdXdXdXdXdXdXdXdXdXdXdXdXdXdXdXdXdXdX% X.#.0.0.1.r 9 dXdXdXdXdXdXdXdXdXdXdXdXdXdXdXdXdXdXdXdXdXdXdXdXdXdXdXdXdXdX",
"dXdXdXdXdXdXdXdXdXdXdXdXdXdXdXdXdXdXdXdXdXdXdXdXdXdXdXG $.u.0.m.' o dXdXdXdXdXdXdXdXdXdXdXdXdXdXdXdXdXdXdXdXdXdXdXdXdXdXdXdXdXdX",
"dXdXdXdXdXdXdXdXdXdXdXdXdXdXdXdXdXdXdXdXdXdXdXdXdXdXdX3 e.v.S.%Xh dXdXdXdXdXdXdXdXdXdXdXdXdXdXdXdXdXdXdXdXdXdXdXdXdXdXdXdXdXdXdX",
"dXdXdXdXdXdXdXdXdXdXdXdXdXdXdXdXdXdXdXdXdXdXdXdXdXdXdXdXf.#X=Xd.* dXdXdXdXdXdXdXdXdXdXdXdXdXdXdXdXdXdXdXdXdXdXdXdXdXdXdXdXdXdXdX",
"dXdXdXdXdXdXdXdXdXdXdXdXdXdXdXdXdXdXdXdXdXdXdXdXdXdXdXdX+ g x N a dXdXdXdXdXdXdXdXdXdXdXdXdXdXdXdXdXdXdXdXdXdXdXdXdXdXdXdXdXdXdX",
"dXdXdXdXdXdXdXdXdXdXdXdXdXdXdXdXdXdXdXdXdXdXdXdXdXdXdXdXdX. > : dXdXdXdXdXdXdXdXdXdXdXdXdXdXdXdXdXdXdXdXdXdXdXdXdXdXdXdXdXdXdXdX",
"dXdXdXdXdXdXdXdXdXdXdXdXdXdXdXdXdXdXdXdXdXdXdXdXdXdXdXdXdXdXdXdXdXdXdXdXdXdXdXdXdXdXdXdXdXdXdXdXdXdXdXdXdXdXdXdXdXdXdXdXdXdXdXdX",
"dXdXdXdXdXdXdXdXdXdXdXdXdXdXdXdXdXdXdXdXdXdXdXdXdXdXdXdXdXdXdXdXdXdXdXdXdXdXdXdXdXdXdXdXdXdXdXdXdXdXdXdXdXdXdXdXdXdXdXdXdXdXdXdX"
};
