/* XPM */
static char *Idle__1__left[] = {
/* columns rows colors chars-per-pixel */
"64 64 118 2 ",
"   c #050505",
".  c #0B0B0B",
"X  c #141414",
"o  c #1B1B1B",
"O  c #232323",
"+  c #2C2C2C",
"@  c #343434",
"#  c #3C3C3C",
"$  c #444444",
"%  c #4B4B4B",
"&  c #545454",
"*  c #5B5B5B",
"=  c #5A7177",
"-  c #5A7379",
";  c #646464",
":  c #6C6C6C",
">  c #73706F",
",  c #6B6F70",
"<  c #6C7172",
"1  c #747474",
"2  c #757979",
"3  c #7B7B7B",
"4  c #836969",
"5  c #CB6969",
"6  c #D47C7C",
"7  c #DC7B7B",
"8  c #EC7C7C",
"9  c #82807F",
"0  c #507984",
"q  c #647D83",
"w  c #7A7F81",
"e  c #1A92B1",
"r  c #288DA7",
"t  c #2F91AA",
"y  c #3395AE",
"u  c #2C99B5",
"i  c #239FBE",
"p  c #2C9EBA",
"a  c #399CB5",
"s  c #3FA1B9",
"d  c #5D8088",
"f  c #448494",
"g  c #4B8A9A",
"h  c #65868E",
"j  c #6A858C",
"k  c #688E98",
"l  c #718B91",
"z  c #6F939C",
"x  c #418DA0",
"c  c #4C95A7",
"v  c #4697AB",
"b  c #44A1B8",
"n  c #7EA1AA",
"m  c #76ADBA",
"M  c #029DC5",
"N  c #11A7CC",
"B  c #1BA6C9",
"V  c #1FACCF",
"C  c #00A6D0",
"Z  c #07A9D2",
"A  c #05B0DB",
"S  c #0FB1DA",
"D  c #1BB2D9",
"F  c #26A2C1",
"G  c #23A9CA",
"H  c #30A8C6",
"J  c #2DBBDF",
"K  c #3ABBDC",
"L  c #41A9C3",
"P  c #4EAEC6",
"I  c #5CAEC3",
"U  c #38C0E2",
"Y  c #6BCDE5",
"T  c #838383",
"R  c #8B8B8B",
"E  c #949494",
"W  c #9B9B9B",
"Q  c #B28F8F",
"!  c #A19E9D",
"~  c #AD9D9D",
"^  c #B49797",
"/  c #B09C9C",
"(  c #91B5BE",
")  c #A4A4A4",
"_  c #ADA2A2",
"`  c #ABABAB",
"'  c #B7A3A3",
"]  c #BAACAC",
"[  c #A5BABF",
"{  c #B5B5B5",
"}  c #B9B5B5",
"|  c #BBBBBB",
" . c #C0B7B7",
".. c #E8A9A9",
"X. c #F4A3A3",
"o. c #84C7D8",
"O. c #BDC8CB",
"+. c #8EDCEF",
"@. c #91D2E2",
"#. c #BCE0E9",
"$. c #A8E2F1",
"%. c #C4C4C4",
"&. c #CCCDCD",
"*. c #D1CFCF",
"=. c #D3D3D3",
"-. c #DBDBDB",
";. c #E1DFDF",
":. c #CDE4E9",
">. c #CCEEF6",
",. c #D8F1F6",
"<. c #D0F0F8",
"1. c #E5E5E5",
"2. c #E8E8E7",
"3. c #E7E8E8",
"4. c #E8E8E8",
"5. c #E7F1F4",
"6. c #E9FAFD",
"7. c None",
/* pixels */
"7.7.7.7.7.7.7.7.7.7.7.7.7.7.7.7.7.7.7.7.7.7.7.7.7.7.7.7.7.7.7.7.7.7.7.7.7.7.7.7.7.7.7.7.7.7.7.7.7.7.7.7.7.7.7.7.7.7.7.7.7.7.7.7.",
"7.7.7.7.7.7.7.7.7.7.7.7.7.7.7.7.7.7.7.7.7.7.7.7.7.7.7.7.7.7.7.7.7.7.7.7.7.7.7.7.7.7.7.7.7.7.7.7.7.7.7.7.7.7.7.7.7.7.7.7.7.7.7.7.",
"7.7.7.7.7.7.7.7.7.7.7.7.7.7.7.7.7.7.7.7.7.7.7.7.7.7.7.7.7.7.7.7.7.7.7.7.7.7.7.7.7.7.7.7.7.7.7.7.7.7.7.7.7.7.7.7.7.7.7.7.7.7.7.7.",
"7.7.7.7.7.7.7.7.7.7.7.7.7.7.7.7.7.7.7.7.7.7.7.7.7.7.7.7.7.7.7.7.7.7.7.7.7.7.7.7.7.7.7.7.7.7.7.7.7.7.7.7.7.7.7.7.7.7.7.7.7.7.7.7.",
"7.7.7.7.7.7.7.7.7.7.7.7.7.7.7.7.7.7.7.7.7.7.7.7.7.7.7.7.7.7.7.7.7.7.7.7.7.7.7.7.7.7.  X O X 7.7.7.7.7.7.7.7.7.7.7.7.7.7.7.7.7.7.",
"7.7.7.7.7.7.7.7.7.7.7.7.7.7.7.7.7.7.7.7.7.7.7.. X   7.7.7.7.7.7.7.7.7.7.7.7.7.7.7.X @ $ # +   7.7.7.7.7.7.7.7.7.7.7.7.7.7.7.7.7.",
"7.7.7.7.7.7.7.7.7.7.7.7.7.7.7.7.7.7.7.7.7.7.7.@ $ @ o . 7.7.7.7.7.7.7.7.7.7.7.7.O # @ @ @ + X 7.7.7.7.7.7.7.7.7.7.7.7.7.7.7.7.7.",
"7.7.7.7.7.7.7.7.7.7.7.7.7.7.7.7.7.7.7.7.7.7.. @ $ % & % X 7.7.7.7.7.7.7.7.7.7.+ : & ; % @ @ X 7.7.7.7.7.7.7.7.7.7.7.7.7.7.7.7.7.",
"7.7.7.7.7.7.7.7.7.7.7.7.7.7.7.7.7.7.7.7.7.7.+ 2 % @ $ 3 * X 7.7.7.7.7.7.7.7.o j ' | &.E @ @ o   7.7.7.7.7.7.7.7.7.7.7.7.7.7.7.7.",
"7.7.7.7.7.7.7.7.7.7.7.7.7.7.7.7.7.7.7.7.7.7.% *.| ; * 1 E % 7.7.7.7.7.7.7.7.* } &.*.=.&.% @ o . 7.7.7.7.7.7.7.7.7.7.7.7.7.7.7.7.",
"7.7.7.7.7.7.7.7.7.7.7.7.7.7.7.7.7.7.7.7.7.7.; -.4.*.R T R R + 7.7.7.7.7.7.7.! &.*.;.1.1.: @ O . 7.7.7.7.7.7.7.7.7.7.7.7.7.7.7.7.",
"7.7.7.7.7.7.7.7.7.7.7.7.7.7.7.7.7.7.7.7.7.7.3 ;.2.4.&.R T E ; . 7.7.7.7.7.w %.=.1.1.1.4.R # O X 7.7.7.7.7.7.7.7.7.7.7.7.7.7.7.7.",
"7.7.7.7.7.7.7.7.7.7.7.7.7.7.7.7.7.7.7.7.7.7.R ;.1.1.1.{ T 1 & X . o X . . E &.-.1.1.2.2.{ : # o 7.7.7.7.7.7.7.7.7.7.7.7.7.7.7.7.",
"7.7.7.7.7.7.7.7.7.7.7.7.7.7.7.7.7.7.7.7.7.7.R 1.1.2.2.` # O # + # 3 % + # ` =.1.1.1.1.2.%.w ; + 7.7.7.7.7.7.7.7.7.7.7.7.7.7.7.7.",
"7.7.7.7.7.7.7.7.7.7.7.7.7.7.7.7.7.7.7.7.7.7.E 2.3.;.R + O # 9 # % T % @ * | -.1.1.2.1.4.%.T < + 7.7.7.7.7.7.7.7.7.7.7.7.7.7.7.7.",
"7.7.7.7.7.7.7.7.7.7.7.7.7.7.7.7.7.7.7.7.7.7.E 3.-.> + > # # 2 # & 3 # @ : } 1.1.1.1.1.4.%.4 , + 7.7.7.7.7.7.7.7.7.7.7.7.7.7.7.7.",
"7.7.7.7.7.7.7.7.7.7.7.7.7.7.7.7.7.7.7.7.7.7.R 1.3 O # 3 % # 1 $ ; 2 # $ 1 W 1.2.1.1.1.3.%.3 : O 7.7.7.7.7.7.7.7.7.7.7.7.7.7.7.7.",
"7.7.7.7.7.7.7.7.7.7.7.7.7.7.7.7.7.7.7.7.7.7.T W $ : @ ; & # 2 % 1 < @ * ; ; =.3.2.2.1.2.} 3 ; O 7.7.7.7.7.7.7.7.7.7.7.7.7.7.7.7.",
"7.7.7.7.7.7.7.7.7.7.7.7.7.7.7.7.7.7.7.7.7.7.& $ T R $ & ; # 3 * 3 ; # 1 % & | 3.1.1.1.2.` 1 * o 7.7.7.7.7.7.7.7.7.7.7.7.7.7.7.7.",
"7.7.7.7.7.7.7.7.7.7.7.7.7.7.7.7.7.7.7.7.7.7.. * E R ; % 1 $ 2 ; 9 * % : % 1 E -.4.1.1.;.W : & X 7.7.7.7.7.7.7.7.7.7.7.7.7.7.7.7.",
"7.7.7.7.7.7.7.7.7.7.7.7.7.7.7.7.7.7.7.7.7.7.+ R R T 9 & > & 2 3 T & ; ; > T T ) -.4.4.&.T : %   7.7.7.7.7.7.7.7.7.7.7.7.7.7.7.7.",
"7.7.7.7.7.7.7.7.7.7.7.7.7.7.7.7.7.7.7.7.7.7.* E T T T > : ; 3 T 9 & 1 1 T T T T W | | E 3 ; + 7.7.7.7.7.7.7.7.7.7.7.7.7.7.7.7.7.",
"7.7.7.7.7.7.7.7.7.7.7.7.7.7.7.7.7.7.7.7.7.o T R T T T w 1 1 3 T 3 ; T T T T T T T T T T > & X 7.7.7.7.7.7.7.7.7.7.7.7.7.7.7.7.7.",
"7.7.7.7.7.7.7.7.7.7.7.7.7.7.7.7.7.7.7.7.7.# E T T T T T T T T T 3 3 T T T T T T T T T 1 # o + o 7.7.7.7.7.7.7.7.7.7.7.7.7.7.7.7.",
"7.7.7.7.7.7.7.7.7.7.7.7.7.7.7.7.7.7.7.7.7.* E T T T T T T T T T T T T T T T T T T T T 9 1 ; 3 + 7.7.7.7.7.7.7.7.7.7.7.7.7.7.7.7.",
"7.7.7.7.7.7.7.7.7.7.7.7.7.7.7.7.7.7.7.7.X 2 R T T T T T T T T T T T T T T T T T T T T T T T T % 7.7.7.7.7.7.7.7.7.7.7.7.7.7.7.7.",
"7.7.7.7.7.7.7.7.7.7.7.7.7.7.7.7.7.7.7.7.O R R T T T T T T T T T T T T T T T T T 9 T T T T T R * . 7.7.7.7.7.7.7.7.7.7.7.7.7.7.7.",
"7.7.7.7.7.7.7.7.7.7.7.7.7.7.7.7.7.7.7.7.# R 2 < 1 T T T T T T T T T T T T 3 < : > l T T T T T 1 o 7.7.7.7.7.7.7.7.7.7.7.7.7.7.7.",
"7.7.7.7.7.7.7.7.7.7.7.7.7.7.7.7.7.7.7.. * j z P u q T T T T T T T T T T 3 l I p 0 : 4 T T T T T & . 7.7.7.7.7.7.7.7.7.7.7.7.7.7.",
"7.7.7.7.7.7.7.7.7.7.7.7.7.7.7.7.7.7.7.@ T l ,.<.D i 3 T 9 j T T T T T T j #.6.K N = w T T T T T T @ 7.7.7.7.7.7.7.7.7.7.7.7.7.7.",
"7.7.7.7.7.7.7.7.7.7.7.7.7.7.7.7.7.7.. * 4 b >.:.e Z h R ! ` | } ` W T T c $.5.a C f 1 T T T T T T : X 7.7.7.7.7.7.7.7.7.7.7.7.7.",
"7.7.7.7.7.7.7.7.7.7.7.7.7.7.7.7.7.7.X & 2 p F r b J n } ' / ] ;.1.;.&.W v B t y U f 1 T T 1 ; 1 3 1 @ 7.7.7.7.7.7.7.7.7.7.7.7.7.",
"7.7.7.7.7.7.7.7.7.7.7.7.7.7.7.7.7.7.. $ 1 g A M +.o.O.^ ..X.6 ' 1.1.4.;.( S M Y @.= 3 T T w ; $ @ @ o 7.7.7.7.7.7.7.7.7.7.7.7.7.",
"7.7.7.7.7.7.7.7.7.7.7.7.7.7.7.7.7.7.7.+ ; , g V H [ -.Q 7 8 5 ' 4.1.1.1.;.m G H h 1 9 3 4 3 ; * @ . 7.7.7.7.7.7.7.7.7.7.7.7.7.7.",
"7.7.7.7.7.7.7.7.7.7.7.7.7.7.7.7.7.7.7.. # % 1 3 ` 1.3.-./ 4 } 1.1.4.1.4.2.&.T 2 9 T T 3 ; 2 $ @ + 7.7.7.7.7.7.7.7.7.7.7.7.7.7.7.",
"7.7.7.7.7.7.7.7.7.7.7.7.7.7.7.7.7.7.7.7.. $ : 3 %.2.1.1.} ; &.-.1.1.1.1.1.1.W T R 4 j 1 # % & X   7.7.7.7.7.7.7.7.7.7.7.7.7.7.7.",
"7.7.7.7.7.7.7.7.7.7.7.7.7.7.7.7.7.7.7.7.7.O * : } ;.;.%.R R 2 } 2.4.1.1.1.1.W 3 1 1 : : # o o 7.7.7.7.7.7.7.7.7.7.7.7.7.7.7.7.7.",
"7.7.7.7.7.7.7.7.7.7.7.7.7.7.7.7.7.7.7.7.7.7.o % E *.=.=.=.-.=.-.-.=.=.=.=.&.T ; ; ; * $ O   7.7.7.7.7.7.7.7.7.7.7.7.7.7.7.7.7.7.",
"7.7.7.7.7.7.7.7.7.7.7.7.7.7.7.7.7.7.7.7.7.7.7.. + 3 { %.=.&.=.&.&.&.&.%.%.` * % # + o   7.7.7.7.7.7.7.7.7.7.7.7.7.7.7.7.7.7.7.7.",
"7.7.7.7.7.7.7.7.7.7.7.7.7.7.7.7.7.7.7.7.7.7.7.7.7.. O $ * : : : : ; & % # o .   7.7.7.7.7.7.7.7.7.7.7.7.7.7.7.7.7.7.7.7.7.7.7.7.",
"7.7.7.7.7.7.7.7.7.7.7.7.7.7.7.7.7.7.7.7.7.7.7.7.7.7.7.O % % + 3 E W 3 ; ; & & @ 7.7.7.7.7.7.7.7.7.7.7.7.7.7.7.7.7.7.7.7.7.7.7.7.",
"7.7.7.7.7.7.7.7.7.7.7.7.7.7.7.7.7.7.7.7.7.7.7.7.7.7.& 3 T % T 4.4.4.&.T , 2 l 4 * O 7.7.7.7.7.7.7.7.7.7.7.7.7.7.7.7.7.7.7.7.7.7.",
"7.7.7.7.7.7.7.7.7.7.7.7.7.7.7.7.7.7.7.7.7.7.7.7.7.& T T * @ %.1.1.3.1.W , $ & 3 T : O 7.7.7.7.7.7.7.7.7.7.7.7.7.7.7.7.7.7.7.7.7.",
"7.7.7.7.7.7.7.7.7.7.7.7.7.7.7.7.7.7.7.7.7.7.7.7.$ T T ; o * 1.1.1.1.4.| 4 * O % w T ; 7.7.7.7.7.7.7.7.7.7.7.7.7.7.7.7.7.7.7.7.7.",
"7.7.7.7.7.7.7.7.7.7.7.7.7.7.7.7.7.7.7.7.7.7.7.7.1 T 3 #   R 4.1.4.1.4.*.R T $ o ; T T # 7.7.7.7.7.7.7.7.7.7.7.7.7.7.7.7.7.7.7.7.",
"7.7.7.7.7.7.7.7.7.7.7.7.7.7.7.7.7.7.7.7.7.7.7.7.) ) ; X o { 4.1.1.1.1.-.R : $ . $ T ` ; 7.7.7.7.7.7.7.7.7.7.7.7.7.7.7.7.7.7.7.7.",
"7.7.7.7.7.7.7.7.7.7.7.7.7.7.7.7.7.7.7.7.7.7.7.7.* ` & 7.+ %.4.1.4.1.4.-.E 3 * @ # E | $ 7.7.7.7.7.7.7.7.7.7.7.7.7.7.7.7.7.7.7.7.",
"7.7.7.7.7.7.7.7.7.7.7.7.7.7.7.7.7.7.7.7.7.7.7.7.7.o 7.7.@ &.4.1.1.1.1.1.W 2 $ @ O @ # ; % 7.7.7.7.7.7.7.7.7.7.7.7.7.7.7.7.7.7.7.",
"7.7.7.7.7.7.7.7.7.7.7.7.7.7.7.7.7.7.7.7.7.7.7.7.7.7.7.7.@ | 4.1.1.1.1.-.E 3 & X 7.7.o : 1 @ + O 7.7.7.7.7.7.7.7.7.7.7.7.7.7.7.7.",
"7.7.7.7.7.7.7.7.7.7.7.7.7.7.7.7.7.7.7.7.7.7.7.7.7.7.7.7.o E 1.4.4.1.3.| T 1 & . 7.7.7.$ ; # # @ X 7.7.7.7.7.7.7.7.7.7.7.7.7.7.7.",
"7.7.7.7.7.7.7.7.7.7.7.7.7.7.7.7.7.7.7.7.7.7.7.7.7.7.7.7.7.$ ) &.-.-.| R 3 ; @ 7.7.7.7.7.@ @ @ + X 7.7.7.7.7.7.7.7.7.7.7.7.7.7.7.",
"7.7.7.7.7.7.7.7.7.7.7.7.7.7.7.7.7.7.7.7.7.7.7.7.7.7.7.7.7.+ % 1 T 3 : ; T 3 @ 7.7.7.7.7.. O O o 7.7.7.7.7.7.7.7.7.7.7.7.7.7.7.7.",
"7.7.7.7.7.7.7.7.7.7.7.7.7.7.7.7.7.7.7.7.7.7.7.7.7.7.7.7.@ 3 # # % * $ * T E : 7.7.7.7.7.7.7.7.7.7.7.7.7.7.7.7.7.7.7.7.7.7.7.7.7.",
"7.7.7.7.7.7.7.7.7.7.7.7.7.7.7.7.7.7.7.7.7.7.7.7.7.7.7.7.* W T ; + . X : T R R + 7.7.7.7.7.7.7.7.7.7.7.7.7.7.7.7.7.7.7.7.7.7.7.7.",
"7.7.7.7.7.7.7.7.7.7.7.7.7.7.7.7.7.7.7.7.7.7.7.7.7.7.7.7.1 E T T $ 7.o : T R E $ 7.7.7.7.7.7.7.7.7.7.7.7.7.7.7.7.7.7.7.7.7.7.7.7.",
"7.7.7.7.7.7.7.7.7.7.7.7.7.7.7.7.7.7.7.7.7.7.7.7.7.7.7.+ R E T T $ 7.o : T R W ; 7.7.7.7.7.7.7.7.7.7.7.7.7.7.7.7.7.7.7.7.7.7.7.7.",
"7.7.7.7.7.7.7.7.7.7.7.7.7.7.7.7.7.7.7.7.7.7.7.7.7.7.7.# E R T T $ 7.o ; T T W 1 7.7.7.7.7.7.7.7.7.7.7.7.7.7.7.7.7.7.7.7.7.7.7.7.",
"7.7.7.7.7.7.7.7.7.7.7.7.7.7.7.7.7.7.7.7.7.7.7.7.7.7.7.% W R T 4 @ 7.7.* T T E T O 7.7.7.7.7.7.7.7.7.7.7.7.7.7.7.7.7.7.7.7.7.7.7.",
"7.7.7.7.7.7.7.7.7.7.7.7.7.7.7.7.7.7.7.7.7.7.7.7.7.7.7.; E R 9 > + 7.7.% 3 T R R @ 7.7.7.7.7.7.7.7.7.7.7.7.7.7.7.7.7.7.7.7.7.7.7.",
"7.7.7.7.7.7.7.7.7.7.7.7.7.7.7.7.7.7.7.7.7.7.7.7.7.7.7.3 ` R j : O 7.7.% T R W ` # 7.7.7.7.7.7.7.7.7.7.7.7.7.7.7.7.7.7.7.7.7.7.7.",
"7.7.7.7.7.7.7.7.7.7.7.7.7.7.7.7.7.7.7.7.7.7.7.7.7.7.7.% ` | } 3 7.7.7.$ W | } < 7.7.7.7.7.7.7.7.7.7.7.7.7.7.7.7.7.7.7.7.7.7.7.7.",
"7.7.7.7.7.7.7.7.7.7.7.7.7.7.7.7.7.7.7.7.7.7.7.7.7.7.7.7.+ * & O 7.7.7.7.+ % @ 7.7.7.7.7.7.7.7.7.7.7.7.7.7.7.7.7.7.7.7.7.7.7.7.7.",
"7.7.7.7.7.7.7.7.7.7.7.7.7.7.7.7.7.7.7.7.7.7.7.7.7.7.7.7.7.7.7.7.7.7.7.7.7.7.7.7.7.7.7.7.7.7.7.7.7.7.7.7.7.7.7.7.7.7.7.7.7.7.7.7.",
"7.7.7.7.7.7.7.7.7.7.7.7.7.7.7.7.7.7.7.7.7.7.7.7.7.7.7.7.7.7.7.7.7.7.7.7.7.7.7.7.7.7.7.7.7.7.7.7.7.7.7.7.7.7.7.7.7.7.7.7.7.7.7.7."
};
