/* XPM */
static char *Idle__2__left[] = {
/* columns rows colors chars-per-pixel */
"64 64 118 2 ",
"   c #050505",
".  c #0C0C0C",
"X  c #141414",
"o  c #1C1C1C",
"O  c #232323",
"+  c #2D2D2D",
"@  c #343434",
"#  c #3B3B3B",
"$  c #444444",
"%  c #4C4C4C",
"&  c #545454",
"*  c #5B5B5B",
"=  c #5E6F73",
"-  c #55767F",
";  c #636363",
":  c #626C6E",
">  c #6C6C6C",
",  c #6E6F70",
"<  c #6D7577",
"1  c #65787D",
"2  c #747474",
"3  c #797777",
"4  c #7A7877",
"5  c #757A7C",
"6  c #7C7C7C",
"7  c #995F5F",
"8  c #807F7F",
"9  c #A87C7C",
"0  c #BB7E7E",
"q  c #E07070",
"w  c #82807F",
"e  c #4B7E8B",
"r  c #5E7F87",
"t  c #637A80",
"y  c #6B7D81",
"u  c #3E8A9C",
"i  c #0289AC",
"p  c #1990AE",
"a  c #1E9DBE",
"s  c #218EA9",
"d  c #3B95AB",
"f  c #219EBD",
"g  c #2A9EBB",
"h  c #3FA4BE",
"j  c #4D828F",
"k  c #448494",
"l  c #488C9D",
"z  c #6D8287",
"x  c #6D8489",
"c  c #708185",
"v  c #63919D",
"b  c #70929B",
"n  c #4E92A3",
"m  c #5495A5",
"M  c #56A3B6",
"N  c #5EAABD",
"B  c #72A8B6",
"V  c #00A3CD",
"C  c #03AAD5",
"Z  c #0EA9D0",
"A  c #12B2DA",
"S  c #19B3DA",
"D  c #24A5C5",
"F  c #3FB1CE",
"G  c #0DB6E0",
"H  c #09BAE6",
"J  c #26BBE0",
"K  c #32BDE0",
"L  c #4FADC4",
"P  c #62BAD0",
"I  c #48C1DF",
"U  c #76C4D8",
"Y  c #71CBE1",
"T  c #838383",
"R  c #8B8B8B",
"E  c #949494",
"W  c #999797",
"Q  c #9B9B9B",
"!  c #B48888",
"~  c #B09292",
"^  c #B49C9C",
"/  c #879CA2",
"(  c #9FA0A0",
")  c #93B6BF",
"_  c #A3A3A3",
"`  c #ABABAB",
"'  c #B4A3A3",
"]  c #B1AFAF",
"[  c #B5B4B4",
"{  c #BDBDBD",
"}  c #CB9E9E",
"|  c #D89797",
" . c #F79696",
".. c #FF9393",
"X. c #C4BBBB",
"o. c #AEC0C5",
"O. c #ABD0DA",
"+. c #8CD9EB",
"@. c #97D3E3",
"#. c #B8DBE4",
"$. c #9CE3F4",
"%. c #C4C4C4",
"&. c #C6C8C8",
"*. c #CCCCCC",
"=. c #D3D3D3",
"-. c #D8D6D6",
";. c #DCDCDC",
":. c #DFE1E1",
">. c #C4EEF9",
",. c #DFEEF1",
"<. c #C4F0FB",
"1. c #E6E6E6",
"2. c #E8E7E7",
"3. c #E7E8E8",
"4. c #E8E8E8",
"5. c #E7FAFF",
"6. c #F6F9FA",
"7. c None",
/* pixels */
"7.7.7.7.7.7.7.7.7.7.7.7.7.7.7.7.7.7.7.7.7.7.7.7.7.7.7.7.7.7.7.7.7.7.7.7.7.7.7.7.7.7.7.7.7.7.7.7.7.7.7.7.7.7.7.7.7.7.7.7.7.7.7.7.",
"7.7.7.7.7.7.7.7.7.7.7.7.7.7.7.7.7.7.7.7.7.7.7.7.7.7.7.7.7.7.7.7.7.7.7.7.7.7.7.7.7.7.7.7.7.7.7.7.7.7.7.7.7.7.7.7.7.7.7.7.7.7.7.7.",
"7.7.7.7.7.7.7.7.7.7.7.7.7.7.7.7.7.7.7.7.7.7.7.7.7.7.7.7.7.7.7.7.7.7.7.7.7.7.7.7.7.7.7.7.7.7.7.7.7.7.7.7.7.7.7.7.7.7.7.7.7.7.7.7.",
"7.7.7.7.7.7.7.7.7.7.7.7.7.7.7.7.7.7.7.7.7.7.7.7.7.7.7.7.7.7.7.7.7.7.7.7.7.7.7.7.7.7.7.7.7.7.7.7.7.7.7.7.7.7.7.7.7.7.7.7.7.7.7.7.",
"7.7.7.7.7.7.7.7.7.7.7.7.7.7.7.7.7.7.7.7.7.7.7.7.7.7.7.7.7.7.7.7.7.7.7.7.7.7.7.7.7.7.7.  . . 7.7.7.7.7.7.7.7.7.7.7.7.7.7.7.7.7.7.",
"7.7.7.7.7.7.7.7.7.7.7.7.7.7.7.7.7.7.7.7.7.7.7.  7.7.7.7.7.7.7.7.7.7.7.7.7.7.7.7.7.  O @ # +   7.7.7.7.7.7.7.7.7.7.7.7.7.7.7.7.7.",
"7.7.7.7.7.7.7.7.7.7.7.7.7.7.7.7.7.7.7.7.7.7.  + + o   7.7.7.7.7.7.7.7.7.7.7.7.7.. @ # # @ @ . 7.7.7.7.7.7.7.7.7.7.7.7.7.7.7.7.7.",
"7.7.7.7.7.7.7.7.7.7.7.7.7.7.7.7.7.7.7.7.7.7.. $ % % % O 7.7.7.7.7.7.7.7.7.7.7.o & % $ # @ @ o 7.7.7.7.7.7.7.7.7.7.7.7.7.7.7.7.7.",
"7.7.7.7.7.7.7.7.7.7.7.7.7.7.7.7.7.7.7.7.7.7.O % @ # * 5 + 7.7.7.7.7.7.7.7.7.. * Q ( { T @ @ o   7.7.7.7.7.7.7.7.7.7.7.7.7.7.7.7.",
"7.7.7.7.7.7.7.7.7.7.7.7.7.7.7.7.7.7.7.7.7.7.; { T $ & 4 T O 7.7.7.7.7.7.7.7.$ ` &.*.=.%.$ @ O   7.7.7.7.7.7.7.7.7.7.7.7.7.7.7.7.",
"7.7.7.7.7.7.7.7.7.7.7.7.7.7.7.7.7.7.7.7.7.7.4 :.1.W 3 T E > X 7.7.7.7.7.7.7.R *.*.;.1.;.> + O   7.7.7.7.7.7.7.7.7.7.7.7.7.7.7.7.",
"7.7.7.7.7.7.7.7.7.7.7.7.7.7.7.7.7.7.7.7.7.7.R 1.1.1.` T R E $ 7.7.7.7.7.7.> { *.;.1.1.2.R @ O . 7.7.7.7.7.7.7.7.7.7.7.7.7.7.7.7.",
"7.7.7.7.7.7.7.7.7.7.7.7.7.7.7.7.7.7.7.7.7.7.E 1.1.1.;.E T R * . 7.      7.E *.-.1.1.1.2.` * @ o 7.7.7.7.7.7.7.7.7.7.7.7.7.7.7.7.",
"7.7.7.7.7.7.7.7.7.7.7.7.7.7.7.7.7.7.7.7.7.X _ 1.1.1.2.[ & + + o @ ; # O + _ =.1.2.1.3.2.X.c & + 7.7.7.7.7.7.7.7.7.7.7.7.7.7.7.7.",
"7.7.7.7.7.7.7.7.7.7.7.7.7.7.7.7.7.7.7.7.7.o ` 1.3.1.[ $ o $ 2 # & R $ @ * { ;.1.1.1.1.2.&.T > + 7.7.7.7.7.7.7.7.7.7.7.7.7.7.7.7.",
"7.7.7.7.7.7.7.7.7.7.7.7.7.7.7.7.7.7.7.7.7.o ` 1.1.E @ & @ $ 2 # & 4 $ @ > { ;.1.1.1.2.2.%.w > + 7.7.7.7.7.7.7.7.7.7.7.7.7.7.7.7.",
"7.7.7.7.7.7.7.7.7.7.7.7.7.7.7.7.7.7.7.7.7.X _ 2.W O # T # $ 2 $ > 2 # $ 3 _ :.1.1.1.1.1.%.6 ; + 7.7.7.7.7.7.7.7.7.7.7.7.7.7.7.7.",
"7.7.7.7.7.7.7.7.7.7.7.7.7.7.7.7.7.7.7.7.7.7.Q [ $ % # > % $ 4 $ , > @ * ; 3 ;.1.1.1.1.1.[ 6 ; o 7.7.7.7.7.7.7.7.7.7.7.7.7.7.7.7.",
"7.7.7.7.7.7.7.7.7.7.7.7.7.7.7.7.7.7.7.7.7.7.2 & 2 T # ; * # 4 & 6 ; # , % & &.2.1.1.1.1.` 2 ; o 7.7.7.7.7.7.7.7.7.7.7.7.7.7.7.7.",
"7.7.7.7.7.7.7.7.7.7.7.7.7.7.7.7.7.7.7.7.7.7.o & E R & & > $ 4 ; 8 * % > $ 2 _ 1.1.2.1.1.Q 2 * . 7.7.7.7.7.7.7.7.7.7.7.7.7.7.7.7.",
"7.7.7.7.7.7.7.7.7.7.7.7.7.7.7.7.7.7.7.7.7.7.o R E T 2 % 2 % 6 2 T & ; * > T T X.1.2.2.=.T > %   7.7.7.7.7.7.7.7.7.7.7.7.7.7.7.7.",
"7.7.7.7.7.7.7.7.7.7.7.7.7.7.7.7.7.7.7.7.7.7.& E T T T ; 2 * 6 T 8 & 2 > w T T R [ =.=._ 3 > @ 7.7.7.7.7.7.7.7.7.7.7.7.7.7.7.7.7.",
"7.7.7.7.7.7.7.7.7.7.7.7.7.7.7.7.7.7.7.7.7.X 4 R T T T 6 2 > 6 T 4 ; w T T T T c T R T T 2 * X 7.7.7.7.7.7.7.7.7.7.7.7.7.7.7.7.7.",
"7.7.7.7.7.7.7.7.7.7.7.7.7.7.7.7.7.7.7.7.7.@ E R T T T T 8 6 8 T 4 2 T T T T T T T T T 2 % O o X 7.7.7.7.7.7.7.7.7.7.7.7.7.7.7.7.",
"7.7.7.7.7.7.7.7.7.7.7.7.7.7.7.7.7.7.7.7.7.* E T T T T T T T T T T c T T T T T T T T T 6 & # > O 7.7.7.7.7.7.7.7.7.7.7.7.7.7.7.7.",
"7.7.7.7.7.7.7.7.7.7.7.7.7.7.7.7.7.7.7.7.. 2 R T T T T T T T T T T T T T T T T T T T T T T T T # 7.7.7.7.7.7.7.7.7.7.7.7.7.7.7.7.",
"7.7.7.7.7.7.7.7.7.7.7.7.7.7.7.7.7.7.7.7.O R R T T T T T T T T T T T T T T w T T T T T T T T T & 7.7.7.7.7.7.7.7.7.7.7.7.7.7.7.7.",
"7.7.7.7.7.7.7.7.7.7.7.7.7.7.7.7.7.7.7.7.@ E 6 2 6 T T T T T T T T T T T T 8 3 2 3 T T T T T T 2 o 7.7.7.7.7.7.7.7.7.7.7.7.7.7.7.",
"7.7.7.7.7.7.7.7.7.7.7.7.7.7.7.7.7.7.7.7.& T t l j 5 T T T T T T T T T T 8 5 n u = , T T T T T T $ 7.7.7.7.7.7.7.7.7.7.7.7.7.7.7.",
"7.7.7.7.7.7.7.7.7.7.7.7.7.7.7.7.7.7.7.O 8 x #.$.A d 8 T T T T T T T T T c O.<.J f : 4 T T T T T 3 O 7.7.7.7.7.7.7.7.7.7.7.7.7.7.",
"7.7.7.7.7.7.7.7.7.7.7.7.7.7.7.7.7.7.7.& T M 5.,.a Z z T R W ( Q E R T w m >.6.h C e 2 T T T T T R * . 7.7.7.7.7.7.7.7.7.7.7.7.7.",
"7.7.7.7.7.7.7.7.7.7.7.7.7.7.7.7.7.7.X ; 2 g P N p A b ` ] [ *.:.:.*.[ R d F N s S k , T T 2 2 6 T 2 + 7.7.7.7.7.7.7.7.7.7.7.7.7.",
"7.7.7.7.7.7.7.7.7.7.7.7.7.7.7.7.7.7.X $ 2 d V i @.Y o.' } | 0 X.2.2.1.=.B C i U +.- 3 T T 8 * $ $ % O 7.7.7.7.7.7.7.7.7.7.7.7.7.",
"7.7.7.7.7.7.7.7.7.7.7.7.7.7.7.7.7.7.7.# , 1 D H I ) -.!  ...q ^ 2.1.2.2.=.L G K v , c 8 T 4 2 & + . 7.7.7.7.7.7.7.7.7.7.7.7.7.7.",
"7.7.7.7.7.7.7.7.7.7.7.7.7.7.7.7.7.7.7.X & & < r / ;.3.X.9 7 ~ -.2.1.1.1.2.%.x 1 3 T T 2 > 4 $ # +   7.7.7.7.7.7.7.7.7.7.7.7.7.7.",
"7.7.7.7.7.7.7.7.7.7.7.7.7.7.7.7.7.7.7.7.o $ 2 8 %.3.1.3.&.2 :.1.1.1.1.1.1.;.Q T T T T 2 # & * o   7.7.7.7.7.7.7.7.7.7.7.7.7.7.7.",
"7.7.7.7.7.7.7.7.7.7.7.7.7.7.7.7.7.7.7.7.  + ; , { 1.1.&.w > 3 [ 1.2.1.1.1.1._ 6 6 2 2 > # O +   7.7.7.7.7.7.7.7.7.7.7.7.7.7.7.7.",
"7.7.7.7.7.7.7.7.7.7.7.7.7.7.7.7.7.7.7.7.7.. @ * _ =.-.=.&.-.X.-.:.;.;.;.-.=.R > > ; ; * +   7.7.7.7.7.7.7.7.7.7.7.7.7.7.7.7.7.7.",
"7.7.7.7.7.7.7.7.7.7.7.7.7.7.7.7.7.7.7.7.7.7.7.o % ` *.*.=.*.=.=.*.*.=.*.*.%.< & & # + X 7.7.7.7.7.7.7.7.7.7.7.7.7.7.7.7.7.7.7.7.",
"7.7.7.7.7.7.7.7.7.7.7.7.7.7.7.7.7.7.7.7.7.7.7.7.  O & 6 E Q ( Q Q R w , * # o X   7.7.7.7.7.7.7.7.7.7.7.7.7.7.7.7.7.7.7.7.7.7.7.",
"7.7.7.7.7.7.7.7.7.7.7.7.7.7.7.7.7.7.7.7.7.7.7.7.7.7.7.. + @ O & ; > & & % @ + 7.7.7.7.7.7.7.7.7.7.7.7.7.7.7.7.7.7.7.7.7.7.7.7.7.",
"7.7.7.7.7.7.7.7.7.7.7.7.7.7.7.7.7.7.7.7.7.7.7.7.7.7.@ > T & > :.2.2.%.w 2 6 c > # 7.7.7.7.7.7.7.7.7.7.7.7.7.7.7.7.7.7.7.7.7.7.7.",
"7.7.7.7.7.7.7.7.7.7.7.7.7.7.7.7.7.7.7.7.7.7.7.7.7.@ 8 T , # { 2.1.2.:.E ; % ; T T % 7.7.7.7.7.7.7.7.7.7.7.7.7.7.7.7.7.7.7.7.7.7.",
"7.7.7.7.7.7.7.7.7.7.7.7.7.7.7.7.7.7.7.7.7.7.7.7.+ 4 T 3 + % :.1.1.1.2.[ 4 & + ; T T $ 7.7.7.7.7.7.7.7.7.7.7.7.7.7.7.7.7.7.7.7.7.",
"7.7.7.7.7.7.7.7.7.7.7.7.7.7.7.7.7.7.7.7.7.7.7.7.& T 8 %   T 2.2.1.1.1.*.T T # + 3 T 3 o 7.7.7.7.7.7.7.7.7.7.7.7.7.7.7.7.7.7.7.7.",
"7.7.7.7.7.7.7.7.7.7.7.7.7.7.7.7.7.7.7.7.7.7.7.7.E E , O X ` 2.1.2.1.1.;.R 2 $ . & T E & 7.7.7.7.7.7.7.7.7.7.7.7.7.7.7.7.7.7.7.7.",
"7.7.7.7.7.7.7.7.7.7.7.7.7.7.7.7.7.7.7.7.7.7.7.7.8 &.> 7.+ o.2.1.1.1.2.;.E 4 & O # E &.% 7.7.7.7.7.7.7.7.7.7.7.7.7.7.7.7.7.7.7.7.",
"7.7.7.7.7.7.7.7.7.7.7.7.7.7.7.7.7.7.7.7.7.7.7.7.7.% + 7.@ *.2.1.1.1.1.1.Q 2 % # @ > * & # 7.7.7.7.7.7.7.7.7.7.7.7.7.7.7.7.7.7.7.",
"7.7.7.7.7.7.7.7.7.7.7.7.7.7.7.7.7.7.7.7.7.7.7.7.7.7.7.7.@ %.1.1.1.1.1.;.E 6 % o 7.7.o 2 > O o o 7.7.7.7.7.7.7.7.7.7.7.7.7.7.7.7.",
"7.7.7.7.7.7.7.7.7.7.7.7.7.7.7.7.7.7.7.7.7.7.7.7.7.7.7.7.O _ 1.3.1.3.2.&.R 4 & . 7.7.7.% > $ @ @ X 7.7.7.7.7.7.7.7.7.7.7.7.7.7.7.",
"7.7.7.7.7.7.7.7.7.7.7.7.7.7.7.7.7.7.7.7.7.7.7.7.7.7.7.7.7.& [ ;.1.1.*.E 6 > # 7.7.7.7.O % @ @ @ o 7.7.7.7.7.7.7.7.7.7.7.7.7.7.7.",
"7.7.7.7.7.7.7.7.7.7.7.7.7.7.7.7.7.7.7.7.7.7.7.7.7.7.7.7.7.+ * T E E 2 > T 6 @ 7.7.7.7.7.o + + O 7.7.7.7.7.7.7.7.7.7.7.7.7.7.7.7.",
"7.7.7.7.7.7.7.7.7.7.7.7.7.7.7.7.7.7.7.7.7.7.7.7.7.7.7.7.@ , # $ * ; % * T E > 7.7.7.7.7.7.. X 7.7.7.7.7.7.7.7.7.7.7.7.7.7.7.7.7.",
"7.7.7.7.7.7.7.7.7.7.7.7.7.7.7.7.7.7.7.7.7.7.7.7.7.7.7.7.* Q 4 % O o o > T E R + 7.7.7.7.7.7.7.7.7.7.7.7.7.7.7.7.7.7.7.7.7.7.7.7.",
"7.7.7.7.7.7.7.7.7.7.7.7.7.7.7.7.7.7.7.7.7.7.7.7.7.7.7.7.3 E T T $ 7.o > T R Q $ 7.7.7.7.7.7.7.7.7.7.7.7.7.7.7.7.7.7.7.7.7.7.7.7.",
"7.7.7.7.7.7.7.7.7.7.7.7.7.7.7.7.7.7.7.7.7.7.7.7.7.7.7.+ R E T T $ 7.o > T T Q ; 7.7.7.7.7.7.7.7.7.7.7.7.7.7.7.7.7.7.7.7.7.7.7.7.",
"7.7.7.7.7.7.7.7.7.7.7.7.7.7.7.7.7.7.7.7.7.7.7.7.7.7.7.$ W R w 8 # 7.o ; T R E 2 7.7.7.7.7.7.7.7.7.7.7.7.7.7.7.7.7.7.7.7.7.7.7.7.",
"7.7.7.7.7.7.7.7.7.7.7.7.7.7.7.7.7.7.7.7.7.7.7.7.7.7.7.% W R T 4 @ 7.7.* T T E T O 7.7.7.7.7.7.7.7.7.7.7.7.7.7.7.7.7.7.7.7.7.7.7.",
"7.7.7.7.7.7.7.7.7.7.7.7.7.7.7.7.7.7.7.7.7.7.7.7.7.7.7.; W T T 2 + 7.7.% 6 T R R @ 7.7.7.7.7.7.7.7.7.7.7.7.7.7.7.7.7.7.7.7.7.7.7.",
"7.7.7.7.7.7.7.7.7.7.7.7.7.7.7.7.7.7.7.7.7.7.7.7.7.7.7.6 ` R c > O 7.7.% T R Q ` # 7.7.7.7.7.7.7.7.7.7.7.7.7.7.7.7.7.7.7.7.7.7.7.",
"7.7.7.7.7.7.7.7.7.7.7.7.7.7.7.7.7.7.7.7.7.7.7.7.7.7.7.$ ` { [ 6 7.7.7.$ _ { [ > 7.7.7.7.7.7.7.7.7.7.7.7.7.7.7.7.7.7.7.7.7.7.7.7.",
"7.7.7.7.7.7.7.7.7.7.7.7.7.7.7.7.7.7.7.7.7.7.7.7.7.7.7.7.+ * & O 7.7.7.7.+ % @ 7.7.7.7.7.7.7.7.7.7.7.7.7.7.7.7.7.7.7.7.7.7.7.7.7.",
"7.7.7.7.7.7.7.7.7.7.7.7.7.7.7.7.7.7.7.7.7.7.7.7.7.7.7.7.7.7.7.7.7.7.7.7.7.7.7.7.7.7.7.7.7.7.7.7.7.7.7.7.7.7.7.7.7.7.7.7.7.7.7.7.",
"7.7.7.7.7.7.7.7.7.7.7.7.7.7.7.7.7.7.7.7.7.7.7.7.7.7.7.7.7.7.7.7.7.7.7.7.7.7.7.7.7.7.7.7.7.7.7.7.7.7.7.7.7.7.7.7.7.7.7.7.7.7.7.7."
};
