/* XPM */
static char *Idle__3__left[] = {
/* columns rows colors chars-per-pixel */
"64 64 117 2 ",
"   c #050505",
".  c #0B0B0B",
"X  c #131313",
"o  c #1B1B1B",
"O  c #232323",
"+  c #2C2C2C",
"@  c #343434",
"#  c #3C3C3C",
"$  c #444444",
"%  c #4B4B4B",
"&  c #535353",
"*  c #5B5B5B",
"=  c #5A767E",
"-  c #636363",
";  c #676A6B",
":  c #6B6C6C",
">  c #6A7173",
",  c #6B7679",
"<  c #747474",
"1  c #787676",
"2  c #7A7877",
"3  c #74797A",
"4  c #7C7B7B",
"5  c #807E7D",
"6  c #BF6464",
"7  c #BA6E6E",
"8  c #B17575",
"9  c #E37777",
"0  c #80807F",
"q  c #527983",
"w  c #587E87",
"e  c #737E80",
"r  c #0D819E",
"t  c #0180A1",
"y  c #0C8BAB",
"u  c #1B8CA8",
"i  c #0899BE",
"p  c #3590A6",
"a  c #3C94AA",
"s  c #3D98AF",
"d  c #2B9CB9",
"f  c #36A3BF",
"g  c #53828E",
"h  c #468392",
"j  c #558490",
"k  c #538A98",
"l  c #758083",
"z  c #6A8990",
"x  c #5D94A1",
"c  c #5E9BAA",
"v  c #659EAD",
"b  c #56A0B2",
"n  c #71A7B4",
"m  c #02A4CD",
"M  c #1AA5C7",
"N  c #1AA8CC",
"B  c #06ABD4",
"V  c #0AABD4",
"C  c #03B3DF",
"Z  c #0DB3DC",
"A  c #1CB5DC",
"S  c #3CABC7",
"D  c #2DB0D1",
"F  c #00B7E4",
"G  c #6DB7CA",
"H  c #76BED0",
"J  c #6EC5DB",
"K  c #4EC4E2",
"L  c #45CDEF",
"P  c #65CAE4",
"I  c #75D5ED",
"U  c #70D7F1",
"Y  c #838383",
"T  c #8B8B8B",
"R  c #928F8E",
"E  c #949494",
"W  c #9B9B9B",
"Q  c #AF8E8E",
"!  c #B68B8B",
"~  c #BC9090",
"^  c #B49A9A",
"/  c #9DB4BA",
"(  c #A3A3A3",
")  c #ACACAC",
"_  c #B7A1A1",
"`  c #B8AFAF",
"'  c #A9B6B9",
"]  c #B4B4B4",
"[  c #BCBCBC",
"{  c #FFA2A2",
"}  c #FBAAAA",
"|  c #8EB9C4",
" . c #8ABCC8",
".. c #94BAC4",
"X. c #94C6D3",
"o. c #97C8D4",
"O. c #B9C8CC",
"+. c #95DEF0",
"@. c #A9DBE7",
"#. c #C4C4C4",
"$. c #CCC6C6",
"%. c #C4CACB",
"&. c #CCCCCC",
"*. c #D1CECE",
"=. c #CCCFD0",
"-. c #CFD0D0",
";. c #D2D2D2",
":. c #DCDCDC",
">. c #DAEEF3",
",. c #D0F1F9",
"<. c #E6E6E6",
"1. c #E8E7E7",
"2. c #E7E8E8",
"3. c #E8E8E8",
"4. c #EDFBFF",
"5. c #F6FAFB",
"6. c None",
/* pixels */
"6.6.6.6.6.6.6.6.6.6.6.6.6.6.6.6.6.6.6.6.6.6.6.6.6.6.6.6.6.6.6.6.6.6.6.6.6.6.6.6.6.6.6.6.6.6.6.6.6.6.6.6.6.6.6.6.6.6.6.6.6.6.6.6.",
"6.6.6.6.6.6.6.6.6.6.6.6.6.6.6.6.6.6.6.6.6.6.6.6.6.6.6.6.6.6.6.6.6.6.6.6.6.6.6.6.6.6.6.6.6.6.6.6.6.6.6.6.6.6.6.6.6.6.6.6.6.6.6.6.",
"6.6.6.6.6.6.6.6.6.6.6.6.6.6.6.6.6.6.6.6.6.6.6.6.6.6.6.6.6.6.6.6.6.6.6.6.6.6.6.6.6.6.6.6.6.6.6.6.6.6.6.6.6.6.6.6.6.6.6.6.6.6.6.6.",
"6.6.6.6.6.6.6.6.6.6.6.6.6.6.6.6.6.6.6.6.6.6.6.6.6.6.6.6.6.6.6.6.6.6.6.6.6.6.6.6.6.6.6.6.6.6.6.6.6.6.6.6.6.6.6.6.6.6.6.6.6.6.6.6.",
"6.6.6.6.6.6.6.6.6.6.6.6.6.6.6.6.6.6.6.6.6.6.6.6.6.6.6.6.6.6.6.6.6.6.6.6.6.6.6.6.6.6.6.6.6.6.6.6.6.6.6.6.6.6.6.6.6.6.6.6.6.6.6.6.",
"6.6.6.6.6.6.6.6.6.6.6.6.6.6.6.6.6.6.6.6.6.6.6.6.6.6.6.6.6.6.6.6.6.6.6.6.6.6.6.6.6.6.. O @ O   6.6.6.6.6.6.6.6.6.6.6.6.6.6.6.6.6.",
"6.6.6.6.6.6.6.6.6.6.6.6.6.6.6.6.6.6.6.6.6.6.. o X . 6.6.6.6.6.6.6.6.6.6.6.6.6.6.  O # # # @ X 6.6.6.6.6.6.6.6.6.6.6.6.6.6.6.6.6.",
"6.6.6.6.6.6.6.6.6.6.6.6.6.6.6.6.6.6.6.6.6.6.o $ % # +   6.6.6.6.6.6.6.6.6.6.6.. @ $ # @ @ @ o 6.6.6.6.6.6.6.6.6.6.6.6.6.6.6.6.6.",
"6.6.6.6.6.6.6.6.6.6.6.6.6.6.6.6.6.6.6.6.6.6.O # $ $ ; % . 6.6.6.6.6.6.6.6.6.6.$ T 4 E < @ @ o   6.6.6.6.6.6.6.6.6.6.6.6.6.6.6.6.",
"6.6.6.6.6.6.6.6.6.6.6.6.6.6.6.6.6.6.6.6.6.6.- T $ # & T * . 6.6.6.6.6.6.6.6.+ E [ &.;.] $ @ O   6.6.6.6.6.6.6.6.6.6.6.6.6.6.6.6.",
"6.6.6.6.6.6.6.6.6.6.6.6.6.6.6.6.6.6.6.6.6.6.T :.[ ; < Y E $ 6.6.6.6.6.6.6.6.< #.&.;.:.:.- @ O . 6.6.6.6.6.6.6.6.6.6.6.6.6.6.6.6.",
"6.6.6.6.6.6.6.6.6.6.6.6.6.6.6.6.6.6.6.6.6.X ( <.1.&.T Y T T O 6.6.6.6.6.6.6.] &.;.<.<.3.Y @ O . 6.6.6.6.6.6.6.6.6.6.6.6.6.6.6.6.",
"6.6.6.6.6.6.6.6.6.6.6.6.6.6.6.6.6.6.6.6.6.o ) <.1.1.#.Y Y E & 6.6.6.6.6.6.E &.;.<.3.<.3.) % + X 6.6.6.6.6.6.6.6.6.6.6.6.6.6.6.6.",
"6.6.6.6.6.6.6.6.6.6.6.6.6.6.6.6.6.6.6.6.6.O ] <.1.<.<.) ; % + X O $ O X o W &.<.3.<.<.3.[ < % O 6.6.6.6.6.6.6.6.6.6.6.6.6.6.6.6.",
"6.6.6.6.6.6.6.6.6.6.6.6.6.6.6.6.6.6.6.6.6.+ [ <.1.3.&.- o @ - @ & T $ @ * [ :.<.<.<.2.3.#.Y - @ 6.6.6.6.6.6.6.6.6.6.6.6.6.6.6.6.",
"6.6.6.6.6.6.6.6.6.6.6.6.6.6.6.6.6.6.6.6.6.+ [ <.3.] % @ @ % 2 @ * 4 # @ < [ :.<.<.<.<.3.#.Y : + 6.6.6.6.6.6.6.6.6.6.6.6.6.6.6.6.",
"6.6.6.6.6.6.6.6.6.6.6.6.6.6.6.6.6.6.6.6.6.O ] 3.] @ $ 4 @ % < # ; < @ $ < ) <.<.<.<.<.1.[ 5 : O 6.6.6.6.6.6.6.6.6.6.6.6.6.6.6.6.",
"6.6.6.6.6.6.6.6.6.6.6.6.6.6.6.6.6.6.6.6.6.o ) &.$ @ # 2 $ $ < $ 2 ; @ * - T :.<.<.<.<.<.] 4 - O 6.6.6.6.6.6.6.6.6.6.6.6.6.6.6.6.",
"6.6.6.6.6.6.6.6.6.6.6.6.6.6.6.6.6.6.6.6.6.6.E - - < @ ; % $ 4 % 4 * @ : % * ;.<.<.<.<.<.) 2 * o 6.6.6.6.6.6.6.6.6.6.6.6.6.6.6.6.",
"6.6.6.6.6.6.6.6.6.6.6.6.6.6.6.6.6.6.6.6.6.6.$ % E Y % * - $ 4 * Y * % < $ : ] <.1.<.<.<.W < * X 6.6.6.6.6.6.6.6.6.6.6.6.6.6.6.6.",
"6.6.6.6.6.6.6.6.6.6.6.6.6.6.6.6.6.6.6.6.6.6.X 4 T Y ; % : % 5 : 5 % - * - Y T &.3.<.<.;.Y : %   6.6.6.6.6.6.6.6.6.6.6.6.6.6.6.6.",
"6.6.6.6.6.6.6.6.6.6.6.6.6.6.6.6.6.6.6.6.6.6.$ W T Y 5 * < * 5 0 4 & < ; 4 Y Y E &.<.<.) 4 ; @   6.6.6.6.6.6.6.6.6.6.6.6.6.6.6.6.",
"6.6.6.6.6.6.6.6.6.6.6.6.6.6.6.6.6.6.6.6.6.X < E Y Y Y < < - 5 Y 4 * 4 5 Y Y Y Y T W E T < * o 6.6.6.6.6.6.6.6.6.6.6.6.6.6.6.6.6.",
"6.6.6.6.6.6.6.6.6.6.6.6.6.6.6.6.6.6.6.6.6.+ T T Y Y Y Y 4 4 0 Y < < Y Y Y Y Y Y Y Y 4 < * @ X   6.6.6.6.6.6.6.6.6.6.6.6.6.6.6.6.",
"6.6.6.6.6.6.6.6.6.6.6.6.6.6.6.6.6.6.6.6.6.& E Y Y Y Y Y l 0 Y Y 4 Y Y Y Y Y Y Y Y Y Y : @ O * o 6.6.6.6.6.6.6.6.6.6.6.6.6.6.6.6.",
"6.6.6.6.6.6.6.6.6.6.6.6.6.6.6.6.6.6.6.6.. : E Y Y Y Y Y Y Y Y Y Y Y Y Y Y Y Y Y Y Y Y Y 4 4 l @ 6.6.6.6.6.6.6.6.6.6.6.6.6.6.6.6.",
"6.6.6.6.6.6.6.6.6.6.6.6.6.6.6.6.6.6.6.6.o T T Y Y Y Y Y Y Y Y Y Y Y Y Y Y Y Y Y Y Y Y Y Y Y Y % 6.6.6.6.6.6.6.6.6.6.6.6.6.6.6.6.",
"6.6.6.6.6.6.6.6.6.6.6.6.6.6.6.6.6.6.6.6.@ R Y 5 0 Y Y Y Y Y Y Y Y Y Y Y Y 5 4 2 4 Y Y Y Y Y T - . 6.6.6.6.6.6.6.6.6.6.6.6.6.6.6.",
"6.6.6.6.6.6.6.6.6.6.6.6.6.6.6.6.6.6.6.6.% T > = , 4 Y Y Y Y Y Y Y Y Y Y Y , w q ; < Y Y Y Y Y 4 @ 6.6.6.6.6.6.6.6.6.6.6.6.6.6.6.",
"6.6.6.6.6.6.6.6.6.6.6.6.6.6.6.6.6.6.6.X < e | P N j 0 Y Y Y Y T Y Y Y Y 3 ..+.A p ; 4 Y Y Y Y T : o 6.6.6.6.6.6.6.6.6.6.6.6.6.6.",
"6.6.6.6.6.6.6.6.6.6.6.6.6.6.6.6.6.6.6.$ T v 4.>.N M l Y Y T T T T e Y 5 x ,.5.S B = < Y Y Y Y Y Y & . 6.6.6.6.6.6.6.6.6.6.6.6.6.",
"6.6.6.6.6.6.6.6.6.6.6.6.6.6.6.6.6.6.X ; 3 f @.X.y V z W ) [ -.;.&.[ W Y s J X.u B h < Y Y < 4 4 T < O 6.6.6.6.6.6.6.6.6.6.6.6.6.",
"6.6.6.6.6.6.6.6.6.6.6.6.6.6.6.6.6.6.o % : d i r H K / ` ^ ~ Q ;.1.1.<.[ b m t G I q 2 Y Y 1 * % * * O 6.6.6.6.6.6.6.6.6.6.6.6.6.",
"6.6.6.6.6.6.6.6.6.6.6.6.6.6.6.6.6.6.  $ 1 g Z C U  .=.! } { 9 ^ <.1.<.1.O.D F L n : l Y Y 4 < % O X   6.6.6.6.6.6.6.6.6.6.6.6.6.",
"6.6.6.6.6.6.6.6.6.6.6.6.6.6.6.6.6.6.6.O - - w a c %.<._ 7 6 8 $.1.<.<.<.<.' k w > 4 Y 2 < 2 % % @   6.6.6.6.6.6.6.6.6.6.6.6.6.6.",
"6.6.6.6.6.6.6.6.6.6.6.6.6.6.6.6.6.6.6.  @ $ 2 4 [ 3.<.<.[ 2 :.2.<.<.<.1.<.:.E 4 Y Y Y 2 $ - & o . 6.6.6.6.6.6.6.6.6.6.6.6.6.6.6.",
"6.6.6.6.6.6.6.6.6.6.6.6.6.6.6.6.6.6.6.6.  # : 2 #.1.<.;.E & W #.<.<.<.<.<.<.W Y 5 4 < : # + @ . 6.6.6.6.6.6.6.6.6.6.6.6.6.6.6.6.",
"6.6.6.6.6.6.6.6.6.6.6.6.6.6.6.6.6.6.6.6.6.X % ; ) :.:.&.) #.W &.<.<.<.:.:.:.E : ; ; ; - @ .   6.6.6.6.6.6.6.6.6.6.6.6.6.6.6.6.6.",
"6.6.6.6.6.6.6.6.6.6.6.6.6.6.6.6.6.6.6.6.6.6.. @ 2 #.;.;.;.;.;.;.&.&.&.;.-.$.4 - * & # O . 6.6.6.6.6.6.6.6.6.6.6.6.6.6.6.6.6.6.6.",
"6.6.6.6.6.6.6.6.6.6.6.6.6.6.6.6.6.6.6.6.6.6.6.6.X $ Y ) [ [ #.[ [ ] ) W T ; @ O X . 6.6.6.6.6.6.6.6.6.6.6.6.6.6.6.6.6.6.6.6.6.6.",
"6.6.6.6.6.6.6.6.6.6.6.6.6.6.6.6.6.6.6.6.6.6.6.6.6.6.  X @ # # % % % # # # o   6.6.6.6.6.6.6.6.6.6.6.6.6.6.6.6.6.6.6.6.6.6.6.6.6.",
"6.6.6.6.6.6.6.6.6.6.6.6.6.6.6.6.6.6.6.6.6.6.6.6.6.6.X % < & & #.;.:.] Y < 4 : & o 6.6.6.6.6.6.6.6.6.6.6.6.6.6.6.6.6.6.6.6.6.6.6.",
"6.6.6.6.6.6.6.6.6.6.6.6.6.6.6.6.6.6.6.6.6.6.6.6.6.o - T 4 # ) 3.3.3.:.T * * 4 Y : + 6.6.6.6.6.6.6.6.6.6.6.6.6.6.6.6.6.6.6.6.6.6.",
"6.6.6.6.6.6.6.6.6.6.6.6.6.6.6.6.6.6.6.6.6.6.6.6.6.* T 4 $ $ :.<.<.<.2.) < $ # < T < + 6.6.6.6.6.6.6.6.6.6.6.6.6.6.6.6.6.6.6.6.6.",
"6.6.6.6.6.6.6.6.6.6.6.6.6.6.6.6.6.6.6.6.6.6.6.6.$ T 0 * X 4 3.1.<.<.3.#.T 2 @ $ 4 T - 6.6.6.6.6.6.6.6.6.6.6.6.6.6.6.6.6.6.6.6.6.",
"6.6.6.6.6.6.6.6.6.6.6.6.6.6.6.6.6.6.6.6.6.6.6.6.< T < # . ( 3.<.<.<.3.;.T < $ X - Y Y # 6.6.6.6.6.6.6.6.6.6.6.6.6.6.6.6.6.6.6.6.",
"6.6.6.6.6.6.6.6.6.6.6.6.6.6.6.6.6.6.6.6.6.6.6.6.T [ : X O [ 3.<.<.<.2.:.E 3 % X $ T [ % 6.6.6.6.6.6.6.6.6.6.6.6.6.6.6.6.6.6.6.6.",
"6.6.6.6.6.6.6.6.6.6.6.6.6.6.6.6.6.6.6.6.6.6.6.6.# T & 6.@ #.3.<.1.<.<.<.W < & # # E E $ + 6.6.6.6.6.6.6.6.6.6.6.6.6.6.6.6.6.6.6.",
"6.6.6.6.6.6.6.6.6.6.6.6.6.6.6.6.6.6.6.6.6.6.6.6.6.6.6.6.@ &.<.<.<.1.3.:.E 4 $ O o o O < * 6.6.6.6.6.6.6.6.6.6.6.6.6.6.6.6.6.6.6.",
"6.6.6.6.6.6.6.6.6.6.6.6.6.6.6.6.6.6.6.6.6.6.6.6.6.6.6.6.O ) 3.<.<.1.3.*.T 4 * X 6.6.6.* < # @ + 6.6.6.6.6.6.6.6.6.6.6.6.6.6.6.6.",
"6.6.6.6.6.6.6.6.6.6.6.6.6.6.6.6.6.6.6.6.6.6.6.6.6.6.6.6.X ; $.<.3.1.:.( l : # 6.6.6.6.@ * # @ @ o 6.6.6.6.6.6.6.6.6.6.6.6.6.6.6.",
"6.6.6.6.6.6.6.6.6.6.6.6.6.6.6.6.6.6.6.6.6.6.6.6.6.6.6.6.6.+ : W ) ) Y : Y 5 @ 6.6.6.6.6.+ @ @ + X 6.6.6.6.6.6.6.6.6.6.6.6.6.6.6.",
"6.6.6.6.6.6.6.6.6.6.6.6.6.6.6.6.6.6.6.6.6.6.6.6.6.6.6.6.@ * @ & - - % * Y R : 6.6.6.6.6.6.o O X 6.6.6.6.6.6.6.6.6.6.6.6.6.6.6.6.",
"6.6.6.6.6.6.6.6.6.6.6.6.6.6.6.6.6.6.6.6.6.6.6.6.6.6.6.6.* W ; # + @ O ; Y T T + 6.6.6.6.6.6.6.6.6.6.6.6.6.6.6.6.6.6.6.6.6.6.6.6.",
"6.6.6.6.6.6.6.6.6.6.6.6.6.6.6.6.6.6.6.6.6.6.6.6.6.6.6.6.4 E T 4 # 6.o : Y T W $ 6.6.6.6.6.6.6.6.6.6.6.6.6.6.6.6.6.6.6.6.6.6.6.6.",
"6.6.6.6.6.6.6.6.6.6.6.6.6.6.6.6.6.6.6.6.6.6.6.6.6.6.6.+ T E 4 Y $ 6.o : Y T W - 6.6.6.6.6.6.6.6.6.6.6.6.6.6.6.6.6.6.6.6.6.6.6.6.",
"6.6.6.6.6.6.6.6.6.6.6.6.6.6.6.6.6.6.6.6.6.6.6.6.6.6.6.# E T T 4 $ 6.o - T Y E < 6.6.6.6.6.6.6.6.6.6.6.6.6.6.6.6.6.6.6.6.6.6.6.6.",
"6.6.6.6.6.6.6.6.6.6.6.6.6.6.6.6.6.6.6.6.6.6.6.6.6.6.6.& E T Y 4 @ 6.6.* Y Y E Y o 6.6.6.6.6.6.6.6.6.6.6.6.6.6.6.6.6.6.6.6.6.6.6.",
"6.6.6.6.6.6.6.6.6.6.6.6.6.6.6.6.6.6.6.6.6.6.6.6.6.6.6.- E T Y : + 6.6.% 4 Y T R @ 6.6.6.6.6.6.6.6.6.6.6.6.6.6.6.6.6.6.6.6.6.6.6.",
"6.6.6.6.6.6.6.6.6.6.6.6.6.6.6.6.6.6.6.6.6.6.6.6.6.6.6.4 ( T Y : O 6.6.% 4 T W ) # 6.6.6.6.6.6.6.6.6.6.6.6.6.6.6.6.6.6.6.6.6.6.6.",
"6.6.6.6.6.6.6.6.6.6.6.6.6.6.6.6.6.6.6.6.6.6.6.6.6.6.6.$ ) [ ] 4 6.6.6.$ ( [ ] : 6.6.6.6.6.6.6.6.6.6.6.6.6.6.6.6.6.6.6.6.6.6.6.6.",
"6.6.6.6.6.6.6.6.6.6.6.6.6.6.6.6.6.6.6.6.6.6.6.6.6.6.6.6.+ * & O 6.6.6.6.+ % # 6.6.6.6.6.6.6.6.6.6.6.6.6.6.6.6.6.6.6.6.6.6.6.6.6.",
"6.6.6.6.6.6.6.6.6.6.6.6.6.6.6.6.6.6.6.6.6.6.6.6.6.6.6.6.6.6.6.6.6.6.6.6.6.6.6.6.6.6.6.6.6.6.6.6.6.6.6.6.6.6.6.6.6.6.6.6.6.6.6.6.",
"6.6.6.6.6.6.6.6.6.6.6.6.6.6.6.6.6.6.6.6.6.6.6.6.6.6.6.6.6.6.6.6.6.6.6.6.6.6.6.6.6.6.6.6.6.6.6.6.6.6.6.6.6.6.6.6.6.6.6.6.6.6.6.6."
};
