/* XPM */
static char *Idle__4__left[] = {
/* columns rows colors chars-per-pixel */
"64 64 114 2 ",
"   c #040404",
".  c #0C0C0C",
"X  c #141414",
"o  c #1B1B1B",
"O  c #232323",
"+  c #2C2C2C",
"@  c #343434",
"#  c #3C3C3C",
"$  c #434343",
"%  c #4C4C4C",
"&  c #504F4F",
"*  c #545454",
"=  c #5B5B5B",
"-  c #5F6060",
";  c #5A7177",
":  c #646464",
">  c #6C6C6C",
",  c #636E71",
"<  c #607176",
"1  c #6C7172",
"2  c #627478",
"3  c #737373",
"4  c #787676",
"5  c #73797A",
"6  c #7B7C7C",
"7  c #826E6E",
"8  c #807F7F",
"9  c #C16969",
"0  c #D57979",
"q  c #DA7979",
"w  c #E57777",
"e  c #80807F",
"r  c #4D7C87",
"t  c #6B7C80",
"y  c #7C7F80",
"u  c #1384A0",
"i  c #1F8FAC",
"p  c #1091B3",
"a  c #2A8EA7",
"s  c #3493AB",
"d  c #3B93A9",
"f  c #2D9BB6",
"g  c #249FBF",
"h  c #369BB4",
"j  c #31A3BF",
"k  c #49808E",
"l  c #6C8389",
"z  c #66909A",
"x  c #6C949E",
"c  c #4190A4",
"v  c #429BB2",
"b  c #40A4BD",
"n  c #54A8BD",
"m  c #7EA2AB",
"M  c #079CC2",
"N  c #0DA0C6",
"B  c #0FA8CE",
"V  c #01A9D5",
"C  c #0DA9D1",
"Z  c #02ADD9",
"A  c #1CAED3",
"S  c #12B1D9",
"D  c #20A9CB",
"F  c #2BB9DC",
"G  c #32B1D2",
"H  c #45A9C2",
"J  c #4BAAC2",
"K  c #6AC4DB",
"L  c #53CBE9",
"P  c #64D4F0",
"I  c #838383",
"U  c #898685",
"Y  c #8B8B8B",
"T  c #939393",
"R  c #9A9A9A",
"E  c #B18B8B",
"W  c #AD9F9F",
"Q  c #B59393",
"!  c #B09999",
"~  c #89A3AA",
"^  c #88ADB6",
"/  c #A3A3A3",
"(  c #A8A5A4",
")  c #ABABAB",
"_  c #B8A6A6",
"`  c #B7ABAB",
"'  c #B3B4B4",
"]  c #B8B5B5",
"[  c #BCBCBC",
"{  c #C0B4B4",
"}  c #EEACAC",
"|  c #F8A3A3",
" . c #80BBCA",
".. c #9ABAC2",
"X. c #ABBDC1",
"o. c #81C4D4",
"O. c #BFC0C0",
"+. c #9FDBEB",
"@. c #98E0F1",
"#. c #BBE9F4",
"$. c #C4C4C4",
"%. c #C8C3C3",
"&. c #C1C9CB",
"*. c #CCCCCC",
"=. c #D4D4D4",
"-. c #DCDCDC",
";. c #C1DEE5",
":. c #D4F0F6",
">. c #DEF4F9",
",. c #E5E5E5",
"<. c #E7E8E8",
"1. c #E8E8E8",
"2. c #EEF8FB",
"3. c None",
/* pixels */
"3.3.3.3.3.3.3.3.3.3.3.3.3.3.3.3.3.3.3.3.3.3.3.3.3.3.3.3.3.3.3.3.3.3.3.3.3.3.3.3.3.3.3.3.3.3.3.3.3.3.3.3.3.3.3.3.3.3.3.3.3.3.3.3.",
"3.3.3.3.3.3.3.3.3.3.3.3.3.3.3.3.3.3.3.3.3.3.3.3.3.3.3.3.3.3.3.3.3.3.3.3.3.3.3.3.3.3.3.3.3.3.3.3.3.3.3.3.3.3.3.3.3.3.3.3.3.3.3.3.",
"3.3.3.3.3.3.3.3.3.3.3.3.3.3.3.3.3.3.3.3.3.3.3.3.3.3.3.3.3.3.3.3.3.3.3.3.3.3.3.3.3.3.3.3.3.3.3.3.3.3.3.3.3.3.3.3.3.3.3.3.3.3.3.3.",
"3.3.3.3.3.3.3.3.3.3.3.3.3.3.3.3.3.3.3.3.3.3.3.3.3.3.3.3.3.3.3.3.3.3.3.3.3.3.3.3.3.3.3.3.3.3.3.3.3.3.3.3.3.3.3.3.3.3.3.3.3.3.3.3.",
"3.3.3.3.3.3.3.3.3.3.3.3.3.3.3.3.3.3.3.3.3.3.3.3.3.3.3.3.3.3.3.3.3.3.3.3.3.3.3.3.3.3.3.3.3.3.3.3.3.3.3.3.3.3.3.3.3.3.3.3.3.3.3.3.",
"3.3.3.3.3.3.3.3.3.3.3.3.3.3.3.3.3.3.3.3.3.3.3.3.3.3.3.3.3.3.3.3.3.3.3.3.3.3.3.3.3.3.  . o o   3.3.3.3.3.3.3.3.3.3.3.3.3.3.3.3.3.",
"3.3.3.3.3.3.3.3.3.3.3.3.3.3.3.3.3.3.3.3.3.3.  .   3.3.3.3.3.3.3.3.3.3.3.3.3.3.3.3.X + # # # X 3.3.3.3.3.3.3.3.3.3.3.3.3.3.3.3.3.",
"3.3.3.3.3.3.3.3.3.3.3.3.3.3.3.3.3.3.3.3.3.3.o $ @ O . 3.3.3.3.3.3.3.3.3.3.3.3.3.o # # @ @ @ o 3.3.3.3.3.3.3.3.3.3.3.3.3.3.3.3.3.",
"3.3.3.3.3.3.3.3.3.3.3.3.3.3.3.3.3.3.3.3.3.3.O $ % & = O 3.3.3.3.3.3.3.3.3.3.3.O 3 : > = @ @ O   3.3.3.3.3.3.3.3.3.3.3.3.3.3.3.3.",
"3.3.3.3.3.3.3.3.3.3.3.3.3.3.3.3.3.3.3.3.3.3.% * @ # : 6 + 3.3.3.3.3.3.3.3.3.o 3 ' [ *.' # @ O   3.3.3.3.3.3.3.3.3.3.3.3.3.3.3.3.",
"3.3.3.3.3.3.3.3.3.3.3.3.3.3.3.3.3.3.3.3.3.X / *.6 & > Y 6 O 3.3.3.3.3.3.3.3.= ] *.*.=.=.: @ O . 3.3.3.3.3.3.3.3.3.3.3.3.3.3.3.3.",
"3.3.3.3.3.3.3.3.3.3.3.3.3.3.3.3.3.3.3.3.3.O ' ,.-./ I U T : . 3.3.3.3.3.3.3./ *.=.,.,.1.U + + . 3.3.3.3.3.3.3.3.3.3.3.3.3.3.3.3.",
"3.3.3.3.3.3.3.3.3.3.3.3.3.3.3.3.3.3.3.3.3.@ [ ,.<.,./ I Y T # 3.3.3.3.3.3.Y &.=.,.,.,.1./ # + . 3.3.3.3.3.3.3.3.3.3.3.3.3.3.3.3.",
"3.3.3.3.3.3.3.3.3.3.3.3.3.3.3.3.3.3.3.3.3.@ $.,.,.<.=.T 6 : @   X O X . X T *.-.,.,.,.1.[ > $ o 3.3.3.3.3.3.3.3.3.3.3.3.3.3.3.3.",
"3.3.3.3.3.3.3.3.3.3.3.3.3.3.3.3.3.3.3.3.3.# $.,.,.<.-.6 O @ $ + * U # + * ] =.<.,.,.,.<.$.I = + 3.3.3.3.3.3.3.3.3.3.3.3.3.3.3.3.",
"3.3.3.3.3.3.3.3.3.3.3.3.3.3.3.3.3.3.3.3.3.# *.,.<.=.: + O = 3 @ : 6 # @ 3 [ -.<.,.,.,.<.$.I > + 3.3.3.3.3.3.3.3.3.3.3.3.3.3.3.3.",
"3.3.3.3.3.3.3.3.3.3.3.3.3.3.3.3.3.3.3.3.3.@ $.1.*.% # > @ % > # > > @ $ 6 ' ,.,.<.,.,.<.{ 6 > + 3.3.3.3.3.3.3.3.3.3.3.3.3.3.3.3.",
"3.3.3.3.3.3.3.3.3.3.3.3.3.3.3.3.3.3.3.3.3.+ $.-.* O % 6 @ % 3 # 4 : @ = : T -.,.,.,.,.<.[ 6 : O 3.3.3.3.3.3.3.3.3.3.3.3.3.3.3.3.",
"3.3.3.3.3.3.3.3.3.3.3.3.3.3.3.3.3.3.3.3.3.O ) 6 * = # 3 $ % 3 % e = @ 3 % > -.,.,.,.<.<.) 4 = o 3.3.3.3.3.3.3.3.3.3.3.3.3.3.3.3.",
"3.3.3.3.3.3.3.3.3.3.3.3.3.3.3.3.3.3.3.3.3.3.: $ T 6 # : = % 4 = I * $ 1 # > O.<.<.,.<.-./ 1 = . 3.3.3.3.3.3.3.3.3.3.3.3.3.3.3.3.",
"3.3.3.3.3.3.3.3.3.3.3.3.3.3.3.3.3.3.3.3.3.3.o 3 T U = * : & 8 > e % - = = l ! -.<.,.<.=.Y > %   3.3.3.3.3.3.3.3.3.3.3.3.3.3.3.3.",
"3.3.3.3.3.3.3.3.3.3.3.3.3.3.3.3.3.3.3.3.3.3.# T U I 4 * 3 & 8 8 8 % > : 6 I e ( -.<.<.] 6 : #   3.3.3.3.3.3.3.3.3.3.3.3.3.3.3.3.",
"3.3.3.3.3.3.3.3.3.3.3.3.3.3.3.3.3.3.3.3.3.. > T I I U : 3 - 8 e 4 = 6 6 I I I I R ' ) Y 3 - o 3.3.3.3.3.3.3.3.3.3.3.3.3.3.3.3.3.",
"3.3.3.3.3.3.3.3.3.3.3.3.3.3.3.3.3.3.3.3.3.+ Y Y I I I 8 4 3 l I 3 > I I I I I I I I I 6 > $ . 3.3.3.3.3.3.3.3.3.3.3.3.3.3.3.3.3.",
"3.3.3.3.3.3.3.3.3.3.3.3.3.3.3.3.3.3.3.3.3.% T I I I I I I I I I 6 6 I I I I I I I I I = @ o $ X 3.3.3.3.3.3.3.3.3.3.3.3.3.3.3.3.",
"3.3.3.3.3.3.3.3.3.3.3.3.3.3.3.3.3.3.3.3.. 1 Y U I I I I I I I I I I I I I I I I I I I 6 : : 6 + 3.3.3.3.3.3.3.3.3.3.3.3.3.3.3.3.",
"3.3.3.3.3.3.3.3.3.3.3.3.3.3.3.3.3.3.3.3.o U Y I I I I I I I I I I I I I I I I I I I I I I I I # 3.3.3.3.3.3.3.3.3.3.3.3.3.3.3.3.",
"3.3.3.3.3.3.3.3.3.3.3.3.3.3.3.3.3.3.3.3.@ Y U I I I I I I I I I I I I I I I e 8 I I I I I I U =   3.3.3.3.3.3.3.3.3.3.3.3.3.3.3.",
"3.3.3.3.3.3.3.3.3.3.3.3.3.3.3.3.3.3.3.3.% Y 3 1 6 I U e I I I I I I I I I 5 ; , > 6 U I I I I 4 O 3.3.3.3.3.3.3.3.3.3.3.3.3.3.3.",
"3.3.3.3.3.3.3.3.3.3.3.3.3.3.3.3.3.3.3.. > y x H s 2 8 U I I I I I I I I 6 m K D k > 8 I I I I I : . 3.3.3.3.3.3.3.3.3.3.3.3.3.3.",
"3.3.3.3.3.3.3.3.3.3.3.3.3.3.3.3.3.3.3.@ I x >.#.S f l U e I I I I e I e z :.2.G B ; 3 I I I I I I $ 3.3.3.3.3.3.3.3.3.3.3.3.3.3.",
"3.3.3.3.3.3.3.3.3.3.3.3.3.3.3.3.3.3.. : 6 J >.;.p C l Y / ' { $.' / Y e v +.;.i V k 3 U I 6 I I I > O 3.3.3.3.3.3.3.3.3.3.3.3.3.",
"3.3.3.3.3.3.3.3.3.3.3.3.3.3.3.3.3.3.o = 3 g D a b F ~ ] ( ! ` -.,.,.*.( v N u n K r 3 I I > * - > : + 3.3.3.3.3.3.3.3.3.3.3.3.3.",
"3.3.3.3.3.3.3.3.3.3.3.3.3.3.3.3.3.3.. % 3 c C M @.o.&.Q } | 0 ` <.,.<.,...S Z P K , 6 I I 8 3 % O o . 3.3.3.3.3.3.3.3.3.3.3.3.3.",
"3.3.3.3.3.3.3.3.3.3.3.3.3.3.3.3.3.3.3.@ > 1 d A H X.-.E q w 9 { <.,.,.,.,.^ h c 2 6 I 6 6 6 * * @   3.3.3.3.3.3.3.3.3.3.3.3.3.3.",
"3.3.3.3.3.3.3.3.3.3.3.3.3.3.3.3.3.3.3.X $ % 4 5 ) ,.1.-.! 7 %.<.,.,.,.<.,.=.U 6 8 I I 3 & > % o X 3.3.3.3.3.3.3.3.3.3.3.3.3.3.3.",
"3.3.3.3.3.3.3.3.3.3.3.3.3.3.3.3.3.3.3.3.X $ > 6 *.,.,.-.' = $.=.,.,.,.<.,.,.R I U y 6 3 @ @ $ . 3.3.3.3.3.3.3.3.3.3.3.3.3.3.3.3.",
"3.3.3.3.3.3.3.3.3.3.3.3.3.3.3.3.3.3.3.3.3.O = > ' ,.,.$.Y R 6 { ,.,.,.,.,.-.R 3 > > > : $ X . 3.3.3.3.3.3.3.3.3.3.3.3.3.3.3.3.3.",
"3.3.3.3.3.3.3.3.3.3.3.3.3.3.3.3.3.3.3.3.3.3.o % T *.=.=.=.-.=.=.=.=.=.=.*.*.e : : = % @ X 3.3.3.3.3.3.3.3.3.3.3.3.3.3.3.3.3.3.3.",
"3.3.3.3.3.3.3.3.3.3.3.3.3.3.3.3.3.3.3.3.3.3.3.. @ 6 ' $.*.*.=.*.*.*.&.{ ' T & @ + X . 3.3.3.3.3.3.3.3.3.3.3.3.3.3.3.3.3.3.3.3.3.",
"3.3.3.3.3.3.3.3.3.3.3.3.3.3.3.3.3.3.3.3.3.3.3.3.3.. O $ * : : - - * $ # @ .   3.3.3.3.3.3.3.3.3.3.3.3.3.3.3.3.3.3.3.3.3.3.3.3.3.",
"3.3.3.3.3.3.3.3.3.3.3.3.3.3.3.3.3.3.3.3.3.3.3.3.3.3.3.o & $ # T ( ' T 3 3 - * @ 3.3.3.3.3.3.3.3.3.3.3.3.3.3.3.3.3.3.3.3.3.3.3.3.",
"3.3.3.3.3.3.3.3.3.3.3.3.3.3.3.3.3.3.3.3.3.3.3.3.3.3.$ 8 I $ R 1.1.<.-.U : 3 I 6 * X 3.3.3.3.3.3.3.3.3.3.3.3.3.3.3.3.3.3.3.3.3.3.",
"3.3.3.3.3.3.3.3.3.3.3.3.3.3.3.3.3.3.3.3.3.3.3.3.3.$ U e = $ =.<.<.,.<.( > # * 6 U = 3.3.3.3.3.3.3.3.3.3.3.3.3.3.3.3.3.3.3.3.3.3.",
"3.3.3.3.3.3.3.3.3.3.3.3.3.3.3.3.3.3.3.3.3.3.3.3.+ 4 I > O > ,.,.<.,.1.$.I > @ * l U % 3.3.3.3.3.3.3.3.3.3.3.3.3.3.3.3.3.3.3.3.3.",
"3.3.3.3.3.3.3.3.3.3.3.3.3.3.3.3.3.3.3.3.3.3.3.3.= U l % . R 1.,.<.,.1.=.Y 8 % O 3 U 4 O 3.3.3.3.3.3.3.3.3.3.3.3.3.3.3.3.3.3.3.3.",
"3.3.3.3.3.3.3.3.3.3.3.3.3.3.3.3.3.3.3.3.3.3.3.3.Y ( 3 O o [ 1.,.,.,.<.-.T 1 $ . & I / # 3.3.3.3.3.3.3.3.3.3.3.3.3.3.3.3.3.3.3.3.",
"3.3.3.3.3.3.3.3.3.3.3.3.3.3.3.3.3.3.3.3.3.3.3.3.= ' 3 3.@ $.1.,.,.,.,.-.R 4 = + $ ` ' $ 3.3.3.3.3.3.3.3.3.3.3.3.3.3.3.3.3.3.3.3.",
"3.3.3.3.3.3.3.3.3.3.3.3.3.3.3.3.3.3.3.3.3.3.3.3.3.+ O 3.@ *.1.,.,.,.,.-.R 6 $ + + % # > % 3.3.3.3.3.3.3.3.3.3.3.3.3.3.3.3.3.3.3.",
"3.3.3.3.3.3.3.3.3.3.3.3.3.3.3.3.3.3.3.3.3.3.3.3.3.3.3.3.+ ' 1.,.,.,.1.=.Y 6 * X 3.3.X : 3 @ O o 3.3.3.3.3.3.3.3.3.3.3.3.3.3.3.3.",
"3.3.3.3.3.3.3.3.3.3.3.3.3.3.3.3.3.3.3.3.3.3.3.3.3.3.3.3.o 4 =.1.1.1.,.) I > $ 3.3.3.3.$ > $ @ @ X 3.3.3.3.3.3.3.3.3.3.3.3.3.3.3.",
"3.3.3.3.3.3.3.3.3.3.3.3.3.3.3.3.3.3.3.3.3.3.3.3.3.3.3.3.3.@ I ' $.$.R 3 I I # 3.3.3.3.o # @ @ @ o 3.3.3.3.3.3.3.3.3.3.3.3.3.3.3.",
"3.3.3.3.3.3.3.3.3.3.3.3.3.3.3.3.3.3.3.3.3.3.3.3.3.3.3.3.@ & # - > > % = I Y 1 3.3.3.3.3.o O + O 3.3.3.3.3.3.3.3.3.3.3.3.3.3.3.3.",
"3.3.3.3.3.3.3.3.3.3.3.3.3.3.3.3.3.3.3.3.3.3.3.3.3.3.3.3.= T = @ # $ + > U Y Y + 3.3.3.3.3.3.3.3.3.3.3.3.3.3.3.3.3.3.3.3.3.3.3.3.",
"3.3.3.3.3.3.3.3.3.3.3.3.3.3.3.3.3.3.3.3.3.3.3.3.3.3.3.3.6 T U 7 @ 3.o > I Y R $ 3.3.3.3.3.3.3.3.3.3.3.3.3.3.3.3.3.3.3.3.3.3.3.3.",
"3.3.3.3.3.3.3.3.3.3.3.3.3.3.3.3.3.3.3.3.3.3.3.3.3.3.3.+ Y T I l $ 3.o > I U R : 3.3.3.3.3.3.3.3.3.3.3.3.3.3.3.3.3.3.3.3.3.3.3.3.",
"3.3.3.3.3.3.3.3.3.3.3.3.3.3.3.3.3.3.3.3.3.3.3.3.3.3.3.# T Y U 6 # 3.o : I U T 3 3.3.3.3.3.3.3.3.3.3.3.3.3.3.3.3.3.3.3.3.3.3.3.3.",
"3.3.3.3.3.3.3.3.3.3.3.3.3.3.3.3.3.3.3.3.3.3.3.3.3.3.3.% R Y I 3 @ 3.3.= I I T I o 3.3.3.3.3.3.3.3.3.3.3.3.3.3.3.3.3.3.3.3.3.3.3.",
"3.3.3.3.3.3.3.3.3.3.3.3.3.3.3.3.3.3.3.3.3.3.3.3.3.3.3.: R I I 3 + 3.3.* 6 I Y Y @ 3.3.3.3.3.3.3.3.3.3.3.3.3.3.3.3.3.3.3.3.3.3.3.",
"3.3.3.3.3.3.3.3.3.3.3.3.3.3.3.3.3.3.3.3.3.3.3.3.3.3.3.6 ) Y I > O 3.3.% I Y R ) # 3.3.3.3.3.3.3.3.3.3.3.3.3.3.3.3.3.3.3.3.3.3.3.",
"3.3.3.3.3.3.3.3.3.3.3.3.3.3.3.3.3.3.3.3.3.3.3.3.3.3.3.$ ) [ ' 6 3.3.3.$ / [ ' > 3.3.3.3.3.3.3.3.3.3.3.3.3.3.3.3.3.3.3.3.3.3.3.3.",
"3.3.3.3.3.3.3.3.3.3.3.3.3.3.3.3.3.3.3.3.3.3.3.3.3.3.3.3.+ = * O 3.3.3.3.+ % # 3.3.3.3.3.3.3.3.3.3.3.3.3.3.3.3.3.3.3.3.3.3.3.3.3.",
"3.3.3.3.3.3.3.3.3.3.3.3.3.3.3.3.3.3.3.3.3.3.3.3.3.3.3.3.3.3.3.3.3.3.3.3.3.3.3.3.3.3.3.3.3.3.3.3.3.3.3.3.3.3.3.3.3.3.3.3.3.3.3.3.",
"3.3.3.3.3.3.3.3.3.3.3.3.3.3.3.3.3.3.3.3.3.3.3.3.3.3.3.3.3.3.3.3.3.3.3.3.3.3.3.3.3.3.3.3.3.3.3.3.3.3.3.3.3.3.3.3.3.3.3.3.3.3.3.3."
};
