/* XPM */
static char *Idle__5__left[] = {
/* columns rows colors chars-per-pixel */
"64 64 118 2 ",
"   c #050505",
".  c #0D0D0D",
"X  c #131313",
"o  c #1B1B1B",
"O  c #242424",
"+  c #2B2B2B",
"@  c #333333",
"#  c #3C3C3C",
"$  c #434343",
"%  c #4C4C4C",
"&  c #545454",
"*  c #5C5C5C",
"=  c #5F6060",
"-  c #5B7177",
";  c #5C7379",
":  c #646464",
">  c #686767",
",  c #656D6F",
"<  c #6C6C6C",
"1  c #706F6F",
"2  c #606F73",
"3  c #657276",
"4  c #6A7273",
"5  c #6D7C7F",
"6  c #737373",
"7  c #787776",
"8  c #747B7C",
"9  c #7B7B7B",
"0  c #826F6F",
"q  c #807F7F",
"w  c #C06A6A",
"e  c #D47878",
"r  c #DA7979",
"t  c #E47676",
"y  c #4C7E8B",
"u  c #507984",
"i  c #7D7F80",
"p  c #0E829F",
"a  c #198DAA",
"s  c #0E92B4",
"d  c #2C8FA8",
"f  c #3791A7",
"g  c #3796AE",
"h  c #3C95AB",
"j  c #3199B3",
"k  c #3F9DB5",
"l  c #37A4BF",
"z  c #3FA4BE",
"x  c #468291",
"c  c #6F8388",
"v  c #65949F",
"b  c #6A939D",
"n  c #418DA0",
"m  c #429DB4",
"M  c #6E96A0",
"N  c #099DC3",
"B  c #0FA8CF",
"V  c #1DABCF",
"C  c #02ABD6",
"Z  c #0FA9D0",
"A  c #00AEDB",
"S  c #0DB0D9",
"D  c #1AB0D5",
"F  c #16B2DA",
"G  c #22A1C1",
"H  c #2EAECF",
"J  c #2AB8DB",
"K  c #42A6C0",
"L  c #46ABC4",
"P  c #50ADC5",
"I  c #5FAEC2",
"U  c #7BB4C2",
"Y  c #59CCE9",
"T  c #6ECAE1",
"R  c #60D5F2",
"E  c #838383",
"W  c #8A8786",
"Q  c #8B8B8B",
"!  c #939393",
"~  c #9A9A9A",
"^  c #B18A8A",
"/  c #AC9E9E",
"(  c #B59393",
")  c #B09898",
"_  c #8CA4A9",
"`  c #84AAB4",
"'  c #8CADB5",
"]  c #A3A3A3",
"[  c #A9A7A6",
"{  c #AAAAAA",
"}  c #B8AAAA",
"|  c #B3B3B3",
" . c #B8B5B4",
".. c #BBBBBB",
"X. c #C2B7B7",
"o. c #EFADAD",
"O. c #F9A2A2",
"+. c #9CBBC3",
"@. c #ACBDC1",
"#. c #80C3D4",
"$. c #9CD9E8",
"%. c #B4D7E0",
"&. c #BFDCE4",
"*. c #9CE1F1",
"=. c #B3E7F3",
"-. c #C4C4C4",
";. c #CAC5C5",
":. c #C2C9CA",
">. c #CCCCCC",
",. c #D3D3D3",
"<. c #DCDCDC",
"1. c #DDF4F9",
"2. c #E6E6E6",
"3. c #E7E8E8",
"4. c #E8E8E8",
"5. c #E4F7FB",
"6. c #ECF7F9",
"7. c None",
/* pixels */
"7.7.7.7.7.7.7.7.7.7.7.7.7.7.7.7.7.7.7.7.7.7.7.7.7.7.7.7.7.7.7.7.7.7.7.7.7.7.7.7.7.7.7.7.7.7.7.7.7.7.7.7.7.7.7.7.7.7.7.7.7.7.7.7.",
"7.7.7.7.7.7.7.7.7.7.7.7.7.7.7.7.7.7.7.7.7.7.7.7.7.7.7.7.7.7.7.7.7.7.7.7.7.7.7.7.7.7.7.7.7.7.7.7.7.7.7.7.7.7.7.7.7.7.7.7.7.7.7.7.",
"7.7.7.7.7.7.7.7.7.7.7.7.7.7.7.7.7.7.7.7.7.7.7.7.7.7.7.7.7.7.7.7.7.7.7.7.7.7.7.7.7.7.7.7.7.7.7.7.7.7.7.7.7.7.7.7.7.7.7.7.7.7.7.7.",
"7.7.7.7.7.7.7.7.7.7.7.7.7.7.7.7.7.7.7.7.7.7.7.7.7.7.7.7.7.7.7.7.7.7.7.7.7.7.7.7.7.7.7.7.7.7.7.7.7.7.7.7.7.7.7.7.7.7.7.7.7.7.7.7.",
"7.7.7.7.7.7.7.7.7.7.7.7.7.7.7.7.7.7.7.7.7.7.7.7.7.7.7.7.7.7.7.7.7.7.7.7.7.7.7.7.7.7.7.7.7.7.7.7.7.7.7.7.7.7.7.7.7.7.7.7.7.7.7.7.",
"7.7.7.7.7.7.7.7.7.7.7.7.7.7.7.7.7.7.7.7.7.7.7.7.7.7.7.7.7.7.7.7.7.7.7.7.7.7.7.7.7.7.  . o o   7.7.7.7.7.7.7.7.7.7.7.7.7.7.7.7.7.",
"7.7.7.7.7.7.7.7.7.7.7.7.7.7.7.7.7.7.7.7.7.7.    7.7.7.7.7.7.7.7.7.7.7.7.7.7.7.7.7.. + # # # X 7.7.7.7.7.7.7.7.7.7.7.7.7.7.7.7.7.",
"7.7.7.7.7.7.7.7.7.7.7.7.7.7.7.7.7.7.7.7.7.7.+ # @ o   7.7.7.7.7.7.7.7.7.7.7.7.7.o # # @ @ @ O 7.7.7.7.7.7.7.7.7.7.7.7.7.7.7.7.7.",
"7.7.7.7.7.7.7.7.7.7.7.7.7.7.7.7.7.7.7.7.7.7.+ $ % & & o 7.7.7.7.7.7.7.7.7.7.7.O 6 > > = @ @ O   7.7.7.7.7.7.7.7.7.7.7.7.7.7.7.7.",
"7.7.7.7.7.7.7.7.7.7.7.7.7.7.7.7.7.7.7.7.7.X & $ @ $ < < o 7.7.7.7.7.7.7.7.7.X 7 | ..>...$ @ O . 7.7.7.7.7.7.7.7.7.7.7.7.7.7.7.7.",
"7.7.7.7.7.7.7.7.7.7.7.7.7.7.7.7.7.7.7.7.7.+ | ..> & < ! 6 X 7.7.7.7.7.7.7.7.*  .>.,.,.<.< @ O . 7.7.7.7.7.7.7.7.7.7.7.7.7.7.7.7.",
"7.7.7.7.7.7.7.7.7.7.7.7.7.7.7.7.7.7.7.7.7.# -.2.,.! E W ~ & 7.7.7.7.7.7.7.7.] >.,.<.2.3.W @ + . 7.7.7.7.7.7.7.7.7.7.7.7.7.7.7.7.",
"7.7.7.7.7.7.7.7.7.7.7.7.7.7.7.7.7.7.7.7.7.$ >.2.2.<.~ E Q Q + 7.7.7.7.7.7.Q -.,.<.2.2.4.[ # + . 7.7.7.7.7.7.7.7.7.7.7.7.7.7.7.7.",
"7.7.7.7.7.7.7.7.7.7.7.7.7.7.7.7.7.7.7.7.7.% ,.2.2.3.>.W 7 : O   X + X . X ! ,.<.3.2.2.3...> # o 7.7.7.7.7.7.7.7.7.7.7.7.7.7.7.7.",
"7.7.7.7.7.7.7.7.7.7.7.7.7.7.7.7.7.7.7.7.7.% ,.3.3.3.<.< O @ $ + : 9 # @ *  .,.3.2.2.2.3.-.E * + 7.7.7.7.7.7.7.7.7.7.7.7.7.7.7.7.",
"7.7.7.7.7.7.7.7.7.7.7.7.7.7.7.7.7.7.7.7.7.% ,.2.3.>.* O + = < @ > 6 @ # 7 -.<.3.2.2.3.4.-.W < @ 7.7.7.7.7.7.7.7.7.7.7.7.7.7.7.7.",
"7.7.7.7.7.7.7.7.7.7.7.7.7.7.7.7.7.7.7.7.7.$ ,.4.-.$ % : @ & > # 6 > @ % 7 | 2.2.2.2.2.4.X.c > O 7.7.7.7.7.7.7.7.7.7.7.7.7.7.7.7.",
"7.7.7.7.7.7.7.7.7.7.7.7.7.7.7.7.7.7.7.7.7.# >.,.% O & 6 @ & < $ 7 * @ : = Q 2.2.4.2.2.4...7 > O 7.7.7.7.7.7.7.7.7.7.7.7.7.7.7.7.",
"7.7.7.7.7.7.7.7.7.7.7.7.7.7.7.7.7.7.7.7.7.+ ..< * & # 4 $ & 4 % c & # 6 $ < <.2.2.2.2.2.{ 7 = o 7.7.7.7.7.7.7.7.7.7.7.7.7.7.7.7.",
"7.7.7.7.7.7.7.7.7.7.7.7.7.7.7.7.7.7.7.7.7.o < % ! 7 # > & % 7 * q & % < # 1 -.4.2.2.2.<.~ 1 & . 7.7.7.7.7.7.7.7.7.7.7.7.7.7.7.7.",
"7.7.7.7.7.7.7.7.7.7.7.7.7.7.7.7.7.7.7.7.7.7.o 9 ! E & * > & 9 < q $ > * * E ~ <.4.2.4.,.W < $   7.7.7.7.7.7.7.7.7.7.7.7.7.7.7.7.",
"7.7.7.7.7.7.7.7.7.7.7.7.7.7.7.7.7.7.7.7.7.7.$ ~ W E 7 & 1 & q 9 q % 1 = E E E { <.4.2.| 7 > @ 7.7.7.7.7.7.7.7.7.7.7.7.7.7.7.7.7.",
"7.7.7.7.7.7.7.7.7.7.7.7.7.7.7.7.7.7.7.7.7.X 6 ! E E E : 6 : q E 7 * q q E E E E ~ | [ W < = o 7.7.7.7.7.7.7.7.7.7.7.7.7.7.7.7.7.",
"7.7.7.7.7.7.7.7.7.7.7.7.7.7.7.7.7.7.7.7.7.+ Q W E E E 9 7 6 E E 6 1 E q E E E E q E q 8 > # . 7.7.7.7.7.7.7.7.7.7.7.7.7.7.7.7.7.",
"7.7.7.7.7.7.7.7.7.7.7.7.7.7.7.7.7.7.7.7.7.& ! E E E E E E E E E 7 q E E E E E E E E E & + o % X 7.7.7.7.7.7.7.7.7.7.7.7.7.7.7.7.",
"7.7.7.7.7.7.7.7.7.7.7.7.7.7.7.7.7.7.7.7.. 4 Q W E E E E E E E E q E E E E E E E E E E 9 * > 9 O 7.7.7.7.7.7.7.7.7.7.7.7.7.7.7.7.",
"7.7.7.7.7.7.7.7.7.7.7.7.7.7.7.7.7.7.7.7.O W W E E E E E E E E E E E E E E E E W E E E E E W E # 7.7.7.7.7.7.7.7.7.7.7.7.7.7.7.7.",
"7.7.7.7.7.7.7.7.7.7.7.7.7.7.7.7.7.7.7.7.@ ! W E E E E E E E E E E E E E E E q 9 E E E E E E W &   7.7.7.7.7.7.7.7.7.7.7.7.7.7.7.",
"7.7.7.7.7.7.7.7.7.7.7.7.7.7.7.7.7.7.7.7.% ! 7 4 7 E E E E E E E E E E E E 7 - - < 9 E E E E E 8 + 7.7.7.7.7.7.7.7.7.7.7.7.7.7.7.",
"7.7.7.7.7.7.7.7.7.7.7.7.7.7.7.7.7.7.7.. < 9 b K d i E E E E E E E E E E 9 ` T V x < q E E E E W : . 7.7.7.7.7.7.7.7.7.7.7.7.7.7.",
"7.7.7.7.7.7.7.7.7.7.7.7.7.7.7.7.7.7.7.@ E M 1.=.S j i E E c W E E E E E v 1.6.H B - 7 E E E E E E $ 7.7.7.7.7.7.7.7.7.7.7.7.7.7.",
"7.7.7.7.7.7.7.7.7.7.7.7.7.7.7.7.7.7.. > i L 5.&.s B c Q ] | X.-.| ] Q 9 k $.%.a C y 6 E E 9 9 E W < O 7.7.7.7.7.7.7.7.7.7.7.7.7.",
"7.7.7.7.7.7.7.7.7.7.7.7.7.7.7.7.7.7.o = 3 j H d K J _  .[ ) } <.2.2.,.[ m N p I Y u 7 E E 1 & * * * + 7.7.7.7.7.7.7.7.7.7.7.7.7.",
"7.7.7.7.7.7.7.7.7.7.7.7.7.7.7.7.7.7.X % 7 h C s $.#.:.( o.O.e } 3.2.2.2.+.F A R U , q E E 9 6 % O X   7.7.7.7.7.7.7.7.7.7.7.7.7.",
"7.7.7.7.7.7.7.7.7.7.7.7.7.7.7.7.7.7.7.@ , 3 g D L @.<.^ r t w X.3.2.2.3.2.' h n 3 9 E 7 7 7 % & @   7.7.7.7.7.7.7.7.7.7.7.7.7.7.",
"7.7.7.7.7.7.7.7.7.7.7.7.7.7.7.7.7.7.7.X $ & 7 8 { 2.4.,./ 0 -.2.2.2.2.2.2.,.W 9 E E E 8 % > & o . 7.7.7.7.7.7.7.7.7.7.7.7.7.7.7.",
"7.7.7.7.7.7.7.7.7.7.7.7.7.7.7.7.7.7.7.7.X $ < E >.4.3.2.| = -.,.2.2.2.2.2.2.~ E E 9 7 6 @ @ # . 7.7.7.7.7.7.7.7.7.7.7.7.7.7.7.7.",
"7.7.7.7.7.7.7.7.7.7.7.7.7.7.7.7.7.7.7.7.7.O * < ..<.2.-.W ~ 9 -.2.2.2.2.2.<.! 6 < > > > # . . 7.7.7.7.7.7.7.7.7.7.7.7.7.7.7.7.7.",
"7.7.7.7.7.7.7.7.7.7.7.7.7.7.7.7.7.7.7.7.7.7.O & ! >.>.,.,.<.,.,.,.,.,.>.,.>.E > : * % + . 7.7.7.7.7.7.7.7.7.7.7.7.7.7.7.7.7.7.7.",
"7.7.7.7.7.7.7.7.7.7.7.7.7.7.7.7.7.7.7.7.7.7.7.. @ 9 | -.>.>.,.>.>.>.-. .{ Q $ @ O X   7.7.7.7.7.7.7.7.7.7.7.7.7.7.7.7.7.7.7.7.7.",
"7.7.7.7.7.7.7.7.7.7.7.7.7.7.7.7.7.7.7.7.7.7.7.7.7.. O $ & : : * * & $ # @ X   7.7.7.7.7.7.7.7.7.7.7.7.7.7.7.7.7.7.7.7.7.7.7.7.7.",
"7.7.7.7.7.7.7.7.7.7.7.7.7.7.7.7.7.7.7.7.7.7.7.7.7.7.7.o % $ $ ~ {  .~ 7 6 : & + 7.7.7.7.7.7.7.7.7.7.7.7.7.7.7.7.7.7.7.7.7.7.7.7.",
"7.7.7.7.7.7.7.7.7.7.7.7.7.7.7.7.7.7.7.7.7.7.7.7.7.7.$ 9 E $ ] 4.3.3.<.W > 4 E 9 % 7.7.7.7.7.7.7.7.7.7.7.7.7.7.7.7.7.7.7.7.7.7.7.",
"7.7.7.7.7.7.7.7.7.7.7.7.7.7.7.7.7.7.7.7.7.7.7.7.7.# q E * $ ,.3.3.2.2.{ > # & 7 W & 7.7.7.7.7.7.7.7.7.7.7.7.7.7.7.7.7.7.7.7.7.7.",
"7.7.7.7.7.7.7.7.7.7.7.7.7.7.7.7.7.7.7.7.7.7.7.7.O 8 E 6 O 4 4.2.2.2.3.-.E 4 # * E W $ 7.7.7.7.7.7.7.7.7.7.7.7.7.7.7.7.7.7.7.7.7.",
"7.7.7.7.7.7.7.7.7.7.7.7.7.7.7.7.7.7.7.7.7.7.7.7.% W q % . / 4.2.3.2.2.<.Q 9 $ + 7 W 4 7.7.7.7.7.7.7.7.7.7.7.7.7.7.7.7.7.7.7.7.7.",
"7.7.7.7.7.7.7.7.7.7.7.7.7.7.7.7.7.7.7.7.7.7.7.7.E [ 8 O o ..4.2.2.2.3.<.! 6 $ X & W ] @ 7.7.7.7.7.7.7.7.7.7.7.7.7.7.7.7.7.7.7.7.",
"7.7.7.7.7.7.7.7.7.7.7.7.7.7.7.7.7.7.7.7.7.7.7.7.& ..q . @ ;.4.2.2.2.2.<.~ 7 * O $ | { $ 7.7.7.7.7.7.7.7.7.7.7.7.7.7.7.7.7.7.7.7.",
"7.7.7.7.7.7.7.7.7.7.7.7.7.7.7.7.7.7.7.7.7.7.7.7.7.@ + 7.@ ;.2.2.2.2.2.2.~ 7 $ + + * # < & 7.7.7.7.7.7.7.7.7.7.7.7.7.7.7.7.7.7.7.",
"7.7.7.7.7.7.7.7.7.7.7.7.7.7.7.7.7.7.7.7.7.7.7.7.7.7.7.7.+ | 4.2.2.2.2.,.Q 9 * X 7.7.7.: 7 + o X 7.7.7.7.7.7.7.7.7.7.7.7.7.7.7.7.",
"7.7.7.7.7.7.7.7.7.7.7.7.7.7.7.7.7.7.7.7.7.7.7.7.7.7.7.7.X 6 ,.4.4.4.<.[ c 1 $ 7.7.7.7.$ > $ # @ X 7.7.7.7.7.7.7.7.7.7.7.7.7.7.7.",
"7.7.7.7.7.7.7.7.7.7.7.7.7.7.7.7.7.7.7.7.7.7.7.7.7.7.7.7.7.@ 7 [ X. .! 1 q q @ 7.7.7.7.o $ @ @ @ X 7.7.7.7.7.7.7.7.7.7.7.7.7.7.7.",
"7.7.7.7.7.7.7.7.7.7.7.7.7.7.7.7.7.7.7.7.7.7.7.7.7.7.7.7.@ & # & < > % = W ! < 7.7.7.7.7.o + + O 7.7.7.7.7.7.7.7.7.7.7.7.7.7.7.7.",
"7.7.7.7.7.7.7.7.7.7.7.7.7.7.7.7.7.7.7.7.7.7.7.7.7.7.7.7.* ! = @ @ # + > E Q Q + 7.7.7.7.7.7.. 7.7.7.7.7.7.7.7.7.7.7.7.7.7.7.7.7.",
"7.7.7.7.7.7.7.7.7.7.7.7.7.7.7.7.7.7.7.7.7.7.7.7.7.7.7.7.7 ~ W q # 7.o < E W ~ $ 7.7.7.7.7.7.7.7.7.7.7.7.7.7.7.7.7.7.7.7.7.7.7.7.",
"7.7.7.7.7.7.7.7.7.7.7.7.7.7.7.7.7.7.7.7.7.7.7.7.7.7.7.+ Q ! E c $ 7.o > E W ~ : 7.7.7.7.7.7.7.7.7.7.7.7.7.7.7.7.7.7.7.7.7.7.7.7.",
"7.7.7.7.7.7.7.7.7.7.7.7.7.7.7.7.7.7.7.7.7.7.7.7.7.7.7.$ ~ Q E q # 7.o : E W ! 7 7.7.7.7.7.7.7.7.7.7.7.7.7.7.7.7.7.7.7.7.7.7.7.7.",
"7.7.7.7.7.7.7.7.7.7.7.7.7.7.7.7.7.7.7.7.7.7.7.7.7.7.7.% ~ W E 7 @ 7.7.* E E ! c O 7.7.7.7.7.7.7.7.7.7.7.7.7.7.7.7.7.7.7.7.7.7.7.",
"7.7.7.7.7.7.7.7.7.7.7.7.7.7.7.7.7.7.7.7.7.7.7.7.7.7.7.: ! W W 1 + 7.7.& 9 E Q ! @ 7.7.7.7.7.7.7.7.7.7.7.7.7.7.7.7.7.7.7.7.7.7.7.",
"7.7.7.7.7.7.7.7.7.7.7.7.7.7.7.7.7.7.7.7.7.7.7.7.7.7.7.9 [ W c < O 7.7.% E E / [ # 7.7.7.7.7.7.7.7.7.7.7.7.7.7.7.7.7.7.7.7.7.7.7.",
"7.7.7.7.7.7.7.7.7.7.7.7.7.7.7.7.7.7.7.7.7.7.7.7.7.7.7.$ { ....7 7.7.7.$ ~ .. .< 7.7.7.7.7.7.7.7.7.7.7.7.7.7.7.7.7.7.7.7.7.7.7.7.",
"7.7.7.7.7.7.7.7.7.7.7.7.7.7.7.7.7.7.7.7.7.7.7.7.7.7.7.7.+ * & O 7.7.7.7.@ % @ 7.7.7.7.7.7.7.7.7.7.7.7.7.7.7.7.7.7.7.7.7.7.7.7.7.",
"7.7.7.7.7.7.7.7.7.7.7.7.7.7.7.7.7.7.7.7.7.7.7.7.7.7.7.7.7.7.7.7.7.7.7.7.7.7.7.7.7.7.7.7.7.7.7.7.7.7.7.7.7.7.7.7.7.7.7.7.7.7.7.7.",
"7.7.7.7.7.7.7.7.7.7.7.7.7.7.7.7.7.7.7.7.7.7.7.7.7.7.7.7.7.7.7.7.7.7.7.7.7.7.7.7.7.7.7.7.7.7.7.7.7.7.7.7.7.7.7.7.7.7.7.7.7.7.7.7."
};
