/* XPM */
static char *Idle__7__left[] = {
/* columns rows colors chars-per-pixel */
"64 64 112 2 ",
"   c #050505",
".  c #0C0C0C",
"X  c #141414",
"o  c #1C1C1C",
"O  c #232323",
"+  c #2B2B2B",
"@  c #343434",
"#  c #3C3C3C",
"$  c #444444",
"%  c #4C4C4C",
"&  c #545454",
"*  c #5B5B5B",
"=  c #5F6060",
"-  c #5B7176",
";  c #55747C",
":  c #5A7278",
">  c #636363",
",  c #6C6C6C",
"<  c #6B7375",
"1  c #657478",
"2  c #747474",
"3  c #797877",
"4  c #717A7D",
"5  c #7C7B7B",
"6  c #847272",
"7  c #807E7E",
"8  c #BC6B6B",
"9  c #D27676",
"0  c #DB7979",
"q  c #E27474",
"w  c #80807F",
"e  c #527983",
"r  c #747E80",
"t  c #07809F",
"y  c #128BA9",
"u  c #0993B6",
"i  c #0D99BE",
"p  c #3D8CA0",
"a  c #2F91A9",
"s  c #3995AC",
"d  c #339AB3",
"f  c #3BA2BC",
"g  c #438595",
"h  c #4C8492",
"j  c #738185",
"k  c #7F8080",
"l  c #66919C",
"z  c #478FA1",
"x  c #409FB8",
"c  c #649CAA",
"v  c #7299A3",
"b  c #71A3B0",
"n  c #049EC5",
"m  c #0FA8CE",
"M  c #14A8CD",
"N  c #00A8D3",
"B  c #08ACD6",
"V  c #09AFD9",
"C  c #17AED4",
"Z  c #17B3DA",
"A  c #1AB2D8",
"S  c #20A4C5",
"D  c #25A8C9",
"F  c #28B5D8",
"G  c #00B4E1",
"H  c #44A7C0",
"J  c #48ADC6",
"K  c #59B4CB",
"L  c #76BCCE",
"P  c #7DC2D3",
"I  c #57D2F1",
"U  c #63CDE7",
"Y  c #75D2E9",
"T  c #838383",
"R  c #8C8C8C",
"E  c #908F8F",
"W  c #949494",
"Q  c #9B9B9B",
"!  c #B28787",
"~  c #AB9C9C",
"^  c #B39494",
"/  c #92A4A9",
"(  c #94ADB3",
")  c #A3A3A3",
"_  c #ABABAB",
"`  c #B9ABAB",
"'  c #B3B3B3",
"]  c #BCBCBC",
"[  c #C6BDBD",
"{  c #FAA1A1",
"}  c #F1AEAE",
"|  c #92BBC5",
" . c #A0BEC5",
".. c #AEBEC2",
"X. c #98C8D4",
"o. c #93D3E3",
"O. c #B9D9E1",
"+. c #A2E2F1",
"@. c #C4C4C4",
"#. c #C3C8C9",
"$. c #CCCBCB",
"%. c #D4D3D3",
"&. c #DDDDDD",
"*. c #E0DFDF",
"=. c #DFF5FA",
"-. c #E6E6E6",
";. c #E7E8E8",
":. c #E8E8E8",
">. c #E6F3F6",
",. c #E3F8FD",
"<. c #F0FBFE",
"1. c None",
/* pixels */
"1.1.1.1.1.1.1.1.1.1.1.1.1.1.1.1.1.1.1.1.1.1.1.1.1.1.1.1.1.1.1.1.1.1.1.1.1.1.1.1.1.1.1.1.1.1.1.1.1.1.1.1.1.1.1.1.1.1.1.1.1.1.1.1.",
"1.1.1.1.1.1.1.1.1.1.1.1.1.1.1.1.1.1.1.1.1.1.1.1.1.1.1.1.1.1.1.1.1.1.1.1.1.1.1.1.1.1.1.1.1.1.1.1.1.1.1.1.1.1.1.1.1.1.1.1.1.1.1.1.",
"1.1.1.1.1.1.1.1.1.1.1.1.1.1.1.1.1.1.1.1.1.1.1.1.1.1.1.1.1.1.1.1.1.1.1.1.1.1.1.1.1.1.1.1.1.1.1.1.1.1.1.1.1.1.1.1.1.1.1.1.1.1.1.1.",
"1.1.1.1.1.1.1.1.1.1.1.1.1.1.1.1.1.1.1.1.1.1.1.1.1.1.1.1.1.1.1.1.1.1.1.1.1.1.1.1.1.1.1.1.1.1.1.1.1.1.1.1.1.1.1.1.1.1.1.1.1.1.1.1.",
"1.1.1.1.1.1.1.1.1.1.1.1.1.1.1.1.1.1.1.1.1.1.1.1.1.1.1.1.1.1.1.1.1.1.1.1.1.1.1.1.1.1.1.1.1.1.1.1.1.1.1.1.1.1.1.1.1.1.1.1.1.1.1.1.",
"1.1.1.1.1.1.1.1.1.1.1.1.1.1.1.1.1.1.1.1.1.1.1.1.1.1.1.1.1.1.1.1.1.1.1.1.1.1.1.1.1.1.1.. X X . 1.1.1.1.1.1.1.1.1.1.1.1.1.1.1.1.1.",
"1.1.1.1.1.1.1.1.1.1.1.1.1.1.1.1.1.1.1.1.1.1.1.1.1.1.1.1.1.1.1.1.1.1.1.1.1.1.1.1.1.. O # # # O 1.1.1.1.1.1.1.1.1.1.1.1.1.1.1.1.1.",
"1.1.1.1.1.1.1.1.1.1.1.1.1.1.1.1.1.1.1.1.1.. + @ O . 1.1.1.1.1.1.1.1.1.1.1.1.1.1.X # $ @ @ @ O   1.1.1.1.1.1.1.1.1.1.1.1.1.1.1.1.",
"1.1.1.1.1.1.1.1.1.1.1.1.1.1.1.1.1.1.1.1.1.X $ % % & # . 1.1.1.1.1.1.1.1.1.1.1.o 2 2 > > @ @ + . 1.1.1.1.1.1.1.1.1.1.1.1.1.1.1.1.",
"1.1.1.1.1.1.1.1.1.1.1.1.1.1.1.1.1.1.1.1.1.O % @ # & 5 % . 1.1.1.1.1.1.1.1.1.X , ' ] $.#.& @ + . 1.1.1.1.1.1.1.1.1.1.1.1.1.1.1.1.",
"1.1.1.1.1.1.1.1.1.1.1.1.1.1.1.1.1.1.1.1.1.* ] R % * 3 W % 1.1.1.1.1.1.1.1.1.* ' $.$.%.&.7 @ + . 1.1.1.1.1.1.1.1.1.1.1.1.1.1.1.1.",
"1.1.1.1.1.1.1.1.1.1.1.1.1.1.1.1.1.1.1.1.1., &.-.' T T R R @ 1.1.1.1.1.1.1.1.) $.%.*.-.:.Q @ + . 1.1.1.1.1.1.1.1.1.1.1.1.1.1.1.1.",
"1.1.1.1.1.1.1.1.1.1.1.1.1.1.1.1.1.1.1.1.1.2 &.-.;.#.R w W 2 X 1.1.1.1.1.1.1.#.%.-.-.-.:.' # + X 1.1.1.1.1.1.1.1.1.1.1.1.1.1.1.1.",
"1.1.1.1.1.1.1.1.1.1.1.1.1.1.1.1.1.1.1.1.1.3 -.-.-.-.' T 2 * X . O + X . o W $.&.-.-.-.:.@.> # o 1.1.1.1.1.1.1.1.1.1.1.1.1.1.1.1.",
"1.1.1.1.1.1.1.1.1.1.1.1.1.1.1.1.1.1.1.1.1.3 *.-.-.:.$.& o $ # @ 2 2 @ @ , ] %.-.-.-.-.-.@.T * + 1.1.1.1.1.1.1.1.1.1.1.1.1.1.1.1.",
"1.1.1.1.1.1.1.1.1.1.1.1.1.1.1.1.1.1.1.1.1.2 -.-.:.] % O + 2 * # 2 > @ $ T ] -.-.-.-.-.:.#.T , + 1.1.1.1.1.1.1.1.1.1.1.1.1.1.1.1.",
"1.1.1.1.1.1.1.1.1.1.1.1.1.1.1.1.1.1.1.1.1., &.:.' @ * & @ > * # 3 * @ * 2 _ -.-.-.-.-.:.] T > + 1.1.1.1.1.1.1.1.1.1.1.1.1.1.1.1.",
"1.1.1.1.1.1.1.1.1.1.1.1.1.1.1.1.1.1.1.1.1.* *.#.# O > , @ > > $ k & @ , & E -.;.-.-.-.-._ 3 > o 1.1.1.1.1.1.1.1.1.1.1.1.1.1.1.1.",
"1.1.1.1.1.1.1.1.1.1.1.1.1.1.1.1.1.1.1.1.1.% $.* * % $ 2 @ * , & k % # 2 # 2 &.;.-.;.-.-.) 2 * X 1.1.1.1.1.1.1.1.1.1.1.1.1.1.1.1.",
"1.1.1.1.1.1.1.1.1.1.1.1.1.1.1.1.1.1.1.1.1.@ 2 % W , # 2 % * , > k # * > $ 3 #.:.-.-.-.&.W , % . 1.1.1.1.1.1.1.1.1.1.1.1.1.1.1.1.",
"1.1.1.1.1.1.1.1.1.1.1.1.1.1.1.1.1.1.1.1.1.. + T W 5 % > * * 2 2 5 # , & , T ~ *.:.-.:.#.T , #   1.1.1.1.1.1.1.1.1.1.1.1.1.1.1.1.",
"1.1.1.1.1.1.1.1.1.1.1.1.1.1.1.1.1.1.1.1.1.1.% W T T , * , * T 7 3 & < , T T k _ *.;.*.) 2 > O 1.1.1.1.1.1.1.1.1.1.1.1.1.1.1.1.1.",
"1.1.1.1.1.1.1.1.1.1.1.1.1.1.1.1.1.1.1.1.1.X 5 W T T T > 2 > T T , > 3 T T T T T Q ' ) T , & . 1.1.1.1.1.1.1.1.1.1.1.1.1.1.1.1.1.",
"1.1.1.1.1.1.1.1.1.1.1.1.1.1.1.1.1.1.1.1.1.# W T T T T 3 3 2 T T 2 2 T T T T T T 7 T 7 2 > @ X 1.1.1.1.1.1.1.1.1.1.1.1.1.1.1.1.1.",
"1.1.1.1.1.1.1.1.1.1.1.1.1.1.1.1.1.1.1.1.1.* W T T T T T T T T T 2 T T T T T T T T T 5 $ O O & . 1.1.1.1.1.1.1.1.1.1.1.1.1.1.1.1.",
"1.1.1.1.1.1.1.1.1.1.1.1.1.1.1.1.1.1.1.1.X 3 R T T T T T T T T T T T T T T T T T T T T 2 & , 3 O 1.1.1.1.1.1.1.1.1.1.1.1.1.1.1.1.",
"1.1.1.1.1.1.1.1.1.1.1.1.1.1.1.1.1.1.1.1.+ R T T T T T T T T T T T T T T T T T T T T w R T T T # 1.1.1.1.1.1.1.1.1.1.1.1.1.1.1.1.",
"1.1.1.1.1.1.1.1.1.1.1.1.1.1.1.1.1.1.1.1.$ W T T T T T T T T T T T T T T T T 5 3 7 T T T T T T &   1.1.1.1.1.1.1.1.1.1.1.1.1.1.1.",
"1.1.1.1.1.1.1.1.1.1.1.1.1.1.1.1.1.1.1.1.& W 2 2 5 T T T T T T T T T T T T < e : , 3 k T T T T 5 + 1.1.1.1.1.1.1.1.1.1.1.1.1.1.1.",
"1.1.1.1.1.1.1.1.1.1.1.1.1.1.1.1.1.1.1.. , 5 l f p 4 T T T T T T T T T T r | Y C g , r T T T T T , X 1.1.1.1.1.1.1.1.1.1.1.1.1.1.",
"1.1.1.1.1.1.1.1.1.1.1.1.1.1.1.1.1.1.1.# T v =.+.V s T T T T T T T T T 7 c ,.>.D C - 3 T T T T T T %   1.1.1.1.1.1.1.1.1.1.1.1.1.",
"1.1.1.1.1.1.1.1.1.1.1.1.1.1.1.1.1.1.. , r K <.O.u M j R ) ' #.@.] ) E 7 f o.X.y V e 2 T T 3 3 T T , O 1.1.1.1.1.1.1.1.1.1.1.1.1.",
"1.1.1.1.1.1.1.1.1.1.1.1.1.1.1.1.1.1.o > < S H a f A / ' ~ ^ ` &.-.-.%._ x n t L U ; 3 T T 2 & % % % o 1.1.1.1.1.1.1.1.1.1.1.1.1.",
"1.1.1.1.1.1.1.1.1.1.1.1.1.1.1.1.1.1.X & 2 s N n +.X.#.^ } { 9 ` :.-.-.-. .A G I b , T T T 3 2 & O X 1.1.1.1.1.1.1.1.1.1.1.1.1.1.",
"1.1.1.1.1.1.1.1.1.1.1.1.1.1.1.1.1.1.  # , 1 d Z J ..&.! 0 q 8 [ ;.-.-.:.-.( z h < 7 T 2 2 3 $ $ +   1.1.1.1.1.1.1.1.1.1.1.1.1.1.",
"1.1.1.1.1.1.1.1.1.1.1.1.1.1.1.1.1.1.1.X & & 2 4 _ -.;.%.~ 6 $.-.-.-.-.-.-.%.R 7 T T T 2 $ = & X   1.1.1.1.1.1.1.1.1.1.1.1.1.1.1.",
"1.1.1.1.1.1.1.1.1.1.1.1.1.1.1.1.1.1.1.1.X $ 2 k $.;.-.*._ = @.%.-.-.-.-.-.*.~ k T 3 2 , @ + + . 1.1.1.1.1.1.1.1.1.1.1.1.1.1.1.1.",
"1.1.1.1.1.1.1.1.1.1.1.1.1.1.1.1.1.1.1.1.1.+ = , ] *.-.@.R Q 5 @.-.-.-.-.*.*.W , , , , = @ . 1.1.1.1.1.1.1.1.1.1.1.1.1.1.1.1.1.1.",
"1.1.1.1.1.1.1.1.1.1.1.1.1.1.1.1.1.1.1.1.1.1.O & W $.%.%.%.&.%.%.%.$.$.%.$.$.5 > * & # o . 1.1.1.1.1.1.1.1.1.1.1.1.1.1.1.1.1.1.1.",
"1.1.1.1.1.1.1.1.1.1.1.1.1.1.1.1.1.1.1.1.1.1.1.X @ k ' @.$.$.%.$.$.#.] ' ) k # + o . 1.1.1.1.1.1.1.1.1.1.1.1.1.1.1.1.1.1.1.1.1.1.",
"1.1.1.1.1.1.1.1.1.1.1.1.1.1.1.1.1.1.1.1.1.1.1.1.1.. O $ & * * * & & $ @ @ X 1.1.1.1.1.1.1.1.1.1.1.1.1.1.1.1.1.1.1.1.1.1.1.1.1.1.",
"1.1.1.1.1.1.1.1.1.1.1.1.1.1.1.1.1.1.1.1.1.1.1.1.1.1.1.o % # % ) ' [ _ 3 2 > * + 1.1.1.1.1.1.1.1.1.1.1.1.1.1.1.1.1.1.1.1.1.1.1.1.",
"1.1.1.1.1.1.1.1.1.1.1.1.1.1.1.1.1.1.1.1.1.1.1.1.1.1.@ 3 T $ ' :.;.;.&.E = , k 5 $ 1.1.1.1.1.1.1.1.1.1.1.1.1.1.1.1.1.1.1.1.1.1.1.",
"1.1.1.1.1.1.1.1.1.1.1.1.1.1.1.1.1.1.1.1.1.1.1.1.1.@ 5 T * % &.-.;.-.-.' , $ * k T % 1.1.1.1.1.1.1.1.1.1.1.1.1.1.1.1.1.1.1.1.1.1.",
"1.1.1.1.1.1.1.1.1.1.1.1.1.1.1.1.1.1.1.1.1.1.1.1.X , R 2 + 5 :.-.-.-.:.$.T 3 # = T T @ 1.1.1.1.1.1.1.1.1.1.1.1.1.1.1.1.1.1.1.1.1.",
"1.1.1.1.1.1.1.1.1.1.1.1.1.1.1.1.1.1.1.1.1.1.1.1.# T k * X ) :.-.;.-.:.%.R 3 $ @ 5 T > 1.1.1.1.1.1.1.1.1.1.1.1.1.1.1.1.1.1.1.1.1.",
"1.1.1.1.1.1.1.1.1.1.1.1.1.1.1.1.1.1.1.1.1.1.1.1., ) 5 @ O [ :.-.-.;.-.&.W 3 % o > T W O 1.1.1.1.1.1.1.1.1.1.1.1.1.1.1.1.1.1.1.1.",
"1.1.1.1.1.1.1.1.1.1.1.1.1.1.1.1.1.1.1.1.1.1.1.1.% [ W o @ #.:.-.-.-.;.&.Q 2 & o * ] ) $ + 1.1.1.1.1.1.1.1.1.1.1.1.1.1.1.1.1.1.1.",
"1.1.1.1.1.1.1.1.1.1.1.1.1.1.1.1.1.1.1.1.1.1.1.1.1.# # 1.@ #.-.-.-.-.-.-.W 3 % O @ , # 2 % 1.1.1.1.1.1.1.1.1.1.1.1.1.1.1.1.1.1.1.",
"1.1.1.1.1.1.1.1.1.1.1.1.1.1.1.1.1.1.1.1.1.1.1.1.1.1.1.1.+ ) :.-.-.-.;.$.R 3 * X 1.1.1.> 2 + X 1.1.1.1.1.1.1.1.1.1.1.1.1.1.1.1.1.",
"1.1.1.1.1.1.1.1.1.1.1.1.1.1.1.1.1.1.1.1.1.1.1.1.1.1.1.1.1.> @.-.;.-.%.Q k , # 1.1.1.1.$ , $ @ + 1.1.1.1.1.1.1.1.1.1.1.1.1.1.1.1.",
"1.1.1.1.1.1.1.1.1.1.1.1.1.1.1.1.1.1.1.1.1.1.1.1.1.1.1.1.1.+ , W _ ) T , T k @ 1.1.1.1.O $ # @ @ o 1.1.1.1.1.1.1.1.1.1.1.1.1.1.1.",
"1.1.1.1.1.1.1.1.1.1.1.1.1.1.1.1.1.1.1.1.1.1.1.1.1.1.1.1.@ > @ % * > % * T W , 1.1.1.1.1.o @ @ + 1.1.1.1.1.1.1.1.1.1.1.1.1.1.1.1.",
"1.1.1.1.1.1.1.1.1.1.1.1.1.1.1.1.1.1.1.1.1.1.1.1.1.1.1.1.* Q , $ + + O , T R R + 1.1.1.1.1.X X . 1.1.1.1.1.1.1.1.1.1.1.1.1.1.1.1.",
"1.1.1.1.1.1.1.1.1.1.1.1.1.1.1.1.1.1.1.1.1.1.1.1.1.1.1.1.2 W T T # 1.o , T R Q $ 1.1.1.1.1.1.1.1.1.1.1.1.1.1.1.1.1.1.1.1.1.1.1.1.",
"1.1.1.1.1.1.1.1.1.1.1.1.1.1.1.1.1.1.1.1.1.1.1.1.1.1.1.+ R W T T $ 1.o , T T Q > 1.1.1.1.1.1.1.1.1.1.1.1.1.1.1.1.1.1.1.1.1.1.1.1.",
"1.1.1.1.1.1.1.1.1.1.1.1.1.1.1.1.1.1.1.1.1.1.1.1.1.1.1.# W R T 5 # 1.o > T T Q 2 1.1.1.1.1.1.1.1.1.1.1.1.1.1.1.1.1.1.1.1.1.1.1.1.",
"1.1.1.1.1.1.1.1.1.1.1.1.1.1.1.1.1.1.1.1.1.1.1.1.1.1.1.% Q R T 2 @ 1.1.* T T W T o 1.1.1.1.1.1.1.1.1.1.1.1.1.1.1.1.1.1.1.1.1.1.1.",
"1.1.1.1.1.1.1.1.1.1.1.1.1.1.1.1.1.1.1.1.1.1.1.1.1.1.1.> Q T T 2 + 1.1.& 5 T R R @ 1.1.1.1.1.1.1.1.1.1.1.1.1.1.1.1.1.1.1.1.1.1.1.",
"1.1.1.1.1.1.1.1.1.1.1.1.1.1.1.1.1.1.1.1.1.1.1.1.1.1.1.3 _ R T , O 1.1.% T T Q _ # 1.1.1.1.1.1.1.1.1.1.1.1.1.1.1.1.1.1.1.1.1.1.1.",
"1.1.1.1.1.1.1.1.1.1.1.1.1.1.1.1.1.1.1.1.1.1.1.1.1.1.1.% _ ] ' 5 1.1.1.$ ) ] ' , 1.1.1.1.1.1.1.1.1.1.1.1.1.1.1.1.1.1.1.1.1.1.1.1.",
"1.1.1.1.1.1.1.1.1.1.1.1.1.1.1.1.1.1.1.1.1.1.1.1.1.1.1.1.+ * & O 1.1.1.1.+ % # 1.1.1.1.1.1.1.1.1.1.1.1.1.1.1.1.1.1.1.1.1.1.1.1.1.",
"1.1.1.1.1.1.1.1.1.1.1.1.1.1.1.1.1.1.1.1.1.1.1.1.1.1.1.1.1.1.1.1.1.1.1.1.1.1.1.1.1.1.1.1.1.1.1.1.1.1.1.1.1.1.1.1.1.1.1.1.1.1.1.1.",
"1.1.1.1.1.1.1.1.1.1.1.1.1.1.1.1.1.1.1.1.1.1.1.1.1.1.1.1.1.1.1.1.1.1.1.1.1.1.1.1.1.1.1.1.1.1.1.1.1.1.1.1.1.1.1.1.1.1.1.1.1.1.1.1."
};
