/* XPM */
static char *Idle__8__left[] = {
/* columns rows colors chars-per-pixel */
"64 64 116 2 ",
"   c #050505",
".  c #0C0C0C",
"X  c #131313",
"o  c #1C1C1C",
"O  c #232323",
"+  c #2B2B2B",
"@  c #343434",
"#  c #3C3C3C",
"$  c #434343",
"%  c #4B4B4B",
"&  c #545454",
"*  c #5B5B5B",
"=  c #56757C",
"-  c #646464",
";  c #666A6B",
":  c #6B6C6C",
">  c #637377",
",  c #6D7173",
"<  c #69777B",
"1  c #747474",
"2  c #797676",
"3  c #7B7877",
"4  c #737C7E",
"5  c #7C7C7C",
"6  c #817F7F",
"7  c #B27474",
"8  c #C66767",
"9  c #C16D6D",
"0  c #DE7575",
"q  c #81807F",
"w  c #4F7A85",
"e  c #4C7E8A",
"r  c #577D86",
"t  c #627F86",
"y  c #0082A3",
"u  c #088DAF",
"i  c #1684A0",
"p  c #178BA9",
"a  c #1799B9",
"s  c #368FA5",
"d  c #259FBD",
"f  c #2E9FBC",
"g  c #379CB6",
"h  c #4D828F",
"j  c #4A8897",
"k  c #488C9D",
"l  c #588792",
"z  c #728083",
"x  c #7B8081",
"c  c #70858B",
"v  c #5D9BAB",
"b  c #559FB2",
"n  c #6B9AA6",
"m  c #50A1B6",
"M  c #6EA1AE",
"N  c #7EAEB9",
"B  c #00A3CC",
"V  c #0BABD4",
"C  c #05B2DE",
"Z  c #16B4DC",
"A  c #22A0C0",
"S  c #2DA4C3",
"D  c #2CB0D1",
"F  c #03B8E5",
"G  c #42ACC6",
"H  c #4CBCD7",
"J  c #40BEDD",
"K  c #66B8CC",
"L  c #7FBBCB",
"P  c #6FC3D9",
"I  c #7EC2D4",
"U  c #44CAEB",
"Y  c #76D2E9",
"T  c #838383",
"R  c #8B8B8B",
"E  c #928F8E",
"W  c #949494",
"Q  c #9A9A9A",
"!  c #B88E8E",
"~  c #AF9494",
"^  c #B39696",
"/  c #B29898",
"(  c #9EB1B6",
")  c #A2A2A2",
"_  c #AAAAAA",
"`  c #B7A3A3",
"'  c #B7AFAF",
"]  c #A9B5B8",
"[  c #B4B4B4",
"{  c #BAB8B7",
"}  c #BCBCBC",
"|  c #FFA2A2",
" . c #FCAEAE",
".. c #89BECB",
"X. c #B5C7CB",
"o. c #BFC7C9",
"O. c #A1C7D1",
"+. c #A1CDD8",
"@. c #85DDF3",
"#. c #95DFF2",
"$. c #C4C4C4",
"%. c #CCC7C7",
"&. c #CBCBCB",
"*. c #CFD0D0",
"=. c #D3D3D3",
"-. c #DCDCDC",
";. c #C6E8F1",
":. c #CBE9F1",
">. c #DCF6FD",
",. c #E6E6E6",
"<. c #E8E7E7",
"1. c #E7E8E8",
"2. c #E8E8E8",
"3. c #EDF5F7",
"4. c #F2FDFF",
"5. c None",
/* pixels */
"5.5.5.5.5.5.5.5.5.5.5.5.5.5.5.5.5.5.5.5.5.5.5.5.5.5.5.5.5.5.5.5.5.5.5.5.5.5.5.5.5.5.5.5.5.5.5.5.5.5.5.5.5.5.5.5.5.5.5.5.5.5.5.5.",
"5.5.5.5.5.5.5.5.5.5.5.5.5.5.5.5.5.5.5.5.5.5.5.5.5.5.5.5.5.5.5.5.5.5.5.5.5.5.5.5.5.5.5.5.5.5.5.5.5.5.5.5.5.5.5.5.5.5.5.5.5.5.5.5.",
"5.5.5.5.5.5.5.5.5.5.5.5.5.5.5.5.5.5.5.5.5.5.5.5.5.5.5.5.5.5.5.5.5.5.5.5.5.5.5.5.5.5.5.5.5.5.5.5.5.5.5.5.5.5.5.5.5.5.5.5.5.5.5.5.",
"5.5.5.5.5.5.5.5.5.5.5.5.5.5.5.5.5.5.5.5.5.5.5.5.5.5.5.5.5.5.5.5.5.5.5.5.5.5.5.5.5.5.5.5.5.5.5.5.5.5.5.5.5.5.5.5.5.5.5.5.5.5.5.5.",
"5.5.5.5.5.5.5.5.5.5.5.5.5.5.5.5.5.5.5.5.5.5.5.5.5.5.5.5.5.5.5.5.5.5.5.5.5.5.5.5.5.5.5.5.5.5.5.5.5.5.5.5.5.5.5.5.5.5.5.5.5.5.5.5.",
"5.5.5.5.5.5.5.5.5.5.5.5.5.5.5.5.5.5.5.5.5.5.5.5.5.5.5.5.5.5.5.5.5.5.5.5.5.5.5.5.5.5.. X O O . 5.5.5.5.5.5.5.5.5.5.5.5.5.5.5.5.5.",
"5.5.5.5.5.5.5.5.5.5.5.5.5.5.5.5.5.5.5.5.5.5.. .   5.5.5.5.5.5.5.5.5.5.5.5.5.5.5.5.X @ $ # # o 5.5.5.5.5.5.5.5.5.5.5.5.5.5.5.5.5.",
"5.5.5.5.5.5.5.5.5.5.5.5.5.5.5.5.5.5.5.5.5.5.@ $ # + . 5.5.5.5.5.5.5.5.5.5.5.5.5.+ $ # @ @ @ O   5.5.5.5.5.5.5.5.5.5.5.5.5.5.5.5.",
"5.5.5.5.5.5.5.5.5.5.5.5.5.5.5.5.5.5.5.5.5.. @ $ % * - O 5.5.5.5.5.5.5.5.5.5.5.@ T 6 R 3 # @ +   5.5.5.5.5.5.5.5.5.5.5.5.5.5.5.5.",
"5.5.5.5.5.5.5.5.5.5.5.5.5.5.5.5.5.5.5.5.5.O : & @ $ : 5 O 5.5.5.5.5.5.5.5.5.O T } &.*.$.& @ O . 5.5.5.5.5.5.5.5.5.5.5.5.5.5.5.5.",
"5.5.5.5.5.5.5.5.5.5.5.5.5.5.5.5.5.5.5.5.5.# $.$.1 * 1 W 3 o 5.5.5.5.5.5.5.5.; o.&.&.-.,.3 + + . 5.5.5.5.5.5.5.5.5.5.5.5.5.5.5.5.",
"5.5.5.5.5.5.5.5.5.5.5.5.5.5.5.5.5.5.5.5.5.$ =.<.-.) T R W * 5.5.5.5.5.5.5.5._ &.=.,.<.<.W @ O X 5.5.5.5.5.5.5.5.5.5.5.5.5.5.5.5.",
"5.5.5.5.5.5.5.5.5.5.5.5.5.5.5.5.5.5.5.5.5.& =.,.1.-.) T R E + 5.5.5.5.5.5.W %.=.<.<.,.1._ $ + X 5.5.5.5.5.5.5.5.5.5.5.5.5.5.5.5.",
"5.5.5.5.5.5.5.5.5.5.5.5.5.5.5.5.5.5.5.5.5.* =.,.<.1.=.R : $ o X + $ O X O Q =.-.<.<.<.,.$.1 $ O 5.5.5.5.5.5.5.5.5.5.5.5.5.5.5.5.",
"5.5.5.5.5.5.5.5.5.5.5.5.5.5.5.5.5.5.5.5.5.& -.,.,.<.$.% o $ & @ : T # @ : $.=.,.,.,.<.<.$.T - + 5.5.5.5.5.5.5.5.5.5.5.5.5.5.5.5.",
"5.5.5.5.5.5.5.5.5.5.5.5.5.5.5.5.5.5.5.5.5.& =.<.<._ $ @ + - : @ : : @ # 5 } ,.<.,.,.,.<.$.T : + 5.5.5.5.5.5.5.5.5.5.5.5.5.5.5.5.",
"5.5.5.5.5.5.5.5.5.5.5.5.5.5.5.5.5.5.5.5.5.% =.2._ + & : @ & : # 2 - @ % , _ ,.,.,.,.,.<.} 5 : + 5.5.5.5.5.5.5.5.5.5.5.5.5.5.5.5.",
"5.5.5.5.5.5.5.5.5.5.5.5.5.5.5.5.5.5.5.5.5.# =.} # + % 1 # & : $ 5 * @ : & R -.<.,.<.,.<.[ 2 - o 5.5.5.5.5.5.5.5.5.5.5.5.5.5.5.5.",
"5.5.5.5.5.5.5.5.5.5.5.5.5.5.5.5.5.5.5.5.5.@ [ & ; * # 1 $ & , % T % $ 1 # ; -.<.,.,.<.,.) 1 * X 5.5.5.5.5.5.5.5.5.5.5.5.5.5.5.5.",
"5.5.5.5.5.5.5.5.5.5.5.5.5.5.5.5.5.5.5.5.5.o & & Q 3 # ; & & 1 - T % & ; $ 3 } 2.,.<.<.-.W : % . 5.5.5.5.5.5.5.5.5.5.5.5.5.5.5.5.",
"5.5.5.5.5.5.5.5.5.5.5.5.5.5.5.5.5.5.5.5.5.5.O T W T * * - & 3 1 5 $ ; & : T W =.<.<.<.%.6 : #   5.5.5.5.5.5.5.5.5.5.5.5.5.5.5.5.",
"5.5.5.5.5.5.5.5.5.5.5.5.5.5.5.5.5.5.5.5.5.5.& W T T 3 & , * T q 3 & 1 : T T T Q *.,.-.) 1 : + 5.5.5.5.5.5.5.5.5.5.5.5.5.5.5.5.5.",
"5.5.5.5.5.5.5.5.5.5.5.5.5.5.5.5.5.5.5.5.5.X 5 W T T T : 1 - x T 1 - 6 T T T T T R Q W x : & X 5.5.5.5.5.5.5.5.5.5.5.5.5.5.5.5.5.",
"5.5.5.5.5.5.5.5.5.5.5.5.5.5.5.5.5.5.5.5.5.# W T T T T x 3 2 T T 1 1 T T T T T T T T T , - + X 5.5.5.5.5.5.5.5.5.5.5.5.5.5.5.5.5.",
"5.5.5.5.5.5.5.5.5.5.5.5.5.5.5.5.5.5.5.5.5.* W T T T T T T T T T 3 5 T T T T T T T T T & O + * X 5.5.5.5.5.5.5.5.5.5.5.5.5.5.5.5.",
"5.5.5.5.5.5.5.5.5.5.5.5.5.5.5.5.5.5.5.5.X 3 R T T T T T T T T T T T T T T T T T T T T x , 1 5 + 5.5.5.5.5.5.5.5.5.5.5.5.5.5.5.5.",
"5.5.5.5.5.5.5.5.5.5.5.5.5.5.5.5.5.5.5.5.+ R T T T T T T T T T T T T T T T T T T T T T T T T T $ 5.5.5.5.5.5.5.5.5.5.5.5.5.5.5.5.",
"5.5.5.5.5.5.5.5.5.5.5.5.5.5.5.5.5.5.5.5.# W T T T T T T T T T T T T T T T T 3 2 5 T T T T T T - . 5.5.5.5.5.5.5.5.5.5.5.5.5.5.5.",
"5.5.5.5.5.5.5.5.5.5.5.5.5.5.5.5.5.5.5.5.& R , > 1 T T T T T T T T T T T 6 < h r ; 3 T T T T T T @ 5.5.5.5.5.5.5.5.5.5.5.5.5.5.5.",
"5.5.5.5.5.5.5.5.5.5.5.5.5.5.5.5.5.5.5.X 2 4 N H d t T T T T T T T T T T z O.#.Z s ; 5 T T T T T 1 o 5.5.5.5.5.5.5.5.5.5.5.5.5.5.",
"5.5.5.5.5.5.5.5.5.5.5.5.5.5.5.5.5.5.5.$ T M 4.;.V d 5 T T R R R T T T 6 v >.3.S V = 2 T T T T T T & . 5.5.5.5.5.5.5.5.5.5.5.5.5.",
"5.5.5.5.5.5.5.5.5.5.5.5.5.5.5.5.5.5.X , 4 G :.+.u V c Q _ } &.=.&.[ Q x g P L p V e 1 T T 1 1 5 T 1 O 5.5.5.5.5.5.5.5.5.5.5.5.5.",
"5.5.5.5.5.5.5.5.5.5.5.5.5.5.5.5.5.5.o & , A a i K D ( ' / ! ~ =.2.2.-.} m B y I Y = 3 T T 1 * $ $ $ o 5.5.5.5.5.5.5.5.5.5.5.5.5.",
"5.5.5.5.5.5.5.5.5.5.5.5.5.5.5.5.5.5.X % 1 k C V @...%.!  .| 0 ` 1.<.<.<.X.D F U n , T T T 3 1 & + . 5.5.5.5.5.5.5.5.5.5.5.5.5.5.",
"5.5.5.5.5.5.5.5.5.5.5.5.5.5.5.5.5.5.5.+ ; ; j f m &.,.^ 9 8 7 &.1.,.,.,.<.] l r 1 x T 1 : 2 $ $ +   5.5.5.5.5.5.5.5.5.5.5.5.5.5.",
"5.5.5.5.5.5.5.5.5.5.5.5.5.5.5.5.5.5.5.. # % 3 3 } 2.<.<.[ 3 -.1.<.<.<.,.<.-.E 6 T T T 3 $ * & X   5.5.5.5.5.5.5.5.5.5.5.5.5.5.5.",
"5.5.5.5.5.5.5.5.5.5.5.5.5.5.5.5.5.5.5.5.. $ ; 3 &.<.<.=.Q & ) %.<.,.<.1.<.<.Q T q 3 1 : # O +   5.5.5.5.5.5.5.5.5.5.5.5.5.5.5.5.",
"5.5.5.5.5.5.5.5.5.5.5.5.5.5.5.5.5.5.5.5.5.o & ; [ -.-.%.) } W &.,.,.-.-.-.=.E ; ; - - * @   5.5.5.5.5.5.5.5.5.5.5.5.5.5.5.5.5.5.",
"5.5.5.5.5.5.5.5.5.5.5.5.5.5.5.5.5.5.5.5.5.5.X $ T $.*.=.=.=.=.=.*.*.*.*.*.%.3 - & % @ o   5.5.5.5.5.5.5.5.5.5.5.5.5.5.5.5.5.5.5.",
"5.5.5.5.5.5.5.5.5.5.5.5.5.5.5.5.5.5.5.5.5.5.5.  o * W [ $.$.$.$.} [ _ Q T - + o X   5.5.5.5.5.5.5.5.5.5.5.5.5.5.5.5.5.5.5.5.5.5.",
"5.5.5.5.5.5.5.5.5.5.5.5.5.5.5.5.5.5.5.5.5.5.5.5.5.5.. o @ $ # % % % $ # # X 5.5.5.5.5.5.5.5.5.5.5.5.5.5.5.5.5.5.5.5.5.5.5.5.5.5.",
"5.5.5.5.5.5.5.5.5.5.5.5.5.5.5.5.5.5.5.5.5.5.5.5.5.5.5.# - % * $.*.-.} t 1 1 : $ 5.5.5.5.5.5.5.5.5.5.5.5.5.5.5.5.5.5.5.5.5.5.5.5.",
"5.5.5.5.5.5.5.5.5.5.5.5.5.5.5.5.5.5.5.5.5.5.5.5.5.5.& T 5 # [ 2.<.<.,.E * - 5 T * o 5.5.5.5.5.5.5.5.5.5.5.5.5.5.5.5.5.5.5.5.5.5.",
"5.5.5.5.5.5.5.5.5.5.5.5.5.5.5.5.5.5.5.5.5.5.5.5.5.% T 5 & & -.<.<.<.<.' 1 $ % 2 R - o 5.5.5.5.5.5.5.5.5.5.5.5.5.5.5.5.5.5.5.5.5.",
"5.5.5.5.5.5.5.5.5.5.5.5.5.5.5.5.5.5.5.5.5.5.5.5.+ 5 T ; o 5 <.<.<.<.<.%.T 6 $ % x R % 5.5.5.5.5.5.5.5.5.5.5.5.5.5.5.5.5.5.5.5.5.",
"5.5.5.5.5.5.5.5.5.5.5.5.5.5.5.5.5.5.5.5.5.5.5.5.& R x % X _ 1.<.,.<.<.-.R 1 $ O 1 T 2 o 5.5.5.5.5.5.5.5.5.5.5.5.5.5.5.5.5.5.5.5.",
"5.5.5.5.5.5.5.5.5.5.5.5.5.5.5.5.5.5.5.5.5.5.5.5.5 { 5 O O } 2.<.,.,.<.-.W 3 & X & R _ @ 5.5.5.5.5.5.5.5.5.5.5.5.5.5.5.5.5.5.5.5.",
"5.5.5.5.5.5.5.5.5.5.5.5.5.5.5.5.5.5.5.5.5.5.5.5.# ) 5 5.@ %.,.<.<.,.<.-.Q 1 & O % [ W % @ 5.5.5.5.5.5.5.5.5.5.5.5.5.5.5.5.5.5.5.",
"5.5.5.5.5.5.5.5.5.5.5.5.5.5.5.5.5.5.5.5.5.5.5.5.5.o o 5.@ $.2.<.<.<.2.-.W 5 % O o # + 1 * 5.5.5.5.5.5.5.5.5.5.5.5.5.5.5.5.5.5.5.",
"5.5.5.5.5.5.5.5.5.5.5.5.5.5.5.5.5.5.5.5.5.5.5.5.5.5.5.5.O ) 2.2.<.<.2.&.R 3 & X 5.5.5.* 3 @ O o 5.5.5.5.5.5.5.5.5.5.5.5.5.5.5.5.",
"5.5.5.5.5.5.5.5.5.5.5.5.5.5.5.5.5.5.5.5.5.5.5.5.5.5.5.5.5.* } ,.<.,.=.W 5 ; # 5.5.5.5.# - # # @ X 5.5.5.5.5.5.5.5.5.5.5.5.5.5.5.",
"5.5.5.5.5.5.5.5.5.5.5.5.5.5.5.5.5.5.5.5.5.5.5.5.5.5.5.5.5.+ * R Q W 3 ; T 6 @ 5.5.5.5.5.# @ @ @ X 5.5.5.5.5.5.5.5.5.5.5.5.5.5.5.",
"5.5.5.5.5.5.5.5.5.5.5.5.5.5.5.5.5.5.5.5.5.5.5.5.5.5.5.5.@ ; @ $ * - % * T W ; 5.5.5.5.5.X O + o 5.5.5.5.5.5.5.5.5.5.5.5.5.5.5.5.",
"5.5.5.5.5.5.5.5.5.5.5.5.5.5.5.5.5.5.5.5.5.5.5.5.5.5.5.5.* Q 1 % + O O ; T R R + 5.5.5.5.5.5.5.5.5.5.5.5.5.5.5.5.5.5.5.5.5.5.5.5.",
"5.5.5.5.5.5.5.5.5.5.5.5.5.5.5.5.5.5.5.5.5.5.5.5.5.5.5.5.3 W T T $ 5.o : T R W % 5.5.5.5.5.5.5.5.5.5.5.5.5.5.5.5.5.5.5.5.5.5.5.5.",
"5.5.5.5.5.5.5.5.5.5.5.5.5.5.5.5.5.5.5.5.5.5.5.5.5.5.5.+ R W T T $ 5.o ; T R Q - 5.5.5.5.5.5.5.5.5.5.5.5.5.5.5.5.5.5.5.5.5.5.5.5.",
"5.5.5.5.5.5.5.5.5.5.5.5.5.5.5.5.5.5.5.5.5.5.5.5.5.5.5.$ W E T t # 5.o - T T W 1 5.5.5.5.5.5.5.5.5.5.5.5.5.5.5.5.5.5.5.5.5.5.5.5.",
"5.5.5.5.5.5.5.5.5.5.5.5.5.5.5.5.5.5.5.5.5.5.5.5.5.5.5.% Q E T 2 @ 5.5.- T T W T O 5.5.5.5.5.5.5.5.5.5.5.5.5.5.5.5.5.5.5.5.5.5.5.",
"5.5.5.5.5.5.5.5.5.5.5.5.5.5.5.5.5.5.5.5.5.5.5.5.5.5.5.- W T T 1 + 5.5.% 5 T R E @ 5.5.5.5.5.5.5.5.5.5.5.5.5.5.5.5.5.5.5.5.5.5.5.",
"5.5.5.5.5.5.5.5.5.5.5.5.5.5.5.5.5.5.5.5.5.5.5.5.5.5.5.5 ` R 5 : O 5.5.% T R Q _ # 5.5.5.5.5.5.5.5.5.5.5.5.5.5.5.5.5.5.5.5.5.5.5.",
"5.5.5.5.5.5.5.5.5.5.5.5.5.5.5.5.5.5.5.5.5.5.5.5.5.5.5.$ _ } } 3 5.5.5.$ Q } } : 5.5.5.5.5.5.5.5.5.5.5.5.5.5.5.5.5.5.5.5.5.5.5.5.",
"5.5.5.5.5.5.5.5.5.5.5.5.5.5.5.5.5.5.5.5.5.5.5.5.5.5.5.5.+ * & O 5.5.5.5.+ % @ 5.5.5.5.5.5.5.5.5.5.5.5.5.5.5.5.5.5.5.5.5.5.5.5.5.",
"5.5.5.5.5.5.5.5.5.5.5.5.5.5.5.5.5.5.5.5.5.5.5.5.5.5.5.5.5.5.5.5.5.5.5.5.5.5.5.5.5.5.5.5.5.5.5.5.5.5.5.5.5.5.5.5.5.5.5.5.5.5.5.5.",
"5.5.5.5.5.5.5.5.5.5.5.5.5.5.5.5.5.5.5.5.5.5.5.5.5.5.5.5.5.5.5.5.5.5.5.5.5.5.5.5.5.5.5.5.5.5.5.5.5.5.5.5.5.5.5.5.5.5.5.5.5.5.5.5."
};
