/* XPM */
static char *Idle__9__left[] = {
/* columns rows colors chars-per-pixel */
"64 64 115 2 ",
"   c #040404",
".  c #0B0B0B",
"X  c #131313",
"o  c #1C1C1C",
"O  c #242424",
"+  c #2B2B2B",
"@  c #343434",
"#  c #3C3C3C",
"$  c #434343",
"%  c #4C4C4C",
"&  c #535353",
"*  c #5B5B5B",
"=  c #56747B",
"-  c #646464",
";  c #636C6E",
":  c #6B6B6B",
">  c #647376",
",  c #6F7070",
"<  c #62787D",
"1  c #747474",
"2  c #717778",
"3  c #7C7B7B",
"4  c #817F7E",
"5  c #AA6060",
"6  c #AE7171",
"7  c #E17272",
"8  c #81807F",
"9  c #507A84",
"0  c #5F7980",
"q  c #517D88",
"w  c #607A80",
"e  c #697C80",
"r  c #0982A1",
"t  c #0087AB",
"y  c #0D8CAC",
"u  c #1E8EAA",
"i  c #2999B5",
"p  c #2C9CB8",
"a  c #3899B2",
"s  c #34A2BD",
"d  c #49808E",
"f  c #5A808A",
"g  c #438596",
"h  c #4E8896",
"j  c #4A8C9D",
"k  c #678288",
"l  c #718185",
"z  c #708C93",
"x  c #65919C",
"c  c #569AAA",
"v  c #719AA5",
"b  c #64A6B6",
"n  c #64ADBF",
"m  c #029AC0",
"M  c #16A3C7",
"N  c #18A6CA",
"B  c #03A9D3",
"V  c #0DACD4",
"C  c #14ACD3",
"Z  c #14B1D9",
"A  c #1DB8DF",
"S  c #31A4C1",
"D  c #0AB7E3",
"F  c #04B9E6",
"G  c #43ADC7",
"H  c #4DB6D0",
"J  c #7BB9C9",
"K  c #36C0E2",
"L  c #7FC7DA",
"P  c #5CC6E0",
"I  c #5FCFEB",
"U  c #72D3EB",
"Y  c #838383",
"T  c #888787",
"R  c #898887",
"E  c #8C8C8C",
"W  c #949494",
"Q  c #9A9A9A",
"!  c #AE8585",
"~  c #B28484",
"^  c #B78887",
"/  c #B59F9F",
"(  c #BF9A9A",
")  c #A3A3A3",
"_  c #AAAAAA",
"`  c #B5A8A7",
"'  c #BCADAD",
"]  c #B3B3B3",
"[  c #BCBCBC",
"{  c #CA9292",
"}  c #FF9B9B",
"|  c #FCA2A2",
" . c #90B9C3",
".. c #A9BBC0",
"X. c #8BCBDA",
"o. c #94CFDE",
"O. c #A0CBD5",
"+. c #ADD2DB",
"@. c #85D5E9",
"#. c #B5EBF8",
"$. c #C3C3C3",
"%. c #CAC4C4",
"&. c #CCCCCC",
"*. c #CBD1D2",
"=. c #D2D2D2",
"-. c #DCDCDC",
";. c #D6EBF0",
":. c #D1F3FB",
">. c #E6E6E6",
",. c #E8E7E7",
"<. c #E7E9E9",
"1. c #E8E8E8",
"2. c #F1F6F8",
"3. c #F0FDFF",
"4. c None",
/* pixels */
"4.4.4.4.4.4.4.4.4.4.4.4.4.4.4.4.4.4.4.4.4.4.4.4.4.4.4.4.4.4.4.4.4.4.4.4.4.4.4.4.4.4.4.4.4.4.4.4.4.4.4.4.4.4.4.4.4.4.4.4.4.4.4.4.",
"4.4.4.4.4.4.4.4.4.4.4.4.4.4.4.4.4.4.4.4.4.4.4.4.4.4.4.4.4.4.4.4.4.4.4.4.4.4.4.4.4.4.4.4.4.4.4.4.4.4.4.4.4.4.4.4.4.4.4.4.4.4.4.4.",
"4.4.4.4.4.4.4.4.4.4.4.4.4.4.4.4.4.4.4.4.4.4.4.4.4.4.4.4.4.4.4.4.4.4.4.4.4.4.4.4.4.4.4.4.4.4.4.4.4.4.4.4.4.4.4.4.4.4.4.4.4.4.4.4.",
"4.4.4.4.4.4.4.4.4.4.4.4.4.4.4.4.4.4.4.4.4.4.4.4.4.4.4.4.4.4.4.4.4.4.4.4.4.4.4.4.4.4.4.4.4.4.4.4.4.4.4.4.4.4.4.4.4.4.4.4.4.4.4.4.",
"4.4.4.4.4.4.4.4.4.4.4.4.4.4.4.4.4.4.4.4.4.4.4.4.4.4.4.4.4.4.4.4.4.4.4.4.4.4.4.4.4.4.4.4.    4.4.4.4.4.4.4.4.4.4.4.4.4.4.4.4.4.4.",
"4.4.4.4.4.4.4.4.4.4.4.4.4.4.4.4.4.4.4.4.4.4.4.4.4.4.4.4.4.4.4.4.4.4.4.4.4.4.4.4.4.  X O @ @ . 4.4.4.4.4.4.4.4.4.4.4.4.4.4.4.4.4.",
"4.4.4.4.4.4.4.4.4.4.4.4.4.4.4.4.4.4.4.4.4.4.X O o . 4.4.4.4.4.4.4.4.4.4.4.4.4.4.  O # # # @ o 4.4.4.4.4.4.4.4.4.4.4.4.4.4.4.4.4.",
"4.4.4.4.4.4.4.4.4.4.4.4.4.4.4.4.4.4.4.4.4.4.O % % # + . 4.4.4.4.4.4.4.4.4.4.4.. $ & # @ @ @ o   4.4.4.4.4.4.4.4.4.4.4.4.4.4.4.4.",
"4.4.4.4.4.4.4.4.4.4.4.4.4.4.4.4.4.4.4.4.4.4.+ # # % : & . 4.4.4.4.4.4.4.4.4.4.% W W _ R @ @ O   4.4.4.4.4.4.4.4.4.4.4.4.4.4.4.4.",
"4.4.4.4.4.4.4.4.4.4.4.4.4.4.4.4.4.4.4.4.4.4.4 R $ $ * E & . 4.4.4.4.4.4.4.4.# Q $.&.=.%.& @ O . 4.4.4.4.4.4.4.4.4.4.4.4.4.4.4.4.",
"4.4.4.4.4.4.4.4.4.4.4.4.4.4.4.4.4.4.4.4.4.o _ >.[ : 1 E W # 4.4.4.4.4.4.4.4.4 %.&.=.-.>.1 + + . 4.4.4.4.4.4.4.4.4.4.4.4.4.4.4.4.",
"4.4.4.4.4.4.4.4.4.4.4.4.4.4.4.4.4.4.4.4.4.+ [ >.,.&.E Y W Y o 4.4.4.4.4.4.4.' &.-.,.>.,.W @ O . 4.4.4.4.4.4.4.4.4.4.4.4.4.4.4.4.",
"4.4.4.4.4.4.4.4.4.4.4.4.4.4.4.4.4.4.4.4.4.@ +.>.,.,.[ Y Y W $   4.4.4.4.4.W %.-.,.,.>.<.] & @ X 4.4.4.4.4.4.4.4.4.4.4.4.4.4.4.4.",
"4.4.4.4.4.4.4.4.4.4.4.4.4.4.4.4.4.4.4.4.4.@ %.>.,.,.,.Q * @ O o @ * + o + ) &.>.,.>.>.<.[ 3 % O 4.4.4.4.4.4.4.4.4.4.4.4.4.4.4.4.",
"4.4.4.4.4.4.4.4.4.4.4.4.4.4.4.4.4.4.4.4.4.# &.,.<.<.] $ o $ : @ - Y # @ : +.=.,.>.>.>.>.%.4 : + 4.4.4.4.4.4.4.4.4.4.4.4.4.4.4.4.",
"4.4.4.4.4.4.4.4.4.4.4.4.4.4.4.4.4.4.4.4.4.# $.,.,.W # $ @ & , @ - 1 @ # 3 [ -.,.>.>.>.>.+.4 : + 4.4.4.4.4.4.4.4.4.4.4.4.4.4.4.4.",
"4.4.4.4.4.4.4.4.4.4.4.4.4.4.4.4.4.4.4.4.4.@ $.,.W O % 3 @ % , # 1 : @ % 1 ) >.,.>.>.>.,.[ 3 - + 4.4.4.4.4.4.4.4.4.4.4.4.4.4.4.4.",
"4.4.4.4.4.4.4.4.4.4.4.4.4.4.4.4.4.4.4.4.4.O [ ] # # $ 1 # % 1 $ 3 - @ - * 3 -.,.>.,.>.,.] 3 - o 4.4.4.4.4.4.4.4.4.4.4.4.4.4.4.4.",
"4.4.4.4.4.4.4.4.4.4.4.4.4.4.4.4.4.4.4.4.4.o W & 1 1 @ : % % 1 % 3 * # 1 $ - =.<.>.>.,.>.) 1 * X 4.4.4.4.4.4.4.4.4.4.4.4.4.4.4.4.",
"4.4.4.4.4.4.4.4.4.4.4.4.4.4.4.4.4.4.4.4.4.4.@ & Q Y % * - % 3 - Y % & : $ 1 _ ,.>.,.,.-.W 1 & . 4.4.4.4.4.4.4.4.4.4.4.4.4.4.4.4.",
"4.4.4.4.4.4.4.4.4.4.4.4.4.4.4.4.4.4.4.4.4.4.o E E Y : & 1 % 3 1 l % - * , Y E %.<.>.,.%.Y : $   4.4.4.4.4.4.4.4.4.4.4.4.4.4.4.4.",
"4.4.4.4.4.4.4.4.4.4.4.4.4.4.4.4.4.4.4.4.4.4.& W Y Y Y * 1 * 3 Y 4 & 1 : Y Y Y E ..>.=.) 1 - + 4.4.4.4.4.4.4.4.4.4.4.4.4.4.4.4.4.",
"4.4.4.4.4.4.4.4.4.4.4.4.4.4.4.4.4.4.4.4.4.X Y E Y Y Y 1 1 : Y Y 1 - 4 Y Y Y Y Y R E E Y , * . 4.4.4.4.4.4.4.4.4.4.4.4.4.4.4.4.4.",
"4.4.4.4.4.4.4.4.4.4.4.4.4.4.4.4.4.4.4.4.4.# W E Y Y Y 4 3 3 Y Y 1 1 Y Y Y Y Y Y Y 8 Y : & + o . 4.4.4.4.4.4.4.4.4.4.4.4.4.4.4.4.",
"4.4.4.4.4.4.4.4.4.4.4.4.4.4.4.4.4.4.4.4.4.* W Y Y Y Y Y Y Y Y Y 8 Y Y Y Y Y Y Y Y Y Y : @ @ - o 4.4.4.4.4.4.4.4.4.4.4.4.4.4.4.4.",
"4.4.4.4.4.4.4.4.4.4.4.4.4.4.4.4.4.4.4.4.X 3 E Y Y Y Y Y Y Y Y Y Y Y Y Y Y Y Y Y Y Y Y Y Y 3 Y @ 4.4.4.4.4.4.4.4.4.4.4.4.4.4.4.4.",
"4.4.4.4.4.4.4.4.4.4.4.4.4.4.4.4.4.4.4.4.O E R Y Y Y Y Y Y Y Y Y Y Y Y Y Y Y Y Y Y Y Y Y Y Y Y % 4.4.4.4.4.4.4.4.4.4.4.4.4.4.4.4.",
"4.4.4.4.4.4.4.4.4.4.4.4.4.4.4.4.4.4.4.4.# W 4 4 Y Y Y Y Y Y Y Y Y Y Y Y Y 4 1 1 3 Y Y Y Y Y Y : X 4.4.4.4.4.4.4.4.4.4.4.4.4.4.4.",
"4.4.4.4.4.4.4.4.4.4.4.4.4.4.4.4.4.4.4.4.& E > q < 3 Y Y Y Y Y Y Y Y Y Y 4 e j g ; 1 Y Y Y Y Y Y $ 4.4.4.4.4.4.4.4.4.4.4.4.4.4.4.",
"4.4.4.4.4.4.4.4.4.4.4.4.4.4.4.4.4.4.4.o 3 l O.U C h 8 Y Y Y Y Y Y Y Y Y l +.#.A i ; 3 Y Y Y Y Y 1 O 4.4.4.4.4.4.4.4.4.4.4.4.4.4.",
"4.4.4.4.4.4.4.4.4.4.4.4.4.4.4.4.4.4.4.& l b 3.;.M N l Y R E W W E R l 4 c :.2.s B 9 1 Y Y Y Y Y R * . 4.4.4.4.4.4.4.4.4.4.4.4.4.",
"4.4.4.4.4.4.4.4.4.4.4.4.4.4.4.4.4.4.X : 1 S o.J y V z ) ] [ =.-.-.%._ T a G J u Z q 1 Y 8 1 1 3 4 1 + 4.4.4.4.4.4.4.4.4.4.4.4.4.",
"4.4.4.4.4.4.4.4.4.4.4.4.4.4.4.4.4.4.X % 1 p y r X.P ..` ( { ~ %.,.,.>.%.b V t L @.= 4 Y Y 3 * $ $ $ o 4.4.4.4.4.4.4.4.4.4.4.4.4.",
"4.4.4.4.4.4.4.4.4.4.4.4.4.4.4.4.4.4.. $ 1 f D F I  .*.~ | } 7 / >.,.,.,.*.S D K x , 4 4 Y 1 , * O . 4.4.4.4.4.4.4.4.4.4.4.4.4.4.",
"4.4.4.4.4.4.4.4.4.4.4.4.4.4.4.4.4.4.4.o * - w j v =.,.' 6 5 ! =.,.,.>.>.,.[ k w 1 l Y 1 : 3 $ # +   4.4.4.4.4.4.4.4.4.4.4.4.4.4.",
"4.4.4.4.4.4.4.4.4.4.4.4.4.4.4.4.4.4.4.4.+ $ 1 4 $.<.,.<.$.3 >.<.,.,.,.>.,.>.W Y Y Y Y 3 # & & X   4.4.4.4.4.4.4.4.4.4.4.4.4.4.4.",
"4.4.4.4.4.4.4.4.4.4.4.4.4.4.4.4.4.4.4.4.  # : 1 $.,.,.&.R * Y [ ,.>.>.,.>.>.) 4 3 1 1 : # O O   4.4.4.4.4.4.4.4.4.4.4.4.4.4.4.4.",
"4.4.4.4.4.4.4.4.4.4.4.4.4.4.4.4.4.4.4.4.4.. $ - _ =.-.&.[ &.] =.>.-.-.-.=.=.E ; : - - & +   4.4.4.4.4.4.4.4.4.4.4.4.4.4.4.4.4.4.",
"4.4.4.4.4.4.4.4.4.4.4.4.4.4.4.4.4.4.4.4.4.4.. + - [ &.=.=.=.=.=.&.&.=.=.=.$.1 * & # + X 4.4.4.4.4.4.4.4.4.4.4.4.4.4.4.4.4.4.4.4.",
"4.4.4.4.4.4.4.4.4.4.4.4.4.4.4.4.4.4.4.4.4.4.4.4.. # : W ) ] ] _ _ Q E 3 - $ O X . 4.4.4.4.4.4.4.4.4.4.4.4.4.4.4.4.4.4.4.4.4.4.4.",
"4.4.4.4.4.4.4.4.4.4.4.4.4.4.4.4.4.4.4.4.4.4.4.4.4.4.4.. + @ + % * * & $ $ + o 4.4.4.4.4.4.4.4.4.4.4.4.4.4.4.4.4.4.4.4.4.4.4.4.4.",
"4.4.4.4.4.4.4.4.4.4.4.4.4.4.4.4.4.4.4.4.4.4.4.4.4.4.o & 3 & : -.-.,.$.Y 1 3 3 * O 4.4.4.4.4.4.4.4.4.4.4.4.4.4.4.4.4.4.4.4.4.4.4.",
"4.4.4.4.4.4.4.4.4.4.4.4.4.4.4.4.4.4.4.4.4.4.4.4.4.O : R 1 # [ <.>.<.>.W * & 1 T 1 @ 4.4.4.4.4.4.4.4.4.4.4.4.4.4.4.4.4.4.4.4.4.4.",
"4.4.4.4.4.4.4.4.4.4.4.4.4.4.4.4.4.4.4.4.4.4.4.4.4.- R 3 # & -.<.>.>.>.] 3 % # : Y 3 + 4.4.4.4.4.4.4.4.4.4.4.4.4.4.4.4.4.4.4.4.4.",
"4.4.4.4.4.4.4.4.4.4.4.4.4.4.4.4.4.4.4.4.4.4.4.4.$ Y Y * X Y ,.>.>.>.,.&.Y Y # # 3 E - 4.4.4.4.4.4.4.4.4.4.4.4.4.4.4.4.4.4.4.4.4.",
"4.4.4.4.4.4.4.4.4.4.4.4.4.4.4.4.4.4.4.4.4.4.4.4.1 E 3 @ X _ <.,.>.,.,.-.E , $ X - Y E @ 4.4.4.4.4.4.4.4.4.4.4.4.4.4.4.4.4.4.4.4.",
"4.4.4.4.4.4.4.4.4.4.4.4.4.4.4.4.4.4.4.4.4.4.4.4.Y %.1 X O ..<.,.>.>.<.-.W 3 & o $ Q [ # 4.4.4.4.4.4.4.4.4.4.4.4.4.4.4.4.4.4.4.4.",
"4.4.4.4.4.4.4.4.4.4.4.4.4.4.4.4.4.4.4.4.4.4.4.4.+ 1 & 4.# &.,.,.>.>.,.>.Q 1 % @ # W 3 & @ 4.4.4.4.4.4.4.4.4.4.4.4.4.4.4.4.4.4.4.",
"4.4.4.4.4.4.4.4.4.4.4.4.4.4.4.4.4.4.4.4.4.4.4.4.4.4.4.4.@ $.<.,.,.,.<.-.W 3 % o X X O 1 - 4.4.4.4.4.4.4.4.4.4.4.4.4.4.4.4.4.4.4.",
"4.4.4.4.4.4.4.4.4.4.4.4.4.4.4.4.4.4.4.4.4.4.4.4.4.4.4.4.O Q ,.<.,.<.<.$.E 1 * . 4.4.4.& 1 $ @ + 4.4.4.4.4.4.4.4.4.4.4.4.4.4.4.4.",
"4.4.4.4.4.4.4.4.4.4.4.4.4.4.4.4.4.4.4.4.4.4.4.4.4.4.4.4.4.& ] -.>.>.&.W 3 - # 4.4.4.4.+ & # @ @ o 4.4.4.4.4.4.4.4.4.4.4.4.4.4.4.",
"4.4.4.4.4.4.4.4.4.4.4.4.4.4.4.4.4.4.4.4.4.4.4.4.4.4.4.4.4.O * Y W E 1 - Y Y @ 4.4.4.4.4.O @ @ + . 4.4.4.4.4.4.4.4.4.4.4.4.4.4.4.",
"4.4.4.4.4.4.4.4.4.4.4.4.4.4.4.4.4.4.4.4.4.4.4.4.4.4.4.4.@ 1 @ $ & - % * Y W : 4.4.4.4.4.4.o o X 4.4.4.4.4.4.4.4.4.4.4.4.4.4.4.4.",
"4.4.4.4.4.4.4.4.4.4.4.4.4.4.4.4.4.4.4.4.4.4.4.4.4.4.4.4.* Q 3 & O o o : Y W E + 4.4.4.4.4.4.4.4.4.4.4.4.4.4.4.4.4.4.4.4.4.4.4.4.",
"4.4.4.4.4.4.4.4.4.4.4.4.4.4.4.4.4.4.4.4.4.4.4.4.4.4.4.4.1 W Y Y $ 4.o : Y E Q $ 4.4.4.4.4.4.4.4.4.4.4.4.4.4.4.4.4.4.4.4.4.4.4.4.",
"4.4.4.4.4.4.4.4.4.4.4.4.4.4.4.4.4.4.4.4.4.4.4.4.4.4.4.+ E W Y Y $ 4.o : Y Y Q - 4.4.4.4.4.4.4.4.4.4.4.4.4.4.4.4.4.4.4.4.4.4.4.4.",
"4.4.4.4.4.4.4.4.4.4.4.4.4.4.4.4.4.4.4.4.4.4.4.4.4.4.4.$ W E Y 3 # 4.o - Y Y Q 1 4.4.4.4.4.4.4.4.4.4.4.4.4.4.4.4.4.4.4.4.4.4.4.4.",
"4.4.4.4.4.4.4.4.4.4.4.4.4.4.4.4.4.4.4.4.4.4.4.4.4.4.4.% Q E Y 3 @ 4.4.* Y Y W Y O 4.4.4.4.4.4.4.4.4.4.4.4.4.4.4.4.4.4.4.4.4.4.4.",
"4.4.4.4.4.4.4.4.4.4.4.4.4.4.4.4.4.4.4.4.4.4.4.4.4.4.4.- W Y Y 1 + 4.4.% 3 Y E E @ 4.4.4.4.4.4.4.4.4.4.4.4.4.4.4.4.4.4.4.4.4.4.4.",
"4.4.4.4.4.4.4.4.4.4.4.4.4.4.4.4.4.4.4.4.4.4.4.4.4.4.4.3 _ E 3 : O 4.4.% Y E Q _ # 4.4.4.4.4.4.4.4.4.4.4.4.4.4.4.4.4.4.4.4.4.4.4.",
"4.4.4.4.4.4.4.4.4.4.4.4.4.4.4.4.4.4.4.4.4.4.4.4.4.4.4.$ _ $.] 3 4.4.4.$ ) [ ] : 4.4.4.4.4.4.4.4.4.4.4.4.4.4.4.4.4.4.4.4.4.4.4.4.",
"4.4.4.4.4.4.4.4.4.4.4.4.4.4.4.4.4.4.4.4.4.4.4.4.4.4.4.4.+ * & O 4.4.4.4.+ % @ 4.4.4.4.4.4.4.4.4.4.4.4.4.4.4.4.4.4.4.4.4.4.4.4.4.",
"4.4.4.4.4.4.4.4.4.4.4.4.4.4.4.4.4.4.4.4.4.4.4.4.4.4.4.4.4.4.4.4.4.4.4.4.4.4.4.4.4.4.4.4.4.4.4.4.4.4.4.4.4.4.4.4.4.4.4.4.4.4.4.4.",
"4.4.4.4.4.4.4.4.4.4.4.4.4.4.4.4.4.4.4.4.4.4.4.4.4.4.4.4.4.4.4.4.4.4.4.4.4.4.4.4.4.4.4.4.4.4.4.4.4.4.4.4.4.4.4.4.4.4.4.4.4.4.4.4."
};
