/* XPM */
static char *Idle__10__left[] = {
/* columns rows colors chars-per-pixel */
"64 64 117 2 ",
"   c #040404",
".  c #0C0C0C",
"X  c #141414",
"o  c #1C1C1C",
"O  c #232323",
"+  c #2C2C2C",
"@  c #343434",
"#  c #3B3B3B",
"$  c #434343",
"%  c #4C4C4C",
"&  c #545454",
"*  c #585656",
"=  c #5B5B5B",
"-  c #5A7277",
";  c #58737A",
":  c #636363",
">  c #6C6C6C",
",  c #706F6E",
"<  c #606D70",
"1  c #6F7273",
"2  c #67777B",
"3  c #6C7678",
"4  c #737373",
"5  c #787675",
"6  c #737A7C",
"7  c #7C7B7B",
"8  c #926161",
"9  c #807F7F",
"0  c #D96D6D",
"q  c #C07C7C",
"w  c #82807F",
"e  c #4B7F8C",
"r  c #637D84",
"t  c #068BAE",
"y  c #0091B7",
"u  c #1F93B0",
"i  c #1A9ABB",
"p  c #2891AB",
"a  c #3793AA",
"s  c #3C96AD",
"d  c #289FBC",
"f  c #389EB9",
"g  c #468392",
"h  c #488595",
"j  c #6C848A",
"k  c #758183",
"l  c #7F8182",
"z  c #608892",
"x  c #75969E",
"c  c #4692A5",
"v  c #5097A9",
"b  c #4C9EB2",
"n  c #50A2B7",
"m  c #54A5B9",
"M  c #5CABBF",
"N  c #7AACB9",
"B  c #1CA1C2",
"V  c #00A5D0",
"C  c #01A8D3",
"Z  c #0DA9D0",
"A  c #07AED9",
"S  c #14B2DA",
"D  c #28A1C0",
"F  c #30ABCA",
"G  c #25B9DE",
"H  c #29BADE",
"J  c #30B5D6",
"K  c #0CB9E4",
"L  c #57B4CB",
"P  c #44BCDA",
"I  c #75CADF",
"U  c #78CBE0",
"Y  c #838383",
"T  c #8B8B8B",
"R  c #949494",
"E  c #9B9B9B",
"W  c #A78282",
"Q  c #B38787",
"!  c #B49E9E",
"~  c #909FA3",
"^  c #98B6BE",
"/  c #A4A4A4",
"(  c #AAAAAA",
")  c #B6A1A1",
"_  c #B2ACAC",
"`  c #B1B0AF",
"'  c #B4B4B4",
"]  c #BFB3B3",
"[  c #BCBCBC",
"{  c #F28F8F",
"}  c #FD8D8D",
"|  c #E09A9A",
" . c #D3A1A1",
".. c #B4C3C7",
"X. c #8ED5E7",
"o. c #9BD8E7",
"O. c #B7DBE3",
"+. c #A4E5F5",
"@. c #C4C4C4",
"#. c #C9C6C6",
"$. c #CCCCCC",
"%. c #D3D3D3",
"&. c #D9D7D6",
"*. c #D5D8D8",
"=. c #DBDBDB",
"-. c #C2E2EA",
";. c #DBEBEF",
":. c #C1EDF8",
">. c #D2F4FC",
",. c #E5E5E5",
"<. c #E8E7E7",
"1. c #E8E8E7",
"2. c #E7E8E8",
"3. c #E8E8E8",
"4. c #E7FAFF",
"5. c #F1F6F8",
"6. c None",
/* pixels */
"6.6.6.6.6.6.6.6.6.6.6.6.6.6.6.6.6.6.6.6.6.6.6.6.6.6.6.6.6.6.6.6.6.6.6.6.6.6.6.6.6.6.6.6.6.6.6.6.6.6.6.6.6.6.6.6.6.6.6.6.6.6.6.6.",
"6.6.6.6.6.6.6.6.6.6.6.6.6.6.6.6.6.6.6.6.6.6.6.6.6.6.6.6.6.6.6.6.6.6.6.6.6.6.6.6.6.6.6.6.6.6.6.6.6.6.6.6.6.6.6.6.6.6.6.6.6.6.6.6.",
"6.6.6.6.6.6.6.6.6.6.6.6.6.6.6.6.6.6.6.6.6.6.6.6.6.6.6.6.6.6.6.6.6.6.6.6.6.6.6.6.6.6.6.6.6.6.6.6.6.6.6.6.6.6.6.6.6.6.6.6.6.6.6.6.",
"6.6.6.6.6.6.6.6.6.6.6.6.6.6.6.6.6.6.6.6.6.6.6.6.6.6.6.6.6.6.6.6.6.6.6.6.6.6.6.6.6.6.6.6.6.6.6.6.6.6.6.6.6.6.6.6.6.6.6.6.6.6.6.6.",
"6.6.6.6.6.6.6.6.6.6.6.6.6.6.6.6.6.6.6.6.6.6.6.6.6.6.6.6.6.6.6.6.6.6.6.6.6.6.6.6.6.6.6.  X . 6.6.6.6.6.6.6.6.6.6.6.6.6.6.6.6.6.6.",
"6.6.6.6.6.6.6.6.6.6.6.6.6.6.6.6.6.6.6.6.6.6.6.  6.6.6.6.6.6.6.6.6.6.6.6.6.6.6.6.6.. O # $ + . 6.6.6.6.6.6.6.6.6.6.6.6.6.6.6.6.6.",
"6.6.6.6.6.6.6.6.6.6.6.6.6.6.6.6.6.6.6.6.6.6.. @ @ o . 6.6.6.6.6.6.6.6.6.6.6.6.6.. @ $ @ @ + X 6.6.6.6.6.6.6.6.6.6.6.6.6.6.6.6.6.",
"6.6.6.6.6.6.6.6.6.6.6.6.6.6.6.6.6.6.6.6.6.6.X $ % % % O 6.6.6.6.6.6.6.6.6.6.6.o * % % $ @ @ o 6.6.6.6.6.6.6.6.6.6.6.6.6.6.6.6.6.",
"6.6.6.6.6.6.6.6.6.6.6.6.6.6.6.6.6.6.6.6.6.6.+ % # # = 4 + 6.6.6.6.6.6.6.6.6.. : / ( [ R @ @ O   6.6.6.6.6.6.6.6.6.6.6.6.6.6.6.6.",
"6.6.6.6.6.6.6.6.6.6.6.6.6.6.6.6.6.6.6.6.6.6.> @.7 $ = Y Y O 6.6.6.6.6.6.6.6.% ( #.$.%.#.% @ O   6.6.6.6.6.6.6.6.6.6.6.6.6.6.6.6.",
"6.6.6.6.6.6.6.6.6.6.6.6.6.6.6.6.6.6.6.6.6.6.T ,.,.E 7 Y R > . 6.6.6.6.6.6.6.R $.%.*.,.,., + O . 6.6.6.6.6.6.6.6.6.6.6.6.6.6.6.6.",
"6.6.6.6.6.6.6.6.6.6.6.6.6.6.6.6.6.6.6.6.6.6.R ,.,.,.( Y Y R $ 6.6.6.6.6.6.4 [ $.=.,.,.2.R @ O . 6.6.6.6.6.6.6.6.6.6.6.6.6.6.6.6.",
"6.6.6.6.6.6.6.6.6.6.6.6.6.6.6.6.6.6.6.6.6.o / ,.,.,.*.R Y Y &     . .   6.R $.*.,.,.,.3.' = @ o 6.6.6.6.6.6.6.6.6.6.6.6.6.6.6.6.",
"6.6.6.6.6.6.6.6.6.6.6.6.6.6.6.6.6.6.6.6.6.O ( ,.,.,.3.( $ + @ O # > # O @ / %.,.,.,.,.3...Y * + 6.6.6.6.6.6.6.6.6.6.6.6.6.6.6.6.",
"6.6.6.6.6.6.6.6.6.6.6.6.6.6.6.6.6.6.6.6.6.O _ ,.,.,./ @ O $ 7 @ & Y $ @ : @.*.<.<.,.<.3.@.w , + 6.6.6.6.6.6.6.6.6.6.6.6.6.6.6.6.",
"6.6.6.6.6.6.6.6.6.6.6.6.6.6.6.6.6.6.6.6.6.O ' ,.,.Y @ = @ $ 4 # = 7 # # 4 [ =.1.,.,.,.3.@.9 > + 6.6.6.6.6.6.6.6.6.6.6.6.6.6.6.6.",
"6.6.6.6.6.6.6.6.6.6.6.6.6.6.6.6.6.6.6.6.6.o ( ,.Y o $ 7 # $ 4 $ > 4 @ $ 4 / ,.<.,.<.,.3.[ 7 : O 6.6.6.6.6.6.6.6.6.6.6.6.6.6.6.6.",
"6.6.6.6.6.6.6.6.6.6.6.6.6.6.6.6.6.6.6.6.6.X / / $ & # , % $ 4 $ 4 > @ : = 4 *.,.,.,.,.3.' 7 : O 6.6.6.6.6.6.6.6.6.6.6.6.6.6.6.6.",
"6.6.6.6.6.6.6.6.6.6.6.6.6.6.6.6.6.6.6.6.6.6.4 % 7 Y # : = $ 7 & 7 : # 4 $ = @.,.,.<.1.,.( 4 = o 6.6.6.6.6.6.6.6.6.6.6.6.6.6.6.6.",
"6.6.6.6.6.6.6.6.6.6.6.6.6.6.6.6.6.6.6.6.6.6.o = E Y & & > $ 7 : Y & % > % 5 / ,.<.,.3.=.R 1 = . 6.6.6.6.6.6.6.6.6.6.6.6.6.6.6.6.",
"6.6.6.6.6.6.6.6.6.6.6.6.6.6.6.6.6.6.6.6.6.6.O T T Y 4 & 4 % 7 4 Y % > = > Y Y ' ,.3.3.$.Y > $   6.6.6.6.6.6.6.6.6.6.6.6.6.6.6.6.",
"6.6.6.6.6.6.6.6.6.6.6.6.6.6.6.6.6.6.6.6.6.6.= R Y Y Y : 4 : 7 Y 7 & 4 4 Y Y Y T ( $.#.E 5 : + 6.6.6.6.6.6.6.6.6.6.6.6.6.6.6.6.6.",
"6.6.6.6.6.6.6.6.6.6.6.6.6.6.6.6.6.6.6.6.6.o 7 T Y Y Y 7 4 > 7 Y 7 : Y Y Y Y Y Y Y Y T l > = X 6.6.6.6.6.6.6.6.6.6.6.6.6.6.6.6.6.",
"6.6.6.6.6.6.6.6.6.6.6.6.6.6.6.6.6.6.6.6.6.# R T Y Y Y Y l l 9 Y 7 4 Y Y Y Y Y Y Y Y Y > $ O O . 6.6.6.6.6.6.6.6.6.6.6.6.6.6.6.6.",
"6.6.6.6.6.6.6.6.6.6.6.6.6.6.6.6.6.6.6.6.6.= R Y Y Y Y Y Y Y Y Y 7 Y Y Y Y Y Y Y Y Y Y 7 & % , O 6.6.6.6.6.6.6.6.6.6.6.6.6.6.6.6.",
"6.6.6.6.6.6.6.6.6.6.6.6.6.6.6.6.6.6.6.6.X 7 T Y Y Y Y Y Y Y Y Y Y Y Y Y Y Y Y Y Y Y Y Y Y Y Y $ 6.6.6.6.6.6.6.6.6.6.6.6.6.6.6.6.",
"6.6.6.6.6.6.6.6.6.6.6.6.6.6.6.6.6.6.6.6.O T T Y Y Y Y Y Y Y Y Y Y Y Y Y Y Y Y Y Y Y Y Y Y Y Y & 6.6.6.6.6.6.6.6.6.6.6.6.6.6.6.6.",
"6.6.6.6.6.6.6.6.6.6.6.6.6.6.6.6.6.6.6.6.# T 7 5 7 Y Y Y Y Y Y Y Y Y Y Y Y 7 4 > 4 Y Y Y Y Y Y 4 o 6.6.6.6.6.6.6.6.6.6.6.6.6.6.6.",
"6.6.6.6.6.6.6.6.6.6.6.6.6.6.6.6.6.6.6.6.= Y r c h 6 Y Y Y Y Y Y Y Y Y Y 7 j b a - , Y Y Y Y Y Y %   6.6.6.6.6.6.6.6.6.6.6.6.6.6.",
"6.6.6.6.6.6.6.6.6.6.6.6.6.6.6.6.6.6.6.O l j -.+.S a w Y Y Y l Y Y w Y Y j O.>.H B < 5 Y Y Y Y Y 7 + 6.6.6.6.6.6.6.6.6.6.6.6.6.6.",
"6.6.6.6.6.6.6.6.6.6.6.6.6.6.6.6.6.6.6.= l m 4.;.i Z j Y T / / / E T Y 9 v :.5.f C e 4 Y Y Y Y Y Y : X 6.6.6.6.6.6.6.6.6.6.6.6.6.",
"6.6.6.6.6.6.6.6.6.6.6.6.6.6.6.6.6.6.X : 1 d L n u S x ` _ _ #.,.,.&.[ R s F b p G g 4 Y Y 4 > 4 Y > @ 6.6.6.6.6.6.6.6.6.6.6.6.6.",
"6.6.6.6.6.6.6.6.6.6.6.6.6.6.6.6.6.6.. $ 4 s V t o.U ..!  .| Q  .,.,.3.&.N Z y I X.; 5 Y Y 7 : $ # # o 6.6.6.6.6.6.6.6.6.6.6.6.6.",
"6.6.6.6.6.6.6.6.6.6.6.6.6.6.6.6.6.6.6.# > 2 D K P ^ *.Q { } 0 ) 1.,.,.3.*.L S J z 4 Y 7 Y 7 > = + . 6.6.6.6.6.6.6.6.6.6.6.6.6.6.",
"6.6.6.6.6.6.6.6.6.6.6.6.6.6.6.6.6.6.6.X & & 4 r ~ =.2.@.W 8 ! =.,.,.,.,.3.#.k 3 7 l Y 5 : 5 $ @ +   6.6.6.6.6.6.6.6.6.6.6.6.6.6.",
"6.6.6.6.6.6.6.6.6.6.6.6.6.6.6.6.6.6.6.6.X $ 4 Y @.3.2.<.@.1 *.,.,.,.<.,.<.=.E Y Y Y Y 4 # % * X   6.6.6.6.6.6.6.6.6.6.6.6.6.6.6.",
"6.6.6.6.6.6.6.6.6.6.6.6.6.6.6.6.6.6.6.6.  + : > [ ,.,.@.Y , 4 [ <.<.,.,.<.,./ 5 7 4 > > $ o O 6.6.6.6.6.6.6.6.6.6.6.6.6.6.6.6.6.",
"6.6.6.6.6.6.6.6.6.6.6.6.6.6.6.6.6.6.6.6.6.  + = / %.*.%.$.*.#.*.=.=.*.*.%.%.T : : > : % O   6.6.6.6.6.6.6.6.6.6.6.6.6.6.6.6.6.6.",
"6.6.6.6.6.6.6.6.6.6.6.6.6.6.6.6.6.6.6.6.6.6.6.o % E @.$.$.%.%.$.%.$.$.$.#.[ > & $ @ O . 6.6.6.6.6.6.6.6.6.6.6.6.6.6.6.6.6.6.6.6.",
"6.6.6.6.6.6.6.6.6.6.6.6.6.6.6.6.6.6.6.6.6.6.6.6.  o % > Y R R T T 7 4 : % + X .   6.6.6.6.6.6.6.6.6.6.6.6.6.6.6.6.6.6.6.6.6.6.6.",
"6.6.6.6.6.6.6.6.6.6.6.6.6.6.6.6.6.6.6.6.6.6.6.6.6.6.6.X @ @ O : 4 7 : * = # # 6.6.6.6.6.6.6.6.6.6.6.6.6.6.6.6.6.6.6.6.6.6.6.6.6.",
"6.6.6.6.6.6.6.6.6.6.6.6.6.6.6.6.6.6.6.6.6.6.6.6.6.6.@ > Y & 7 ,.1.3.#.Y 4 7 7 > # 6.6.6.6.6.6.6.6.6.6.6.6.6.6.6.6.6.6.6.6.6.6.6.",
"6.6.6.6.6.6.6.6.6.6.6.6.6.6.6.6.6.6.6.6.6.6.6.6.6.# l Y > # [ ,.,.,.,.E : $ : Y Y & 6.6.6.6.6.6.6.6.6.6.6.6.6.6.6.6.6.6.6.6.6.6.",
"6.6.6.6.6.6.6.6.6.6.6.6.6.6.6.6.6.6.6.6.6.6.6.6.+ 7 Y 4 + & ,.,.,.,.,.[ 7 & + : Y Y % 6.6.6.6.6.6.6.6.6.6.6.6.6.6.6.6.6.6.6.6.6.",
"6.6.6.6.6.6.6.6.6.6.6.6.6.6.6.6.6.6.6.6.6.6.6.6.* T 7 % . T <.<.,.,.3.$.T Y $ O 4 Y 4 O 6.6.6.6.6.6.6.6.6.6.6.6.6.6.6.6.6.6.6.6.",
"6.6.6.6.6.6.6.6.6.6.6.6.6.6.6.6.6.6.6.6.6.6.6.6.T E , O X ( 2.,.<.,.1.*.T > # . & l E % 6.6.6.6.6.6.6.6.6.6.6.6.6.6.6.6.6.6.6.6.",
"6.6.6.6.6.6.6.6.6.6.6.6.6.6.6.6.6.6.6.6.6.6.6.6.4 #.> 6.+ ..2.<.,.<.,.=.R 7 = + # E #.$ 6.6.6.6.6.6.6.6.6.6.6.6.6.6.6.6.6.6.6.6.",
"6.6.6.6.6.6.6.6.6.6.6.6.6.6.6.6.6.6.6.6.6.6.6.6.6.$ + 6.# #.2.<.,.,.<.,.E 4 % @ + : = = # 6.6.6.6.6.6.6.6.6.6.6.6.6.6.6.6.6.6.6.",
"6.6.6.6.6.6.6.6.6.6.6.6.6.6.6.6.6.6.6.6.6.6.6.6.6.6.6.6.@  .>.2.,.,.<.*.R l % o 6.6.o 4 4 O o o 6.6.6.6.6.6.6.6.6.6.6.6.6.6.6.6.",
"6.6.6.6.6.6.6.6.6.6.6.6.6.6.6.6.6.6.6.6.6.6.6.6.6.6.6.6.O R 2.2.<.<.1.@.Y 4 & . 6.6.6.% > $ @ @ X 6.6.6.6.6.6.6.6.6.6.6.6.6.6.6.",
"6.6.6.6.6.6.6.6.6.6.6.6.6.6.6.6.6.6.6.6.6.6.6.6.6.6.6.6.6.& ( *.,.=.@.T 7 : @ 6.6.6.6.O $ @ @ @ X 6.6.6.6.6.6.6.6.6.6.6.6.6.6.6.",
"6.6.6.6.6.6.6.6.6.6.6.6.6.6.6.6.6.6.6.6.6.6.6.6.6.6.6.6.6.O & 7 T Y 4 : Y Y # 6.6.6.6.6.o + + O 6.6.6.6.6.6.6.6.6.6.6.6.6.6.6.6.",
"6.6.6.6.6.6.6.6.6.6.6.6.6.6.6.6.6.6.6.6.6.6.6.6.6.6.6.6.# 4 # # & = % = Y R > 6.6.6.6.6.6.. X 6.6.6.6.6.6.6.6.6.6.6.6.6.6.6.6.6.",
"6.6.6.6.6.6.6.6.6.6.6.6.6.6.6.6.6.6.6.6.6.6.6.6.6.6.6.6.= E 7 = O X o > Y T T + 6.6.6.6.6.6.6.6.6.6.6.6.6.6.6.6.6.6.6.6.6.6.6.6.",
"6.6.6.6.6.6.6.6.6.6.6.6.6.6.6.6.6.6.6.6.6.6.6.6.6.6.6.6.4 R Y Y $ 6.o > Y T E $ 6.6.6.6.6.6.6.6.6.6.6.6.6.6.6.6.6.6.6.6.6.6.6.6.",
"6.6.6.6.6.6.6.6.6.6.6.6.6.6.6.6.6.6.6.6.6.6.6.6.6.6.6.+ T R Y Y $ 6.o > Y Y E : 6.6.6.6.6.6.6.6.6.6.6.6.6.6.6.6.6.6.6.6.6.6.6.6.",
"6.6.6.6.6.6.6.6.6.6.6.6.6.6.6.6.6.6.6.6.6.6.6.6.6.6.6.# R T Y 7 # 6.o : Y Y E 4 6.6.6.6.6.6.6.6.6.6.6.6.6.6.6.6.6.6.6.6.6.6.6.6.",
"6.6.6.6.6.6.6.6.6.6.6.6.6.6.6.6.6.6.6.6.6.6.6.6.6.6.6.& E T Y 7 @ 6.6.= Y Y R Y O 6.6.6.6.6.6.6.6.6.6.6.6.6.6.6.6.6.6.6.6.6.6.6.",
"6.6.6.6.6.6.6.6.6.6.6.6.6.6.6.6.6.6.6.6.6.6.6.6.6.6.6.: R Y Y > + 6.6.% 7 Y T T @ 6.6.6.6.6.6.6.6.6.6.6.6.6.6.6.6.6.6.6.6.6.6.6.",
"6.6.6.6.6.6.6.6.6.6.6.6.6.6.6.6.6.6.6.6.6.6.6.6.6.6.6.7 ( T 7 > O 6.6.% Y T E ( # 6.6.6.6.6.6.6.6.6.6.6.6.6.6.6.6.6.6.6.6.6.6.6.",
"6.6.6.6.6.6.6.6.6.6.6.6.6.6.6.6.6.6.6.6.6.6.6.6.6.6.6.$ ( [ [ 7 6.6.6.$ / [ ' > 6.6.6.6.6.6.6.6.6.6.6.6.6.6.6.6.6.6.6.6.6.6.6.6.",
"6.6.6.6.6.6.6.6.6.6.6.6.6.6.6.6.6.6.6.6.6.6.6.6.6.6.6.6.+ = & O 6.6.6.6.+ % @ 6.6.6.6.6.6.6.6.6.6.6.6.6.6.6.6.6.6.6.6.6.6.6.6.6.",
"6.6.6.6.6.6.6.6.6.6.6.6.6.6.6.6.6.6.6.6.6.6.6.6.6.6.6.6.6.6.6.6.6.6.6.6.6.6.6.6.6.6.6.6.6.6.6.6.6.6.6.6.6.6.6.6.6.6.6.6.6.6.6.6.",
"6.6.6.6.6.6.6.6.6.6.6.6.6.6.6.6.6.6.6.6.6.6.6.6.6.6.6.6.6.6.6.6.6.6.6.6.6.6.6.6.6.6.6.6.6.6.6.6.6.6.6.6.6.6.6.6.6.6.6.6.6.6.6.6."
};
