/* XPM */
static char *Idle__1_[] = {
/* columns rows colors chars-per-pixel */
"64 64 118 2 ",
"   c #050505",
".  c #0B0B0B",
"X  c #141414",
"o  c #1B1B1B",
"O  c #232323",
"+  c #2C2C2C",
"@  c #343434",
"#  c #3C3C3C",
"$  c #444444",
"%  c #4B4B4B",
"&  c #545454",
"*  c #5B5B5B",
"=  c #5A7177",
"-  c #5A7379",
";  c #646464",
":  c #6C6C6C",
">  c #73706F",
",  c #6B6F70",
"<  c #6C7172",
"1  c #747474",
"2  c #757979",
"3  c #7B7B7B",
"4  c #836969",
"5  c #CB6969",
"6  c #D47C7C",
"7  c #DC7B7B",
"8  c #EC7C7C",
"9  c #82807F",
"0  c #507984",
"q  c #647D83",
"w  c #7A7F81",
"e  c #1A92B1",
"r  c #288DA7",
"t  c #2F91AA",
"y  c #3395AE",
"u  c #2C99B5",
"i  c #239FBE",
"p  c #2C9EBA",
"a  c #399CB5",
"s  c #3FA1B9",
"d  c #5D8088",
"f  c #448494",
"g  c #4B8A9A",
"h  c #65868E",
"j  c #6A858C",
"k  c #688E98",
"l  c #718B91",
"z  c #6F939C",
"x  c #418DA0",
"c  c #4C95A7",
"v  c #4697AB",
"b  c #44A1B8",
"n  c #7EA1AA",
"m  c #76ADBA",
"M  c #029DC5",
"N  c #11A7CC",
"B  c #1BA6C9",
"V  c #1FACCF",
"C  c #00A6D0",
"Z  c #07A9D2",
"A  c #05B0DB",
"S  c #0FB1DA",
"D  c #1BB2D9",
"F  c #26A2C1",
"G  c #23A9CA",
"H  c #30A8C6",
"J  c #2DBBDF",
"K  c #3ABBDC",
"L  c #41A9C3",
"P  c #4EAEC6",
"I  c #5CAEC3",
"U  c #38C0E2",
"Y  c #6BCDE5",
"T  c #838383",
"R  c #8B8B8B",
"E  c #949494",
"W  c #9B9B9B",
"Q  c #B28F8F",
"!  c #A19E9D",
"~  c #AD9D9D",
"^  c #B49797",
"/  c #B09C9C",
"(  c #91B5BE",
")  c #A4A4A4",
"_  c #ADA2A2",
"`  c #ABABAB",
"'  c #B7A3A3",
"]  c #BAACAC",
"[  c #A5BABF",
"{  c #B5B5B5",
"}  c #B9B5B5",
"|  c #BBBBBB",
" . c #C0B7B7",
".. c #E8A9A9",
"X. c #F4A3A3",
"o. c #84C7D8",
"O. c #BDC8CB",
"+. c #8EDCEF",
"@. c #91D2E2",
"#. c #BCE0E9",
"$. c #A8E2F1",
"%. c #C4C4C4",
"&. c #CCCDCD",
"*. c #D1CFCF",
"=. c #D3D3D3",
"-. c #DBDBDB",
";. c #E1DFDF",
":. c #CDE4E9",
">. c #CCEEF6",
",. c #D8F1F6",
"<. c #D0F0F8",
"1. c #E5E5E5",
"2. c #E8E8E7",
"3. c #E7E8E8",
"4. c #E8E8E8",
"5. c #E7F1F4",
"6. c #E9FAFD",
"7. c None",
/* pixels */
"7.7.7.7.7.7.7.7.7.7.7.7.7.7.7.7.7.7.7.7.7.7.7.7.7.7.7.7.7.7.7.7.7.7.7.7.7.7.7.7.7.7.7.7.7.7.7.7.7.7.7.7.7.7.7.7.7.7.7.7.7.7.7.7.",
"7.7.7.7.7.7.7.7.7.7.7.7.7.7.7.7.7.7.7.7.7.7.7.7.7.7.7.7.7.7.7.7.7.7.7.7.7.7.7.7.7.7.7.7.7.7.7.7.7.7.7.7.7.7.7.7.7.7.7.7.7.7.7.7.",
"7.7.7.7.7.7.7.7.7.7.7.7.7.7.7.7.7.7.7.7.7.7.7.7.7.7.7.7.7.7.7.7.7.7.7.7.7.7.7.7.7.7.7.7.7.7.7.7.7.7.7.7.7.7.7.7.7.7.7.7.7.7.7.7.",
"7.7.7.7.7.7.7.7.7.7.7.7.7.7.7.7.7.7.7.7.7.7.7.7.7.7.7.7.7.7.7.7.7.7.7.7.7.7.7.7.7.7.7.7.7.7.7.7.7.7.7.7.7.7.7.7.7.7.7.7.7.7.7.7.",
"7.7.7.7.7.7.7.7.7.7.7.7.7.7.7.7.7.7.X O X   7.7.7.7.7.7.7.7.7.7.7.7.7.7.7.7.7.7.7.7.7.7.7.7.7.7.7.7.7.7.7.7.7.7.7.7.7.7.7.7.7.7.",
"7.7.7.7.7.7.7.7.7.7.7.7.7.7.7.7.7.. + # # @ o 7.7.7.7.7.7.7.7.7.7.7.7.7.7.7.  X . 7.7.7.7.7.7.7.7.7.7.7.7.7.7.7.7.7.7.7.7.7.7.7.",
"7.7.7.7.7.7.7.7.7.7.7.7.7.7.7.7.7.. + @ @ # # o 7.7.7.7.7.7.7.7.7.7.7.7.. o @ $ @ 7.7.7.7.7.7.7.7.7.7.7.7.7.7.7.7.7.7.7.7.7.7.7.",
"7.7.7.7.7.7.7.7.7.7.7.7.7.7.7.7.7.o @ + % ; & : + 7.7.7.7.7.7.7.7.7.7.X % & % $ @ . 7.7.7.7.7.7.7.7.7.7.7.7.7.7.7.7.7.7.7.7.7.7.",
"7.7.7.7.7.7.7.7.7.7.7.7.7.7.7.7.  o @ @ E &.| ` 9 o 7.7.7.7.7.7.7.7.. * 3 $ @ % 1 + 7.7.7.7.7.7.7.7.7.7.7.7.7.7.7.7.7.7.7.7.7.7.",
"7.7.7.7.7.7.7.7.7.7.7.7.7.7.7.7.  O + % &.-.*.&.| * 7.7.7.7.7.7.7.7.% E 1 * ; O.*.% 7.7.7.7.7.7.7.7.7.7.7.7.7.7.7.7.7.7.7.7.7.7.",
"7.7.7.7.7.7.7.7.7.7.7.7.7.7.7.7.. O + ; ;.1.;.=.&.W 7.7.7.7.7.7.7.+ R E T R &.4.-.; 7.7.7.7.7.7.7.7.7.7.7.7.7.7.7.7.7.7.7.7.7.7.",
"7.7.7.7.7.7.7.7.7.7.7.7.7.7.7.7.. + # E 1.1.1.;.*.%.9 7.7.7.7.7.. ; E T R &.4.1.;.3 7.7.7.7.7.7.7.7.7.7.7.7.7.7.7.7.7.7.7.7.7.7.",
"7.7.7.7.7.7.7.7.7.7.7.7.7.7.7.7.o # : { 4.1.1.1.-.*.E . . X o . . & 1 3 { 1.1.4.1.T 7.7.7.7.7.7.7.7.7.7.7.7.7.7.7.7.7.7.7.7.7.7.",
"7.7.7.7.7.7.7.7.7.7.7.7.7.7.7.7.+ ; T | 4.4.1.1.1.=.` @ + % w @ + $ O # ` 2.1.1.1.R 7.7.7.7.7.7.7.7.7.7.7.7.7.7.7.7.7.7.7.7.7.7.",
"7.7.7.7.7.7.7.7.7.7.7.7.7.7.7.7.+ : T %.4.1.1.1.1.-.O.& @ % T % # 3 $ O @ R 1.4.1.E 7.7.7.7.7.7.7.7.7.7.7.7.7.7.7.7.7.7.7.7.7.7.",
"7.7.7.7.7.7.7.7.7.7.7.7.7.7.7.7.+ : T %.4.1.1.1.1.;.| > @ % 4 & $ 1 # # : + : -.1.E 7.7.7.7.7.7.7.7.7.7.7.7.7.7.7.7.7.7.7.7.7.7.",
"7.7.7.7.7.7.7.7.7.7.7.7.7.7.7.7.+ ; 3 O.1.1.1.1.1.;.W 1 $ # 2 ; $ 1 $ $ 2 # O 3 1.R 7.7.7.7.7.7.7.7.7.7.7.7.7.7.7.7.7.7.7.7.7.7.",
"7.7.7.7.7.7.7.7.7.7.7.7.7.7.7.7.O ; 3 } 1.1.1.1.1.-.; ; * @ , 1 % 1 # & ; # ; $ W T 7.7.7.7.7.7.7.7.7.7.7.7.7.7.7.7.7.7.7.7.7.7.",
"7.7.7.7.7.7.7.7.7.7.7.7.7.7.7.7.o ; 1 ` 1.4.1.1.2.| & % 1 # ; 3 & 3 $ ; & % E 9 $ & 7.7.7.7.7.7.7.7.7.7.7.7.7.7.7.7.7.7.7.7.7.7.",
"7.7.7.7.7.7.7.7.7.7.7.7.7.7.7.7.. & : W 1.1.1.4.-.E 2 % : % * 9 : 2 $ > % ; T E * . 7.7.7.7.7.7.7.7.7.7.7.7.7.7.7.7.7.7.7.7.7.7.",
"7.7.7.7.7.7.7.7.7.7.7.7.7.7.7.7.  % : T &.1.4.;.) T T 1 ; ; & T 3 3 & > & 4 R E R O 7.7.7.7.7.7.7.7.7.7.7.7.7.7.7.7.7.7.7.7.7.7.",
"7.7.7.7.7.7.7.7.7.7.7.7.7.7.7.7.7.+ : 2 E | | W T T T T 1 1 & 9 9 2 ; : : T l T W * 7.7.7.7.7.7.7.7.7.7.7.7.7.7.7.7.7.7.7.7.7.7.",
"7.7.7.7.7.7.7.7.7.7.7.7.7.7.7.7.7.X & < 4 T T 9 T T T T T T ; 3 T 3 1 1 T T T T R T o 7.7.7.7.7.7.7.7.7.7.7.7.7.7.7.7.7.7.7.7.7.",
"7.7.7.7.7.7.7.7.7.7.7.7.7.7.7.7.o + o $ 2 T T T T T T T T T 2 3 T T 9 T T T T T T E # 7.7.7.7.7.7.7.7.7.7.7.7.7.7.7.7.7.7.7.7.7.",
"7.7.7.7.7.7.7.7.7.7.7.7.7.7.7.7.+ 2 ; 1 T T T T T T T T T T T T T T T T T T T T T E * 7.7.7.7.7.7.7.7.7.7.7.7.7.7.7.7.7.7.7.7.7.",
"7.7.7.7.7.7.7.7.7.7.7.7.7.7.7.7.% T T T T T T T T T T T T T T T T T T T T T T T T R 2 X 7.7.7.7.7.7.7.7.7.7.7.7.7.7.7.7.7.7.7.7.",
"7.7.7.7.7.7.7.7.7.7.7.7.7.7.7.  ; T T T T T T T T T T T T T T T T T T T T T T T T R T O 7.7.7.7.7.7.7.7.7.7.7.7.7.7.7.7.7.7.7.7.",
"7.7.7.7.7.7.7.7.7.7.7.7.7.7.7.O 1 T T T T T 3 > : < 3 T T T T T T T T T T T 9 2 < 1 E # 7.7.7.7.7.7.7.7.7.7.7.7.7.7.7.7.7.7.7.7.",
"7.7.7.7.7.7.7.7.7.7.7.7.7.7.. & T T T T T T : 0 p I l 3 T T T T T T T T T 9 2 u P z w ; . 7.7.7.7.7.7.7.7.7.7.7.7.7.7.7.7.7.7.7.",
"7.7.7.7.7.7.7.7.7.7.7.7.7.7.@ 3 T T T T T 1 = N K 6.#.j T T T T T T T T T j i D <.,.k T + 7.7.7.7.7.7.7.7.7.7.7.7.7.7.7.7.7.7.7.",
"7.7.7.7.7.7.7.7.7.7.7.7.7.X : T T T T T T > f C a 5.$.c 9 T W ` } | ` ! T h Z e :.>.b 3 ;   7.7.7.7.7.7.7.7.7.7.7.7.7.7.7.7.7.7.",
"7.7.7.7.7.7.7.7.7.7.7.7.7.@ 1 3 1 ; 1 T T 1 f U y y B v ! &.;.1.;.] / _ | n J b r F p > & X 7.7.7.7.7.7.7.7.7.7.7.7.7.7.7.7.7.7.",
"7.7.7.7.7.7.7.7.7.7.7.7.7.o @ @ $ ; 3 T T 3 - @.Y M S ( 1.3.1.3.' 6 X...^ O.o.+.M A g 2 $ . 7.7.7.7.7.7.7.7.7.7.7.7.7.7.7.7.7.7.",
"7.7.7.7.7.7.7.7.7.7.7.7.7.7.. @ ; ; 3 T 3 T 1 d H G m ;.1.1.1.2.] 5 8 7 Q -.[ H V x < ; + 7.7.7.7.7.7.7.7.7.7.7.7.7.7.7.7.7.7.7.",
"7.7.7.7.7.7.7.7.7.7.7.7.7.7.7.O + $ 1 * 3 T T 3 2 l *.1.1.1.1.1.;.| 4 ~ -.4.1.` 3 1 % $ . 7.7.7.7.7.7.7.7.7.7.7.7.7.7.7.7.7.7.7.",
"7.7.7.7.7.7.7.7.7.7.7.7.7.7.7.  X & $ # 3 3 T T 9 ! 1.1.1.1.1.1.=.&.; | ;.1.4.%.3 : # . 7.7.7.7.7.7.7.7.7.7.7.7.7.7.7.7.7.7.7.7.",
"7.7.7.7.7.7.7.7.7.7.7.7.7.7.7.7.7.o o $ : : > 1 3 ! 1.1.1.1.1.1.| 2 E R %.1.;.} : * o 7.7.7.7.7.7.7.7.7.7.7.7.7.7.7.7.7.7.7.7.7.",
"7.7.7.7.7.7.7.7.7.7.7.7.7.7.7.7.7.7.  O $ * ; ; ; T *.*.*.*.=.-.-.=.=.=.=.*.&.E % o 7.7.7.7.7.7.7.7.7.7.7.7.7.7.7.7.7.7.7.7.7.7.",
"7.7.7.7.7.7.7.7.7.7.7.7.7.7.7.7.7.7.7.7.  o + # $ ; ` | &.&.*.*.&.&.*.&.%.} 2 + . 7.7.7.7.7.7.7.7.7.7.7.7.7.7.7.7.7.7.7.7.7.7.7.",
"7.7.7.7.7.7.7.7.7.7.7.7.7.7.7.7.7.7.7.7.7.7.7.7.  . o # % & ; , : > > * $ O . 7.7.7.7.7.7.7.7.7.7.7.7.7.7.7.7.7.7.7.7.7.7.7.7.7.",
"7.7.7.7.7.7.7.7.7.7.7.7.7.7.7.7.7.7.7.7.7.7.7.7.+ & & ; ; 3 W E 3 + $ % O 7.7.7.7.7.7.7.7.7.7.7.7.7.7.7.7.7.7.7.7.7.7.7.7.7.7.7.",
"7.7.7.7.7.7.7.7.7.7.7.7.7.7.7.7.7.7.7.7.7.7.o * 3 T 2 : T *.4.4.4.T % T 3 & 7.7.7.7.7.7.7.7.7.7.7.7.7.7.7.7.7.7.7.7.7.7.7.7.7.7.",
"7.7.7.7.7.7.7.7.7.7.7.7.7.7.7.7.7.7.7.7.7.o : T 3 & % , W 1.1.1.1.%.# * T T * 7.7.7.7.7.7.7.7.7.7.7.7.7.7.7.7.7.7.7.7.7.7.7.7.7.",
"7.7.7.7.7.7.7.7.7.7.7.7.7.7.7.7.7.7.7.7.7.; R 3 % O * 4 | 2.1.1.1.;.* o ; T T # 7.7.7.7.7.7.7.7.7.7.7.7.7.7.7.7.7.7.7.7.7.7.7.7.",
"7.7.7.7.7.7.7.7.7.7.7.7.7.7.7.7.7.7.7.7.# T T : o $ j R *.2.1.2.1.4.E   # 2 T 1 7.7.7.7.7.7.7.7.7.7.7.7.7.7.7.7.7.7.7.7.7.7.7.7.",
"7.7.7.7.7.7.7.7.7.7.7.7.7.7.7.7.7.7.7.7.; ` 3 # . $ > R =.2.1.1.1.4.` o X ; ) ) 7.7.7.7.7.7.7.7.7.7.7.7.7.7.7.7.7.7.7.7.7.7.7.7.",
"7.7.7.7.7.7.7.7.7.7.7.7.7.7.7.7.7.7.7.7.$ } E # @ * 3 E 1.2.2.1.2.4.%.+ 7.& ) ; 7.7.7.7.7.7.7.7.7.7.7.7.7.7.7.7.7.7.7.7.7.7.7.7.",
"7.7.7.7.7.7.7.7.7.7.7.7.7.7.7.7.7.7.7.% ; # @ + + % 1 W ;.2.1.1.1.4.&.@ 7.7.o 7.7.7.7.7.7.7.7.7.7.7.7.7.7.7.7.7.7.7.7.7.7.7.7.7.",
"7.7.7.7.7.7.7.7.7.7.7.7.7.7.7.7.+ + @ 1 : o 7.7.X & 3 E -.4.2.1.3.2. .@ 7.7.7.7.7.7.7.7.7.7.7.7.7.7.7.7.7.7.7.7.7.7.7.7.7.7.7.7.",
"7.7.7.7.7.7.7.7.7.7.7.7.7.7.7.o @ @ # ; # 7.7.7.. & 1 T  .1.2.2.2.1.E o 7.7.7.7.7.7.7.7.7.7.7.7.7.7.7.7.7.7.7.7.7.7.7.7.7.7.7.7.",
"7.7.7.7.7.7.7.7.7.7.7.7.7.7.7.X + @ @ @ 7.7.7.7.7.@ ; 3 R | -.-.*.! $ 7.7.7.7.7.7.7.7.7.7.7.7.7.7.7.7.7.7.7.7.7.7.7.7.7.7.7.7.7.",
"7.7.7.7.7.7.7.7.7.7.7.7.7.7.7.7.o O O X 7.7.7.7.7.@ T 3 ; : w T < % + 7.7.7.7.7.7.7.7.7.7.7.7.7.7.7.7.7.7.7.7.7.7.7.7.7.7.7.7.7.",
"7.7.7.7.7.7.7.7.7.7.7.7.7.7.7.7.7.7.7.7.7.7.7.7.7.: E T * $ & % # $ 4 # 7.7.7.7.7.7.7.7.7.7.7.7.7.7.7.7.7.7.7.7.7.7.7.7.7.7.7.7.",
"7.7.7.7.7.7.7.7.7.7.7.7.7.7.7.7.7.7.7.7.7.7.7.7.+ R R T : o X O ; j W * 7.7.7.7.7.7.7.7.7.7.7.7.7.7.7.7.7.7.7.7.7.7.7.7.7.7.7.7.",
"7.7.7.7.7.7.7.7.7.7.7.7.7.7.7.7.7.7.7.7.7.7.7.7.% W R T : o 7.$ T T E 2 7.7.7.7.7.7.7.7.7.7.7.7.7.7.7.7.7.7.7.7.7.7.7.7.7.7.7.7.",
"7.7.7.7.7.7.7.7.7.7.7.7.7.7.7.7.7.7.7.7.7.7.7.7.* W T T : o 7.$ 9 T E R + 7.7.7.7.7.7.7.7.7.7.7.7.7.7.7.7.7.7.7.7.7.7.7.7.7.7.7.",
"7.7.7.7.7.7.7.7.7.7.7.7.7.7.7.7.7.7.7.7.7.7.7.7.1 W T T ; o 7.# 9 T E E # 7.7.7.7.7.7.7.7.7.7.7.7.7.7.7.7.7.7.7.7.7.7.7.7.7.7.7.",
"7.7.7.7.7.7.7.7.7.7.7.7.7.7.7.7.7.7.7.7.7.7.7.o T E T T * 7.7.@ 2 T T W & 7.7.7.7.7.7.7.7.7.7.7.7.7.7.7.7.7.7.7.7.7.7.7.7.7.7.7.",
"7.7.7.7.7.7.7.7.7.7.7.7.7.7.7.7.7.7.7.7.7.7.7.@ R R T 3 % 7.7.+ , T T E ; 7.7.7.7.7.7.7.7.7.7.7.7.7.7.7.7.7.7.7.7.7.7.7.7.7.7.7.",
"7.7.7.7.7.7.7.7.7.7.7.7.7.7.7.7.7.7.7.7.7.7.7.# ` W R T % 7.7.O > 3 R ` 3 7.7.7.7.7.7.7.7.7.7.7.7.7.7.7.7.7.7.7.7.7.7.7.7.7.7.7.",
"7.7.7.7.7.7.7.7.7.7.7.7.7.7.7.7.7.7.7.7.7.7.7.7.: | | ) $ 7.7.7.3 { | ` $ 7.7.7.7.7.7.7.7.7.7.7.7.7.7.7.7.7.7.7.7.7.7.7.7.7.7.7.",
"7.7.7.7.7.7.7.7.7.7.7.7.7.7.7.7.7.7.7.7.7.7.7.7.7.@ % + 7.7.7.7.O & * @ 7.7.7.7.7.7.7.7.7.7.7.7.7.7.7.7.7.7.7.7.7.7.7.7.7.7.7.7.",
"7.7.7.7.7.7.7.7.7.7.7.7.7.7.7.7.7.7.7.7.7.7.7.7.7.7.7.7.7.7.7.7.7.7.7.7.7.7.7.7.7.7.7.7.7.7.7.7.7.7.7.7.7.7.7.7.7.7.7.7.7.7.7.7.",
"7.7.7.7.7.7.7.7.7.7.7.7.7.7.7.7.7.7.7.7.7.7.7.7.7.7.7.7.7.7.7.7.7.7.7.7.7.7.7.7.7.7.7.7.7.7.7.7.7.7.7.7.7.7.7.7.7.7.7.7.7.7.7.7."
};
