/* XPM */
static char *Idle__3_[] = {
/* columns rows colors chars-per-pixel */
"64 64 117 2 ",
"   c #050505",
".  c #0B0B0B",
"X  c #131313",
"o  c #1B1B1B",
"O  c #232323",
"+  c #2C2C2C",
"@  c #343434",
"#  c #3C3C3C",
"$  c #444444",
"%  c #4B4B4B",
"&  c #535353",
"*  c #5B5B5B",
"=  c #5A767E",
"-  c #636363",
";  c #676A6B",
":  c #6B6C6C",
">  c #6A7173",
",  c #6B7679",
"<  c #747474",
"1  c #787676",
"2  c #7A7877",
"3  c #74797A",
"4  c #7C7B7B",
"5  c #807E7D",
"6  c #BF6464",
"7  c #BA6E6E",
"8  c #B17575",
"9  c #E37777",
"0  c #80807F",
"q  c #527983",
"w  c #587E87",
"e  c #737E80",
"r  c #0D819E",
"t  c #0180A1",
"y  c #0C8BAB",
"u  c #1B8CA8",
"i  c #0899BE",
"p  c #3590A6",
"a  c #3C94AA",
"s  c #3D98AF",
"d  c #2B9CB9",
"f  c #36A3BF",
"g  c #53828E",
"h  c #468392",
"j  c #558490",
"k  c #538A98",
"l  c #758083",
"z  c #6A8990",
"x  c #5D94A1",
"c  c #5E9BAA",
"v  c #659EAD",
"b  c #56A0B2",
"n  c #71A7B4",
"m  c #02A4CD",
"M  c #1AA5C7",
"N  c #1AA8CC",
"B  c #06ABD4",
"V  c #0AABD4",
"C  c #03B3DF",
"Z  c #0DB3DC",
"A  c #1CB5DC",
"S  c #3CABC7",
"D  c #2DB0D1",
"F  c #00B7E4",
"G  c #6DB7CA",
"H  c #76BED0",
"J  c #6EC5DB",
"K  c #4EC4E2",
"L  c #45CDEF",
"P  c #65CAE4",
"I  c #75D5ED",
"U  c #70D7F1",
"Y  c #838383",
"T  c #8B8B8B",
"R  c #928F8E",
"E  c #949494",
"W  c #9B9B9B",
"Q  c #AF8E8E",
"!  c #B68B8B",
"~  c #BC9090",
"^  c #B49A9A",
"/  c #9DB4BA",
"(  c #A3A3A3",
")  c #ACACAC",
"_  c #B7A1A1",
"`  c #B8AFAF",
"'  c #A9B6B9",
"]  c #B4B4B4",
"[  c #BCBCBC",
"{  c #FFA2A2",
"}  c #FBAAAA",
"|  c #8EB9C4",
" . c #8ABCC8",
".. c #94BAC4",
"X. c #94C6D3",
"o. c #97C8D4",
"O. c #B9C8CC",
"+. c #95DEF0",
"@. c #A9DBE7",
"#. c #C4C4C4",
"$. c #CCC6C6",
"%. c #C4CACB",
"&. c #CCCCCC",
"*. c #D1CECE",
"=. c #CCCFD0",
"-. c #CFD0D0",
";. c #D2D2D2",
":. c #DCDCDC",
">. c #DAEEF3",
",. c #D0F1F9",
"<. c #E6E6E6",
"1. c #E8E7E7",
"2. c #E7E8E8",
"3. c #E8E8E8",
"4. c #EDFBFF",
"5. c #F6FAFB",
"6. c None",
/* pixels */
"6.6.6.6.6.6.6.6.6.6.6.6.6.6.6.6.6.6.6.6.6.6.6.6.6.6.6.6.6.6.6.6.6.6.6.6.6.6.6.6.6.6.6.6.6.6.6.6.6.6.6.6.6.6.6.6.6.6.6.6.6.6.6.6.",
"6.6.6.6.6.6.6.6.6.6.6.6.6.6.6.6.6.6.6.6.6.6.6.6.6.6.6.6.6.6.6.6.6.6.6.6.6.6.6.6.6.6.6.6.6.6.6.6.6.6.6.6.6.6.6.6.6.6.6.6.6.6.6.6.",
"6.6.6.6.6.6.6.6.6.6.6.6.6.6.6.6.6.6.6.6.6.6.6.6.6.6.6.6.6.6.6.6.6.6.6.6.6.6.6.6.6.6.6.6.6.6.6.6.6.6.6.6.6.6.6.6.6.6.6.6.6.6.6.6.",
"6.6.6.6.6.6.6.6.6.6.6.6.6.6.6.6.6.6.6.6.6.6.6.6.6.6.6.6.6.6.6.6.6.6.6.6.6.6.6.6.6.6.6.6.6.6.6.6.6.6.6.6.6.6.6.6.6.6.6.6.6.6.6.6.",
"6.6.6.6.6.6.6.6.6.6.6.6.6.6.6.6.6.6.6.6.6.6.6.6.6.6.6.6.6.6.6.6.6.6.6.6.6.6.6.6.6.6.6.6.6.6.6.6.6.6.6.6.6.6.6.6.6.6.6.6.6.6.6.6.",
"6.6.6.6.6.6.6.6.6.6.6.6.6.6.6.6.6.  O @ O . 6.6.6.6.6.6.6.6.6.6.6.6.6.6.6.6.6.6.6.6.6.6.6.6.6.6.6.6.6.6.6.6.6.6.6.6.6.6.6.6.6.6.",
"6.6.6.6.6.6.6.6.6.6.6.6.6.6.6.6.6.X @ @ $ # O   6.6.6.6.6.6.6.6.6.6.6.6.6.6.. X o . 6.6.6.6.6.6.6.6.6.6.6.6.6.6.6.6.6.6.6.6.6.6.",
"6.6.6.6.6.6.6.6.6.6.6.6.6.6.6.6.6.o @ @ @ # $ @ . 6.6.6.6.6.6.6.6.6.6.6.. O # % % o 6.6.6.6.6.6.6.6.6.6.6.6.6.6.6.6.6.6.6.6.6.6.",
"6.6.6.6.6.6.6.6.6.6.6.6.6.6.6.6.  o @ @ < E 4 T $ 6.6.6.6.6.6.6.6.6.6.. & ; % # # O 6.6.6.6.6.6.6.6.6.6.6.6.6.6.6.6.6.6.6.6.6.6.",
"6.6.6.6.6.6.6.6.6.6.6.6.6.6.6.6.. O @ $ [ ;.&.[ E + 6.6.6.6.6.6.6.6.. * Y & # $ T - 6.6.6.6.6.6.6.6.6.6.6.6.6.6.6.6.6.6.6.6.6.6.",
"6.6.6.6.6.6.6.6.6.6.6.6.6.6.6.6.. O @ : :.:.;.-.#.< 6.6.6.6.6.6.6.6.$ E Y < : [ <.T 6.6.6.6.6.6.6.6.6.6.6.6.6.6.6.6.6.6.6.6.6.6.",
"6.6.6.6.6.6.6.6.6.6.6.6.6.6.6.6.. O + Y 3.<.<.;.&.) 6.6.6.6.6.6.6.O Y E Y T &.3.<.( X 6.6.6.6.6.6.6.6.6.6.6.6.6.6.6.6.6.6.6.6.6.",
"6.6.6.6.6.6.6.6.6.6.6.6.6.6.6.6.X + % ( 3.<.<.<.;.$.E 6.6.6.6.6.6.& E Y Y $.3.<.<.) O 6.6.6.6.6.6.6.6.6.6.6.6.6.6.6.6.6.6.6.6.6.",
"6.6.6.6.6.6.6.6.6.6.6.6.6.6.6.6.O % < [ 1.<.<.1.<.;.W o o O $ O X + % : ( <.<.2.<.] O 6.6.6.6.6.6.6.6.6.6.6.6.6.6.6.6.6.6.6.6.6.",
"6.6.6.6.6.6.6.6.6.6.6.6.6.6.6.6.+ : Y #.1.<.<.<.<.:.[ * @ $ T & @ - @ o - -.2.2.<.[ O 6.6.6.6.6.6.6.6.6.6.6.6.6.6.6.6.6.6.6.6.6.",
"6.6.6.6.6.6.6.6.6.6.6.6.6.6.6.6.+ : Y #.3.<.<.<.1.:.[ > @ # 4 * @ < & + # $ ] 3.<.] O 6.6.6.6.6.6.6.6.6.6.6.6.6.6.6.6.6.6.6.6.6.",
"6.6.6.6.6.6.6.6.6.6.6.6.6.6.6.6.+ ; 5 [ 3.<.<.<.3.<.) 4 $ @ < : # < % @ 4 $ + ] 3.] O 6.6.6.6.6.6.6.6.6.6.6.6.6.6.6.6.6.6.6.6.6.",
"6.6.6.6.6.6.6.6.6.6.6.6.6.6.6.6.O - 4 ] 1.1.<.1.<.:.Y - * @ : < $ < $ $ < $ @ $ &.) o 6.6.6.6.6.6.6.6.6.6.6.6.6.6.6.6.6.6.6.6.6.",
"6.6.6.6.6.6.6.6.6.6.6.6.6.6.6.6.o * 1 ) <.<.<.<.<.;.* % : # * 4 % 1 $ & : @ < - - E 6.6.6.6.6.6.6.6.6.6.6.6.6.6.6.6.6.6.6.6.6.6.",
"6.6.6.6.6.6.6.6.6.6.6.6.6.6.6.6.. * < W <.<.1.<.<.] : $ < $ & Y * 4 $ - * $ T E % $ 6.6.6.6.6.6.6.6.6.6.6.6.6.6.6.6.6.6.6.6.6.6.",
"6.6.6.6.6.6.6.6.6.6.6.6.6.6.6.6.  % : T ;.<.<.<.-.T Y - * - % Y > 4 % < % : Y E 4 X 6.6.6.6.6.6.6.6.6.6.6.6.6.6.6.6.6.6.6.6.6.6.",
"6.6.6.6.6.6.6.6.6.6.6.6.6.6.6.6.  @ ; < ) <.<.&.E Y Y Y : : & Y 5 4 & < * 4 Y Y E % 6.6.6.6.6.6.6.6.6.6.6.6.6.6.6.6.6.6.6.6.6.6.",
"6.6.6.6.6.6.6.6.6.6.6.6.6.6.6.6.6.X - < Y E W T Y Y Y Y 4 4 * 4 Y 4 : : < Y Y Y E < X 6.6.6.6.6.6.6.6.6.6.6.6.6.6.6.6.6.6.6.6.6.",
"6.6.6.6.6.6.6.6.6.6.6.6.6.6.6.6.. X # * < Y 4 Y Y Y Y Y Y Y : 4 Y 5 4 4 Y Y Y Y Y E + 6.6.6.6.6.6.6.6.6.6.6.6.6.6.6.6.6.6.6.6.6.",
"6.6.6.6.6.6.6.6.6.6.6.6.6.6.6.6.o * O @ : Y Y Y Y Y Y Y Y Y 5 4 Y Y Y Y Y Y Y Y Y E & 6.6.6.6.6.6.6.6.6.6.6.6.6.6.6.6.6.6.6.6.6.",
"6.6.6.6.6.6.6.6.6.6.6.6.6.6.6.6.@ 5 4 4 Y Y Y Y Y Y Y Y Y Y Y Y Y Y Y Y Y Y Y Y Y T < . 6.6.6.6.6.6.6.6.6.6.6.6.6.6.6.6.6.6.6.6.",
"6.6.6.6.6.6.6.6.6.6.6.6.6.6.6.6.% Y Y Y Y Y Y Y Y Y Y Y Y Y Y Y Y Y Y Y Y Y Y Y Y T Y O 6.6.6.6.6.6.6.6.6.6.6.6.6.6.6.6.6.6.6.6.",
"6.6.6.6.6.6.6.6.6.6.6.6.6.6.6.. - Y Y Y Y Y Y 4 1 4 Y Y Y Y Y Y Y Y Y Y Y Y Y Y 4 Y E @ 6.6.6.6.6.6.6.6.6.6.6.6.6.6.6.6.6.6.6.6.",
"6.6.6.6.6.6.6.6.6.6.6.6.6.6.6.@ e Y Y Y Y Y < : q q , Y Y Y Y Y Y Y Y Y Y Y 4 , = > T % 6.6.6.6.6.6.6.6.6.6.6.6.6.6.6.6.6.6.6.6.",
"6.6.6.6.6.6.6.6.6.6.6.6.6.6.o > Y Y Y Y Y 4 ; p A +...e Y Y Y Y Y Y Y Y Y Y g N P | e < X 6.6.6.6.6.6.6.6.6.6.6.6.6.6.6.6.6.6.6.",
"6.6.6.6.6.6.6.6.6.6.6.6.6.. % Y Y Y Y Y Y < = B S 5.,.x 5 Y Y Y T T T Y Y l M N >.4.v Y $ 6.6.6.6.6.6.6.6.6.6.6.6.6.6.6.6.6.6.6.",
"6.6.6.6.6.6.6.6.6.6.6.6.6.O < Y Y 5 4 Y Y < h B u X.J s Y W ] *.;.=.[ ) W z V y o.@.f 3 : X 6.6.6.6.6.6.6.6.6.6.6.6.6.6.6.6.6.6.",
"6.6.6.6.6.6.6.6.6.6.6.6.6.O & * & & < Y Y 1 q I G t m b [ <.<.2.;.! ~ ^ ` / K H r i d < % X 6.6.6.6.6.6.6.6.6.6.6.6.6.6.6.6.6.6.",
"6.6.6.6.6.6.6.6.6.6.6.6.6.  X O & < 4 Y Y 5 > n L F D O.1.<.<.<.^ 9 { } ! &. .U C Z g < % . 6.6.6.6.6.6.6.6.6.6.6.6.6.6.6.6.6.6.",
"6.6.6.6.6.6.6.6.6.6.6.6.6.6.. @ % $ 4 < < Y 4 > g k ' <.<.<.<.<.&.8 6 7 _ <.%.c a w - - o 6.6.6.6.6.6.6.6.6.6.6.6.6.6.6.6.6.6.6.",
"6.6.6.6.6.6.6.6.6.6.6.6.6.6.6.. o & - $ 4 Y Y Y 5 R :.1.<.<.<.<.<.:.4 [ <.<.<.[ 5 < % +   6.6.6.6.6.6.6.6.6.6.6.6.6.6.6.6.6.6.6.",
"6.6.6.6.6.6.6.6.6.6.6.6.6.6.6.6.. @ + # : < 4 4 5 ( <.<.<.<.<.<.#.W * E ;.2.3.$.< : #   6.6.6.6.6.6.6.6.6.6.6.6.6.6.6.6.6.6.6.6.",
"6.6.6.6.6.6.6.6.6.6.6.6.6.6.6.6.6.  . # - - : : : E :.:.:.<.<.<.&.W [ ) &.:.:.) : % X 6.6.6.6.6.6.6.6.6.6.6.6.6.6.6.6.6.6.6.6.6.",
"6.6.6.6.6.6.6.6.6.6.6.6.6.6.6.6.6.6.6.. O # & * - 4 $.&.&.;.-.;.;.;.;.;.-.*.O.< @ . 6.6.6.6.6.6.6.6.6.6.6.6.6.6.6.6.6.6.6.6.6.6.",
"6.6.6.6.6.6.6.6.6.6.6.6.6.6.6.6.6.6.6.6.6.6.. X O @ ; T W ) ] [ [ #.[ [ ) Y % X 6.6.6.6.6.6.6.6.6.6.6.6.6.6.6.6.6.6.6.6.6.6.6.6.",
"6.6.6.6.6.6.6.6.6.6.6.6.6.6.6.6.6.6.6.6.6.6.6.6.6.. o # # # % % % # # @ X   6.6.6.6.6.6.6.6.6.6.6.6.6.6.6.6.6.6.6.6.6.6.6.6.6.6.",
"6.6.6.6.6.6.6.6.6.6.6.6.6.6.6.6.6.6.6.6.6.6.6.o % < < < 4 ] :.;.#.& & < % X 6.6.6.6.6.6.6.6.6.6.6.6.6.6.6.6.6.6.6.6.6.6.6.6.6.6.",
"6.6.6.6.6.6.6.6.6.6.6.6.6.6.6.6.6.6.6.6.6.6.+ : Y < - * E :.3.3.3.) # 2 Y - o 6.6.6.6.6.6.6.6.6.6.6.6.6.6.6.6.6.6.6.6.6.6.6.6.6.",
"6.6.6.6.6.6.6.6.6.6.6.6.6.6.6.6.6.6.6.6.6.O < T < # $ < ) <.<.<.1.;.% $ 4 T - 6.6.6.6.6.6.6.6.6.6.6.6.6.6.6.6.6.6.6.6.6.6.6.6.6.",
"6.6.6.6.6.6.6.6.6.6.6.6.6.6.6.6.6.6.6.6.6.- T 4 $ @ 3 Y $.3.<.<.1.1.4 X * Y Y $ 6.6.6.6.6.6.6.6.6.6.6.6.6.6.6.6.6.6.6.6.6.6.6.6.",
"6.6.6.6.6.6.6.6.6.6.6.6.6.6.6.6.6.6.6.6.# T Y - X $ 4 T ;.3.<.<.<.3.( . # 3 T < 6.6.6.6.6.6.6.6.6.6.6.6.6.6.6.6.6.6.6.6.6.6.6.6.",
"6.6.6.6.6.6.6.6.6.6.6.6.6.6.6.6.6.6.6.6.% [ T $ X % < E :.2.<.<.<.3.[ O X : [ T 6.6.6.6.6.6.6.6.6.6.6.6.6.6.6.6.6.6.6.6.6.6.6.6.",
"6.6.6.6.6.6.6.6.6.6.6.6.6.6.6.6.6.6.6.O $ E E # # & < W <.2.<.<.<.3.$.@ 6.& T # 6.6.6.6.6.6.6.6.6.6.6.6.6.6.6.6.6.6.6.6.6.6.6.6.",
"6.6.6.6.6.6.6.6.6.6.6.6.6.6.6.6.6.6.6.* < O o o O $ 4 W <.<.<.<.<.2.$.@ 6.6.6.6.6.6.6.6.6.6.6.6.6.6.6.6.6.6.6.6.6.6.6.6.6.6.6.6.",
"6.6.6.6.6.6.6.6.6.6.6.6.6.6.6.6.O @ # 4 * 6.6.6.X & 4 T &.3.<.<.<.2.) + 6.6.6.6.6.6.6.6.6.6.6.6.6.6.6.6.6.6.6.6.6.6.6.6.6.6.6.6.",
"6.6.6.6.6.6.6.6.6.6.6.6.6.6.6.o @ # # * @ 6.6.6.6.# : 4 ( :.3.3.<.$.: . 6.6.6.6.6.6.6.6.6.6.6.6.6.6.6.6.6.6.6.6.6.6.6.6.6.6.6.6.",
"6.6.6.6.6.6.6.6.6.6.6.6.6.6.6.X O @ @ + 6.6.6.6.6.@ Y Y : Y ) ) W : + 6.6.6.6.6.6.6.6.6.6.6.6.6.6.6.6.6.6.6.6.6.6.6.6.6.6.6.6.6.",
"6.6.6.6.6.6.6.6.6.6.6.6.6.6.6.6.X O o 6.6.6.6.6.6.: T Y - % - - & @ * # 6.6.6.6.6.6.6.6.6.6.6.6.6.6.6.6.6.6.6.6.6.6.6.6.6.6.6.6.",
"6.6.6.6.6.6.6.6.6.6.6.6.6.6.6.6.6.6.6.6.6.6.6.6.+ T E Y : O @ + # : E * 6.6.6.6.6.6.6.6.6.6.6.6.6.6.6.6.6.6.6.6.6.6.6.6.6.6.6.6.",
"6.6.6.6.6.6.6.6.6.6.6.6.6.6.6.6.6.6.6.6.6.6.6.6.% E T Y : o 6.# Y Y E 3 6.6.6.6.6.6.6.6.6.6.6.6.6.6.6.6.6.6.6.6.6.6.6.6.6.6.6.6.",
"6.6.6.6.6.6.6.6.6.6.6.6.6.6.6.6.6.6.6.6.6.6.6.6.- W Y Y : o 6.$ Y Y E T + 6.6.6.6.6.6.6.6.6.6.6.6.6.6.6.6.6.6.6.6.6.6.6.6.6.6.6.",
"6.6.6.6.6.6.6.6.6.6.6.6.6.6.6.6.6.6.6.6.6.6.6.6.< W Y Y - o 6.# 4 Y T W # 6.6.6.6.6.6.6.6.6.6.6.6.6.6.6.6.6.6.6.6.6.6.6.6.6.6.6.",
"6.6.6.6.6.6.6.6.6.6.6.6.6.6.6.6.6.6.6.6.6.6.6.o Y E Y Y * 6.6.# 4 Y Y W & 6.6.6.6.6.6.6.6.6.6.6.6.6.6.6.6.6.6.6.6.6.6.6.6.6.6.6.",
"6.6.6.6.6.6.6.6.6.6.6.6.6.6.6.6.6.6.6.6.6.6.6.@ T T Y 4 % 6.6.O : Y Y E - 6.6.6.6.6.6.6.6.6.6.6.6.6.6.6.6.6.6.6.6.6.6.6.6.6.6.6.",
"6.6.6.6.6.6.6.6.6.6.6.6.6.6.6.6.6.6.6.6.6.6.6.# ) W T 4 & 6.6.O : Y T ) 4 6.6.6.6.6.6.6.6.6.6.6.6.6.6.6.6.6.6.6.6.6.6.6.6.6.6.6.",
"6.6.6.6.6.6.6.6.6.6.6.6.6.6.6.6.6.6.6.6.6.6.6.6.: ] [ ( $ 6.6.6.4 ] [ ) $ 6.6.6.6.6.6.6.6.6.6.6.6.6.6.6.6.6.6.6.6.6.6.6.6.6.6.6.",
"6.6.6.6.6.6.6.6.6.6.6.6.6.6.6.6.6.6.6.6.6.6.6.6.6.# % + 6.6.6.6.O & * @ 6.6.6.6.6.6.6.6.6.6.6.6.6.6.6.6.6.6.6.6.6.6.6.6.6.6.6.6.",
"6.6.6.6.6.6.6.6.6.6.6.6.6.6.6.6.6.6.6.6.6.6.6.6.6.6.6.6.6.6.6.6.6.6.6.6.6.6.6.6.6.6.6.6.6.6.6.6.6.6.6.6.6.6.6.6.6.6.6.6.6.6.6.6.",
"6.6.6.6.6.6.6.6.6.6.6.6.6.6.6.6.6.6.6.6.6.6.6.6.6.6.6.6.6.6.6.6.6.6.6.6.6.6.6.6.6.6.6.6.6.6.6.6.6.6.6.6.6.6.6.6.6.6.6.6.6.6.6.6."
};
