/* XPM */
static char *Idle__5_[] = {
/* columns rows colors chars-per-pixel */
"64 64 118 2 ",
"   c #050505",
".  c #0D0D0D",
"X  c #131313",
"o  c #1B1B1B",
"O  c #242424",
"+  c #2B2B2B",
"@  c #333333",
"#  c #3C3C3C",
"$  c #434343",
"%  c #4C4C4C",
"&  c #545454",
"*  c #5C5C5C",
"=  c #5F6060",
"-  c #5B7177",
";  c #5C7379",
":  c #646464",
">  c #686767",
",  c #656D6F",
"<  c #6C6C6C",
"1  c #706F6F",
"2  c #606F73",
"3  c #657276",
"4  c #6A7273",
"5  c #6D7C7F",
"6  c #737373",
"7  c #787776",
"8  c #747B7C",
"9  c #7B7B7B",
"0  c #826F6F",
"q  c #807F7F",
"w  c #C06A6A",
"e  c #D47878",
"r  c #DA7979",
"t  c #E47676",
"y  c #4C7E8B",
"u  c #507984",
"i  c #7D7F80",
"p  c #0E829F",
"a  c #198DAA",
"s  c #0E92B4",
"d  c #2C8FA8",
"f  c #3791A7",
"g  c #3796AE",
"h  c #3C95AB",
"j  c #3199B3",
"k  c #3F9DB5",
"l  c #37A4BF",
"z  c #3FA4BE",
"x  c #468291",
"c  c #6F8388",
"v  c #65949F",
"b  c #6A939D",
"n  c #418DA0",
"m  c #429DB4",
"M  c #6E96A0",
"N  c #099DC3",
"B  c #0FA8CF",
"V  c #1DABCF",
"C  c #02ABD6",
"Z  c #0FA9D0",
"A  c #00AEDB",
"S  c #0DB0D9",
"D  c #1AB0D5",
"F  c #16B2DA",
"G  c #22A1C1",
"H  c #2EAECF",
"J  c #2AB8DB",
"K  c #42A6C0",
"L  c #46ABC4",
"P  c #50ADC5",
"I  c #5FAEC2",
"U  c #7BB4C2",
"Y  c #59CCE9",
"T  c #6ECAE1",
"R  c #60D5F2",
"E  c #838383",
"W  c #8A8786",
"Q  c #8B8B8B",
"!  c #939393",
"~  c #9A9A9A",
"^  c #B18A8A",
"/  c #AC9E9E",
"(  c #B59393",
")  c #B09898",
"_  c #8CA4A9",
"`  c #84AAB4",
"'  c #8CADB5",
"]  c #A3A3A3",
"[  c #A9A7A6",
"{  c #AAAAAA",
"}  c #B8AAAA",
"|  c #B3B3B3",
" . c #B8B5B4",
".. c #BBBBBB",
"X. c #C2B7B7",
"o. c #EFADAD",
"O. c #F9A2A2",
"+. c #9CBBC3",
"@. c #ACBDC1",
"#. c #80C3D4",
"$. c #9CD9E8",
"%. c #B4D7E0",
"&. c #BFDCE4",
"*. c #9CE1F1",
"=. c #B3E7F3",
"-. c #C4C4C4",
";. c #CAC5C5",
":. c #C2C9CA",
">. c #CCCCCC",
",. c #D3D3D3",
"<. c #DCDCDC",
"1. c #DDF4F9",
"2. c #E6E6E6",
"3. c #E7E8E8",
"4. c #E8E8E8",
"5. c #E4F7FB",
"6. c #ECF7F9",
"7. c None",
/* pixels */
"7.7.7.7.7.7.7.7.7.7.7.7.7.7.7.7.7.7.7.7.7.7.7.7.7.7.7.7.7.7.7.7.7.7.7.7.7.7.7.7.7.7.7.7.7.7.7.7.7.7.7.7.7.7.7.7.7.7.7.7.7.7.7.7.",
"7.7.7.7.7.7.7.7.7.7.7.7.7.7.7.7.7.7.7.7.7.7.7.7.7.7.7.7.7.7.7.7.7.7.7.7.7.7.7.7.7.7.7.7.7.7.7.7.7.7.7.7.7.7.7.7.7.7.7.7.7.7.7.7.",
"7.7.7.7.7.7.7.7.7.7.7.7.7.7.7.7.7.7.7.7.7.7.7.7.7.7.7.7.7.7.7.7.7.7.7.7.7.7.7.7.7.7.7.7.7.7.7.7.7.7.7.7.7.7.7.7.7.7.7.7.7.7.7.7.",
"7.7.7.7.7.7.7.7.7.7.7.7.7.7.7.7.7.7.7.7.7.7.7.7.7.7.7.7.7.7.7.7.7.7.7.7.7.7.7.7.7.7.7.7.7.7.7.7.7.7.7.7.7.7.7.7.7.7.7.7.7.7.7.7.",
"7.7.7.7.7.7.7.7.7.7.7.7.7.7.7.7.7.7.7.7.7.7.7.7.7.7.7.7.7.7.7.7.7.7.7.7.7.7.7.7.7.7.7.7.7.7.7.7.7.7.7.7.7.7.7.7.7.7.7.7.7.7.7.7.",
"7.7.7.7.7.7.7.7.7.7.7.7.7.7.7.7.7.  o o .   7.7.7.7.7.7.7.7.7.7.7.7.7.7.7.7.7.7.7.7.7.7.7.7.7.7.7.7.7.7.7.7.7.7.7.7.7.7.7.7.7.7.",
"7.7.7.7.7.7.7.7.7.7.7.7.7.7.7.7.7.o # $ # + . 7.7.7.7.7.7.7.7.7.7.7.7.7.7.7.7.7..   7.7.7.7.7.7.7.7.7.7.7.7.7.7.7.7.7.7.7.7.7.7.",
"7.7.7.7.7.7.7.7.7.7.7.7.7.7.7.7.7.o @ @ @ # # o 7.7.7.7.7.7.7.7.7.7.7.7.7.  o @ # O 7.7.7.7.7.7.7.7.7.7.7.7.7.7.7.7.7.7.7.7.7.7.",
"7.7.7.7.7.7.7.7.7.7.7.7.7.7.7.7.  O @ @ * < > 6 O 7.7.7.7.7.7.7.7.7.7.7.o & & % % + 7.7.7.7.7.7.7.7.7.7.7.7.7.7.7.7.7.7.7.7.7.7.",
"7.7.7.7.7.7.7.7.7.7.7.7.7.7.7.7.. O @ $ ..>...| 6 o 7.7.7.7.7.7.7.7.7.o < 6 $ @ $ & X 7.7.7.7.7.7.7.7.7.7.7.7.7.7.7.7.7.7.7.7.7.",
"7.7.7.7.7.7.7.7.7.7.7.7.7.7.7.7.. + @ < <.,.>.>. .* 7.7.7.7.7.7.7.7.o > ! < & :  .| + 7.7.7.7.7.7.7.7.7.7.7.7.7.7.7.7.7.7.7.7.7.",
"7.7.7.7.7.7.7.7.7.7.7.7.7.7.7.7.. O @ Q 3.2.2.>.>.] 7.7.7.7.7.7.7.7.& ~ E E Q ,.3.-.# 7.7.7.7.7.7.7.7.7.7.7.7.7.7.7.7.7.7.7.7.7.",
"7.7.7.7.7.7.7.7.7.7.7.7.7.7.7.7.X + # [ 3.3.3.<.>.-.Q 7.7.7.7.7.7.+ Q Q E ~ <.3.3.>.$ 7.7.7.7.7.7.7.7.7.7.7.7.7.7.7.7.7.7.7.7.7.",
"7.7.7.7.7.7.7.7.7.7.7.7.7.7.7.7.o # > ..3.3.3.3.<.,.! X . o O o . O : 9 W >.3.2.3.,.% 7.7.7.7.7.7.7.7.7.7.7.7.7.7.7.7.7.7.7.7.7.",
"7.7.7.7.7.7.7.7.7.7.7.7.7.7.7.7.+ = E -.3.2.2.2.2.<...* + # E * + $ @ O < <.3.3.3.,.% 7.7.7.7.7.7.7.7.7.7.7.7.7.7.7.7.7.7.7.7.7.",
"7.7.7.7.7.7.7.7.7.7.7.7.7.7.7.7.+ < q -.3.2.2.2.3.<...7 # @ 6 < @ < * + + * >.3.2.,.% 7.7.7.7.7.7.7.7.7.7.7.7.7.7.7.7.7.7.7.7.7.",
"7.7.7.7.7.7.7.7.7.7.7.7.7.7.7.7.+ > i ..4.3.3.3.3.2.{ 7 % @ > 6 # > & @ : $ $ >.3.>.% 7.7.7.7.7.7.7.7.7.7.7.7.7.7.7.7.7.7.7.7.7.",
"7.7.7.7.7.7.7.7.7.7.7.7.7.7.7.7.O : 9 | 4.3.2.2.3.<.! = * @ * 9 $ < & @ 7 & O % ,.>.# 7.7.7.7.7.7.7.7.7.7.7.7.7.7.7.7.7.7.7.7.7.",
"7.7.7.7.7.7.7.7.7.7.7.7.7.7.7.7.o * 7 [ 2.2.2.2.3.<.< $ 6 # & E % 4 & $ 6 # & & 1 ..@ 7.7.7.7.7.7.7.7.7.7.7.7.7.7.7.7.7.7.7.7.7.",
"7.7.7.7.7.7.7.7.7.7.7.7.7.7.7.7.. & 1 ~ <.3.2.2.3.-.6 # < % % E * 7 % & > # 8 ! $ < o 7.7.7.7.7.7.7.7.7.7.7.7.7.7.7.7.7.7.7.7.7.",
"7.7.7.7.7.7.7.7.7.7.7.7.7.7.7.7.  $ < W ,.4.3.3.<./ q = * : % c < 9 & : * & E ! 9 o 7.7.7.7.7.7.7.7.7.7.7.7.7.7.7.7.7.7.7.7.7.7.",
"7.7.7.7.7.7.7.7.7.7.7.7.7.7.7.7.7.@ > 7 { 3.4.<.{ E E q = 1 % 9 9 q & < & 6 E W ~ # 7.7.7.7.7.7.7.7.7.7.7.7.7.7.7.7.7.7.7.7.7.7.",
"7.7.7.7.7.7.7.7.7.7.7.7.7.7.7.7.7.o = 4 W [ | ~ E E E E q 7 * 7 E E : 6 > E E E ! 6 X 7.7.7.7.7.7.7.7.7.7.7.7.7.7.7.7.7.7.7.7.7.",
"7.7.7.7.7.7.7.7.7.7.7.7.7.7.7.7.7.. # > 9 q E q E E E E E E 1 6 E q 6 9 9 E E E W Q @ 7.7.7.7.7.7.7.7.7.7.7.7.7.7.7.7.7.7.7.7.7.",
"7.7.7.7.7.7.7.7.7.7.7.7.7.7.7.7.X % o + & E E E E E E E E E 9 9 E E E E E E E E E ! & 7.7.7.7.7.7.7.7.7.7.7.7.7.7.7.7.7.7.7.7.7.",
"7.7.7.7.7.7.7.7.7.7.7.7.7.7.7.7.O 9 : * 9 E E E E E E E E E E E E E E E E E E E E Q 6 . 7.7.7.7.7.7.7.7.7.7.7.7.7.7.7.7.7.7.7.7.",
"7.7.7.7.7.7.7.7.7.7.7.7.7.7.7.7.$ E E E E E E E E E E E E E E E E E E E E E E E E W W O 7.7.7.7.7.7.7.7.7.7.7.7.7.7.7.7.7.7.7.7.",
"7.7.7.7.7.7.7.7.7.7.7.7.7.7.7.  & E E E E E E q q q E E E E E E E E E E E E E E E E ! @ 7.7.7.7.7.7.7.7.7.7.7.7.7.7.7.7.7.7.7.7.",
"7.7.7.7.7.7.7.7.7.7.7.7.7.7.7.O 9 E E E E E 9 < 2 ; 6 E E E E E E E E E E E E 7 4 7 ! % 7.7.7.7.7.7.7.7.7.7.7.7.7.7.7.7.7.7.7.7.",
"7.7.7.7.7.7.7.7.7.7.7.7.7.7.X : E E E E E E < x V T ` 8 E E E E E E E E E E i f K b 9 > . 7.7.7.7.7.7.7.7.7.7.7.7.7.7.7.7.7.7.7.",
"7.7.7.7.7.7.7.7.7.7.7.7.7.7.$ E E E E E E 7 ; B H 6.1.v E E E E E E E E E i j A =.1.M E @ 7.7.7.7.7.7.7.7.7.7.7.7.7.7.7.7.7.7.7.",
"7.7.7.7.7.7.7.7.7.7.7.7.7.O < E E E 9 E E 6 y C a %.$.m E W ] | -...| ] Q c B s &.5.P i > . 7.7.7.7.7.7.7.7.7.7.7.7.7.7.7.7.7.7.",
"7.7.7.7.7.7.7.7.7.7.7.7.7.O * : * & 4 E E 7 u Y I p N m [ >.2.3.<.} / /  ._ J z d G G 6 : o 7.7.7.7.7.7.7.7.7.7.7.7.7.7.7.7.7.7.",
"7.7.7.7.7.7.7.7.7.7.7.7.7.  o O % 6 q E E q , U R C F +.2.3.2.3.} e O.o.( :.#.*.N C n 7 % . 7.7.7.7.7.7.7.7.7.7.7.7.7.7.7.7.7.7.",
"7.7.7.7.7.7.7.7.7.7.7.7.7.7.  @ & % 9 7 7 E 9 3 n h ' 2.4.2.2.3.X.w t r ^ <.@.L D g 4 1 @ 7.7.7.7.7.7.7.7.7.7.7.7.7.7.7.7.7.7.7.",
"7.7.7.7.7.7.7.7.7.7.7.7.7.7.7.. o % : % 9 E E E 9 W ,.4.2.2.2.2.3.;.0 / ,.3.3.[ 7 6 & $ X 7.7.7.7.7.7.7.7.7.7.7.7.7.7.7.7.7.7.7.",
"7.7.7.7.7.7.7.7.7.7.7.7.7.7.7.7.. # @ # 6 9 9 E E ~ 2.3.2.2.3.2.,...= | 2.2.4.;.q 1 $ X 7.7.7.7.7.7.7.7.7.7.7.7.7.7.7.7.7.7.7.7.",
"7.7.7.7.7.7.7.7.7.7.7.7.7.7.7.7.7.  . # : > > 1 1 ~ <.<.2.3.2.2.-.9 ~ Q -.2.<...< * O 7.7.7.7.7.7.7.7.7.7.7.7.7.7.7.7.7.7.7.7.7.",
"7.7.7.7.7.7.7.7.7.7.7.7.7.7.7.7.7.7.7.. + $ * : : i >.,.>.,.,.,.,.<.<.,.,.>.>.~ & O 7.7.7.7.7.7.7.7.7.7.7.7.7.7.7.7.7.7.7.7.7.7.",
"7.7.7.7.7.7.7.7.7.7.7.7.7.7.7.7.7.7.7.7.7.  X O @ % Q {  .-.:.>.>.>.>.>.;.| 9 @ . 7.7.7.7.7.7.7.7.7.7.7.7.7.7.7.7.7.7.7.7.7.7.7.",
"7.7.7.7.7.7.7.7.7.7.7.7.7.7.7.7.7.7.7.7.7.7.7.7.7.  . @ # $ & * = = : & # O   7.7.7.7.7.7.7.7.7.7.7.7.7.7.7.7.7.7.7.7.7.7.7.7.7.",
"7.7.7.7.7.7.7.7.7.7.7.7.7.7.7.7.7.7.7.7.7.7.7.7.+ * : 6 7 ~ ..[ ~ $ # % O 7.7.7.7.7.7.7.7.7.7.7.7.7.7.7.7.7.7.7.7.7.7.7.7.7.7.7.",
"7.7.7.7.7.7.7.7.7.7.7.7.7.7.7.7.7.7.7.7.7.7.7.% 9 E 6 : W <.3.3.4.] $ E 9 # 7.7.7.7.7.7.7.7.7.7.7.7.7.7.7.7.7.7.7.7.7.7.7.7.7.7.",
"7.7.7.7.7.7.7.7.7.7.7.7.7.7.7.7.7.7.7.7.7.7.* E 9 & # > { 3.3.3.3.,.% * E q $ 7.7.7.7.7.7.7.7.7.7.7.7.7.7.7.7.7.7.7.7.7.7.7.7.7.",
"7.7.7.7.7.7.7.7.7.7.7.7.7.7.7.7.7.7.7.7.7.$ E E * # 1 E -.3.2.2.3.3.1 O 4 E 7 O 7.7.7.7.7.7.7.7.7.7.7.7.7.7.7.7.7.7.7.7.7.7.7.7.",
"7.7.7.7.7.7.7.7.7.7.7.7.7.7.7.7.7.7.7.7.7.6 E 7 + $ 9 W ,.3.2.2.3.3.] . % E W % 7.7.7.7.7.7.7.7.7.7.7.7.7.7.7.7.7.7.7.7.7.7.7.7.",
"7.7.7.7.7.7.7.7.7.7.7.7.7.7.7.7.7.7.7.7.@ ~ E * X $ 6 ! <.3.2.3.2.4. .o + 7 [ c 7.7.7.7.7.7.7.7.7.7.7.7.7.7.7.7.7.7.7.7.7.7.7.7.",
"7.7.7.7.7.7.7.7.7.7.7.7.7.7.7.7.7.7.7.7.$ { | % O * 7 ~ <.2.2.2.2.3.;.@ . q ..& 7.7.7.7.7.7.7.7.7.7.7.7.7.7.7.7.7.7.7.7.7.7.7.7.",
"7.7.7.7.7.7.7.7.7.7.7.7.7.7.7.7.7.7.7.% < # * + + $ 9 ~ <.3.3.2.3.3.;.@ 7.+ @ 7.7.7.7.7.7.7.7.7.7.7.7.7.7.7.7.7.7.7.7.7.7.7.7.7.",
"7.7.7.7.7.7.7.7.7.7.7.7.7.7.7.7.o o + 7 > 7.7.7.X & 9 W ,.3.3.3.2.3.| + 7.7.7.7.7.7.7.7.7.7.7.7.7.7.7.7.7.7.7.7.7.7.7.7.7.7.7.7.",
"7.7.7.7.7.7.7.7.7.7.7.7.7.7.7.X @ # $ > $ 7.7.7.7.$ < E [ <.4.4.3.>.6 X 7.7.7.7.7.7.7.7.7.7.7.7.7.7.7.7.7.7.7.7.7.7.7.7.7.7.7.7.",
"7.7.7.7.7.7.7.7.7.7.7.7.7.7.7.o @ @ @ $ o 7.7.7.7.@ c E 6 !  ...[ 9 @ 7.7.7.7.7.7.7.7.7.7.7.7.7.7.7.7.7.7.7.7.7.7.7.7.7.7.7.7.7.",
"7.7.7.7.7.7.7.7.7.7.7.7.7.7.7.7.O + + o 7.7.7.7.7.1 ! E = % > > & # & @ 7.7.7.7.7.7.7.7.7.7.7.7.7.7.7.7.7.7.7.7.7.7.7.7.7.7.7.7.",
"7.7.7.7.7.7.7.7.7.7.7.7.7.7.7.7.7.. 7.7.7.7.7.7.+ Q Q E > + # @ # * ~ * 7.7.7.7.7.7.7.7.7.7.7.7.7.7.7.7.7.7.7.7.7.7.7.7.7.7.7.7.",
"7.7.7.7.7.7.7.7.7.7.7.7.7.7.7.7.7.7.7.7.7.7.7.7.% ~ W E < o 7.# 9 E ! 7 7.7.7.7.7.7.7.7.7.7.7.7.7.7.7.7.7.7.7.7.7.7.7.7.7.7.7.7.",
"7.7.7.7.7.7.7.7.7.7.7.7.7.7.7.7.7.7.7.7.7.7.7.7.= ~ W E < o 7.$ c E ! W + 7.7.7.7.7.7.7.7.7.7.7.7.7.7.7.7.7.7.7.7.7.7.7.7.7.7.7.",
"7.7.7.7.7.7.7.7.7.7.7.7.7.7.7.7.7.7.7.7.7.7.7.7.6 ~ W E : o 7.# q W Q ~ # 7.7.7.7.7.7.7.7.7.7.7.7.7.7.7.7.7.7.7.7.7.7.7.7.7.7.7.",
"7.7.7.7.7.7.7.7.7.7.7.7.7.7.7.7.7.7.7.7.7.7.7.O c ! E E * 7.7.@ 7 E W ~ % 7.7.7.7.7.7.7.7.7.7.7.7.7.7.7.7.7.7.7.7.7.7.7.7.7.7.7.",
"7.7.7.7.7.7.7.7.7.7.7.7.7.7.7.7.7.7.7.7.7.7.7.@ ! W E 9 % 7.7.+ 1 E E ~ : 7.7.7.7.7.7.7.7.7.7.7.7.7.7.7.7.7.7.7.7.7.7.7.7.7.7.7.",
"7.7.7.7.7.7.7.7.7.7.7.7.7.7.7.7.7.7.7.7.7.7.7.# [ / W E % 7.7.O 1 q Q [ 9 7.7.7.7.7.7.7.7.7.7.7.7.7.7.7.7.7.7.7.7.7.7.7.7.7.7.7.",
"7.7.7.7.7.7.7.7.7.7.7.7.7.7.7.7.7.7.7.7.7.7.7.7.< ....] $ 7.7.7.9  ...[ $ 7.7.7.7.7.7.7.7.7.7.7.7.7.7.7.7.7.7.7.7.7.7.7.7.7.7.7.",
"7.7.7.7.7.7.7.7.7.7.7.7.7.7.7.7.7.7.7.7.7.7.7.7.7.@ % + 7.7.7.7.O & * @ 7.7.7.7.7.7.7.7.7.7.7.7.7.7.7.7.7.7.7.7.7.7.7.7.7.7.7.7.",
"7.7.7.7.7.7.7.7.7.7.7.7.7.7.7.7.7.7.7.7.7.7.7.7.7.7.7.7.7.7.7.7.7.7.7.7.7.7.7.7.7.7.7.7.7.7.7.7.7.7.7.7.7.7.7.7.7.7.7.7.7.7.7.7.",
"7.7.7.7.7.7.7.7.7.7.7.7.7.7.7.7.7.7.7.7.7.7.7.7.7.7.7.7.7.7.7.7.7.7.7.7.7.7.7.7.7.7.7.7.7.7.7.7.7.7.7.7.7.7.7.7.7.7.7.7.7.7.7.7."
};
