/* XPM */
static char *Idle__6_[] = {
/* columns rows colors chars-per-pixel */
"64 64 116 2 ",
"   c #030303",
".  c #0C0C0C",
"X  c #131313",
"o  c #1C1C1C",
"O  c #232323",
"+  c #2B2B2B",
"@  c #343434",
"#  c #3C3C3C",
"$  c #434343",
"%  c #4C4C4C",
"&  c #535353",
"*  c #5C5C5C",
"=  c #5F6060",
"-  c #5C7176",
";  c #58757D",
":  c #646464",
">  c #6C6C6C",
",  c #677376",
"<  c #6B7375",
"1  c #747474",
"2  c #797777",
"3  c #727B7E",
"4  c #7C7C7C",
"5  c #837171",
"6  c #807F7F",
"7  c #BE6A6A",
"8  c #D37777",
"9  c #DB7979",
"0  c #E37575",
"q  c #4E7C88",
"w  c #527780",
"e  c #767E80",
"r  c #7E7F80",
"t  c #0A809E",
"y  c #158CAA",
"u  c #0B92B5",
"i  c #0B9ABF",
"p  c #3A8FA4",
"a  c #2D90A9",
"s  c #3597AF",
"d  c #3A95AC",
"f  c #3399B2",
"g  c #3C9FB7",
"h  c #3EA4BE",
"j  c #448393",
"k  c #478899",
"l  c #718286",
"z  c #68929D",
"x  c #4193A7",
"c  c #419EB6",
"v  c #6498A4",
"b  c #7097A1",
"n  c #76ABB9",
"m  c #079EC5",
"M  c #0FA8CF",
"N  c #12A8CF",
"B  c #03AAD5",
"V  c #0AAFD9",
"C  c #1AADD1",
"Z  c #00B1DE",
"A  c #17B2D9",
"S  c #19B2D8",
"D  c #21A2C3",
"F  c #29ABCB",
"G  c #3DA5C0",
"H  c #29B6DA",
"J  c #47ACC5",
"K  c #54B0C8",
"L  c #6AB5C8",
"P  c #7FC2D3",
"I  c #5FCDE8",
"U  c #5CD3F1",
"Y  c #72CEE5",
"T  c #838383",
"R  c #8B8887",
"E  c #8B8B8B",
"W  c #908F8F",
"Q  c #949494",
"!  c #9B9B9B",
"~  c #B28989",
"^  c #AC9D9D",
"/  c #B69292",
"(  c #B09898",
")  c #8FA4A9",
"_  c #90ADB4",
"`  c #8AB2BC",
"'  c #A3A3A3",
"]  c #ABACAC",
"[  c #B9AAAA",
"{  c #B4B4B4",
"}  c #B8B4B4",
"|  c #BDBDBD",
" . c #C4BABA",
".. c #F9A2A2",
"X. c #F0ADAD",
"o. c #9EBCC4",
"O. c #ADBEC2",
"+. c #A6D0DA",
"@. c #98D6E6",
"#. c #BCDBE3",
"$. c #9FE2F2",
"%. c #AAE4F2",
"&. c #C4C4C4",
"*. c #C2C8CA",
"=. c #CCCCCC",
"-. c #D4D3D3",
";. c #D8D7D7",
":. c #DCDCDC",
">. c #DFF6FB",
",. c #E6E6E6",
"<. c #E7E8E8",
"1. c #E8E8E8",
"2. c #E0F5FA",
"3. c #EAF5F8",
"4. c #EBF9FD",
"5. c None",
/* pixels */
"5.5.5.5.5.5.5.5.5.5.5.5.5.5.5.5.5.5.5.5.5.5.5.5.5.5.5.5.5.5.5.5.5.5.5.5.5.5.5.5.5.5.5.5.5.5.5.5.5.5.5.5.5.5.5.5.5.5.5.5.5.5.5.5.",
"5.5.5.5.5.5.5.5.5.5.5.5.5.5.5.5.5.5.5.5.5.5.5.5.5.5.5.5.5.5.5.5.5.5.5.5.5.5.5.5.5.5.5.5.5.5.5.5.5.5.5.5.5.5.5.5.5.5.5.5.5.5.5.5.",
"5.5.5.5.5.5.5.5.5.5.5.5.5.5.5.5.5.5.5.5.5.5.5.5.5.5.5.5.5.5.5.5.5.5.5.5.5.5.5.5.5.5.5.5.5.5.5.5.5.5.5.5.5.5.5.5.5.5.5.5.5.5.5.5.",
"5.5.5.5.5.5.5.5.5.5.5.5.5.5.5.5.5.5.5.5.5.5.5.5.5.5.5.5.5.5.5.5.5.5.5.5.5.5.5.5.5.5.5.5.5.5.5.5.5.5.5.5.5.5.5.5.5.5.5.5.5.5.5.5.",
"5.5.5.5.5.5.5.5.5.5.5.5.5.5.5.5.5.5.5.5.5.5.5.5.5.5.5.5.5.5.5.5.5.5.5.5.5.5.5.5.5.5.5.5.5.5.5.5.5.5.5.5.5.5.5.5.5.5.5.5.5.5.5.5.",
"5.5.5.5.5.5.5.5.5.5.5.5.5.5.5.5.5.  o X . 5.5.5.5.5.5.5.5.5.5.5.5.5.5.5.5.5.5.5.5.5.5.5.5.5.5.5.5.5.5.5.5.5.5.5.5.5.5.5.5.5.5.5.",
"5.5.5.5.5.5.5.5.5.5.5.5.5.5.5.5.5.o # $ # +   5.5.5.5.5.5.5.5.5.5.5.5.5.5.5.5.5.    5.5.5.5.5.5.5.5.5.5.5.5.5.5.5.5.5.5.5.5.5.5.",
"5.5.5.5.5.5.5.5.5.5.5.5.5.5.5.5.  O @ @ @ # # o 5.5.5.5.5.5.5.5.5.5.5.5.5.5.X + # + 5.5.5.5.5.5.5.5.5.5.5.5.5.5.5.5.5.5.5.5.5.5.",
"5.5.5.5.5.5.5.5.5.5.5.5.5.5.5.5.  + @ @ : > > 1 O 5.5.5.5.5.5.5.5.5.5.5.X $ & % % # . 5.5.5.5.5.5.5.5.5.5.5.5.5.5.5.5.5.5.5.5.5.",
"5.5.5.5.5.5.5.5.5.5.5.5.5.5.5.5.. + @ % | =.| { 1 X 5.5.5.5.5.5.5.5.5.X = 2 % # # % o 5.5.5.5.5.5.5.5.5.5.5.5.5.5.5.5.5.5.5.5.5.",
"5.5.5.5.5.5.5.5.5.5.5.5.5.5.5.5.. + @ 2 :.-.=.=.} * 5.5.5.5.5.5.5.5.. * Q 1 & & ' | $ 5.5.5.5.5.5.5.5.5.5.5.5.5.5.5.5.5.5.5.5.5.",
"5.5.5.5.5.5.5.5.5.5.5.5.5.5.5.5.. O @ Q 1.,.:.-.=.^ 5.5.5.5.5.5.5.5.$ Q E T R &.,.-.& 5.5.5.5.5.5.5.5.5.5.5.5.5.5.5.5.5.5.5.5.5.",
"5.5.5.5.5.5.5.5.5.5.5.5.5.5.5.5.. + # [ 1.,.,.,.=.*.Q 5.5.5.5.5.5.o T W T W -.<.,.;.* 5.5.5.5.5.5.5.5.5.5.5.5.5.5.5.5.5.5.5.5.5.",
"5.5.5.5.5.5.5.5.5.5.5.5.5.5.5.5.o # :  .1.,.,.,.:.=.Q X . X + o . o = 2 R &.,.<.,.:.: 5.5.5.5.5.5.5.5.5.5.5.5.5.5.5.5.5.5.5.5.5.",
"5.5.5.5.5.5.5.5.5.5.5.5.5.5.5.5.+ * R &.1.,.,.,.,.;.| : @ @ 6 : + $ # o * -.<.,.,.:.: 5.5.5.5.5.5.5.5.5.5.5.5.5.5.5.5.5.5.5.5.5.",
"5.5.5.5.5.5.5.5.5.5.5.5.5.5.5.5.@ > 6  .1.,.,.,.,.:.+.4 # @ > 1 @ : > + O & &.<.,.:.* 5.5.5.5.5.5.5.5.5.5.5.5.5.5.5.5.5.5.5.5.5.",
"5.5.5.5.5.5.5.5.5.5.5.5.5.5.5.5.+ : 4 | 1.,.,.,.,.,.] 1 % @ : 2 # : * + * & # | ,.:.* 5.5.5.5.5.5.5.5.5.5.5.5.5.5.5.5.5.5.5.5.5.",
"5.5.5.5.5.5.5.5.5.5.5.5.5.5.5.5.O : 2 { <.,.<.,.,.,.Q * : @ & 6 $ : * @ < * O $ =.-.% 5.5.5.5.5.5.5.5.5.5.5.5.5.5.5.5.5.5.5.5.5.",
"5.5.5.5.5.5.5.5.5.5.5.5.5.5.5.5.X * 1 ] ,.,.,.,.<.:.> $ 1 # % T & > * # 1 # % * : &.# 5.5.5.5.5.5.5.5.5.5.5.5.5.5.5.5.5.5.5.5.5.",
"5.5.5.5.5.5.5.5.5.5.5.5.5.5.5.5.. & > Q :.<.,.,.<.&.1 $ > & % l * 1 * % > # 1 Q % 1 + 5.5.5.5.5.5.5.5.5.5.5.5.5.5.5.5.5.5.5.5.5.",
"5.5.5.5.5.5.5.5.5.5.5.5.5.5.5.5.  $ > T =.,.,.,.:.! T : & > $ 4 > 2 & : : % T Q 4 O 5.5.5.5.5.5.5.5.5.5.5.5.5.5.5.5.5.5.5.5.5.5.",
"5.5.5.5.5.5.5.5.5.5.5.5.5.5.5.5.5.+ : 1 ] ,.1.:.] T T T : 1 % 2 6 6 * > & < T R Q $ 5.5.5.5.5.5.5.5.5.5.5.5.5.5.5.5.5.5.5.5.5.5.",
"5.5.5.5.5.5.5.5.5.5.5.5.5.5.5.5.5.X * > R ' { ! T T T T r 4 * 1 T 6 : 1 : T T T Q 2 X 5.5.5.5.5.5.5.5.5.5.5.5.5.5.5.5.5.5.5.5.5.",
"5.5.5.5.5.5.5.5.5.5.5.5.5.5.5.5.5.. # : 2 4 T T T T T T T T 1 1 T T 1 2 2 T T T R Q @ 5.5.5.5.5.5.5.5.5.5.5.5.5.5.5.5.5.5.5.5.5.",
"5.5.5.5.5.5.5.5.5.5.5.5.5.5.5.5.X % O O & 4 T T T T T T T T r 2 T T T T T T T T T Q * 5.5.5.5.5.5.5.5.5.5.5.5.5.5.5.5.5.5.5.5.5.",
"5.5.5.5.5.5.5.5.5.5.5.5.5.5.5.5.O 2 : * 1 T T T T T T T T T T T T T T T T T T T 6 W 2 . 5.5.5.5.5.5.5.5.5.5.5.5.5.5.5.5.5.5.5.5.",
"5.5.5.5.5.5.5.5.5.5.5.5.5.5.5.5.# T R T T T T T T T T T T T T T T T T T T T T T T R E O 5.5.5.5.5.5.5.5.5.5.5.5.5.5.5.5.5.5.5.5.",
"5.5.5.5.5.5.5.5.5.5.5.5.5.5.5.  & T T T T T T 6 4 4 T T T T T T T T T T T T T T l R Q # 5.5.5.5.5.5.5.5.5.5.5.5.5.5.5.5.5.5.5.5.",
"5.5.5.5.5.5.5.5.5.5.5.5.5.5.5.+ 4 T T T T T 2 > , ; < T T T T T T T T T T T 6 2 1 1 W % 5.5.5.5.5.5.5.5.5.5.5.5.5.5.5.5.5.5.5.5.",
"5.5.5.5.5.5.5.5.5.5.5.5.5.5.X : T T T T T 6 > j C Y ` 3 T T T T T T T T T T 3 p h z 4 > . 5.5.5.5.5.5.5.5.5.5.5.5.5.5.5.5.5.5.5.",
"5.5.5.5.5.5.5.5.5.5.5.5.5.5.$ T T T T T T 2 , M F 3.>.v T T T T T T T T T r s V %.2.b T # 5.5.5.5.5.5.5.5.5.5.5.5.5.5.5.5.5.5.5.",
"5.5.5.5.5.5.5.5.5.5.5.5.5.O 1 T T l 4 T T 1 q B y +.@.g 4 E ' } +.&.{ ' E l N u #.4.K 3 > . 5.5.5.5.5.5.5.5.5.5.5.5.5.5.5.5.5.5.",
"5.5.5.5.5.5.5.5.5.5.5.5.5.O & & & & 2 l T 1 ; I L t m c ] ;.,.1.:.[ ( ^ } ) H h a h C < = o 5.5.5.5.5.5.5.5.5.5.5.5.5.5.5.5.5.5.",
"5.5.5.5.5.5.5.5.5.5.5.5.5.5.X O % 1 4 T T r > n U Z S o.,.,.,.,.[ 0 ..X./ *.P $.i B p 1 & . 5.5.5.5.5.5.5.5.5.5.5.5.5.5.5.5.5.5.",
"5.5.5.5.5.5.5.5.5.5.5.5.5.5.  @ % % 2 1 1 R 6 < k x _ ,.,.,.,.,. .8 0 8 ~ :.O.J C f , > @ 5.5.5.5.5.5.5.5.5.5.5.5.5.5.5.5.5.5.5.",
"5.5.5.5.5.5.5.5.5.5.5.5.5.5.5.. X & = % 2 T T 6 4 R -.,.,.,.,.,.,.&.5 ~ ;.,.,.] 3 1 & % X 5.5.5.5.5.5.5.5.5.5.5.5.5.5.5.5.5.5.5.",
"5.5.5.5.5.5.5.5.5.5.5.5.5.5.5.5.. @ @ @ 1 2 4 6 6 ^ ,.,.,.,.,.,.=.&.= ] :.,.<.=.r 1 $ X 5.5.5.5.5.5.5.5.5.5.5.5.5.5.5.5.5.5.5.5.",
"5.5.5.5.5.5.5.5.5.5.5.5.5.5.5.5.5.  . # : : > > > Q :.:.,.,.,.,.&.r ! E &.,.:.| > = + 5.5.5.5.5.5.5.5.5.5.5.5.5.5.5.5.5.5.5.5.5.",
"5.5.5.5.5.5.5.5.5.5.5.5.5.5.5.5.5.5.5.. O $ & = : l =.=.=.-.-.-.;.-.:.-.-.-.=.Q & O 5.5.5.5.5.5.5.5.5.5.5.5.5.5.5.5.5.5.5.5.5.5.",
"5.5.5.5.5.5.5.5.5.5.5.5.5.5.5.5.5.5.5.5.5.  X O + $ T ] { &.&.=.=.=.=.=.&.{ r @ . 5.5.5.5.5.5.5.5.5.5.5.5.5.5.5.5.5.5.5.5.5.5.5.",
"5.5.5.5.5.5.5.5.5.5.5.5.5.5.5.5.5.5.5.5.5.5.5.5.5.  . @ # $ & * = = = & # O . 5.5.5.5.5.5.5.5.5.5.5.5.5.5.5.5.5.5.5.5.5.5.5.5.5.",
"5.5.5.5.5.5.5.5.5.5.5.5.5.5.5.5.5.5.5.5.5.5.5.5.+ * : 1 1 ' | ] ' $ # % o 5.5.5.5.5.5.5.5.5.5.5.5.5.5.5.5.5.5.5.5.5.5.5.5.5.5.5.",
"5.5.5.5.5.5.5.5.5.5.5.5.5.5.5.5.5.5.5.5.5.5.5.% 4 6 < = E :.1.1.1.] $ T 2 # 5.5.5.5.5.5.5.5.5.5.5.5.5.5.5.5.5.5.5.5.5.5.5.5.5.5.",
"5.5.5.5.5.5.5.5.5.5.5.5.5.5.5.5.5.5.5.5.5.5.% T 4 * # > ] 1.1.,.,.;.% = T r # 5.5.5.5.5.5.5.5.5.5.5.5.5.5.5.5.5.5.5.5.5.5.5.5.5.",
"5.5.5.5.5.5.5.5.5.5.5.5.5.5.5.5.5.5.5.5.5.# R l = # 1 R &.1.,.,.,.,.1 + 1 T < o 5.5.5.5.5.5.5.5.5.5.5.5.5.5.5.5.5.5.5.5.5.5.5.5.",
"5.5.5.5.5.5.5.5.5.5.5.5.5.5.5.5.5.5.5.5.5.> R 2 + $ 2 E ;.,.1.,.,.1.' X & 6 R $ 5.5.5.5.5.5.5.5.5.5.5.5.5.5.5.5.5.5.5.5.5.5.5.5.",
"5.5.5.5.5.5.5.5.5.5.5.5.5.5.5.5.5.5.5.5.+ ! T * X % 1 Q :.1.,.,.,.1.| o @ 2 ' 1 5.5.5.5.5.5.5.5.5.5.5.5.5.5.5.5.5.5.5.5.5.5.5.5.",
"5.5.5.5.5.5.5.5.5.5.5.5.5.5.5.5.5.5.5.5.$ ] } & o * 2 Q ,.,.,.1.1.1.&.@ X E | & 5.5.5.5.5.5.5.5.5.5.5.5.5.5.5.5.5.5.5.5.5.5.5.5.",
"5.5.5.5.5.5.5.5.5.5.5.5.5.5.5.5.5.5.5.% 1 # : + + $ 2 ! :.,.,.,.1.1.&.@ 5.@ @ 5.5.5.5.5.5.5.5.5.5.5.5.5.5.5.5.5.5.5.5.5.5.5.5.5.",
"5.5.5.5.5.5.5.5.5.5.5.5.5.5.5.5.X o + 1 : 5.5.5.X * 2 E -.,.,.,.1.1.] + 5.5.5.5.5.5.5.5.5.5.5.5.5.5.5.5.5.5.5.5.5.5.5.5.5.5.5.5.",
"5.5.5.5.5.5.5.5.5.5.5.5.5.5.5.5.@ @ $ > $ 5.5.5.5.$ > l ' :.1.,.1.&.> . 5.5.5.5.5.5.5.5.5.5.5.5.5.5.5.5.5.5.5.5.5.5.5.5.5.5.5.5.",
"5.5.5.5.5.5.5.5.5.5.5.5.5.5.5.X @ @ @ $ o 5.5.5.5.@ 6 T > E ] { ^ 1 @ 5.5.5.5.5.5.5.5.5.5.5.5.5.5.5.5.5.5.5.5.5.5.5.5.5.5.5.5.5.",
"5.5.5.5.5.5.5.5.5.5.5.5.5.5.5.5.O @ + o 5.5.5.5.5.> Q T * % > : % @ * @ 5.5.5.5.5.5.5.5.5.5.5.5.5.5.5.5.5.5.5.5.5.5.5.5.5.5.5.5.",
"5.5.5.5.5.5.5.5.5.5.5.5.5.5.5.5.5.X . 5.5.5.5.5.+ W E T : + @ + # > ! * 5.5.5.5.5.5.5.5.5.5.5.5.5.5.5.5.5.5.5.5.5.5.5.5.5.5.5.5.",
"5.5.5.5.5.5.5.5.5.5.5.5.5.5.5.5.5.5.5.5.5.5.5.5.% Q W T > o 5.# 6 R Q 2 5.5.5.5.5.5.5.5.5.5.5.5.5.5.5.5.5.5.5.5.5.5.5.5.5.5.5.5.",
"5.5.5.5.5.5.5.5.5.5.5.5.5.5.5.5.5.5.5.5.5.5.5.5.* ! R T > o 5.$ 6 l Q E + 5.5.5.5.5.5.5.5.5.5.5.5.5.5.5.5.5.5.5.5.5.5.5.5.5.5.5.",
"5.5.5.5.5.5.5.5.5.5.5.5.5.5.5.5.5.5.5.5.5.5.5.5.1 ! R T : o 5.# 6 T E Q $ 5.5.5.5.5.5.5.5.5.5.5.5.5.5.5.5.5.5.5.5.5.5.5.5.5.5.5.",
"5.5.5.5.5.5.5.5.5.5.5.5.5.5.5.5.5.5.5.5.5.5.5.O 6 Q l T * 5.5.@ 2 T E Q % 5.5.5.5.5.5.5.5.5.5.5.5.5.5.5.5.5.5.5.5.5.5.5.5.5.5.5.",
"5.5.5.5.5.5.5.5.5.5.5.5.5.5.5.5.5.5.5.5.5.5.5.@ W R T 4 % 5.5.+ 1 T R Q : 5.5.5.5.5.5.5.5.5.5.5.5.5.5.5.5.5.5.5.5.5.5.5.5.5.5.5.",
"5.5.5.5.5.5.5.5.5.5.5.5.5.5.5.5.5.5.5.5.5.5.5.# ] ^ R T % 5.5.O > 4 R ] 4 5.5.5.5.5.5.5.5.5.5.5.5.5.5.5.5.5.5.5.5.5.5.5.5.5.5.5.",
"5.5.5.5.5.5.5.5.5.5.5.5.5.5.5.5.5.5.5.5.5.5.5.5.> { | ' $ 5.5.5.4 { | ] $ 5.5.5.5.5.5.5.5.5.5.5.5.5.5.5.5.5.5.5.5.5.5.5.5.5.5.5.",
"5.5.5.5.5.5.5.5.5.5.5.5.5.5.5.5.5.5.5.5.5.5.5.5.5.@ % + 5.5.5.5.O & * @ 5.5.5.5.5.5.5.5.5.5.5.5.5.5.5.5.5.5.5.5.5.5.5.5.5.5.5.5.",
"5.5.5.5.5.5.5.5.5.5.5.5.5.5.5.5.5.5.5.5.5.5.5.5.5.5.5.5.5.5.5.5.5.5.5.5.5.5.5.5.5.5.5.5.5.5.5.5.5.5.5.5.5.5.5.5.5.5.5.5.5.5.5.5.",
"5.5.5.5.5.5.5.5.5.5.5.5.5.5.5.5.5.5.5.5.5.5.5.5.5.5.5.5.5.5.5.5.5.5.5.5.5.5.5.5.5.5.5.5.5.5.5.5.5.5.5.5.5.5.5.5.5.5.5.5.5.5.5.5."
};
