/* XPM */
static char *Idle__9_[] = {
/* columns rows colors chars-per-pixel */
"64 64 115 2 ",
"   c #040404",
".  c #0B0B0B",
"X  c #131313",
"o  c #1C1C1C",
"O  c #242424",
"+  c #2B2B2B",
"@  c #343434",
"#  c #3C3C3C",
"$  c #434343",
"%  c #4C4C4C",
"&  c #535353",
"*  c #5B5B5B",
"=  c #56747B",
"-  c #646464",
";  c #636C6E",
":  c #6B6B6B",
">  c #647376",
",  c #6F7070",
"<  c #62787D",
"1  c #747474",
"2  c #717778",
"3  c #7C7B7B",
"4  c #817F7E",
"5  c #AA6060",
"6  c #AE7171",
"7  c #E17272",
"8  c #81807F",
"9  c #507A84",
"0  c #5F7980",
"q  c #517D88",
"w  c #607A80",
"e  c #697C80",
"r  c #0982A1",
"t  c #0087AB",
"y  c #0D8CAC",
"u  c #1E8EAA",
"i  c #2999B5",
"p  c #2C9CB8",
"a  c #3899B2",
"s  c #34A2BD",
"d  c #49808E",
"f  c #5A808A",
"g  c #438596",
"h  c #4E8896",
"j  c #4A8C9D",
"k  c #678288",
"l  c #718185",
"z  c #708C93",
"x  c #65919C",
"c  c #569AAA",
"v  c #719AA5",
"b  c #64A6B6",
"n  c #64ADBF",
"m  c #029AC0",
"M  c #16A3C7",
"N  c #18A6CA",
"B  c #03A9D3",
"V  c #0DACD4",
"C  c #14ACD3",
"Z  c #14B1D9",
"A  c #1DB8DF",
"S  c #31A4C1",
"D  c #0AB7E3",
"F  c #04B9E6",
"G  c #43ADC7",
"H  c #4DB6D0",
"J  c #7BB9C9",
"K  c #36C0E2",
"L  c #7FC7DA",
"P  c #5CC6E0",
"I  c #5FCFEB",
"U  c #72D3EB",
"Y  c #838383",
"T  c #888787",
"R  c #898887",
"E  c #8C8C8C",
"W  c #949494",
"Q  c #9A9A9A",
"!  c #AE8585",
"~  c #B28484",
"^  c #B78887",
"/  c #B59F9F",
"(  c #BF9A9A",
")  c #A3A3A3",
"_  c #AAAAAA",
"`  c #B5A8A7",
"'  c #BCADAD",
"]  c #B3B3B3",
"[  c #BCBCBC",
"{  c #CA9292",
"}  c #FF9B9B",
"|  c #FCA2A2",
" . c #90B9C3",
".. c #A9BBC0",
"X. c #8BCBDA",
"o. c #94CFDE",
"O. c #A0CBD5",
"+. c #ADD2DB",
"@. c #85D5E9",
"#. c #B5EBF8",
"$. c #C3C3C3",
"%. c #CAC4C4",
"&. c #CCCCCC",
"*. c #CBD1D2",
"=. c #D2D2D2",
"-. c #DCDCDC",
";. c #D6EBF0",
":. c #D1F3FB",
">. c #E6E6E6",
",. c #E8E7E7",
"<. c #E7E9E9",
"1. c #E8E8E8",
"2. c #F1F6F8",
"3. c #F0FDFF",
"4. c None",
/* pixels */
"4.4.4.4.4.4.4.4.4.4.4.4.4.4.4.4.4.4.4.4.4.4.4.4.4.4.4.4.4.4.4.4.4.4.4.4.4.4.4.4.4.4.4.4.4.4.4.4.4.4.4.4.4.4.4.4.4.4.4.4.4.4.4.4.",
"4.4.4.4.4.4.4.4.4.4.4.4.4.4.4.4.4.4.4.4.4.4.4.4.4.4.4.4.4.4.4.4.4.4.4.4.4.4.4.4.4.4.4.4.4.4.4.4.4.4.4.4.4.4.4.4.4.4.4.4.4.4.4.4.",
"4.4.4.4.4.4.4.4.4.4.4.4.4.4.4.4.4.4.4.4.4.4.4.4.4.4.4.4.4.4.4.4.4.4.4.4.4.4.4.4.4.4.4.4.4.4.4.4.4.4.4.4.4.4.4.4.4.4.4.4.4.4.4.4.",
"4.4.4.4.4.4.4.4.4.4.4.4.4.4.4.4.4.4.4.4.4.4.4.4.4.4.4.4.4.4.4.4.4.4.4.4.4.4.4.4.4.4.4.4.4.4.4.4.4.4.4.4.4.4.4.4.4.4.4.4.4.4.4.4.",
"4.4.4.4.4.4.4.4.4.4.4.4.4.4.4.4.4.4.    4.4.4.4.4.4.4.4.4.4.4.4.4.4.4.4.4.4.4.4.4.4.4.4.4.4.4.4.4.4.4.4.4.4.4.4.4.4.4.4.4.4.4.4.",
"4.4.4.4.4.4.4.4.4.4.4.4.4.4.4.4.4.. @ @ + X   4.4.4.4.4.4.4.4.4.4.4.4.4.4.4.4.4.4.4.4.4.4.4.4.4.4.4.4.4.4.4.4.4.4.4.4.4.4.4.4.4.",
"4.4.4.4.4.4.4.4.4.4.4.4.4.4.4.4.4.X @ # # $ O   4.4.4.4.4.4.4.4.4.4.4.4.4.4.. o O X 4.4.4.4.4.4.4.4.4.4.4.4.4.4.4.4.4.4.4.4.4.4.",
"4.4.4.4.4.4.4.4.4.4.4.4.4.4.4.4.  o @ @ @ # % $ . 4.4.4.4.4.4.4.4.4.4.4.. + # % % O 4.4.4.4.4.4.4.4.4.4.4.4.4.4.4.4.4.4.4.4.4.4.",
"4.4.4.4.4.4.4.4.4.4.4.4.4.4.4.4.  O @ @ R _ W W % 4.4.4.4.4.4.4.4.4.4.. & : % # # + 4.4.4.4.4.4.4.4.4.4.4.4.4.4.4.4.4.4.4.4.4.4.",
"4.4.4.4.4.4.4.4.4.4.4.4.4.4.4.4.. O @ & %.=.&.$.Q @ 4.4.4.4.4.4.4.4.. & E * $ $ E 8 4.4.4.4.4.4.4.4.4.4.4.4.4.4.4.4.4.4.4.4.4.4.",
"4.4.4.4.4.4.4.4.4.4.4.4.4.4.4.4.. + + 1 >.-.=.&.&.3 4.4.4.4.4.4.4.4.# W R 3 : [ -._ o 4.4.4.4.4.4.4.4.4.4.4.4.4.4.4.4.4.4.4.4.4.",
"4.4.4.4.4.4.4.4.4.4.4.4.4.4.4.4.. O @ W ,.>.1.-.*.] 4.4.4.4.4.4.4.o Y W l E &.<.,.[ + 4.4.4.4.4.4.4.4.4.4.4.4.4.4.4.4.4.4.4.4.4.",
"4.4.4.4.4.4.4.4.4.4.4.4.4.4.4.4.X @ & ` ,.,.>.>.-.&.W 4.4.4.4.4.  $ E Y R $.>.,.,.$.@ 4.4.4.4.4.4.4.4.4.4.4.4.4.4.4.4.4.4.4.4.4.",
"4.4.4.4.4.4.4.4.4.4.4.4.4.4.4.4.O % 4 [ ,.>.>.,.-.=.) + O + * @ o O # & Q >.>.,.,.%.# 4.4.4.4.4.4.4.4.4.4.4.4.4.4.4.4.4.4.4.4.4.",
"4.4.4.4.4.4.4.4.4.4.4.4.4.4.4.4.+ : 4 %.,.>.,.>.,.-.$.: @ # Y - @ : % X $ ] ,.,.,.$.# 4.4.4.4.4.4.4.4.4.4.4.4.4.4.4.4.4.4.4.4.4.",
"4.4.4.4.4.4.4.4.4.4.4.4.4.4.4.4.+ : 4 +.,.>.,.,.,.-.[ 1 # @ 1 - @ : & @ $ # W ,.>.%.# 4.4.4.4.4.4.4.4.4.4.4.4.4.4.4.4.4.4.4.4.4.",
"4.4.4.4.4.4.4.4.4.4.4.4.4.4.4.4.O : 3 [ 1.,.,.,.,.>.) 1 % @ : , # , % @ 3 % O W ,.$.@ 4.4.4.4.4.4.4.4.4.4.4.4.4.4.4.4.4.4.4.4.4.",
"4.4.4.4.4.4.4.4.4.4.4.4.4.4.4.4.o - 3 ] 1.,.>.>.,.-.3 * - @ - 3 $ 1 % # 1 $ # # ] [ O 4.4.4.4.4.4.4.4.4.4.4.4.4.4.4.4.4.4.4.4.4.",
"4.4.4.4.4.4.4.4.4.4.4.4.4.4.4.4.X * 1 ) >.>.,.>.,.=.* $ 1 # & Y & 1 % % : @ 1 1 % Q o 4.4.4.4.4.4.4.4.4.4.4.4.4.4.4.4.4.4.4.4.4.",
"4.4.4.4.4.4.4.4.4.4.4.4.4.4.4.4.. & , W -.,.>.>.,._ 3 % : & % Y - 3 % - * % Y Q & @ 4.4.4.4.4.4.4.4.4.4.4.4.4.4.4.4.4.4.4.4.4.4.",
"4.4.4.4.4.4.4.4.4.4.4.4.4.4.4.4.  $ : Y &.<.1.1.&.R Y : * - % 4 1 3 & : & : Y E E o 4.4.4.4.4.4.4.4.4.4.4.4.4.4.4.4.4.4.4.4.4.4.",
"4.4.4.4.4.4.4.4.4.4.4.4.4.4.4.4.4.+ - 1 Q =.-.$.E Y Y Y , 1 & 3 4 3 * 1 * 4 Y Y Q & 4.4.4.4.4.4.4.4.4.4.4.4.4.4.4.4.4.4.4.4.4.4.",
"4.4.4.4.4.4.4.4.4.4.4.4.4.4.4.4.4.X * : Y E E T Y Y Y Y 8 8 - 3 Y 4 : 1 2 Y Y Y E 3 o 4.4.4.4.4.4.4.4.4.4.4.4.4.4.4.4.4.4.4.4.4.",
"4.4.4.4.4.4.4.4.4.4.4.4.4.4.4.4.. o + % : Y Y Y Y Y Y Y Y Y 1 1 R l 3 3 Y Y Y Y R W # 4.4.4.4.4.4.4.4.4.4.4.4.4.4.4.4.4.4.4.4.4.",
"4.4.4.4.4.4.4.4.4.4.4.4.4.4.4.4.o - @ @ : Y Y Y Y Y Y Y Y Y l 4 Y Y Y Y Y Y Y Y Y W * 4.4.4.4.4.4.4.4.4.4.4.4.4.4.4.4.4.4.4.4.4.",
"4.4.4.4.4.4.4.4.4.4.4.4.4.4.4.4.@ Y 8 l Y Y Y Y Y Y Y Y Y Y Y Y Y Y Y Y Y Y Y Y Y E 3 X 4.4.4.4.4.4.4.4.4.4.4.4.4.4.4.4.4.4.4.4.",
"4.4.4.4.4.4.4.4.4.4.4.4.4.4.4.4.% Y Y Y Y Y Y Y Y Y Y Y Y Y Y Y Y Y Y Y Y Y Y Y Y R E O 4.4.4.4.4.4.4.4.4.4.4.4.4.4.4.4.4.4.4.4.",
"4.4.4.4.4.4.4.4.4.4.4.4.4.4.4.X : R Y Y Y Y Y 3 1 1 3 Y Y Y Y Y Y Y Y Y Y Y Y 4 4 4 W # 4.4.4.4.4.4.4.4.4.4.4.4.4.4.4.4.4.4.4.4.",
"4.4.4.4.4.4.4.4.4.4.4.4.4.4.4.$ 4 Y Y Y Y Y 1 ; g j e 4 Y Y Y Y Y Y Y Y Y Y 4 < 9 > R & 4.4.4.4.4.4.4.4.4.4.4.4.4.4.4.4.4.4.4.4.",
"4.4.4.4.4.4.4.4.4.4.4.4.4.4.O 1 Y Y Y Y Y 3 ; i A #.+.l Y Y Y Y Y Y Y Y Y 4 h C U o.e 4 o 4.4.4.4.4.4.4.4.4.4.4.4.4.4.4.4.4.4.4.",
"4.4.4.4.4.4.4.4.4.4.4.4.4.. * Y Y Y Y Y Y 1 9 B s 2.:.c 8 Y Y E W W E R Y l N M ;.3.b Y % 4.4.4.4.4.4.4.4.4.4.4.4.4.4.4.4.4.4.4.",
"4.4.4.4.4.4.4.4.4.4.4.4.4.+ 1 Y 4 , 1 Y Y 1 q Z u n H a R _ %.-.-.=.[ ] ) z V y J o.S 2 : o 4.4.4.4.4.4.4.4.4.4.4.4.4.4.4.4.4.4.",
"4.4.4.4.4.4.4.4.4.4.4.4.4.o $ $ $ * 3 Y Y 1 = @.L y B b &.>.,.,.%.~ { ( ` ] P X.r m p , % X 4.4.4.4.4.4.4.4.4.4.4.4.4.4.4.4.4.4.",
"4.4.4.4.4.4.4.4.4.4.4.4.4.4.. + * : 3 Y Y Y 1 x K D S *.,.>.>.,./ 7 } | ^ =. .I F Z f 1 $ . 4.4.4.4.4.4.4.4.4.4.4.4.4.4.4.4.4.4.",
"4.4.4.4.4.4.4.4.4.4.4.4.4.4.  + # $ 3 - 1 Y 3 1 w k [ <.,.>.>.>.=.! 5 6 ' >.*.v h 0 - - o 4.4.4.4.4.4.4.4.4.4.4.4.4.4.4.4.4.4.4.",
"4.4.4.4.4.4.4.4.4.4.4.4.4.4.4.  X & & # 3 Y Y Y Y W -.,.>.>.>.>.,.>.3 $.,.,.,.+.4 1 $ O 4.4.4.4.4.4.4.4.4.4.4.4.4.4.4.4.4.4.4.4.",
"4.4.4.4.4.4.4.4.4.4.4.4.4.4.4.4.  O O # : , 1 3 3 ) >.,.,.,.,.>.[ Y * Y %.>.,.%.1 - #   4.4.4.4.4.4.4.4.4.4.4.4.4.4.4.4.4.4.4.4.",
"4.4.4.4.4.4.4.4.4.4.4.4.4.4.4.4.4.4.. + & - : : : E =.=.-.-.-.>.=.] =.[ =.-.=.) - $ X 4.4.4.4.4.4.4.4.4.4.4.4.4.4.4.4.4.4.4.4.4.",
"4.4.4.4.4.4.4.4.4.4.4.4.4.4.4.4.4.4.4.4.X + # % * 1 $.=.=.=.=.*.=.=.=.=.=.=.[ : + . 4.4.4.4.4.4.4.4.4.4.4.4.4.4.4.4.4.4.4.4.4.4.",
"4.4.4.4.4.4.4.4.4.4.4.4.4.4.4.4.4.4.4.4.4.4.4.. X O % - 3 E Q ) _ ] ` _ W : @ . 4.4.4.4.4.4.4.4.4.4.4.4.4.4.4.4.4.4.4.4.4.4.4.4.",
"4.4.4.4.4.4.4.4.4.4.4.4.4.4.4.4.4.4.4.4.4.4.4.4.4.o + % $ % * * % + @ + . 4.4.4.4.4.4.4.4.4.4.4.4.4.4.4.4.4.4.4.4.4.4.4.4.4.4.4.",
"4.4.4.4.4.4.4.4.4.4.4.4.4.4.4.4.4.4.4.4.4.4.4.O * 1 3 1 Y %.,.-.-.: % 3 & o 4.4.4.4.4.4.4.4.4.4.4.4.4.4.4.4.4.4.4.4.4.4.4.4.4.4.",
"4.4.4.4.4.4.4.4.4.4.4.4.4.4.4.4.4.4.4.4.4.4.@ 1 Y 1 & * W >.,.>.<.[ $ 1 Y : O 4.4.4.4.4.4.4.4.4.4.4.4.4.4.4.4.4.4.4.4.4.4.4.4.4.",
"4.4.4.4.4.4.4.4.4.4.4.4.4.4.4.4.4.4.4.4.4.+ 3 Y : # % 3 ] 1.,.,.,.-.& # 3 T - 4.4.4.4.4.4.4.4.4.4.4.4.4.4.4.4.4.4.4.4.4.4.4.4.4.",
"4.4.4.4.4.4.4.4.4.4.4.4.4.4.4.4.4.4.4.4.4.- R 3 # $ l R &.<.>.>.,.<.Y . * Y Y $ 4.4.4.4.4.4.4.4.4.4.4.4.4.4.4.4.4.4.4.4.4.4.4.4.",
"4.4.4.4.4.4.4.4.4.4.4.4.4.4.4.4.4.4.4.4.@ R Y - X # 1 E -.>.>.>.>.<._ X @ 3 E 1 4.4.4.4.4.4.4.4.4.4.4.4.4.4.4.4.4.4.4.4.4.4.4.4.",
"4.4.4.4.4.4.4.4.4.4.4.4.4.4.4.4.4.4.4.4.$ ..Q $ X * 3 W -.>.>.,.>.<.[ + X 3 %.4 4.4.4.4.4.4.4.4.4.4.4.4.4.4.4.4.4.4.4.4.4.4.4.4.",
"4.4.4.4.4.4.4.4.4.4.4.4.4.4.4.4.4.4.4.# & 3 W # @ % 1 Q >.>.>.>.,.,.&.@ 4.& 2 + 4.4.4.4.4.4.4.4.4.4.4.4.4.4.4.4.4.4.4.4.4.4.4.4.",
"4.4.4.4.4.4.4.4.4.4.4.4.4.4.4.4.4.4.4.- 1 o X X O % 3 W -.,.>.>.,.,.$.@ 4.4.4.4.4.4.4.4.4.4.4.4.4.4.4.4.4.4.4.4.4.4.4.4.4.4.4.4.",
"4.4.4.4.4.4.4.4.4.4.4.4.4.4.4.4.+ @ $ 1 & 4.4.4.. & 3 R &.1.,.>.,.,.Q O 4.4.4.4.4.4.4.4.4.4.4.4.4.4.4.4.4.4.4.4.4.4.4.4.4.4.4.4.",
"4.4.4.4.4.4.4.4.4.4.4.4.4.4.4.o @ @ # & + 4.4.4.4.# - 3 E &.>.,.-.] & 4.4.4.4.4.4.4.4.4.4.4.4.4.4.4.4.4.4.4.4.4.4.4.4.4.4.4.4.4.",
"4.4.4.4.4.4.4.4.4.4.4.4.4.4.4.. + @ @ + 4.4.4.4.4.@ Y Y : 1 E W l * + 4.4.4.4.4.4.4.4.4.4.4.4.4.4.4.4.4.4.4.4.4.4.4.4.4.4.4.4.4.",
"4.4.4.4.4.4.4.4.4.4.4.4.4.4.4.4.X o o 4.4.4.4.4.4.: W Y - $ - & $ # , @ 4.4.4.4.4.4.4.4.4.4.4.4.4.4.4.4.4.4.4.4.4.4.4.4.4.4.4.4.",
"4.4.4.4.4.4.4.4.4.4.4.4.4.4.4.4.4.4.4.4.4.4.4.4.+ E E Y : o o O & 1 Q * 4.4.4.4.4.4.4.4.4.4.4.4.4.4.4.4.4.4.4.4.4.4.4.4.4.4.4.4.",
"4.4.4.4.4.4.4.4.4.4.4.4.4.4.4.4.4.4.4.4.4.4.4.4.% Q R Y : o 4.$ Y R W 1 4.4.4.4.4.4.4.4.4.4.4.4.4.4.4.4.4.4.4.4.4.4.4.4.4.4.4.4.",
"4.4.4.4.4.4.4.4.4.4.4.4.4.4.4.4.4.4.4.4.4.4.4.4.* Q R Y : o 4.$ 4 Y W E + 4.4.4.4.4.4.4.4.4.4.4.4.4.4.4.4.4.4.4.4.4.4.4.4.4.4.4.",
"4.4.4.4.4.4.4.4.4.4.4.4.4.4.4.4.4.4.4.4.4.4.4.4.2 Q Y Y - o 4.# 4 Y E W $ 4.4.4.4.4.4.4.4.4.4.4.4.4.4.4.4.4.4.4.4.4.4.4.4.4.4.4.",
"4.4.4.4.4.4.4.4.4.4.4.4.4.4.4.4.4.4.4.4.4.4.4.o Y W Y Y * 4.4.@ 3 Y R Q % 4.4.4.4.4.4.4.4.4.4.4.4.4.4.4.4.4.4.4.4.4.4.4.4.4.4.4.",
"4.4.4.4.4.4.4.4.4.4.4.4.4.4.4.4.4.4.4.4.4.4.4.@ E E Y 3 % 4.4.+ , Y Y W - 4.4.4.4.4.4.4.4.4.4.4.4.4.4.4.4.4.4.4.4.4.4.4.4.4.4.4.",
"4.4.4.4.4.4.4.4.4.4.4.4.4.4.4.4.4.4.4.4.4.4.4.# _ Q R Y % 4.4.O : 4 E _ 3 4.4.4.4.4.4.4.4.4.4.4.4.4.4.4.4.4.4.4.4.4.4.4.4.4.4.4.",
"4.4.4.4.4.4.4.4.4.4.4.4.4.4.4.4.4.4.4.4.4.4.4.4., [ [ ) $ 4.4.4.3 ] [ _ $ 4.4.4.4.4.4.4.4.4.4.4.4.4.4.4.4.4.4.4.4.4.4.4.4.4.4.4.",
"4.4.4.4.4.4.4.4.4.4.4.4.4.4.4.4.4.4.4.4.4.4.4.4.4.@ % + 4.4.4.4.O & * @ 4.4.4.4.4.4.4.4.4.4.4.4.4.4.4.4.4.4.4.4.4.4.4.4.4.4.4.4.",
"4.4.4.4.4.4.4.4.4.4.4.4.4.4.4.4.4.4.4.4.4.4.4.4.4.4.4.4.4.4.4.4.4.4.4.4.4.4.4.4.4.4.4.4.4.4.4.4.4.4.4.4.4.4.4.4.4.4.4.4.4.4.4.4.",
"4.4.4.4.4.4.4.4.4.4.4.4.4.4.4.4.4.4.4.4.4.4.4.4.4.4.4.4.4.4.4.4.4.4.4.4.4.4.4.4.4.4.4.4.4.4.4.4.4.4.4.4.4.4.4.4.4.4.4.4.4.4.4.4."
};
