/* XPM */
static char *Idle__10_[] = {
/* columns rows colors chars-per-pixel */
"64 64 117 2 ",
"   c #040404",
".  c #0C0C0C",
"X  c #141414",
"o  c #1C1C1C",
"O  c #232323",
"+  c #2C2C2C",
"@  c #343434",
"#  c #3B3B3B",
"$  c #434343",
"%  c #4C4C4C",
"&  c #545454",
"*  c #585656",
"=  c #5B5B5B",
"-  c #5A7277",
";  c #58737A",
":  c #636363",
">  c #6C6C6C",
",  c #706F6E",
"<  c #606D70",
"1  c #6F7273",
"2  c #67777B",
"3  c #6C7678",
"4  c #737373",
"5  c #787675",
"6  c #737A7C",
"7  c #7C7B7B",
"8  c #926161",
"9  c #807F7F",
"0  c #D96D6D",
"q  c #C07C7C",
"w  c #82807F",
"e  c #4B7F8C",
"r  c #637D84",
"t  c #068BAE",
"y  c #0091B7",
"u  c #1F93B0",
"i  c #1A9ABB",
"p  c #2891AB",
"a  c #3793AA",
"s  c #3C96AD",
"d  c #289FBC",
"f  c #389EB9",
"g  c #468392",
"h  c #488595",
"j  c #6C848A",
"k  c #758183",
"l  c #7F8182",
"z  c #608892",
"x  c #75969E",
"c  c #4692A5",
"v  c #5097A9",
"b  c #4C9EB2",
"n  c #50A2B7",
"m  c #54A5B9",
"M  c #5CABBF",
"N  c #7AACB9",
"B  c #1CA1C2",
"V  c #00A5D0",
"C  c #01A8D3",
"Z  c #0DA9D0",
"A  c #07AED9",
"S  c #14B2DA",
"D  c #28A1C0",
"F  c #30ABCA",
"G  c #25B9DE",
"H  c #29BADE",
"J  c #30B5D6",
"K  c #0CB9E4",
"L  c #57B4CB",
"P  c #44BCDA",
"I  c #75CADF",
"U  c #78CBE0",
"Y  c #838383",
"T  c #8B8B8B",
"R  c #949494",
"E  c #9B9B9B",
"W  c #A78282",
"Q  c #B38787",
"!  c #B49E9E",
"~  c #909FA3",
"^  c #98B6BE",
"/  c #A4A4A4",
"(  c #AAAAAA",
")  c #B6A1A1",
"_  c #B2ACAC",
"`  c #B1B0AF",
"'  c #B4B4B4",
"]  c #BFB3B3",
"[  c #BCBCBC",
"{  c #F28F8F",
"}  c #FD8D8D",
"|  c #E09A9A",
" . c #D3A1A1",
".. c #B4C3C7",
"X. c #8ED5E7",
"o. c #9BD8E7",
"O. c #B7DBE3",
"+. c #A4E5F5",
"@. c #C4C4C4",
"#. c #C9C6C6",
"$. c #CCCCCC",
"%. c #D3D3D3",
"&. c #D9D7D6",
"*. c #D5D8D8",
"=. c #DBDBDB",
"-. c #C2E2EA",
";. c #DBEBEF",
":. c #C1EDF8",
">. c #D2F4FC",
",. c #E5E5E5",
"<. c #E8E7E7",
"1. c #E8E8E7",
"2. c #E7E8E8",
"3. c #E8E8E8",
"4. c #E7FAFF",
"5. c #F1F6F8",
"6. c None",
/* pixels */
"6.6.6.6.6.6.6.6.6.6.6.6.6.6.6.6.6.6.6.6.6.6.6.6.6.6.6.6.6.6.6.6.6.6.6.6.6.6.6.6.6.6.6.6.6.6.6.6.6.6.6.6.6.6.6.6.6.6.6.6.6.6.6.6.",
"6.6.6.6.6.6.6.6.6.6.6.6.6.6.6.6.6.6.6.6.6.6.6.6.6.6.6.6.6.6.6.6.6.6.6.6.6.6.6.6.6.6.6.6.6.6.6.6.6.6.6.6.6.6.6.6.6.6.6.6.6.6.6.6.",
"6.6.6.6.6.6.6.6.6.6.6.6.6.6.6.6.6.6.6.6.6.6.6.6.6.6.6.6.6.6.6.6.6.6.6.6.6.6.6.6.6.6.6.6.6.6.6.6.6.6.6.6.6.6.6.6.6.6.6.6.6.6.6.6.",
"6.6.6.6.6.6.6.6.6.6.6.6.6.6.6.6.6.6.6.6.6.6.6.6.6.6.6.6.6.6.6.6.6.6.6.6.6.6.6.6.6.6.6.6.6.6.6.6.6.6.6.6.6.6.6.6.6.6.6.6.6.6.6.6.",
"6.6.6.6.6.6.6.6.6.6.6.6.6.6.6.6.6.6.. X   6.6.6.6.6.6.6.6.6.6.6.6.6.6.6.6.6.6.6.6.6.6.6.6.6.6.6.6.6.6.6.6.6.6.6.6.6.6.6.6.6.6.6.",
"6.6.6.6.6.6.6.6.6.6.6.6.6.6.6.6.6.. @ # # O . 6.6.6.6.6.6.6.6.6.6.6.6.6.6.6.6.6.  6.6.6.6.6.6.6.6.6.6.6.6.6.6.6.6.6.6.6.6.6.6.6.",
"6.6.6.6.6.6.6.6.6.6.6.6.6.6.6.6.6.X @ @ @ $ # X 6.6.6.6.6.6.6.6.6.6.6.6.6.. o @ @ . 6.6.6.6.6.6.6.6.6.6.6.6.6.6.6.6.6.6.6.6.6.6.",
"6.6.6.6.6.6.6.6.6.6.6.6.6.6.6.6.6.o @ @ # % % = o 6.6.6.6.6.6.6.6.6.6.6.O % % % $ X 6.6.6.6.6.6.6.6.6.6.6.6.6.6.6.6.6.6.6.6.6.6.",
"6.6.6.6.6.6.6.6.6.6.6.6.6.6.6.6.  o @ @ R @.( E : . 6.6.6.6.6.6.6.6.6.+ 7 = # # % @ 6.6.6.6.6.6.6.6.6.6.6.6.6.6.6.6.6.6.6.6.6.6.",
"6.6.6.6.6.6.6.6.6.6.6.6.6.6.6.6.. O @ % #.%.$.#.( % 6.6.6.6.6.6.6.6.O Y 7 * $ r #., 6.6.6.6.6.6.6.6.6.6.6.6.6.6.6.6.6.6.6.6.6.6.",
"6.6.6.6.6.6.6.6.6.6.6.6.6.6.6.6.. O @ 1 ,.,.=.$.$.R 6.6.6.6.6.6.6.X > R Y 7 R ,.=.T 6.6.6.6.6.6.6.6.6.6.6.6.6.6.6.6.6.6.6.6.6.6.",
"6.6.6.6.6.6.6.6.6.6.6.6.6.6.6.6.. O @ T ,.,.,.=.$.[ 4 6.6.6.6.6.6.$ R Y Y ( ,.2.1.E 6.6.6.6.6.6.6.6.6.6.6.6.6.6.6.6.6.6.6.6.6.6.",
"6.6.6.6.6.6.6.6.6.6.6.6.6.6.6.6.X # = _ 1.,.1.,.=.#.R 6.  . .     & Y Y R =.2.,.,./ o 6.6.6.6.6.6.6.6.6.6.6.6.6.6.6.6.6.6.6.6.6.",
"6.6.6.6.6.6.6.6.6.6.6.6.6.6.6.6.+ = w @.1.,.,.,.,.%.( @ O # > # O @ + $ ( 3.,.,.1._ o 6.6.6.6.6.6.6.6.6.6.6.6.6.6.6.6.6.6.6.6.6.",
"6.6.6.6.6.6.6.6.6.6.6.6.6.6.6.6.+ > w @.1.1.,.1.1.=...: @ $ T * @ 5 $ o # E ,.,.1.' O 6.6.6.6.6.6.6.6.6.6.6.6.6.6.6.6.6.6.6.6.6.",
"6.6.6.6.6.6.6.6.6.6.6.6.6.6.6.6.+ > w @.1.,.,.,.1.=.[ 4 @ # 5 = # 4 % @ = @ Y ,.1._ o 6.6.6.6.6.6.6.6.6.6.6.6.6.6.6.6.6.6.6.6.6.",
"6.6.6.6.6.6.6.6.6.6.6.6.6.6.6.6.O > 7 [ 3.,.,.,.,.,.E 5 % @ > > # 4 $ # 7 $ o T ,./ o 6.6.6.6.6.6.6.6.6.6.6.6.6.6.6.6.6.6.6.6.6.",
"6.6.6.6.6.6.6.6.6.6.6.6.6.6.6.6.o : 7 ' 3.2.2.,.,.=.4 = : @ > 5 % 5 $ % > # & # ( / X 6.6.6.6.6.6.6.6.6.6.6.6.6.6.6.6.6.6.6.6.6.",
"6.6.6.6.6.6.6.6.6.6.6.6.6.6.6.6.o = 5 / ,.,.,.,.,.@.= $ , # : 9 & 5 $ = : # Y 7 % 5 6.6.6.6.6.6.6.6.6.6.6.6.6.6.6.6.6.6.6.6.6.6.",
"6.6.6.6.6.6.6.6.6.6.6.6.6.6.6.6.. & > E ,.,.,.2.;./ 5 % > % & w : 5 $ > & * T E = o 6.6.6.6.6.6.6.6.6.6.6.6.6.6.6.6.6.6.6.6.6.6.",
"6.6.6.6.6.6.6.6.6.6.6.6.6.6.6.6.  % > Y #.3.2.,.' Y Y 4 : : % Y 5 9 & , % 7 Y T T O 6.6.6.6.6.6.6.6.6.6.6.6.6.6.6.6.6.6.6.6.6.6.",
"6.6.6.6.6.6.6.6.6.6.6.6.6.6.6.6.6.+ : 5 E #.$.( Y Y Y Y 1 5 & 7 Y r = , : Y Y Y R & 6.6.6.6.6.6.6.6.6.6.6.6.6.6.6.6.6.6.6.6.6.6.",
"6.6.6.6.6.6.6.6.6.6.6.6.6.6.6.6.6.X * 1 Y Y T Y Y Y Y Y Y 9 : 7 Y 9 4 4 7 Y Y Y T l o 6.6.6.6.6.6.6.6.6.6.6.6.6.6.6.6.6.6.6.6.6.",
"6.6.6.6.6.6.6.6.6.6.6.6.6.6.6.6.X O o $ > Y Y Y Y Y Y Y Y Y 4 7 Y w 9 9 Y Y Y Y Y R # 6.6.6.6.6.6.6.6.6.6.6.6.6.6.6.6.6.6.6.6.6.",
"6.6.6.6.6.6.6.6.6.6.6.6.6.6.6.6.O 4 % & 7 Y Y Y Y Y Y Y Y Y l 9 Y Y Y Y Y Y Y Y Y R = 6.6.6.6.6.6.6.6.6.6.6.6.6.6.6.6.6.6.6.6.6.",
"6.6.6.6.6.6.6.6.6.6.6.6.6.6.6.6.# Y Y Y Y Y Y Y Y Y Y Y Y Y Y Y Y Y Y Y Y Y Y Y Y T 7 X 6.6.6.6.6.6.6.6.6.6.6.6.6.6.6.6.6.6.6.6.",
"6.6.6.6.6.6.6.6.6.6.6.6.6.6.6.6.* Y Y Y Y Y Y Y Y Y Y Y Y Y Y Y Y Y Y Y Y Y Y Y Y T T O 6.6.6.6.6.6.6.6.6.6.6.6.6.6.6.6.6.6.6.6.",
"6.6.6.6.6.6.6.6.6.6.6.6.6.6.6.o 1 Y Y Y Y Y w 4 , , 9 Y Y Y Y Y Y Y Y Y Y Y Y 7 5 l T # 6.6.6.6.6.6.6.6.6.6.6.6.6.6.6.6.6.6.6.6.",
"6.6.6.6.6.6.6.6.6.6.6.6.6.6.  % Y Y Y Y Y w , - a b j 9 Y Y Y Y Y Y Y Y Y Y 5 h c r Y = 6.6.6.6.6.6.6.6.6.6.6.6.6.6.6.6.6.6.6.6.",
"6.6.6.6.6.6.6.6.6.6.6.6.6.6.+ 7 Y Y Y Y w 9 < B H >.O.j w Y Y w w Y Y Y Y 9 a S +.-.j l O 6.6.6.6.6.6.6.6.6.6.6.6.6.6.6.6.6.6.6.",
"6.6.6.6.6.6.6.6.6.6.6.6.6.. : Y Y Y Y Y Y 5 e V f 5.:.v 9 Y T E / / / T Y j Z i ;.4.m l = 6.6.6.6.6.6.6.6.6.6.6.6.6.6.6.6.6.6.6.",
"6.6.6.6.6.6.6.6.6.6.6.6.6.@ 4 7 7 > 4 r Y 5 e H p b F s R ] *.,.,.#._ ( ' x S u n L d 4 : X 6.6.6.6.6.6.6.6.6.6.6.6.6.6.6.6.6.6.",
"6.6.6.6.6.6.6.6.6.6.6.6.6.o # # $ : 9 Y Y 7 ; X.I t A N &.3.,.3.] q |  .! ..U o.t V a 4 % . 6.6.6.6.6.6.6.6.6.6.6.6.6.6.6.6.6.6.",
"6.6.6.6.6.6.6.6.6.6.6.6.6.6.. + = > 6 l 7 Y 1 z J S L *.3.,.,.2.) 0 } { Q *.^ P K D 2 > # 6.6.6.6.6.6.6.6.6.6.6.6.6.6.6.6.6.6.6.",
"6.6.6.6.6.6.6.6.6.6.6.6.6.6.  + @ $ 5 : 5 Y l 5 3 r #.,.,.,.,.1.=.! 8 W #.2.=.~ r 1 & & X 6.6.6.6.6.6.6.6.6.6.6.6.6.6.6.6.6.6.6.",
"6.6.6.6.6.6.6.6.6.6.6.6.6.6.6.  X & % # 5 Y Y Y Y E ,.,.3.,.,.,.,.=.> @.2.,.2.#.9 4 $ X 6.6.6.6.6.6.6.6.6.6.6.6.6.6.6.6.6.6.6.6.",
"6.6.6.6.6.6.6.6.6.6.6.6.6.6.6.6.6.o o $ > > 4 5 9 / ,.,.,.,.,.,.[ 4 , 9 #.,.,.[ > : +   6.6.6.6.6.6.6.6.6.6.6.6.6.6.6.6.6.6.6.6.",
"6.6.6.6.6.6.6.6.6.6.6.6.6.6.6.6.6.6.  + % : : > : T $.%.*.=.=.=.*.#.=.$.%.%.%.~ = + . 6.6.6.6.6.6.6.6.6.6.6.6.6.6.6.6.6.6.6.6.6.",
"6.6.6.6.6.6.6.6.6.6.6.6.6.6.6.6.6.6.6.6.. O @ $ & <  .$.$.%.$.$.$.%.$.%.$.#./ % o 6.6.6.6.6.6.6.6.6.6.6.6.6.6.6.6.6.6.6.6.6.6.6.",
"6.6.6.6.6.6.6.6.6.6.6.6.6.6.6.6.6.6.6.6.6.6.6.  . X @ & = 4 l T T R R Y , $ o   6.6.6.6.6.6.6.6.6.6.6.6.6.6.6.6.6.6.6.6.6.6.6.6.",
"6.6.6.6.6.6.6.6.6.6.6.6.6.6.6.6.6.6.6.6.6.6.6.6.6.# $ = & : 7 4 : O # @ . 6.6.6.6.6.6.6.6.6.6.6.6.6.6.6.6.6.6.6.6.6.6.6.6.6.6.6.",
"6.6.6.6.6.6.6.6.6.6.6.6.6.6.6.6.6.6.6.6.6.6.6.# > 7 7 > Y #.3.2.,.5 & Y 1 @ 6.6.6.6.6.6.6.6.6.6.6.6.6.6.6.6.6.6.6.6.6.6.6.6.6.6.",
"6.6.6.6.6.6.6.6.6.6.6.6.6.6.6.6.6.6.6.6.6.6.& Y Y : $ : E ,.2.,.3.[ # : Y l # 6.6.6.6.6.6.6.6.6.6.6.6.6.6.6.6.6.6.6.6.6.6.6.6.6.",
"6.6.6.6.6.6.6.6.6.6.6.6.6.6.6.6.6.6.6.6.6.$ Y Y : + & 7 ' 3.,.,.,.,.& + 4 Y 5 + 6.6.6.6.6.6.6.6.6.6.6.6.6.6.6.6.6.6.6.6.6.6.6.6.",
"6.6.6.6.6.6.6.6.6.6.6.6.6.6.6.6.6.6.6.6.O 5 Y 4 O $ Y T $.1.,.,.,.3.T . % Y T & 6.6.6.6.6.6.6.6.6.6.6.6.6.6.6.6.6.6.6.6.6.6.6.6.",
"6.6.6.6.6.6.6.6.6.6.6.6.6.6.6.6.6.6.6.6.% E l & . $ > T =.,.1.,.2.3.( X O > E T 6.6.6.6.6.6.6.6.6.6.6.6.6.6.6.6.6.6.6.6.6.6.6.6.",
"6.6.6.6.6.6.6.6.6.6.6.6.6.6.6.6.6.6.6.6.$ #.E # + * 7 R =.1.,.1.,.3.@.+ 6.> #.5 6.6.6.6.6.6.6.6.6.6.6.6.6.6.6.6.6.6.6.6.6.6.6.6.",
"6.6.6.6.6.6.6.6.6.6.6.6.6.6.6.6.6.6.6.# = * : @ @ % 5 R ,.1.,.,.,.3.#.@ 6.+ $ 6.6.6.6.6.6.6.6.6.6.6.6.6.6.6.6.6.6.6.6.6.6.6.6.6.",
"6.6.6.6.6.6.6.6.6.6.6.6.6.6.6.6.o o O > 4 o 6.6.o % Y R =.1.1.,.,.3.[ @ 6.6.6.6.6.6.6.6.6.6.6.6.6.6.6.6.6.6.6.6.6.6.6.6.6.6.6.6.",
"6.6.6.6.6.6.6.6.6.6.6.6.6.6.6.X @ # $ > % 6.6.6.. & 5 Y @.3.,.1.3.,.R O 6.6.6.6.6.6.6.6.6.6.6.6.6.6.6.6.6.6.6.6.6.6.6.6.6.6.6.6.",
"6.6.6.6.6.6.6.6.6.6.6.6.6.6.6.X @ @ @ % o 6.6.6.6.@ : 7 T #.=.=.=./ % 6.6.6.6.6.6.6.6.6.6.6.6.6.6.6.6.6.6.6.6.6.6.6.6.6.6.6.6.6.",
"6.6.6.6.6.6.6.6.6.6.6.6.6.6.6.6.O + + o 6.6.6.6.6.# r Y : , T T 7 & + 6.6.6.6.6.6.6.6.6.6.6.6.6.6.6.6.6.6.6.6.6.6.6.6.6.6.6.6.6.",
"6.6.6.6.6.6.6.6.6.6.6.6.6.6.6.6.6.. . 6.6.6.6.6.6., R Y = % = & # # 5 # 6.6.6.6.6.6.6.6.6.6.6.6.6.6.6.6.6.6.6.6.6.6.6.6.6.6.6.6.",
"6.6.6.6.6.6.6.6.6.6.6.6.6.6.6.6.6.6.6.6.6.6.6.6.+ T T Y : o X + = 7 R = 6.6.6.6.6.6.6.6.6.6.6.6.6.6.6.6.6.6.6.6.6.6.6.6.6.6.6.6.",
"6.6.6.6.6.6.6.6.6.6.6.6.6.6.6.6.6.6.6.6.6.6.6.6.% R T Y , o 6.$ Y Y R 7 6.6.6.6.6.6.6.6.6.6.6.6.6.6.6.6.6.6.6.6.6.6.6.6.6.6.6.6.",
"6.6.6.6.6.6.6.6.6.6.6.6.6.6.6.6.6.6.6.6.6.6.6.6.: E T 9 : O 6.$ l Y R T + 6.6.6.6.6.6.6.6.6.6.6.6.6.6.6.6.6.6.6.6.6.6.6.6.6.6.6.",
"6.6.6.6.6.6.6.6.6.6.6.6.6.6.6.6.6.6.6.6.6.6.6.6.4 E Y Y : o 6.# 7 Y T R # 6.6.6.6.6.6.6.6.6.6.6.6.6.6.6.6.6.6.6.6.6.6.6.6.6.6.6.",
"6.6.6.6.6.6.6.6.6.6.6.6.6.6.6.6.6.6.6.6.6.6.6.O Y R Y Y = 6.6.@ 7 Y T E & 6.6.6.6.6.6.6.6.6.6.6.6.6.6.6.6.6.6.6.6.6.6.6.6.6.6.6.",
"6.6.6.6.6.6.6.6.6.6.6.6.6.6.6.6.6.6.6.6.6.6.6.@ T T Y 7 % 6.6.+ > Y Y R : 6.6.6.6.6.6.6.6.6.6.6.6.6.6.6.6.6.6.6.6.6.6.6.6.6.6.6.",
"6.6.6.6.6.6.6.6.6.6.6.6.6.6.6.6.6.6.6.6.6.6.6.# ( E T Y % 6.6.O > Y T ( 7 6.6.6.6.6.6.6.6.6.6.6.6.6.6.6.6.6.6.6.6.6.6.6.6.6.6.6.",
"6.6.6.6.6.6.6.6.6.6.6.6.6.6.6.6.6.6.6.6.6.6.6.6.> ' [ / $ 6.6.6.7 ' [ ( $ 6.6.6.6.6.6.6.6.6.6.6.6.6.6.6.6.6.6.6.6.6.6.6.6.6.6.6.",
"6.6.6.6.6.6.6.6.6.6.6.6.6.6.6.6.6.6.6.6.6.6.6.6.6.# % + 6.6.6.6.O & = @ 6.6.6.6.6.6.6.6.6.6.6.6.6.6.6.6.6.6.6.6.6.6.6.6.6.6.6.6.",
"6.6.6.6.6.6.6.6.6.6.6.6.6.6.6.6.6.6.6.6.6.6.6.6.6.6.6.6.6.6.6.6.6.6.6.6.6.6.6.6.6.6.6.6.6.6.6.6.6.6.6.6.6.6.6.6.6.6.6.6.6.6.6.6.",
"6.6.6.6.6.6.6.6.6.6.6.6.6.6.6.6.6.6.6.6.6.6.6.6.6.6.6.6.6.6.6.6.6.6.6.6.6.6.6.6.6.6.6.6.6.6.6.6.6.6.6.6.6.6.6.6.6.6.6.6.6.6.6.6."
};
