/* XPM */
static char *dummy[]={
"64 64 615 2",
"Qt c None",
"aj c None",
"cZ c #5e4b31",
".m c #5e4b31",
"cx c #5d4a30",
"dv c #5e4b31",
"fP c #5e4b31",
"b6 c #4d3f23",
".l c #3d2a11",
".T c #5e4b31",
".B c #5e4b31",
"bf c #5a482f",
"#W c #5e4b31",
"c. c #5e4b31",
"## c #5e4b31",
"dq c #614d33",
"fJ c #504427",
".S c #5e4b31",
"#r c #5e4b31",
"#a c #5e4b31",
"cw c #604d32",
"aR c #5a472e",
".C c #5b492f",
".K c #5e4b31",
"fr c #3f3519",
".u c #4c3b24",
"ek c #5e4b31",
"fI c #604d32",
"dY c #5e4b31",
"bG c #5e4b31",
"#Z c #3b3718",
"aA c #353313",
"be c #353212",
"fm c #5e4b31",
"aV c #272404",
"bC c #5f4c32",
"gn c #5e4b31",
".t c #5e4b31",
".f c #564329",
"aB c #5d4a30",
"aC c #5e4b31",
"eI c #655037",
".e c #402c14",
"c3 c #5e4b31",
"#H c #5e4b31",
"bg c #5f4b31",
"fl c #504526",
"af c #5a482e",
"hj c #5a492e",
"gS c #57472c",
"go c #5b4a2f",
".J c #544027",
"#G c #5e4b31",
"c# c #614e33",
"cy c #4d3f23",
"f8 c #4a3d21",
"fO c #5e4b31",
"c0 c #4e4024",
"b9 c #ba7c70",
"bF c #c28075",
"cB c #56462b",
"du c #5a482d",
".U c #5f4b31",
"hK c #5e4b31",
"aW c #5e4b31",
"ai c #906553",
".n c #5e4b31",
"hk c #594a2d",
"e5 c #534328",
"f9 c #58462c",
"e2 c #58472c",
".g c #5a472e",
"dw c #5a482e",
"b5 c #5b492f",
".# c #5e4b31",
".o c #5f4c32",
"ba c #5a472e",
"aD c #5d4a30",
".s c #5d4a2f",
"fQ c #5f4d32",
"#j c #57452b",
"aw c #5e4b31",
"gR c #5e4b31",
"fk c #55462b",
".2 c #756347",
".p c #6b593d",
".3 c #5e4b31",
"#k c #5e4b31",
"gu c #b88c7a",
"fH c #5e4b31",
"fD c #5a472d",
"fE c #5a472e",
"fF c #5b482f",
"f2 c #5c4930",
"fG c #5e4b31",
"#I c #5e4b31",
"gv c #5d4a30",
".d c #5e4b31",
".A c #56432a",
"fC c #58452d",
"hE c #5a492f",
"ag c #6c543c",
"aS c #5e4b31",
"bb c #5f4c32",
"ax c #69523a",
"bD c #6b543c",
"f3 c #695139",
"b7 c #765c45",
".k c #766347",
"fN c #5b492d",
"bH c #604d32",
"hl c #7c5b45",
"#X c #614d34",
".v c #766042",
"fn c #57472b",
".L c #5a482e",
"hJ c #5d4a30",
"#V c #5e4b31",
"#Y c #80634c",
"fK c #b57c6e",
"bh c #614e33",
".V c #5d4b30",
"ae c #776245",
"e1 c #5d4a30",
"gQ c #5f4b31",
"c4 c #634f34",
"aQ c #675438",
"fj c #5c4b2f",
"bB c #5c482e",
"az c #936a57",
"dV c #644f36",
"bd c #956c59",
"gm c #59482d",
"cv c #604d33",
"dr c #58472c",
"dp c #5f4b31",
"gp c #634d33",
"gT c #654f35",
"hF c #6a5139",
"ak c #58472d",
"#. c #59462d",
"#s c #634d34",
"#0 c #73553f",
"#J c #7e5b46",
"cY c #5b492e",
".D c #5d4c31",
"#F c #5a472e",
".r c #6c593e",
"eK c #665337",
"el c #675438",
"cC c #695438",
"eH c #735841",
".R c #59462d",
"hi c #5b492f",
"fq c #715941",
"gt c #c09181",
"bi c #604e33",
"#A c #755f42",
"cz c #c59382",
"f7 c #544428",
"dZ c #624f34",
"dU c #dda698",
"fs c #675438",
"cX c #9f8664",
"aU c #a37d69",
"fM c #a67f6c",
"cR c #3a312e",
"cS c #3c332f",
"cQ c #3c3431",
"co c #473d36",
"bX c #493f39",
"cn c #4c413a",
"bY c #4f4135",
"bW c #564a40",
"hx c #58462c",
"ej c #58472c",
"cP c #584d43",
"dW c #59482c",
"#b c #59482d",
"bP c #5b492f",
"fi c #5b4a2f",
"hw c #5c492f",
"gJ c #5c4930",
"hs c #5c4a2f",
"av c #5d4b30",
"ap c #5d4c30",
"bu c #5d5347",
".c c #5e4b31",
"#U c #5f4b32",
".b c #5f4c32",
"g. c #5f4d30",
"cm c #5f5348",
"cT c #5f554a",
"aY c #604c32",
"bO c #604d32",
"gK c #604d33",
"eG c #614c32",
"aX c #614e33",
"bI c #624e33",
"gI c #624e34",
".a c #634f33",
"fB c #635035",
".4 c #645035",
"ei c #665138",
"ca c #675236",
"f1 c #675438",
"#l c #685437",
"gG c #695639",
"bj c #6a563a",
"gH c #6b573b",
"aE c #6c543b",
"b4 c #6c573b",
"fw c #6c573c",
"gl c #6c593c",
"bm c #6d573c",
"fX c #6d583c",
"fh c #6e593d",
"dt c #6f583e",
".I c #6f5b3e",
"fg c #6f5b3f",
"di c #6f6354",
"eJ c #70583e",
"fe c #705c40",
"ff c #715c40",
"gf c #715d3f",
"hb c #72563f",
"dX c #725a40",
"fd c #725d42",
".E c #726142",
"cq c #726454",
"ch c #735e41",
"hf c #745a42",
".h c #745e40",
"#z c #745f40",
"gi c #745f42",
"dh c #746451",
"#O c #755740",
"h# c #755741",
"#B c #755f42",
".j c #756348",
"#C c #766043",
"gz c #766143",
"bv c #766a5b",
"dx c #776043",
"cb c #776143",
"gh c #776244",
"fc c #776245",
"cr c #776c5b",
"hz c #785d46",
"hH c #785e46",
"bk c #786244",
"d5 c #786245",
"bl c #796345",
"gE c #7a5e46",
"gU c #7b5b43",
"#5 c #7b5f45",
"cI c #7b6546",
"bw c #7b6f5e",
"#D c #7c6547",
"c5 c #7c6647",
"eQ c #7c6648",
"g2 c #7d5a46",
"g4 c #7e5e46",
"hc c #7e5f48",
"bN c #7e6849",
"cp c #7e705e",
"fA c #7f6949",
"bM c #7f694a",
"aP c #7f6a4b",
"gO c #805f49",
"gw c #80634c",
"dE c #806a4a",
"fx c #806a4b",
"#y c #806c4c",
"hr c #815d49",
"hD c #815e49",
"g5 c #816149",
"cH c #816a4b",
"bJ c #816b4b",
"gg c #816b4c",
"b1 c #81735e",
"#m c #826c4c",
"#i c #837051",
"hI c #846650",
".M c #856e4d",
"cD c #856e4e",
"aH c #866750",
"cu c #866f4f",
"gA c #877052",
"gF c #88664f",
".5 c #887050",
"eO c #887150",
"d0 c #887151",
"ht c #89634f",
"eV c #897150",
"cg c #897252",
"#6 c #897352",
"c2 c #8a6751",
"g9 c #8a6954",
"hy c #8a6a55",
"#T c #8a7352",
"gj c #8a7353",
"dg c #8a775f",
"hh c #8b6550",
"fb c #8b7352",
"aI c #8b7453",
"hv c #8c6351",
"d. c #8c7453",
"bL c #8c7554",
"fR c #8d7553",
"bK c #8d7554",
"cc c #8d7655",
".i c #8d7657",
"a1 c #8e7154",
"fa c #8f7655",
"bp c #907856",
"eW c #916654",
"hC c #916754",
"aT c #91705a",
"#E c #917a59",
"hu c #926755",
"e0 c #926954",
"bc c #926c57",
"g7 c #92755a",
"#P c #927a58",
"ge c #927c5c",
"df c #927f66",
"f6 c #93725c",
"dF c #937b59",
"bt c #938670",
"eY c #946856",
"bo c #946957",
"ci c #947b59",
"g6 c #947c59",
"eA c #956757",
"eX c #956957",
"eZ c #956a57",
"hm c #956b57",
"hB c #956c59",
"#n c #957c59",
"bQ c #957c5a",
"e9 c #957e5d",
"de c #95836b",
"hq c #966d5a",
"es c #967f5d",
"ez c #96805e",
"aq c #977e5c",
"f. c #977f5c",
"dD c #977f5f",
"er c #987e5c",
"cf c #987f5c",
"gP c #996c59",
"#N c #99705d",
"cd c #99805d",
"do c #9a7561",
"cJ c #9a805d",
"g# c #9a815d",
"c9 c #9a815e",
"bA c #9a815f",
"eR c #9a8260",
"e# c #9a8360",
"al c #9b6d5c",
"f# c #9b825e",
"cG c #9b825f",
"b# c #9d835f",
"cE c #9d8360",
"hG c #9e7563",
"aK c #9e8460",
"eP c #9e8461",
"#9 c #9f8561",
"bq c #9f8662",
"fY c #9f8765",
"cF c #a08661",
"#8 c #a08662",
"a2 c #a08762",
"aJ c #a18662",
"d6 c #a18762",
"#7 c #a18763",
"fW c #a18a68",
"b0 c #a19380",
"bR c #a28763",
"ce c #a28863",
"fz c #a28864",
"dy c #a28965",
"ad c #a28966",
"e6 c #a28a68",
"#q c #a28c6a",
".Q c #a28d6b",
"#R c #a38864",
".6 c #a38964",
"#S c #a38965",
"br c #a38a66",
"fv c #a38a68",
"#o c #a38b68",
"au c #a38b6a",
".9 c #a38e6c",
".q c #a3906f",
"em c #a48b69",
"eL c #a48c6a",
"ha c #a57262",
"#Q c #a58b66",
"c6 c #a58b67",
"hg c #a67263",
"gy c #a77d66",
"hn c #a77f6d",
"#c c #a7806c",
"fS c #a78e69",
"a. c #a78e6a",
"dG c #a78f6c",
"h. c #a87465",
"bS c #a88f6b",
"ho c #a9806e",
"hp c #a9816e",
"fy c #a98f6b",
"aa c #a9906c",
"gL c #a9916e",
".W c #aa8670",
".N c #aa906b",
".w c #aa906c",
"a# c #aa916d",
"eg c #ab7a6a",
"ea c #ab856c",
"hA c #ac8371",
"ga c #ac926e",
"c7 c #ad9470",
".z c #ad9a77",
"c8 c #ae9571",
"g3 c #af776a",
"gN c #af8673",
"gB c #af9672",
"d7 c #b09672",
"eq c #b09875",
"d4 c #b19976",
"dd c #b19c7c",
"ac c #b29975",
"b3 c #b29b77",
"bn c #b3796c",
"ab c #b49b77",
"#p c #b49c78",
"cO c #b4a07f",
"g8 c #b58878",
"f0 c #b59c78",
"dN c #b5a07e",
"et c #b69d78",
".F c #b6a380",
"gq c #b78173",
"aL c #b79e7a",
".7 c #b79f7b",
"d# c #b89f7b",
"a3 c #b8a07b",
".H c #b8a583",
"aZ c #b97e71",
"gs c #b98d7b",
"eU c #b99f7b",
"gC c #baa27d",
"bZ c #baae9e",
"cA c #bb8273",
"fT c #bba27e",
"gD c #bba37e",
"bT c #bba37f",
"aF c #bc7f73",
"f4 c #bc8575",
"ds c #bc8e7e",
"fo c #bd8b7b",
"gx c #bd8f7e",
"e. c #bda480",
"aO c #bda580",
"bV c #bda682",
"gk c #bda782",
".1 c #bdaa87",
"ar c #bea581",
"b. c #bea681",
"cW c #bea783",
"e4 c #bf917f",
"cK c #bfa782",
".O c #bfa783",
"#4 c #c08b7d",
"dn c #c0a281",
"eS c #c0a782",
"dz c #c0a883",
"eT c #c1a984",
"dC c #c2ab86",
"e3 c #c39383",
"gb c #c3ab86",
"eu c #c3ac87",
"g1 c #c48f82",
"c1 c #c49482",
"fZ c #c4ac87",
"bU c #c4ac88",
"as c #c4ad88",
"dj c #c4ad89",
"bz c #c5ad88",
"d8 c #c5ad89",
"ct c #c5ae88",
"a0 c #c68479",
"dH c #c6ae89",
"a9 c #c6af8a",
"cl c #c6b18c",
"bx c #c6b390",
"eF c #c78b7e",
"#x c #c79d85",
".P c #c7b08b",
"dA c #c7b18c",
"by c #c8b18b",
"at c #c8b18c",
"cj c #c8b18d",
"ck c #c8b28d",
"cU c #c8b592",
"dl c #c9b08c",
"dk c #c9b18c",
".8 c #c9b28d",
".x c #c9b38e",
"dm c #cab18d",
"dM c #cab28c",
"aM c #cab28e",
"cV c #cab38d",
"aN c #cab48f",
"dB c #cab590",
"e8 c #cab591",
"gc c #cbb48f",
"en c #ccb692",
"aG c #cd8c81",
"ev c #cdb793",
"eN c #cdb893",
"fu c #cdb894",
"dO c #ceaf90",
"bs c #cebc9a",
"#t c #cf998b",
"ey c #d0bb97",
"dI c #d0bc97",
"d9 c #d0bd98",
"a4 c #d1bd98",
"cL c #d1bd99",
"a8 c #d1be99",
"da c #d1be9a",
"b2 c #d2bd97",
"gd c #d2bf9a",
"fV c #d2c09b",
"he c #d39f91",
"cs c #d3be97",
".y c #d3bf9a",
"e7 c #d3c09c",
"fU c #d3c19c",
"d1 c #d3c19d",
"dL c #d4bf9a",
"dc c #d4c09b",
"ep c #d4c19d",
"eM c #d4c29e",
"d3 c #d4c39e",
".G c #d5bd99",
"ew c #d5c49f",
"cN c #d5c4a0",
"#1 c #d6988d",
"ex c #d6c4a0",
"cM c #d6c5a1",
"eo c #d6c6a2",
"db c #d7c6a2",
"ft c #d7c6a3",
"d2 c #d7c7a3",
"gr c #d89a8e",
".0 c #d8b598",
"dJ c #d8c6a1",
"a5 c #d8c7a3",
"#h c #d9b99a",
"a7 c #d9c8a3",
"a6 c #d9c8a4",
"gM c #dab499",
"dS c #db9e91",
"ay c #dba091",
"eB c #dc988f",
"ao c #dca598",
"dK c #dccaa4",
"gV c #df9f94",
"ef c #e0a598",
".Y c #e0b89f",
"am c #e2a095",
"ah c #e3a898",
"dP c #e4b5a0",
"eh c #e5a99d",
"fp c #e5ab9f",
"b8 c #e7a79a",
"ec c #e8a79d",
"ee c #e8a99f",
".X c #e8c4aa",
".Z c #e9b4a2",
"#K c #eaa79d",
"#w c #eaaba0",
"bE c #ebab9e",
"hd c #edaba1",
"eE c #eeada3",
"gY c #eeb3a5",
"eb c #eeb5a7",
"#g c #eeb6a7",
"eC c #efada3",
"dQ c #efb6a8",
"f5 c #f0b1a6",
"eD c #f1b0a6",
"dT c #f1b1a6",
"#3 c #f1b5a9",
"ed c #f2b3a9",
"dR c #f3b8ab",
"gZ c #f4b6ab",
"#v c #f5b7ac",
"#f c #f6b7ad",
"an c #f6b8ad",
"#e c #f7b7ad",
"#M c #f7b8ad",
"#L c #f7b9ae",
"#2 c #f8baaf",
"#d c #fbbbb1",
"#u c #fbbcb1",
"g0 c #fcb9b0",
"gW c #fdbab0",
"fL c #fdbbb2",
"gX c #febeb2",
"QtQtQtQtQtQtQtQtQtQtQtQtQtQtQtQtQtQtQtQtQtQtQtQtQtQtQtQtQtQtQtQtQtQtQtQtQtQtQtQtQtQtQtQtQtQtQtQtQtQtQtQtQtQtQtQtQtQtQtQtQtQtQtQt",
"QtQtQtQtQtQtQtQtQtQtQtQtQtQtQtQtQtQtQtQtQtQtQtQtQtQtQtQtQtQtQtQtQtQtQtQtQtQtQtQtQtQtQtQtQtQtQtQtQtQtQtQtQtQtQtQtQtQtQtQtQtQtQtQt",
"QtQtQtQtQtQtQtQtQtQtQtQtQtQtQtQtQtQtQtQtQtQtQtQtQtQtQtQtQtQtQtQtQtQtQtQtQtQtQtQtQtQtQtQtQtQtQtQtQtQtQtQtQtQtQtQtQtQtQtQtQtQtQtQt",
"QtQtQtQtQtQtQtQtQtQtQtQtQtQtQtQtQtQtQtQtQtQtQtQtQtQtQtQtQtQtQtQtQtQtQtQtQtQtQtQtQtQtQtQtQtQtQtQtQtQtQtQtQtQtQtQtQtQtQtQtQtQtQtQt",
"QtQtQtQtQtQtQtQtQtQtQtQtQtQtQtQtQtQtQtQtQtQtQtQtQtQtQtQtQtQtQtQtQtQtQtQtQtQtQtQtQtQtQtQtQtQtQtQtQtQtQtQtQtQtQtQtQtQtQtQtQtQtQtQt",
"QtQtQtQtQtQtQtQtQtQtQtQtQtQtQtQtQtQtQtQtQtQtQtQtQtQtQtQtQtQtQtQtQtQtQtQtQtQtQtQtQtQtQtQtQtQtQtQtQtQtQtQtQtQtQtQtQtQtQtQtQtQtQtQt",
"QtQtQtQtQtQtQtQtQtQtQtQtQtQtQtQtQtQtQtQtQtQtQtQtQtQtQtQtQtQtQtQtQtQtQtQtQtQtQtQtQtQtQtQtQtQtQtQtQtQtQtQtQtQtQtQtQtQtQtQtQtQtQtQt",
"QtQtQtQtQtQtQtQtQtQtQtQtQtQtQtQtQtQtQtQtQtQtQtQtQtQtQtQtQtQtQtQtQtQtQtQtQtQtQtQtQtQtQtQtQtQtQtQtQtQtQtQtQtQtQtQtQtQtQtQtQtQtQtQt",
"QtQtQtQtQtQtQtQtQtQtQtQtQtQtQtQtQtQtQtQtQtQtQtQtQtQtQtQtQtQtQtQtQtQtQtQtQtQtQtQtQtQtQtQtQtQtQtQtQtQtQtQtQtQtQtQtQtQtQtQtQtQtQtQt",
"QtQtQtQtQtQtQtQtQtQtQtQtQtQtQtQtQtQtQtQtQtQtQtQtQtQtQtQtQtQtQtQtQtQtQtQtQtQtQtQtQtQtQtQtQtQtQtQtQtQtQtQtQtQtQtQtQtQtQtQtQtQtQtQt",
"QtQtQtQtQtQtQtQtQtQtQtQtQtQtQtQtQtQtQtQtQtQtQtQtQtQtQtQtQtQtQtQtQtQtQtQtQtQtQtQtQtQtQtQtQtQtQtQtQtQtQtQtQtQtQtQtQtQtQtQtQtQtQtQt",
"QtQtQtQtQtQtQtQtQtQtQtQtQtQtQtQtQtQtQtQtQtQtQtQtQtQtQtQtQtQtQtQtQtQtQtQtQtQtQtQtQtQtQtQtQtQtQtQtQtQtQtQtQtQtQtQtQtQtQtQtQtQtQtQt",
"QtQtQtQtQtQtQtQtQtQtQtQtQtQtQtQtQtQtQtQtQtQtQtQtQtQtQtQtQtQtQtQtQtQtQtQtQtQtQtQtQtQtQtQtQtQtQtQtQtQtQtQtQtQtQtQtQtQtQtQtQtQtQtQt",
"QtQtQtQtQtQtQtQtQtQtQtQtQtQtQtQtQtQtQtQtQtQtQtQtQtQtQtQtQtQtQtQtQtQtQtQtQtQtQtQtQtQtQtQtQtQtQtQtQtQtQtQtQtQtQtQtQtQtQtQtQtQtQtQt",
"QtQtQtQtQtQtQtQtQtQtQtQtQtQtQtQtQtQtQtQtQtQtQtQtQtQtQtQtQtQtQtQtQtQtQtQtQtQtQtQtQtQtQtQtQtQtQtQtQtQtQtQtQtQtQtQtQtQtQtQtQtQtQtQt",
"QtQtQtQtQtQtQtQtQtQtQtQtQtQtQtQtQtQtQtQtQtQtQtQtQtQtQtQtQtQtQtQtQtQtQtQtQtQtQtQtQtQtQtQtQtQtQtQtQtQtQtQtQtQtQtQtQtQtQtQtQtQtQtQt",
"QtQtQtQtQtQtQtQtQtQtQtQtQtQtQtQtQtQtQtQtQtQtQtQtQtQtQtQtQtQtQtQtQtQtQtQtQtQtQtQtQtQtQtQtQtQtQtQtQtQtQtQtQtQtQtQtQtQtQtQtQtQtQtQt",
"QtQtQtQtQtQtQtQtQtQtQtQtQtQtQtQtQtQtQtQtQtQtQtQtQtQtQtQtQtQtQtQtQtQtQtQtQtQtQtQtQtQtQtQtQtQtQtQtQtQtQtQtQtQtQtQtQtQtQtQtQtQtQtQt",
"QtQtQtQtQtQtQtQtQtQtQtQtQtQtQtQtQtQtQtQtQtQtQtQtQtQtQtQtQtQtQtQtQtQtQtQtQtQtQtQtQtQtQtQtQtQtQtQtQtQtQtQtQtQtQtQtQtQtQtQtQtQtQtQt",
"QtQtQtQtQtQtQtQtQtQtQtQtQtQtQtQtQtQtQtQtQtQtQtQtQtQtQtQtQtQtQtQtQtQtQtQtQtQtQtQtQtQtQtQtQtQtQtQtQtQtQtQtQtQtQtQtQtQtQtQtQtQtQtQt",
"QtQtQtQtQtQtQtQtQtQtQtQtQtQtQtQtQtQtQtQtQtQtQtQtQtQtQtQtQtQtQtQtQtQtQtQtQtQtQtQtQtQtQtQtQtQtQtQtQtQtQtQtQtQtQtQtQtQtQtQtQtQtQtQt",
"QtQtQtQtQtQtQtQtQtQtQtQtQtQtQtQtQtQtQtQtQtQtQtQtQtQtQtQtQtQtQtQtQtQtQtQtQtQtQtQtQtQtQtQtQtQtQtQtQtQtQtQtQtQtQtQtQtQtQtQtQtQtQtQt",
"QtQtQtQtQtQtQtQtQtQtQtQtQtQtQtQtQtQtQtQtQtQtQtQtQtQtQtQtQtQtQtQtQtQtQtQtQtQtQtQtQtQtQtQtQtQtQtQtQtQtQtQtQtQtQtQtQtQtQtQtQtQtQtQt",
"QtQtQtQtQtQtQtQtQtQtQtQtQtQtQtQtQtQtQtQtQtQtQtQtQtQtQtQtQtQtQtQtQtQtQtQtQtQtQtQt.#.a.b.c.dQtQtQtQtQtQtQtQtQtQtQtQtQtQtQtQtQtQtQt",
"QtQtQtQtQtQtQtQtQtQtQtQtQtQtQtQtQtQtQtQtQtQtQtQtQtQtQtQtQtQtQtQtQt.e.fQtQtQtQtQt.g.h.i.j.k.lQtQtQtQtQtQtQtQtQtQtQtQtQtQtQtQtQtQt",
"QtQtQtQtQtQtQtQtQtQtQtQtQtQtQtQtQtQtQtQtQtQtQtQtQtQtQtQtQt.m.n.o.p.q.r.s.tQtQt.u.v.w.x.y.z.A.BQtQtQtQtQtQtQtQtQtQtQtQtQtQtQtQtQt",
"QtQtQtQtQtQtQtQtQtQtQtQtQtQtQtQtQtQtQtQtQtQtQtQtQtQtQtQtQt.C.D.E.F.G.H.I.JQt.K.L.M.N.O.P.Q.R.SQtQtQtQtQtQtQtQtQtQtQtQtQtQtQtQtQt",
"QtQtQtQtQtQtQtQtQtQtQtQtQtQtQtQtQtQtQtQtQtQtQtQtQtQtQt.T.U.V.W.X.Y.Z.0.1.2Qt.3.4.5.6.7.8.9#.##QtQtQtQtQtQtQtQtQtQtQtQtQtQtQtQtQt",
"QtQtQtQtQtQtQtQtQtQtQtQtQtQtQtQtQtQtQtQtQtQtQtQtQtQtQt#a#b#c#d#e#e#f#g#h#i#j#k#l#m#n#o#p#q#.##QtQtQtQtQtQtQtQtQtQtQtQtQtQtQtQtQt",
"QtQtQtQtQtQtQtQtQtQtQtQtQtQtQtQtQtQtQtQtQtQtQtQtQtQtQt#r#s#t#u#v#v#v#w#x#y#z#A#B#B#C#C#D#E#F#GQtQtQtQtQtQtQtQtQtQtQtQtQtQtQtQtQt",
"QtQtQtQtQtQtQtQtQtQt#H#I.SQtQtQtQtQtQtQtQtQtQtQtQtQtQt#r#J#K#L#v#v#M#N#O#P#Q.6.6.6.6#R#S#T#U#VQtQtQtQtQtQtQtQtQtQtQtQtQtQtQtQtQt",
"QtQtQtQtQtQtQtQtQtQt#W#X#Y#ZQtQtQtQtQtQtQtQtQtQtQtQtQt#r#0#1#2#v#3#4#5#6#7#8#9#Sa.a#aaabacadaeafQtQtQtQtQtQtQtQtQtQtQtQtQtQtQtQt",
"QtQtQtQtQtQtQtQtQtQtQtagahaiajQtQtQtQtQtQtQtQtQtQtQtQt#rakalamanaoapaq#S#8#9a.aras.8.8atatatauavawQtQtQtQtQtQtQtQtQtQtQtQtQtQtQt",
"QtQtQtQtQtQtQtQtQtQtQtaxayazaAQtQtQtQtQtQtQtQtQtQtQtaBaCaDaEaFaGaHaIaJ#8#8aKaLaMaNaNaNaN.8.PaOaPaQaRQtQtQtQtQtQtQtQtQtQtQtQtQtQt",
"QtQtQtQtQtQtQtQtQtQtQtaSaTaUaVQtQtQtQtQtQtQtQtQtQtaWaX.b.caYaZa0a1a2#8#8#8aKa3a4a5a6a6a7a8a9.8b.b#baQtQtQtQtQtQtQtQtQtQtQtQtQtQt",
"QtQtQtQtQtQtQtQtQtQtQtbbbcbdbeQtQtQtQtQtQtQtbfbgbhbibjbkblbmbnbobp#7bq#7br#Sa3bsbtbubvbwbxby.PbzbAbBbCQtQtQtQtQtQtQtQtQtQtQtQtQt",
"QtQtQtQtQtQtQtQtQtQtQtbDbEbFQtQtQtQtQtQtQtbGbHbIbkbJbKbLbMbNbObPbQbRbSbTbUatbVbWbXbYbZb0b1b2a9.Pb3b4b5QtQtQtQtQtQtQtQtQtQtQtQtQt",
"QtQtQtQtQtQtQtQtQtQtb6b7b8b9QtQtQtQtQtQtc.c#cacbcccdce#7cfcgchaYci#7abcjckckclcmcncocpcqcrcsa9.PctcucvcwcxQtQtQtQtQtQtQtQtQtQtQt",
"QtQtQtQtQtQtQtQtQtQtcyczcAcBQtQtQtQtQtQt#kcCcDcEcF#8#9#8#7#8cGcHcIcJcKatcLcMcNcOcPcQcRcScTcUcV.P.PcWcXcY.ncZQtQtQtQtQtQtQtQtQtQt",
"QtQtQtQtQtQtQtQtQtQtc0c1c2cBQtQtQtQtQtc3c4c5#9c6c7c7c8c6#9#9#7c9bjd.d#.PdadbcMdcdddedfdgdhdidjdkdldmdndodpdqQtQtQtQtQtQtQtQtQtQt",
"QtQtQtQtQtQtQtQtQtQtdrdsdtduQtQtQtQtdvdwdxdydzasdAdBckdCdDdEce#7cEdFdGdHdIdbcMcMdJdKdLdMbzdNdOdPdQdRdSdTdUdVQtQtQtQtQtQtQtQtQtQt",
"QtQtQtQtQtQtQtQtQtQtdWdsdXduQtQtQtQtdYdZd0ac.8.8d1d2d3.8d4d5cd#7d6aJ#7d7d8d9dbcMcMdbd9e.e#eaebecedeeefegeheiQtQtQtQtQtQtQtQtQtQt",
"QtQtQtQtQtQtQtQtQtQtejdsdXduQtQtQtQtekelema9.PeneocMdbepcVeqd.#9aJ#8#8ereseteuevewexeydCezeAeBeCeDeEeFeGeHeIQtQtQtQtQtQtQtQtQtQt",
"QtQtQtQtQtQtQtQtQtQtejdseJduQtQtQtQtekeKeLat.PeMcMcMcMexeNcKd5eOeP#8#8bReQbleReSdzdzdzeTeUeVeWeXeYeZe0e1e2QtQtQtQtQtQtQtQtQtQtQt",
"QtQtQtQtQtQtQtQtQtQteje3e4e5.mQtQtQtekeKe6a9.Pe7cMcMcMcMcMe8e9.If.#9#8#8f#fafbfcfdfefffffgfhfi#bfjfkflfmQtQtQtQtQtQtQtQtQtQtQtQt",
"QtQtQtQtQtQtQtQtQtQtfnfofpfqfrQtQtQtdYfsf.ab.8aNftcMcMcMftfufvfwfxd0aKcicEfyfzfAfBfCfDfDfEfFfGfHfIQtQtQtQtQtQtQtQtQtQtQtQtQtQtQt",
"QtQtQtQtQtQtQtQtQtQtfJfKfLfMfNfO.mQtfPfQfRfSfTa9enfUeocMfVatfWfXbJbNcDeQfYfZf0chf1f2QtQtQtQtQtQtQtQtQtQtQtQtQtQtQtQtQtQtQtQtQtQt",
"QtQtQtQtQtQtQtQtQtQtQtf3f4f5f6f7f8QtQtf9g.g#gagbatgce7gd.8a9gegf#mggghgigjeugkglglgmgnQtQtQtQtQtQtQtQtQtQtQtQtQtQtQtQtQtQtQtQtQt",
"QtQtQtQtQtQtQtQtQtQtQtgogpgqgrgsgtgugvgwgxgygzgAgBgBgCgCgD.7gEgFgGgHgIgJgKgLgMgNgOgPgQgR.mQtQtQtQtQtQtQtQtQtQtQtQtQtQtQtQtQtQtQt",
"QtQtQtQtQtQtQtQtQtQtQtQtgSgTgUgVgWgXgYgZg0g1g2g3g4g5cicig6g7g8g9h.h#hahbbOhchdhehfhghhhifPQtQtQtQtQtQtQtQtQtQtQtQtQtQtQtQtQtQtQt",
"QtQtQtQtQtQtQtQtQtQtQtQtQthjhkhlhmhnhohphqhrhshthuhvhwhwhxhyhzhAhBhuhChDhEhFhGhHhI#bhJhKcZQtQtQtQtQtQtQtQtQtQtQtQtQtQtQtQtQtQtQt",
"QtQtQtQtQtQtQtQtQtQtQtQtQtQtQtQtQtQtQtQtQtQtQtQtQtQtQtQtQtQtQtQtQtQtQtQtQtQtQtQtQtQtQtQtQtQtQtQtQtQtQtQtQtQtQtQtQtQtQtQtQtQtQtQt",
"QtQtQtQtQtQtQtQtQtQtQtQtQtQtQtQtQtQtQtQtQtQtQtQtQtQtQtQtQtQtQtQtQtQtQtQtQtQtQtQtQtQtQtQtQtQtQtQtQtQtQtQtQtQtQtQtQtQtQtQtQtQtQtQt",
"QtQtQtQtQtQtQtQtQtQtQtQtQtQtQtQtQtQtQtQtQtQtQtQtQtQtQtQtQtQtQtQtQtQtQtQtQtQtQtQtQtQtQtQtQtQtQtQtQtQtQtQtQtQtQtQtQtQtQtQtQtQtQtQt",
"QtQtQtQtQtQtQtQtQtQtQtQtQtQtQtQtQtQtQtQtQtQtQtQtQtQtQtQtQtQtQtQtQtQtQtQtQtQtQtQtQtQtQtQtQtQtQtQtQtQtQtQtQtQtQtQtQtQtQtQtQtQtQtQt",
"QtQtQtQtQtQtQtQtQtQtQtQtQtQtQtQtQtQtQtQtQtQtQtQtQtQtQtQtQtQtQtQtQtQtQtQtQtQtQtQtQtQtQtQtQtQtQtQtQtQtQtQtQtQtQtQtQtQtQtQtQtQtQtQt",
"QtQtQtQtQtQtQtQtQtQtQtQtQtQtQtQtQtQtQtQtQtQtQtQtQtQtQtQtQtQtQtQtQtQtQtQtQtQtQtQtQtQtQtQtQtQtQtQtQtQtQtQtQtQtQtQtQtQtQtQtQtQtQtQt",
"QtQtQtQtQtQtQtQtQtQtQtQtQtQtQtQtQtQtQtQtQtQtQtQtQtQtQtQtQtQtQtQtQtQtQtQtQtQtQtQtQtQtQtQtQtQtQtQtQtQtQtQtQtQtQtQtQtQtQtQtQtQtQtQt",
"QtQtQtQtQtQtQtQtQtQtQtQtQtQtQtQtQtQtQtQtQtQtQtQtQtQtQtQtQtQtQtQtQtQtQtQtQtQtQtQtQtQtQtQtQtQtQtQtQtQtQtQtQtQtQtQtQtQtQtQtQtQtQtQt",
"QtQtQtQtQtQtQtQtQtQtQtQtQtQtQtQtQtQtQtQtQtQtQtQtQtQtQtQtQtQtQtQtQtQtQtQtQtQtQtQtQtQtQtQtQtQtQtQtQtQtQtQtQtQtQtQtQtQtQtQtQtQtQtQt",
"QtQtQtQtQtQtQtQtQtQtQtQtQtQtQtQtQtQtQtQtQtQtQtQtQtQtQtQtQtQtQtQtQtQtQtQtQtQtQtQtQtQtQtQtQtQtQtQtQtQtQtQtQtQtQtQtQtQtQtQtQtQtQtQt",
"QtQtQtQtQtQtQtQtQtQtQtQtQtQtQtQtQtQtQtQtQtQtQtQtQtQtQtQtQtQtQtQtQtQtQtQtQtQtQtQtQtQtQtQtQtQtQtQtQtQtQtQtQtQtQtQtQtQtQtQtQtQtQtQt",
"QtQtQtQtQtQtQtQtQtQtQtQtQtQtQtQtQtQtQtQtQtQtQtQtQtQtQtQtQtQtQtQtQtQtQtQtQtQtQtQtQtQtQtQtQtQtQtQtQtQtQtQtQtQtQtQtQtQtQtQtQtQtQtQt",
"QtQtQtQtQtQtQtQtQtQtQtQtQtQtQtQtQtQtQtQtQtQtQtQtQtQtQtQtQtQtQtQtQtQtQtQtQtQtQtQtQtQtQtQtQtQtQtQtQtQtQtQtQtQtQtQtQtQtQtQtQtQtQtQt"};
