/* XPM */
static char *dummy[]={
"64 64 177 2",
"al c #375a1e",
"#u c #395c1f",
"aR c #3a5e20",
"#x c #3b5f21",
"aq c #3b6021",
"#I c #3c6021",
"ac c #3d6121",
"#N c #3d6222",
"aO c #3e6322",
"aK c #3f6422",
"aU c #3f6522",
".O c #3f6523",
"#f c #406623",
".U c #406722",
".y c #406723",
".6 c #416723",
"#K c #416724",
"#B c #416823",
"#r c #416824",
".8 c #426823",
"#z c #426824",
".u c #426924",
"#3 c #436727",
"#F c #476e26",
".N c #4f812c",
"ak c #4f822c",
"af c #51832d",
"#n c #51842d",
"#P c #52842d",
"aN c #52862d",
"#i c #52872e",
"#G c #53862d",
"ax c #53862e",
"a# c #53882e",
".Z c #53892e",
"ag c #54882e",
"#8 c #54882f",
"aH c #54892e",
"#J c #55892e",
".F c #55892f",
"#V c #558a2e",
"#M c #558a2f",
"#g c #558b2f",
".H c #568a2f",
".s c #568b2f",
"aa c #568d30",
"#v c #578b30",
"#2 c #578c30",
".K c #578d30",
".E c #578d31",
"as c #578e30",
"#T c #578e31",
"ab c #588c30",
".M c #588e30",
"#c c #588e31",
".L c #588f31",
"aj c #598e30",
"ae c #598f30",
".C c #598f31",
"aD c #598f32",
"#R c #599031",
"#W c #5a8f35",
".q c #5a9031",
".h c #5a9032",
".B c #5a9131",
"#Q c #5a9132",
"aL c #5b9131",
"aP c #5b9132",
"aQ c #5c8e32",
"aS c #5f9233",
"aG c #5f9333",
"#q c #5f9334",
"#s c #609333",
"#y c #609334",
".0 c #609434",
"#4 c #609435",
"ap c #619434",
"#Z c #619635",
"#L c #619735",
"#O c #629635",
".I c #629735",
"#H c #629736",
".p c #629835",
"#o c #629836",
".9 c #639735",
".v c #639835",
"#p c #639836",
".T c #639935",
".W c #639936",
".z c #649935",
".t c #649936",
"am c #649937",
".V c #649a35",
".i c #649a36",
"az c #649b35",
".X c #649b36",
"#m c #649b37",
".7 c #659a36",
"#b c #659b36",
".Y c #659b37",
".A c #659c36",
".r c #659c37",
"#S c #659d35",
"#h c #659d37",
"#E c #669c36",
".D c #669c37",
"aC c #669d35",
"#l c #669d36",
".g c #669d37",
"ai c #669d38",
".n c #669e36",
"aT c #669e37",
"a. c #669e38",
"ad c #679c37",
".4 c #679c3a",
".a c #679d37",
"#0 c #679d38",
".J c #679e36",
".f c #679e37",
".j c #679e38",
"#j c #679f36",
".P c #679f37",
".b c #679f38",
"an c #689c3b",
"aM c #689e37",
".o c #689e38",
".x c #689f37",
"Qt c #689f38",
"#5 c #68a037",
".e c #68a038",
"#t c #699f38",
"ah c #69a037",
".w c #69a038",
"at c #69a039",
"ay c #69a138",
"#1 c #6aa03c",
"#d c #6aa13b",
"#D c #6ba03c",
"#e c #6ba13c",
".G c #6ba13d",
".Q c #6ba23c",
"## c #6ca13d",
"#A c #6ca23c",
".3 c #6ca23d",
"#C c #6ca23e",
"#U c #6da140",
".S c #6ea340",
"#a c #6fa341",
".1 c #6fa441",
"#Y c #6fa442",
"#6 c #70a345",
"aw c #71a544",
".# c #71a545",
".k c #71a645",
"aA c #72a545",
"ao c #72a546",
"aB c #72a645",
"aE c #72a646",
"ar c #7ead52",
".c c #7fad52",
"au c #7fae52",
"#7 c #84ae61",
"#X c #87b363",
".R c #88b363",
".5 c #88b463",
"#9 c #89b464",
"aJ c #8ab666",
"av c #8bb566",
"#. c #8bb567",
"#k c #8bb568",
"#w c #8bb667",
"aF c #8bb668",
".2 c #8cb668",
"aI c #8eb86b",
".l c #dbe6b5",
".d c #dbe6b6",
".m c #fde46b",
"QtQt.#QtQtQtQtQtQtQtQtQtQtQtQtQtQtQtQtQtQtQtQtQtQtQtQtQtQtQt.aQt.aQtQtQtQtQtQtQtQtQtQtQtQtQtQtQtQtQtQtQtQtQtQtQtQtQtQtQtQtQtQtQt",
".b.c.d.c.bQtQtQtQtQtQtQtQtQtQtQtQtQtQtQtQt.e.fQtQtQtQtQtQt.g.h.i.h.gQtQtQtQtQtQtQtQtQtQtQtQtQtQtQtQtQtQtQtQtQtQtQt.jQtQtQtQtQtQt",
".k.l.m.l.k.nQtQtQtQtQtQtQtQtQtQtQtQt.aQt.o.p.q.gQtQtQtQtQtQt.r.q.rQtQtQtQtQtQtQtQtQtQtQtQtQtQtQtQtQtQtQtQtQtQtQt.g.s.gQtQtQtQtQt",
".b.c.d.c.bQtQtQtQtQtQtQt.aQtQtQtQt.g.q.g.t.u.v.wQtQtQtQtQtQtQt.fQtQtQtQtQt.fQtQtQt.f.jQtQtQtQtQtQtQtQtQt.xQtQt.w.v.y.z.wQtQtQtQt",
"QtQt.#QtQtQtQtQtQtQtQt.A.q.gQtQtQtQt.r.B.g.i.gQtQtQtQtQtQtQtQtQtQtQtQtQt.g.C.rQt.D.E.F.aQtQtQtQtQtQtQtQt.GQtQt.g.H.I.o.xQtQtQtQt",
"QtQt.JQtQtQtQtQtQtQt.g.q.AQtQtQtQtQt.f.j.j.v.q.gQtQtQtQtQtQtQtQtQtQtQtQt.a.K.L.r.M.N.O.t.wQtQtQtQtQt.P.Q.R.S.e.T.U.V.w.GQtQtQtQt",
"QtQtQtQtQtQtQtQtQtQtQt.aQtQtQtQtQt.g.q.W.W.u.p.wQtQtQtQtQtQtQtQtQtQtQtQtQt.X.F.Y.Z.O.0QtQtQtQtQtQtQtQt.b.1.2.3.f.4.b.1.5.Q.PQtQt",
"QtQtQtQtQtQtQtQtQtQtQtQtQtQtQtQtQt.w.I.6.v.7QtQtQtQtQtQtQtQtQtQtQtQtQtQt.w.z.8.9.q.p.jQtQtQt.f.aQtQtQt.P.Q#.##.S.5#a.R.1QtQtQtQt",
"Qt.aQtQtQtQtQtQtQtQtQtQtQtQtQtQtQtQt.g.s.g.wQtQtQtQtQtQtQtQtQtQtQtQtQtQtQt.o.t.j.f.g.s#bQt.D#c.E.aQtQtQtQt#d.3.2.1Qt#eQtQtQtQtQt",
".r.B.g.jQtQtQtQtQtQtQtQtQtQtQtQtQtQtQt.jQtQtQtQtQtQtQtQtQtQtQtQtQtQtQtQtQtQt.wQt.w.t#f#g#h#c#i.K.aQtQtQtQt#j.3#k.Q.P.xQtQt.jQtQt",
".L#l.a.s.gQt.x.xQtQtQtQtQtQtQtQtQtQt.JQtQtQtQtQtQtQtQtQtQtQt.aQtQtQtQtQtQtQtQtQtQt.o.I.F#m#n.O#o.wQtQtQtQtQtQt#eQtQtQtQt.g.s.gQt",
".Z.j#p.y.z.w####QtQtQtQtQtQtQtQtQtQt.#QtQtQtQtQtQtQtQtQtQt.A.q.gQtQt.aQtQtQtQtQtQt.w.i.u#q#r#s#tQtQtQtQtQtQtQt.xQtQtQt.w.z.y.v.w",
"#u.I#v.I.x#a.2#w#e.PQtQtQtQtQtQt.b.c.d.c.bQtQtQtQtQtQtQt.g.B.rQtQt.A.q.gQtQtQtQtQtQt.o.i.j.iQtQtQtQtQtQtQtQtQtQtQtQtQtQt.o.I.H.g",
"#x#y#z.z#A.R.1#eQt.PQtQtQtQtQt.n.k.l.m.l.k.nQtQtQtQtQtQtQt.f.fQt.g.q.AQtQtQtQtQtQtQtQt.wQt.wQtQtQtQtQtQt.aQtQtQtQtQtQtQt.w.i#B.z",
".i.f.t.G#C##Qt.P####QtQtQtQtQtQt.b.c.d.c.bQtQtQtQtQt.aQtQt.r.B.gQt.fQtQtQtQtQtQtQtQtQtQtQtQtQtQtQtQtQt.g.q.AQtQtQtQtQtQtQt.o.t.o",
".eQt.1.2#w#D.j#a.2#w#e.PQtQtQtQtQtQt.#QtQtQtQtQtQt.A.q.a.a.q.AQtQtQt.fQtQtQtQtQtQt.g.aQtQtQtQtQtQtQtQtQt.A.q.gQtQtQtQtQtQtQt.wQt",
".P.Q.R.1#eQt#e.R.1#eQtQtQtQtQtQtQtQt.JQtQtQtQtQt.g.q.AQtQt.fQtQtQt.A.q.gQtQt.g.f.a.C#c.aQtQtQtQtQtQtQtQtQt.aQtQtQtQtQt.JQtQtQtQt",
"QtQt.GQt.PQtQt.GQt.PQtQtQtQtQtQtQtQtQtQtQtQtQtQtQt.aQtQtQt.fQtQt.g.q.AQtQt.a.C.E.g#b.H.AQtQt.fQtQtQtQtQtQtQtQtQtQtQtQt.#QtQtQtQt",
"QtQt.xQtQtQtQt.xQtQtQtQtQtQtQtQtQtQtQtQtQtQtQtQtQtQtQtQt.A.q.gQtQt.aQtQtQtQt#E.K.s.I#F#G.j.D.C.gQtQtQtQtQtQtQtQtQt.b.c.d.c.bQtQt",
"QtQtQtQtQtQtQtQtQtQtQtQtQtQtQtQtQtQtQtQtQtQtQtQtQtQtQt.g.q.AQtQtQtQtQtQtQtQt.w#H#I#J#y#K#L#M.K.aQtQtQtQtQtQtQtQt.n.k.l.m.l.k.nQt",
"QtQtQtQtQtQtQtQtQtQtQtQt.aQtQt.aQtQtQtQt.aQtQtQtQt.xQtQt.aQtQtQtQtQtQtQtQtQt.w.t#N.F.j#O#P.O#o.wQtQtQtQtQtQtQtQtQt.b.c.d.c.bQtQt",
"QtQtQtQtQtQtQtQtQtQtQt.g.q#E.a.B.rQtQt.A.q.gQtQtQt.GQtQtQt.xQtQtQtQtQtQtQtQtQt.o.i.g.j#v.O#y#tQtQtQtQtQtQtQtQtQtQtQtQt.#QtQtQtQt",
"QtQtQtQt.aQt.aQtQtQtQtQt.A.q#E#b.C.a.D.q.AQtQt.P.Q.5.1.bQt.GQtQtQtQtQtQtQtQtQtQt.wQtQt.g.tQtQtQtQtQtQtQtQtQtQtQtQtQtQt.JQtQtQtQt",
"QtQtQt.g.h.i.h.gQtQtQtQtQt.A#Q#E#R#b.C.AQtQtQtQtQt.1.5###a.5.Q.PQtQtQtQtQtQtQtQtQtQtQtQt.wQtQtQtQtQtQtQtQtQtQtQtQtQtQtQtQtQtQtQt",
"QtQtQtQt.r.q.rQtQtQtQtQtQtQt.aQt.f.g.C.gQtQtQtQtQtQt#d.3.R.1QtQtQtQtQtQtQtQtQtQtQt.JQtQtQtQtQtQtQtQtQtQtQtQtQtQtQtQtQtQtQtQtQtQt",
"QtQtQtQtQt.fQtQtQtQtQtQtQtQtQtQtQtQt.fQtQtQtQtQtQtQt#eQt#eQtQtQtQtQtQtQtQtQtQtQtQt.#QtQtQtQtQtQtQtQtQtQtQtQtQtQtQtQtQt.aQtQtQtQt",
"QtQtQtQtQtQtQtQtQtQtQtQtQtQtQtQtQtQtQtQtQtQtQtQt.P.Q.R.S.PQtQtQtQtQtQtQtQtQtQt.b.c.d.c.bQtQtQtQtQtQtQt.xQtQtQtQtQtQt.g.q.AQtQtQt",
"QtQt.g.gQtQtQtQtQtQtQtQtQtQtQtQtQtQtQtQtQtQtQtQtQt.b.1.2.3.PQtQtQtQtQtQtQtQt#S.#.l.m.l.k.nQtQtQtQtQtQt.GQtQtQt.xQtQtQt.A.q.gQtQt",
"Qt.f.C.C#E.aQtQtQtQtQtQtQtQtQtQtQtQtQtQtQtQtQtQtQt.P.Q#k.3.PQtQtQtQtQtQtQtQt.#.b.c.d.c.bQtQtQtQtQt.P.Q.5.1.bQt.GQtQtQtQt.aQtQtQt",
".g.g.r#E.C#c.aQtQtQtQt.x.xQtQtQtQtQtQtQtQtQtQtQtQtQtQt#eQtQtQt.jQtQtQtQt.b.c.d.c.b.#QtQtQtQtQtQtQtQtQt.1.5###a.5#e.PQtQtQtQtQtQt",
".M.M#T.g#b.H.AQtQt.fQt####QtQtQtQtQtQtQt.aQt.aQtQtQtQt.xQtQt.g.s.gQtQt.n.k.l.m.l.##SQtQtQtQtQtQtQtQtQtQt#d.3.R.1.P#eQtQtQtQtQtQt",
".g#E.K.s.I#F#G.j.D.L#U.2#w#e.PQtQtQtQt.g.h.i.h.gQtQtQtQtQt.w.z.y.v.wQtQt.b.c.d.c.bQtQtQtQtQtQtQtQtQtQtQt#eQt#e.P.1.5.Q.PQtQtQtQt",
"Qt.w#H#I#J#y#K#L#V#W#X#Y.QQtQtQtQtQtQtQt.r.q.rQtQtQtQtQtQtQt.o.I.H.gQtQtQtQt.#QtQtQtQtQtQtQtQtQtQtQt.P.Q.R.S.f#e.5.1QtQtQtQtQtQt",
"Qt.w.t#N.F.f#Z#n.O#p#A.g.gQtQtQtQtQtQtQtQt.fQtQtQtQtQtQtQtQt.w.i#B.z.wQtQtQt.JQtQtQtQtQtQtQtQtQtQtQtQt.b.1.2.3.b.GQtQtQtQtQtQtQt",
"QtQtQt.i#0#1#2#3#4.w.a.C#c.DQtQtQtQtQtQtQtQtQtQtQtQtQtQtQtQtQt.o.t.oQtQtQtQtQtQtQtQtQtQtQtQtQtQtQtQtQt.P.Q#k.3.P.xQtQtQtQtQtQtQt",
"Qt.g.f#5#A#X#6#7#e.nQt#b#8.K.aQt.fQtQtQtQtQtQtQtQtQtQtQtQtQtQtQt.wQtQtQtQtQtQtQtQtQt.g.g.fQtQtQtQtQtQtQtQt#eQtQtQtQt.aQtQtQtQtQt",
".a.C#c#EQt.1#9#Y.f.Ba..i#Ia#.j.D#R.gQtQtQtQtQtQtQtQtQtQtQtQtQtQtQtQtQtQtQtQtQtQtQt.a#Raa.L.DQtQtQtQtQtQtQt.xQtQtQt.g.q.AQtQtQtQt",
"Qt#b#8.K.aQt#1QtQt.Xab#Zac#n#h#Ta#adQtQtQtQtQtQt.aQtQt.aQtQtQtQtQtQtQtQtQtQtQtQtQtQt.D.K#i#T.aQt.f.f.gQtQtQtQtQtQtQt.A.q.gQtQt.g",
"Qt.t#Ia#.j#Eae.g.w#p#I#J#q#K#L#n.O.t.wQtQtQtQt.g.q#E.a.q.AQtQtQtQtQtQtQtQtQtQtQt.g.f.x#o.Oaf#0.g#Tag.L.aQtQtQtQtQtQtQt.aQtQt.a#R",
".H#Zac#n#h#Ta#.Dah#pac.F.j#p#P.O#yQtQtQtQtQtQtQt.A.q.a#E.q.gQtQtQtQtQtQtQtQtQt.a.Lag#Tai#y.6.vajak.O#o.wQtQtQtQtQtQtQtQtQtQtQt.g",
"al#M#q#K#L#n.Oam#AQtan#0.w.i.y#s.wQtQtQtQtQtQt.fQt.fQtQt.aQtQtQtQtQtQtQtQtQtQt.w#o.O.N.F#b.t#0.F.O#y#tQtQtQtQtQtQtQtQt.aQtQtQtQt",
"#u#M.j#p#P.O#s.3.5ao.5#A.P.o.iQtQtQtQtQtQtQt.g.q.AQtQtQtQtQtQtQtQtQtQtQtQtQtQtQt#tapacaq#2QtQt.g.tQtQtQtQtQtQtQtQtQt.g.q.AQtQtQt",
".t.g.w.i.y#s.wQt.1#9.1QtQtQt.wQtQtQtQtQtQtQtQt.A.q.gQtQtQtQtQtQtQtQtQtQtQtQtQtQtQtQt.t.t.gQtQtQt.wQtQtQtQtQtQtQtQtQtQt.A.q.gQtQt",
".wQtQt.o.iQtQtQtQt#eQtQtQtQtQtQtQtQtQtQtQtQtQtQt.aQtQt.fQtQtQt.f.jQtQtQtQtQtQtQtQtQt.w.wQtQtQtQtQtQtQtQtQt.aQt.aQtQtQtQt.aQtQtQt",
"QtQtQtQt.wQtQtQtQt.xQtQtQtQtQt.aQt.aQtQtQtQtQtQtQtQt.g.C.rQt.D.E.F.aQtQtQtQtQtQtQtQtQtQtQtQtQtQtQtQtQtQt.g.h.i.h.gQtQtQtQtQtQtQt",
"QtQtQtQtQtQtQtQtQtQtQtQtQtQt.g.h.i.h.gQtQtQtQtQtQtQt.a.K.L.r.M.N.O.t.wQtQtQtQtQtQtQtQtQtQtQtQtQtQtQtQtQtQt.r.q.rQtQtQtQtQtQtQtQt",
"QtQtQt.jQtQtQtQtQtQtQtQtQtQtQt.r.q.rQtQtQtQtQtQtQtQtQt.X.F.Y.Z.O.0QtQtQtQtQtQtQtQtQtQtQtQtQtQt.aQtQtQtQtQtQt.fQtQtQtQtQtQtQtQtQt",
"QtQt.g.s.gQtQtQtQtQtQt.JQtQtQtQt.fQtQtQtQtQtQtQtQtQt.w.z.8.9.q.p.jQtQtQt.f.aQtQtQtQtQtQtQtQt.A.q.gQtQtQtQtQtQtQtQtQtQtQtQtQtQtQt",
"Qt.w.z.y.v.wQtQtQtQtQt.#QtQtQtQtQtQtQtQtQtQtQtQtQtQtQt.o.t.j.f.g.s#bQt.D#c.E.aQtQtQtQtQtQt.A.q.AQtQtQtQtQtQtQtQtQtQtQtQtQtQtQtQt",
"QtQt.o.I.H.gQtQtQt.b.c.d.c.bQtQtQtQtQtQtQtQtQtQtQtQtQtQt.wQt.w.t#f#g#h#c#i.K.aQtQtQtQtQt.g.q.AQtQtQtQtQt.fQtQtQt.f.aQtQtQtQtQtQt",
"QtQt.w.i#B.z.wQt.n.k.l.m.l.##SQtQtQtQtQtQtQtQtQtQtQtQtQtQtQtQtQt.I.F#m#n.O#o.wQtQtQtQtQtQt.fQtQtQt.JQt.g.C.rQt.D.E.E.aQtQtQtQtQt",
"QtQtQt.o.t.fQtQtQt.Par.d.c.b.#QtQtQtQtQt.aQtQtQtQtQt.jQtQtQt.fQt.i.u#q#r#s#tQtQtQtQtQtQtQtQt.fQtQt.#Qt.a.K#T.r#c#gas.aQtQtQtQtQt",
"QtQtQtQtat.GQtQtQt.G.G.#.P.c.d.c.bQtQt.g.q.AQtQtQt.g.s.rQt.D.E.F.D.i.j.iQtQtQtQtQtQtQtQtQt.A.q.aau.d.cQt.A#T.Aaa.K.DQtQtQtQtQtQt",
"QtQtQt.P.Q.5.1.f.S.2avQtaw.l.m.l.k.nQtQt.r.B.gQt.w.t.Oax#h.M.N.O.tayQt.wQtQtQtQtQtQtQtQt.A.qazaA.l.m.laBaCaD#b.C.rQtQtQtQtQtQtQt",
"QtQtQtQtQt.1.5aEaF.1.1.3Qt.c.d.c.bQtQtQt.f.fQtQtQt#taGac.IaH.O.0#tQtQtQtQtQtQtQtQtQtQt.g.q.AQt.b.c.d.c.bQt.fQt.fQtQtQtQtQtQtQtQt",
"QtQtQtQtQt.P#a.2aIawaJ#w#e.P.#QtQtQtQt.g.B.rQtQtQt.w.zaK.9.q.I.g.fQtQtQtQtQtQtQtQtQtQtQt.aQtQtQtQt.#QtQtQtQtQtQtQtQtQtQtQtQtQtQt",
"Qt.a.gQtQtQtQt#e.1#9.1#eQtQt.JQtQtQtQtQt.AaL.gQtQtQt.o.i.g.raM.C#c.aQtQtQtQtQtQtQtQtQtQtQtQtQtQtQt.JQtQtQtQtQtQtQt.g.fQtQtQtQtQt",
"#E#T.C.aQtQtQt.PQt#eQt.PQtQtQtQtQtQtQtQtQt.rQtQtQtQtQtaM.C#T.g#b.H.AQtQt.fQtQtQtQtQtQtQtQtQtQtQtQtQtQtQtQtQtQtQt.f.C.E.D.eQtQt.f",
".Kaa#bQtQtQtQtQtQt.xQtQtQtQtQtQt.jQtQtQt.gaL.AQtQtQtQtQt#E.K.s.I#F#G.j.D.C.gQtQtQtQtQtQtQtQtQtQtQtQtQtQtQtQtQtQt.a.D.E.E.9QtaM.L",
"aNasaMQtQtQtQtQtQtQt.aQtQtQtQt.g.s.gQtQtQt.A.q.gQtQtQtQt.w#H#I#J#y#K#L#M.K.aQtQtQtQtQtQtQtQtQt.aQtQtQtQtQtQtQt.r.q.v.raf#K.7#p#i",
"aO.W.f.gQtQtQtQtQt.g.q.AQtQt.w.z.y.v.wQtQtQt.aQtQtQtQtQt.w.t#N.F.j#O#P.O#o.wQtQtQtQtQtQtQtQt.A.q.gQtQtQtQtQt.gaP#O.uaQ#K.0.0aOaR",
"aS#b.C.C.aQtQtQtQtQt.A.q.gQtQt.o.I.H.gQtQtQtQtQtQtQtQtQtQt.o.i.g.j#v.O#y#tQtQtQtQtQtQtQtQt.A.q.AQtQtQtQtQtQtQt.fQt#s#Bap.W.uaS#s",
"aO#v.D.gQtQtQtQtQtQtQt.aQtQtQt.w.i#B.z.wQtQtQtQtQtQtQtQtQtQt.wQtQt.g.tQtQtQtQtQtQtQtQtQt.g.q.AQtQtQtQtQtQtQtQtQtQtQt.taT.q#p.7aU",
".W.gQtQtQtQtQtQtQtQtQtQtQtQtQtQt.o.t.oQtQtQtQtQtQtQtQtQtQtQtQtQtQtQt.wQtQtQtQtQtQtQtQtQtQt.aQtQtQtQtQtQtQtQtQtQtQtQt.wQt.f.eQt.t"};
